<?xml version="1.0" encoding="UTF-8" standalone="no"?>
<svg
   xmlns:dc="http://purl.org/dc/elements/1.1/"
   xmlns:cc="http://creativecommons.org/ns#"
   xmlns:rdf="http://www.w3.org/1999/02/22-rdf-syntax-ns#"
   xmlns:svg="http://www.w3.org/2000/svg"
   xmlns="http://www.w3.org/2000/svg"
   xmlns:sodipodi="http://sodipodi.sourceforge.net/DTD/sodipodi-0.dtd"
   xmlns:inkscape="http://www.inkscape.org/namespaces/inkscape"
   width="175.09792"
   height="51.116413"
   viewBox="0 0 175.09792 51.116413"
   version="1.1"
   id="svg3783"
   sodipodi:docname="laravel.svg"
   inkscape:version="0.92.5 (2060ec1f9f, 2020-04-08)">
  <metadata
     id="metadata3789">
    <rdf:RDF>
      <cc:Work
         rdf:about="">
        <dc:format>image/svg+xml</dc:format>
        <dc:type
           rdf:resource="http://purl.org/dc/dcmitype/StillImage" />
        <dc:title>Logotype</dc:title>
      </cc:Work>
    </rdf:RDF>
  </metadata>
  <defs
     id="defs3787" />
  <sodipodi:namedview
     pagecolor="#ffffff"
     bordercolor="#666666"
     borderopacity="1"
     objecttolerance="10"
     gridtolerance="10"
     guidetolerance="10"
     inkscape:pageopacity="0"
     inkscape:pageshadow="2"
     inkscape:window-width="3736"
     inkscape:window-height="2032"
     id="namedview3785"
     showgrid="false"
     inkscape:zoom="5.4986856"
     inkscape:cx="286.81528"
     inkscape:cy="51.584459"
     inkscape:window-x="3176"
     inkscape:window-y="54"
     inkscape:window-maximized="1"
     inkscape:current-layer="svg3783" />
  <title
     id="title3779">Logotype</title>
  <path
     d="m 66.517913,11.842276 v 23.046 h 8.338 v 3.976 h -12.778 v -27.022 z m 24.01,11.465 v -2.432 h 4.208 v 17.99 h -4.207 v -2.433 c -0.567,0.901 -1.37,1.609 -2.413,2.123 -1.042,0.515 -2.091,0.772 -3.146,0.772 -1.365,0 -2.613,-0.25 -3.745,-0.752 a 8.758,8.758 0 0 1 -2.915,-2.066 9.6,9.6 0 0 1 -1.89,-3.01 9.717,9.717 0 0 1 -0.677,-3.63 c 0,-1.26 0.225,-2.464 0.676,-3.61 a 9.56,9.56 0 0 1 1.891,-3.03 8.766,8.766 0 0 1 2.915,-2.065 c 1.132,-0.502 2.38,-0.752 3.745,-0.752 1.055,0 2.104,0.257 3.146,0.772 1.042,0.515 1.846,1.222 2.413,2.123 z m -0.386,8.763 a 6.293,6.293 0 0 0 0.387,-2.2 c 0,-0.773 -0.13,-1.506 -0.387,-2.2 a 5.58,5.58 0 0 0 -1.08,-1.815 5.233,5.233 0 0 0 -1.68,-1.236 c -0.656,-0.308 -1.383,-0.463 -2.18,-0.463 -0.799,0 -1.52,0.155 -2.163,0.463 a 5.29,5.29 0 0 0 -1.66,1.236 5.307,5.307 0 0 0 -1.06,1.814 6.56,6.56 0 0 0 -0.368,2.2 c 0,0.772 0.122,1.506 0.367,2.2 0.244,0.696 0.598,1.3 1.062,1.815 a 5.279,5.279 0 0 0 1.66,1.236 c 0.642,0.309 1.363,0.463 2.161,0.463 0.798,0 1.525,-0.154 2.181,-0.463 a 5.222,5.222 0 0 0 1.68,-1.236 5.575,5.575 0 0 0 1.08,-1.814 z m 7.914,6.794 v -17.989 h 11.426997 v 4.141 h -7.22 v 13.85 h -4.206997 z m 26.674997,-15.557 v -2.432 h 4.208 v 17.99 h -4.208 v -2.433 c -0.566,0.901 -1.37,1.609 -2.413,2.123 -1.042,0.515 -2.09,0.772 -3.146,0.772 -1.364,0 -2.612,-0.25 -3.744,-0.752 a 8.758,8.758 0 0 1 -2.915,-2.066 9.6,9.6 0 0 1 -1.891,-3.01 9.717,9.717 0 0 1 -0.676,-3.63 c 0,-1.26 0.225,-2.464 0.676,-3.61 a 9.56,9.56 0 0 1 1.89,-3.03 8.766,8.766 0 0 1 2.916,-2.065 c 1.132,-0.502 2.38,-0.752 3.744,-0.752 1.055,0 2.104,0.257 3.146,0.772 1.043,0.515 1.847,1.222 2.413,2.123 z m -0.386,8.763 a 6.293,6.293 0 0 0 0.386,-2.2 c 0,-0.773 -0.13,-1.506 -0.386,-2.2 a 5.58,5.58 0 0 0 -1.08,-1.815 5.233,5.233 0 0 0 -1.68,-1.236 c -0.656,-0.308 -1.384,-0.463 -2.181,-0.463 -0.798,0 -1.519,0.155 -2.162,0.463 a 5.29,5.29 0 0 0 -1.66,1.236 5.307,5.307 0 0 0 -1.061,1.814 6.56,6.56 0 0 0 -0.367,2.2 c 0,0.772 0.121,1.506 0.367,2.2 0.244,0.696 0.598,1.3 1.061,1.815 a 5.279,5.279 0 0 0 1.66,1.236 c 0.643,0.309 1.364,0.463 2.162,0.463 0.797,0 1.525,-0.154 2.181,-0.463 a 5.222,5.222 0 0 0 1.68,-1.236 5.575,5.575 0 0 0 1.08,-1.814 z m 21.463,-11.195 h 4.262 l -6.905,17.99 h -5.29 l -6.906,-17.99 h 4.262 l 5.289,13.776 z m 13.44,-0.463 c 5.729,0 9.636,5.078 8.902,11.021 h -13.959 c 0,1.552 1.567,4.552 5.288,4.552 3.2,0 5.345,-2.815 5.346,-2.817 l 2.843,2.2 c -2.542,2.713 -4.623,3.96 -7.882,3.96 -5.823,0 -9.77,-3.684 -9.77,-9.458 0,-5.223 4.079,-9.458 9.231,-9.458 z m -5.046,7.894 h 10.084 c -0.031,-0.346 -0.578,-4.552 -5.072,-4.552 -4.495,0 -4.98,4.206 -5.012,4.552 z m 16.688,10.558 v -27.022 h 4.208 v 27.022 z"
     id="path3781"
     inkscape:connector-curvature="0"
     style="fill:#ff2d20;fill-rule:evenodd" />
  <path
     inkscape:connector-curvature="0"
     style="fill:#ff2d20;fill-rule:evenodd"
     d="m 49.626,11.563872 a 0.809,0.809 0 0 1 0.028,0.209 v 10.972 a 0.8,0.8 0 0 1 -0.402,0.693999 l -9.209,5.302 v 10.509 c 0,0.286 -0.152,0.55 -0.4,0.694 l -19.223,11.066 c -0.044,0.025 -0.092,0.041 -0.14,0.058 -0.018,0.006 -0.035,0.017 -0.054,0.022 a 0.805,0.805 0 0 1 -0.41,0 c -0.022,-0.006 -0.042,-0.018 -0.063,-0.026 -0.044,-0.016 -0.09,-0.03 -0.132,-0.054 L 0.402,39.943871 A 0.801,0.801 0 0 1 0,39.249871 V 6.3338722 c 0,-0.072 0.01,-0.1420004 0.028,-0.2100004 0.006,-0.023 0.02,-0.044 0.028,-0.067 0.015,-0.042 0.029,-0.085 0.051,-0.124 0.015,-0.026 0.037,-0.047 0.055,-0.071 0.023,-0.032 0.044,-0.065 0.071,-0.093 0.023,-0.023 0.053,-0.04 0.079,-0.06 0.029,-0.024 0.055,-0.05 0.088,-0.069 h 0.001 l 9.61,-5.53300057 a 0.802,0.802 0 0 1 0.8,0 l 9.61,5.53300057 h 0.002 c 0.032,0.02 0.059,0.045 0.088,0.068 0.026,0.02 0.055,0.038 0.078,0.06 0.028,0.029 0.048,0.062 0.072,0.094 0.017,0.024 0.04,0.045 0.054,0.071 0.023,0.04 0.036,0.082 0.052,0.124 0.008,0.023 0.022,0.044 0.028,0.068 a 0.809,0.809 0 0 1 0.028,0.2090004 V 26.892871 l 8.008,-4.610999 v -10.51 c 0,-0.07 0.01,-0.141 0.028,-0.208 0.007,-0.024 0.02,-0.045 0.028,-0.068 0.016,-0.042 0.03,-0.085 0.052,-0.124 0.015,-0.026 0.037,-0.047 0.054,-0.071 0.024,-0.032 0.044,-0.065 0.072,-0.093 0.023,-0.023 0.052,-0.04 0.078,-0.06 0.03,-0.024 0.056,-0.05 0.088,-0.069 h 10e-4 l 9.611,-5.5330002 a 0.801,0.801 0 0 1 0.8,0 l 9.61,5.5330002 c 0.034,0.02 0.06,0.045 0.09,0.068 0.025,0.02 0.054,0.038 0.077,0.06 0.028,0.029 0.048,0.062 0.072,0.094 0.018,0.024 0.04,0.045 0.054,0.071 0.023,0.039 0.036,0.082 0.052,0.124 0.009,0.023 0.022,0.044 0.028,0.068 z m -1.574,10.718 v -9.124 l -3.363,1.936 -4.646,2.675 v 9.123999 l 8.01,-4.610999 z m -9.61,16.504999 v -9.13 l -4.57,2.61 -13.05,7.448 v 9.216 z M 1.602,7.7188722 V 38.786871 l 17.618,10.143 v -9.214 l -9.204,-5.209 -0.003,-0.002 -0.004,-0.002 c -0.031,-0.018 -0.057,-0.044 -0.086,-0.066 -0.025,-0.02 -0.054,-0.036 -0.076,-0.058 l -0.002,-0.003 c -0.026,-0.025 -0.044,-0.056 -0.066,-0.084 -0.02,-0.027 -0.044,-0.05 -0.06,-0.078 l -10e-4,-0.003 c -0.018,-0.03 -0.029,-0.066 -0.042,-0.1 -0.013,-0.03 -0.03,-0.058 -0.038,-0.09 v -10e-4 c -0.01,-0.038 -0.012,-0.078 -0.016,-0.117 -0.004,-0.03 -0.012,-0.06 -0.012,-0.09 v -0.002 -21.480999 L 4.965,9.6538722 1.602,7.7198722 Z M 10.412,1.7248714 2.405,6.3338722 10.41,10.942872 18.416,6.3328722 10.41,1.7248714 Z m 4.164,28.7639996 4.645,-2.674 V 7.7188722 l -3.363,1.936 -4.646,2.6749998 v 20.095999 z m 24.667,-23.3249988 -8.006,4.6089998 8.006,4.609 8.005,-4.61 z m -0.801,10.6049998 -4.646,-2.675 -3.363,-1.936 v 9.124 l 4.645,2.673999 3.364,1.937 z m -18.422,20.560999 11.743,-6.704 5.87,-3.35 -8,-4.606 -9.211,5.303 -8.395,4.833 z"
     id="path3840" />
</svg>
