<?xml version="1.0" encoding="UTF-8"?>
<svg width="133px" height="140px" viewBox="0 0 133 140" version="1.1" xmlns="http://www.w3.org/2000/svg" xmlns:xlink="http://www.w3.org/1999/xlink">
    <!-- Generator: Sketch 52.5 (67469) - http://www.bohemiancoding.com/sketch -->
    <title>Group 6</title>
    <desc>Created with Sketch.</desc>
    <g id="Page-1" stroke="none" stroke-width="1" fill="none" fill-rule="evenodd">
        <g id="Design" transform="translate(-1217.000000, -3436.000000)" fill="#FFFFFF">
            <g id="Group-6" transform="translate(1216.000000, 3436.000000)">
                <path d="M133.111856,4.90744492 C133.111856,7.61741949 130.92102,9.81451271 128.218764,9.81451271 C125.516507,9.81451271 123.325672,7.61741949 123.325672,4.90744492 C123.325672,2.19747034 125.516507,0.000377118644 128.218764,0.000377118644 C130.92102,0.000377118644 133.111856,2.19747034 133.111856,4.90744492" id="Fill-10" transform="translate(128.218764, 4.907445) rotate(-270.000000) translate(-128.218764, -4.907445) "></path>
                <path d="M133.111856,37.3640772 C133.111856,40.0740518 130.921772,42.271145 128.218764,42.271145 C125.516507,42.271145 123.325672,40.0740518 123.325672,37.3640772 C123.325672,34.6541027 125.516507,32.4570094 128.218764,32.4570094 C130.921772,32.4570094 133.111856,34.6541027 133.111856,37.3640772" id="Fill-12" transform="translate(128.218764, 37.364077) rotate(-270.000000) translate(-128.218764, -37.364077) "></path>
                <path d="M133.111856,69.8207095 C133.111856,72.5306841 130.921772,74.7277773 128.218764,74.7277773 C125.516507,74.7277773 123.325672,72.5306841 123.325672,69.8207095 C123.325672,67.110735 125.516507,64.9136417 128.218764,64.9136417 C130.921772,64.9136417 133.111856,67.110735 133.111856,69.8207095" id="Fill-14" transform="translate(128.218764, 69.820710) rotate(-270.000000) translate(-128.218764, -69.820710) "></path>
                <path d="M133.112232,102.277643 C133.112232,104.987617 130.921396,107.18471 128.218388,107.18471 C125.516131,107.18471 123.325296,104.987617 123.325296,102.277643 C123.325296,99.5676681 125.516131,97.3705749 128.218388,97.3705749 C130.921396,97.3705749 133.112232,99.5676681 133.112232,102.277643" id="Fill-16" transform="translate(128.218764, 102.277643) rotate(-270.000000) translate(-128.218764, -102.277643) "></path>
                <path d="M133.112232,134.734275 C133.112232,137.44425 130.921396,139.641343 128.21914,139.641343 C125.516131,139.641343 123.325296,137.44425 123.325296,134.734275 C123.325296,132.0243 125.516131,129.827207 128.21914,129.827207 C130.921396,129.827207 133.112232,132.0243 133.112232,134.734275" id="Fill-18" transform="translate(128.218764, 134.734275) rotate(-270.000000) translate(-128.218764, -134.734275) "></path>
                <path d="M102.530626,4.90744492 C102.530626,7.61817373 100.33979,9.81451271 97.6375341,9.81451271 C94.9352778,9.81451271 92.7444421,7.61817373 92.7444421,4.90744492 C92.7444421,2.19747034 94.9352778,0.000377118644 97.6375341,0.000377118644 C100.33979,0.000377118644 102.530626,2.19747034 102.530626,4.90744492" id="Fill-29" transform="translate(97.637534, 4.907445) rotate(-270.000000) translate(-97.637534, -4.907445) "></path>
                <path d="M102.530626,37.3640772 C102.530626,40.074806 100.340542,42.271145 97.6375341,42.271145 C94.9352778,42.271145 92.7444421,40.074806 92.7444421,37.3640772 C92.7444421,34.6541027 94.9352778,32.4570094 97.6375341,32.4570094 C100.340542,32.4570094 102.530626,34.6541027 102.530626,37.3640772" id="Fill-31" transform="translate(97.637534, 37.364077) rotate(-270.000000) translate(-97.637534, -37.364077) "></path>
                <path d="M102.530626,69.8207095 C102.530626,72.5314384 100.340542,74.7277773 97.6375341,74.7277773 C94.9352778,74.7277773 92.7444421,72.5314384 92.7444421,69.8207095 C92.7444421,67.110735 94.9352778,64.9136417 97.6375341,64.9136417 C100.340542,64.9136417 102.530626,67.110735 102.530626,69.8207095" id="Fill-33" transform="translate(97.637534, 69.820710) rotate(-270.000000) translate(-97.637534, -69.820710) "></path>
                <path d="M102.531002,102.277643 C102.531002,104.988372 100.340166,107.18471 97.637158,107.18471 C94.9349018,107.18471 92.7440661,104.988372 92.7440661,102.277643 C92.7440661,99.5676681 94.9349018,97.3705749 97.637158,97.3705749 C100.340166,97.3705749 102.531002,99.5676681 102.531002,102.277643" id="Fill-35" transform="translate(97.637534, 102.277643) rotate(-270.000000) translate(-97.637534, -102.277643) "></path>
                <path d="M102.531002,134.734275 C102.531002,137.445004 100.340166,139.641343 97.6379101,139.641343 C94.9349018,139.641343 92.7440661,137.445004 92.7440661,134.734275 C92.7440661,132.0243 94.9349018,129.827207 97.6379101,129.827207 C100.340166,129.827207 102.531002,132.0243 102.531002,134.734275" id="Fill-37" transform="translate(97.637534, 134.734275) rotate(-270.000000) translate(-97.637534, -134.734275) "></path>
                <path d="M71.9493963,4.90744492 C71.9493963,7.61817373 69.7585607,9.81451271 67.0563044,9.81451271 C64.3540481,9.81451271 62.1632125,7.61817373 62.1632125,4.90744492 C62.1632125,2.19747034 64.3540481,0.000377118644 67.0563044,0.000377118644 C69.7585607,0.000377118644 71.9493963,2.19747034 71.9493963,4.90744492" id="Fill-48" transform="translate(67.056304, 4.907445) rotate(-270.000000) translate(-67.056304, -4.907445) "></path>
                <path d="M71.9493963,37.3640772 C71.9493963,40.074806 69.7593128,42.271145 67.0563044,42.271145 C64.3540481,42.271145 62.1632125,40.074806 62.1632125,37.3640772 C62.1632125,34.6541027 64.3540481,32.4570094 67.0563044,32.4570094 C69.7593128,32.4570094 71.9493963,34.6541027 71.9493963,37.3640772" id="Fill-50" transform="translate(67.056304, 37.364077) rotate(-270.000000) translate(-67.056304, -37.364077) "></path>
                <path d="M71.9493963,69.8207095 C71.9493963,72.5314384 69.7593128,74.7277773 67.0563044,74.7277773 C64.3540481,74.7277773 62.1632125,72.5314384 62.1632125,69.8207095 C62.1632125,67.110735 64.3540481,64.9136417 67.0563044,64.9136417 C69.7593128,64.9136417 71.9493963,67.110735 71.9493963,69.8207095" id="Fill-52" transform="translate(67.056304, 69.820710) rotate(-270.000000) translate(-67.056304, -69.820710) "></path>
                <path d="M71.9497724,102.277643 C71.9497724,104.988372 69.7589367,107.18471 67.0559284,107.18471 C64.3536721,107.18471 62.1628364,104.988372 62.1628364,102.277643 C62.1628364,99.5676681 64.3536721,97.3705749 67.0559284,97.3705749 C69.7589367,97.3705749 71.9497724,99.5676681 71.9497724,102.277643" id="Fill-54" transform="translate(67.056304, 102.277643) rotate(-270.000000) translate(-67.056304, -102.277643) "></path>
                <path d="M71.9497724,134.734275 C71.9497724,137.445004 69.7589367,139.641343 67.0566805,139.641343 C64.3536721,139.641343 62.1628364,137.445004 62.1628364,134.734275 C62.1628364,132.0243 64.3536721,129.827207 67.0566805,129.827207 C69.7589367,129.827207 71.9497724,132.0243 71.9497724,134.734275" id="Fill-56" transform="translate(67.056304, 134.734275) rotate(-270.000000) translate(-67.056304, -134.734275) "></path>
                <path d="M41.3681667,4.90744492 C41.3681667,7.61817373 39.177331,9.81451271 36.4750747,9.81451271 C33.7728185,9.81451271 31.5819828,7.61817373 31.5819828,4.90744492 C31.5819828,2.19747034 33.7728185,0.000377118644 36.4750747,0.000377118644 C39.177331,0.000377118644 41.3681667,2.19747034 41.3681667,4.90744492" id="Fill-67" transform="translate(36.475075, 4.907445) rotate(-270.000000) translate(-36.475075, -4.907445) "></path>
                <path d="M41.3681667,37.3640772 C41.3681667,40.074806 39.1780831,42.271145 36.4750747,42.271145 C33.7728185,42.271145 31.5819828,40.074806 31.5819828,37.3640772 C31.5819828,34.6541027 33.7728185,32.4570094 36.4750747,32.4570094 C39.1780831,32.4570094 41.3681667,34.6541027 41.3681667,37.3640772" id="Fill-69" transform="translate(36.475075, 37.364077) rotate(-270.000000) translate(-36.475075, -37.364077) "></path>
                <path d="M41.3681667,69.8207095 C41.3681667,72.5314384 39.1780831,74.7277773 36.4750747,74.7277773 C33.7728185,74.7277773 31.5819828,72.5314384 31.5819828,69.8207095 C31.5819828,67.110735 33.7728185,64.9136417 36.4750747,64.9136417 C39.1780831,64.9136417 41.3681667,67.110735 41.3681667,69.8207095" id="Fill-71" transform="translate(36.475075, 69.820710) rotate(-270.000000) translate(-36.475075, -69.820710) "></path>
                <path d="M41.3685427,102.277643 C41.3685427,104.988372 39.1777071,107.18471 36.4746987,107.18471 C33.7724424,107.18471 31.5816068,104.988372 31.5816068,102.277643 C31.5816068,99.5676681 33.7724424,97.3705749 36.4746987,97.3705749 C39.1777071,97.3705749 41.3685427,99.5676681 41.3685427,102.277643" id="Fill-73" transform="translate(36.475075, 102.277643) rotate(-270.000000) translate(-36.475075, -102.277643) "></path>
                <path d="M41.3685427,134.734275 C41.3685427,137.445004 39.1777071,139.641343 36.4754508,139.641343 C33.7724424,139.641343 31.5816068,137.445004 31.5816068,134.734275 C31.5816068,132.0243 33.7724424,129.827207 36.4754508,129.827207 C39.1777071,129.827207 41.3685427,132.0243 41.3685427,134.734275" id="Fill-75" transform="translate(36.475075, 134.734275) rotate(-270.000000) translate(-36.475075, -134.734275) "></path>
                <path d="M10.7865599,4.9070678 C10.7865599,7.61779661 8.59572423,9.81488983 5.89346797,9.81488983 C3.1912117,9.81488983 1.00037604,7.61779661 1.00037604,4.9070678 C1.00037604,2.19709322 3.1912117,0 5.89346797,0 C8.59572423,0 10.7865599,2.19709322 10.7865599,4.9070678" id="Fill-89" transform="translate(5.893468, 4.907445) rotate(-270.000000) translate(-5.893468, -4.907445) "></path>
                <path d="M10.7865599,37.3637001 C10.7865599,40.0744289 8.59647632,42.2715221 5.89346797,42.2715221 C3.1912117,42.2715221 1.00037604,40.0744289 1.00037604,37.3637001 C1.00037604,34.6537255 3.1912117,32.4566323 5.89346797,32.4566323 C8.59647632,32.4566323 10.7865599,34.6537255 10.7865599,37.3637001" id="Fill-92" transform="translate(5.893468, 37.364077) rotate(-270.000000) translate(-5.893468, -37.364077) "></path>
                <path d="M10.7865599,69.8203324 C10.7865599,72.5310612 8.59647632,74.7281545 5.89346797,74.7281545 C3.1912117,74.7281545 1.00037604,72.5310612 1.00037604,69.8203324 C1.00037604,67.1103578 3.1912117,64.9132646 5.89346797,64.9132646 C8.59647632,64.9132646 10.7865599,67.1103578 10.7865599,69.8203324" id="Fill-95" transform="translate(5.893468, 69.820710) rotate(-270.000000) translate(-5.893468, -69.820710) "></path>
                <path d="M10.7869359,102.277266 C10.7869359,104.987994 8.59610028,107.185088 5.89309192,107.185088 C3.19083565,107.185088 1,104.987994 1,102.277266 C1,99.567291 3.19083565,97.3701978 5.89309192,97.3701978 C8.59610028,97.3701978 10.7869359,99.567291 10.7869359,102.277266" id="Fill-98" transform="translate(5.893468, 102.277643) rotate(-270.000000) translate(-5.893468, -102.277643) "></path>
                <path d="M10.7869359,134.733898 C10.7869359,137.444627 8.59610028,139.64172 5.89384401,139.64172 C3.19083565,139.64172 1,137.444627 1,134.733898 C1,132.023923 3.19083565,129.82683 5.89384401,129.82683 C8.59610028,129.82683 10.7869359,132.023923 10.7869359,134.733898" id="Fill-101" transform="translate(5.893468, 134.734275) rotate(-270.000000) translate(-5.893468, -134.734275) "></path>
            </g>
        </g>
    </g>
</svg>