<?xml version="1.0" encoding="utf-8"?>
<!-- Generator: Adobe Illustrator 23.0.4, SVG Export Plug-In . SVG Version: 6.00 Build 0)  -->
<svg version="1.1" id="Слой_2" xmlns="http://www.w3.org/2000/svg" xmlns:xlink="http://www.w3.org/1999/xlink" x="0px" y="0px"
	 viewBox="0 0 170.2 196.5" style="enable-background:new 0 0 170.2 196.5;" xml:space="preserve">
<style type="text/css">
	.st0{fill:#16110D;}
	.st1{fill:#0066FF;}
	.st2{fill:#FFFFFF;}
</style>
<g id="_x32_7">
	<g id="XMLID_5373_">
		<ellipse id="XMLID_5432_" class="st0" cx="51.5" cy="182.6" rx="2.1" ry="1.2"/>
		<path id="XMLID_5431_" class="st0" d="M60.7,177.2c0.8,0.5,0.8,1.2,0,1.7c-0.8,0.5-2.1,0.5-3,0c-0.8-0.5-0.8-1.2,0-1.7
			C58.6,176.8,59.9,176.8,60.7,177.2z"/>
		<ellipse id="XMLID_5430_" class="st0" cx="67" cy="173.6" rx="2.1" ry="1.2"/>
		<path id="XMLID_5429_" class="st0" d="M45.3,177.2c0.8,0.5,0.8,1.2,0,1.7c-0.8,0.5-2.1,0.5-3,0c-0.8-0.5-0.8-1.2,0-1.7
			C43.1,176.8,44.4,176.8,45.3,177.2z"/>
		<path id="XMLID_5428_" class="st0" d="M53,172.8c0.8,0.5,0.8,1.2,0,1.7c-0.8,0.5-2.1,0.5-3,0c-0.8-0.5-0.8-1.2,0-1.7
			C50.9,172.3,52.2,172.3,53,172.8z"/>
		<path id="XMLID_5427_" class="st0" d="M60.7,168.3c0.8,0.5,0.8,1.2,0,1.7c-0.8,0.5-2.1,0.5-3,0c-0.8-0.5-0.8-1.2,0-1.7
			C58.6,167.8,59.9,167.8,60.7,168.3L60.7,168.3z"/>
		<ellipse id="XMLID_5426_" class="st0" cx="36" cy="173.6" rx="2.1" ry="1.2"/>
		<path id="XMLID_5425_" class="st0" d="M45.3,168.3c0.8,0.5,0.8,1.2,0,1.7c-0.8,0.5-2.1,0.5-3,0c-0.8-0.5-0.8-1.2,0-1.7
			C43.1,167.8,44.4,167.8,45.3,168.3z"/>
		<path id="XMLID_5424_" class="st0" d="M53,163.8c0.8,0.5,0.8,1.2,0,1.7c-0.8,0.5-2.1,0.5-3,0c-0.8-0.5-0.8-1.2,0-1.7H53z"/>
		<path id="XMLID_5423_" class="st0" d="M29.8,168.3c0.8,0.5,0.8,1.2,0,1.7c-0.8,0.5-2.1,0.5-3,0c-0.8-0.5-0.8-1.2,0-1.7
			C27.6,167.8,28.9,167.8,29.8,168.3z"/>
		<path id="XMLID_5422_" class="st0" d="M37.5,163.8c0.8,0.5,0.8,1.2,0,1.7c-0.8,0.5-2.1,0.5-3,0c-0.8-0.5-0.8-1.2,0-1.7
			C35.4,163.4,36.7,163.4,37.5,163.8z"/>
		<ellipse id="XMLID_5421_" class="st0" cx="28.3" cy="160.2" rx="2.1" ry="1.2"/>
		<path id="XMLID_5420_" class="st0" d="M29.7,150.4c0.8,0.5,0.8,1.2,0,1.7c-0.8,0.5-2.1,0.5-3,0c-0.8-0.5-0.8-1.2,0-1.7
			C27.6,149.9,28.9,149.9,29.7,150.4z"/>
		<path id="XMLID_5419_" class="st0" d="M130.8,190c0.8,0.5,0.8,1.2,0,1.7c-0.8,0.5-2.1,0.5-3,0c-0.8-0.5-0.8-1.2,0-1.7
			C128.7,189.5,130,189.5,130.8,190z"/>
		<path id="XMLID_5418_" class="st0" d="M138.6,185.5c0.8,0.5,0.8,1.2,0,1.7c-0.8,0.5-2.1,0.5-3,0c-0.8-0.5-0.8-1.2,0-1.7
			C136.4,185,137.8,185,138.6,185.5z"/>
		<path id="XMLID_5417_" class="st0" d="M146.3,181c0.8,0.5,0.8,1.2,0,1.7c-0.8,0.5-2.1,0.5-3,0c-0.8-0.5-0.8-1.2,0-1.7
			C144.2,180.6,145.5,180.6,146.3,181z"/>
		<path id="XMLID_5416_" class="st0" d="M154.1,176.6c0.8,0.5,0.8,1.2,0,1.7c-0.8,0.5-2.1,0.5-3,0c-0.8-0.5-0.8-1.2,0-1.7
			C151.9,176.1,153.2,176.1,154.1,176.6z"/>
		<ellipse id="XMLID_5415_" class="st0" cx="160.3" cy="173" rx="2.1" ry="1.2"/>
		<path id="XMLID_5414_" class="st0" d="M169.6,167.6c0.8,0.5,0.8,1.2,0,1.7c-0.8,0.5-2.1,0.5-3,0c-0.8-0.5-0.8-1.2,0-1.7
			C167.4,167.2,168.7,167.2,169.6,167.6z"/>
		<path id="XMLID_5413_" class="st0" d="M107.6,194.5c0.8,0.5,0.8,1.2,0,1.7c-0.8,0.5-2.1,0.5-3,0c-0.8-0.5-0.8-1.2,0-1.7
			C105.4,194,106.8,194,107.6,194.5z"/>
		<path id="XMLID_5412_" class="st0" d="M115.3,190c0.8,0.5,0.8,1.2,0,1.7c-0.8,0.5-2.1,0.5-3,0c-0.8-0.5-0.8-1.2,0-1.7
			C113.2,189.5,114.5,189.5,115.3,190z"/>
		<path id="XMLID_5411_" class="st0" d="M123.1,185.5c0.8,0.5,0.8,1.2,0,1.7c-0.8,0.5-2.1,0.5-3,0c-0.8-0.5-0.8-1.2,0-1.7
			C120.9,185,122.3,185,123.1,185.5z"/>
		<path id="XMLID_5410_" class="st0" d="M130.8,181c0.8,0.5,0.8,1.2,0,1.7c-0.8,0.5-2.1,0.5-3,0c-0.8-0.5-0.8-1.2,0-1.7
			C128.7,180.6,130,180.6,130.8,181z"/>
		<path id="XMLID_5409_" class="st0" d="M138.6,176.6c0.8,0.5,0.8,1.2,0,1.7c-0.8,0.5-2.1,0.5-3,0c-0.8-0.5-0.8-1.2,0-1.7
			C136.4,176.1,137.8,176.1,138.6,176.6z"/>
		<path id="XMLID_5408_" class="st0" d="M146.3,172.1c0.8,0.5,0.8,1.2,0,1.7c-0.8,0.5-2.1,0.5-3,0c-0.8-0.5-0.8-1.2,0-1.7
			C144.2,171.6,145.5,171.6,146.3,172.1z"/>
		<path id="XMLID_5407_" class="st0" d="M154.1,167.6c0.8,0.5,0.8,1.2,0,1.7c-0.8,0.5-2.1,0.5-3,0c-0.8-0.5-0.8-1.2,0-1.7
			C151.9,167.2,153.2,167.2,154.1,167.6z"/>
		<path id="XMLID_5406_" class="st0" d="M161.8,163.2c0.8,0.5,0.8,1.2,0,1.7c-0.8,0.5-2.1,0.5-3,0c-0.8-0.5-0.8-1.2,0-1.7
			C159.7,162.7,161,162.7,161.8,163.2z"/>
		<path id="XMLID_5405_" class="st0" d="M169.6,158.7c0.8,0.5,0.8,1.2,0,1.7c-0.8,0.5-2.1,0.5-3,0c-0.8-0.5-0.8-1.2,0-1.7
			C167.4,158.2,168.7,158.2,169.6,158.7z"/>
		<ellipse id="XMLID_5404_" class="st0" cx="90.5" cy="195.3" rx="2.1" ry="1.2"/>
		<path id="XMLID_5403_" class="st0" d="M99.8,189.9c0.8,0.5,0.8,1.2,0,1.7c-0.8,0.5-2.1,0.5-3,0c-0.8-0.5-0.8-1.2,0-1.7
			C97.6,189.5,99,189.5,99.8,189.9z"/>
		<path id="XMLID_5402_" class="st0" d="M107.5,185.5c0.8,0.5,0.8,1.2,0,1.7c-0.8,0.5-2.1,0.5-3,0c-0.8-0.5-0.8-1.2,0-1.7
			C105.4,185,106.7,185,107.5,185.5z"/>
		<path id="XMLID_5401_" class="st0" d="M115.3,181c0.8,0.5,0.8,1.2,0,1.7c-0.8,0.5-2.1,0.5-3,0c-0.8-0.5-0.8-1.2,0-1.7
			C113.1,180.5,114.4,180.5,115.3,181z"/>
		<path id="XMLID_5400_" class="st0" d="M123,176.5c0.8,0.5,0.8,1.2,0,1.7c-0.8,0.5-2.1,0.5-3,0c-0.8-0.5-0.8-1.2,0-1.7
			C120.9,176.1,122.2,176.1,123,176.5z"/>
		<path id="XMLID_5399_" class="st0" d="M130.8,172.1c0.8,0.5,0.8,1.2,0,1.7c-0.8,0.5-2.1,0.5-3,0c-0.8-0.5-0.8-1.2,0-1.7
			C128.6,171.6,129.9,171.6,130.8,172.1z"/>
		<path id="XMLID_5398_" class="st0" d="M138.5,167.6c0.8,0.5,0.8,1.2,0,1.7c-0.8,0.5-2.1,0.5-3,0c-0.8-0.5-0.8-1.2,0-1.7
			C136.4,167.1,137.7,167.1,138.5,167.6z"/>
		<path id="XMLID_5397_" class="st0" d="M146.2,163.1c0.8,0.5,0.8,1.2,0,1.7c-0.8,0.5-2.1,0.5-3,0c-0.8-0.5-0.8-1.2,0-1.7
			C144.1,162.6,145.4,162.6,146.2,163.1z"/>
		<path id="XMLID_5396_" class="st0" d="M154,158.6c0.8,0.5,0.8,1.2,0,1.7c-0.8,0.5-2.1,0.5-3,0c-0.8-0.5-0.8-1.2,0-1.7
			C151.9,158.2,153.2,158.2,154,158.6z"/>
		<path id="XMLID_5395_" class="st0" d="M161.7,154.2c0.8,0.5,0.8,1.2,0,1.7c-0.8,0.5-2.1,0.5-3,0c-0.8-0.5-0.8-1.2,0-1.7
			C159.6,153.7,160.9,153.7,161.7,154.2z"/>
		<path id="XMLID_5394_" class="st0" d="M169.5,149.7c0.8,0.5,0.8,1.2,0,1.7c-0.8,0.5-2.1,0.5-3,0c-0.8-0.5-0.8-1.2,0-1.7
			C167.3,149.2,168.7,149.2,169.5,149.7z"/>
		<path id="XMLID_5393_" class="st0" d="M84.3,189.9c0.8,0.5,0.8,1.2,0,1.7c-0.8,0.5-2.1,0.5-3,0s-0.8-1.2,0-1.7
			C82.1,189.5,83.5,189.5,84.3,189.9z"/>
		<path id="XMLID_5392_" class="st0" d="M92,185.5c0.8,0.5,0.8,1.2,0,1.7c-0.8,0.5-2.1,0.5-3,0c-0.8-0.5-0.8-1.2,0-1.7
			C89.9,185,91.2,185,92,185.5z"/>
		<path id="XMLID_5391_" class="st0" d="M99.8,181c0.8,0.5,0.8,1.2,0,1.7c-0.8,0.5-2.1,0.5-3,0c-0.8-0.5-0.8-1.2,0-1.7
			C97.6,180.5,99,180.5,99.8,181z"/>
		<path id="XMLID_5390_" class="st0" d="M107.5,176.5c0.8,0.5,0.8,1.2,0,1.7c-0.8,0.5-2.1,0.5-3,0c-0.8-0.5-0.8-1.2,0-1.7
			C105.4,176.1,106.7,176.1,107.5,176.5z"/>
		<path id="XMLID_5389_" class="st0" d="M115.3,172.1c0.8,0.5,0.8,1.2,0,1.7c-0.8,0.5-2.1,0.5-3,0c-0.8-0.5-0.8-1.2,0-1.7
			C113.1,171.6,114.4,171.6,115.3,172.1z"/>
		<path id="XMLID_5388_" class="st0" d="M123,167.6c0.8,0.5,0.8,1.2,0,1.7c-0.8,0.5-2.1,0.5-3,0L123,167.6z"/>
		<path id="XMLID_5387_" class="st0" d="M161.7,145.2c0.8,0.5,0.8,1.2,0,1.7c-0.8,0.5-2.1,0.5-3,0c-0.8-0.5-0.8-1.2,0-1.7
			C159.6,144.8,160.9,144.8,161.7,145.2z"/>
		<path id="XMLID_5386_" class="st0" d="M169.5,140.8c0.8,0.5,0.8,1.2,0,1.7c-0.8,0.5-2.1,0.5-3,0c-0.8-0.5-0.8-1.2,0-1.7
			C167.3,140.3,168.7,140.3,169.5,140.8z"/>
		<path id="XMLID_5385_" class="st0" d="M68.8,189.9c0.8,0.5,0.8,1.2,0,1.7c-0.8,0.5-2.1,0.5-3,0c-0.8-0.5-0.8-1.2,0-1.7
			C66.6,189.5,68,189.5,68.8,189.9z"/>
		<path id="XMLID_5384_" class="st0" d="M76.5,185.5c0.8,0.5,0.8,1.2,0,1.7c-0.8,0.5-2.1,0.5-3,0c-0.8-0.5-0.8-1.2,0-1.7
			C74.4,185,75.7,185,76.5,185.5z"/>
		<path id="XMLID_5383_" class="st0" d="M84.3,181c0.8,0.5,0.8,1.2,0,1.7c-0.8,0.5-2.1,0.5-3,0c-0.8-0.5-0.8-1.2,0-1.7
			C82.1,180.5,83.5,180.5,84.3,181z"/>
		<path id="XMLID_5382_" class="st0" d="M92,176.5c0.8,0.5,0.8,1.2,0,1.7c-0.8,0.5-2.1,0.5-3,0c-0.8-0.5-0.8-1.2,0-1.7
			C89.9,176.1,91.2,176.1,92,176.5z"/>
		<path id="XMLID_5381_" class="st0" d="M99.8,172.1c0.8,0.5,0.8,1.2,0,1.7c-0.8,0.5-2.1,0.5-3,0c-0.8-0.5-0.8-1.2,0-1.7H99.8z"/>
		<path id="XMLID_5380_" class="st0" d="M161.7,136.3c0.8,0.5,0.8,1.2,0,1.7c-0.8,0.5-2.1,0.5-3,0c-0.8-0.5-0.8-1.2,0-1.7
			C159.6,135.8,160.9,135.8,161.7,136.3z"/>
		<path id="XMLID_5379_" class="st0" d="M61,185.5c0.8,0.5,0.8,1.2,0,1.7c-0.8,0.5-2.1,0.5-3,0c-0.8-0.5-0.8-1.2,0-1.7
			C58.9,185,60.2,185,61,185.5z"/>
		<path id="XMLID_5378_" class="st0" d="M68.8,181c0.8,0.5,0.8,1.2,0,1.7c-0.8,0.5-2.1,0.5-3,0c-0.8-0.5-0.8-1.2,0-1.7
			C66.6,180.5,68,180.5,68.8,181z"/>
		<path id="XMLID_5377_" class="st0" d="M76.5,176.5c0.8,0.5,0.8,1.2,0,1.7c-0.8,0.5-2.1,0.5-3,0c-0.8-0.5-0.8-1.2,0-1.7
			C74.4,176.1,75.7,176.1,76.5,176.5z"/>
		<path id="XMLID_5376_" class="st0" d="M84.3,172.1c0.8,0.5,0.8,1.2,0,1.7s-2.1,0.5-3,0s-0.8-1.2,0-1.7H84.3z"/>
		<path id="XMLID_5375_" class="st0" d="M166.5,131.9c0.8-0.5,2.1-0.5,3,0c0.8,0.5,0.8,1.2,0,1.7c-0.8,0.5-2.1,0.5-3,0
			C165.7,133.1,165.7,132.3,166.5,131.9z"/>
		<path id="XMLID_5374_" class="st0" d="M158.8,127.4c0.8-0.5,2.1-0.5,3,0c0.8,0.5,0.8,1.2,0,1.7c-0.8,0.5-2.1,0.5-3,0
			C158,128.6,158,127.9,158.8,127.4z"/>
	</g>
	<g id="XMLID_5348_">
		<path id="XMLID_5372_" class="st1" d="M159.4,141l0-0.3l0-17.4l-8.3,0.2c-2.7-2.8-6.1-5.5-10.2-7.9c-24.9-14.7-65.6-15.1-90.7-0.8
			c-4.2,2.4-7.6,5-10.4,7.7l-8.5-0.1l-0.2,17.1l0,0c-0.7,9.9,5.5,20,18.5,27.7c24.9,14.7,65.6,15.1,90.7,0.8
			C153.7,160.5,160,150.9,159.4,141z"/>
		<path id="XMLID_7201_" class="st0" d="M151.9,121.8c-2.9-2.9-6.3-5.4-10.1-7.7c-25.3-14.9-66.8-15.3-92.4-0.9
			c-3.9,2.2-7.3,4.7-10.2,7.5l-9.5-0.1l-0.2,18.6c-0.8,10.9,6.3,21.5,19.3,29.2c25.3,14.9,66.8,15.3,92.4,0.9
			c6.6-3.7,11.7-8.1,15-12.9c3.4-4.8,5-10.1,4.8-15.5l0-19.5L151.9,121.8z M32.9,139.5l0.1-15.4l7.5,0.1l0.5-0.5
			c2.8-2.8,6.2-5.3,10-7.5c24.7-14,64.7-13.6,89.1,0.8c0.6,0.3,1.1,0.7,1.7,1.1l-41,25.8l-2.3,32.8c-7,0.2-14-0.3-20.7-1.5l1.5-16.5
			l-13.2-3l-1.5,16.2c-5-1.7-9.8-3.7-14.1-6.2C38.6,158.7,32.2,149.1,32.9,139.5z"/>
		<g id="XMLID_6908_">
			<path id="XMLID_5371_" class="st1" d="M141.1,97.2c24.9,14.7,24.7,38.2-0.5,52.4c-25.2,14.2-65.8,13.9-90.7-0.8
				c-24.9-14.7-24.7-38.2,0.5-52.4S116.2,82.5,141.1,97.2z"/>
			<path id="XMLID_5368_" class="st0" d="M156.4,138.2c-3.4,4.8-8.4,9.2-14.9,12.9c-25.6,14.5-67.1,14.1-92.4-0.9
				c-12.6-7.4-19.5-17.3-19.4-27.8c0.1-10.5,7.2-20.3,19.9-27.4c25.6-14.5,67.1-14.1,92.4,0.9l0,0c12.6,7.4,19.5,17.3,19.4,27.8
				C161.3,128.7,159.6,133.6,156.4,138.2z M37.3,109.7c-2.8,4-4.3,8.3-4.3,12.7c-0.1,9.3,6.2,18.1,17.7,24.9
				c24.4,14.4,64.4,14.8,89.1,0.8c11.6-6.6,18.1-15.3,18.2-24.6c0.1-9.3-6.2-18.1-17.7-24.9l0,0c-24.4-14.4-64.4-14.8-89.1-0.8
				C45.1,101.2,40.4,105.3,37.3,109.7z"/>
		</g>
		<g id="XMLID_6914_">
			<path id="XMLID_5367_" class="st2" d="M133,105.5c17.8,10.5,17.6,27.2-0.3,37.4c-18,10.1-46.9,9.9-64.7-0.6
				c-17.8-10.5-17.6-27.2,0.3-37.4C86.3,94.7,115.3,95,133,105.5z"/>
			<path id="XMLID_5364_" class="st0" d="M139.6,131.2c-2.4,3.5-6.1,6.6-10.8,9.3c-18.4,10.4-48.2,10.1-66.4-0.6
				c-9.1-5.4-14.1-12.6-14-20.2c0.1-7.7,5.2-14.8,14.4-20c18.4-10.4,48.2-10.1,66.3,0.6l0,0c9.1,5.4,14.1,12.6,14,20.2
				C143.1,124.3,141.9,127.9,139.6,131.2z M54.7,110.9c-1.9,2.8-3,5.7-3,8.8c-0.1,6.4,4.3,12.6,12.4,17.4
				c17.3,10.2,45.6,10.5,63,0.6c8.2-4.6,12.7-10.7,12.7-17.1c0.1-6.4-4.4-12.6-12.4-17.4l0,0c-17.3-10.2-45.6-10.5-63-0.6
				C60.1,105,56.8,107.8,54.7,110.9z"/>
		</g>
		<g id="XMLID_6915_">
			<path id="XMLID_5363_" class="st1" d="M115.1,107.4c10.4,6.2,10.3,16-0.2,21.9c-10.5,6-27.6,5.8-38-0.4
				c-10.4-6.2-10.3-16,0.2-21.9C87.7,101.1,104.7,101.2,115.1,107.4z"/>
			<path id="XMLID_5361_" class="st0" d="M122.3,125.1c-1.5,2.1-3.7,4.1-6.6,5.7c-11,6.2-28.8,6-39.6-0.4c-5.6-3.3-8.6-7.7-8.6-12.5
				c0-4.8,3.2-9.1,8.8-12.3c11-6.2,28.8-6,39.6,0.4l0,0c5.6,3.3,8.6,7.7,8.6,12.5C124.5,120.8,123.7,123,122.3,125.1z M72.5,113.1
				c-1.1,1.5-1.6,3.1-1.6,4.8c0,3.5,2.4,6.9,7,9.6c10,5.9,26.3,6,36.3,0.3c4.6-2.6,7.1-5.9,7.1-9.5c0-3.5-2.4-6.9-7-9.6l0,0
				c-10-5.9-26.3-6-36.3-0.3C75.5,109.8,73.7,111.4,72.5,113.1z"/>
		</g>
		<g id="XMLID_6916_">
			<path id="XMLID_5360_" class="st2" d="M108.2,117.2c3.8,2.2,3.7,5.8-0.1,7.9c-3.8,2.2-10,2.1-13.7-0.1c-3.8-2.2-3.7-5.8,0.1-7.9
				C98.3,114.9,104.5,115,108.2,117.2z"/>
			<path id="XMLID_5357_" class="st0" d="M107,120.5c-0.6,0.9-1.5,1.7-2.7,2.4c-4.3,2.5-11.1,2.4-15.4-0.1c-2.4-1.4-3.6-3.3-3.6-5.4
				c0-2.1,1.3-4,3.7-5.4c4.3-2.5,11.1-2.4,15.4,0.1l0,0c2.4,1.4,3.6,3.3,3.6,5.4C107.9,118.5,107.6,119.5,107,120.5z M88.9,116.1
				c-0.3,0.4-0.4,0.8-0.4,1.1c0,0.9,0.7,1.8,2,2.6c3.3,1.9,8.8,2,12.1,0.1c1.3-0.7,2-1.7,2-2.5c0-0.9-0.7-1.8-2-2.6l0,0
				c-3.3-1.9-8.8-2-12.1-0.1C89.8,115.2,89.3,115.7,88.9,116.1z"/>
		</g>
		<g id="XMLID_6983_">
			<g id="XMLID_6980_">
				
					<rect id="XMLID_7143_" x="0.5" y="55.3" transform="matrix(-0.5281 -0.8492 0.8492 -0.5281 16.3622 124.7707)" class="st2" width="84.7" height="5.1"/>
				<path id="XMLID_5354_" d="M69.6,93l-7.1,4.4L16.1,22.7l7.1-4.4L69.6,93z M63,92.9l2.5-1.1l-43-69.2L20,23.7L63,92.9z"/>
			</g>
			<path id="XMLID_5353_" class="st1" d="M77.5,110.7l-5-27.1l-7.3,10.2l-12.3,2l22,16.6C76.1,113.3,77.8,112.3,77.5,110.7z"/>
			<path id="XMLID_7006_" class="st2" d="M71.5,98.6l-12.3,2l16.6,12.5c0.6-0.3,2-1,1.8-1.8L74.8,94L71.5,98.6z"/>
			<path id="XMLID_7130_" d="M79.2,111.4c-0.1,1-0.7,2-1.6,2.5c-1.2,0.7-2.7,0.7-3.8-0.2L48.8,94.8l15.5-2.5l9.2-12.8l5.7,30.9
				C79.2,110.8,79.2,111.1,79.2,111.4z M56.9,96.8l18.9,14.2l0.1,0l-4.3-23.3l-5.5,7.6L56.9,96.8z"/>
			<path id="XMLID_6999_" class="st1" d="M3.6,16.6l10.9,17.5l19.1,11.4c1.1,0.7,2.5-0.2,2.4-1.5l-1.9-22.1L23.2,4.4l-3.4,16.5
				L3.6,16.6z"/>
			<path id="XMLID_5352_" class="st2" d="M34.7,23.2l-6.5-10.5l-2.3,11.4l-15-3.9l10.9,17.5l14.3,9c0.3-0.3,0.6-0.7,0.5-1.3
				L34.7,23.2z"/>
			<path id="XMLID_5349_" d="M18.6,18.9L0,14l13.3,21.3l19.4,11.6c1.1,0.6,2.4,0.6,3.4,0c0.9-0.5,1.4-1.5,1.5-2.5c0-0.2,0-0.4,0-0.6
				l-1.9-22.5L22.4,0L18.6,18.9z M32.5,22.4l1.9,21.7L15.6,32.9l-2-3.3l11,3l0.9-3.2l-14.4-3.9l-3.9-6.2l14,3.7L24,8.8L32.5,22.4z"
				/>
		</g>
	</g>
</g>
</svg>
