<?xml version="1.0" encoding="UTF-8"?>
<svg width="168px" height="134px" viewBox="0 0 168 134" version="1.1" xmlns="http://www.w3.org/2000/svg" xmlns:xlink="http://www.w3.org/1999/xlink">
    <!-- Generator: Sketch 52.5 (67469) - http://www.bohemiancoding.com/sketch -->
    <title>Group 326</title>
    <desc>Created with Sketch.</desc>
    <defs>
        <polygon id="path-1" points="0.2506 0.44375 2.2506 0.44375 2.2506 2 0.2506 2"></polygon>
        <polygon id="path-3" points="1.117 0.44375 3.117 0.44375 3.117 2 1.117 2"></polygon>
        <polygon id="path-5" points="1.85495 1.5954 3.82 1.5954 3.82 3.5954 1.85495 3.5954"></polygon>
        <polygon id="path-7" points="1.85495 1.47645 3.82 1.47645 3.82 3.47645 1.85495 3.47645"></polygon>
        <polygon id="path-9" points="1.85495 1.35725 3.82 1.35725 3.82 3.35725 1.85495 3.35725"></polygon>
    </defs>
    <g id="Page-1" stroke="none" stroke-width="1" fill="none" fill-rule="evenodd">
        <g id="Design" transform="translate(-1151.000000, -1739.000000)">
            <g id="Group-326" transform="translate(1151.000000, 1739.000000)">
                <g id="Group-3" transform="translate(108.000000, 131.833800)">
                    <mask id="mask-2" fill="white">
                        <use xlink:href="#path-1"></use>
                    </mask>
                    <g id="Clip-2"></g>
                    <path d="M1.9336,1.049 C2.3096,1.267 2.3096,1.619 1.9336,1.837 C1.5576,2.055 0.9456,2.055 0.5676,1.837 C0.1916,1.619 0.1916,1.267 0.5676,1.049 C0.9456,0.833 1.5576,0.833 1.9336,1.049" id="Fill-1" fill="#16110D" mask="url(#mask-2)"></path>
                </g>
                <path d="M113.5,130.8232 C113.876,131.0412 113.876,131.3932 113.5,131.6112 C113.124,131.8292 112.514,131.8292 112.136,131.6112 C111.76,131.3932 111.76,131.0412 112.136,130.8232 C112.514,130.6072 113.124,130.6072 113.5,130.8232" id="Fill-4" fill="#16110D"></path>
                <path d="M117.0664,128.7646 C117.4424,128.9806 117.4424,129.3346 117.0664,129.5526 C116.6924,129.7686 116.0804,129.7686 115.7024,129.5526 C115.3264,129.3346 115.3264,128.9806 115.7024,128.7646 C116.0804,128.5466 116.6924,128.5466 117.0664,128.7646" id="Fill-6" fill="#16110D"></path>
                <path d="M120.6348,126.705 C121.0108,126.921 121.0108,127.275 120.6348,127.493 C120.2588,127.709 119.6468,127.709 119.2688,127.493 C118.8928,127.275 118.8928,126.921 119.2688,126.705 C119.6468,126.487 120.2588,126.487 120.6348,126.705" id="Fill-8" fill="#16110D"></path>
                <path d="M124.2012,124.6456 C124.5772,124.8636 124.5772,125.2156 124.2012,125.4336 C123.8252,125.6496 123.2132,125.6496 122.8372,125.4336 C122.4612,125.2156 122.4612,124.8636 122.8372,124.6456 C123.2132,124.4276 123.8252,124.4276 124.2012,124.6456" id="Fill-10" fill="#16110D"></path>
                <g id="Group-14" transform="translate(100.000000, 131.833800)">
                    <mask id="mask-4" fill="white">
                        <use xlink:href="#path-3"></use>
                    </mask>
                    <g id="Clip-13"></g>
                    <path d="M2.799,1.049 C3.175,1.267 3.175,1.619 2.799,1.837 C2.423,2.055 1.813,2.055 1.435,1.837 C1.059,1.619 1.059,1.267 1.435,1.049 C1.813,0.833 2.423,0.833 2.799,1.049" id="Fill-12" fill="#16110D" mask="url(#mask-4)"></path>
                </g>
                <path d="M106.3654,130.8232 C106.7414,131.0412 106.7414,131.3932 106.3654,131.6112 C105.9914,131.8292 105.3794,131.8292 105.0014,131.6112 C104.6254,131.3932 104.6254,131.0412 105.0014,130.8232 C105.3794,130.6072 105.9914,130.6072 106.3654,130.8232" id="Fill-15" fill="#16110D"></path>
                <path d="M109.9336,128.7646 C110.3096,128.9806 110.3096,129.3346 109.9336,129.5526 C109.5576,129.7686 108.9456,129.7686 108.5676,129.5526 C108.1916,129.3346 108.1916,128.9806 108.5676,128.7646 C108.9456,128.5466 109.5576,128.5466 109.9336,128.7646" id="Fill-17" fill="#16110D"></path>
                <path d="M113.5,126.705 C113.876,126.921 113.876,127.275 113.5,127.493 C113.124,127.709 112.514,127.709 112.136,127.493 C111.76,127.275 111.76,126.923 112.136,126.705 C112.514,126.487 113.124,126.487 113.5,126.705" id="Fill-19" fill="#16110D"></path>
                <path d="M117.0684,124.6456 C117.4424,124.8636 117.4424,125.2156 117.0684,125.4336 C116.6924,125.6496 116.0804,125.6496 115.7024,125.4336 C115.3264,125.2156 115.3264,124.8636 115.7024,124.6456 C116.0804,124.4276 116.6924,124.4276 117.0684,124.6456" id="Fill-21" fill="#16110D"></path>
                <path d="M120.6348,122.586 C121.0108,122.804 121.0108,123.156 120.6348,123.374 C120.2588,123.59 119.6468,123.59 119.2688,123.374 C118.8928,123.156 118.8928,122.804 119.2688,122.586 C119.6468,122.368 120.2588,122.368 120.6348,122.586" id="Fill-23" fill="#16110D"></path>
                <path d="M124.2012,120.5264 C124.5772,120.7444 124.5772,121.0964 124.2012,121.3144 C123.8252,121.5324 123.2132,121.5324 122.8372,121.3144 C122.4612,121.0964 122.4612,120.7444 122.8372,120.5264 C123.2132,120.3084 123.8252,120.3084 124.2012,120.5264" id="Fill-25" fill="#16110D"></path>
                <path d="M99.2326,130.8232 C99.6086,131.0412 99.6086,131.3932 99.2326,131.6112 C98.8566,131.8292 98.2446,131.8292 97.8666,131.6112 C97.4926,131.3932 97.4926,131.0412 97.8666,130.8232 C98.2446,130.6072 98.8566,130.6072 99.2326,130.8232" id="Fill-27" fill="#16110D"></path>
                <path d="M102.799,128.7646 C103.175,128.9806 103.175,129.3346 102.799,129.5526 C102.423,129.7686 101.813,129.7686 101.435,129.5526 C101.059,129.3346 101.059,128.9806 101.435,128.7646 C101.813,128.5466 102.423,128.5466 102.799,128.7646" id="Fill-29" fill="#16110D"></path>
                <path d="M95.6662,128.7646 C96.0422,128.9806 96.0422,129.3346 95.6662,129.5526 C95.2902,129.7686 94.6782,129.7686 94.3002,129.5526 C93.9242,129.3346 93.9242,128.9806 94.3002,128.7646 C94.6782,128.5466 95.2902,128.5466 95.6662,128.7646" id="Fill-31" fill="#16110D"></path>
                <path d="M99.2326,126.705 C99.6086,126.923 99.6086,127.275 99.2326,127.493 C98.8566,127.709 98.2446,127.709 97.8686,127.493 C97.4926,127.275 97.4926,126.923 97.8686,126.705 C98.2446,126.487 98.8566,126.487 99.2326,126.705" id="Fill-33" fill="#16110D"></path>
                <path d="M92.0978,126.705 C92.4738,126.923 92.4738,127.275 92.0978,127.493 C91.7218,127.709 91.1118,127.709 90.7338,127.493 C90.3578,127.275 90.3578,126.923 90.7338,126.705 C91.1118,126.487 91.7218,126.487 92.0978,126.705" id="Fill-35" fill="#16110D"></path>
                <path d="M95.6662,124.6456 C96.0422,124.8636 96.0422,125.2156 95.6662,125.4336 C95.2902,125.6496 94.6782,125.6496 94.3002,125.4336 C93.9242,125.2156 93.9242,124.8636 94.3002,124.6456 C94.6782,124.4276 95.2902,124.4276 95.6662,124.6456" id="Fill-37" fill="#16110D"></path>
                <path d="M92.0978,122.586 C92.4738,122.804 92.4738,123.156 92.0978,123.374 C91.7218,123.592 91.1118,123.592 90.7338,123.374 C90.3578,123.156 90.3578,122.804 90.7338,122.586 C91.1118,122.368 91.7218,122.368 92.0978,122.586" id="Fill-39" fill="#16110D"></path>
                <path d="M106.506,119.1308 L115.218,114.1928 L107.046,109.3868 L98.334,114.3268 L106.506,119.1308 Z M122.752,114.1328 L106.268,123.4788 L90.798,114.3848 L107.284,105.0388 L122.752,114.1328 Z" id="Fill-41" fill="#0066FF"></path>
                <path d="M106.4512,120.9776 L115.1612,116.0396 L106.9892,111.2336 L98.2772,116.1736 L106.4512,120.9776 Z M122.6972,115.9796 L106.2132,125.3256 L90.7432,116.2316 L107.2292,106.8856 L122.6972,115.9796 Z" id="Fill-43" fill="#FFFFFF"></path>
                <polygon id="Fill-45" fill="#0066FF" points="90.799 114.3858 90.747 118.9358 106.213 128.0278 106.267 123.4778"></polygon>
                <polygon id="Fill-47" fill="#16110D" points="122.752 114.1328 122.7 118.6828 106.212 128.0288 106.268 123.4788"></polygon>
                <polygon id="Fill-49" fill="#0066FF" points="107.045 109.3868 106.991 113.9368 111.251 116.4408 115.219 114.1928"></polygon>
                <polygon id="Fill-51" fill="#16110D" points="98.334 114.3262 107.044 109.3862 106.99 113.9382 102.248 116.6262"></polygon>
                <path d="M103.1934,116.6338 L106.9854,114.4838 L110.3054,116.4338 L106.5094,118.5838 L103.1934,116.6338 Z M99.2794,114.3338 L106.5614,110.2058 L106.5194,113.6598 L102.2514,116.0798 L99.2794,114.3338 Z M111.2534,115.8938 L107.4694,113.6678 L107.5074,110.2098 L114.2714,114.1838 L111.2534,115.8938 Z M116.1634,114.1998 L107.5194,109.1178 L107.0494,108.8418 L106.5734,109.1098 L97.3874,114.3178 L106.5034,119.6778 L116.1634,114.1998 Z" id="Fill-53" fill="#16110D"></path>
                <path d="M91.2228,118.666 L91.2648,115.208 L98.3888,119.396 L105.7908,123.748 L105.7508,127.208 L91.2228,118.666 Z M91.7468,114.392 L107.2788,105.586 L121.8048,114.124 L112.3188,119.504 L106.2708,122.932 L93.4548,115.398 L91.7468,114.392 Z M122.2688,114.95 L122.2288,118.406 L106.6968,127.21 L106.7388,123.756 L112.8288,120.302 L122.2688,114.95 Z M106.6828,128.306 L123.1708,118.96 L123.2208,114.41 L123.2288,113.864 L122.7568,113.586 L107.2868,104.494 L90.8048,113.84 L90.3288,114.108 L90.3228,114.654 L90.2688,119.204 L105.7368,128.298 L106.2088,128.576 L106.6828,128.306 Z" id="Fill-55" fill="#16110D"></path>
                <path d="M146.1348,80.3916 C146.5108,80.6096 146.5108,80.9616 146.1348,81.1796 C145.7588,81.3976 145.1468,81.3976 144.7708,81.1796 C144.3948,80.9616 144.3948,80.6096 144.7708,80.3916 C145.1488,80.1756 145.7588,80.1756 146.1348,80.3916" id="Fill-57" fill="#16110D"></path>
                <path d="M149.7012,78.332 C150.0772,78.55 150.0772,78.902 149.7012,79.12 C149.3252,79.338 148.7152,79.338 148.3372,79.12 C147.9612,78.902 147.9612,78.55 148.3372,78.332 C148.7152,78.116 149.3272,78.116 149.7012,78.332" id="Fill-59" fill="#16110D"></path>
                <path d="M153.2696,76.2734 C153.6456,76.4894 153.6456,76.8434 153.2696,77.0614 C152.8936,77.2774 152.2816,77.2774 151.9036,77.0614 C151.5276,76.8434 151.5276,76.4894 151.9036,76.2734 C152.2816,76.0554 152.8936,76.0554 153.2696,76.2734" id="Fill-61" fill="#16110D"></path>
                <path d="M160.4024,72.1542 C160.7784,72.3722 160.7784,72.7242 160.4024,72.9422 C160.0264,73.1582 159.4164,73.1582 159.0384,72.9422 C158.6624,72.7242 158.6624,72.3722 159.0384,72.1542 C159.4164,71.9362 160.0264,71.9362 160.4024,72.1542" id="Fill-63" fill="#16110D"></path>
                <path d="M163.9708,70.0948 C164.3468,70.3128 164.3468,70.6648 163.9708,70.8828 C163.5948,71.1008 162.9828,71.1008 162.6048,70.8828 C162.2288,70.6648 162.2288,70.3128 162.6048,70.0948 C162.9828,69.8768 163.5948,69.8768 163.9708,70.0948" id="Fill-65" fill="#16110D"></path>
                <g id="Group-69" transform="translate(164.000000, 65.833800)">
                    <mask id="mask-6" fill="white">
                        <use xlink:href="#path-5"></use>
                    </mask>
                    <g id="Clip-68"></g>
                    <path d="M3.5372,2.2014 C3.9132,2.4194 3.9132,2.7714 3.5372,2.9894 C3.1612,3.2054 2.5492,3.2054 2.1712,2.9894 C1.7972,2.7714 1.7972,2.4194 2.1712,2.2014 C2.5492,1.9854 3.1612,1.9854 3.5372,2.2014" id="Fill-67" fill="#16110D" mask="url(#mask-6)"></path>
                </g>
                <path d="M139,80.3926 C139.376,80.6086 139.376,80.9626 139,81.1806 C138.626,81.3966 138.014,81.3966 137.636,81.1806 C137.26,80.9626 137.26,80.6086 137.636,80.3926 C138.014,80.1746 138.626,80.1746 139,80.3926" id="Fill-70" fill="#16110D"></path>
                <path d="M142.5684,78.332 C142.9444,78.55 142.9444,78.902 142.5684,79.12 C142.1924,79.338 141.5804,79.338 141.2024,79.12 C140.8264,78.902 140.8264,78.55 141.2024,78.332 C141.5804,78.116 142.1924,78.116 142.5684,78.332" id="Fill-72" fill="#16110D"></path>
                <path d="M146.1348,76.2734 C146.5108,76.4894 146.5108,76.8434 146.1348,77.0614 C145.7588,77.2774 145.1488,77.2774 144.7708,77.0614 C144.3948,76.8434 144.3948,76.4894 144.7708,76.2734 C145.1488,76.0554 145.7588,76.0554 146.1348,76.2734" id="Fill-74" fill="#16110D"></path>
                <path d="M149.7012,74.2138 C150.0772,74.4298 150.0772,74.7838 149.7012,75.0018 C149.3272,75.2178 148.7152,75.2178 148.3372,75.0018 C147.9612,74.7838 147.9612,74.4298 148.3372,74.2138 C148.7152,73.9958 149.3272,73.9958 149.7012,74.2138" id="Fill-76" fill="#16110D"></path>
                <path d="M153.2696,72.1542 C153.6456,72.3722 153.6456,72.7242 153.2696,72.9422 C152.8936,73.1582 152.2816,73.1582 151.9036,72.9422 C151.5276,72.7242 151.5276,72.3722 151.9036,72.1542 C152.2816,71.9362 152.8936,71.9362 153.2696,72.1542" id="Fill-78" fill="#16110D"></path>
                <path d="M156.836,70.0948 C157.212,70.3128 157.212,70.6648 156.836,70.8828 C156.46,71.1008 155.848,71.1008 155.472,70.8828 C155.096,70.6648 155.096,70.3128 155.472,70.0948 C155.848,69.8768 156.46,69.8768 156.836,70.0948" id="Fill-80" fill="#16110D"></path>
                <path d="M160.4024,68.0352 C160.7784,68.2532 160.7784,68.6052 160.4024,68.8232 C160.0264,69.0392 159.4164,69.0392 159.0384,68.8232 C158.6624,68.6052 158.6624,68.2532 159.0384,68.0352 C159.4164,67.8192 160.0264,67.8192 160.4024,68.0352" id="Fill-82" fill="#16110D"></path>
                <path d="M163.9708,65.9766 C164.3468,66.1926 164.3468,66.5466 163.9708,66.7646 C163.5948,66.9806 162.9828,66.9806 162.6048,66.7646 C162.2288,66.5466 162.2288,66.1926 162.6048,65.9766 C162.9828,65.7586 163.5948,65.7586 163.9708,65.9766" id="Fill-84" fill="#16110D"></path>
                <g id="Group-88" transform="translate(164.000000, 61.833800)">
                    <mask id="mask-8" fill="white">
                        <use xlink:href="#path-7"></use>
                    </mask>
                    <g id="Clip-87"></g>
                    <path d="M3.5372,2.0832 C3.9132,2.2992 3.9132,2.6532 3.5372,2.8712 C3.1612,3.0872 2.5492,3.0872 2.1712,2.8712 C1.7972,2.6532 1.7972,2.2992 2.1712,2.0832 C2.5492,1.8652 3.1612,1.8652 3.5372,2.0832" id="Fill-86" fill="#16110D" mask="url(#mask-8)"></path>
                </g>
                <path d="M135.4336,78.332 C135.8096,78.55 135.8096,78.902 135.4336,79.12 C135.0576,79.338 134.4476,79.338 134.0696,79.12 C133.6936,78.902 133.6936,78.55 134.0696,78.332 C134.4476,78.116 135.0576,78.116 135.4336,78.332" id="Fill-89" fill="#16110D"></path>
                <path d="M139,76.2734 C139.376,76.4894 139.376,76.8434 139,77.0614 C138.626,77.2774 138.014,77.2774 137.636,77.0614 C137.26,76.8434 137.26,76.4894 137.636,76.2734 C138.014,76.0554 138.626,76.0554 139,76.2734" id="Fill-91" fill="#16110D"></path>
                <path d="M142.5684,74.2138 C142.9444,74.4298 142.9444,74.7838 142.5684,75.0018 C142.1924,75.2178 141.5804,75.2178 141.2024,75.0018 C140.8264,74.7838 140.8264,74.4298 141.2024,74.2138 C141.5804,73.9958 142.1924,73.9958 142.5684,74.2138" id="Fill-93" fill="#16110D"></path>
                <path d="M146.1348,72.1542 C146.5108,72.3722 146.5108,72.7242 146.1348,72.9422 C145.7588,73.1582 145.1488,73.1582 144.7708,72.9422 C144.3948,72.7242 144.3948,72.3722 144.7708,72.1542 C145.1488,71.9362 145.7588,71.9362 146.1348,72.1542" id="Fill-95" fill="#16110D"></path>
                <path d="M149.7012,70.0948 C150.0772,70.3128 150.0772,70.6648 149.7012,70.8828 C149.3272,71.1008 148.7152,71.1008 148.3372,70.8828 C147.9612,70.6648 147.9612,70.3128 148.3372,70.0948 C148.7152,69.8768 149.3272,69.8768 149.7012,70.0948" id="Fill-97" fill="#16110D"></path>
                <path d="M153.2696,68.0352 C153.6456,68.2532 153.6456,68.6052 153.2696,68.8232 C152.8936,69.0392 152.2816,69.0392 151.9036,68.8232 C151.5276,68.6052 151.5276,68.2532 151.9036,68.0352 C152.2816,67.8192 152.8936,67.8192 153.2696,68.0352" id="Fill-99" fill="#16110D"></path>
                <path d="M156.836,65.9766 C157.212,66.1926 157.212,66.5466 156.836,66.7646 C156.46,66.9806 155.848,66.9806 155.472,66.7646 C155.096,66.5466 155.096,66.1926 155.472,65.9766 C155.848,65.7586 156.46,65.7586 156.836,65.9766" id="Fill-101" fill="#16110D"></path>
                <path d="M160.4024,63.917 C160.7784,64.133 160.7784,64.487 160.4024,64.705 C160.0264,64.921 159.4164,64.921 159.0384,64.705 C158.6624,64.487 158.6624,64.133 159.0384,63.917 C159.4164,63.699 160.0264,63.699 160.4024,63.917" id="Fill-103" fill="#16110D"></path>
                <path d="M163.9708,61.8574 C164.3468,62.0734 164.3468,62.4274 163.9708,62.6454 C163.5948,62.8614 162.9828,62.8614 162.6048,62.6454 C162.2288,62.4274 162.2288,62.0734 162.6048,61.8574 C162.9828,61.6394 163.5948,61.6394 163.9708,61.8574" id="Fill-105" fill="#16110D"></path>
                <g id="Group-109" transform="translate(164.000000, 57.833800)">
                    <mask id="mask-10" fill="white">
                        <use xlink:href="#path-9"></use>
                    </mask>
                    <g id="Clip-108"></g>
                    <path d="M3.5372,1.964 C3.9132,2.182 3.9132,2.534 3.5372,2.752 C3.1612,2.968 2.5492,2.968 2.1712,2.752 C1.7972,2.534 1.7972,2.182 2.1712,1.964 C2.5492,1.746 3.1612,1.746 3.5372,1.964" id="Fill-107" fill="#16110D" mask="url(#mask-10)"></path>
                </g>
                <path d="M131.836,76.252 C132.212,76.468 132.212,76.822 131.836,77.04 C131.46,77.256 130.848,77.256 130.472,77.04 C130.096,76.822 130.096,76.468 130.472,76.252 C130.848,76.034 131.46,76.034 131.836,76.252" id="Fill-110" fill="#16110D"></path>
                <path d="M135.4024,74.1924 C135.7784,74.4084 135.7784,74.7624 135.4024,74.9804 C135.0284,75.1964 134.4164,75.1964 134.0384,74.9804 C133.6624,74.7624 133.6624,74.4084 134.0384,74.1924 C134.4164,73.9744 135.0284,73.9744 135.4024,74.1924" id="Fill-112" fill="#16110D"></path>
                <path d="M149.672,65.954 C150.046,66.172 150.046,66.524 149.672,66.742 C149.296,66.96 148.684,66.96 148.306,66.742 C147.93,66.524 147.93,66.172 148.306,65.954 C148.684,65.738 149.296,65.738 149.672,65.954" id="Fill-114" fill="#16110D"></path>
                <path d="M153.2384,63.8944 C153.6144,64.1124 153.6144,64.4644 153.2384,64.6824 C152.8624,64.9004 152.2504,64.9004 151.8724,64.6824 C151.4964,64.4644 151.4964,64.1124 151.8724,63.8944 C152.2504,63.6784 152.8624,63.6784 153.2384,63.8944" id="Fill-116" fill="#16110D"></path>
                <path d="M156.8048,61.836 C157.1808,62.052 157.1808,62.406 156.8048,62.624 C156.4288,62.84 155.8188,62.84 155.4408,62.624 C155.0648,62.406 155.0648,62.052 155.4408,61.836 C155.8188,61.618 156.4288,61.618 156.8048,61.836" id="Fill-118" fill="#16110D"></path>
                <path d="M131.836,72.1328 C132.212,72.3508 132.212,72.7028 131.836,72.9208 C131.46,73.1368 130.848,73.1368 130.472,72.9208 C130.096,72.7028 130.096,72.3508 130.472,72.1328 C130.848,71.9148 131.46,71.9148 131.836,72.1328" id="Fill-120" fill="#16110D"></path>
                <path d="M149.672,61.836 C150.046,62.052 150.046,62.406 149.672,62.624 C149.296,62.84 148.684,62.84 148.306,62.624 C147.93,62.406 147.93,62.052 148.306,61.836 C148.684,61.618 149.296,61.618 149.672,61.836" id="Fill-122" fill="#16110D"></path>
                <path d="M165.9572,56.0204 L165.9572,16.6084 L151.2432,16.6084 L151.2432,56.8104 L151.2732,56.8104 C151.4272,57.7644 152.1352,58.6944 153.4032,59.4264 C156.2812,61.0884 160.9492,61.0884 163.8312,59.4264 C165.4432,58.4944 166.1532,57.2364 165.9572,56.0204" id="Fill-124" fill="#0066FF"></path>
                <path d="M153.6778,25.873 L153.6778,59.245 L159.9498,60.673 L159.9498,26.915 C157.7578,27.147 155.4338,26.793 153.6778,25.873" id="Fill-126" fill="#FFFFFF"></path>
                <path d="M151.9376,56.5898 L151.9616,56.6998 C152.0856,57.4738 152.7216,58.2278 153.7496,58.8218 C156.4356,60.3738 160.8016,60.3718 163.4796,58.8218 C164.7716,58.0778 165.4216,57.0958 165.2676,56.1318 L165.2596,56.0198 L165.2596,17.3058 L151.9376,17.3058 L151.9376,56.5898 Z M158.6156,61.3798 C156.6136,61.3798 154.6136,60.9298 153.0536,60.0298 C151.8856,59.3558 151.0816,58.4758 150.7356,57.5058 L150.5756,57.5058 L150.5456,56.8098 L150.5456,15.9118 L166.6516,15.9118 L166.6516,55.9678 C166.8736,57.5138 165.9756,58.9918 164.1776,60.0298 C162.6196,60.9298 160.6176,61.3798 158.6156,61.3798 Z" id="Fill-128" fill="#020202"></path>
                <path d="M163.8302,13.5976 C166.7082,15.2616 166.7082,17.9556 163.8302,19.6176 C160.9502,21.2816 156.2822,21.2816 153.4022,19.6176 C150.5222,17.9556 150.5222,15.2616 153.4022,13.5976 C156.2822,11.9356 160.9502,11.9356 163.8302,13.5976" id="Fill-130" fill="#0066FF"></path>
                <path d="M165.2598,18.3672 C164.9058,17.9352 164.4478,17.5252 163.8278,17.1652 C160.9498,15.5032 156.2798,15.5032 153.3998,17.1652 C152.7638,17.5332 152.2938,17.9552 151.9378,18.4032 L151.9378,21.9512 C152.2938,22.3972 152.7638,22.8212 153.3998,23.1872 C156.2798,24.8492 160.9498,24.8492 163.8278,23.1872 C164.4478,22.8292 164.9058,22.4192 165.2598,21.9872 L165.2598,18.3672 Z" id="Fill-132" fill="#FFFFFF"></path>
                <path d="M158.6154,13.039 C156.8534,13.039 155.0914,13.427 153.7494,14.201 C152.5814,14.875 151.9374,15.731 151.9374,16.609 C151.9374,17.487 152.5814,18.341 153.7494,19.015 C156.4354,20.565 160.8014,20.565 163.4814,19.015 C164.6494,18.341 165.2914,17.487 165.2914,16.609 C165.2914,15.731 164.6494,14.875 163.4814,14.201 C162.1394,13.427 160.3774,13.039 158.6154,13.039 M158.6154,21.573 C156.6134,21.573 154.6134,21.123 153.0534,20.221 C151.4354,19.289 150.5454,18.005 150.5454,16.609 C150.5454,15.211 151.4354,13.927 153.0534,12.995 C156.1734,11.195 161.0594,11.195 164.1774,12.995 C165.7954,13.927 166.6854,15.211 166.6854,16.609 C166.6854,18.005 165.7954,19.289 164.1774,20.221 C162.6194,21.123 160.6174,21.573 158.6154,21.573" id="Fill-134" fill="#020202"></path>
                <path d="M145.4474,67.7774 L145.4634,48.0414 L130.7474,48.0414 L130.7334,68.5674 L130.7634,68.5674 C130.9174,69.5214 131.6274,70.4514 132.8934,71.1834 C135.7714,72.8454 140.4394,72.8454 143.3214,71.1834 C144.9334,70.2514 145.6434,68.9934 145.4474,67.7774" id="Fill-136" fill="#0066FF"></path>
                <path d="M133.1836,57.3056 L133.1676,71.0016 L139.4396,72.4296 L139.4556,58.3476 C137.2636,58.5796 134.9396,58.2256 133.1836,57.3056" id="Fill-138" fill="#FFFFFF"></path>
                <path d="M131.4278,68.3466 L131.4538,68.4566 C131.5758,69.2306 132.2118,69.9846 133.2398,70.5786 C135.9258,72.1306 140.2918,72.1286 142.9698,70.5786 C144.2618,69.8346 144.9118,68.8526 144.7578,67.8886 L144.7498,67.7766 L144.7658,48.7386 L131.4458,48.7386 L131.4278,68.3466 Z M138.1058,73.1366 C136.1038,73.1366 134.1038,72.6866 132.5438,71.7846 C131.3758,71.1126 130.5718,70.2306 130.2258,69.2626 L130.0658,69.2626 L130.0358,68.5666 L130.0518,47.3446 L146.1598,47.3446 L146.1418,67.7246 C146.3638,69.2706 145.4658,70.7486 143.6678,71.7846 C142.1098,72.6866 140.1078,73.1366 138.1058,73.1366 Z" id="Fill-140" fill="#020202"></path>
                <path d="M143.336,45.0312 C146.214,46.6932 146.214,49.3892 143.336,51.0512 C140.458,52.7132 135.788,52.7132 132.908,51.0512 C130.03,49.3892 130.03,46.6932 132.908,45.0312 C135.788,43.3672 140.458,43.3672 143.336,45.0312" id="Fill-142" fill="#0066FF"></path>
                <path d="M144.7658,49.8008 C144.4138,49.3688 143.9558,48.9568 143.3358,48.5988 C140.4558,46.9368 135.7878,46.9368 132.9078,48.5988 C132.2718,48.9668 131.7998,49.3888 131.4458,49.8348 L131.4458,53.3848 C131.7998,53.8308 132.2718,54.2528 132.9078,54.6208 C135.7878,56.2828 140.4558,56.2828 143.3358,54.6208 C143.9558,54.2628 144.4138,53.8508 144.7658,53.4188 L144.7658,49.8008 Z" id="Fill-144" fill="#FFFFFF"></path>
                <path d="M138.1212,44.4726 C136.3592,44.4726 134.5972,44.8606 133.2552,45.6346 C132.0872,46.3066 131.4452,47.1626 131.4452,48.0406 C131.4452,48.9186 132.0872,49.7726 133.2552,50.4486 C135.9412,51.9966 140.3072,51.9966 142.9892,50.4486 C144.1572,49.7726 144.7992,48.9186 144.7992,48.0406 C144.7992,47.1626 144.1572,46.3066 142.9892,45.6346 C141.6472,44.8606 139.8852,44.4726 138.1212,44.4726 M138.1212,53.0046 C136.1212,53.0046 134.1192,52.5546 132.5592,51.6546 C130.9412,50.7206 130.0512,49.4366 130.0512,48.0406 C130.0512,46.6446 130.9412,45.3606 132.5592,44.4266 C135.6812,42.6266 140.5672,42.6286 143.6832,44.4266 C145.3012,45.3606 146.1912,46.6446 146.1912,48.0406 C146.1912,49.4366 145.3012,50.7206 143.6832,51.6546 C142.1252,52.5546 140.1232,53.0046 138.1212,53.0046" id="Fill-146" fill="#020202"></path>
                <path d="M16.588,108.3526 C16.962,108.5706 16.962,108.9226 16.588,109.1406 C16.212,109.3566 15.6,109.3566 15.222,109.1406 C14.846,108.9226 14.846,108.5706 15.222,108.3526 C15.6,108.1346 16.212,108.1346 16.588,108.3526" id="Fill-148" fill="#16110D"></path>
                <path d="M20.1544,106.293 C20.5304,106.511 20.5304,106.863 20.1544,107.081 C19.7784,107.297 19.1664,107.297 18.7884,107.081 C18.4124,106.863 18.4124,106.511 18.7884,106.293 C19.1664,106.075 19.7784,106.075 20.1544,106.293" id="Fill-150" fill="#16110D"></path>
                <path d="M23.7208,104.2334 C24.0968,104.4514 24.0968,104.8034 23.7208,105.0214 C23.3448,105.2374 22.7348,105.2374 22.3568,105.0214 C21.9808,104.8034 21.9808,104.4514 22.3568,104.2334 C22.7348,104.0174 23.3448,104.0174 23.7208,104.2334" id="Fill-152" fill="#16110D"></path>
                <path d="M27.2872,102.1738 C27.6632,102.3918 27.6632,102.7438 27.2872,102.9618 C26.9132,103.1798 26.3012,103.1798 25.9232,102.9618 C25.5472,102.7438 25.5472,102.3918 25.9232,102.1738 C26.3012,101.9578 26.9132,101.9578 27.2872,102.1738" id="Fill-154" fill="#16110D"></path>
                <path d="M30.8556,100.1142 C31.2316,100.3322 31.2316,100.6842 30.8556,100.9022 C30.4796,101.1202 29.8676,101.1202 29.4896,100.9022 C29.1136,100.6842 29.1136,100.3322 29.4896,100.1142 C29.8676,99.8982 30.4796,99.8982 30.8556,100.1142" id="Fill-156" fill="#16110D"></path>
                <path d="M34.422,98.0556 C34.798,98.2716 34.798,98.6256 34.422,98.8436 C34.046,99.0596 33.434,99.0596 33.058,98.8436 C32.682,98.6256 32.682,98.2716 33.058,98.0556 C33.434,97.8376 34.046,97.8376 34.422,98.0556" id="Fill-158" fill="#16110D"></path>
                <path d="M37.9884,95.996 C38.3644,96.214 38.3644,96.566 37.9884,96.784 C37.6144,97 37.0024,97 36.6244,96.784 C36.2484,96.566 36.2484,96.214 36.6244,95.996 C37.0024,95.778 37.6144,95.778 37.9884,95.996" id="Fill-160" fill="#16110D"></path>
                <path d="M41.5568,93.9366 C41.9328,94.1546 41.9328,94.5066 41.5568,94.7246 C41.1808,94.9406 40.5688,94.9406 40.1908,94.7246 C39.8148,94.5066 39.8148,94.1546 40.1908,93.9366 C40.5688,93.7186 41.1808,93.7186 41.5568,93.9366" id="Fill-162" fill="#16110D"></path>
                <path d="M45.1232,91.877 C45.4992,92.095 45.4992,92.447 45.1232,92.665 C44.7472,92.883 44.1352,92.883 43.7572,92.665 C43.3832,92.447 43.3832,92.095 43.7572,91.877 C44.1352,91.659 44.7472,91.659 45.1232,91.877" id="Fill-164" fill="#16110D"></path>
                <path d="M48.6896,89.8174 C49.0656,90.0354 49.0656,90.3874 48.6896,90.6054 C48.3136,90.8234 47.7036,90.8234 47.3256,90.6054 C46.9496,90.3874 46.9496,90.0354 47.3256,89.8174 C47.7036,89.6014 48.3136,89.6014 48.6896,89.8174" id="Fill-166" fill="#16110D"></path>
                <path d="M52.258,87.7588 C52.632,87.9748 52.632,88.3288 52.258,88.5468 C51.882,88.7628 51.27,88.7628 50.892,88.5468 C50.516,88.3288 50.516,87.9748 50.892,87.7588 C51.27,87.5408 51.882,87.5408 52.258,87.7588" id="Fill-168" fill="#16110D"></path>
                <path d="M55.8244,85.6982 C56.2004,85.9162 56.2004,86.2682 55.8244,86.4862 C55.4484,86.7042 54.8364,86.7042 54.4584,86.4862 C54.0824,86.2682 54.0824,85.9162 54.4584,85.6982 C54.8364,85.4822 55.4484,85.4822 55.8244,85.6982" id="Fill-170" fill="#16110D"></path>
                <path d="M9.4532,108.3526 C9.8292,108.5706 9.8292,108.9226 9.4532,109.1406 C9.0772,109.3566 8.4652,109.3566 8.0872,109.1406 C7.7132,108.9226 7.7132,108.5706 8.0872,108.3526 C8.4652,108.1346 9.0772,108.1346 9.4532,108.3526" id="Fill-172" fill="#16110D"></path>
                <path d="M13.0196,106.293 C13.3956,106.511 13.3956,106.863 13.0196,107.081 C12.6436,107.297 12.0336,107.297 11.6556,107.081 C11.2796,106.863 11.2796,106.511 11.6556,106.293 C12.0336,106.075 12.6436,106.075 13.0196,106.293" id="Fill-174" fill="#16110D"></path>
                <path d="M16.588,104.2334 C16.962,104.4514 16.962,104.8034 16.588,105.0214 C16.212,105.2394 15.6,105.2394 15.222,105.0214 C14.846,104.8034 14.846,104.4514 15.222,104.2334 C15.6,104.0174 16.212,104.0174 16.588,104.2334" id="Fill-176" fill="#16110D"></path>
                <path d="M20.1544,102.1738 C20.5304,102.3918 20.5304,102.7438 20.1544,102.9618 C19.7784,103.1798 19.1664,103.1798 18.7884,102.9618 C18.4124,102.7438 18.4124,102.3918 18.7884,102.1738 C19.1664,101.9578 19.7784,101.9578 20.1544,102.1738" id="Fill-178" fill="#16110D"></path>
                <path d="M23.7208,100.1142 C24.0968,100.3322 24.0968,100.6842 23.7208,100.9022 C23.3448,101.1202 22.7348,101.1202 22.3568,100.9022 C21.9808,100.6842 21.9808,100.3322 22.3568,100.1142 C22.7348,99.8982 23.3448,99.8982 23.7208,100.1142" id="Fill-180" fill="#16110D"></path>
                <path d="M27.2872,98.0556 C27.6632,98.2716 27.6632,98.6256 27.2872,98.8436 C26.9132,99.0596 26.3012,99.0596 25.9232,98.8436 C25.5472,98.6256 25.5472,98.2716 25.9232,98.0556 C26.3012,97.8376 26.9132,97.8376 27.2872,98.0556" id="Fill-182" fill="#16110D"></path>
                <path d="M30.8556,95.996 C31.2316,96.214 31.2316,96.566 30.8556,96.784 C30.4796,97 29.8676,97 29.4896,96.784 C29.1136,96.566 29.1136,96.214 29.4896,95.996 C29.8676,95.778 30.4796,95.778 30.8556,95.996" id="Fill-184" fill="#16110D"></path>
                <path d="M34.422,93.9366 C34.798,94.1546 34.798,94.5066 34.422,94.7246 C34.046,94.9406 33.434,94.9406 33.058,94.7246 C32.682,94.5066 32.682,94.1546 33.058,93.9366 C33.434,93.7186 34.046,93.7186 34.422,93.9366" id="Fill-186" fill="#16110D"></path>
                <path d="M37.9884,91.877 C38.3644,92.095 38.3644,92.447 37.9884,92.665 C37.6144,92.883 37.0024,92.883 36.6244,92.665 C36.2484,92.447 36.2484,92.095 36.6244,91.877 C37.0024,91.659 37.6144,91.659 37.9884,91.877" id="Fill-188" fill="#16110D"></path>
                <path d="M41.5568,89.8174 C41.9328,90.0354 41.9328,90.3874 41.5568,90.6054 C41.1808,90.8234 40.5688,90.8234 40.1908,90.6054 C39.8148,90.3874 39.8148,90.0354 40.1908,89.8174 C40.5688,89.6014 41.1808,89.6014 41.5568,89.8174" id="Fill-190" fill="#16110D"></path>
                <path d="M45.1232,87.7588 C45.4992,87.9748 45.4992,88.3288 45.1232,88.5468 C44.7472,88.7628 44.1352,88.7628 43.7572,88.5468 C43.3832,88.3288 43.3832,87.9748 43.7572,87.7588 C44.1352,87.5408 44.7472,87.5408 45.1232,87.7588" id="Fill-192" fill="#16110D"></path>
                <path d="M48.6896,85.6982 C49.0656,85.9162 49.0656,86.2682 48.6896,86.4862 C48.3136,86.7042 47.7036,86.7042 47.3256,86.4862 C46.9496,86.2682 46.9496,85.9162 47.3256,85.6982 C47.7036,85.4822 48.3136,85.4822 48.6896,85.6982" id="Fill-194" fill="#16110D"></path>
                <path d="M52.258,83.6396 C52.632,83.8556 52.632,84.2096 52.258,84.4276 C51.882,84.6436 51.27,84.6436 50.892,84.4276 C50.516,84.2096 50.516,83.8556 50.892,83.6396 C51.27,83.4216 51.882,83.4216 52.258,83.6396" id="Fill-196" fill="#16110D"></path>
                <path d="M5.8868,106.293 C6.2628,106.511 6.2628,106.863 5.8868,107.081 C5.5108,107.297 4.8988,107.297 4.5208,107.081 C4.1448,106.863 4.1448,106.511 4.5208,106.293 C4.8988,106.075 5.5108,106.075 5.8868,106.293" id="Fill-198" fill="#16110D"></path>
                <path d="M9.4532,104.2334 C9.8292,104.4514 9.8292,104.8034 9.4532,105.0214 C9.0772,105.2394 8.4652,105.2394 8.0872,105.0214 C7.7132,104.8034 7.7132,104.4514 8.0872,104.2334 C8.4652,104.0174 9.0772,104.0174 9.4532,104.2334" id="Fill-200" fill="#16110D"></path>
                <path d="M13.0196,102.1738 C13.3956,102.3918 13.3956,102.7438 13.0196,102.9618 C12.6436,103.1798 12.0336,103.1798 11.6556,102.9618 C11.2796,102.7438 11.2796,102.3918 11.6556,102.1738 C12.0336,101.9578 12.6436,101.9578 13.0196,102.1738" id="Fill-202" fill="#16110D"></path>
                <path d="M16.588,100.1142 C16.962,100.3322 16.962,100.6842 16.588,100.9022 C16.212,101.1202 15.6,101.1202 15.222,100.9022 C14.846,100.6842 14.846,100.3322 15.222,100.1142 C15.6,99.8982 16.212,99.8982 16.588,100.1142" id="Fill-204" fill="#16110D"></path>
                <path d="M20.1544,98.0556 C20.5304,98.2716 20.5304,98.6256 20.1544,98.8436 C19.7784,99.0596 19.1664,99.0596 18.7884,98.8436 C18.4124,98.6256 18.4124,98.2716 18.7884,98.0556 C19.1664,97.8376 19.7784,97.8376 20.1544,98.0556" id="Fill-206" fill="#16110D"></path>
                <path d="M23.7208,95.996 C24.0968,96.214 24.0968,96.566 23.7208,96.784 C23.3448,97 22.7348,97 22.3568,96.784 C21.9808,96.566 21.9808,96.214 22.3568,95.996 C22.7348,95.778 23.3448,95.778 23.7208,95.996" id="Fill-208" fill="#16110D"></path>
                <path d="M27.2872,93.9366 C27.6632,94.1546 27.6632,94.5066 27.2872,94.7246 C26.9132,94.9406 26.3012,94.9406 25.9232,94.7246 C25.5472,94.5066 25.5472,94.1546 25.9232,93.9366 C26.3012,93.7186 26.9132,93.7186 27.2872,93.9366" id="Fill-210" fill="#16110D"></path>
                <path d="M30.8556,91.877 C31.2316,92.095 31.2316,92.447 30.8556,92.665 C30.4796,92.883 29.8676,92.883 29.4896,92.665 C29.1136,92.447 29.1136,92.095 29.4896,91.877 C29.8676,91.659 30.4796,91.659 30.8556,91.877" id="Fill-212" fill="#16110D"></path>
                <path d="M34.422,89.8174 C34.798,90.0354 34.798,90.3874 34.422,90.6054 C34.046,90.8234 33.434,90.8234 33.058,90.6054 C32.682,90.3874 32.682,90.0354 33.058,89.8174 C33.434,89.6014 34.046,89.6014 34.422,89.8174" id="Fill-214" fill="#16110D"></path>
                <path d="M37.9884,87.7588 C38.3644,87.9748 38.3644,88.3288 37.9884,88.5468 C37.6144,88.7628 37.0024,88.7628 36.6244,88.5468 C36.2484,88.3288 36.2484,87.9748 36.6244,87.7588 C37.0024,87.5408 37.6144,87.5408 37.9884,87.7588" id="Fill-216" fill="#16110D"></path>
                <path d="M41.5568,85.6992 C41.9328,85.9152 41.9328,86.2692 41.5568,86.4872 C41.1808,86.7032 40.5688,86.7032 40.1908,86.4872 C39.8148,86.2692 39.8148,85.9152 40.1908,85.6992 C40.5688,85.4812 41.1808,85.4812 41.5568,85.6992" id="Fill-218" fill="#16110D"></path>
                <path d="M45.1232,83.6396 C45.4992,83.8556 45.4992,84.2096 45.1232,84.4276 C44.7472,84.6436 44.1352,84.6436 43.7572,84.4276 C43.3832,84.2096 43.3832,83.8556 43.7572,83.6396 C44.1352,83.4216 44.7472,83.4216 45.1232,83.6396" id="Fill-220" fill="#16110D"></path>
                <path d="M48.6896,81.58 C49.0656,81.798 49.0656,82.15 48.6896,82.368 C48.3136,82.584 47.7036,82.584 47.3256,82.368 C46.9496,82.15 46.9496,81.798 47.3256,81.58 C47.7036,81.362 48.3136,81.362 48.6896,81.58" id="Fill-222" fill="#16110D"></path>
                <path d="M2.3184,104.2334 C2.6944,104.4514 2.6944,104.8034 2.3184,105.0214 C1.9424,105.2394 1.3324,105.2394 0.9544,105.0214 C0.5784,104.8034 0.5784,104.4514 0.9544,104.2334 C1.3324,104.0174 1.9424,104.0174 2.3184,104.2334" id="Fill-224" fill="#16110D"></path>
                <path d="M5.8868,102.1738 C6.2628,102.3918 6.2628,102.7438 5.8868,102.9618 C5.5108,103.1798 4.8988,103.1798 4.5208,102.9618 C4.1448,102.7438 4.1448,102.3918 4.5208,102.1738 C4.8988,101.9578 5.5108,101.9578 5.8868,102.1738" id="Fill-226" fill="#16110D"></path>
                <path d="M16.588,95.996 C16.962,96.214 16.962,96.566 16.588,96.784 C16.212,97 15.6,97 15.222,96.784 C14.846,96.566 14.846,96.214 15.222,95.996 C15.6,95.778 16.212,95.778 16.588,95.996" id="Fill-228" fill="#16110D"></path>
                <path d="M20.1544,93.9366 C20.5304,94.1546 20.5304,94.5066 20.1544,94.7246 C19.7784,94.9406 19.1664,94.9406 18.7884,94.7246 C18.4124,94.5066 18.4124,94.1546 18.7884,93.9366 C19.1664,93.7186 19.7784,93.7186 20.1544,93.9366" id="Fill-230" fill="#16110D"></path>
                <path d="M27.2892,89.8174 C27.6632,90.0354 27.6632,90.3874 27.2872,90.6054 C26.9132,90.8234 26.3012,90.8234 25.9232,90.6054 C25.5472,90.3874 25.5472,90.0354 25.9232,89.8174 C26.3012,89.6014 26.9132,89.6014 27.2892,89.8174" id="Fill-232" fill="#16110D"></path>
                <path d="M30.8556,87.7588 C31.2316,87.9748 31.2316,88.3288 30.8556,88.5468 C30.4796,88.7628 29.8676,88.7628 29.4896,88.5468 C29.1136,88.3288 29.1136,87.9748 29.4896,87.7588 C29.8676,87.5408 30.4796,87.5408 30.8556,87.7588" id="Fill-234" fill="#16110D"></path>
                <path d="M34.422,85.6992 C34.798,85.9152 34.798,86.2692 34.422,86.4872 C34.046,86.7032 33.434,86.7032 33.058,86.4872 C32.682,86.2692 32.682,85.9152 33.058,85.6992 C33.434,85.4812 34.046,85.4812 34.422,85.6992" id="Fill-236" fill="#16110D"></path>
                <path d="M37.9884,83.6396 C38.3644,83.8556 38.3644,84.2096 37.9884,84.4276 C37.6144,84.6436 37.0024,84.6436 36.6244,84.4276 C36.2484,84.2096 36.2484,83.8556 36.6244,83.6396 C37.0024,83.4216 37.6144,83.4216 37.9884,83.6396" id="Fill-238" fill="#16110D"></path>
                <path d="M2.3184,100.1142 C2.6944,100.3322 2.6944,100.6862 2.3184,100.9022 C1.9424,101.1202 1.3324,101.1202 0.9544,100.9022 C0.5784,100.6862 0.5784,100.3322 0.9544,100.1142 C1.3324,99.8982 1.9424,99.8982 2.3184,100.1142" id="Fill-240" fill="#16110D"></path>
                <path d="M58.0332,83.669 C58.4072,83.451 59.0192,83.451 59.3992,83.667 C59.7752,83.885 59.7752,84.237 59.4012,84.455 C59.0232,84.673 58.4132,84.673 58.0352,84.457 C57.6592,84.239 57.6572,83.887 58.0332,83.669" id="Fill-242" fill="#16110D"></path>
                <path d="M62.9688,81.6064 C63.3448,81.8244 63.3448,82.1764 62.9688,82.3944 C62.5928,82.6124 61.9828,82.6124 61.6048,82.3944 C61.2288,82.1764 61.2288,81.8244 61.6048,81.6064 C61.9828,81.3904 62.5928,81.3904 62.9688,81.6064" id="Fill-244" fill="#16110D"></path>
                <path d="M66.5352,79.5468 C66.9112,79.7648 66.9112,80.1168 66.5352,80.3348 C66.1612,80.5528 65.5492,80.5528 65.1712,80.3348 C64.7952,80.1168 64.7952,79.7648 65.1712,79.5468 C65.5492,79.3308 66.1612,79.3308 66.5352,79.5468" id="Fill-246" fill="#16110D"></path>
                <path d="M70.1036,77.4882 C70.4796,77.7042 70.4796,78.0582 70.1036,78.2762 C69.7276,78.4922 69.1156,78.4922 68.7376,78.2762 C68.3616,78.0582 68.3616,77.7042 68.7376,77.4882 C69.1156,77.2702 69.7276,77.2702 70.1036,77.4882" id="Fill-248" fill="#16110D"></path>
                <path d="M73.67,75.4288 C74.046,75.6448 74.046,75.9988 73.67,76.2168 C73.294,76.4328 72.684,76.4328 72.306,76.2168 C71.93,75.9988 71.93,75.6448 72.306,75.4288 C72.684,75.2108 73.294,75.2108 73.67,75.4288" id="Fill-250" fill="#16110D"></path>
                <path d="M77.2364,73.3692 C77.6124,73.5872 77.6124,73.9392 77.2364,74.1572 C76.8604,74.3732 76.2504,74.3732 75.8724,74.1572 C75.4964,73.9392 75.4964,73.5872 75.8724,73.3692 C76.2504,73.1512 76.8604,73.1512 77.2364,73.3692" id="Fill-252" fill="#16110D"></path>
                <path d="M80.8048,71.3096 C81.1808,71.5276 81.1808,71.8796 80.8048,72.0976 C80.4288,72.3136 79.8168,72.3136 79.4388,72.0976 C79.0628,71.8796 79.0628,71.5276 79.4388,71.3096 C79.8168,71.0916 80.4288,71.0916 80.8048,71.3096" id="Fill-254" fill="#16110D"></path>
                <path d="M84.3712,69.25 C84.7472,69.468 84.7472,69.82 84.3712,70.038 C83.9952,70.254 83.3832,70.254 83.0052,70.038 C82.6312,69.82 82.6312,69.468 83.0052,69.25 C83.3832,69.032 83.9952,69.032 84.3712,69.25" id="Fill-256" fill="#16110D"></path>
                <path d="M87.9376,67.1914 C88.3136,67.4074 88.3136,67.7614 87.9376,67.9794 C87.5616,68.1954 86.9516,68.1954 86.5736,67.9794 C86.1976,67.7614 86.1976,67.4074 86.5736,67.1914 C86.9516,66.9734 87.5616,66.9734 87.9376,67.1914" id="Fill-258" fill="#16110D"></path>
                <path d="M54.4668,81.6094 C54.8408,81.3914 55.4528,81.3914 55.8308,81.6094 C56.2068,81.8254 56.2088,82.1774 55.8348,82.3954 C55.4568,82.6134 54.8448,82.6134 54.4688,82.3974 C54.0928,82.1794 54.0908,81.8274 54.4668,81.6094" id="Fill-260" fill="#16110D"></path>
                <path d="M59.4024,79.5468 C59.7784,79.7648 59.7784,80.1168 59.4024,80.3348 C59.0264,80.5528 58.4144,80.5528 58.0364,80.3348 C57.6604,80.1168 57.6604,79.7648 58.0364,79.5468 C58.4144,79.3308 59.0264,79.3308 59.4024,79.5468" id="Fill-262" fill="#16110D"></path>
                <path d="M62.9688,77.4882 C63.3448,77.7042 63.3448,78.0582 62.9688,78.2762 C62.5928,78.4922 61.9828,78.4922 61.6048,78.2762 C61.2288,78.0582 61.2288,77.7042 61.6048,77.4882 C61.9828,77.2702 62.5928,77.2702 62.9688,77.4882" id="Fill-264" fill="#16110D"></path>
                <path d="M66.5352,75.4288 C66.9112,75.6448 66.9112,75.9988 66.5352,76.2168 C66.1612,76.4328 65.5492,76.4328 65.1712,76.2168 C64.7952,75.9988 64.7952,75.6448 65.1712,75.4288 C65.5492,75.2108 66.1612,75.2108 66.5352,75.4288" id="Fill-266" fill="#16110D"></path>
                <path d="M70.1036,73.3692 C70.4796,73.5872 70.4796,73.9392 70.1036,74.1572 C69.7276,74.3732 69.1156,74.3732 68.7376,74.1572 C68.3616,73.9392 68.3616,73.5872 68.7376,73.3692 C69.1156,73.1512 69.7276,73.1512 70.1036,73.3692" id="Fill-268" fill="#16110D"></path>
                <path d="M73.67,71.3096 C74.046,71.5276 74.046,71.8796 73.67,72.0976 C73.294,72.3136 72.684,72.3136 72.306,72.0976 C71.93,71.8796 71.93,71.5276 72.306,71.3096 C72.684,71.0916 73.294,71.0916 73.67,71.3096" id="Fill-270" fill="#16110D"></path>
                <path d="M77.2364,69.25 C77.6124,69.468 77.6124,69.82 77.2364,70.038 C76.8604,70.254 76.2504,70.254 75.8724,70.038 C75.4964,69.82 75.4964,69.468 75.8724,69.25 C76.2504,69.032 76.8604,69.032 77.2364,69.25" id="Fill-272" fill="#16110D"></path>
                <path d="M80.8048,67.1914 C81.1808,67.4074 81.1808,67.7614 80.8048,67.9794 C80.4288,68.1954 79.8168,68.1954 79.4388,67.9794 C79.0628,67.7614 79.0628,67.4074 79.4388,67.1914 C79.8168,66.9734 80.4288,66.9734 80.8048,67.1914" id="Fill-274" fill="#16110D"></path>
                <path d="M84.3712,65.1308 C84.7472,65.3488 84.7472,65.7008 84.3712,65.9188 C83.9952,66.1368 83.3832,66.1368 83.0072,65.9188 C82.6312,65.7008 82.6312,65.3488 83.0072,65.1308 C83.3832,64.9148 83.9952,64.9148 84.3712,65.1308" id="Fill-276" fill="#16110D"></path>
                <path d="M87.9376,63.0722 C88.3136,63.2882 88.3136,63.6422 87.9376,63.8602 C87.5616,64.0762 86.9516,64.0762 86.5736,63.8602 C86.1976,63.6422 86.1976,63.2882 86.5736,63.0722 C86.9516,62.8542 87.5616,62.8542 87.9376,63.0722" id="Fill-278" fill="#16110D"></path>
                <path d="M50.8986,79.5498 C51.2746,79.3318 51.8866,79.3318 52.2646,79.5498 C52.6406,79.7658 52.6426,80.1178 52.2666,80.3358 C51.8906,80.5538 51.2786,80.5538 50.9026,80.3378 C50.5246,80.1198 50.5246,79.7678 50.8986,79.5498" id="Fill-280" fill="#16110D"></path>
                <path d="M55.836,77.4882 C56.21,77.7042 56.21,78.0582 55.836,78.2762 C55.46,78.4922 54.848,78.4922 54.47,78.2762 C54.094,78.0582 54.094,77.7042 54.47,77.4882 C54.848,77.2702 55.46,77.2702 55.836,77.4882" id="Fill-282" fill="#16110D"></path>
                <path d="M59.4024,75.4288 C59.7784,75.6448 59.7784,75.9988 59.4024,76.2168 C59.0264,76.4328 58.4144,76.4328 58.0364,76.2168 C57.6604,75.9988 57.6604,75.6448 58.0364,75.4288 C58.4144,75.2108 59.0264,75.2108 59.4024,75.4288" id="Fill-284" fill="#16110D"></path>
                <path d="M62.9688,73.3692 C63.3448,73.5872 63.3448,73.9392 62.9688,74.1572 C62.5928,74.3732 61.9828,74.3732 61.6048,74.1572 C61.2288,73.9392 61.2288,73.5872 61.6048,73.3692 C61.9828,73.1512 62.5928,73.1512 62.9688,73.3692" id="Fill-286" fill="#16110D"></path>
                <path d="M66.5352,71.3096 C66.9132,71.5276 66.9112,71.8796 66.5352,72.0976 C66.1612,72.3136 65.5492,72.3136 65.1712,72.0976 C64.7952,71.8796 64.7952,71.5276 65.1712,71.3096 C65.5492,71.0916 66.1612,71.0916 66.5352,71.3096" id="Fill-288" fill="#16110D"></path>
                <path d="M70.1036,69.25 C70.4796,69.468 70.4796,69.82 70.1036,70.038 C69.7276,70.254 69.1156,70.254 68.7376,70.038 C68.3636,69.82 68.3636,69.468 68.7376,69.25 C69.1156,69.034 69.7276,69.034 70.1036,69.25" id="Fill-290" fill="#16110D"></path>
                <path d="M73.67,67.1914 C74.046,67.4074 74.046,67.7614 73.67,67.9794 C73.294,68.1954 72.684,68.1954 72.306,67.9794 C71.93,67.7614 71.93,67.4074 72.306,67.1914 C72.684,66.9734 73.294,66.9734 73.67,67.1914" id="Fill-292" fill="#16110D"></path>
                <path d="M77.2364,65.1318 C77.6124,65.3478 77.6124,65.7018 77.2364,65.9198 C76.8604,66.1358 76.2504,66.1358 75.8724,65.9198 C75.4964,65.7018 75.4964,65.3478 75.8724,65.1318 C76.2504,64.9138 76.8604,64.9138 77.2364,65.1318" id="Fill-294" fill="#16110D"></path>
                <path d="M80.8048,63.0722 C81.1808,63.2882 81.1808,63.6422 80.8048,63.8602 C80.4288,64.0762 79.8168,64.0762 79.4388,63.8602 C79.0628,63.6422 79.0628,63.2882 79.4388,63.0722 C79.8168,62.8542 80.4288,62.8542 80.8048,63.0722" id="Fill-296" fill="#16110D"></path>
                <path d="M84.3712,61.0126 C84.7472,61.2306 84.7472,61.5826 84.3712,61.8006 C83.9952,62.0166 83.3832,62.0166 83.0072,61.8006 C82.6312,61.5826 82.6312,61.2306 83.0072,61.0126 C83.3832,60.7946 83.9952,60.7946 84.3712,61.0126" id="Fill-298" fill="#16110D"></path>
                <path d="M87.9376,58.953 C88.3136,59.171 88.3136,59.523 87.9376,59.741 C87.5616,59.957 86.9516,59.957 86.5736,59.741 C86.1976,59.523 86.1976,59.171 86.5736,58.953 C86.9516,58.735 87.5616,58.735 87.9376,58.953" id="Fill-300" fill="#16110D"></path>
                <polygon id="Fill-302" fill="#0066FF" points="87.3634 4.9912 87.3634 56.7752 8.3494 100.9292 15.6574 83.1852 24.1974 83.2872 43.3774 41.7452 53.9954 52.9192 63.6494 36.8912 70.2994 43.0392"></polygon>
                <polygon id="Fill-304" fill="#0066FF" points="8.3498 100.9288 0.7218 96.7288 8.0298 78.9848 15.6578 83.1848"></polygon>
                <polygon id="Fill-306" fill="#FFFFFF" points="7.629 101.1738 2.373 98.1258 9.681 80.3818 17.309 84.5798 11.105 99.6418"></polygon>
                <polygon id="Fill-308" fill="#0066FF" points="16.5704 79.0888 24.1964 83.2888 15.6584 83.1848 8.0284 78.9848"></polygon>
                <polygon id="Fill-310" fill="#FFFFFF" points="18.381 80.4522 26.169 84.7022 17.309 84.5802 9.839 80.3802"></polygon>
                <polygon id="Fill-312" fill="#0066FF" points="35.7482 37.5478 43.3762 41.7458 24.1982 83.2878 16.5702 79.0898"></polygon>
                <polygon id="Fill-314" fill="#FFFFFF" points="37.7188 38.9628 45.3448 43.1628 26.1688 84.7028 18.5388 80.5048"></polygon>
                <polygon id="Fill-316" fill="#0066FF" points="56.0196 32.6924 63.6476 36.8924 53.9956 52.9204 47.6176 46.2084"></polygon>
                <polygon id="Fill-318" fill="#FFFFFF" points="57.6758 34.122 65.3018 38.322 55.6498 54.35 49.2718 47.638"></polygon>
                <polygon id="Fill-320" fill="#0066FF" points="79.7364 0.792 87.3624 4.992 70.2984 43.04 63.6484 36.892"></polygon>
                <polygon id="Fill-322" fill="#FFFFFF" points="81.3908 2.206 87.3628 5.496 87.3628 10.008 71.9528 44.454 65.3028 38.306"></polygon>
                <path d="M9.5,99.6426 L16.046,83.7466 L24.042,83.8446 L24.568,83.8506 L24.938,83.0546 L35.774,59.5826 L43.544,42.7486 L46.9,46.2786 L54.1,53.8526 L63.778,37.7826 L70.498,43.9946 L86.788,7.6766 L86.788,56.4546 L9.5,99.6426 Z M8.32,79.7866 L10,80.7106 L14.938,83.4286 L8.058,100.1286 L1.442,96.4846 L8.32,79.7866 Z M10.258,79.5686 L16.414,79.6446 L19.65,81.4266 L21.97,82.7026 L19.006,82.6686 L15.814,82.6286 L11.276,80.1306 L10.258,79.5686 Z M36.016,38.3366 L42.636,41.9806 L35.028,58.4666 L23.93,82.5006 L21.434,81.1246 L17.308,78.8546 L36.016,38.3366 Z M48.334,46.1386 L56.224,33.4466 L62.858,37.0986 L53.89,51.9866 L48.334,46.1386 Z M80.01,1.5846 L86.628,5.2286 L70.1,42.0826 L64.374,36.7926 L64.44,36.6846 L64.38,36.6526 L80.01,1.5846 Z M87.94,5.1066 L87.94,4.6666 L87.09,4.1986 L79.46,0.0006 L63.374,36.0986 L55.816,31.9386 L47.52,45.2826 L44.056,41.6406 L43.74,41.3046 L43.11,40.9586 L35.482,36.7586 L16.198,78.5266 L8.186,78.4286 L7.642,78.4226 L7.308,79.2286 L0,96.9746 L7.628,101.1746 L8.352,101.5706 L8.81,101.3146 L87.94,57.0986 L87.94,5.1066 Z" id="Fill-324" fill="#16110D"></path>
            </g>
        </g>
    </g>
</svg>