<?xml version="1.0" encoding="UTF-8"?>
<svg width="1171px" height="1381px" viewBox="0 0 1171 1381" version="1.1" xmlns="http://www.w3.org/2000/svg" xmlns:xlink="http://www.w3.org/1999/xlink">
    <!-- Generator: Sketch 52.5 (67469) - http://www.bohemiancoding.com/sketch -->
    <title>Shape</title>
    <desc>Created with Sketch.</desc>
    <g id="Page-1" stroke="none" stroke-width="1" fill="none" fill-rule="evenodd">
        <g id="Design" transform="translate(-130.000000, -2128.000000)" fill="#0066FF" fill-rule="nonzero">
            <path d="M1280.6321,2129.12549 L1282.58059,2128.67452 C1283.49386,2132.62042 1284.37263,2136.5444 1285.217,2140.44661 L1283.26224,2140.86959 C1282.41989,2136.97676 1281.54321,2133.0621 1280.6321,2129.12549 Z M1287.97616,2164.35005 L1289.94286,2163.98661 C1290.67085,2167.92597 1291.36234,2171.84237 1292.01745,2175.73596 L1290.04518,2176.0678 C1289.39185,2172.18479 1288.70221,2168.27892 1287.97616,2164.35005 Z M1293.63101,2199.84687 L1295.61356,2199.58331 C1296.14588,2203.58751 1296.63803,2207.5667 1297.09013,2211.52108 L1295.10308,2211.74825 C1294.65237,2207.80606 1294.16172,2203.83899 1293.63101,2199.84687 Z M1297.35928,2235.50576 L1299.35366,2235.35591 C1299.65674,2239.38963 1299.91621,2243.39655 1300.13221,2247.37687 L1298.13515,2247.48524 C1297.9199,2243.5188 1297.66133,2239.52571 1297.35928,2235.50576 Z M1298.91235,2271.40797 L1300.91224,2271.38768 C1300.95311,2275.41497 1300.94725,2279.41396 1300.89481,2283.38487 L1298.89498,2283.35846 C1298.94722,2279.40316 1298.95306,2275.41974 1298.91235,2271.40797 Z M1297.99808,2307.20335 L1299.99417,2307.32848 C1299.74173,2311.35542 1299.43884,2315.35231 1299.08567,2319.31942 L1297.09354,2319.14207 C1297.44517,2315.19239 1297.74673,2311.21291 1297.99808,2307.20335 Z M1294.31902,2342.9378 L1296.29833,2343.22473 C1295.72023,2347.21259 1295.08842,2351.16908 1294.40308,2355.09452 L1292.43288,2354.75054 C1293.1149,2350.84411 1293.74367,2346.90664 1294.31902,2342.9378 Z M1287.62258,2378.15928 L1289.56853,2378.62111 C1288.63941,2382.53603 1287.65384,2386.41873 1286.61201,2390.26958 L1284.68141,2389.74727 C1285.71781,2385.91652 1286.69826,2382.05399 1287.62258,2378.15928 Z M1277.67558,2412.69799 L1279.56851,2413.34358 C1278.26862,2417.15499 1276.9101,2420.93383 1275.49311,2424.68054 L1273.62243,2423.97306 C1275.03165,2420.24686 1276.38276,2416.48865 1277.67558,2412.69799 Z M1264.44638,2446.00318 L1266.26606,2446.83309 C1264.59825,2450.48999 1262.87107,2454.115 1261.08468,2457.70857 L1259.29376,2456.81829 C1261.07024,2453.24466 1262.78782,2449.63979 1264.44638,2446.00318 Z M1247.96097,2477.83444 L1249.68899,2478.8414 C1247.67007,2482.30602 1245.59237,2485.74029 1243.45599,2489.14471 L1241.76192,2488.08163 C1243.8867,2484.69569 1245.95308,2481.28014 1247.96097,2477.83444 Z M1228.39629,2507.93065 L1230.01886,2509.09995 C1227.67848,2512.34757 1225.28099,2515.5671 1222.82645,2518.75909 L1221.241,2517.53993 C1223.68295,2514.36432 1226.06806,2511.16141 1228.39629,2507.93065 Z M1206.11356,2536.03325 L1207.62356,2537.3447 C1205.00222,2540.3629 1202.32631,2543.35582 1199.59581,2546.32401 L1198.12389,2544.96995 C1200.84155,2542.01573 1203.50476,2539.03702 1206.11356,2536.03325 Z M1181.44822,2562.12909 L1182.84472,2563.56079 C1179.98958,2566.34573 1177.08302,2569.10852 1174.12492,2571.84975 L1172.7655,2570.38278 C1175.71114,2567.6531 1178.60535,2564.90206 1181.44822,2562.12909 Z M1154.78983,2586.24315 L1156.07711,2587.7738 C1153.03957,2590.3284 1149.95415,2592.86419 1146.82064,2595.38175 L1145.56799,2593.82262 C1148.6899,2591.31438 1151.76378,2588.78808 1154.78983,2586.24315 Z M1126.57052,2608.43012 L1127.7566,2610.04046 C1124.54643,2612.40489 1121.2909,2614.75344 1117.9897,2617.0867 L1116.83534,2615.45347 C1120.12595,2613.12769 1123.3709,2610.78677 1126.57052,2608.43012 Z M1097.06168,2628.89112 L1098.15624,2630.56502 C1094.82372,2632.74413 1091.44862,2634.91039 1088.03048,2637.06438 L1086.9642,2635.37233 C1090.37292,2633.22427 1093.7386,2631.06407 1097.06168,2628.89112 Z M1066.51535,2647.81244 L1067.52869,2649.53672 C1064.10083,2651.55124 1060.6327,2653.55577 1057.1237,2655.55094 L1056.13515,2653.81233 C1059.6359,2651.82185 1063.09576,2649.8221 1066.51535,2647.81244 Z M1035.16487,2665.36628 L1036.10728,2667.13032 C1032.60885,2668.9993 1029.07199,2670.86103 1025.49591,2672.71619 L1024.57492,2670.94086 C1028.14388,2669.08939 1031.6736,2667.23142 1035.16487,2665.36628 Z M1003.22558,2681.71135 L1004.10691,2683.5067 C1000.53718,2685.25907 996.929829,2687.00681 993.283803,2688.75066 L992.420852,2686.94641 C996.060777,2685.20548 999.662002,2683.46071 1003.22558,2681.71135 Z M970.671617,2697.09557 L971.500757,2698.9156 C967.880545,2700.56484 964.222915,2702.21209 960.526435,2703.85823 L959.712812,2702.03121 C963.404147,2700.38736 967.056606,2698.74243 970.671617,2697.09557 Z M937.782314,2711.59157 L938.567729,2713.4309 C934.916822,2714.98988 931.22787,2716.54966 927.498895,2718.11129 L926.726341,2716.26653 C930.451056,2714.70668 934.135722,2713.14871 937.782314,2711.59157 Z M904.601689,2725.3656 L905.351076,2727.21989 C901.688452,2728.70009 897.985972,2730.18412 894.240797,2731.67334 L893.501806,2729.81487 C897.243543,2728.32703 900.942559,2726.84438 904.601689,2725.3656 Z M871.153169,2738.56904 L871.873578,2740.43479 C868.195384,2741.85503 864.473093,2743.28276 860.702286,2744.71987 L859.990031,2742.85099 C863.758147,2741.41491 867.477721,2739.98822 871.153169,2738.56904 Z M837.56484,2751.29692 L838.262878,2753.17115 C834.567615,2754.54741 830.81985,2755.93613 827.011791,2757.34036 L826.319831,2755.46388 C830.12589,2754.06038 833.871631,2752.67242 837.56484,2751.29692 Z M803.713888,2763.72735 L804.395672,2765.60755 C800.710756,2766.94375 796.956838,2768.30017 793.117153,2769.68307 L792.43945,2767.80139 C796.277799,2766.41898 800.030359,2765.06304 803.713888,2763.72735 Z M769.954916,2775.85463 L770.626403,2777.73854 C766.981433,2779.03773 763.226962,2780.37332 759.30451,2781.76631 L758.635201,2779.88162 C762.556951,2778.48889 766.310701,2777.15355 769.954916,2775.85463 Z M736.02808,2787.89061 L736.694916,2789.77617 C733.73972,2790.82129 731.062145,2791.76788 726.248594,2793.46933 C725.816655,2793.62201 725.816655,2793.62201 725.38471,2793.77469 L724.718181,2791.88903 C725.150125,2791.73635 725.150125,2791.73635 725.582063,2791.58367 C730.395518,2789.88224 733.073014,2788.93568 736.02808,2787.89061 Z M702.035658,2799.9123 L702.703436,2801.79753 C698.72565,2803.20653 694.994996,2804.52954 691.398486,2805.80682 L690.729157,2803.92214 C694.326212,2802.64467 698.057378,2801.32148 702.035658,2799.9123 Z M668.202743,2811.95277 L668.877017,2813.83568 C665.017,2815.21796 661.257601,2816.56789 657.575534,2817.894 L656.897839,2816.01231 C660.581073,2814.68578 664.341611,2813.33545 668.202743,2811.95277 Z M634.3852,2824.17644 L635.071611,2826.05496 C631.265418,2827.44575 627.524153,2828.81863 623.838239,2830.17731 L623.14651,2828.30074 C626.834223,2826.9414 630.577259,2825.56786 634.3852,2824.17644 Z M600.566213,2836.70795 L601.270626,2838.5798 C597.486417,2840.00387 593.752635,2841.41713 590.06409,2842.82171 L589.352356,2840.95263 C593.043368,2839.54712 596.779589,2838.13294 600.566213,2836.70795 Z M566.976248,2849.58498 L567.704689,2851.4476 C563.94409,2852.91831 560.226616,2854.38281 556.549043,2855.84256 L555.81118,2853.98364 C559.49192,2852.52264 563.212534,2851.0569 566.976248,2849.58498 Z M533.607386,2862.93925 L534.366235,2864.78969 C530.637669,2866.31874 526.94827,2867.84509 523.295876,2869.36985 L522.525385,2867.52422 C526.181687,2865.99783 529.874965,2864.46987 533.607386,2862.93925 Z M500.347393,2876.9617 L501.14365,2878.79636 C497.445994,2880.40117 493.785657,2882.00626 490.161101,2883.61252 L489.350787,2881.78402 C492.980055,2880.17568 496.645077,2878.56854 500.347393,2876.9617 Z M467.56159,2891.65494 L468.402426,2893.4696 C464.753899,2895.16017 461.141907,2896.85369 457.56533,2898.55092 L456.707896,2896.74404 C460.290031,2895.04418 463.907555,2893.34806 467.56159,2891.65494 Z M435.161376,2907.22847 L436.054703,2909.01787 C432.451807,2910.81655 428.885842,2912.62077 425.355965,2914.43119 L424.443241,2912.6516 C427.979606,2910.83785 431.552036,2909.03036 435.161376,2907.22847 Z M403.197818,2923.86064 L404.152243,2925.61822 C400.614068,2927.53957 397.113802,2929.46902 393.65081,2931.40718 L392.674032,2929.66193 C396.144493,2927.71959 399.652209,2925.78603 403.197818,2923.86064 Z M371.851002,2941.68998 L372.875578,2943.4076 C369.427071,2945.46466 366.017825,2947.53237 362.647367,2949.61132 L361.597409,2947.90909 C364.976337,2945.82492 368.394043,2943.75207 371.851002,2941.68998 Z M341.412539,2960.80121 L342.516287,2962.46907 C339.166439,2964.68591 335.857898,2966.91611 332.590317,2969.16021 L331.45807,2967.51157 C334.735145,2965.26095 338.053186,2963.02435 341.412539,2960.80121 Z M311.891233,2981.47968 L313.083558,2983.08541 C309.863576,2985.47639 306.687153,2987.88346 303.554047,2990.30715 L302.330313,2988.72523 C305.473861,2986.29346 308.660755,2983.87846 311.891233,2981.47968 Z M283.613361,3003.8364 L284.902702,3005.36532 C281.833572,3007.95352 278.810715,3010.56071 275.83398,3013.18741 L274.51069,3011.68778 C277.498681,3009.05115 280.532856,3006.4342 283.613361,3003.8364 Z M256.819204,3028.05511 L258.21243,3029.49 C255.339647,3032.27936 252.515571,3035.09047 249.740131,3037.92384 L248.311388,3036.52431 C251.098565,3033.67896 253.934481,3030.85606 256.819204,3028.05511 Z M231.985936,3054.08174 L233.486258,3055.40425 C230.841981,3058.40405 228.248772,3061.42827 225.706625,3064.47742 L224.170478,3063.19669 C226.724413,3060.13341 229.329566,3057.09526 231.985936,3054.08174 Z M209.25457,3082.16117 L210.861726,3083.35157 C208.484949,3086.56045 206.161137,3089.79615 203.890342,3093.05915 L202.24874,3091.91672 C204.530809,3088.63753 206.866105,3085.38584 209.25457,3082.16117 Z M189.152834,3111.99585 L190.860391,3113.03712 C188.783963,3116.4422 186.76167,3119.87601 184.793608,3123.33901 L183.054792,3122.35082 C185.033017,3118.86994 187.065731,3115.41843 189.152834,3111.99585 Z M171.800948,3143.67246 L173.59797,3144.55036 C171.849389,3148.12962 170.155184,3151.7389 168.515482,3155.37863 L166.691981,3154.55714 C168.340221,3150.89846 170.043254,3147.27037 171.800948,3143.67246 Z M157.517401,3176.73072 L159.38814,3177.43806 C157.980834,3181.16001 156.627143,3184.91255 155.327211,3188.69605 L153.435739,3188.04618 C154.742286,3184.24342 156.10289,3180.47173 157.517401,3176.73072 Z M146.304994,3211.02734 L148.231939,3211.56295 C147.168902,3215.38738 146.157656,3219.24217 145.198355,3223.12766 L143.256659,3222.64826 C144.2206,3218.74398 145.236763,3214.87045 146.304994,3211.02734 Z M138.159199,3246.13513 L140.124761,3246.50468 C139.391776,3250.4033 138.708241,3254.33159 138.074308,3258.28983 L136.099475,3257.97355 C136.736253,3253.99754 137.422878,3250.0515 138.159199,3246.13513 Z M132.921219,3281.78958 L134.90977,3282.00327 C134.486245,3285.94449 134.10936,3289.91421 133.77926,3293.9127 L131.786041,3293.74815 C132.117492,3289.7333 132.495932,3285.74719 132.921219,3281.78958 Z M130.37497,3317.82341 L132.373727,3317.89392 C132.233946,3321.85622 132.137861,3325.84567 132.085605,3329.86247 L130.085774,3329.83645 C130.138222,3325.80485 130.234665,3321.80057 130.37497,3317.82341 Z M130.282977,3353.77478 L132.282138,3353.71686 C132.39692,3357.67844 132.552385,3361.66564 132.748654,3365.67863 L130.751042,3365.77633 C130.554126,3361.75012 130.398144,3357.74966 130.282977,3353.77478 Z M132.379024,3389.71915 L134.371558,3389.5465 C134.713728,3393.4956 135.093706,3397.46877 135.511603,3401.46618 L133.522444,3401.67413 C133.103321,3397.665 132.722217,3393.68005 132.379024,3389.71915 Z M136.439351,3425.62512 L138.420399,3425.35043 C138.964812,3429.27677 139.544312,3433.22567 140.158996,3437.19727 L138.182528,3437.50317 C137.56624,3433.5212 136.985213,3429.5619 136.439351,3425.62512 Z M142.209656,3461.15903 L144.176148,3460.79446 C144.898965,3464.69334 145.65439,3468.61338 146.44251,3472.55469 L144.481335,3472.94686 C143.691383,3468.99639 142.934186,3465.06715 142.209656,3461.15903 Z M149.514687,3496.46643 L151.464739,3496.02225 C152.345722,3499.88997 153.257047,3503.77752 154.198794,3507.68502 L152.254466,3508.15362 C151.310766,3504.23802 150.397532,3500.34232 149.514687,3496.46643 Z" id="Shape"></path>
        </g>
    </g>
</svg>