<svg width="1160" height="150" viewBox="0 0 1160 150" fill="none" xmlns="http://www.w3.org/2000/svg">
<g clip-path="url(#clip0)">
<path d="M1043.34 179.374C980.051 181.739 951.216 150.46 924.411 124.345C905.23 105.658 874.407 90.9388 838.713 82.5192C799.546 73.2816 756.68 77.8504 718.032 68.7687C674.218 58.4728 665.058 29.2836 654.641 6.53603C643.772 -17.2004 629.407 -39.8142 590.891 -54.0947C543.632 -71.6147 471.697 -75.3419 424 -56.3147" stroke="#E4EEFC" stroke-width="3" stroke-linejoin="round" stroke-dasharray="15 15"/>
<path d="M297 -33.8735C360.29 -36.2392 389.125 -4.96032 415.929 21.1554C435.111 39.8421 465.934 54.5612 501.628 62.9808C540.794 72.2184 583.661 67.6496 622.309 76.7313C666.123 87.0272 675.282 116.216 685.7 138.964C696.568 162.7 710.934 185.314 749.45 199.595C796.709 217.115 868.643 220.842 916.341 201.815" stroke="#E4EEFC" stroke-width="3" stroke-linejoin="round" stroke-dasharray="15 15"/>
<circle cx="461.854" cy="106.854" r="3.85443" fill="#E4EEFC"/>
<circle cx="486.082" cy="106.854" r="3.85443" fill="#E4EEFC"/>
<circle cx="510.31" cy="106.854" r="3.85443" fill="#E4EEFC"/>
<circle cx="534.538" cy="106.854" r="3.85443" fill="#E4EEFC"/>
<circle cx="558.766" cy="106.854" r="3.85443" fill="#E4EEFC"/>
<circle cx="461.854" cy="126.677" r="3.85443" fill="#E4EEFC"/>
<circle cx="486.082" cy="126.677" r="3.85443" fill="#E4EEFC"/>
<circle cx="510.31" cy="126.677" r="3.85443" fill="#E4EEFC"/>
<circle cx="534.538" cy="126.677" r="3.85443" fill="#E4EEFC"/>
<circle cx="558.766" cy="126.677" r="3.85443" fill="#E4EEFC"/>
<path d="M948.244 -32.3745C942.699 -11.3259 928.994 8.01097 908.863 23.1909C888.733 38.3709 863.08 48.7121 835.149 52.9069C807.217 57.1016 778.263 54.9616 751.946 46.7572C725.629 38.5529 703.132 24.6529 687.3 6.81481C671.468 -11.0232 663.011 -31.9981 663 -53.4574C662.989 -74.9166 671.423 -95.8965 687.237 -113.744C703.051 -131.591 725.533 -145.505 751.841 -153.725C778.15 -161.945 807.102 -164.102 835.038 -159.924L829.136 -137.524C807.081 -140.823 784.222 -139.12 763.451 -132.63C742.68 -126.14 724.929 -115.155 712.444 -101.064C699.959 -86.9731 693.3 -70.409 693.309 -53.4663C693.317 -36.5237 699.994 -19.9636 712.494 -5.88001C724.994 8.20356 742.756 19.178 763.533 25.6555C784.311 32.133 807.172 33.8227 829.224 30.5108C851.276 27.1989 871.53 19.0343 887.424 7.04933C903.317 -4.93562 914.137 -20.2026 918.516 -36.8209L948.244 -32.3745Z" fill="#F2F7FF"/>
<path fill-rule="evenodd" clip-rule="evenodd" d="M1090.05 96.8596L1094.7 79.9594L1077.51 75.2272L1072.86 92.1275L1055.96 87.4742L1051.23 104.661L1068.13 109.314L1063.47 126.214L1080.66 130.946L1085.31 114.046L1102.21 118.7L1106.95 101.513L1090.05 96.8596Z" fill="white"/>
<path d="M1048.49 65.3234C1014.71 31.5431 959.945 31.5431 926.165 65.3234C892.384 99.1038 892.384 153.873 926.165 187.653" stroke="#E4EEFC" stroke-width="3" stroke-dasharray="15 15"/>
<path d="M1044.27 69.4621L1056.25 72.748L1052.97 60.7652L1044.27 69.4621Z" fill="white"/>
<circle cx="1115.85" cy="15.8544" r="3.85443" fill="#E4EEFC"/>
<circle cx="1140.08" cy="15.8544" r="3.85443" fill="#E4EEFC"/>
<circle cx="1115.85" cy="35.6772" r="3.85443" fill="#E4EEFC"/>
<circle cx="1140.08" cy="35.6772" r="3.85443" fill="#E4EEFC"/>
</g>
<defs>
<clipPath id="clip0">
<rect width="1160" height="150" fill="white"/>
</clipPath>
</defs>
</svg>
