<?xml version="1.0" encoding="UTF-8"?>
<svg width="211px" height="143px" viewBox="0 0 211 143" version="1.1" xmlns="http://www.w3.org/2000/svg" xmlns:xlink="http://www.w3.org/1999/xlink">
    <!-- Generator: Sketch 52.5 (67469) - http://www.bohemiancoding.com/sketch -->
    <title>Group 7</title>
    <desc>Created with Sketch.</desc>
    <defs>
        <polygon id="path-1" points="0.77632 2.345 181.06112 2.345 181.06112 106.983367 0.77632 106.983367"></polygon>
        <polygon id="path-3" points="2.76656 0.334920238 7.14816 0.334920238 7.14816 3.19047619 2.76656 3.19047619"></polygon>
        <polygon id="path-5" points="2.56896 0.334920238 6.94896 0.334920238 6.94896 3.19047619 2.56896 3.19047619"></polygon>
    </defs>
    <g id="Page-1" stroke="none" stroke-width="1" fill="none" fill-rule="evenodd">
        <g id="Design" transform="translate(-168.000000, -4025.000000)">
            <g id="Group-7" transform="translate(168.000000, 4026.000000)">
                <g id="Group-140" transform="translate(0.000000, 13.000000)">
                    <path d="M183.63008,51.5510762 C183.63008,51.5064095 183.63328,51.4649333 183.63008,51.4202667 L183.63008,48.768981 L181.90528,48.768981 C181.78368,48.6924095 181.66848,48.6062667 181.53728,48.5328857 L110.48128,7.62779048 C107.36448,5.83793333 101.92768,6.06126667 98.33408,8.13188571 L7.57568,60.7364571 C6.93248,61.1065524 6.39488,61.5117429 5.95968,61.9360762 L4.60608,61.9360762 L4.60608,68.0905048 C4.63488,69.2007905 5.32288,70.2600286 6.70528,71.0544571 L77.75808,111.956362 C80.87488,113.74941 86.31168,113.526076 89.90528,111.452267 L180.66368,58.8508857 C182.56448,57.7565524 183.55968,56.3686952 183.62368,55.0382667 L183.63008,53.3728381 L183.63008,51.5510762 Z" id="Fill-1" fill="#0066FF"></path>
                    <path d="M183.62368,55.0095524 L183.63008,53.3473143 L183.63008,51.5223619 C183.63008,51.4808857 183.63328,51.436219 183.63008,51.3915524 L183.63008,48.7434571 L181.90528,48.7434571 C181.78368,48.6636952 181.66848,48.5807429 181.53728,48.5073619 L155.17568,33.3334571 C153.16928,33.3813143 151.71328,33.492981 151.10528,33.693981 C147.35168,34.9350762 86.94848,69.9505524 85.72928,75.2658857 C84.50688,80.581219 82.24768,107.192981 82.24768,107.192981 L82.24768,113.108124 C84.85888,113.251695 87.71968,112.686981 89.90528,111.429933 L180.66368,58.8253619 C182.56128,57.734219 183.55648,56.3431714 183.62368,55.0095524" id="Fill-3" fill="#16110D"></path>
                    <path d="M5.23296,62.5588571 L5.23296,68.0911429 C5.25536,69.01 5.87296,69.8554762 7.01856,70.5127143 L78.07456,111.414619 C81.00896,113.108762 86.17696,112.879048 89.59136,110.913714 L180.34976,58.3123333 C181.97536,57.3743333 182.93856,56.1715238 182.99936,55.007 L183.00576,51.4879048 L183.00576,49.3949524 L181.71296,49.3949524 L181.55936,49.2896667 C181.38976,49.178 181.30976,49.1237619 181.22656,49.0759048 L110.16736,8.17080952 C107.22976,6.47985714 102.06496,6.70319048 98.64416,8.67171429 L7.88896,61.2762857 C7.30656,61.6080952 6.80416,61.981381 6.39456,62.3801905 L6.21536,62.5588571 L5.23296,62.5588571 Z M83.03136,113.778762 C80.94176,113.778762 78.94176,113.357619 77.44416,112.49619 L6.39136,71.5942857 C4.87456,70.7232857 4.01696,69.4821905 3.97856,68.1070952 L3.97856,61.311381 L5.70976,61.311381 C6.15456,60.9061905 6.67616,60.5329048 7.26496,60.1947143 L98.02016,7.59014286 C101.78016,5.42380952 107.50816,5.19728571 110.79136,7.08604762 L181.84736,47.9943333 C181.93376,48.039 182.01376,48.0932381 182.09696,48.1442857 L184.25376,48.1442857 L184.24736,55.0420952 C184.17056,56.688381 183.00896,58.223 180.97376,59.3939048 L90.21856,111.995286 C88.17056,113.175762 85.53696,113.778762 83.03136,113.778762 Z" id="Fill-5" fill="#16110D"></path>
                    <path d="M77.75808,106.01059 L6.70528,65.1086857 C3.58848,63.3156381 3.97888,60.185781 7.57568,58.1151619 L98.33408,5.51378095 C101.92768,3.44635238 107.36448,3.2166381 110.48128,5.01287619 L181.53728,45.9115905 C184.64768,47.7078286 184.25728,50.8344952 180.66368,52.9019238 L89.90528,105.509686 C86.31168,107.577114 80.87488,107.803638 77.75808,106.01059" id="Fill-7" fill="#0066FF"></path>
                    <g id="Group-11" transform="translate(3.200000, 0.846433)">
                        <mask id="mask-2" fill="white">
                            <use xlink:href="#path-1"></use>
                        </mask>
                        <g id="Clip-10"></g>
                        <path d="M102.00512,3.5704619 C99.72992,3.5704619 97.32352,4.12560476 95.44512,5.20717619 L4.68992,57.8117476 C3.00032,58.7848429 2.02752,60.0259381 2.02752,61.2223667 C2.02752,62.1699381 2.66112,63.060081 3.81632,63.7205095 L74.87232,104.622414 C77.80672,106.313367 82.97792,106.086843 86.39232,104.12151 L177.14752,51.5169381 C178.84352,50.5438429 179.80992,49.2995571 179.80992,48.1031286 C179.80992,47.1587476 179.17312,46.2717952 178.02112,45.6081762 L106.96832,4.70308095 C105.64672,3.94374762 103.87072,3.5704619 102.00512,3.5704619 M79.83552,106.983367 C77.74272,106.983367 75.74272,106.562224 74.24512,105.703986 L3.18912,64.802081 C1.63392,63.9055571 0.77632,62.6357476 0.77632,61.2223667 C0.77632,59.5697 1.97312,57.9297952 4.06592,56.7301762 L94.82112,4.12560476 C98.58432,1.9624619 104.31232,1.73912857 107.59232,3.6247 L178.64832,44.5266048 C180.20352,45.4231286 181.06112,46.6961286 181.06112,48.1031286 C181.06112,49.7589857 179.86432,51.3957 177.77472,52.5985095 L87.01632,105.203081 C84.97152,106.383557 82.33792,106.983367 79.83552,106.983367" id="Fill-9" fill="#16110D" mask="url(#mask-2)"></path>
                    </g>
                    <polygon id="Fill-12" fill="#16110D" points="84.5392 102.031748 84.232 101.859462 15.7168 62.4187952 102.0528 12.3602238 102.3536 12.5325095 170.872 51.9763667"></polygon>
                    <polygon id="Fill-14" fill="#FFFFFF" points="84.90816 98.0592857 15.17376 57.9167143 103.21856 6.87547619 172.95296 47.0180476"></polygon>
                    <path d="M16.42368,57.9163952 L84.90688,97.337919 L171.69728,47.0177286 L103.21728,7.59620476 L16.42368,57.9163952 Z M84.90688,98.7800143 L84.59648,98.5981571 L13.92128,57.9163952 L103.21728,6.15410952 L103.53088,6.33277619 L174.20288,47.0177286 L84.90688,98.7800143 Z" id="Fill-16" fill="#16110D"></path>
                    <path d="M161.84576,23.6468524 L161.81376,23.9212333 L154.71296,19.8342333 C154.58816,19.9203762 154.47936,20.0160905 154.33216,20.0990429 C152.32896,21.2508048 151.16416,23.0949 149.16096,21.9399476 C147.15776,20.7881857 145.07776,20.4021381 147.08096,19.2503762 C147.22496,19.1674238 147.38816,19.1036143 147.54496,19.0334238 L148.19456,13.6989476 L145.43296,12.7449952 L145.00736,17.5721857 L137.15776,9.72680476 C135.77856,8.93556667 133.42336,9.31842381 132.97536,10.4095667 L131.97376,12.8343286 L131.06176,12.7449952 L131.06176,18.5580429 L131.06176,18.6186619 L131.06176,18.6378048 L131.06496,18.6378048 C131.10016,18.9855667 131.34336,19.3205667 131.78176,19.5758048 L153.36896,31.999519 C153.97056,32.347281 154.84096,32.4908524 155.66976,32.3855667 L163.57056,31.3741857 C164.84416,31.2114714 165.57056,30.5542333 165.51296,29.9001857 L165.51296,24.1764714 L161.84576,23.6468524 Z" id="Fill-18" fill="#16110D"></path>
                    <path d="M131.68608,18.559 L131.68608,18.5781429 C131.70208,18.7249048 131.85568,18.894 132.09568,19.034381 L153.67968,31.4580952 C154.16288,31.7356667 154.89888,31.8537143 155.59008,31.7675714 L163.48768,30.753 C164.43808,30.6349524 164.91488,30.210619 164.88928,29.949 L164.88928,24.716619 L162.39648,24.3529048 L162.32928,24.9367619 L154.75488,20.575381 L154.65248,20.6391905 C154.14688,20.9295238 153.69248,21.2677143 153.25408,21.5963333 C151.99008,22.5470952 150.67808,23.5361429 148.84768,22.4800952 C148.40928,22.2248571 147.96128,22.0110952 147.55808,21.8164762 C146.50208,21.3028095 145.66688,20.9008095 145.63808,20.1255238 C145.61888,19.4587143 146.23008,19.021619 146.76768,18.7121429 C146.81568,18.6834286 147.60288,19.1970952 147.65408,19.1715714 L147.65408,14.3284286 L145.99328,13.540381 L145.51008,18.961 L136.78048,10.2318571 C136.12448,9.88728571 135.10368,9.8362381 134.32288,10.1010476 C133.92608,10.2350476 133.63808,10.4392381 133.55488,10.646619 L132.37728,13.5020952 L131.68608,13.4350952 L131.68608,18.559 Z M155.13248,33.0437619 C154.36768,33.0437619 153.61888,32.8650952 153.05568,32.5396667 L131.47168,20.1159524 C131.16768,19.9404762 130.92448,19.7267143 130.75168,19.490619 L130.43808,19.6437619 L130.43488,12.0568095 L131.57408,12.1684762 L132.39648,10.1712381 C132.62368,9.61928571 133.16448,9.17580952 133.91648,8.92057143 C135.08128,8.52495238 136.50528,8.63342857 137.47488,9.18538095 L137.60288,9.28747619 L144.50208,16.1820952 L144.87648,11.9483333 L148.90528,13.3712857 L148.90528,19.972381 L147.80448,19.5990952 C147.57408,19.7011905 147.48128,19.7394762 147.39488,19.7905238 C147.17408,19.9181429 147.04288,20.0138571 146.96608,20.0808571 C147.19648,20.2531429 147.71168,20.502 148.10528,20.6934286 C148.53408,20.9008095 149.00448,21.1305238 149.47488,21.4017143 C150.54368,22.0142857 151.20928,21.5708095 152.50208,20.6009048 C152.95008,20.2659048 153.45568,19.8862381 154.01888,19.557619 C154.10528,19.5129524 154.17248,19.4587143 154.24288,19.4044762 L154.57248,19.1524286 L155.02688,19.289619 L161.37568,22.9459048 L165.75648,23.5808095 C165.97728,23.6127143 166.14048,23.8009524 166.14048,24.0210952 L166.14048,29.9011429 C166.22688,30.9125238 165.20608,31.7930952 163.64768,31.9940952 L155.75008,33.0022857 C155.54528,33.031 155.33728,33.0437619 155.13248,33.0437619 Z" id="Fill-20" fill="#16110D"></path>
                    <path d="M164.79264,23.2387905 L154.71584,17.4385048 C154.59104,17.5278381 154.47904,17.6203619 154.33184,17.7065048 C152.32864,18.8582667 149.08384,18.8582667 147.08064,17.7065048 C145.07744,16.5515524 145.07744,14.6787429 147.08064,13.526981 C147.22464,13.447219 147.39104,13.380219 147.54464,13.3100286 L137.15744,7.33426667 C135.78144,6.5398381 133.42304,6.92269524 132.97504,8.01702857 L131.12224,12.5060286 C130.92064,12.990981 131.17024,13.4982667 131.78464,13.8524095 L153.36864,26.2761238 C153.97024,26.6238857 154.84064,26.7674571 155.66944,26.6621714 L163.57024,25.6507905 C165.49024,25.4083143 166.18464,24.0396 164.79264,23.2387905" id="Fill-22" fill="#FFFFFF"></path>
                    <path d="M135.39872,7.53558571 C135.02752,7.53558571 134.65632,7.59301429 134.32352,7.70468095 C133.92672,7.83868095 133.63872,8.04287143 133.55552,8.25344286 L131.70272,12.7456333 C131.59712,13.0008714 131.97792,13.2433476 132.09632,13.3135381 L153.68032,25.7340619 C154.16352,26.0116333 154.89952,26.129681 155.59072,26.0435381 L163.48832,25.0321571 C164.42592,24.910919 164.84832,24.5121095 164.89312,24.2887762 C164.93792,24.0622524 164.58592,23.838919 164.47712,23.7783 L154.75552,18.1790143 L154.65312,18.2428238 C152.43872,19.5158238 148.97632,19.5126333 146.76832,18.2460143 C145.59712,17.5728238 144.95072,16.6380143 144.95072,15.6138714 C144.95072,14.7460619 145.42112,13.9420619 146.28192,13.3039667 L136.84512,7.87058571 C136.46112,7.65044286 135.93312,7.53558571 135.39872,7.53558571 M155.13312,27.3197286 C154.36832,27.3197286 153.61952,27.1442524 153.05632,26.8156333 L131.46912,14.391919 C130.58272,13.8814429 130.22112,13.0487286 130.54112,12.2670619 L132.39712,7.7780619 C132.62432,7.22291905 133.16512,6.77944286 133.91712,6.52420476 C135.07872,6.13177619 136.50592,6.2370619 137.47232,6.79220476 L148.90592,13.3709667 L147.80512,13.8750619 C147.57472,13.9803476 147.47872,14.0186333 147.39552,14.069681 C146.62432,14.5131571 146.20192,15.0587286 146.20192,15.6138714 C146.20192,16.1722048 146.62432,16.7241571 147.39232,17.1676333 C149.19072,18.1981571 152.22752,18.1981571 154.01952,17.1644429 C154.10592,17.1165857 154.17312,17.0623476 154.24352,17.0113 L154.57312,16.7592524 L155.02752,16.8964429 L165.10432,22.6967286 C165.87872,23.1465857 166.26272,23.8293476 166.12192,24.5344429 C165.93952,25.4341571 164.99232,26.0977762 163.64832,26.2700619 L155.74752,27.2814429 C155.54592,27.3069667 155.33472,27.3197286 155.13312,27.3197286" id="Fill-24" fill="#16110D"></path>
                    <path d="M165.99264,43.2197857 L110.12064,11.0565952 C108.77664,10.2845 108.94624,8.93492857 110.49504,8.04478571 L113.95104,6.05392857 C115.50304,5.16059524 117.84864,5.06488095 119.18944,5.83697619 L175.06464,38.0001667 C176.40544,38.7722619 176.23584,40.1218333 174.68704,41.0151667 L171.23424,43.0060238 C169.67904,43.8961667 167.33664,43.991881 165.99264,43.2197857" id="Fill-26" fill="#FFFFFF"></path>
                    <path d="M166.30496,42.6805952 C167.45376,43.3378333 169.56896,43.242119 170.91616,42.4636429 L174.37216,40.4759762 C174.98016,40.1250238 175.34496,39.691119 175.34496,39.3082619 C175.34496,38.954119 175.02176,38.6925 174.75296,38.5393571 L118.87776,6.37616667 C117.72896,5.7157381 115.61376,5.81464286 114.26336,6.59311905 L110.80736,8.58078571 C110.20256,8.9317381 109.83776,9.36883333 109.83776,9.7485 C109.83776,10.0994524 110.16416,10.3610714 110.43296,10.5174048 L166.30496,42.6805952 Z M168.27616,44.3683571 C167.30976,44.3683571 166.38816,44.1673571 165.68096,43.7621667 L109.80896,11.5989762 C109.02176,11.1459286 108.58976,10.4855 108.58976,9.7485 C108.58656,8.90302381 109.16896,8.0862619 110.18336,7.50240476 L113.63936,5.5147381 C115.38656,4.50654762 117.96576,4.41083333 119.50176,5.29459524 L175.37696,37.4577857 C176.16416,37.9108333 176.59616,38.5680714 176.59616,39.3082619 C176.59616,40.1537381 176.01376,40.9736905 175.00256,41.5543571 L171.54656,43.5452143 C170.59936,44.0875952 169.40896,44.3683571 168.27616,44.3683571 Z" id="Fill-28" fill="#16110D"></path>
                    <path d="M148.49248,35.8073524 L120.55648,19.7241619 C119.88448,19.3381143 119.96768,18.6649238 120.74208,18.2182571 L122.47008,17.2228286 C123.24448,16.7761619 124.41888,16.7283048 125.09088,17.1175429 L153.02688,33.1975429 C153.69888,33.5835905 153.61568,34.2599714 152.83808,34.7034476 L151.11008,35.6988762 C150.33568,36.1423524 149.16448,36.1934 148.49248,35.8073524" id="Fill-30" fill="#0066FF"></path>
                    <path d="M123.95808,17.4748762 C123.55168,17.4748762 123.11008,17.573781 122.78368,17.7652095 L121.05568,18.7574476 C120.79328,18.9074 120.72928,19.0445905 120.72608,19.0701143 C120.72928,19.0796857 120.76768,19.1275429 120.86688,19.1849714 L148.80608,35.2649714 C149.28608,35.5457333 150.21408,35.4914952 150.79648,35.1596857 L152.52768,34.1610667 C152.78688,34.0143048 152.85088,33.8771143 152.85408,33.8515905 C152.85088,33.8452095 152.81568,33.7941619 152.71328,33.7367333 L124.77728,17.6567333 C124.56608,17.5354952 124.27488,17.4748762 123.95808,17.4748762 M149.63488,36.6943048 C149.09728,36.6943048 148.58208,36.5794476 148.17568,36.3497333 L120.24288,20.2665429 C119.75648,19.985781 119.47488,19.5486857 119.47808,19.0701143 C119.47808,18.5341143 119.82368,18.0268286 120.42848,17.6758762 L122.15968,16.6836381 C123.13568,16.1189238 124.53088,16.0742571 125.40128,16.5751619 L153.34048,32.6551619 C153.82688,32.9359238 154.10528,33.3698286 154.10528,33.8515905 C154.10528,34.3875905 153.75968,34.8948762 153.15168,35.2426381 L151.42368,36.2412571 C150.89888,36.5443524 150.25568,36.6943048 149.63488,36.6943048" id="Fill-32" fill="#16110D"></path>
                    <g id="Group-36" transform="translate(86.400000, 125.275005)">
                        <mask id="mask-4" fill="white">
                            <use xlink:href="#path-3"></use>
                        </mask>
                        <g id="Clip-35"></g>
                        <path d="M6.50496,1.03722381 C7.36256,1.52855714 7.36256,2.32617619 6.50496,2.8207 C5.65056,3.31522381 4.26496,3.31522381 3.40736,2.8207 C2.55296,2.32617619 2.55296,1.52855714 3.40736,1.03722381 C4.26496,0.545890476 5.65056,0.545890476 6.50496,1.03722381" id="Fill-34" fill="#16110D" mask="url(#mask-4)"></path>
                    </g>
                    <path d="M101.00512,121.651262 C101.86272,122.142595 101.86272,122.940214 101.00512,123.434738 C100.15072,123.926071 98.76512,123.926071 97.90752,123.434738 C97.05312,122.940214 97.05312,122.142595 97.90752,121.651262 C98.76512,121.159929 100.15072,121.159929 101.00512,121.651262" id="Fill-37" fill="#16110D"></path>
                    <path d="M109.10496,116.987105 C109.96256,117.478438 109.96256,118.279248 109.10496,118.773771 C108.24736,119.265105 106.86496,119.265105 106.00736,118.773771 C105.15296,118.279248 105.15296,117.478438 106.00736,116.987105 C106.86496,116.495771 108.24736,116.495771 109.10496,116.987105" id="Fill-39" fill="#16110D"></path>
                    <path d="M117.20512,112.325819 C118.06272,112.817152 118.06272,113.614771 117.20512,114.109295 C116.34752,114.600629 114.96512,114.600629 114.10752,114.109295 C113.25312,113.614771 113.25312,112.817152 114.10752,112.325819 C114.96512,111.834486 116.34752,111.834486 117.20512,112.325819" id="Fill-41" fill="#16110D"></path>
                    <path d="M125.30496,107.661662 C126.16256,108.152995 126.16256,108.953805 125.30496,109.448329 C124.44736,109.939662 123.06176,109.939662 122.20736,109.448329 C121.35296,108.953805 121.35296,108.152995 122.20736,107.661662 C123.06176,107.170329 124.44736,107.170329 125.30496,107.661662" id="Fill-43" fill="#16110D"></path>
                    <path d="M133.40512,103.000695 C134.26272,103.492029 134.26272,104.289648 133.40512,104.784171 C132.54752,105.275505 131.16192,105.275505 130.30752,104.784171 C129.45312,104.289648 129.45312,103.492029 130.30752,103.000695 C131.16192,102.509362 132.54752,102.509362 133.40512,103.000695" id="Fill-45" fill="#16110D"></path>
                    <path d="M141.50496,98.3397286 C142.36256,98.8310619 142.36256,99.628681 141.50496,100.123205 C140.64736,100.614538 139.26176,100.614538 138.40736,100.123205 C137.55296,99.628681 137.55296,98.8310619 138.40736,98.3397286 C139.26176,97.8452048 140.64736,97.8452048 141.50496,98.3397286" id="Fill-47" fill="#16110D"></path>
                    <path d="M149.60512,93.6752524 C150.46272,94.1665857 150.46272,94.9642048 149.60512,95.4587286 C148.74752,95.9500619 147.36192,95.9500619 146.50432,95.4587286 C145.65312,94.9642048 145.65312,94.1665857 146.50432,93.6752524 C147.36192,93.183919 148.74752,93.183919 149.60512,93.6752524" id="Fill-49" fill="#16110D"></path>
                    <path d="M157.70496,89.0142857 C158.55936,89.505619 158.55936,90.3032381 157.70496,90.7977619 C156.84736,91.2890952 155.46176,91.2890952 154.60416,90.7977619 C153.75296,90.3032381 153.75296,89.505619 154.60416,89.0142857 C155.46176,88.5229524 156.84736,88.5229524 157.70496,89.0142857" id="Fill-51" fill="#16110D"></path>
                    <path d="M165.80512,84.3501286 C166.65952,84.8414619 166.65952,85.639081 165.80512,86.1367952 C164.94752,86.6281286 163.56192,86.6281286 162.70432,86.1367952 C161.85312,85.639081 161.85312,84.8414619 162.70432,84.3501286 C163.56192,83.8587952 164.94752,83.8587952 165.80512,84.3501286" id="Fill-53" fill="#16110D"></path>
                    <path d="M173.90496,79.6891619 C174.75936,80.1804952 174.75936,80.9781143 173.90496,81.4726381 C173.04736,81.9639714 171.66176,81.9639714 170.80416,81.4726381 C169.95296,80.9781143 169.95296,80.1804952 170.80416,79.6891619 C171.66176,79.1978286 173.04736,79.1978286 173.90496,79.6891619" id="Fill-55" fill="#16110D"></path>
                    <path d="M182.00512,75.0246857 C182.85952,75.516019 182.85952,76.3168286 182.00512,76.8113524 C181.14752,77.3026857 179.76192,77.3026857 178.90432,76.8113524 C178.04992,76.3168286 178.04992,75.516019 178.90432,75.0246857 C179.76192,74.5333524 181.14752,74.5333524 182.00512,75.0246857" id="Fill-57" fill="#16110D"></path>
                    <g id="Group-61" transform="translate(70.400000, 125.275005)">
                        <mask id="mask-6" fill="white">
                            <use xlink:href="#path-5"></use>
                        </mask>
                        <g id="Clip-60"></g>
                        <path d="M6.30816,1.03722381 C7.16256,1.52855714 7.16256,2.32617619 6.30816,2.8207 C5.45056,3.31522381 4.06496,3.31522381 3.20736,2.8207 C2.35616,2.32617619 2.35616,1.52855714 3.20736,1.03722381 C4.06496,0.545890476 5.45056,0.545890476 6.30816,1.03722381" id="Fill-59" fill="#16110D" mask="url(#mask-6)"></path>
                    </g>
                    <path d="M84.808,121.651262 C85.6624,122.142595 85.6624,122.940214 84.808,123.434738 C83.9504,123.926071 82.5648,123.926071 81.7072,123.434738 C80.8528,122.940214 80.8528,122.142595 81.7072,121.651262 C82.5648,121.159929 83.9504,121.159929 84.808,121.651262" id="Fill-62" fill="#16110D"></path>
                    <path d="M92.90496,116.987105 C93.76256,117.478438 93.76256,118.279248 92.90496,118.773771 C92.05056,119.265105 90.66496,119.265105 89.80736,118.773771 C88.95296,118.279248 88.95296,117.478438 89.80736,116.987105 C90.66496,116.495771 92.05056,116.495771 92.90496,116.987105" id="Fill-64" fill="#16110D"></path>
                    <path d="M101.00512,112.325819 C101.86272,112.817152 101.86272,113.614771 101.00512,114.109295 C100.15072,114.600629 98.76512,114.600629 97.90752,114.109295 C97.05312,113.614771 97.05312,112.817152 97.90752,112.325819 C98.76512,111.834486 100.15072,111.834486 101.00512,112.325819" id="Fill-66" fill="#16110D"></path>
                    <path d="M109.10496,107.661662 C109.96256,108.152995 109.96256,108.953805 109.10496,109.448329 C108.24736,109.939662 106.86496,109.939662 106.00736,109.448329 C105.15296,108.953805 105.15296,108.152995 106.00736,107.661662 C106.86496,107.170329 108.24736,107.170329 109.10496,107.661662" id="Fill-68" fill="#16110D"></path>
                    <path d="M117.20512,103.000695 C118.06272,103.492029 118.06272,104.289648 117.20512,104.784171 C116.34752,105.275505 114.96512,105.275505 114.10752,104.784171 C113.25312,104.289648 113.25312,103.492029 114.10752,103.000695 C114.96512,102.509362 116.34752,102.509362 117.20512,103.000695" id="Fill-70" fill="#16110D"></path>
                    <path d="M125.30496,98.3397286 C126.16256,98.8310619 126.16256,99.628681 125.30496,100.123205 C124.44736,100.614538 123.06176,100.614538 122.20736,100.123205 C121.35296,99.628681 121.35296,98.8310619 122.20736,98.3397286 C123.06496,97.8452048 124.44736,97.8452048 125.30496,98.3397286" id="Fill-72" fill="#16110D"></path>
                    <path d="M133.40512,93.6752524 C134.26272,94.1665857 134.26272,94.9642048 133.40512,95.4587286 C132.54752,95.9500619 131.16192,95.9500619 130.30752,95.4587286 C129.45312,94.9642048 129.45312,94.1665857 130.30752,93.6752524 C131.16192,93.183919 132.54752,93.183919 133.40512,93.6752524" id="Fill-74" fill="#16110D"></path>
                    <path d="M141.50496,89.0142857 C142.36256,89.505619 142.36256,90.3032381 141.50496,90.7977619 C140.64736,91.2890952 139.26176,91.2890952 138.40736,90.7977619 C137.55296,90.3032381 137.55296,89.505619 138.40736,89.0142857 C139.26176,88.5229524 140.64736,88.5229524 141.50496,89.0142857" id="Fill-76" fill="#16110D"></path>
                    <path d="M149.60512,84.3501286 C150.46272,84.8414619 150.46272,85.639081 149.60512,86.1367952 C148.74752,86.6281286 147.36192,86.6281286 146.50432,86.1367952 C145.65312,85.639081 145.65312,84.8414619 146.50432,84.3501286 C147.36192,83.8587952 148.74752,83.8587952 149.60512,84.3501286" id="Fill-78" fill="#16110D"></path>
                    <path d="M157.70496,79.6891619 C158.55936,80.1804952 158.55936,80.9781143 157.70496,81.4726381 C156.84736,81.9639714 155.46176,81.9639714 154.60416,81.4726381 C153.75296,80.9781143 153.75296,80.1804952 154.60416,79.6891619 C155.46176,79.1978286 156.84736,79.1978286 157.70496,79.6891619" id="Fill-80" fill="#16110D"></path>
                    <path d="M165.80512,75.0246857 C166.65952,75.516019 166.65952,76.3168286 165.80512,76.8113524 C164.94752,77.3026857 163.56192,77.3026857 162.70432,76.8113524 C161.85312,76.3168286 161.85312,75.516019 162.70432,75.0246857 C163.56192,74.5333524 164.94752,74.5333524 165.80512,75.0246857" id="Fill-82" fill="#16110D"></path>
                    <path d="M173.90496,70.363719 C174.75936,70.8550524 174.75936,71.6526714 173.90496,72.1471952 C173.04736,72.6385286 171.66176,72.6385286 170.80416,72.1471952 C169.95296,71.6526714 169.95296,70.8550524 170.80416,70.363719 C171.66176,69.8723857 173.04736,69.8723857 173.90496,70.363719" id="Fill-84" fill="#16110D"></path>
                    <path d="M68.608,121.651262 C69.4624,122.142595 69.4624,122.940214 68.608,123.434738 C67.7504,123.926071 66.3648,123.926071 65.5072,123.434738 C64.656,122.940214 64.656,122.142595 65.5072,121.651262 C66.3648,121.159929 67.7504,121.159929 68.608,121.651262" id="Fill-86" fill="#16110D"></path>
                    <path d="M76.70816,116.987105 C77.56256,117.478438 77.56256,118.279248 76.70816,118.773771 C75.85056,119.265105 74.46496,119.265105 73.60736,118.773771 C72.75616,118.279248 72.75616,117.478438 73.60736,116.987105 C74.46496,116.495771 75.85056,116.495771 76.70816,116.987105" id="Fill-88" fill="#16110D"></path>
                    <path d="M60.50816,116.987105 C61.36576,117.478438 61.36576,118.279248 60.50816,118.773771 C59.65056,119.265105 58.26496,119.265105 57.40736,118.773771 C56.55616,118.279248 56.55616,117.478438 57.40736,116.987105 C58.26496,116.495771 59.65056,116.495771 60.50816,116.987105" id="Fill-90" fill="#16110D"></path>
                    <path d="M68.608,112.325819 C69.4624,112.817152 69.4624,113.614771 68.608,114.109295 C67.7504,114.600629 66.3648,114.600629 65.5072,114.109295 C64.656,113.614771 64.656,112.817152 65.5072,112.325819 C66.3648,111.834486 67.7504,111.834486 68.608,112.325819" id="Fill-92" fill="#16110D"></path>
                    <path d="M52.408,112.325819 C53.2656,112.817152 53.2656,113.614771 52.408,114.109295 C51.5504,114.600629 50.1648,114.600629 49.3104,114.109295 C48.456,113.614771 48.456,112.817152 49.3104,112.325819 C50.1648,111.834486 51.5504,111.834486 52.408,112.325819" id="Fill-94" fill="#16110D"></path>
                    <path d="M60.50816,107.661662 C61.36576,108.152995 61.36576,108.953805 60.50816,109.448329 C59.65056,109.939662 58.26496,109.939662 57.40736,109.448329 C56.55616,108.953805 56.55616,108.152995 57.40736,107.661662 C58.26496,107.170329 59.65056,107.170329 60.50816,107.661662" id="Fill-96" fill="#16110D"></path>
                    <path d="M44.23616,107.615081 C45.09376,108.106414 45.09376,108.904033 44.23616,109.398557 C43.38176,109.88989 41.99616,109.88989 41.13856,109.398557 C40.28416,108.904033 40.28416,108.106414 41.13856,107.615081 C41.99616,107.123748 43.38176,107.123748 44.23616,107.615081" id="Fill-98" fill="#16110D"></path>
                    <path d="M52.33632,102.950924 C53.19392,103.442257 53.19392,104.243067 52.33632,104.73759 C51.48192,105.228924 50.09632,105.228924 49.23872,104.73759 C48.38432,104.243067 48.38432,103.442257 49.23872,102.950924 C50.09632,102.45959 51.48192,102.45959 52.33632,102.950924" id="Fill-100" fill="#16110D"></path>
                    <path d="M36.1392,102.950924 C36.9936,103.442257 36.9936,104.243067 36.1392,104.73759 C35.2816,105.228924 33.896,105.228924 33.0384,104.73759 C32.1872,104.243067 32.1872,103.442257 33.0384,102.950924 C33.896,102.45959 35.2816,102.45959 36.1392,102.950924" id="Fill-102" fill="#16110D"></path>
                    <path d="M44.23936,98.2896381 C45.09376,98.7809714 45.09376,99.5785905 44.23936,100.073114 C43.38176,100.564448 41.99616,100.564448 41.13856,100.073114 C40.28416,99.5785905 40.28416,98.7809714 41.13856,98.2896381 C41.99616,97.7983048 43.38176,97.7983048 44.23936,98.2896381" id="Fill-104" fill="#16110D"></path>
                    <path d="M28.03936,98.2896381 C28.89376,98.7809714 28.89376,99.5785905 28.03936,100.073114 C27.18176,100.564448 25.79616,100.564448 24.93856,100.073114 C24.08736,99.5785905 24.08736,98.7809714 24.93856,98.2896381 C25.79616,97.7983048 27.18176,97.7983048 28.03936,98.2896381" id="Fill-106" fill="#16110D"></path>
                    <path d="M36.1392,93.625481 C36.9936,94.1168143 36.9936,94.9176238 36.1392,95.4121476 C35.2816,95.903481 33.896,95.903481 33.0384,95.4121476 C32.1872,94.9176238 32.1872,94.1168143 33.0384,93.625481 C33.896,93.1341476 35.2816,93.1341476 36.1392,93.625481" id="Fill-108" fill="#16110D"></path>
                    <path d="M19.9392,93.625481 C20.7968,94.1168143 20.7968,94.9176238 19.9392,95.4121476 C19.0816,95.903481 17.696,95.903481 16.8384,95.4121476 C15.9872,94.9176238 15.9872,94.1168143 16.8384,93.625481 C17.696,93.1341476 19.0816,93.1341476 19.9392,93.625481" id="Fill-110" fill="#16110D"></path>
                    <path d="M28.03936,88.9645143 C28.89376,89.4558476 28.89376,90.2534667 28.03936,90.7479905 C27.18176,91.2393238 25.79616,91.2393238 24.93856,90.7479905 C24.08736,90.2534667 24.08736,89.4558476 24.93856,88.9645143 C25.79616,88.473181 27.18176,88.473181 28.03936,88.9645143" id="Fill-112" fill="#16110D"></path>
                    <path d="M11.83936,88.9645143 C12.69696,89.4558476 12.69696,90.2534667 11.83936,90.7479905 C10.98176,91.2393238 9.59616,91.2393238 8.74176,90.7479905 C7.88736,90.2534667 7.88736,89.4558476 8.74176,88.9645143 C9.59616,88.473181 10.98176,88.473181 11.83936,88.9645143" id="Fill-114" fill="#16110D"></path>
                    <path d="M19.9392,84.3032286 C20.7968,84.7945619 20.7968,85.592181 19.9392,86.0867048 C19.0816,86.5780381 17.696,86.5780381 16.8384,86.0867048 C15.9872,85.592181 15.9872,84.7945619 16.8384,84.3032286 C17.696,83.8087048 19.0816,83.8087048 19.9392,84.3032286" id="Fill-116" fill="#16110D"></path>
                    <path d="M3.7392,84.3032286 C4.5968,84.7945619 4.5968,85.592181 3.7392,86.0867048 C2.8816,86.5780381 1.496,86.5780381 0.6416,86.0867048 C-0.2128,85.592181 -0.2128,84.7945619 0.6416,84.3032286 C1.496,83.8087048 2.8816,83.8087048 3.7392,84.3032286" id="Fill-118" fill="#16110D"></path>
                    <path d="M11.83936,79.6390714 C12.69696,80.1304048 12.69696,80.9280238 11.83936,81.4225476 C10.98176,81.913881 9.59616,81.913881 8.74176,81.4225476 C7.88736,80.9280238 7.88736,80.1304048 8.74176,79.6390714 C9.59616,79.1477381 10.98176,79.1477381 11.83936,79.6390714" id="Fill-120" fill="#16110D"></path>
                    <path d="M3.7392,74.9781048 C4.5968,75.4694381 4.5968,76.2670571 3.7392,76.761581 C2.8816,77.2529143 1.4992,77.2529143 0.6416,76.761581 C-0.2128,76.2670571 -0.2128,75.4694381 0.6416,74.9781048 C1.4992,74.4867714 2.8816,74.4867714 3.7392,74.9781048" id="Fill-122" fill="#16110D"></path>
                    <path d="M178.96128,65.7461429 C179.81568,65.2548095 181.20128,65.251619 182.05888,65.7429524 C182.91328,66.2342857 182.91648,67.0319048 182.06528,67.5264286 C181.21088,68.0209524 179.82528,68.0209524 178.96768,67.529619 C178.10688,67.0382857 178.10688,66.2374762 178.96128,65.7461429" id="Fill-124" fill="#16110D"></path>
                    <path d="M190.16128,70.3420238 C191.01888,70.8333571 191.01888,71.6309762 190.16128,72.1255 C189.30368,72.6200238 187.91808,72.6200238 187.06368,72.1255 C186.20928,71.6309762 186.20928,70.8333571 187.06368,70.3420238 C187.91808,69.8506905 189.30368,69.8506905 190.16128,70.3420238" id="Fill-126" fill="#16110D"></path>
                    <path d="M187.11744,61.063481 C187.97504,60.5721476 189.35744,60.5689571 190.21824,61.0602905 C191.07264,61.5516238 191.07584,62.3492429 190.22144,62.8437667 C189.36704,63.3351 187.98144,63.3382905 187.12384,62.8469571 C186.26624,62.3524333 186.26304,61.5548143 187.11744,61.063481" id="Fill-128" fill="#16110D"></path>
                    <polygon id="Fill-130" fill="#15100C" points="147.76448 49.3949524 96.27968 19.972381 97.43808 19.1300952 148.92288 48.5462857"></polygon>
                    <polygon id="Fill-132" fill="#15100C" points="132.40192 58.6425476 80.91392 29.2199762 82.07552 28.3776905 133.56032 57.7970714"></polygon>
                    <polygon id="Fill-134" fill="#15100C" points="117.03616 67.8898238 65.55136 38.4704429 66.71296 37.6249667 118.19776 67.0443476"></polygon>
                    <polygon id="Fill-136" fill="#15100C" points="101.6736 77.1402905 50.1888 47.717719 51.3472 46.8754333 102.832 76.2916238"></polygon>
                    <polygon id="Fill-138" fill="#15100C" points="86.31136 86.3878857 34.82656 56.9653143 35.98496 56.1230286 87.46976 85.5424095"></polygon>
                </g>
                <g id="Group-6" transform="translate(183.000000, 0.000000)">
                    <path d="M27.2473,13.6238 C27.2473,20.5958 21.5953,26.2478 14.6233,26.2478 C7.6513,26.2478 2.0003,20.5958 2.0003,13.6238 C2.0003,6.6518 7.6513,0.9998 14.6233,0.9998 C21.5953,0.9998 27.2473,6.6518 27.2473,13.6238" id="Fill-1" fill="#0066FF"></path>
                    <circle id="Oval" stroke="#16110D" cx="13" cy="13" r="13"></circle>
                    <polyline id="Stroke-4" stroke="#FFFFFF" stroke-width="2" points="9.0427 14.8464 13.1257 18.8604 21.1717 8.9604"></polyline>
                </g>
            </g>
        </g>
    </g>
</svg>