<?xml version="1.0" encoding="utf-8"?>
<!-- Generator: Adobe Illustrator 16.0.4, SVG Export Plug-In . SVG Version: 6.00 Build 0)  -->
<!DOCTYPE svg PUBLIC "-//W3C//DTD SVG 1.1//EN" "http://www.w3.org/Graphics/SVG/1.1/DTD/svg11.dtd">
<svg version="1.1" id="Layer_1" xmlns="http://www.w3.org/2000/svg" xmlns:xlink="http://www.w3.org/1999/xlink" x="0px" y="0px"
	 width="24px" height="24px" viewBox="0 0 24 24" enable-background="new 0 0 24 24" xml:space="preserve">
<g>
	<rect y="0" fill="#29ACDF" width="24" height="24"/>
	<g>
		<path fill="#FFFFFF" d="M18.995,6.459l-2.371,11.962c0,0-0.332,0.829-1.246,0.432l-5.474-4.198l-1.992-0.962l-3.348-1.128
			c0,0-0.517-0.182-0.566-0.582c-0.049-0.396,0.579-0.612,0.579-0.612l13.322-5.226C17.899,6.145,18.995,5.663,18.995,6.459z"/>
		<path fill="#D2E5F1" d="M9.484,18.286c0,0-0.16-0.015-0.36-0.646c-0.199-0.631-1.212-3.948-1.212-3.948l8.047-5.109
			c0,0,0.466-0.282,0.45,0c0,0,0.08,0.051-0.168,0.281c-0.248,0.232-6.322,5.69-6.322,5.69"/>
		<path fill="#B5CFE4" d="M12.005,16.264l-2.166,1.974c0,0-0.171,0.13-0.354,0.049l0.414-3.668"/>
	</g>
</g>
</svg>
