<svg width="94" height="94" viewBox="0 0 94 94" fill="none" xmlns="http://www.w3.org/2000/svg">
<path fill-rule="evenodd" clip-rule="evenodd" d="M90.5093 6.58893C88.5815 6.58893 87.0185 5.11386 87.0185 3.29446C87.0185 1.47507 88.5815 0 90.5093 0C92.4371 0 94 1.47507 94 3.29446C94 5.11386 92.4371 6.58893 90.5093 6.58893Z" fill="#16110D"/>
<path fill-rule="evenodd" clip-rule="evenodd" d="M90.5093 28.4415C88.5815 28.4415 87.0185 26.9669 87.0185 25.147C87.0185 23.3276 88.5815 21.8525 90.5093 21.8525C92.4371 21.8525 94 23.3276 94 25.147C94 26.9669 92.4371 28.4415 90.5093 28.4415Z" fill="#16110D"/>
<path fill-rule="evenodd" clip-rule="evenodd" d="M90.5093 50.2942C88.5815 50.2942 87.0185 48.8197 87.0185 46.9998C87.0185 45.1804 88.5815 43.7053 90.5093 43.7053C92.4371 43.7053 94 45.1804 94 46.9998C94 48.8197 92.4371 50.2942 90.5093 50.2942Z" fill="#16110D"/>
<path fill-rule="evenodd" clip-rule="evenodd" d="M90.5093 72.1473C88.5815 72.1473 87.0185 70.6722 87.0185 68.8523C87.0185 67.0329 88.5815 65.5579 90.5093 65.5579C92.4371 65.5579 94 67.0329 94 68.8523C94 70.6722 92.4371 72.1473 90.5093 72.1473Z" fill="#16110D"/>
<path fill-rule="evenodd" clip-rule="evenodd" d="M90.5093 94.0001C88.5815 94.0001 87.0185 92.525 87.0185 90.7056C87.0185 88.8857 88.5815 87.4106 90.5093 87.4106C92.4371 87.4106 94 88.8857 94 90.7056C94 92.525 92.4371 94.0001 90.5093 94.0001Z" fill="#16110D"/>
<path fill-rule="evenodd" clip-rule="evenodd" d="M68.7548 6.58892C66.8265 6.58892 65.2641 5.11385 65.2641 3.29446C65.2641 1.47506 66.8265 0 68.7548 0C70.6826 0 72.2455 1.47506 72.2455 3.29446C72.2455 5.11385 70.6826 6.58892 68.7548 6.58892Z" fill="#16110D"/>
<path fill-rule="evenodd" clip-rule="evenodd" d="M68.7548 28.4415C66.8265 28.4415 65.2641 26.9669 65.2641 25.147C65.2641 23.3276 66.8265 21.8525 68.7548 21.8525C70.6826 21.8525 72.2455 23.3276 72.2455 25.147C72.2455 26.9669 70.6826 28.4415 68.7548 28.4415Z" fill="#16110D"/>
<path fill-rule="evenodd" clip-rule="evenodd" d="M68.7548 50.2942C66.8265 50.2942 65.2641 48.8197 65.2641 46.9998C65.2641 45.1804 66.8265 43.7053 68.7548 43.7053C70.6826 43.7053 72.2455 45.1804 72.2455 46.9998C72.2455 48.8197 70.6826 50.2942 68.7548 50.2942Z" fill="#16110D"/>
<path fill-rule="evenodd" clip-rule="evenodd" d="M68.7548 72.1473C66.8265 72.1473 65.2641 70.6722 65.2641 68.8523C65.2641 67.0329 66.8265 65.5579 68.7548 65.5579C70.6826 65.5579 72.2455 67.0329 72.2455 68.8523C72.2455 70.6722 70.6826 72.1473 68.7548 72.1473Z" fill="#16110D"/>
<path fill-rule="evenodd" clip-rule="evenodd" d="M68.7548 94.0001C66.8265 94.0001 65.2641 92.525 65.2641 90.7056C65.2641 88.8857 66.8265 87.4106 68.7548 87.4106C70.6826 87.4106 72.2455 88.8857 72.2455 90.7056C72.2455 92.525 70.6826 94.0001 68.7548 94.0001Z" fill="#16110D"/>
<path fill-rule="evenodd" clip-rule="evenodd" d="M47.0003 6.58892C45.072 6.58892 43.5096 5.11386 43.5096 3.29446C43.5096 1.47506 45.072 0 47.0003 0C48.9281 0 50.491 1.47506 50.491 3.29446C50.491 5.11386 48.9281 6.58892 47.0003 6.58892Z" fill="#16110D"/>
<path fill-rule="evenodd" clip-rule="evenodd" d="M47.0003 28.4415C45.072 28.4415 43.5096 26.9669 43.5096 25.147C43.5096 23.3276 45.072 21.8525 47.0003 21.8525C48.9281 21.8525 50.491 23.3276 50.491 25.147C50.491 26.9669 48.9281 28.4415 47.0003 28.4415Z" fill="#16110D"/>
<path fill-rule="evenodd" clip-rule="evenodd" d="M47.0003 50.2942C45.072 50.2942 43.5096 48.8197 43.5096 46.9998C43.5096 45.1804 45.072 43.7053 47.0003 43.7053C48.9281 43.7053 50.491 45.1804 50.491 46.9998C50.491 48.8197 48.9281 50.2942 47.0003 50.2942Z" fill="#16110D"/>
<path fill-rule="evenodd" clip-rule="evenodd" d="M47.0003 72.1473C45.072 72.1473 43.5096 70.6722 43.5096 68.8523C43.5096 67.0329 45.072 65.5579 47.0003 65.5579C48.9281 65.5579 50.491 67.0329 50.491 68.8523C50.491 70.6722 48.9281 72.1473 47.0003 72.1473Z" fill="#16110D"/>
<path fill-rule="evenodd" clip-rule="evenodd" d="M47.0003 94.0001C45.072 94.0001 43.5096 92.525 43.5096 90.7056C43.5096 88.8857 45.072 87.4106 47.0003 87.4106C48.9281 87.4106 50.491 88.8857 50.491 90.7056C50.491 92.525 48.9281 94.0001 47.0003 94.0001Z" fill="#16110D"/>
<path fill-rule="evenodd" clip-rule="evenodd" d="M25.2458 6.58892C23.3174 6.58892 21.755 5.11386 21.755 3.29446C21.755 1.47506 23.3174 0 25.2458 0C27.1735 0 28.7365 1.47506 28.7365 3.29446C28.7365 5.11386 27.1735 6.58892 25.2458 6.58892Z" fill="#16110D"/>
<path fill-rule="evenodd" clip-rule="evenodd" d="M25.2457 28.4415C23.3174 28.4415 21.755 26.9669 21.755 25.147C21.755 23.3276 23.3174 21.8525 25.2457 21.8525C27.1735 21.8525 28.7365 23.3276 28.7365 25.147C28.7365 26.9669 27.1735 28.4415 25.2457 28.4415Z" fill="#16110D"/>
<path fill-rule="evenodd" clip-rule="evenodd" d="M25.2458 50.2942C23.3174 50.2942 21.755 48.8197 21.755 46.9998C21.755 45.1804 23.3174 43.7053 25.2458 43.7053C27.1735 43.7053 28.7365 45.1804 28.7365 46.9998C28.7365 48.8197 27.1735 50.2942 25.2458 50.2942Z" fill="#16110D"/>
<path fill-rule="evenodd" clip-rule="evenodd" d="M25.2458 72.1473C23.3174 72.1473 21.755 70.6722 21.755 68.8523C21.755 67.0329 23.3174 65.5579 25.2458 65.5579C27.1735 65.5579 28.7365 67.0329 28.7365 68.8523C28.7365 70.6722 27.1735 72.1473 25.2458 72.1473Z" fill="#16110D"/>
<path fill-rule="evenodd" clip-rule="evenodd" d="M25.2458 94.0001C23.3174 94.0001 21.755 92.525 21.755 90.7056C21.755 88.8857 23.3174 87.4106 25.2458 87.4106C27.1735 87.4106 28.7365 88.8857 28.7365 90.7056C28.7365 92.525 27.1735 94.0001 25.2458 94.0001Z" fill="#16110D"/>
<path fill-rule="evenodd" clip-rule="evenodd" d="M3.49126 6.58892C1.56294 6.58892 -1.28897e-06 5.11386 -1.28897e-06 3.29446C-1.28897e-06 1.47506 1.56294 0 3.49126 0C5.41905 0 6.98199 1.47506 6.98199 3.29446C6.98199 5.11386 5.41905 6.58892 3.49126 6.58892Z" fill="#16110D"/>
<path fill-rule="evenodd" clip-rule="evenodd" d="M3.49126 28.4415C1.56294 28.4415 -2.6458e-06 26.9669 -2.6458e-06 25.147C-2.6458e-06 23.3276 1.56294 21.8525 3.49126 21.8525C5.41905 21.8525 6.98199 23.3276 6.98199 25.147C6.98199 26.9669 5.41905 28.4415 3.49126 28.4415Z" fill="#16110D"/>
<path fill-rule="evenodd" clip-rule="evenodd" d="M3.49126 50.2942C1.56294 50.2942 -5.94446e-06 48.8197 -5.94446e-06 46.9998C-5.94446e-06 45.1804 1.56294 43.7053 3.49126 43.7053C5.41905 43.7053 6.98199 45.1804 6.98199 46.9998C6.98199 48.8197 5.41905 50.2942 3.49126 50.2942Z" fill="#16110D"/>
<path fill-rule="evenodd" clip-rule="evenodd" d="M3.49127 72.1473C1.56294 72.1473 6.78547e-08 70.6722 6.78547e-08 68.8523C6.78547e-08 67.0329 1.56294 65.5579 3.49127 65.5579C5.41905 65.5579 6.98199 67.0329 6.98199 68.8523C6.98199 70.6722 5.41905 72.1473 3.49127 72.1473Z" fill="#16110D"/>
<path fill-rule="evenodd" clip-rule="evenodd" d="M3.49126 94.0001C1.56294 94.0001 -5.94446e-06 92.525 -5.94446e-06 90.7056C-5.94446e-06 88.8857 1.56294 87.4106 3.49126 87.4106C5.41905 87.4106 6.98199 88.8857 6.98199 90.7056C6.98199 92.525 5.41905 94.0001 3.49126 94.0001Z" fill="#16110D"/>
</svg>
