<svg width="1158" height="3228" viewBox="0 0 1158 3228" fill="none" xmlns="http://www.w3.org/2000/svg">
<path d="M1026.5 0.5C1026.5 0.5 1042.5 291.5 991.5 379.5C940.5 467.5 777 598.5 662.5 667.5C548 736.5 336 808.5 243.5 869C151 929.5 92.5 1002.5 51.5 1094.5C10.5 1186.5 -5.50002 1320.5 4.49998 1426.5C14.5 1532.5 22 1656 88 1742C154 1828 429.5 1989.5 519.5 2031.5C609.5 2073.5 871 2185.5 931 2215.5C991 2245.5 1139 2328 1152.5 2470.5C1166 2613 1146.5 2708.5 1057 2825.5C967.5 2942.5 740 3047 677 3077.5C614 3108 259 3227 259 3227" stroke="#0066FF" stroke-opacity="0.25" stroke-width="2" stroke-dasharray="12 30"/>
</svg>
