
<svg width="564px" height="381px" viewBox="0 0 564 381" version="1.1" xmlns="http://www.w3.org/2000/svg" xmlns:xlink="http://www.w3.org/1999/xlink">
    <defs>
        <rect id="path-1" x="370" y="1071" width="104" height="104" rx="52"></rect>
        <filter x="-62.5%" y="-52.9%" width="225.0%" height="225.0%" filterUnits="objectBoundingBox" id="filter-2">
            <feOffset dx="0" dy="10" in="SourceAlpha" result="shadowOffsetOuter1"></feOffset>
            <feGaussianBlur stdDeviation="20" in="shadowOffsetOuter1" result="shadowBlurOuter1"></feGaussianBlur>
            <feColorMatrix values="0 0 0 0 0   0 0 0 0 0.0705882353   0 0 0 0 0.17254902  0 0 0 0.0489237325 0" type="matrix" in="shadowBlurOuter1"></feColorMatrix>
        </filter>
        <circle id="path-3" cx="600" cy="1231" r="36"></circle>
        <filter x="-90.3%" y="-76.4%" width="280.6%" height="280.6%" filterUnits="objectBoundingBox" id="filter-4">
            <feOffset dx="0" dy="10" in="SourceAlpha" result="shadowOffsetOuter1"></feOffset>
            <feGaussianBlur stdDeviation="20" in="shadowOffsetOuter1" result="shadowBlurOuter1"></feGaussianBlur>
            <feColorMatrix values="0 0 0 0 0   0 0 0 0 0.0705882353   0 0 0 0 0.17254902  0 0 0 0.0489237325 0" type="matrix" in="shadowBlurOuter1"></feColorMatrix>
        </filter>
        <circle id="path-5" cx="500" cy="998" r="36"></circle>
        <filter x="-90.3%" y="-76.4%" width="280.6%" height="280.6%" filterUnits="objectBoundingBox" id="filter-6">
            <feOffset dx="0" dy="10" in="SourceAlpha" result="shadowOffsetOuter1"></feOffset>
            <feGaussianBlur stdDeviation="20" in="shadowOffsetOuter1" result="shadowBlurOuter1"></feGaussianBlur>
            <feColorMatrix values="0 0 0 0 0   0 0 0 0 0.0705882353   0 0 0 0 0.17254902  0 0 0 0.0489237325 0" type="matrix" in="shadowBlurOuter1"></feColorMatrix>
        </filter>
        <circle id="path-7" cx="241" cy="1178" r="36"></circle>
        <filter x="-90.3%" y="-76.4%" width="280.6%" height="280.6%" filterUnits="objectBoundingBox" id="filter-8">
            <feOffset dx="0" dy="10" in="SourceAlpha" result="shadowOffsetOuter1"></feOffset>
            <feGaussianBlur stdDeviation="20" in="shadowOffsetOuter1" result="shadowBlurOuter1"></feGaussianBlur>
            <feColorMatrix values="0 0 0 0 0   0 0 0 0 0.0705882353   0 0 0 0 0.17254902  0 0 0 0.0549879808 0" type="matrix" in="shadowBlurOuter1"></feColorMatrix>
        </filter>
    </defs>
    <g id="Page-1" stroke="none" stroke-width="1" fill="none" fill-rule="evenodd">
        <g id="Design" transform="translate(-136.000000, -934.000000)">
            <path d="M631,1119.79421 C630.148818,1115.90356 629.031281,1109.71234 627.412878,1103.65003 C624.700099,1093.47934 618.808417,1085.09354 611.254905,1077.89384 C604.697333,1071.64531 597.242256,1066.88371 588.46698,1063.80385 C582.812703,1061.81842 577.164216,1060.63804 571.344914,1060.17392 C562.309072,1059.45194 553.594594,1061.01909 545.019085,1064.10754 C538.788668,1066.35369 533.342843,1069.69426 528.299448,1073.7081 C522.106668,1078.63587 516.148397,1083.8616 510.207497,1089.08732 C498.783136,1099.13768 487.434049,1109.27399 476.070486,1119.39311 C474.07571,1121.16654 472.700502,1122.30967 475.922832,1125.01421 C486.663932,1134.03031 496.915748,1143.61654 507.373121,1152.96785 C514.356284,1159.21351 521.070195,1165.80297 528.429731,1171.57877 C541.515923,1181.84974 556.457922,1186.36209 573.325213,1184.6431 C585.453103,1183.40829 596.202888,1179.30563 605.791709,1171.89679 C622.15524,1159.25075 629.827454,1142.41325 631,1119.79421 M367,1123.02735 C366.556081,1122.38034 366.227465,1121.62405 365.668242,1121.12657 C356.86192,1113.3135 348.000829,1105.56083 339.200272,1097.73914 C331.376915,1090.78877 323.518966,1083.87003 315.845503,1076.75862 C308.062502,1069.54656 298.988099,1064.54298 288.829841,1062.02682 C276.552877,1058.98441 263.984771,1059.2691 252.056601,1063.54802 C239.312657,1068.1145 228.661475,1076.1116 221.048547,1087.40417 C212.357529,1100.30132 208.515032,1114.52702 210.521317,1130.22503 C212.028913,1142.00645 216.188495,1152.51971 223.663059,1161.76771 C236.706793,1177.91144 254.019647,1185.38518 274.373636,1185.98331 C283.476865,1186.25074 292.136175,1183.26872 300.443808,1179.61668 C307.716591,1176.42187 313.58555,1171.23713 319.368032,1165.94886 C327.96969,1158.08116 336.57423,1150.21922 345.230657,1142.41478 C352.405431,1135.94751 359.65227,1129.56651 367,1123.02735 M419.848044,1169.86343 C407.638035,1180.75152 395.575309,1191.48467 383.54435,1202.24938 C375.143471,1209.76058 367.066037,1217.66197 358.312835,1224.73994 C351.942145,1229.89564 344.806163,1234.15619 337.8088,1238.49708 C333.895706,1240.92717 329.734253,1243.13635 325.40819,1244.68564 C317.980531,1247.34526 310.443132,1249.86716 302.758451,1251.59147 C295.810182,1253.14937 288.625106,1253.94984 281.500676,1254.37446 C273.749573,1254.83638 265.908945,1254.96835 258.186721,1254.32568 C251.792927,1253.79204 245.410685,1252.28865 239.213269,1250.54713 C232.201466,1248.57896 225.261861,1246.19477 218.553287,1243.37448 C213.236677,1241.14235 208.055799,1238.3651 203.279225,1235.14315 C196.099924,1230.29731 188.932176,1225.29654 182.471961,1219.56702 C172.797521,1210.98854 164.873145,1200.8292 158.300302,1189.67429 C151.144105,1177.52956 146.029648,1164.57289 143.167746,1150.81288 C141.908625,1144.75629 141.35415,1138.53904 140.733253,1132.37056 C140.276966,1127.84032 139.823567,1123.24695 140.069038,1118.71958 C140.91519,1103.07746 143.704894,1087.81693 149.697271,1073.20481 C154.361217,1061.83473 160.255405,1051.1274 167.925647,1041.58204 C176.141701,1031.35671 185.576445,1022.32778 196.391602,1014.60714 C206.551207,1007.35416 217.528085,1001.67342 229.062327,997.467376 C237.902165,994.245422 247.54195,992.93713 256.942039,991.577196 C264.516981,990.481215 272.294075,989.973392 279.93255,990.300465 C289.664747,990.716478 299.313195,992.23708 308.771043,994.933996 C318.618755,997.742805 328.053499,1001.33774 337.023293,1006.28687 C348.378485,1012.55289 358.526539,1020.34239 368.111454,1029.00408 C383.059184,1042.50874 398.211955,1055.78962 413.260762,1069.18526 C415.501766,1071.17926 417.635919,1073.28802 419.663219,1075.19594 C428.26625,1067.83393 436.851954,1060.72727 445.151756,1053.30788 C452.487003,1046.75208 459.299541,1039.61673 466.715648,1033.16422 C474.729549,1026.18953 482.847415,1019.24067 491.53997,1013.15539 C498.941638,1007.97387 507.131701,1003.85964 515.165817,999.630647 C517.938194,998.173164 521.455647,998.15595 524.343539,996.847659 C529.608167,994.460601 535.323306,994.165088 540.752543,992.69326 C553.413063,989.264734 566.272847,990.013559 579.086426,990.197178 C583.637744,990.260298 588.174623,991.763685 592.702838,992.684653 C597.228165,993.602752 601.822802,994.317148 606.221062,995.662737 C611.381725,997.24072 616.539501,999.03962 621.37672,1001.39225 C628.004433,1004.61133 634.479088,1008.2034 640.734263,1012.0881 C645.066101,1014.77928 649.002298,1018.13321 652.967374,1021.36951 C661.157437,1028.04868 668.712163,1035.48815 674.401311,1044.3306 C680.243517,1053.41117 685.877795,1062.81595 690.02192,1072.72855 C693.94079,1082.10464 696.591875,1092.18938 698.347714,1102.21101 C700.097777,1112.18673 700.38079,1122.38623 699.557741,1132.67468 C698.506548,1145.76046 695.540683,1158.24661 691.021131,1170.45446 C686.195463,1183.48573 678.946853,1195.10542 670.268737,1205.97629 C660.64628,1218.02921 649.071608,1227.73811 635.989455,1235.78008 C622.849546,1243.85935 608.74508,1249.78109 593.49412,1252.28004 C583.620416,1253.89819 573.509906,1255.2237 563.549565,1254.96835 C541.399431,1254.39741 520.436221,1248.8343 501.070015,1237.68514 C490.647612,1231.68593 481.365926,1224.39278 472.554966,1216.27334 C461.554985,1206.13696 450.029407,1196.56577 438.801281,1186.67039 C433.36338,1181.87619 428.104528,1176.88689 422.733049,1172.0181 C421.820475,1171.19181 420.754842,1170.53479 419.848044,1169.86343" id="Fill-1" fill="#F2F7FF"></path>
            <g id="Group-5" transform="translate(135.000000, 960.000000)" fill="#15100C">
                <path d="M89.0745704,3.27162994 C89.0745704,5.07827966 87.6140133,6.54300847 85.8125092,6.54300847 C84.011005,6.54300847 82.5504479,5.07827966 82.5504479,3.27162994 C82.5504479,1.46498023 84.011005,0.000251412429 85.8125092,0.000251412429 C87.6140133,0.000251412429 89.0745704,1.46498023 89.0745704,3.27162994" id="Fill-10" transform="translate(85.812509, 3.271630) rotate(-270.000000) translate(-85.812509, -3.271630) "></path>
                <path d="M89.0745704,24.9093848 C89.0745704,26.7160345 87.6145147,28.1807633 85.8125092,28.1807633 C84.011005,28.1807633 82.5504479,26.7160345 82.5504479,24.9093848 C82.5504479,23.1027351 84.011005,21.6380063 85.8125092,21.6380063 C87.6145147,21.6380063 89.0745704,23.1027351 89.0745704,24.9093848" id="Fill-12" transform="translate(85.812509, 24.909385) rotate(-270.000000) translate(-85.812509, -24.909385) "></path>
                <path d="M89.0745704,46.5471397 C89.0745704,48.3537894 87.6145147,49.8185182 85.8125092,49.8185182 C84.011005,49.8185182 82.5504479,48.3537894 82.5504479,46.5471397 C82.5504479,44.74049 84.011005,43.2757612 85.8125092,43.2757612 C87.6145147,43.2757612 89.0745704,44.74049 89.0745704,46.5471397" id="Fill-14" transform="translate(85.812509, 46.547140) rotate(-270.000000) translate(-85.812509, -46.547140) "></path>
                <path d="M89.0748211,68.1850951 C89.0748211,69.9917448 87.614264,71.4564737 85.8122585,71.4564737 C84.0107543,71.4564737 82.5501972,69.9917448 82.5501972,68.1850951 C82.5501972,66.3784454 84.0107543,64.9137166 85.8122585,64.9137166 C87.614264,64.9137166 89.0748211,66.3784454 89.0748211,68.1850951" id="Fill-16" transform="translate(85.812509, 68.185095) rotate(-270.000000) translate(-85.812509, -68.185095) "></path>
                <path d="M89.0748211,89.82285 C89.0748211,91.6294997 87.614264,93.0942285 85.8127598,93.0942285 C84.0107543,93.0942285 82.5501972,91.6294997 82.5501972,89.82285 C82.5501972,88.0162003 84.0107543,86.5514715 85.8127598,86.5514715 C87.614264,86.5514715 89.0748211,88.0162003 89.0748211,89.82285" id="Fill-18" transform="translate(85.812509, 89.822850) rotate(-270.000000) translate(-85.812509, -89.822850) "></path>
                <path d="M68.687084,3.27162994 C68.687084,5.07878249 67.2265269,6.54300847 65.4250227,6.54300847 C63.6235185,6.54300847 62.1629614,5.07878249 62.1629614,3.27162994 C62.1629614,1.46498023 63.6235185,0.000251412429 65.4250227,0.000251412429 C67.2265269,0.000251412429 68.687084,1.46498023 68.687084,3.27162994" id="Fill-29" transform="translate(65.425023, 3.271630) rotate(-270.000000) translate(-65.425023, -3.271630) "></path>
                <path d="M68.687084,24.9093848 C68.687084,26.7165374 67.2270283,28.1807633 65.4250227,28.1807633 C63.6235185,28.1807633 62.1629614,26.7165374 62.1629614,24.9093848 C62.1629614,23.1027351 63.6235185,21.6380063 65.4250227,21.6380063 C67.2270283,21.6380063 68.687084,23.1027351 68.687084,24.9093848" id="Fill-31" transform="translate(65.425023, 24.909385) rotate(-270.000000) translate(-65.425023, -24.909385) "></path>
                <path d="M68.687084,46.5471397 C68.687084,48.3542922 67.2270283,49.8185182 65.4250227,49.8185182 C63.6235185,49.8185182 62.1629614,48.3542922 62.1629614,46.5471397 C62.1629614,44.74049 63.6235185,43.2757612 65.4250227,43.2757612 C67.2270283,43.2757612 68.687084,44.74049 68.687084,46.5471397" id="Fill-33" transform="translate(65.425023, 46.547140) rotate(-270.000000) translate(-65.425023, -46.547140) "></path>
                <path d="M68.6873347,68.1850951 C68.6873347,69.9922477 67.2267776,71.4564737 65.424772,71.4564737 C63.6232678,71.4564737 62.1627107,69.9922477 62.1627107,68.1850951 C62.1627107,66.3784454 63.6232678,64.9137166 65.424772,64.9137166 C67.2267776,64.9137166 68.6873347,66.3784454 68.6873347,68.1850951" id="Fill-35" transform="translate(65.425023, 68.185095) rotate(-270.000000) translate(-65.425023, -68.185095) "></path>
                <path d="M68.6873347,89.82285 C68.6873347,91.6300025 67.2267776,93.0942285 65.4252734,93.0942285 C63.6232678,93.0942285 62.1627107,91.6300025 62.1627107,89.82285 C62.1627107,88.0162003 63.6232678,86.5514715 65.4252734,86.5514715 C67.2267776,86.5514715 68.6873347,88.0162003 68.6873347,89.82285" id="Fill-37" transform="translate(65.425023, 89.822850) rotate(-270.000000) translate(-65.425023, -89.822850) "></path>
                <path d="M48.2995976,3.27162994 C48.2995976,5.07878249 46.8390404,6.54300847 45.0375363,6.54300847 C43.2360321,6.54300847 41.775475,5.07878249 41.775475,3.27162994 C41.775475,1.46498023 43.2360321,0.000251412429 45.0375363,0.000251412429 C46.8390404,0.000251412429 48.2995976,1.46498023 48.2995976,3.27162994" id="Fill-48" transform="translate(45.037536, 3.271630) rotate(-270.000000) translate(-45.037536, -3.271630) "></path>
                <path d="M48.2995976,24.9093848 C48.2995976,26.7165374 46.8395418,28.1807633 45.0375363,28.1807633 C43.2360321,28.1807633 41.775475,26.7165374 41.775475,24.9093848 C41.775475,23.1027351 43.2360321,21.6380063 45.0375363,21.6380063 C46.8395418,21.6380063 48.2995976,23.1027351 48.2995976,24.9093848" id="Fill-50" transform="translate(45.037536, 24.909385) rotate(-270.000000) translate(-45.037536, -24.909385) "></path>
                <path d="M48.2995976,46.5471397 C48.2995976,48.3542922 46.8395418,49.8185182 45.0375363,49.8185182 C43.2360321,49.8185182 41.775475,48.3542922 41.775475,46.5471397 C41.775475,44.74049 43.2360321,43.2757612 45.0375363,43.2757612 C46.8395418,43.2757612 48.2995976,44.74049 48.2995976,46.5471397" id="Fill-52" transform="translate(45.037536, 46.547140) rotate(-270.000000) translate(-45.037536, -46.547140) "></path>
                <path d="M48.2998482,68.1850951 C48.2998482,69.9922477 46.8392911,71.4564737 45.0372856,71.4564737 C43.2357814,71.4564737 41.7752243,69.9922477 41.7752243,68.1850951 C41.7752243,66.3784454 43.2357814,64.9137166 45.0372856,64.9137166 C46.8392911,64.9137166 48.2998482,66.3784454 48.2998482,68.1850951" id="Fill-54" transform="translate(45.037536, 68.185095) rotate(-270.000000) translate(-45.037536, -68.185095) "></path>
                <path d="M48.2998482,89.82285 C48.2998482,91.6300025 46.8392911,93.0942285 45.037787,93.0942285 C43.2357814,93.0942285 41.7752243,91.6300025 41.7752243,89.82285 C41.7752243,88.0162003 43.2357814,86.5514715 45.037787,86.5514715 C46.8392911,86.5514715 48.2998482,88.0162003 48.2998482,89.82285" id="Fill-56" transform="translate(45.037536, 89.822850) rotate(-270.000000) translate(-45.037536, -89.822850) "></path>
                <path d="M27.9121111,3.27162994 C27.9121111,5.07878249 26.451554,6.54300847 24.6500498,6.54300847 C22.8485457,6.54300847 21.3879885,5.07878249 21.3879885,3.27162994 C21.3879885,1.46498023 22.8485457,0.000251412429 24.6500498,0.000251412429 C26.451554,0.000251412429 27.9121111,1.46498023 27.9121111,3.27162994" id="Fill-67" transform="translate(24.650050, 3.271630) rotate(-270.000000) translate(-24.650050, -3.271630) "></path>
                <path d="M27.9121111,24.9093848 C27.9121111,26.7165374 26.4520554,28.1807633 24.6500498,28.1807633 C22.8485457,28.1807633 21.3879885,26.7165374 21.3879885,24.9093848 C21.3879885,23.1027351 22.8485457,21.6380063 24.6500498,21.6380063 C26.4520554,21.6380063 27.9121111,23.1027351 27.9121111,24.9093848" id="Fill-69" transform="translate(24.650050, 24.909385) rotate(-270.000000) translate(-24.650050, -24.909385) "></path>
                <path d="M27.9121111,46.5471397 C27.9121111,48.3542922 26.4520554,49.8185182 24.6500498,49.8185182 C22.8485457,49.8185182 21.3879885,48.3542922 21.3879885,46.5471397 C21.3879885,44.74049 22.8485457,43.2757612 24.6500498,43.2757612 C26.4520554,43.2757612 27.9121111,44.74049 27.9121111,46.5471397" id="Fill-71" transform="translate(24.650050, 46.547140) rotate(-270.000000) translate(-24.650050, -46.547140) "></path>
                <path d="M27.9123618,68.1850951 C27.9123618,69.9922477 26.4518047,71.4564737 24.6497991,71.4564737 C22.848295,71.4564737 21.3877379,69.9922477 21.3877379,68.1850951 C21.3877379,66.3784454 22.848295,64.9137166 24.6497991,64.9137166 C26.4518047,64.9137166 27.9123618,66.3784454 27.9123618,68.1850951" id="Fill-73" transform="translate(24.650050, 68.185095) rotate(-270.000000) translate(-24.650050, -68.185095) "></path>
                <path d="M27.9123618,89.82285 C27.9123618,91.6300025 26.4518047,93.0942285 24.6503005,93.0942285 C22.848295,93.0942285 21.3877379,91.6300025 21.3877379,89.82285 C21.3877379,88.0162003 22.848295,86.5514715 24.6503005,86.5514715 C26.4518047,86.5514715 27.9123618,88.0162003 27.9123618,89.82285" id="Fill-75" transform="translate(24.650050, 89.822850) rotate(-270.000000) translate(-24.650050, -89.822850) "></path>
                <path d="M7.52437326,3.27137853 C7.52437326,5.07853107 6.06381616,6.54325989 4.26231198,6.54325989 C2.4608078,6.54325989 1.0002507,5.07853107 1.0002507,3.27137853 C1.0002507,1.46472881 2.4608078,0 4.26231198,0 C6.06381616,0 7.52437326,1.46472881 7.52437326,3.27137853" id="Fill-89" transform="translate(4.262312, 3.271630) rotate(-270.000000) translate(-4.262312, -3.271630) "></path>
                <path d="M7.52437326,24.9091334 C7.52437326,26.7162859 6.06431755,28.1810148 4.26231198,28.1810148 C2.4608078,28.1810148 1.0002507,26.7162859 1.0002507,24.9091334 C1.0002507,23.1024837 2.4608078,21.6377549 4.26231198,21.6377549 C6.06431755,21.6377549 7.52437326,23.1024837 7.52437326,24.9091334" id="Fill-92" transform="translate(4.262312, 24.909385) rotate(-270.000000) translate(-4.262312, -24.909385) "></path>
                <path d="M7.52437326,46.5468883 C7.52437326,48.3540408 6.06431755,49.8187696 4.26231198,49.8187696 C2.4608078,49.8187696 1.0002507,48.3540408 1.0002507,46.5468883 C1.0002507,44.7402386 2.4608078,43.2755097 4.26231198,43.2755097 C6.06431755,43.2755097 7.52437326,44.7402386 7.52437326,46.5468883" id="Fill-95" transform="translate(4.262312, 46.547140) rotate(-270.000000) translate(-4.262312, -46.547140) "></path>
                <path d="M7.52462396,68.1848437 C7.52462396,69.9919963 6.06406685,71.4567251 4.26206128,71.4567251 C2.4605571,71.4567251 1,69.9919963 1,68.1848437 C1,66.378194 2.4605571,64.9134652 4.26206128,64.9134652 C6.06406685,64.9134652 7.52462396,66.378194 7.52462396,68.1848437" id="Fill-98" transform="translate(4.262312, 68.185095) rotate(-270.000000) translate(-4.262312, -68.185095) "></path>
                <path d="M7.52462396,89.8225986 C7.52462396,91.6297511 6.06406685,93.0944799 4.26256267,93.0944799 C2.4605571,93.0944799 1,91.6297511 1,89.8225986 C1,88.0159489 2.4605571,86.5512201 4.26256267,86.5512201 C6.06406685,86.5512201 7.52462396,88.0159489 7.52462396,89.8225986" id="Fill-101" transform="translate(4.262312, 89.822850) rotate(-270.000000) translate(-4.262312, -89.822850) "></path>
            </g>
            <g id="Rectangle-Copy-15">
                <use fill="black" fill-opacity="1" filter="url(#filter-2)" xlink:href="#path-1"></use>
                <use fill="#0066FF" fill-rule="evenodd" xlink:href="#path-1"></use>
            </g>
            <path d="M441.975913,1129.68386 L445.987581,1129.68386 L446.985997,1130.67935 L446.985997,1146.00431 L445.987581,1147 L398.998216,1147 L398,1146.00431 L398,1130.67935 L398.998216,1129.68386 L403.009884,1129.68386 L398.003801,1121.13553 L398.079017,1120.02033 L413.048855,1100.90238 L414.40935,1100.75253 L414.434555,1100.7188 L421.16041,1105.7511 L419.962551,1107.344 L416.325364,1104.62273 L405.8577,1130.59833 L413.691995,1143.97643 L416.010896,1139.71833 C412.082446,1134.02557 411.795784,1130.10588 411.782782,1129.88519 L412.015832,1129.18542 C412.803002,1128.25299 413.574369,1127.42092 414.31973,1126.67506 L414.31973,1119.26828 L415.318146,1118.27299 L429.668051,1118.27299 L430.666267,1119.26828 L430.666267,1126.44359 C431.483043,1127.24673 432.333627,1128.15581 433.203015,1129.18542 L433.436066,1129.88519 C433.423063,1130.10847 433.129399,1134.11216 429.077123,1139.90629 L431.293802,1143.97623 L439.320739,1130.2697 L427.420164,1094.79677 L424.155858,1096.5928 L423.19165,1094.84905 L430.188163,1091 L431.550258,1091.40187 L447,1120.163 L446.981996,1121.13553 L441.975913,1129.68386 Z M438.527367,1121.62899 L440.659428,1127.98421 L444.380833,1121.62899 L438.527367,1121.62899 Z M438.138883,1107.88394 L438.138883,1119.63782 L444.452649,1119.63782 L438.138883,1107.88394 Z M436.142451,1114.52032 L436.142451,1105.02699 L432.957562,1105.02699 L436.142451,1114.52032 Z M429.197349,1093.81925 L432.289418,1103.03562 L435.53452,1103.03562 L430.26758,1093.23081 L429.471408,1093.6684 L429.197349,1093.81925 Z M424.849008,1145.00883 L429.584032,1145.00883 L427.796046,1141.72566 L427.205318,1142.36637 C426.502366,1143.22019 425.719396,1144.10294 424.849008,1145.00883 Z M422.531507,1142.01559 L422.611724,1122.86811 C422.611524,1122.86811 422.611524,1122.86831 422.611524,1122.86831 C422.101614,1123.16322 421.369055,1123.62136 420.507869,1124.22056 C420.588687,1126.58506 420.967769,1134.63615 422.531507,1142.01559 Z M417.129938,1126.84885 C417.201954,1128.36313 417.653252,1133.80029 420.460859,1139.71913 C419.44844,1133.9226 419.08016,1128.18095 418.952133,1125.35991 C418.365606,1125.81106 417.751873,1126.30891 417.129938,1126.84885 Z M415.401965,1145.00883 L420.32883,1145.00883 L419.952749,1144.56945 C418.957534,1143.50752 418.083545,1142.47991 417.315779,1141.4946 L415.401965,1145.00883 Z M413.825624,1130.13721 C414.003662,1131.20552 415.389762,1135.23156 418.833707,1140.02721 C416.564816,1135.11962 415.847061,1130.63026 415.620612,1128.23583 C415.007279,1128.83364 414.402348,1129.46856 413.825624,1130.13721 Z M416.316162,1120.26396 L416.316162,1124.81917 C417.22836,1124.03599 418.071942,1123.39668 418.821504,1122.87848 C421.030382,1121.24747 421.929377,1120.91205 422.496699,1120.87614 L422.493099,1120.87614 L422.493099,1120.26396 L416.316162,1120.26396 Z M400.604964,1121.62899 L404.582824,1128.42179 L407.320416,1121.62899 L400.604964,1121.62899 Z M407.79932,1110.84187 L400.91203,1119.63782 L407.79932,1119.63782 L407.79932,1110.84187 Z M409.795752,1108.2922 L409.795752,1115.48647 L414.6408,1103.46342 L413.99266,1102.93266 L409.795752,1108.2922 Z" id="Combined-Shape" fill="#FFFFFF"></path>
            <g id="Oval">
                <use fill="black" fill-opacity="1" filter="url(#filter-4)" xlink:href="#path-3"></use>
                <use fill="#FFFFFF" fill-rule="evenodd" xlink:href="#path-3"></use>
            </g>
            <g id="Oval-Copy-2">
                <use fill="black" fill-opacity="1" filter="url(#filter-6)" xlink:href="#path-5"></use>
                <use fill="#FFFFFF" fill-rule="evenodd" xlink:href="#path-5"></use>
            </g>
            <g id="Mask">
                <use fill="black" fill-opacity="1" filter="url(#filter-8)" xlink:href="#path-7"></use>
                <use fill="#FFFFFF" fill-rule="evenodd" xlink:href="#path-7"></use>
            </g>
            <path d="M478.073633,996.073102 L512.655906,996.073102 C514.653068,996.073102 515.934527,995.237171 515.934527,995.237171 C515.934527,995.237171 513.423379,990.558939 517.034688,986.006904 C517.034688,986.006904 520.908765,988.118077 521.3683,991.680214 C521.3683,991.680214 525.898886,990.954732 528,993.065697 C528,993.065697 527.277903,998.27711 520.317846,998.079214 C520.317846,998.079214 514.504565,1013.71988 496.382635,1013.99569 C478.2605,1014.2715 477.675975,1001.24079 478.073633,996.073102 Z M500.187659,983.772932 L500.187659,979 L505.413322,979 L505.413322,983.772932 L500.187659,983.772932 Z M500.187659,989.447278 L500.187659,984.674346 L505.413322,984.674346 L505.413322,989.447278 L500.187659,989.447278 Z M494.117384,989.447278 L494.117384,984.674346 L499.343047,984.674346 L499.343047,989.447278 L494.117384,989.447278 Z M487.994308,989.447278 L487.994308,984.674346 L493.219971,984.674346 L493.219971,989.447278 L487.994308,989.447278 Z M500.187659,995.121624 L500.187659,990.348692 L505.413322,990.348692 L505.413322,995.121624 L500.187659,995.121624 Z M506.310529,995.121624 L506.310529,990.348692 L511.536192,990.348692 L511.536192,995.121624 L506.310529,995.121624 Z M481.871438,995.121624 L481.871438,990.348692 L487.097101,990.348692 L487.097101,995.121624 L481.871438,995.121624 Z M494.117384,995.121624 L494.117384,990.348692 L499.343047,990.348692 L499.343047,995.121624 L494.117384,995.121624 Z M487.994308,995.121624 L487.994308,990.348692 L493.219971,990.348692 L493.219971,995.121624 L487.994308,995.121624 Z" id="Combined-Shape" fill="#006FB6"></path>
            <path d="M252.830842,1191.00683 C253.506218,1191.5172 254.230014,1192.27813 254.877925,1193.20762 C256.341387,1195.3071 256.88341,1197.46855 256.070376,1198.03409 C255.265084,1198.59963 253.414463,1197.36009 251.951002,1195.26061 C251.347806,1194.39527 250.902464,1193.5194 250.643711,1192.74909 C248.258393,1194.35707 245.485219,1195.37516 242.542385,1195.66396 C242.752185,1196.4236 242.875989,1197.35402 242.875989,1198.35947 C242.875989,1200.92377 242.078441,1203 241.087314,1203 C240.096186,1203 239.298638,1200.92377 239.298638,1198.35947 C239.298638,1197.37383 239.417611,1196.4603 239.619941,1195.70906 C236.663863,1195.5115 233.864589,1194.58117 231.437839,1193.05505 C231.170018,1193.74727 230.763782,1194.50793 230.239113,1195.26061 C228.775651,1197.36009 226.932773,1198.59963 226.119738,1198.03409 C225.306704,1197.46855 225.840984,1195.3071 227.312189,1193.20762 C227.862672,1192.4179 228.467934,1191.74986 229.051735,1191.25378 C228.045079,1190.34962 227.13728,1189.32437 226.350736,1188.19224 L228.258156,1186.86571 C231.092491,1190.94539 235.736346,1193.42454 240.808559,1193.42454 C245.884217,1193.42454 250.537059,1190.93395 253.373886,1186.84328 L255.282432,1188.16818 C254.561539,1189.2077 253.738563,1190.15761 252.830842,1191.00683 Z M250.551693,1163.54794 C250.788493,1162.71025 251.268787,1161.71809 251.951002,1160.73939 C253.414463,1158.63991 255.265084,1157.40037 256.070376,1157.96591 C256.88341,1158.53145 256.341387,1160.6929 254.877925,1162.79238 C254.159438,1163.82311 253.347633,1164.64658 252.612023,1165.15093 C253.863275,1166.28291 254.958863,1167.60103 255.854947,1169.07598 L253.869931,1170.28318 C251.119366,1165.75574 246.206672,1162.93183 240.808559,1162.93183 C235.552322,1162.93183 230.759365,1165.60052 227.971023,1169.92946 L226.018414,1168.67047 C226.928163,1167.25807 228.023449,1165.99894 229.263734,1164.91956 C228.616026,1164.4109 227.929648,1163.67818 227.312189,1162.79238 C225.848727,1160.6929 225.306704,1158.5392 226.119738,1157.96591 C226.932773,1157.39262 228.775651,1158.63991 230.239113,1160.73939 C230.838908,1161.59985 231.283925,1162.47072 231.544312,1163.23787 C233.973054,1161.73341 236.771088,1160.821 239.723978,1160.64072 C239.458996,1159.83193 239.298638,1158.78483 239.298638,1157.64053 C239.298638,1155.07623 240.096186,1153 241.087314,1153 C242.078441,1153 242.875989,1155.07623 242.875989,1157.64053 C242.875989,1158.80463 242.710033,1159.86815 242.436797,1160.6825 C245.383841,1160.95433 248.161446,1161.95801 250.551693,1163.54794 L250.551693,1163.54794 Z M217,1171.88751 L220.437974,1171.88751 L220.437974,1176.72947 L224.317309,1176.72947 L224.317309,1171.88751 L227.755283,1171.88751 L227.755283,1184.89495 L224.317309,1184.89495 L224.317309,1179.73536 L220.437974,1179.73536 L220.437974,1184.89495 L217,1184.89495 L217,1171.88751 Z M230.643491,1171.88751 L239.044846,1171.88751 L239.044846,1174.76945 L234.081465,1174.76945 L234.081465,1176.80694 L238.32473,1176.80694 L238.32473,1179.68888 L234.081465,1179.68888 L234.081465,1182.01302 L239.238426,1182.01302 L239.238426,1184.89495 L230.643491,1184.89495 L230.643491,1171.88751 Z M241.75496,1171.88751 L245.200678,1171.88751 L245.200678,1182.01302 L250.1176,1182.01302 L250.1176,1184.89495 L241.75496,1184.89495 L241.75496,1171.88751 Z M252.363123,1171.88751 L255.924988,1171.88751 L257.961445,1177.28726 L258.681562,1179.40998 L258.758993,1179.40998 L259.47911,1177.28726 L261.438135,1171.88751 L265,1171.88751 L265,1184.89495 L261.802065,1184.89495 L261.802065,1181.05237 C261.802065,1180.71924 261.817551,1180.35513 261.848524,1179.95228 C261.879497,1179.54943 261.918213,1179.13883 261.956929,1178.72048 C261.995644,1178.30214 262.042104,1177.89154 262.096306,1177.48869 C262.150508,1177.08584 262.196967,1176.72947 262.235683,1176.41184 L262.158251,1176.41184 L261.081949,1179.45646 L259.28553,1183.84134 L258.007905,1183.84134 L256.211486,1179.45646 L255.173899,1176.41184 L255.096467,1176.41184 C255.135183,1176.72947 255.181642,1177.09359 255.235844,1177.48869 C255.290047,1177.89154 255.336506,1178.30214 255.375222,1178.72048 C255.413938,1179.13883 255.452654,1179.54943 255.483626,1179.95228 C255.514599,1180.35513 255.530085,1180.71924 255.530085,1181.05237 L255.530085,1184.89495 L252.370866,1184.89495 L252.370866,1171.88751 L252.363123,1171.88751 Z" id="Shape" fill="#277A9F" fill-rule="nonzero"></path>
            <g id="Group-2" transform="translate(576.000000, 1207.000000)" fill-rule="nonzero" stroke="#FFFFFF" stroke-width="0.5">
                <path d="M23.8283876,0.00405447477 C23.4041452,0.0251658605 22.9884777,0.129073391 22.6057703,0.309681308 L5.922271,8.18431474 C5.04755504,8.59697473 4.41221991,9.37741537 4.19609746,10.3047326 L0.0801657357,27.993149 C-0.111852088,28.8165211 0.0443883415,29.6809821 0.513309406,30.389685 C0.569588418,30.475439 0.630115966,30.5584439 0.694674982,30.638402 L12.2423279,44.8215948 C12.8478216,45.5650349 13.7658653,45.997918 14.736638,45.9977312 L33.2551302,45.9935156 C34.2255397,45.9942143 35.1435188,45.5621374 35.7494403,44.819487 L47.2928258,30.6341864 C47.8986434,29.8903737 48.1256241,28.9166801 47.9094687,27.9889335 L43.7871359,10.3005171 C43.5710134,9.37319983 42.9356783,8.59275919 42.0609623,8.1800992 L25.3753293,0.309681308 C24.893941,0.0824908739 24.3620213,-0.0225996781 23.8283876,0.00405447477 Z" id="path3055" fill="#326CE5"></path>
                <path d="M23.9937016,6.02365494 C23.4422164,6.02371025 22.9950585,6.51440547 22.995124,7.119696 C22.9951247,7.12898571 22.9970495,7.13786263 22.9972543,7.14709703 C22.9964418,7.22934125 22.9924202,7.32842336 22.995124,7.40002958 C23.0082759,7.74914395 23.0853135,8.01634122 23.1316816,8.33798779 C23.2156837,9.02641354 23.2860716,9.59707659 23.2426347,10.1274856 C23.2003913,10.3274979 23.0512574,10.5104194 22.9183104,10.6375662 L22.8948395,11.0549049 C22.2955688,11.1039516 21.6922893,11.1937642 21.0897186,11.3289152 C18.4968576,11.9104699 16.26445,13.2298261 14.5648253,15.0111916 C14.45454,14.9368679 14.2615971,14.8001352 14.2042245,14.758259 C14.0259369,14.7820428 13.8457464,14.8363842 13.6110523,14.7013492 C13.1641737,14.4041953 12.7571665,13.9940196 12.2646796,13.4999196 C12.0390196,13.2635666 11.8756052,13.0385025 11.6074961,12.8106784 C11.5466106,12.7589405 11.4536927,12.6889639 11.38559,12.6357334 C11.1759823,12.470648 10.928757,12.3845532 10.6899997,12.3764775 C10.3830257,12.3660945 10.0875116,12.4846551 9.89412488,12.7242598 C9.55032676,13.1502238 9.66039834,13.8012837 10.1395018,14.178622 C10.1443633,14.1824463 10.1495402,14.1854194 10.1544378,14.1891608 C10.2202736,14.24188 10.3008931,14.3094306 10.361408,14.353567 C10.6459169,14.5610762 10.9058085,14.6673011 11.1892885,14.832031 C11.7865232,15.196376 12.2816381,15.498482 12.6743525,15.8627312 C12.827708,16.0242148 12.8545116,16.3087639 12.8749215,16.4318294 L13.1949784,16.7142708 C11.4816296,19.2613812 10.6886778,22.4075775 11.1572862,25.613281 L10.7390785,25.733424 C10.628856,25.8740282 10.4731046,26.0952686 10.3101989,26.1613016 C9.79639197,26.3211691 9.21813125,26.3798751 8.52001393,26.452174 C8.1922545,26.4790961 7.90945256,26.4630299 7.56197694,26.5280538 C7.48549922,26.542365 7.37894059,26.569789 7.29526286,26.5891791 C7.29235419,26.5897862 7.28963669,26.590636 7.28672801,26.5912835 C7.28216699,26.592329 7.27617484,26.5945143 7.27179202,26.5954991 C6.68321916,26.7359805 6.30511845,27.2703906 6.42684181,27.7969287 C6.54859384,28.3235903 7.12350002,28.6438663 7.71560426,28.5177865 C7.71987851,28.516822 7.72608505,28.5166601 7.73054024,28.5156821 C7.73722474,28.5141712 7.74310969,28.5109674 7.74974366,28.5093621 C7.83228249,28.4914639 7.93571942,28.4715504 8.00792289,28.4524523 C8.34954497,28.362096 8.59696005,28.2293348 8.90408221,28.1131011 C9.56481211,27.8790023 10.1120524,27.6834382 10.6451917,27.607236 C10.8678612,27.5900083 11.1024624,27.7429536 11.2191604,27.8074743 L11.6544378,27.7337023 C12.6561002,30.8014585 14.7552624,33.2810204 17.4133283,34.8368915 L17.2319627,35.2668768 C17.2973342,35.4338406 17.3694359,35.6597451 17.3207402,35.8246315 C17.1269185,36.3211347 16.7949272,36.8451955 16.4168845,37.4294501 C16.2338392,37.6993743 16.0465041,37.908849 15.8813226,38.2177566 C15.841796,38.2916729 15.7914554,38.405218 15.7532998,38.4833357 C15.4966507,39.0257823 15.6849091,39.6505486 16.1779087,39.8850036 C16.6740054,40.120931 17.2897928,39.872098 17.556287,39.328552 C17.5566967,39.3277831 17.5580418,39.3272165 17.5584173,39.3264476 C17.5586905,39.3258406 17.5581442,39.32493 17.5584173,39.3243432 C17.5963756,39.2472797 17.650152,39.1459839 17.6821727,39.0735184 C17.8236552,38.7533382 17.8707321,38.4789543 17.9702239,38.1692846 C18.2344369,37.5136739 18.3796011,36.8257723 18.7433161,36.3971305 C18.842913,36.2797543 19.0052889,36.2346129 19.1736378,36.1900873 L19.3998114,35.7853953 C21.7170738,36.6640357 24.3108778,36.8998134 26.9019451,36.3186614 C27.4930326,36.1860863 28.0636707,36.0145049 28.6153163,35.8085808 C28.6788825,35.9199608 28.7970151,36.1340678 28.8286876,36.1879796 C28.9997663,36.2429624 29.1864986,36.2713556 29.3386449,36.4936064 C29.6107626,36.9528631 29.7968572,37.4961744 30.0235667,38.1524224 C30.1230749,38.4620867 30.172252,38.7364828 30.3137516,39.0566563 C30.3460024,39.1296324 30.3995098,39.2323506 30.437507,39.3095888 C30.7034406,39.8549006 31.3211794,40.1045842 31.8180191,39.8681482 C32.3109579,39.6335684 32.4994238,39.0088588 32.2426279,38.4664803 C32.2044675,38.3883653 32.1520014,38.2748154 32.1124714,38.2009011 C31.9472736,37.8920024 31.7599684,37.6846166 31.5769095,37.4147025 C31.1988354,36.8304674 30.8852671,36.3451215 30.6914188,35.8486284 C30.6103643,35.5925548 30.7050936,35.433297 30.7682324,35.2668835 C30.730421,35.2240691 30.6495086,34.982244 30.6018028,34.8685148 C33.3641858,33.2572899 35.4017045,30.6852606 36.3585596,27.7147391 C36.4877704,27.7347997 36.712349,27.7740508 36.7853021,27.7885111 C36.9354841,27.6906633 37.0735711,27.5629951 37.3443348,27.5840573 C37.8774776,27.6602318 38.4247022,27.8558573 39.0854444,28.0899224 C39.3925727,28.2061405 39.6399775,28.3410426 39.9816037,28.4313813 C40.0538078,28.4504754 40.1572427,28.4682893 40.2397829,28.4861834 C40.2464196,28.4877887 40.2522984,28.4909992 40.2589863,28.4925033 C40.2634449,28.4934881 40.2696481,28.4936432 40.2739223,28.4946077 C40.8660607,28.620531 41.4410693,28.3004425 41.5626848,27.77375 C41.6842716,27.2471808 41.3063457,26.7126466 40.7177346,26.5723203 C40.6321177,26.5530887 40.5106961,26.5204267 40.4275496,26.5048717 C40.0800706,26.439866 39.7972734,26.4558972 39.4695126,26.4289919 C38.7713919,26.3567287 38.1931428,26.29796 37.6793277,26.1381195 C37.4698306,26.0578366 37.3207937,25.8115842 37.2483144,25.7102419 L36.8450427,25.5943145 C37.0541301,24.1000281 36.9977516,22.5448693 36.6359388,20.9888343 C36.2707571,19.4183113 35.6253872,17.9819154 34.7646728,16.7163819 C34.8681186,16.6234855 35.0634738,16.4525962 35.1188691,16.402324 C35.1350621,16.2253272 35.1211496,16.0397516 35.3066358,15.8437646 C35.6993305,15.4794952 36.1944849,15.1774405 36.7916998,14.8130645 C37.0751709,14.6483197 37.3372161,14.5421245 37.6217141,14.3346004 C37.6860498,14.2876723 37.7739007,14.2133553 37.8414865,14.1596554 C38.3204882,13.7821903 38.4307722,13.1311696 38.0868634,12.7052932 C37.7429547,12.2794169 37.0765338,12.2393017 36.597532,12.6167668 C36.5293515,12.6701086 36.4368358,12.7396934 36.3756259,12.7917118 C36.1075291,13.0195508 35.9419565,13.2445886 35.7163087,13.480953 C35.2238485,13.9750787 34.8167989,14.3873129 34.369936,14.6844904 C34.1762966,14.7958522 33.8926699,14.7573202 33.7639582,14.7498313 L33.3841573,15.0175183 C31.2184356,12.7741367 28.2697566,11.339848 25.0946973,11.0612283 C25.0858169,10.9297897 25.0741829,10.6922051 25.0712264,10.6207041 C24.9412434,10.4978362 24.784222,10.3929393 24.7447684,10.1274856 C24.7013315,9.59707659 24.7738531,9.02641354 24.8578552,8.33798779 C24.9042233,8.01634122 24.9812609,7.74914395 24.9944128,7.40002958 C24.9974034,7.32066744 24.9926034,7.20550691 24.9922825,7.119696 C24.9922169,6.51440547 24.5451901,6.02359964 23.993705,6.02365494 L23.9937016,6.02365494 Z M22.7433459,13.6748646 L22.4467599,18.8494431 L22.4254227,18.8599819 C22.4055304,19.3229058 22.0198494,19.6925516 21.5463331,19.6925516 C21.352366,19.6925516 21.1733301,19.6310188 21.027841,19.5260376 L21.0193061,19.5302532 L16.7241425,16.5224636 C18.044221,15.2401866 19.7327054,14.2925839 21.6786233,13.8561329 C22.0340821,13.7764066 22.3893825,13.7172494 22.7433459,13.6748646 Z M25.2461909,13.6748646 C27.5180637,13.9508862 29.6191076,14.9671017 31.2291212,16.5245714 L26.9616959,19.513391 L26.9467599,19.5070711 C26.5679866,19.7803522 26.0343208,19.7125461 25.7390785,19.3468805 C25.6181349,19.1970796 25.5546766,19.0209421 25.5470444,18.8431231 L25.5427769,18.8410187 L25.2461909,13.6748646 Z M15.1665323,18.4552898 L19.0882961,21.9204658 L19.0840287,21.9415435 C19.4380113,22.2455327 19.4902111,22.7730468 19.1949818,23.1387576 C19.0740464,23.2885645 18.9121655,23.3890421 18.7383673,23.4359533 L18.7340998,23.4528155 L13.7070728,24.8861 C13.451213,22.5749595 14.002621,20.3283471 15.1665323,18.4552898 Z M32.7931326,18.4573942 C33.3758307,19.3903822 33.8170791,20.4324359 34.0797613,21.5621413 C34.3392931,22.678301 34.4044263,23.7924648 34.2974,24.8692344 L29.2447684,23.4317344 L29.240501,23.4106567 C28.7880515,23.2885044 28.5099908,22.8338612 28.6153232,22.3778488 C28.6584774,22.1910416 28.7588602,22.033008 28.8948395,21.9162469 L28.8927092,21.905708 L32.793136,18.4573942 L32.7931326,18.4573942 Z M23.1892919,22.1881494 L24.7959775,22.1881494 L25.794555,23.4211956 L25.4360913,24.9598686 L23.9937016,25.6448942 L22.5470444,24.9577608 L22.1885806,23.4190878 L23.1892919,22.1881494 Z M28.3400742,26.4079074 C28.408351,26.4045013 28.4763301,26.4105784 28.5427769,26.4226618 L28.5513118,26.412123 L33.7511695,27.2805247 C32.9901681,29.392552 31.5339649,31.2222378 29.5882961,32.4466721 L27.569804,27.6304148 L27.5762017,27.6219837 C27.3907831,27.1963832 27.5763383,26.697292 28.0029442,26.4943261 C28.1121664,26.4423629 28.2262767,26.4135893 28.3400708,26.4079074 L28.3400742,26.4079074 Z M19.6067883,26.4289851 C20.003607,26.4344822 20.3595362,26.7065533 20.4517385,27.1055797 C20.4949037,27.2923842 20.473895,27.4774749 20.4026631,27.6409536 L20.4175991,27.6599236 L18.4204441,32.4277022 C16.5532127,31.2440722 15.0659562,29.4718292 14.270373,27.2973903 L19.4254227,26.4332041 L19.4339576,26.4437429 C19.4916197,26.4332607 19.5500998,26.4282027 19.6067883,26.4289885 L19.6067883,26.4289851 Z M23.9616959,28.5177898 C24.0999229,28.5127717 24.2401812,28.5407885 24.3735024,28.6042085 C24.5482627,28.687341 24.6832649,28.8182359 24.7682392,28.9751762 L24.7874427,28.9751762 L27.3286944,33.5111 C26.998888,33.6203149 26.6598291,33.7136537 26.3130472,33.7914335 C24.3695231,34.2273476 22.4321742,34.0952676 20.6779121,33.5047766 L23.2127627,28.977284 L23.2170301,28.977284 C23.3691328,28.6964 23.6575971,28.5288265 23.9616959,28.5177898 Z" id="path3059" fill="#FFFFFF"></path>
            </g>
        </g>
    </g>
</svg>