<svg height="512px" version="1.1" viewBox="0 0 512 512" width="512px" xml:space="preserve"
  xmlns="http://www.w3.org/2000/svg" xmlns:xlink="http://www.w3.org/1999/xlink">
  <g>
    <g>
      <path
        d="M257.95,26.001c-125.883,0-231.948,101.138-231.948,225.995c0,4.004,0.102,234.003,0.102,234.003l231.847-0.206    c125.986,0,228.048-105.037,228.048-229.895C485.998,131.042,383.937,26.001,257.95,26.001z M256.001,387.429    c-19.92,0-38.916-4.417-55.858-12.424l-83.271,20.639l23.512-77.01c-10.062-18.585-15.812-39.942-15.812-62.634    c0-72.593,58.835-131.428,131.429-131.428S387.428,183.407,387.428,256C387.428,328.596,328.595,387.429,256.001,387.429z" fill="#0066FF" />
    </g>
  </g>
</svg>