<?xml version="1.0" encoding="iso-8859-1"?>
<!-- Generator: Adobe Illustrator 19.0.0, SVG Export Plug-In . SVG Version: 6.00 Build 0)  -->
<svg version="1.1" id="Capa_1" xmlns="http://www.w3.org/2000/svg" xmlns:xlink="http://www.w3.org/1999/xlink" x="0px" y="0px"
	 viewBox="0 0 512 512" style="enable-background:new 0 0 512 512;" xml:space="preserve">
<g>
	<g>
		<path d="M210.996,154.998c-115.793,0-210.995,79.627-210.995,177.506c0,39.125,15.176,78.888,43.007,109.707L3.707,487.122
			c-3.867,4.424-4.805,10.708-2.358,16.069c2.432,5.361,7.764,8.804,13.652,8.804h210.995c85.495,0,195.995-73.62,195.995-179.491
			C421.991,234.625,326.789,154.998,210.996,154.998z M119.998,359.998c-16.538,0-29.999-13.462-29.999-29.999
			c0-16.538,13.462-29.999,29.999-29.999s29.999,13.462,29.999,29.999C149.998,346.536,136.536,359.998,119.998,359.998z
			 M210.996,359.998c-16.538,0-29.999-13.462-29.999-29.999c0-16.538,13.462-29.999,29.999-29.999s29.999,13.462,29.999,29.999
			C240.995,346.536,227.534,359.998,210.996,359.998z M301.994,359.998c-16.538,0-29.999-13.462-29.999-29.999
			c0-16.538,13.462-29.999,29.999-29.999s29.999,13.462,29.999,29.999C331.993,346.536,318.532,359.998,301.994,359.998z" fill="#0066FF"/>
	</g>
</g>
<g>
	<g>
		<path d="M508.371,305.228l-35.316-41.205c25.209-28.446,38.935-63.134,38.935-99.021C511.989,74.023,424.511,0.006,316.994,0.006
			c-97.225,0-179.826,60.589-194.411,139.45c27.128-9.218,57.551-14.458,88.414-14.458c131.353,0,239.271,91.745,240.848,205h45.145
			C509.803,329.999,516.684,314.911,508.371,305.228z" fill="#0066FF"/>
	</g>
</g>
</svg>
