
<svg width="128px" height="96px" viewBox="0 0 128 96" version="1.1" xmlns="http://www.w3.org/2000/svg" xmlns:xlink="http://www.w3.org/1999/xlink">
    <defs>
        <polygon id="path-1" points="0.549105556 0.150304478 2.52691111 0.150304478 2.52691111 1.43283582 0.549105556 1.43283582"></polygon>
        <polygon id="path-3" points="1.31653889 0.922029851 3.29333333 0.922029851 3.29333333 2.35486567 1.31653889 2.35486567"></polygon>
        <polygon id="path-5" points="0.458827778 0.150304478 2.43663333 0.150304478 2.43663333 1.43283582 0.458827778 1.43283582"></polygon>
        <polygon id="path-7" points="1.31653889 1.03250149 3.29333333 1.03250149 3.29333333 2.46533731 1.31653889 2.46533731"></polygon>
    </defs>
    <g id="Page-1" stroke="none" stroke-width="1" fill="none" fill-rule="evenodd">
        <g id="Design" transform="translate(-1054.000000, -2753.000000)">
            <path d="M1126.23149,2849 C1153.73829,2849 1182,2832.66104 1182,2805.03971 C1182,2777.41839 1152.38104,2748.10753 1120.26845,2755.02688 C1088.15587,2761.94623 1054,2783.91767 1054,2811.53899 C1054,2839.16031 1098.72469,2849 1126.23149,2849 Z" id="Oval-Copy-7" fill="#F2F7FF"></path>
            <g id="Group-391" transform="translate(1072.000000, 2753.000000)">
                <path d="M38.2813889,82.0092179 C38.6670556,82.2298746 38.6670556,82.5895164 38.2813889,82.811606 C37.8942778,83.0322627 37.2688333,83.0322627 36.8817222,82.811606 C36.4975,82.5895164 36.4975,82.2298746 36.8817222,82.0092179 C37.2688333,81.7885612 37.8942778,81.7885612 38.2813889,82.0092179" id="Fill-1" fill="#16110D"></path>
                <path d="M34.6252111,79.9159881 C35.0108778,80.1366448 35.0108778,80.4948537 34.6252111,80.7169433 C34.2381,80.9376 33.6126556,80.9376 33.2255444,80.7169433 C32.8413222,80.4948537 32.8413222,80.1366448 33.2255444,79.9159881 C33.6126556,79.6953313 34.2381,79.6953313 34.6252111,79.9159881" id="Fill-3" fill="#16110D"></path>
                <path d="M27.3127111,79.9159881 C27.6998222,80.1366448 27.6998222,80.4948537 27.3127111,80.7169433 C26.9256,80.9376 26.3001556,80.9376 25.9144889,80.7169433 C25.5288222,80.4948537 25.5288222,80.1366448 25.9144889,79.9159881 C26.3001556,79.6953313 26.9256,79.6953313 27.3127111,79.9159881" id="Fill-5" fill="#16110D"></path>
                <path d="M30.9688889,77.8226149 C31.356,78.0432716 31.356,78.4014806 30.9688889,78.6235701 C30.5817778,78.8442269 29.9563333,78.8442269 29.5692222,78.6235701 C29.185,78.4014806 29.185,78.0432716 29.5692222,77.8226149 C29.9563333,77.6005254 30.5817778,77.6005254 30.9688889,77.8226149" id="Fill-7" fill="#16110D"></path>
                <path d="M20.0002111,79.9159881 C20.3873222,80.1366448 20.3873222,80.4948537 20.0002111,80.7169433 C19.6131,80.9376 18.9876556,80.9376 18.6019889,80.7169433 C18.2163222,80.4948537 18.2163222,80.1366448 18.6019889,79.9159881 C18.9876556,79.6953313 19.6131,79.6953313 20.0002111,79.9159881" id="Fill-9" fill="#16110D"></path>
                <path d="M23.6563889,77.8226149 C24.0435,78.0432716 24.0435,78.4014806 23.6563889,78.6235701 C23.2692778,78.8442269 22.6438333,78.8442269 22.2581667,78.6235701 C21.8725,78.4014806 21.8725,78.0432716 22.2581667,77.8226149 C22.6438333,77.6005254 23.2692778,77.6005254 23.6563889,77.8226149" id="Fill-11" fill="#16110D"></path>
                <path d="M27.3127111,75.7279522 C27.6998222,75.948609 27.6998222,76.3068179 27.3127111,76.5289075 C26.9256,76.7495642 26.3001556,76.7495642 25.9144889,76.5289075 C25.5288222,76.3068179 25.5288222,75.948609 25.9144889,75.7279522 C26.3001556,75.5072955 26.9256,75.5072955 27.3127111,75.7279522" id="Fill-13" fill="#16110D"></path>
                <path d="M12.6877111,79.9159881 C13.0748222,80.1366448 13.0748222,80.4948537 12.6877111,80.7169433 C12.3006,80.9376 11.6766,80.9376 11.2894889,80.7169433 C10.9038222,80.4948537 10.9038222,80.1366448 11.2894889,79.9159881 C11.6766,79.6953313 12.3006,79.6953313 12.6877111,79.9159881" id="Fill-15" fill="#16110D"></path>
                <path d="M16.3438889,77.8226149 C16.731,78.0432716 16.731,78.4014806 16.3438889,78.6235701 C15.9567778,78.8442269 15.3327778,78.8442269 14.9456667,78.6235701 C14.56,78.4014806 14.56,78.0432716 14.9456667,77.8226149 C15.3327778,77.6019582 15.9567778,77.6019582 16.3438889,77.8226149" id="Fill-17" fill="#16110D"></path>
                <path d="M20.0002111,75.7279522 C20.3873222,75.948609 20.3873222,76.3068179 20.0002111,76.5289075 C19.6131,76.7495642 18.9876556,76.7495642 18.6019889,76.5289075 C18.2163222,76.3068179 18.2163222,75.948609 18.6019889,75.7279522 C18.9891,75.5072955 19.6131,75.5072955 20.0002111,75.7279522" id="Fill-19" fill="#16110D"></path>
                <path d="M23.6563889,73.6347224 C24.0435,73.8553791 24.0435,74.2135881 23.6563889,74.4356776 C23.2692778,74.6563343 22.6438333,74.6563343 22.2581667,74.4356776 C21.8725,74.2135881 21.8725,73.8553791 22.2581667,73.6347224 C22.6438333,73.4140657 23.2692778,73.4140657 23.6563889,73.6347224" id="Fill-21" fill="#16110D"></path>
                <path d="M9.00033333,77.8002627 C9.38744444,78.0209194 9.38744444,78.3791284 9.00033333,78.6012179 C8.61322222,78.8218746 7.98777778,78.8218746 7.60211111,78.6012179 C7.21644444,78.3791284 7.21644444,78.0209194 7.60211111,77.8002627 C7.98777778,77.579606 8.61322222,77.579606 9.00033333,77.8002627" id="Fill-23" fill="#16110D"></path>
                <path d="M12.6566556,75.7056 C13.0437667,75.9262567 13.0437667,76.2858985 12.6566556,76.5079881 C12.2695444,76.7286448 11.6441,76.7286448 11.2569889,76.5079881 C10.8727667,76.2858985 10.8727667,75.9262567 11.2584333,75.7056 C11.6441,75.4849433 12.2695444,75.4849433 12.6566556,75.7056" id="Fill-25" fill="#16110D"></path>
                <path d="M16.3128333,73.6123701 C16.6985,73.8330269 16.6985,74.1912358 16.3128333,74.4133254 C15.9257222,74.6339821 15.3002778,74.6339821 14.9131667,74.4133254 C14.5289444,74.1912358 14.5289444,73.8330269 14.9131667,73.6123701 C15.3002778,73.3917134 15.9257222,73.3917134 16.3128333,73.6123701" id="Fill-27" fill="#16110D"></path>
                <path d="M19.9691556,71.5175642 C20.3548222,71.7396537 20.3548222,72.0978627 19.9691556,72.3199522 C19.5820444,72.540609 18.9566,72.540609 18.5694889,72.3199522 C18.1852667,72.0978627 18.1852667,71.7396537 18.5694889,71.5175642 C18.9566,71.2969075 19.5820444,71.2969075 19.9691556,71.5175642" id="Fill-29" fill="#16110D"></path>
                <path d="M5.34415556,75.7056 C5.73126667,75.9262567 5.73126667,76.2858985 5.34415556,76.5079881 C4.95704444,76.7286448 4.3316,76.7286448 3.94593333,76.5079881 C3.56026667,76.2858985 3.56026667,75.9262567 3.94593333,75.7056 C4.3316,75.4849433 4.95704444,75.4849433 5.34415556,75.7056" id="Fill-31" fill="#16110D"></path>
                <path d="M9.00033333,73.6123701 C9.38744444,73.8330269 9.38744444,74.1912358 9.00033333,74.4133254 C8.61322222,74.6339821 7.98777778,74.6339821 7.60211111,74.4133254 C7.21644444,74.1912358 7.21644444,73.8330269 7.60211111,73.6123701 C7.98777778,73.3917134 8.61322222,73.3917134 9.00033333,73.6123701" id="Fill-33" fill="#16110D"></path>
                <path d="M12.6566556,71.5175642 C13.0437667,71.7396537 13.0437667,72.0978627 12.6566556,72.3199522 C12.2695444,72.540609 11.6441,72.540609 11.2584333,72.3199522 C10.8727667,72.0978627 10.8727667,71.7396537 11.2584333,71.5175642 C11.6441,71.2969075 12.2695444,71.2969075 12.6566556,71.5175642" id="Fill-35" fill="#16110D"></path>
                <path d="M16.3128333,69.4243343 C16.6999444,69.644991 16.6999444,70.0032 16.3128333,70.2252896 C15.9257222,70.4459463 15.3002778,70.4459463 14.9131667,70.2252896 C14.5289444,70.0032 14.5289444,69.644991 14.9131667,69.4243343 C15.3002778,69.2036776 15.9257222,69.2036776 16.3128333,69.4243343" id="Fill-37" fill="#16110D"></path>
                <path d="M1.68783333,73.6123701 C2.07494444,73.8330269 2.07494444,74.1912358 1.68783333,74.4133254 C1.30072222,74.6339821 0.675277778,74.6339821 0.289611111,74.4133254 C-0.0960555556,74.1912358 -0.0960555556,73.8330269 0.289611111,73.6123701 C0.675277778,73.3917134 1.30072222,73.3917134 1.68783333,73.6123701" id="Fill-39" fill="#16110D"></path>
                <path d="M5.34415556,71.5175642 C5.73126667,71.7396537 5.73126667,72.0978627 5.34415556,72.3199522 C4.95704444,72.540609 4.3316,72.540609 3.94593333,72.3199522 C3.56026667,72.0978627 3.56026667,71.7396537 3.94593333,71.5175642 C4.3316,71.2969075 4.95704444,71.2969075 5.34415556,71.5175642" id="Fill-41" fill="#16110D"></path>
                <path d="M9.00033333,69.4243343 C9.38744444,69.644991 9.38744444,70.0032 9.00033333,70.2252896 C8.61322222,70.4459463 7.98777778,70.4459463 7.60211111,70.2252896 C7.21644444,70.0032 7.21644444,69.644991 7.60211111,69.4243343 C7.98777778,69.2036776 8.61322222,69.2036776 9.00033333,69.4243343" id="Fill-43" fill="#16110D"></path>
                <path d="M12.6566556,67.3311045 C13.0437667,67.5517612 13.0437667,67.9099701 12.6566556,68.1320597 C12.2695444,68.3527164 11.6441,68.3527164 11.2584333,68.1320597 C10.8727667,67.9099701 10.8727667,67.5517612 11.2584333,67.3311045 C11.6441,67.1104478 12.2695444,67.1104478 12.6566556,67.3311045" id="Fill-45" fill="#16110D"></path>
                <path d="M1.68783333,69.4243343 C2.07494444,69.644991 2.07494444,70.0032 1.68783333,70.2252896 C1.30072222,70.4459463 0.675277778,70.4459463 0.289611111,70.2252896 C-0.0960555556,70.0032 -0.0960555556,69.644991 0.289611111,69.4243343 C0.675277778,69.2036776 1.30072222,69.2036776 1.68783333,69.4243343" id="Fill-47" fill="#16110D"></path>
                <path d="M5.34415556,67.3311045 C5.73126667,67.5517612 5.73126667,67.9099701 5.34415556,68.1320597 C4.95704444,68.3527164 4.3316,68.3527164 3.94593333,68.1320597 C3.56026667,67.9099701 3.56026667,67.5517612 3.94593333,67.3311045 C4.3316,67.1104478 4.95704444,67.1104478 5.34415556,67.3311045" id="Fill-49" fill="#16110D"></path>
                <path d="M9.00033333,65.2362985 C9.38744444,65.4569552 9.38744444,65.8151642 9.00033333,66.0386866 C8.61322222,66.2593433 7.98777778,66.2593433 7.60211111,66.0386866 C7.21644444,65.8151642 7.21644444,65.4569552 7.60211111,65.2362985 C7.98777778,65.0156418 8.61322222,65.0156418 9.00033333,65.2362985" id="Fill-51" fill="#16110D"></path>
                <path d="M41.9658778,79.9341851 C42.3529889,80.1548418 42.3529889,80.5130507 41.9658778,80.7351403 C41.5802111,80.955797 40.9547667,80.955797 40.5676556,80.7351403 C40.1819889,80.5130507 40.1819889,80.1548418 40.5676556,79.9341851 C40.9547667,79.7135284 41.5802111,79.7135284 41.9658778,79.9341851" id="Fill-53" fill="#16110D"></path>
                <path d="M45.6222,77.8393791 C46.0093111,78.0600358 46.0093111,78.4182448 45.6222,78.6417672 C45.2365333,78.8624239 44.6110889,78.8624239 44.2239778,78.6417672 C43.8383111,78.4182448 43.8383111,78.0600358 44.2239778,77.8393791 C44.6110889,77.6187224 45.2365333,77.6187224 45.6222,77.8393791" id="Fill-55" fill="#16110D"></path>
                <path d="M49.2783778,75.7461493 C49.6654889,75.966806 49.6654889,76.3250149 49.2783778,76.5471045 C48.8927111,76.7677612 48.2672667,76.7677612 47.8801556,76.5471045 C47.4944889,76.3250149 47.4944889,75.966806 47.8801556,75.7461493 C48.2672667,75.5254925 48.8927111,75.5254925 49.2783778,75.7461493" id="Fill-57" fill="#16110D"></path>
                <path d="M52.9347,73.6514866 C53.3218111,73.8721433 53.3218111,74.2317851 52.9347,74.4538746 C52.5475889,74.6745313 51.9235889,74.6745313 51.5364778,74.4538746 C51.1508111,74.2317851 51.1508111,73.8721433 51.5364778,73.6514866 C51.9235889,73.4308299 52.5475889,73.4308299 52.9347,73.6514866" id="Fill-59" fill="#16110D"></path>
                <path d="M56.5908778,71.5582567 C56.9779889,71.7789134 56.9779889,72.1371224 56.5908778,72.3592119 C56.2037667,72.5798687 55.5797667,72.5798687 55.1926556,72.3592119 C54.8069889,72.1371224 54.8069889,71.7789134 55.1926556,71.5582567 C55.5797667,71.3376 56.2037667,71.3376 56.5908778,71.5582567" id="Fill-61" fill="#16110D"></path>
                <path d="M60.2472,69.4634507 C60.6343111,69.6841075 60.6343111,70.0437493 60.2472,70.2658388 C59.8600889,70.4864955 59.2346444,70.4864955 58.8489778,70.2658388 C58.4633111,70.0437493 58.4633111,69.6841075 58.8489778,69.4634507 C59.2346444,69.242794 59.8600889,69.242794 60.2472,69.4634507" id="Fill-63" fill="#16110D"></path>
                <path d="M63.9033778,68.170603 C63.5162667,68.3912597 62.8908222,68.3912597 62.5051556,68.170603 C62.1194889,67.9499463 62.1194889,67.5917373 62.5051556,67.3696478 C62.8908222,67.148991 63.5162667,67.148991 63.9033778,67.3696478 C64.2904889,67.5917373 64.2904889,67.9499463 63.9033778,68.170603" id="Fill-65" fill="#16110D"></path>
                <path d="M36.9075778,77.8422448 C37.2932444,77.6215881 37.9186889,77.6201552 38.3058,77.8408119 C38.6914667,78.0614687 38.6929111,78.4196776 38.3086889,78.6417672 C37.9230222,78.8638567 37.2975778,78.8638567 36.9104667,78.6432 C36.5233556,78.4225433 36.5219111,78.0629015 36.9075778,77.8422448" id="Fill-67" fill="#16110D"></path>
                <path d="M41.9658778,75.7461493 C42.3529889,75.966806 42.3529889,76.3250149 41.9658778,76.5471045 C41.5802111,76.7677612 40.9547667,76.7677612 40.5676556,76.5471045 C40.1819889,76.3250149 40.1819889,75.966806 40.5676556,75.7461493 C40.9547667,75.5254925 41.5802111,75.5254925 41.9658778,75.7461493" id="Fill-69" fill="#16110D"></path>
                <path d="M45.6222,73.6514866 C46.0093111,73.8721433 46.0093111,74.2317851 45.6222,74.4538746 C45.2365333,74.6745313 44.6110889,74.6745313 44.2239778,74.4538746 C43.8383111,74.2317851 43.8383111,73.8721433 44.2239778,73.6514866 C44.6110889,73.4308299 45.2365333,73.4308299 45.6222,73.6514866" id="Fill-71" fill="#16110D"></path>
                <path d="M49.2783778,71.5582567 C49.6654889,71.7789134 49.6654889,72.1371224 49.2783778,72.3592119 C48.8927111,72.5798687 48.2672667,72.5798687 47.8801556,72.3592119 C47.4944889,72.1371224 47.4944889,71.7789134 47.8801556,71.5582567 C48.2672667,71.3376 48.8927111,71.3376 49.2783778,71.5582567" id="Fill-73" fill="#16110D"></path>
                <path d="M52.9347,69.4634507 C53.3218111,69.6841075 53.3218111,70.0437493 52.9347,70.2658388 C52.5475889,70.4864955 51.9235889,70.4864955 51.5364778,70.2658388 C51.1508111,70.0437493 51.1508111,69.6841075 51.5364778,69.4634507 C51.9235889,69.242794 52.5475889,69.242794 52.9347,69.4634507" id="Fill-75" fill="#16110D"></path>
                <path d="M56.5908778,67.3702209 C56.9779889,67.5908776 56.9779889,67.9490866 56.5908778,68.1711761 C56.2037667,68.3918328 55.5797667,68.3918328 55.1926556,68.1711761 C54.8069889,67.9490866 54.8069889,67.5908776 55.1926556,67.3702209 C55.5797667,67.1495642 56.2037667,67.1495642 56.5908778,67.3702209" id="Fill-77" fill="#16110D"></path>
                <path d="M60.2472,65.2755582 C60.6343111,65.4976478 60.6343111,65.8558567 60.2472,66.0779463 C59.8600889,66.298603 59.2346444,66.298603 58.8489778,66.0779463 C58.4633111,65.8558567 58.4633111,65.4976478 58.8489778,65.2755582 C59.2346444,65.0549015 59.8600889,65.0549015 60.2472,65.2755582" id="Fill-79" fill="#16110D"></path>
                <path d="M63.9033778,63.1823284 C64.2904889,63.4029851 64.2904889,63.761194 63.9033778,63.9832836 C63.5162667,64.2039403 62.8908222,64.2039403 62.5051556,63.9832836 C62.1194889,63.761194 62.1194889,63.4029851 62.5051556,63.1823284 C62.8908222,62.9616716 63.5162667,62.9616716 63.9033778,63.1823284" id="Fill-81" fill="#16110D"></path>
                <path d="M33.2512556,75.7490149 C33.6369222,75.5269254 34.2623667,75.5269254 34.6494778,75.7475821 C35.0365889,75.966806 35.0365889,76.3264478 34.6523667,76.5485373 C34.2667,76.769194 33.6412556,76.7706269 33.2541444,76.5499701 C32.8670333,76.3278806 32.8655889,75.9696716 33.2512556,75.7490149" id="Fill-83" fill="#16110D"></path>
                <path d="M38.311,73.6514866 C38.6966667,73.8721433 38.6966667,74.2317851 38.311,74.4538746 C37.9238889,74.6745313 37.2984444,74.6745313 36.9113333,74.4538746 C36.5256667,74.2317851 36.5256667,73.8721433 36.9113333,73.6514866 C37.2984444,73.4308299 37.9238889,73.4308299 38.311,73.6514866" id="Fill-85" fill="#16110D"></path>
                <path d="M41.9658778,71.5582567 C42.3529889,71.7789134 42.3529889,72.1371224 41.9658778,72.3592119 C41.5802111,72.5798687 40.9547667,72.5798687 40.5676556,72.3592119 C40.1819889,72.1371224 40.1819889,71.7789134 40.5676556,71.5582567 C40.9547667,71.3376 41.5802111,71.3376 41.9658778,71.5582567" id="Fill-87" fill="#16110D"></path>
                <path d="M45.6222,69.4634507 C46.0093111,69.6841075 46.0093111,70.0437493 45.6222,70.2658388 C45.2365333,70.4864955 44.6110889,70.4864955 44.2239778,70.2658388 C43.8383111,70.0437493 43.8383111,69.6841075 44.2239778,69.4634507 C44.6110889,69.242794 45.2365333,69.242794 45.6222,69.4634507" id="Fill-89" fill="#16110D"></path>
                <path d="M49.2783778,67.3702209 C49.6654889,67.5908776 49.6654889,67.9490866 49.2783778,68.1711761 C48.8927111,68.3918328 48.2672667,68.3918328 47.8801556,68.1711761 C47.4944889,67.9490866 47.4944889,67.5908776 47.8801556,67.3702209 C48.2672667,67.1495642 48.8927111,67.1495642 49.2783778,67.3702209" id="Fill-91" fill="#16110D"></path>
                <path d="M52.9347,65.2755582 C53.3218111,65.4976478 53.3218111,65.8558567 52.9347,66.0779463 C52.5475889,66.298603 51.9235889,66.298603 51.5364778,66.0779463 C51.1508111,65.8558567 51.1508111,65.4976478 51.5364778,65.2755582 C51.9235889,65.0549015 52.5475889,65.0549015 52.9347,65.2755582" id="Fill-93" fill="#16110D"></path>
                <path d="M56.5908778,63.1823284 C56.9779889,63.4029851 56.9779889,63.761194 56.5908778,63.9832836 C56.2037667,64.2039403 55.5797667,64.2039403 55.1926556,63.9832836 C54.8069889,63.761194 54.8069889,63.4029851 55.1926556,63.1823284 C55.5797667,62.9616716 56.2037667,62.9616716 56.5908778,63.1823284" id="Fill-95" fill="#16110D"></path>
                <path d="M60.2472,61.0889552 C60.6343111,61.3096119 60.6343111,61.6678209 60.2472,61.8899104 C59.8600889,62.1105672 59.2346444,62.1105672 58.8489778,61.8899104 C58.4633111,61.6678209 58.4633111,61.3096119 58.8489778,61.0889552 C59.2346444,60.8682985 59.8600889,60.8682985 60.2472,61.0889552" id="Fill-97" fill="#16110D"></path>
                <path d="M63.9033778,58.9942925 C64.2904889,59.2149493 64.2904889,59.5731582 63.9033778,59.7952478 C63.5162667,60.0173373 62.8908222,60.0173373 62.5051556,59.7952478 C62.1194889,59.5731582 62.1194889,59.2149493 62.5051556,58.9942925 C62.8908222,58.7736358 63.5162667,58.7736358 63.9033778,58.9942925" id="Fill-99" fill="#16110D"></path>
                <path d="M67.5597,56.9010627 C67.9468111,57.1217194 67.9468111,57.4799284 67.5597,57.7020179 C67.1725889,57.9226746 66.5471444,57.9226746 66.1614778,57.7020179 C65.7758111,57.4799284 65.7758111,57.1217194 66.1614778,56.9010627 C66.5471444,56.680406 67.1725889,56.680406 67.5597,56.9010627" id="Fill-101" fill="#16110D"></path>
                <path d="M71.2158778,54.8064 C71.6029889,55.0270567 71.6029889,55.3866985 71.2158778,55.6087881 C70.8287667,55.8294448 70.2033222,55.8294448 69.8176556,55.6087881 C69.4319889,55.3866985 69.4319889,55.0270567 69.8176556,54.8064 C70.2033222,54.5857433 70.8287667,54.5857433 71.2158778,54.8064" id="Fill-103" fill="#16110D"></path>
                <path d="M74.8722,52.7130269 C75.2593111,52.9336836 75.2593111,53.2918925 74.8722,53.5139821 C74.4850889,53.7346388 73.8596444,53.7346388 73.4725333,53.5139821 C73.0883111,53.2918925 73.0883111,52.9336836 73.4725333,52.7130269 C73.8596444,52.4923701 74.4850889,52.4923701 74.8722,52.7130269" id="Fill-105" fill="#16110D"></path>
                <path d="M78.5283778,50.6183642 C78.9140444,50.8390209 78.9140444,51.1986627 78.5283778,51.4207522 C78.1412667,51.641409 77.5158222,51.641409 77.1287111,51.4207522 C76.7444889,51.1986627 76.7444889,50.8390209 77.1287111,50.6183642 C77.5158222,50.3977075 78.1412667,50.3977075 78.5283778,50.6183642" id="Fill-107" fill="#16110D"></path>
                <path d="M82.1847,48.5251343 C82.5703667,48.745791 82.5703667,49.104 82.1847,49.3260896 C81.7975889,49.5467463 81.1721444,49.5467463 80.7850333,49.3260896 C80.4008111,49.104 80.4008111,48.745791 80.7850333,48.5251343 C81.1721444,48.3044776 81.7975889,48.3044776 82.1847,48.5251343" id="Fill-109" fill="#16110D"></path>
                <path d="M29.5950778,73.654209 C29.9807444,73.4335522 30.6061889,73.4321194 30.9933,73.6527761 C31.3804111,73.8734328 31.3804111,74.2316418 30.9961889,74.4551642 C30.6105222,74.6758209 29.9850778,74.6758209 29.5979667,74.456597 C29.2108556,74.2345075 29.2094111,73.8762985 29.5950778,73.654209" id="Fill-111" fill="#16110D"></path>
                <path d="M34.6548222,71.5582567 C35.0404889,71.7789134 35.0404889,72.1371224 34.6548222,72.3592119 C34.2677111,72.5798687 33.6422667,72.5798687 33.2551556,72.3592119 C32.8709333,72.1371224 32.8709333,71.7789134 33.2551556,71.5582567 C33.6422667,71.3376 34.2677111,71.3376 34.6548222,71.5582567" id="Fill-113" fill="#16110D"></path>
                <path d="M38.311,69.4634507 C38.6966667,69.6841075 38.6966667,70.0437493 38.311,70.2658388 C37.9238889,70.4864955 37.2984444,70.4864955 36.9113333,70.2658388 C36.5271111,70.0437493 36.5271111,69.6841075 36.9113333,69.4634507 C37.2984444,69.242794 37.9238889,69.242794 38.311,69.4634507" id="Fill-115" fill="#16110D"></path>
                <path d="M41.9673222,67.3702209 C42.3529889,67.5908776 42.3529889,67.9490866 41.9673222,68.1711761 C41.5802111,68.3918328 40.9547667,68.3918328 40.5676556,68.1711761 C40.1819889,67.9490866 40.1819889,67.5908776 40.5676556,67.3702209 C40.9547667,67.1495642 41.5802111,67.1495642 41.9673222,67.3702209" id="Fill-117" fill="#16110D"></path>
                <path d="M45.6222,65.2755582 C46.0093111,65.4976478 46.0093111,65.8558567 45.6222,66.0779463 C45.2365333,66.298603 44.6110889,66.298603 44.2239778,66.0779463 C43.8383111,65.8558567 43.8383111,65.4976478 44.2239778,65.2755582 C44.6110889,65.0549015 45.2365333,65.0549015 45.6222,65.2755582" id="Fill-119" fill="#16110D"></path>
                <path d="M49.2783778,63.1823284 C49.6654889,63.4029851 49.6654889,63.761194 49.2783778,63.9832836 C48.8927111,64.2039403 48.2672667,64.2039403 47.8801556,63.9832836 C47.4944889,63.761194 47.4944889,63.4029851 47.8801556,63.1823284 C48.2672667,62.9616716 48.8927111,62.9616716 49.2783778,63.1823284" id="Fill-121" fill="#16110D"></path>
                <path d="M52.9347,61.0889552 C53.3218111,61.3096119 53.3218111,61.6678209 52.9347,61.8899104 C52.5475889,62.1105672 51.9235889,62.1105672 51.5364778,61.8899104 C51.1508111,61.6678209 51.1508111,61.3096119 51.5364778,61.0889552 C51.9235889,60.8682985 52.5475889,60.8682985 52.9347,61.0889552" id="Fill-123" fill="#16110D"></path>
                <path d="M56.5908778,58.9942925 C56.9779889,59.2149493 56.9779889,59.5731582 56.5908778,59.7952478 C56.2037667,60.0173373 55.5797667,60.0173373 55.1926556,59.7952478 C54.8069889,59.5731582 54.8069889,59.2149493 55.1926556,58.9942925 C55.5797667,58.7736358 56.2037667,58.7736358 56.5908778,58.9942925" id="Fill-125" fill="#16110D"></path>
                <path d="M60.2472,56.9010627 C60.6343111,57.1217194 60.6343111,57.4799284 60.2472,57.7020179 C59.8600889,57.9226746 59.2346444,57.9226746 58.8489778,57.7020179 C58.4633111,57.4799284 58.4633111,57.1217194 58.8489778,56.9010627 C59.2346444,56.680406 59.8600889,56.680406 60.2472,56.9010627" id="Fill-127" fill="#16110D"></path>
                <path d="M63.9033778,54.8064 C64.2904889,55.0270567 64.2904889,55.3866985 63.9033778,55.6087881 C63.5162667,55.8294448 62.8908222,55.8294448 62.5051556,55.6087881 C62.1194889,55.3866985 62.1194889,55.0270567 62.5051556,54.8064 C62.8908222,54.5857433 63.5162667,54.5857433 63.9033778,54.8064" id="Fill-129" fill="#16110D"></path>
                <path d="M67.5597,52.7130269 C67.9468111,52.9336836 67.9468111,53.2918925 67.5597,53.5139821 C67.1725889,53.7346388 66.5471444,53.7346388 66.1614778,53.5139821 C65.7758111,53.2918925 65.7758111,52.9336836 66.1614778,52.7130269 C66.5471444,52.4923701 67.1725889,52.4923701 67.5597,52.7130269" id="Fill-131" fill="#16110D"></path>
                <path d="M71.2158778,50.6183642 C71.6029889,50.8390209 71.6029889,51.1986627 71.2158778,51.4207522 C70.8287667,51.641409 70.2033222,51.641409 69.8176556,51.4207522 C69.4319889,51.1986627 69.4319889,50.8390209 69.8176556,50.6183642 C70.2033222,50.3977075 70.8287667,50.3977075 71.2158778,50.6183642" id="Fill-133" fill="#16110D"></path>
                <path d="M74.8722,48.5251343 C75.2593111,48.745791 75.2593111,49.104 74.8722,49.3260896 C74.4850889,49.5467463 73.8596444,49.5467463 73.4725333,49.3260896 C73.0883111,49.104 73.0883111,48.745791 73.4725333,48.5251343 C73.8596444,48.3044776 74.4850889,48.3044776 74.8722,48.5251343" id="Fill-135" fill="#16110D"></path>
                <path d="M78.5283778,46.4317612 C78.9140444,46.6524179 78.9140444,47.0106269 78.5283778,47.2327164 C78.1412667,47.4533731 77.5158222,47.4533731 77.1287111,47.2327164 C76.7444889,47.0106269 76.7444889,46.6524179 77.1287111,46.4317612 C77.5158222,46.2096716 78.1412667,46.2096716 78.5283778,46.4317612" id="Fill-137" fill="#16110D"></path>
                <path d="M82.1847,44.3370985 C82.5703667,44.5577552 82.5703667,44.9159642 82.1847,45.1380537 C81.7975889,45.3587104 81.1721444,45.3587104 80.7850333,45.1380537 C80.4008111,44.9159642 80.4008111,44.5577552 80.7850333,44.3370985 C81.1721444,44.1164418 81.7975889,44.1164418 82.1847,44.3370985" id="Fill-139" fill="#16110D"></path>
                <path d="M25.9387556,71.5609791 C26.3244222,71.3388896 26.9498667,71.3388896 27.3384222,71.5595463 C27.7240889,71.7787701 27.7255333,72.1384119 27.3398667,72.3605015 C26.9542,72.5811582 26.3287556,72.582591 25.9416444,72.3619343 C25.5545333,72.1398448 25.5530889,71.7816358 25.9387556,71.5609791" id="Fill-141" fill="#16110D"></path>
                <path d="M30.9985,69.4634507 C31.3856111,69.6841075 31.3856111,70.0437493 30.9985,70.2658388 C30.6113889,70.4864955 29.9859444,70.4864955 29.5988333,70.2658388 C29.2146111,70.0437493 29.2146111,69.6841075 29.5988333,69.4634507 C29.9859444,69.242794 30.6113889,69.242794 30.9985,69.4634507" id="Fill-143" fill="#16110D"></path>
                <path d="M34.6548222,67.3702209 C35.0404889,67.5908776 35.0404889,67.9490866 34.6548222,68.1711761 C34.2677111,68.3918328 33.6422667,68.3918328 33.2551556,68.1711761 C32.8709333,67.9490866 32.8709333,67.5908776 33.2551556,67.3702209 C33.6422667,67.1495642 34.2677111,67.1495642 34.6548222,67.3702209" id="Fill-145" fill="#16110D"></path>
                <path d="M38.311,65.2755582 C38.6966667,65.4976478 38.6966667,65.8558567 38.311,66.0779463 C37.9238889,66.298603 37.2984444,66.298603 36.9113333,66.0779463 C36.5271111,65.8558567 36.5271111,65.4976478 36.9113333,65.2755582 C37.2984444,65.0549015 37.9238889,65.0549015 38.311,65.2755582" id="Fill-147" fill="#16110D"></path>
                <path d="M41.9673222,63.1823284 C42.3529889,63.4029851 42.3529889,63.761194 41.9673222,63.9832836 C41.5802111,64.2039403 40.9547667,64.2039403 40.5676556,63.9832836 C40.1834333,63.761194 40.1834333,63.4029851 40.5676556,63.1823284 C40.9547667,62.9616716 41.5802111,62.9616716 41.9673222,63.1823284" id="Fill-149" fill="#16110D"></path>
                <path d="M45.6222,61.0889552 C46.0093111,61.3096119 46.0093111,61.6678209 45.6222,61.8899104 C45.2365333,62.1105672 44.6110889,62.1105672 44.2239778,61.8899104 C43.8383111,61.6678209 43.8383111,61.3096119 44.2239778,61.0889552 C44.6110889,60.8682985 45.2365333,60.8682985 45.6222,61.0889552" id="Fill-151" fill="#16110D"></path>
                <path d="M49.2783778,58.9942925 C49.6654889,59.2149493 49.6654889,59.5731582 49.2783778,59.7966806 C48.8927111,60.0173373 48.2672667,60.0173373 47.8801556,59.7966806 C47.4944889,59.5731582 47.4944889,59.2149493 47.8801556,58.9942925 C48.2672667,58.7736358 48.8927111,58.7736358 49.2783778,58.9942925" id="Fill-153" fill="#16110D"></path>
                <path d="M52.9347,56.9010627 C53.3218111,57.1217194 53.3218111,57.4799284 52.9347,57.7020179 C52.5490333,57.9226746 51.9235889,57.9226746 51.5364778,57.7020179 C51.1508111,57.4799284 51.1508111,57.1217194 51.5364778,56.9010627 C51.9235889,56.680406 52.5490333,56.680406 52.9347,56.9010627" id="Fill-155" fill="#16110D"></path>
                <path d="M56.5908778,54.8064 C56.9779889,55.0270567 56.9779889,55.3866985 56.5908778,55.6087881 C56.2037667,55.8294448 55.5797667,55.8294448 55.1926556,55.6087881 C54.8069889,55.3866985 54.8069889,55.0270567 55.1926556,54.8064 C55.5797667,54.5857433 56.2037667,54.5857433 56.5908778,54.8064" id="Fill-157" fill="#16110D"></path>
                <path d="M60.2472,52.7130269 C60.6343111,52.9336836 60.6343111,53.2918925 60.2472,53.5139821 C59.8600889,53.7346388 59.2360889,53.7346388 58.8489778,53.5139821 C58.4633111,53.2918925 58.4633111,52.9336836 58.8489778,52.7130269 C59.2360889,52.4923701 59.8600889,52.4923701 60.2472,52.7130269" id="Fill-159" fill="#16110D"></path>
                <path d="M63.9033778,50.6183642 C64.2904889,50.8390209 64.2904889,51.1986627 63.9033778,51.4207522 C63.5162667,51.641409 62.8908222,51.641409 62.5051556,51.4207522 C62.1194889,51.1986627 62.1194889,50.8390209 62.5051556,50.6183642 C62.8908222,50.3977075 63.5162667,50.3977075 63.9033778,50.6183642" id="Fill-161" fill="#16110D"></path>
                <path d="M67.5597,48.5251343 C67.9468111,48.745791 67.9468111,49.104 67.5597,49.3260896 C67.1725889,49.5467463 66.5471444,49.5467463 66.1614778,49.3260896 C65.7758111,49.104 65.7758111,48.745791 66.1614778,48.5251343 C66.5471444,48.3044776 67.1725889,48.3044776 67.5597,48.5251343" id="Fill-163" fill="#16110D"></path>
                <path d="M71.2158778,46.4317612 C71.6029889,46.6524179 71.6029889,47.0106269 71.2158778,47.2327164 C70.8287667,47.4533731 70.2033222,47.4533731 69.8176556,47.2327164 C69.4319889,47.0106269 69.4319889,46.6524179 69.8176556,46.4317612 C70.2033222,46.2111045 70.8287667,46.2111045 71.2158778,46.4317612" id="Fill-165" fill="#16110D"></path>
                <path d="M74.8722,44.3370985 C75.2593111,44.5577552 75.2593111,44.9159642 74.8722,45.1380537 C74.4850889,45.3587104 73.8596444,45.3587104 73.4725333,45.1380537 C73.0883111,44.9159642 73.0883111,44.5577552 73.4725333,44.3370985 C73.8596444,44.1164418 74.4850889,44.1164418 74.8722,44.3370985" id="Fill-167" fill="#16110D"></path>
                <path d="M78.5283778,42.2438687 C78.9140444,42.4645254 78.9140444,42.8227343 78.5283778,43.0448239 C78.1412667,43.2654806 77.5158222,43.2654806 77.1287111,43.0448239 C76.7444889,42.8227343 76.7444889,42.4645254 77.1287111,42.2438687 C77.5158222,42.0232119 78.1412667,42.0232119 78.5283778,42.2438687" id="Fill-169" fill="#16110D"></path>
                <path d="M22.2515222,69.4452537 C22.6371889,69.2231642 23.2626333,69.2231642 23.6497444,69.4438209 C24.0354111,69.6630448 24.0368556,70.0226866 23.6526333,70.2447761 C23.2669667,70.4654328 22.6415222,70.4668657 22.2544111,70.246209 C21.8658556,70.0241194 21.8658556,69.6659104 22.2515222,69.4452537" id="Fill-171" fill="#16110D"></path>
                <path d="M27.3098222,67.3478687 C27.6969333,67.5685254 27.6969333,67.9281672 27.3098222,68.1502567 C26.9241556,68.3709134 26.2987111,68.3709134 25.9116,68.1502567 C25.5259333,67.9281672 25.5259333,67.5685254 25.9116,67.3478687 C26.2987111,67.1272119 26.9241556,67.1272119 27.3098222,67.3478687" id="Fill-173" fill="#16110D"></path>
                <path d="M30.9661444,65.2544955 C31.3532556,65.4751522 31.3532556,65.8333612 30.9661444,66.0554507 C30.5804778,66.2761075 29.9550333,66.2761075 29.5679222,66.0554507 C29.1822556,65.8333612 29.1822556,65.4751522 29.5679222,65.2544955 C29.9550333,65.0338388 30.5804778,65.0338388 30.9661444,65.2544955" id="Fill-175" fill="#16110D"></path>
                <path d="M34.6223222,63.1598328 C35.0094333,63.3804896 35.0094333,63.7401313 34.6223222,63.9622209 C34.2366556,64.1828776 33.6112111,64.1828776 33.2241,63.9622209 C32.8384333,63.7401313 32.8384333,63.3804896 33.2241,63.1598328 C33.6112111,62.9391761 34.2366556,62.9391761 34.6223222,63.1598328" id="Fill-177" fill="#16110D"></path>
                <path d="M38.2786444,61.066603 C38.6657556,61.2872597 38.6657556,61.6454687 38.2786444,61.8675582 C37.8915333,62.0882149 37.2675333,62.0882149 36.8804222,61.8675582 C36.4947556,61.6454687 36.4947556,61.2872597 36.8804222,61.066603 C37.2675333,60.8459463 37.8915333,60.8459463 38.2786444,61.066603" id="Fill-179" fill="#16110D"></path>
                <path d="M41.9348222,58.9733731 C42.3219333,59.1940299 42.3219333,59.5522388 41.9348222,59.7743284 C41.5477111,59.9949851 40.9237111,59.9949851 40.5366,59.7743284 C40.1509333,59.5522388 40.1509333,59.1940299 40.5366,58.9733731 C40.9237111,58.7512836 41.5477111,58.7512836 41.9348222,58.9733731" id="Fill-181" fill="#16110D"></path>
                <path d="M45.5911444,56.8785672 C45.9782556,57.0992239 45.9782556,57.4574328 45.5911444,57.6795224 C45.2040333,57.9001791 44.5785889,57.9001791 44.1929222,57.6795224 C43.8072556,57.4574328 43.8072556,57.0992239 44.1929222,56.8785672 C44.5785889,56.6579104 45.2040333,56.6579104 45.5911444,56.8785672" id="Fill-183" fill="#16110D"></path>
                <path d="M49.2473222,54.7853373 C49.6344333,55.005994 49.6344333,55.364203 49.2473222,55.5862925 C48.8602111,55.8069493 48.2347667,55.8069493 47.8491,55.5862925 C47.4634333,55.364203 47.4634333,55.005994 47.8491,54.7853373 C48.2347667,54.5646806 48.8602111,54.5646806 49.2473222,54.7853373" id="Fill-185" fill="#16110D"></path>
                <path d="M52.9036444,52.6906746 C53.2907556,52.9113313 53.2907556,53.2695403 52.9036444,53.4930627 C52.5165333,53.7137194 51.8910889,53.7137194 51.5054222,53.4930627 C51.1197556,53.2695403 51.1197556,52.9113313 51.5054222,52.6906746 C51.8910889,52.4700179 52.5165333,52.4700179 52.9036444,52.6906746" id="Fill-187" fill="#16110D"></path>
                <path d="M56.5598222,50.5974448 C56.9469333,50.8181015 56.9469333,51.1763104 56.5598222,51.3984 C56.1727111,51.6190567 55.5472667,51.6190567 55.1601556,51.3984 C54.7759333,51.1763104 54.7759333,50.8181015 55.1601556,50.5974448 C55.5472667,50.3767881 56.1727111,50.3767881 56.5598222,50.5974448" id="Fill-189" fill="#16110D"></path>
                <path d="M60.2161444,48.5026388 C60.6018111,48.7232955 60.6018111,49.0829373 60.2161444,49.3050269 C59.8290333,49.5256836 59.2035889,49.5256836 58.8164778,49.3050269 C58.4322556,49.0829373 58.4322556,48.7232955 58.8164778,48.5026388 C59.2035889,48.2819821 59.8290333,48.2819821 60.2161444,48.5026388" id="Fill-191" fill="#16110D"></path>
                <path d="M63.8723222,46.409409 C64.2579889,46.6300657 64.2579889,46.9882746 63.8723222,47.2103642 C63.4852111,47.4310209 62.8597667,47.4310209 62.4726556,47.2103642 C62.0869889,46.9882746 62.0869889,46.6300657 62.4726556,46.409409 C62.8597667,46.1887522 63.4852111,46.1887522 63.8723222,46.409409" id="Fill-193" fill="#16110D"></path>
                <path d="M67.5272,44.3147463 C67.9143111,44.535403 67.9143111,44.8950448 67.5272,45.1171343 C67.1415333,45.337791 66.5160889,45.337791 66.1289778,45.1171343 C65.7433111,44.8950448 65.7433111,44.535403 66.1289778,44.3147463 C66.5160889,44.0940896 67.1415333,44.0940896 67.5272,44.3147463" id="Fill-195" fill="#16110D"></path>
                <path d="M71.1835222,42.2213731 C71.5706333,42.4420299 71.5706333,42.8002388 71.1835222,43.0223284 C70.7978556,43.2429851 70.1724111,43.2429851 69.7853,43.0223284 C69.3996333,42.8002388 69.3996333,42.4420299 69.7853,42.2213731 C70.1724111,42.0007164 70.7978556,42.0007164 71.1835222,42.2213731" id="Fill-197" fill="#16110D"></path>
                <path d="M74.8397,40.1267104 C75.2268111,40.3488 75.2268111,40.707009 74.8397,40.9290985 C74.4540333,41.1497552 73.8285889,41.1497552 73.4414778,40.9290985 C73.0558111,40.707009 73.0558111,40.3488 73.4414778,40.1267104 C73.8285889,39.9060537 74.4540333,39.9060537 74.8397,40.1267104" id="Fill-199" fill="#16110D"></path>
                <path d="M18.5952,67.350591 C18.9808667,67.1299343 19.6063111,67.1285015 19.9934222,67.3491582 C20.3790889,67.5698149 20.3805333,67.9280239 19.9963111,68.1501134 C19.6106444,68.372203 18.9852,68.372203 18.5980889,68.1529791 C18.2109778,67.9308896 18.2095333,67.5726806 18.5952,67.350591" id="Fill-201" fill="#16110D"></path>
                <path d="M23.6536444,65.2544955 C24.0407556,65.4751522 24.0407556,65.8333612 23.6536444,66.0554507 C23.2679778,66.2761075 22.6425333,66.2761075 22.2554222,66.0554507 C21.8697556,65.8333612 21.8697556,65.4751522 22.2554222,65.2544955 C22.6425333,65.0338388 23.2679778,65.0338388 23.6536444,65.2544955" id="Fill-203" fill="#16110D"></path>
                <path d="M27.3098222,63.1598328 C27.6969333,63.3804896 27.6969333,63.7401313 27.3098222,63.9622209 C26.9241556,64.1828776 26.2987111,64.1828776 25.9116,63.9622209 C25.5259333,63.7401313 25.5259333,63.3804896 25.9116,63.1598328 C26.2987111,62.9391761 26.9241556,62.9391761 27.3098222,63.1598328" id="Fill-205" fill="#16110D"></path>
                <path d="M30.9661444,61.066603 C31.3532556,61.2872597 31.3532556,61.6454687 30.9661444,61.8675582 C30.5804778,62.0882149 29.9550333,62.0882149 29.5679222,61.8675582 C29.1822556,61.6454687 29.1822556,61.2872597 29.5679222,61.066603 C29.9550333,60.8459463 30.5804778,60.8459463 30.9661444,61.066603" id="Fill-207" fill="#16110D"></path>
                <path d="M34.6223222,58.9733731 C35.0094333,59.1940299 35.0094333,59.5522388 34.6223222,59.7743284 C34.2366556,59.9949851 33.6112111,59.9949851 33.2241,59.7743284 C32.8384333,59.5522388 32.8384333,59.1940299 33.2241,58.9733731 C33.6112111,58.7512836 34.2366556,58.7512836 34.6223222,58.9733731" id="Fill-209" fill="#16110D"></path>
                <path d="M38.2786444,56.8785672 C38.6657556,57.0992239 38.6657556,57.4574328 38.2786444,57.6795224 C37.8915333,57.9001791 37.2675333,57.9001791 36.8804222,57.6795224 C36.4947556,57.4574328 36.4947556,57.0992239 36.8804222,56.8785672 C37.2675333,56.6579104 37.8915333,56.6579104 38.2786444,56.8785672" id="Fill-211" fill="#16110D"></path>
                <path d="M40.5370333,54.7853373 C40.9241444,54.5646806 41.5481444,54.5646806 41.9352556,54.7853373 C42.3209222,55.005994 42.3209222,55.364203 41.9352556,55.5862925 C41.5481444,55.8069493 40.9241444,55.8069493 40.5370333,55.5862925 C40.1499222,55.364203 40.1499222,55.005994 40.5370333,54.7853373 C40.9241444,54.5646806 40.1499222,55.005994 40.5370333,54.7853373" id="Fill-213" fill="#16110D"></path>
                <path d="M45.5911444,52.6906746 C45.9782556,52.9113313 45.9782556,53.2695403 45.5911444,53.4930627 C45.2040333,53.7137194 44.5785889,53.7137194 44.1929222,53.4930627 C43.8072556,53.2695403 43.8072556,52.9113313 44.1929222,52.6906746 C44.5785889,52.4700179 45.2040333,52.4700179 45.5911444,52.6906746" id="Fill-215" fill="#16110D"></path>
                <path d="M49.2473222,50.5974448 C49.6344333,50.8181015 49.6344333,51.1763104 49.2473222,51.3984 C48.8602111,51.6190567 48.2347667,51.6190567 47.8491,51.3984 C47.4634333,51.1763104 47.4634333,50.8181015 47.8491,50.5974448 C48.2347667,50.3767881 48.8602111,50.3767881 49.2473222,50.5974448" id="Fill-217" fill="#16110D"></path>
                <path d="M52.9036444,48.5026388 C53.2907556,48.7232955 53.2907556,49.0829373 52.9036444,49.3050269 C52.5165333,49.5256836 51.8910889,49.5256836 51.5054222,49.3050269 C51.1197556,49.0829373 51.1197556,48.7232955 51.5054222,48.5026388 C51.8910889,48.2819821 52.5165333,48.2819821 52.9036444,48.5026388" id="Fill-219" fill="#16110D"></path>
                <path d="M56.5598222,46.409409 C56.9469333,46.6300657 56.9469333,46.9882746 56.5598222,47.2103642 C56.1727111,47.4310209 55.5472667,47.4310209 55.1601556,47.2103642 C54.7759333,46.9882746 54.7759333,46.6300657 55.1601556,46.409409 C55.5472667,46.1887522 56.1727111,46.1887522 56.5598222,46.409409" id="Fill-221" fill="#16110D"></path>
                <path d="M60.2161444,44.3147463 C60.6018111,44.535403 60.6018111,44.8950448 60.2161444,45.1171343 C59.8290333,45.337791 59.2035889,45.337791 58.8164778,45.1171343 C58.4322556,44.8950448 58.4322556,44.535403 58.8164778,44.3147463 C59.2035889,44.0940896 59.8290333,44.0940896 60.2161444,44.3147463" id="Fill-223" fill="#16110D"></path>
                <path d="M63.8723222,42.2213731 C64.2579889,42.4420299 64.2579889,42.8002388 63.8723222,43.0223284 C63.4852111,43.2429851 62.8597667,43.2429851 62.4726556,43.0223284 C62.0884333,42.8002388 62.0884333,42.4420299 62.4726556,42.2213731 C62.8597667,42.0007164 63.4852111,42.0007164 63.8723222,42.2213731" id="Fill-225" fill="#16110D"></path>
                <path d="M67.5286444,40.1267104 C67.9143111,40.3488 67.9143111,40.707009 67.5286444,40.9290985 C67.1415333,41.1497552 66.5160889,41.1497552 66.1289778,40.9290985 C65.7433111,40.707009 65.7433111,40.3488 66.1289778,40.1267104 C66.5160889,39.9060537 67.1415333,39.9060537 67.5286444,40.1267104" id="Fill-227" fill="#16110D"></path>
                <path d="M14.9390222,65.2573612 C15.3246889,65.0352716 15.9501333,65.0352716 16.3372444,65.2559284 C16.7243556,65.4751522 16.7243556,65.834794 16.3401333,66.0568836 C15.9544667,66.2775403 15.3290222,66.2789731 14.9419111,66.0583164 C14.5548,65.8362269 14.5533556,65.4780179 14.9390222,65.2573612" id="Fill-229" fill="#16110D"></path>
                <path d="M19.9987667,63.1598328 C20.3844333,63.3804896 20.3844333,63.7401313 19.9987667,63.9622209 C19.6116556,64.1828776 18.9862111,64.1828776 18.5991,63.9622209 C18.2134333,63.7401313 18.2134333,63.3804896 18.5991,63.1598328 C18.9862111,62.9391761 19.6116556,62.9391761 19.9987667,63.1598328" id="Fill-231" fill="#16110D"></path>
                <path d="M23.6536444,61.066603 C24.0407556,61.2872597 24.0407556,61.6454687 23.6536444,61.8675582 C23.2679778,62.0882149 22.6425333,62.0882149 22.2554222,61.8675582 C21.8697556,61.6454687 21.8697556,61.2872597 22.2554222,61.066603 C22.6425333,60.8459463 23.2679778,60.8459463 23.6536444,61.066603" id="Fill-233" fill="#16110D"></path>
                <path d="M27.3098222,58.9733731 C27.6969333,59.1940299 27.6969333,59.5522388 27.3098222,59.7743284 C26.9241556,59.9949851 26.2987111,59.9949851 25.9116,59.7743284 C25.5259333,59.5522388 25.5259333,59.1940299 25.9116,58.9733731 C26.2987111,58.7512836 26.9241556,58.7512836 27.3098222,58.9733731" id="Fill-235" fill="#16110D"></path>
                <path d="M11.2827,63.1626985 C11.6683667,62.9420418 12.2938111,62.940609 12.6809222,63.1612657 C13.0680333,63.3819224 13.0694778,63.7401313 12.6838111,63.9636537 C12.2981444,64.1843104 11.6727,64.1843104 11.2855889,63.9650866 C10.8984778,63.742997 10.8970333,63.3847881 11.2827,63.1626985" id="Fill-237" fill="#16110D"></path>
                <path d="M16.3425889,61.066603 C16.7297,61.2872597 16.7297,61.6454687 16.3425889,61.8675582 C15.9554778,62.0882149 15.3300333,62.0882149 14.9429222,61.8675582 C14.5587,61.6454687 14.5587,61.2872597 14.9429222,61.066603 C15.3300333,60.8459463 15.9554778,60.8459463 16.3425889,61.066603" id="Fill-239" fill="#16110D"></path>
                <g id="Group-243" transform="translate(83.777778, 91.717684)">
                    <mask id="mask-2" fill="white">
                        <use xlink:href="#path-1"></use>
                    </mask>
                    <g id="Clip-242"></g>
                    <path d="M2.23657778,0.465528358 C2.62368889,0.686185075 2.62368889,1.04582687 2.23657778,1.26791642 C1.85091111,1.48857313 1.22546667,1.48857313 0.838355556,1.26791642 C0.452688889,1.04582687 0.452688889,0.686185075 0.838355556,0.465528358 C1.22546667,0.244871642 1.85091111,0.244871642 2.23657778,0.465528358" id="Fill-241" fill="#16110D" mask="url(#mask-2)"></path>
                </g>
                <g id="Group-246" transform="translate(86.666667, 88.852012)">
                    <mask id="mask-4" fill="white">
                        <use xlink:href="#path-3"></use>
                    </mask>
                    <g id="Clip-245"></g>
                    <path d="M3.00401111,1.23797015 C3.39112222,1.45862687 3.39112222,1.81683582 3.00401111,2.03892537 C2.6169,2.25958209 1.9929,2.25958209 1.60578889,2.03892537 C1.22012222,1.81683582 1.22012222,1.45862687 1.60578889,1.23797015 C1.9929,1.01731343 2.6169,1.01731343 3.00401111,1.23797015" id="Fill-244" fill="#16110D" mask="url(#mask-4)"></path>
                </g>
                <g id="Group-249" transform="translate(76.555556, 91.717684)">
                    <mask id="mask-6" fill="white">
                        <use xlink:href="#path-5"></use>
                    </mask>
                    <g id="Clip-248"></g>
                    <path d="M2.1463,0.465528358 C2.53341111,0.686185075 2.53341111,1.04582687 2.1463,1.26791642 C1.76063333,1.48857313 1.13518889,1.48857313 0.748077778,1.26791642 C0.362411111,1.04582687 0.362411111,0.686185075 0.748077778,0.465528358 C1.13518889,0.244871642 1.76063333,0.244871642 2.1463,0.465528358" id="Fill-247" fill="#16110D" mask="url(#mask-6)"></path>
                </g>
                <path d="M82.3581778,90.0899821 C82.7452889,90.3106388 82.7452889,90.6688478 82.3581778,90.8909373 C81.9725111,91.111594 81.3470667,91.111594 80.9599556,90.8909373 C80.5742889,90.6688478 80.5742889,90.3106388 80.9599556,90.0899821 C81.3470667,89.8693254 81.9725111,89.8693254 82.3581778,90.0899821" id="Fill-250" fill="#16110D"></path>
                <path d="M86.0143556,87.996609 C86.4014667,88.2172657 86.4014667,88.5754746 86.0143556,88.7975642 C85.6286889,89.0182209 85.0032444,89.0182209 84.6161333,88.7975642 C84.2304667,88.5754746 84.2304667,88.2172657 84.6161333,87.996609 C85.0032444,87.7759522 85.6286889,87.7759522 86.0143556,87.996609" id="Fill-252" fill="#16110D"></path>
                <g id="Group-256" transform="translate(86.666667, 84.553504)">
                    <mask id="mask-8" fill="white">
                        <use xlink:href="#path-7"></use>
                    </mask>
                    <g id="Clip-255"></g>
                    <path d="M3.00401111,1.34844179 C3.39112222,1.56909851 3.39112222,1.92730746 3.00401111,2.14939701 C2.6169,2.37005373 1.9929,2.37005373 1.60578889,2.14939701 C1.22012222,1.92730746 1.22012222,1.56909851 1.60578889,1.34844179 C1.9929,1.12778507 2.6169,1.12778507 3.00401111,1.34844179" id="Fill-254" fill="#16110D" mask="url(#mask-8)"></path>
                </g>
                <path d="M75.0471222,90.0899821 C75.4327889,90.3106388 75.4327889,90.6688478 75.0471222,90.8909373 C74.6600111,91.111594 74.0345667,91.111594 73.6474556,90.8909373 C73.2617889,90.6688478 73.2617889,90.3106388 73.6474556,90.0899821 C74.0345667,89.8693254 74.6600111,89.8693254 75.0471222,90.0899821" id="Fill-257" fill="#16110D"></path>
                <path d="M78.7018556,87.996609 C79.0889667,88.2172657 79.0889667,88.5754746 78.7018556,88.7975642 C78.3161889,89.0182209 77.6907444,89.0182209 77.3036333,88.7975642 C76.9179667,88.5754746 76.9179667,88.2172657 77.3036333,87.996609 C77.6907444,87.7759522 78.3161889,87.7759522 78.7018556,87.996609" id="Fill-259" fill="#16110D"></path>
                <path d="M82.3581778,85.9019463 C82.7452889,86.122603 82.7452889,86.4808119 82.3581778,86.7029015 C81.9725111,86.9235582 81.3470667,86.9235582 80.9599556,86.7029015 C80.5742889,86.4808119 80.5742889,86.122603 80.9599556,85.9019463 C81.3470667,85.6812896 81.9725111,85.6812896 82.3581778,85.9019463" id="Fill-261" fill="#16110D"></path>
                <path d="M86.0143556,83.8087164 C86.4014667,84.0293731 86.4014667,84.3875821 86.0143556,84.6096716 C85.6286889,84.8303284 85.0032444,84.8303284 84.6161333,84.6096716 C84.2304667,84.3875821 84.2304667,84.0293731 84.6161333,83.8087164 C85.0032444,83.5880597 85.6286889,83.5880597 86.0143556,83.8087164" id="Fill-263" fill="#16110D"></path>
                <path d="M71.3908,87.996609 C71.7764667,88.2172657 71.7764667,88.5754746 71.3908,88.7975642 C71.0036889,89.0182209 70.3782444,89.0182209 69.9911333,88.7975642 C69.6069111,88.5754746 69.6069111,88.2172657 69.9911333,87.996609 C70.3782444,87.7759522 71.0036889,87.7759522 71.3908,87.996609" id="Fill-265" fill="#16110D"></path>
                <path d="M75.0471222,85.9019463 C75.4327889,86.122603 75.4327889,86.4808119 75.0471222,86.7029015 C74.6600111,86.9235582 74.0345667,86.924991 73.6474556,86.7029015 C73.2632333,86.4808119 73.2632333,86.122603 73.6474556,85.9019463 C74.0345667,85.6812896 74.6600111,85.6812896 75.0471222,85.9019463" id="Fill-267" fill="#16110D"></path>
                <path d="M78.7033,83.8087164 C79.0889667,84.0293731 79.0889667,84.3875821 78.7033,84.6096716 C78.3161889,84.8303284 77.6907444,84.8303284 77.3036333,84.6096716 C76.9179667,84.3875821 76.9179667,84.0293731 77.3036333,83.8087164 C77.6907444,83.5880597 78.3161889,83.5880597 78.7033,83.8087164" id="Fill-269" fill="#16110D"></path>
                <path d="M82.3581778,82.5157254 C81.9725111,82.7363821 81.3470667,82.7363821 80.9599556,82.5157254 C80.5742889,82.2950687 80.5742889,81.9354269 80.9599556,81.7133373 C81.3470667,81.4926806 82.7452889,82.2950687 82.3581778,82.5157254" id="Fill-271" fill="#16110D"></path>
                <path d="M67.7346222,85.9019463 C68.1217333,86.122603 68.1217333,86.4808119 67.7346222,86.7029015 C67.3475111,86.924991 66.7220667,86.924991 66.3349556,86.7029015 C65.9507333,86.4808119 65.9507333,86.122603 66.3349556,85.9019463 C66.7220667,85.6812896 67.3475111,85.6812896 67.7346222,85.9019463" id="Fill-273" fill="#16110D"></path>
                <path d="M71.3908,83.8087164 C71.7764667,84.0293731 71.7764667,84.3875821 71.3908,84.6096716 C71.0036889,84.8303284 70.3782444,84.8303284 69.9911333,84.6096716 C69.6069111,84.3875821 69.6069111,84.0293731 69.9911333,83.8087164 C70.3782444,83.5880597 71.0036889,83.5880597 71.3908,83.8087164" id="Fill-275" fill="#16110D"></path>
                <path d="M75.0471222,81.7139104 C75.4327889,81.9345672 75.4327889,82.294209 75.0471222,82.5162985 C74.6600111,82.7369552 74.0345667,82.7369552 73.6474556,82.5162985 C73.2632333,82.294209 73.2632333,81.9345672 73.6474556,81.7139104 C74.0345667,81.4932537 74.6600111,81.4932537 75.0471222,81.7139104" id="Fill-277" fill="#16110D"></path>
                <path d="M78.7033,80.4210627 C78.3161889,80.6417194 77.6907444,80.6417194 77.3036333,80.4210627 C76.9179667,80.200406 76.9179667,79.842197 77.3036333,79.6201075 C77.6907444,79.3994507 79.0889667,80.200406 78.7033,80.4210627" id="Fill-279" fill="#16110D"></path>
                <path d="M64.0458,83.7862209 C64.4329111,84.0068776 64.4329111,84.3650866 64.0458,84.5871761 C63.6601333,84.8078328 63.0346889,84.8078328 62.6475778,84.5871761 C62.2619111,84.3650866 62.2619111,84.0068776 62.6475778,83.7862209 C63.0346889,83.5655642 63.6601333,83.5655642 64.0458,83.7862209" id="Fill-281" fill="#16110D"></path>
                <path d="M67.7021222,81.692991 C68.0892333,81.9136478 68.0892333,82.2718567 67.7021222,82.4939463 C67.3164556,82.714603 66.6910111,82.714603 66.3039,82.4939463 C65.9182333,82.2718567 65.9182333,81.9136478 66.3039,81.692991 C66.6910111,81.4709015 67.3164556,81.4709015 67.7021222,81.692991" id="Fill-283" fill="#16110D"></path>
                <path d="M71.3583,79.5983284 C71.7454111,79.8189851 71.7454111,80.177194 71.3583,80.3992836 C70.9711889,80.6213731 70.3471889,80.6213731 69.9600778,80.3992836 C69.5744111,80.177194 69.5744111,79.8189851 69.9600778,79.5983284 C70.3471889,79.3776716 70.9711889,79.3776716 71.3583,79.5983284" id="Fill-285" fill="#16110D"></path>
                <path d="M75.0146222,78.3053373 C74.6275111,78.525994 74.0035111,78.525994 73.6164,78.3053373 C73.2307333,78.0846806 73.2307333,77.7264716 73.6164,77.5043821 C74.0035111,77.2837254 75.4017333,78.0846806 75.0146222,78.3053373" id="Fill-287" fill="#16110D"></path>
                <path d="M60.3896222,81.692991 C60.7767333,81.9136478 60.7767333,82.2718567 60.3896222,82.4939463 C60.0039556,82.714603 59.3785111,82.714603 58.9914,82.4939463 C58.6057333,82.2718567 58.6057333,81.9136478 58.9914,81.692991 C59.3785111,81.4723343 60.0039556,81.4723343 60.3896222,81.692991" id="Fill-289" fill="#16110D"></path>
                <path d="M64.0458,79.5983284 C64.4329111,79.8189851 64.4329111,80.177194 64.0458,80.4007164 C63.6601333,80.6213731 63.0346889,80.6213731 62.6475778,80.4007164 C62.2619111,80.177194 62.2619111,79.8189851 62.6475778,79.5983284 C63.0346889,79.3776716 63.6601333,79.3776716 64.0458,79.5983284" id="Fill-291" fill="#16110D"></path>
                <path d="M67.7021222,77.5049552 C68.0892333,77.7256119 68.0892333,78.0838209 67.7021222,78.3059104 C67.3164556,78.5265672 66.6910111,78.5265672 66.3039,78.3059104 C65.9182333,78.0838209 65.9182333,77.7256119 66.3039,77.5049552 C66.6910111,77.2842985 67.3164556,77.2842985 67.7021222,77.5049552" id="Fill-293" fill="#16110D"></path>
                <path d="M71.3583,75.4102925 C71.7454111,75.6309493 71.7454111,75.990591 71.3583,76.2126806 C70.9711889,76.4333373 70.3471889,76.4333373 69.9600778,76.2126806 C69.5744111,75.990591 69.5744111,75.6309493 69.9600778,75.4102925 C70.3471889,75.1896358 70.9711889,75.1896358 71.3583,75.4102925" id="Fill-295" fill="#16110D"></path>
                <path d="M53.0785667,81.692991 C53.4642333,81.9136478 53.4642333,82.2718567 53.0785667,82.4939463 C52.6914556,82.714603 52.0660111,82.714603 51.6789,82.4939463 C51.2946778,82.2718567 51.2946778,81.9136478 51.6789,81.692991 C52.0660111,81.4723343 52.6914556,81.4723343 53.0785667,81.692991" id="Fill-297" fill="#16110D"></path>
                <path d="M56.7347444,79.5983284 C57.1204111,79.8189851 57.1204111,80.177194 56.7347444,80.4007164 C56.3476333,80.6213731 55.7221889,80.6213731 55.3350778,80.4007164 C54.9494111,80.177194 54.9494111,79.8189851 55.3350778,79.5983284 C55.7221889,79.3776716 56.3476333,79.3776716 56.7347444,79.5983284" id="Fill-299" fill="#16110D"></path>
                <path d="M60.3896222,77.5049552 C60.7767333,77.7256119 60.7767333,78.0838209 60.3896222,78.3059104 C60.0039556,78.5265672 59.3785111,78.5265672 58.9914,78.3059104 C58.6057333,78.0838209 58.6057333,77.7256119 58.9914,77.5049552 C59.3785111,77.2842985 60.0039556,77.2842985 60.3896222,77.5049552" id="Fill-301" fill="#16110D"></path>
                <path d="M64.0458,75.4102925 C64.4329111,75.6309493 64.4329111,75.990591 64.0458,76.2126806 C63.6601333,76.4333373 63.0346889,76.4333373 62.6475778,76.2126806 C62.2619111,75.990591 62.2619111,75.6309493 62.6475778,75.4102925 C63.0346889,75.1896358 63.6601333,75.1896358 64.0458,75.4102925" id="Fill-303" fill="#16110D"></path>
                <path d="M67.7021222,73.3170627 C68.0892333,73.5377194 68.0892333,73.8959284 67.7021222,74.1180179 C67.3164556,74.3386746 66.6910111,74.3386746 66.3039,74.1180179 C65.9182333,73.8959284 65.9182333,73.5377194 66.3039,73.3170627 C66.6910111,73.096406 67.3164556,73.096406 67.7021222,73.3170627" id="Fill-305" fill="#16110D"></path>
                <path d="M44.3625,81.6958567 C44.7481667,81.4737672 45.3736111,81.4737672 45.7607222,81.692991 C46.1478333,81.9136478 46.1492778,82.2718567 45.7636111,82.4953791 C45.3779444,82.7160358 44.7525,82.7174687 44.3653889,82.4968119 C43.9782778,82.2747224 43.9768333,81.9165134 44.3625,81.6958567" id="Fill-307" fill="#16110D"></path>
                <path d="M49.4222444,79.5983284 C49.8093556,79.8189851 49.8093556,80.177194 49.4222444,80.4007164 C49.0351333,80.6213731 48.4096889,80.6213731 48.0225778,80.4007164 C47.6383556,80.177194 47.6383556,79.8189851 48.0225778,79.5983284 C48.4096889,79.3776716 49.0351333,79.3776716 49.4222444,79.5983284" id="Fill-309" fill="#16110D"></path>
                <path d="M53.0785667,77.5049552 C53.4642333,77.7256119 53.4642333,78.0838209 53.0785667,78.3059104 C52.6914556,78.5265672 52.0660111,78.5265672 51.6789,78.3059104 C51.2946778,78.0838209 51.2946778,77.7256119 51.6789,77.5049552 C52.0660111,77.2842985 52.6914556,77.2842985 53.0785667,77.5049552" id="Fill-311" fill="#16110D"></path>
                <path d="M56.7347444,75.4102925 C57.1204111,75.6309493 57.1204111,75.990591 56.7347444,76.2126806 C56.3476333,76.4333373 55.7221889,76.4333373 55.3350778,76.2126806 C54.9508556,75.990591 54.9508556,75.6309493 55.3350778,75.4102925 C55.7221889,75.1896358 56.3476333,75.1896358 56.7347444,75.4102925" id="Fill-313" fill="#16110D"></path>
                <path d="M60.3910667,73.3170627 C60.7767333,73.5377194 60.7767333,73.8959284 60.3910667,74.1180179 C60.0039556,74.3386746 59.3785111,74.3386746 58.9914,74.1180179 C58.6057333,73.8959284 58.6057333,73.5377194 58.9914,73.3170627 C59.3785111,73.096406 60.0039556,73.096406 60.3910667,73.3170627" id="Fill-315" fill="#16110D"></path>
                <path d="M64.0458,71.2224 C64.4329111,71.4430567 64.4329111,71.8026985 64.0458,72.0247881 C63.6601333,72.2454448 63.0346889,72.2454448 62.6475778,72.0247881 C62.2619111,71.8026985 62.2619111,71.4430567 62.6475778,71.2224 C63.0346889,71.0017433 63.6601333,71.0017433 64.0458,71.2224" id="Fill-317" fill="#16110D"></path>
                <polygon id="Fill-319" fill="#0066FF" points="46.1778778 38.6855642 46.1778778 9.53881791 62.9392111 19.1373851 62.9392111 48.2841313"></polygon>
                <polygon id="Fill-321" fill="#0066FF" points="46.1778778 9.53910448 61.4904333 0.810268657 78.2503222 10.4088358 62.9392111 19.1376716"></polygon>
                <polygon id="Fill-323" fill="#FFFFFF" points="46.4191 13.6136597 61.4904333 5.0295403 78.2503222 14.6281075 62.7976556 22.9571821"></polygon>
                <path d="M47.5983444,9.54053731 L61.4881222,1.62268657 L76.8295667,10.4088358 L62.9397889,18.3266866 L47.5983444,9.54053731 Z M62.2305667,47.0665075 L46.8876778,38.281791 L46.8876778,10.7570149 L62.2305667,19.5431642 L62.2305667,47.0665075 Z M61.4895667,0.00071641791 L45.4692333,9.1321791 L45.4692333,39.0913433 L62.9383444,49.095403 L78.9586778,39.9625075 L78.9586778,10.0033433 L61.4895667,0.00071641791 Z" id="Fill-325" fill="#16110D"></path>
                <polygon id="Fill-327" fill="#0066FF" points="24.2672444 50.8170985 24.2672444 33.4740537 41.0285778 43.0726209 41.0285778 60.4156657"></polygon>
                <polygon id="Fill-329" fill="#0066FF" points="24.2672444 33.4733373 39.5798 24.7459343 56.3396889 34.3445015 41.0285778 43.0719045"></polygon>
                <polygon id="Fill-331" fill="#FFFFFF" points="24.5084667 37.5493254 39.5798 28.9637731 56.3396889 38.5623403 40.8870222 46.8928478"></polygon>
                <path d="M25.6877111,33.4760597 L39.5774889,25.558209 L54.9189333,34.3429254 L41.0291556,42.262209 L25.6877111,33.4760597 Z M40.3199333,59.1983284 L24.9770444,50.4121791 L24.9770444,34.6925373 L40.3199333,43.4786866 L40.3199333,59.1983284 Z M39.5789333,23.934806 L23.5586,33.0677015 L23.5586,51.2231642 L41.0277111,61.2272239 L57.0480444,52.0943284 L57.0480444,33.9388657 L39.5789333,23.934806 Z" id="Fill-333" fill="#16110D"></path>
                <polygon id="Fill-335" fill="#0066FF" points="2.17316667 63.1654209 2.17605556 55.4596299 18.9359444 65.058197 18.9330556 72.7639881"></polygon>
                <polygon id="Fill-337" fill="#0066FF" points="2.17591111 55.4597731 17.4884667 46.7309373 34.2483556 56.3295045 18.9372444 65.0583403"></polygon>
                <polygon id="Fill-339" fill="#FFFFFF" points="2.41713333 59.5344716 17.4884667 50.9503522 34.2483556 60.5474866 18.7956889 68.877994"></polygon>
                <path d="M3.59637778,55.461206 L17.4861556,47.5433552 L32.8276,56.3280716 L18.9378222,64.2473552 L3.59637778,55.461206 Z M18.2242667,71.5490866 L2.88137778,62.7615045 L2.88571111,56.6776836 L18.2286,65.4638328 L18.2242667,71.5490866 Z M17.4890444,45.9199522 L1.46726667,55.0528478 L1.46293333,63.5710567 L18.9320444,73.5765493 L34.9538222,64.4436537 L34.9567111,55.9240119 L17.4890444,45.9199522 Z" id="Fill-341" fill="#16110D"></path>
                <path d="M68.5484222,60.5320119 L68.6249778,55.3336836 L66.3283111,55.3007284 C66.3080889,55.2749373 66.2864222,55.2505791 66.2662,55.2262209 L64.3465333,60.670997 L63.5665333,60.6595343 L61.6006444,63.2887881 L53.0004222,66.6616836 L41.0144222,67.7979224 L32.2943111,66.3636537 L24.2458667,59.6178627 C24.2848667,59.3957731 24.3426444,59.1751164 24.4033111,58.9544597 L22.0315333,54.5628179 C22.0026444,54.5957731 21.9723111,54.6287284 21.9434222,54.6602507 L19.6092,54.6272955 L19.5239778,60.5119522 C19.5210889,60.583594 19.5196444,60.6566687 19.5196444,60.7283104 L19.5167556,60.9976836 L19.5499778,61.4346985 C19.8359778,64.7588776 22.1658667,68.0572657 26.5569778,70.6578627 C36.0570889,76.2817433 51.5892,76.5052657 61.2496444,71.1579224 C65.7144222,68.6848478 68.1396444,65.4552358 68.5224222,62.1396537 L68.5238667,62.1396537 L68.5556444,62.032191 C68.5903111,61.3186388 68.5917556,61.0607284 68.5484222,60.5320119" id="Fill-343" fill="#0066FF"></path>
                <path d="M20.2554444,55.2876896 L20.1702222,61.0061373 L20.2034444,61.3829731 C20.4807778,64.6140179 22.8568889,67.7103761 26.8926667,70.0989134 C36.1977778,75.6081672 51.467,75.8288239 60.9295556,70.5903761 C65.0346667,68.3178985 67.4974444,65.2888836 67.8715556,62.0635701 L67.9033333,61.9217194 C67.9336667,61.3013015 67.9351111,61.0634507 67.8946667,60.5863164 L67.8917778,60.5218388 L67.9596667,55.9740179 L66.7015556,55.9568239 L64.8107778,61.3285254 L63.8935556,61.3156299 L62.0157778,63.8245254 L53.0645556,67.3091821 L40.9904444,68.4525851 L32.0103333,66.9753313 L23.5357778,59.8727642 L23.6007778,59.5045254 C23.6296667,59.3469134 23.6628889,59.1921672 23.7047778,59.0345552 L21.6897778,55.3091821 L20.2554444,55.2876896 Z M44.4672222,75.6626149 C37.856,75.6626149 31.213,74.1724657 26.221,71.2165254 C21.8111111,68.6073313 19.2111111,65.1527642 18.8976667,61.489003 L18.863,61.0491224 L18.9612222,53.9680478 L21.6435556,54.0067343 L22.0667778,53.5109731 L22.6098889,54.2546149 L25.1073333,58.879809 L25.0365556,59.1319881 C25.012,59.2122269 24.9903333,59.2924657 24.9701111,59.3741373 L32.5808889,65.7516896 L41.0381111,67.1415403 L52.8464444,66.0224955 L61.1852222,62.7513313 L63.2406667,60.0045851 L63.882,60.0146149 L66.0298889,53.9178985 L66.6394444,54.655809 L69.29,54.6930627 L69.2047778,60.5103761 C69.2495556,61.0562866 69.2466667,61.3414209 69.2091111,62.0635701 L69.1874444,62.2039881 C68.7512222,65.8663164 66.0501111,69.2435104 61.5708889,71.7266149 C56.8172222,74.3558687 50.6566667,75.6626149 44.4672222,75.6626149 Z" id="Fill-345" fill="#16110D"></path>
                <path d="M21.4601111,55.2779463 C22.3845556,56.546006 23.4404444,57.9903045 24.336,59.2125134 C24.9181111,56.8125134 26.8348889,54.5128119 30.0921111,52.7088716 C37.9296667,48.3702448 50.5338889,48.5507821 58.2428889,53.1143642 C61.412,54.9913791 63.258,57.3168716 63.791,59.7068418 L66.4718889,55.490006 C66.2118889,55.1532896 65.9316667,54.8223045 65.624,54.4941851 C66.209,54.7520955 66.6134444,54.9369313 66.7708889,55.018603 L66.7752222,55.0114388 C65.9952222,54.2491701 59.7725556,45.356991 59.7725556,45.356991 L45.5736667,41.8537075 L32.344,43.5587821 L23.6932222,50.4908418 L23.0822222,53.2160955 L22.1231111,53.5370507 C21.3373333,54.2233791 22.0118889,54.5357373 21.4601111,55.2779463" id="Fill-347" fill="#16110D"></path>
                <path d="M43.7080222,48.9336358 C49.0972444,48.9336358 54.5110222,50.1486806 58.5785778,52.5558448 C61.2435778,54.133397 63.0866889,56.0576955 63.9851333,58.1797254 L65.6693556,55.5318448 C65.5046889,55.3326806 65.3284667,55.1335164 65.1450222,54.9372179 L62.9480222,52.6002627 L64.6755778,53.3625313 C62.8483556,50.8736955 60.1299111,47.003606 59.3759111,45.9289791 L45.5381333,42.5159642 L32.6118,44.1809194 L24.2845778,50.8550687 L23.6418,53.7135761 L22.4660222,54.1090388 C22.3576889,54.2179343 22.3576889,54.2680836 22.3605778,54.4443224 C22.3649111,54.6406209 22.3692444,54.909994 22.2363556,55.2323821 C22.8444667,56.0662925 23.4973556,56.9603821 24.1170222,57.8057552 C25.0458,55.6278448 26.9770222,53.6892179 29.7734667,52.1417552 C33.6431333,49.9982328 38.6654667,48.9336358 43.7080222,48.9336358 Z M63.4940222,61.3907104 L63.1502444,59.8461134 C62.6345778,57.5335164 60.8232444,55.4000239 57.9069111,53.6734567 C50.3885778,49.2216358 38.0544667,49.045397 30.4119111,53.2765612 C27.4175778,54.9343522 25.5383556,57.0391881 24.9735778,59.3646806 L24.6428,60.7344716 L23.8064667,59.5939343 C22.9109111,58.3717254 21.8521333,56.925994 20.9276889,55.6579343 L20.6474667,55.2725015 L20.9320222,54.8899343 C21.0519111,54.7280239 21.0519111,54.6563821 21.0475778,54.4615164 C21.0432444,54.037397 21.0880222,53.5760239 21.6903556,53.0487403 L21.9128,52.9212179 L22.5223556,52.7177552 L23.1030222,50.1286209 L32.0759111,42.9372179 L45.6132444,41.1934567 L60.1718,44.7841433 L60.3133556,44.9847403 C62.7039111,48.4049194 66.6992444,54.0245015 67.2351333,54.5474866 L67.6366889,54.9400836 L67.2654667,55.4501731 L67.2698,55.4544716 L63.4940222,61.3907104 Z" id="Fill-349" fill="#16110D"></path>
                <path d="M64.8936889,74.3511403 L68.6232444,67.9821851 L64.3101333,65.2024836 C64.2855778,65.1867224 64.2624667,65.1695284 64.2364667,65.1552 C63.7670222,64.8886925 63.1184667,64.9230806 62.3962444,65.321409 C60.9344667,66.132394 59.7283556,68.1354985 59.7038,69.7975881 C59.6922444,70.5326328 59.9161333,71.0771104 60.2916889,71.386603 C60.3595778,71.4424836 60.4346889,71.4883343 60.5126889,71.5270209 L64.8936889,74.3511403 Z" id="Fill-351" fill="#0066FF"></path>
                <path d="M57.6756556,50.7680955 C65.1289889,55.1812299 65.0264333,62.1591403 57.4474333,66.3559164 C49.8684333,70.5526925 37.6816556,70.3778866 30.2297667,65.9633194 C22.7764333,61.5501851 22.8789889,54.5722746 30.4579889,50.3769313 C38.0369889,46.1801552 50.2223222,46.3549612 57.6756556,50.7680955" id="Fill-353" fill="#0066FF"></path>
                <path d="M58.0959889,63.1178507 C50.2555444,67.4579104 37.6527667,67.2759403 29.9452111,62.713791 C22.2362111,58.1487761 22.3416556,50.9301493 30.1806556,46.5900896 C38.0196556,42.2514627 50.6224333,42.4305672 58.3314333,46.9955821 C66.0404333,51.560597 65.9349889,58.777791 58.0959889,63.1178507 M26.9378778,44.6700896 C17.2759889,50.0188657 17.1459889,58.9139104 26.6461,64.5392239 C36.1462111,70.1631045 51.6797667,70.3866269 61.3387667,65.0392836 C71.0006556,59.6890746 71.1292111,50.7940299 61.6291,45.1701493 C52.1304333,39.5448358 36.5968778,39.3213134 26.9378778,44.6700896" id="Fill-355" fill="#FFFFFF"></path>
                <path d="M43.8010444,44.0963821 C38.9867111,44.0963821 34.1954889,45.1122627 30.5006,47.1583522 C26.9212667,49.1399642 24.9293778,51.7735164 24.8860444,54.5761433 C24.8456,57.380203 26.7623778,60.0696358 30.2810444,62.1544119 C37.7979333,66.6019343 50.1320444,66.7824716 57.7760444,62.5498746 C61.3524889,60.5696955 63.3458222,57.9347104 63.3891556,55.1320836 C63.4296,52.3294567 61.5142667,49.6371582 57.9956,47.5538149 C54.1129333,45.2569791 48.9447111,44.0963821 43.8010444,44.0963821 M44.4784889,66.8928 C39.0892667,66.8928 33.6754889,65.6791881 29.6093778,63.270591 C25.6703778,60.9393672 23.5282667,57.8458746 23.5773778,54.5589493 C23.6236,51.270591 25.8567111,48.2401433 29.8607111,46.0235463 C37.8716,41.5889194 50.7936,41.7751881 58.6658222,46.4376358 C62.6048222,48.7688597 64.7469333,51.8637851 64.6992667,55.1507104 C64.6516,58.4376358 62.4199333,61.4695164 58.4159333,63.6861134 C54.5433778,65.8296358 49.5210444,66.8928 44.4784889,66.8928 M43.7230444,41.4470687 C37.7632667,41.4470687 31.8323778,42.7036657 27.2578222,45.2383522 C22.7988222,47.7071284 20.3129333,50.9983522 20.2623778,54.5102328 C20.2118222,58.0206806 22.5966,61.3835463 26.9819333,63.9798448 C36.2884889,69.4890985 51.5577111,69.7097552 61.0188222,64.4713075 C65.4792667,62.0010985 67.9637111,58.7084418 68.0142667,55.197994 C68.0662667,51.6875463 65.6786,48.3232478 61.2932667,45.7283821 C56.4876,42.8827701 50.0901556,41.4470687 43.7230444,41.4470687 M44.5564889,69.5435463 C37.9438222,69.5435463 31.3022667,68.053397 26.3117111,65.0974567 C21.5046,62.2532776 18.8916,58.4863522 18.9508222,54.491606 C19.0086,50.4968597 21.7328222,46.8073075 26.6179333,44.1021134 C36.4430444,38.660203 52.3030444,38.8894567 61.9649333,44.6107701 C66.7706,47.4563821 69.3836,51.2218746 69.3258222,55.2166209 C69.2666,59.2113672 66.5438222,62.9009194 61.6587111,65.6075463 C56.9079333,68.2368 50.7473778,69.5435463 44.5564889,69.5435463" id="Fill-357" fill="#16110D"></path>
                <path d="M44.4160889,54.3516179 C47.0767556,55.9263045 47.0392,58.4165731 44.3352,59.9153194 C41.6297556,61.4126328 37.2819778,61.3495881 34.6213111,59.7749015 C31.9620889,58.2002149 31.9982,55.7085134 34.7022,54.2112 C37.4076444,52.7138866 41.7568667,52.7754985 44.4160889,54.3516179" id="Fill-359" fill="#FFFFFF"></path>
                <path d="M39.4043,50.4783761 C37.8183,50.4783761 36.2409667,50.8122269 35.0233,51.4870925 C33.9269667,52.0946149 33.3174111,52.8740776 33.3058556,53.6807642 C33.2957444,54.4903164 33.8821889,55.2855403 34.9568556,55.9245851 C37.4340778,57.3889433 41.4987444,57.4476896 44.0149667,56.0549731 C45.1098556,55.4488836 45.7194111,54.6694209 45.7324111,53.8613015 C45.7454111,53.0531821 45.1575222,52.2550925 44.0799667,51.6174806 C42.8016333,50.8609433 41.1000778,50.4783761 39.4043,50.4783761 M39.6325222,58.3661373 C37.7070778,58.3661373 35.7744111,57.9219582 34.2866333,57.0407642 C32.7901889,56.1552716 31.9755222,54.9559881 31.9943,53.6635701 C32.0145222,52.3697194 32.8624111,51.1933612 34.3834111,50.3508537 C37.3170778,48.7288836 41.8699667,48.7933612 44.7516333,50.5013015 C46.2480778,51.386794 47.0627444,52.5875104 47.0425222,53.8799284 C47.0237444,55.1723463 46.1758556,56.3487045 44.6548556,57.1912119 C43.2364111,57.9749731 41.4366333,58.3661373 39.6325222,58.3661373" id="Fill-361" fill="#16110D"></path>
                <polygon id="Fill-363" fill="#FFFFFF" points="60.5518333 67.1770746 64.7826111 69.800597 68.0152778 67.5897313 63.4710556 64.8329552"></polygon>
                <path d="M63.531,65.6407881 C63.2868889,65.6407881 63.011,65.728191 62.7163333,65.8901015 C61.4596667,66.5850269 60.3792222,68.3803701 60.3604444,69.8074746 C60.3517778,70.3104 60.476,70.6929672 60.71,70.8849672 L60.8688889,70.9824 L64.6735556,73.4325493 L67.7444444,68.1883701 L63.9513333,65.7482507 C63.8271111,65.6751761 63.6855556,65.6407881 63.531,65.6407881 Z M65.1141111,75.2694448 L60.1538889,72.0727881 C60.0715556,72.0326687 59.9675556,71.9638925 59.8736667,71.8865194 C59.3276667,71.4380418 59.0344444,70.6929672 59.0474444,69.7888478 C59.0763333,67.8903403 60.4066667,65.6780418 62.0764444,64.7538627 C62.9835556,64.253803 63.8632222,64.1950567 64.5623333,64.5919522 L64.6793333,64.6650269 L69.5037778,67.7728478 L65.1141111,75.2694448 Z" id="Fill-365" fill="#16110D"></path>
                <path d="M68.6232444,67.9817552 C68.1566889,67.7367403 67.5240222,67.7754269 66.8205778,68.1651582 C65.3573556,68.9747104 64.1512444,70.9806806 64.1281333,72.6427701 C64.1151333,73.4852776 64.4098,74.0770388 64.8936889,74.3507104 L69.3541333,79.1965612 L75.0438,70.278591 L68.6232444,67.9817552 Z" id="Fill-367" fill="#0066FF"></path>
                <polygon id="Fill-369" fill="#FFFFFF" points="65.1178667 69.8007403 70.6110889 72.7337552 74.3825333 69.8981731 67.7438667 67.7747104"></polygon>
                <path d="M67.9700667,68.4783761 C67.7302889,68.4783761 67.4428444,68.5657791 67.1409556,68.7334209 C65.8842889,69.4297791 64.8038444,71.2236896 64.7836222,72.6522269 C64.7735111,73.2110328 64.9324,73.6251224 65.2184,73.7856 L69.2065111,78.2116299 L74.0786222,70.5746149 L68.3167333,68.5571821 C68.2199556,68.5056 68.1015111,68.4783761 67.9700667,68.4783761 Z M69.5026222,80.1817791 L64.4644,74.8430328 C63.8548444,74.5120478 63.4561778,73.6795701 63.4720667,72.6321672 C63.4995111,70.7336597 64.8298444,68.5213612 66.4996222,67.5971821 C67.3662889,67.1200478 68.2185111,67.0455403 68.9031778,67.3937194 L76.0098444,69.9828537 L69.5026222,80.1817791 Z" id="Fill-371" fill="#16110D"></path>
                <path d="M79.1786667,74.3426866 C79.0963333,74.2853731 79.0067778,74.2395224 78.9128889,74.199403 L75.6094444,70.5198806 C74.919,70.0757015 73.9367778,70.1029254 72.839,70.7104478 C70.7026667,71.8939701 68.9404444,74.8212537 68.9057778,77.2499104 C68.8884444,78.4119403 69.2726667,79.2444179 69.9082222,79.671403 L69.9082222,79.6728358 C70.0367778,79.7573731 70.174,79.8275821 70.3198889,79.8791642 L74.8395556,81.2374925 C74.8395556,81.2374925 75.0172222,81.3406567 75.1154444,81.3764776 L80.1406667,83.8509851 L83.7864444,77.4390448 L79.1786667,74.3426866 Z" id="Fill-373" fill="#0066FF"></path>
                <polygon id="Fill-375" fill="#FFFFFF" points="70.6108 72.7336119 80.1354667 79.0294925 83.0200222 76.9246567 75.0438 70.2777313 71.2275778 71.8896716"></polygon>
                <path d="M74.5307333,70.8613254 C74.1320667,70.8613254 73.6611778,71.0003104 73.1614,71.2782806 C71.2417333,72.3400119 69.5921778,75.0781612 69.5604,77.2603701 C69.5474,78.1487284 69.8030667,78.814997 70.2768444,79.1316537 C70.3635111,79.1904 70.4516222,79.2362507 70.5397333,79.2663403 L79.8751778,82.9931463 L82.9186222,77.6415045 L75.2240667,71.0461612 C75.0319556,70.9229373 74.7979556,70.8613254 74.5307333,70.8613254 Z M80.4052889,84.7068179 L70.0269556,80.4613254 C69.9085111,80.4240716 69.7192889,80.3295045 69.5430667,80.2105791 C68.6879556,79.6374448 68.2300667,78.5828776 68.2488444,77.2403104 C68.2892889,74.5637731 70.1656222,71.4459224 72.5215111,70.1420418 C73.7854,69.4428179 75.0406222,69.381206 75.9665111,69.9729672 L84.6548444,77.2360119 L80.4052889,84.7068179 Z" id="Fill-377" fill="#16110D"></path>
                <path d="M88.0484222,80.2055642 L83.8653111,77.4903403 C83.8393111,77.4731463 83.8133111,77.4545194 83.7873111,77.4387582 C83.3164222,77.1736836 82.6678667,77.2066388 81.9470889,77.6064 C80.4838667,78.4159522 79.2777556,80.4190567 79.2532,82.0825791 C79.2402,82.9924299 79.5868667,83.6099821 80.1400889,83.8506985 L84.4430889,86.6346985 L88.0484222,80.2055642 Z" id="Fill-379" fill="#0066FF"></path>
                <polygon id="Fill-381" fill="#FFFFFF" points="80.3678778 79.1925493 84.8759889 82.1728478 87.3893222 79.7599522 82.9187667 77.2797134"></polygon>
                <path d="M83.0789556,77.9247761 C82.8348444,77.9247761 82.5604,78.0121791 82.2671778,78.1740896 C81.0090667,78.8690149 79.9300667,80.6629254 79.9098444,82.0914627 C79.9011778,82.6903881 80.0802889,83.1145075 80.4024,83.2549254 L84.2114,85.710806 L87.1797333,80.4179104 L83.5065111,78.0336716 C83.3794,77.960597 83.2349556,77.9247761 83.0789556,77.9247761 Z M84.2402889,87.2797612 L79.7827333,84.3954627 C79.0460667,84.0859701 78.5809556,83.2205373 78.5982889,82.0728358 C78.6271778,80.1728955 79.9575111,77.9620299 81.6287333,77.0378507 C82.5315111,76.5363582 83.4111778,76.4776119 84.1117333,76.8759403 L84.2316222,76.9504478 L88.9188444,79.9923582 L84.2402889,87.2797612 Z" id="Fill-383" fill="#16110D"></path>
                <path d="M88.5661111,79.7354507 C87.867,79.3184955 86.9714444,79.3700776 86.0527778,79.8830328 C84.3801111,80.8072119 83.0497778,83.0180776 83.0208889,84.9165851 C83.005,85.9625552 83.3834444,86.7663761 84.084,87.1833313 C84.3988889,87.3681672 84.7498889,87.4613015 85.1254444,87.4613015 C85.5905556,87.4613015 86.0917778,87.3194507 86.6016667,87.0371821 C88.2728889,86.1115701 89.6032222,83.9007045 89.6306667,82.0007642 C89.6465556,80.9562269 89.2681111,80.1509731 88.5661111,79.7354507" id="Fill-385" fill="#16110D"></path>
                <path d="M57.5881222,38.3945552 C55.0502333,38.3945552 52.5253444,38.9161075 50.6215667,39.9721075 C48.9301222,40.9077493 47.9883444,42.0941373 47.9724556,43.3106149 C47.9536778,44.5270925 48.8593444,45.7392716 50.5219,46.7236299 C54.3973444,49.0190328 60.9984556,49.1107343 64.9374556,46.931391 C66.6289,45.9957493 67.5692333,44.8093612 67.5880111,43.5928836 C67.6067889,42.3749731 66.6996778,41.1642269 65.0356778,40.1784358 L65.0356778,40.177003 C63.0336778,38.9920478 60.3036778,38.3945552 57.5881222,38.3945552 M57.9651222,51.1353313 C54.7989,51.1353313 51.6240111,50.4060179 49.1785667,48.9574209 C46.6767889,47.4773015 45.3161222,45.4584358 45.3479,43.2719284 C45.3811222,41.0882866 46.7981222,39.1081075 49.3432333,37.6996299 C54.1604556,35.0302567 61.6426778,35.1391522 66.3804556,37.9446448 C68.8822333,39.426197 70.2429,41.4450627 70.2096778,43.6301373 C70.1793444,45.8166448 68.7594556,47.795391 66.2157889,49.2038687 C63.8844556,50.4934209 60.9291222,51.1353313 57.9651222,51.1353313" id="Fill-387" fill="#16110D"></path>
                <path d="M57.5881222,35.7442388 C55.0502333,35.7442388 52.5253444,36.265791 50.6215667,37.321791 C48.9301222,38.2574328 47.9883444,39.4438209 47.9724556,40.6602985 C47.9536778,41.8767761 48.8593444,43.0889552 50.5219,44.0733134 C54.3973444,46.3687164 60.9984556,46.4604179 64.9374556,44.2810746 C66.6289,43.3454328 67.5692333,42.1590448 67.5880111,40.9425672 C67.6067889,39.7246567 66.6996778,38.5139104 65.0356778,37.5281194 C63.0336778,36.3417313 60.3036778,35.7442388 57.5881222,35.7442388 M57.9651222,48.4850149 C54.7989,48.4850149 51.6240111,47.7557015 49.1785667,46.3085373 C46.6767889,44.8269851 45.3161222,42.8081194 45.3479,40.6216119 C45.3811222,38.4379701 46.7981222,36.457791 49.3432333,35.0493134 C54.1604556,32.3799403 61.6426778,32.4888358 66.3804556,35.2943284 C68.8822333,36.7758806 70.2429,38.7947463 70.2096778,40.9798209 C70.1793444,43.1663284 68.7594556,45.1450746 66.2157889,46.5535522 C63.8844556,47.8431045 60.9291222,48.4850149 57.9651222,48.4850149" id="Fill-389" fill="#FFFFFF"></path>
            </g>
        </g>
    </g>
</svg>