<svg width="240" height="184" viewBox="0 0 240 184" fill="none" xmlns="http://www.w3.org/2000/svg">
<path fill-rule="evenodd" clip-rule="evenodd" d="M118.539 184C170.44 184 240 142.042 240 90.2847C240 38.5272 165.565 13.1428 113.663 13.1428C61.7619 13.1428 0 46.8139 0 98.5714C0 150.329 66.6374 184 118.539 184Z" fill="#F2F7FF"/>
<path fill-rule="evenodd" clip-rule="evenodd" d="M55.2449 70.5505C56.071 71.0328 56.071 71.8157 55.2449 72.3011C54.4158 72.7833 53.0762 72.7833 52.2471 72.3011C51.4241 71.8157 51.4241 71.0328 52.2471 70.5505C53.0762 70.0683 54.4158 70.0683 55.2449 70.5505Z" fill="#16110D"/>
<path fill-rule="evenodd" clip-rule="evenodd" d="M47.4136 65.9722C48.2428 66.4544 48.2428 67.2404 47.4136 67.7258C46.5845 68.2081 45.2449 68.2081 44.4158 67.7258C43.5928 67.2404 43.5928 66.4544 44.4158 65.9722C45.2449 65.4899 46.5845 65.4899 47.4136 65.9722Z" fill="#16110D"/>
<path fill-rule="evenodd" clip-rule="evenodd" d="M39.5828 61.3972C40.4119 61.8795 40.4119 62.6624 39.5828 63.1477C38.7537 63.63 37.4141 63.63 36.588 63.1477C35.762 62.6624 35.762 61.8795 36.588 61.3972C37.4141 60.915 38.7537 60.915 39.5828 61.3972Z" fill="#16110D"/>
<path fill-rule="evenodd" clip-rule="evenodd" d="M31.7516 56.8193C32.5807 57.3016 32.5807 58.0876 31.7516 58.573C30.9225 59.0553 29.586 59.0553 28.7569 58.573C27.9308 58.0876 27.9308 57.3016 28.7569 56.8193C29.586 56.3371 30.9225 56.3371 31.7516 56.8193Z" fill="#16110D"/>
<path fill-rule="evenodd" clip-rule="evenodd" d="M99.2977 63.1864C98.4686 62.7041 98.4686 61.9212 99.2977 61.4358C100.127 60.9504 101.463 60.9504 102.292 61.4358C103.119 61.9212 100.127 63.6686 99.2977 63.1864Z" fill="#16110D"/>
<path fill-rule="evenodd" clip-rule="evenodd" d="M107.129 58.6083C106.299 58.1261 106.299 57.3432 107.129 56.8578C107.955 56.3755 109.294 56.3755 110.123 56.8578C110.949 57.3432 107.955 59.0906 107.129 58.6083Z" fill="#16110D"/>
<path fill-rule="evenodd" clip-rule="evenodd" d="M114.96 54.0331C114.131 53.5509 114.131 52.768 114.96 52.2826C115.786 51.8003 117.125 51.8003 117.955 52.2826C118.781 52.768 115.786 54.5154 114.96 54.0331Z" fill="#16110D"/>
<path fill-rule="evenodd" clip-rule="evenodd" d="M78.7985 66.0118C79.6276 66.4941 79.6276 67.277 78.7985 67.7624C77.9724 68.2446 76.6329 68.2446 75.8037 67.7624C74.9777 67.277 74.9777 66.4941 75.8037 66.0118C76.6329 65.5296 77.9724 65.5296 78.7985 66.0118Z" fill="#16110D"/>
<path fill-rule="evenodd" clip-rule="evenodd" d="M86.6294 61.4371C87.4585 61.9194 87.4585 62.7023 86.6294 63.1877C85.8034 63.6699 84.4638 63.6699 83.6347 63.1877C82.8086 62.7023 82.8086 61.9194 83.6347 61.4371C84.4638 60.9549 85.8034 60.9549 86.6294 61.4371Z" fill="#16110D"/>
<path fill-rule="evenodd" clip-rule="evenodd" d="M94.4607 56.859C95.2898 57.3413 95.2898 58.1242 94.4607 58.6095C93.6316 59.0918 92.2951 59.0918 91.466 58.6095C90.6399 58.1242 90.6399 57.3413 91.466 56.859C92.2951 56.3767 93.6316 56.3767 94.4607 56.859Z" fill="#16110D"/>
<path fill-rule="evenodd" clip-rule="evenodd" d="M102.292 52.2842C103.121 52.7664 103.121 53.5493 102.292 54.0347C101.463 54.517 100.126 54.517 99.2969 54.0347C98.4709 53.5493 98.4709 52.7664 99.2969 52.2842C100.126 51.8019 101.463 51.8019 102.292 52.2842Z" fill="#16110D"/>
<path fill-rule="evenodd" clip-rule="evenodd" d="M110.123 47.7059C110.952 48.1882 110.952 48.9742 110.123 49.4596C109.294 49.9419 107.954 49.9419 107.128 49.4596C106.302 48.9742 106.302 48.1882 107.128 47.7059C107.954 47.2237 109.294 47.2237 110.123 47.7059Z" fill="#16110D"/>
<path fill-rule="evenodd" clip-rule="evenodd" d="M117.954 43.131C118.783 43.6132 118.783 44.3961 117.954 44.8815C117.125 45.3638 115.785 45.3638 114.959 44.8815C114.133 44.3961 114.133 43.6132 114.959 43.131C115.785 42.6487 117.125 42.6487 117.954 43.131Z" fill="#16110D"/>
<path fill-rule="evenodd" clip-rule="evenodd" d="M60.1333 66.0182C60.9594 65.5359 62.299 65.5328 63.1281 66.015C63.9572 66.4973 63.9572 67.2802 63.1343 67.7656C62.3083 68.2509 60.9687 68.251 60.1395 67.7687C59.3104 67.2833 59.3073 66.5004 60.1333 66.0182Z" fill="#16110D"/>
<path fill-rule="evenodd" clip-rule="evenodd" d="M70.9704 61.4371C71.7964 61.9194 71.7964 62.7023 70.9704 63.1877C70.1413 63.6699 68.8017 63.6699 67.9726 63.1877C67.1465 62.7023 67.1465 61.9194 67.9726 61.4371C68.8017 60.9549 70.1413 60.9549 70.9704 61.4371Z" fill="#16110D"/>
<path fill-rule="evenodd" clip-rule="evenodd" d="M78.7985 56.859C79.6276 57.3413 79.6276 58.1242 78.7985 58.6095C77.9724 59.0918 76.6329 59.0918 75.8037 58.6095C74.9777 58.1242 74.9777 57.3413 75.8037 56.859C76.6329 56.3767 77.9724 56.3767 78.7985 56.859Z" fill="#16110D"/>
<path fill-rule="evenodd" clip-rule="evenodd" d="M86.6294 52.2842C87.4585 52.7664 87.4585 53.5493 86.6294 54.0347C85.8034 54.517 84.4638 54.517 83.6347 54.0347C82.8086 53.5493 82.8086 52.7664 83.6347 52.2842C84.4638 51.8019 85.8034 51.8019 86.6294 52.2842Z" fill="#16110D"/>
<path fill-rule="evenodd" clip-rule="evenodd" d="M94.4607 47.7059C95.2898 48.1882 95.2898 48.9742 94.4607 49.4596C93.6316 49.9419 92.2951 49.9419 91.466 49.4596C90.6399 48.9742 90.6399 48.1882 91.466 47.7059C92.2951 47.2237 93.6347 47.2237 94.4607 47.7059Z" fill="#16110D"/>
<path fill-rule="evenodd" clip-rule="evenodd" d="M102.292 43.131C103.121 43.6132 103.121 44.3961 102.292 44.8815C101.463 45.3638 100.126 45.3638 99.2969 44.8815C98.4709 44.3961 98.4709 43.6132 99.2969 43.131C100.126 42.6487 101.463 42.6487 102.292 43.131Z" fill="#16110D"/>
<path fill-rule="evenodd" clip-rule="evenodd" d="M110.123 38.553C110.952 39.0352 110.952 39.8213 110.123 40.3066C109.294 40.7889 107.957 40.7889 107.128 40.3066C106.302 39.8213 106.302 39.0352 107.128 38.553C107.957 38.0707 109.294 38.0707 110.123 38.553Z" fill="#16110D"/>
<path fill-rule="evenodd" clip-rule="evenodd" d="M52.3022 61.4402C53.1282 60.958 54.4678 60.958 55.2969 61.4371C56.126 61.9193 56.126 62.7022 55.3031 63.1907C54.4771 63.673 53.1375 63.6761 52.3084 63.1939C51.4792 62.7085 51.4761 61.9256 52.3022 61.4402Z" fill="#16110D"/>
<path fill-rule="evenodd" clip-rule="evenodd" d="M63.1396 56.859C63.9656 57.3413 63.9656 58.1242 63.1396 58.6095C62.3105 59.0918 60.9709 59.0918 60.1417 58.6095C59.3188 58.1242 59.3188 57.3413 60.1417 56.859C60.9709 56.3767 62.3105 56.3767 63.1396 56.859Z" fill="#16110D"/>
<path fill-rule="evenodd" clip-rule="evenodd" d="M70.9704 52.2842C71.7964 52.7664 71.7964 53.5493 70.9704 54.0347C70.1413 54.517 68.8017 54.517 67.9726 54.0347C67.1496 53.5493 67.1496 52.7664 67.9726 52.2842C68.8017 51.8019 70.1413 51.8019 70.9704 52.2842Z" fill="#16110D"/>
<path fill-rule="evenodd" clip-rule="evenodd" d="M78.8016 47.7059C79.6276 48.1882 79.6276 48.9742 78.8016 49.4596C77.9724 49.9419 76.6329 49.9419 75.8037 49.4596C74.9777 48.9742 74.9777 48.1882 75.8037 47.7059C76.6329 47.2237 77.9724 47.2237 78.8016 47.7059Z" fill="#16110D"/>
<path fill-rule="evenodd" clip-rule="evenodd" d="M83.6356 43.131C84.4648 42.6487 85.8044 42.6487 86.6304 43.131C87.4564 43.6132 87.4564 44.3961 86.6304 44.8815C85.8044 45.3638 84.4648 45.3638 83.6356 44.8815C82.8065 44.3961 82.8065 43.6132 83.6356 43.131C82.8065 43.6132 84.4648 42.6487 83.6356 43.131Z" fill="#16110D"/>
<path fill-rule="evenodd" clip-rule="evenodd" d="M94.4607 38.5531C95.2898 39.0353 95.2898 39.8213 94.4607 40.3067C93.6346 40.789 92.295 40.789 91.4659 40.3067C90.6399 39.8213 93.6346 38.0708 94.4607 38.5531Z" fill="#16110D"/>
<path fill-rule="evenodd" clip-rule="evenodd" d="M102.291 33.9781C103.121 34.4604 103.121 35.2432 102.291 35.7286C101.462 36.2109 100.126 36.2109 99.2967 35.7286C98.4707 35.2432 101.462 33.4958 102.291 33.9781Z" fill="#16110D"/>
<path fill-rule="evenodd" clip-rule="evenodd" d="M44.4712 56.865C45.2973 56.3827 46.6369 56.3796 47.4691 56.8618C48.2951 57.3441 48.2982 58.127 47.4722 58.6124C46.6461 59.0978 45.3065 59.0978 44.4774 58.6155C43.6483 58.1333 43.6452 57.3472 44.4712 56.865Z" fill="#16110D"/>
<path fill-rule="evenodd" clip-rule="evenodd" d="M55.3083 52.2842C56.1343 52.7664 56.1343 53.5493 55.3083 54.0347C54.4792 54.517 53.1396 54.517 52.3104 54.0347C51.4875 53.5493 51.4875 52.7664 52.3104 52.2842C53.1396 51.8019 54.4792 51.8019 55.3083 52.2842Z" fill="#16110D"/>
<path fill-rule="evenodd" clip-rule="evenodd" d="M63.1396 47.7059C63.9656 48.1882 63.9656 48.9742 63.1396 49.4596C62.3105 49.9419 60.9709 49.9419 60.1417 49.4596C59.3188 48.9742 59.3188 48.1882 60.1417 47.7059C60.9709 47.2237 62.3105 47.2237 63.1396 47.7059C62.3105 47.2237 63.9656 48.1882 63.1396 47.7059Z" fill="#16110D"/>
<path fill-rule="evenodd" clip-rule="evenodd" d="M36.6401 52.2902C37.4692 51.8048 38.8057 51.8048 39.6379 52.2871C40.4639 52.7662 40.467 53.5522 39.641 54.0376C38.815 54.5199 37.4754 54.523 36.6462 54.0408C35.8171 53.5554 35.814 52.7725 36.6401 52.2902Z" fill="#16110D"/>
<path fill-rule="evenodd" clip-rule="evenodd" d="M47.4774 47.7059C48.3065 48.1882 48.3065 48.9742 47.4774 49.4596C46.6482 49.9419 45.3086 49.9419 44.4795 49.4596C43.6566 48.9742 43.6566 48.1882 44.4795 47.7059C45.3086 47.2237 46.6482 47.2237 47.4774 47.7059Z" fill="#16110D"/>
<path fill-rule="evenodd" clip-rule="evenodd" d="M55.3083 44.8803C54.4792 45.3625 53.1396 45.3625 52.3104 44.8803C51.4875 44.398 51.4875 43.6151 52.3104 43.1297C53.1396 42.6475 56.1343 44.398 55.3083 44.8803Z" fill="#16110D"/>
<path fill-rule="evenodd" clip-rule="evenodd" d="M28.7426 47.6632C29.5686 47.181 30.9082 47.181 31.7373 47.6601C32.5634 48.1424 32.5665 48.9252 31.7435 49.4138C30.9175 49.896 29.5779 49.8992 28.7488 49.4169C27.9197 48.9315 27.9166 48.1486 28.7426 47.6632Z" fill="#16110D"/>
<path fill-rule="evenodd" clip-rule="evenodd" d="M39.5766 43.0822C40.4057 43.5644 40.4057 44.3473 39.5766 44.8327C38.7506 45.3149 37.411 45.3149 36.5819 44.8327C35.7558 44.3473 35.7558 43.5644 36.5819 43.0822C37.411 42.5999 38.7506 42.5999 39.5766 43.0822Z" fill="#16110D"/>
<path fill-rule="evenodd" clip-rule="evenodd" d="M47.4079 40.2562C46.5818 40.7385 45.2422 40.7385 44.4131 40.2562C43.5871 39.774 43.5871 38.9911 44.4131 38.5057C45.2422 38.0234 48.237 39.774 47.4079 40.2562Z" fill="#16110D"/>
<path fill-rule="evenodd" clip-rule="evenodd" d="M63.2784 36.8589L54.4551 27.8463C55.3801 26.9131 56.5557 26.0457 57.9788 25.2753C65.5523 21.1636 77.3426 21.3577 84.2541 25.7012C86.398 27.0415 87.8212 28.6292 88.5451 30.3014L63.2784 36.8589ZM104.905 21.4924L100.574 23.0957C99.3021 21.7774 97.7768 20.5153 95.9392 19.3629C95.5091 19.0905 95.0451 18.8525 94.5934 18.5988C94.9182 17.5185 95.1688 16.3974 95.0605 15.7617C94.8161 14.271 84.8759 7.81379 81.8069 6.19792C78.741 4.57891 63.891 3.95886 63.891 3.95886L47.5684 15.7617L50.0341 17.2429C49.0998 17.6562 48.1902 18.1009 47.3147 18.5769C45.6967 19.4506 44.2735 20.4026 43.0051 21.3984L36.1277 21.4485V33.8996C36.1277 33.8996 36.1462 33.9215 36.1524 33.9246C36.3164 38.6157 39.2493 43.266 45.0965 46.9362C57.8922 54.9717 79.7063 55.3225 93.724 47.7222C100.976 43.789 104.713 38.4841 104.883 33.1636L104.911 33.148L104.905 21.4924Z" fill="#0066FF"/>
<path fill-rule="evenodd" clip-rule="evenodd" d="M56.5653 27.9229L63.7212 35.2351L86.2994 29.376C85.6033 28.496 84.6566 27.6693 83.4933 26.9396C76.9686 22.8404 65.828 22.6745 58.6598 26.5607C57.8833 26.9803 57.1841 27.4375 56.5653 27.9229ZM62.8333 38.4825L52.4166 27.8415L53.4375 26.8112C54.4801 25.759 55.7764 24.8102 57.2924 23.9866C65.2711 19.6557 77.7111 19.8717 85.0154 24.4563C87.3574 25.925 88.9909 27.6975 89.8665 29.7142L90.5471 31.2925L62.8333 38.4825ZM37.5697 33.7507L37.5975 33.8729C37.7522 38.2476 40.6851 42.447 45.8579 45.6945C58.2607 53.4857 79.425 53.8177 93.0375 46.4335C99.5808 42.8855 103.278 38.1568 103.439 33.1182L103.467 32.376L103.463 23.5826L100.193 24.7945L99.5375 24.1181C98.2815 22.8122 96.8181 21.6317 95.1784 20.6045C94.9062 20.4323 94.6215 20.2788 94.3338 20.1223L92.8705 19.3018L93.2108 18.1744C93.7089 16.5084 93.6408 16.0199 93.6377 16.0011C92.9231 14.9208 84.505 9.26518 81.1421 7.49586C79.1744 6.45932 69.9984 5.69835 64.3275 5.44157L50.2077 15.6473L53.19 17.4416L50.6099 18.5847C49.7127 18.9792 48.8371 19.4051 47.9956 19.8655C46.5385 20.6577 45.1556 21.5628 43.8902 22.5555L43.5035 22.8592L37.5697 22.8999V33.7507ZM69.921 54.6413C60.5068 54.6413 51.1729 52.4742 44.3357 48.1778C38.5349 44.5358 35.1535 39.7226 34.7451 34.5649L34.7111 34.5274L34.6832 33.8979V20.0001L42.5135 19.9406C43.7943 18.9698 45.1803 18.0742 46.6313 17.2882C46.7458 17.2256 46.8602 17.1629 46.9716 17.1034L44.9297 15.8727L63.4551 2.47913L63.9532 2.50105C65.5063 2.56368 79.2147 3.18372 82.4755 4.89981C82.6116 4.97184 96.0199 12.6848 96.4871 15.522C96.5551 15.9166 96.5923 16.5648 96.286 17.8707C96.4252 17.9521 96.5675 18.0366 96.7036 18.1212C98.2567 19.0982 99.6767 20.1974 100.933 21.4062L106.353 19.3989L106.279 33.9825C105.765 39.8071 101.579 45.1182 94.4019 49.0108C87.4626 52.778 78.6578 54.6413 69.921 54.6413Z" fill="#16110D"/>
<path fill-rule="evenodd" clip-rule="evenodd" d="M57.9792 13.6168C50.4026 17.7254 49.8643 24.6023 56.7788 28.9458C63.6933 33.2861 75.4805 33.4771 83.0571 29.3654C90.6337 25.2599 91.172 18.3831 84.2544 14.0427C77.343 9.69928 65.5527 9.50826 57.9792 13.6168ZM93.7213 36.0638C79.7035 43.6672 57.8926 43.3133 45.0968 35.2777C32.3011 27.2453 33.2941 14.5219 47.315 6.91847C61.3328 -0.681788 83.1468 -0.331055 95.9395 7.70449C108.732 15.7432 107.739 28.4635 93.7213 36.0638Z" fill="#0066FF"/>
<path fill-rule="evenodd" clip-rule="evenodd" d="M83.2548 33.2685C75.6813 37.3771 63.891 37.1861 56.9765 32.8426C50.0619 28.5023 50.5972 21.6255 58.1768 17.5169C65.7503 13.4083 77.5375 13.5993 84.4552 17.9396C91.3697 22.2831 90.8314 29.16 83.2548 33.2685ZM96.1372 11.6045C83.3414 3.56896 61.5305 3.2151 47.5096 10.8185C42.5225 13.5241 39.2153 16.8874 37.557 20.4449V31.0451C38.9492 33.9951 41.4984 36.7947 45.2914 39.1809C58.0871 47.2133 79.9012 47.5672 93.9189 39.9669C107.937 32.3635 108.933 19.6401 96.1372 11.6045Z" fill="white"/>
<path fill-rule="evenodd" clip-rule="evenodd" d="M70.8588 12.0939C66.5089 12.0939 62.1251 13.0271 58.6601 14.906C55.3745 16.6879 53.4471 19.1023 53.3729 21.5387C53.2986 23.7777 54.7805 25.9698 57.5402 27.6984C64.0618 31.7945 75.2024 31.9698 82.3768 28.0773C85.6593 26.2986 87.5867 23.8811 87.664 21.4447C87.7321 19.2057 86.2533 17.0136 83.4936 15.285C80.1214 13.1649 75.5118 12.0939 70.8588 12.0939ZM70.1998 33.7673C64.9837 33.7673 59.811 32.5648 56.0149 30.1817C52.3458 27.8769 50.3812 24.7735 50.4864 21.4416C50.5947 17.8873 53.014 14.6493 57.2927 12.3288C65.2714 8.00099 77.7114 8.21394 85.0158 12.8017C88.6911 15.1033 90.6526 18.2098 90.5505 21.5418C90.436 25.0961 88.0198 28.3372 83.738 30.6577C79.9018 32.7371 75.0322 33.7673 70.1998 33.7673ZM71.1341 2.88091C62.8862 2.88091 54.564 4.64397 47.9959 8.20767C41.5238 11.7213 37.7185 16.5783 37.5638 21.5387C37.4184 26.1452 40.3668 30.5857 45.8582 34.0367C58.261 41.8248 79.4254 42.1599 93.0379 34.7757C99.5162 31.2652 103.315 26.4051 103.473 21.4478C103.618 16.8382 100.67 12.3977 95.1787 8.94672C88.7561 4.91329 79.9884 2.88091 71.1341 2.88091ZM69.9244 42.9835C60.5102 42.9835 51.1732 40.8196 44.336 36.52C37.9289 32.4991 34.4979 27.1441 34.6774 21.4416C34.8692 15.3225 39.1169 9.70768 46.6316 5.63041C61.0547 -2.19219 83.5122 -1.8164 96.7039 6.4634C103.108 10.4843 106.536 15.8392 106.363 21.5418C106.168 27.6608 101.92 33.2788 94.4022 37.353C87.4629 41.1202 78.6581 42.9835 69.9244 42.9835Z" fill="#16110D"/>
<path fill-rule="evenodd" clip-rule="evenodd" d="M73.1518 11.3783V22.3982L58.2306 24.5339L55.0997 26.9703L51.9596 22.3105L55.6999 14.4785L68.4555 11.3783H73.1518Z" fill="#16110D"/>
<path fill-rule="evenodd" clip-rule="evenodd" d="M64.0063 40.8985V53.2024L88.546 50.8443L103.476 40.1031L105.258 26.5216L102.502 28.5602L93.7187 36.0634L79.2864 41.5436L64.0063 40.8985Z" fill="#16110D"/>
<path fill-rule="evenodd" clip-rule="evenodd" d="M54.8492 151.5C55.6752 151.982 55.6752 152.765 54.8492 153.25C54.0201 153.732 52.6805 153.732 51.8513 153.25C51.0253 152.765 51.0253 151.982 51.8513 151.5C52.6805 151.017 54.0201 151.017 54.8492 151.5Z" fill="#16110D"/>
<path fill-rule="evenodd" clip-rule="evenodd" d="M62.677 146.922C63.5061 147.404 63.5061 148.19 62.677 148.675C61.851 149.158 60.5114 149.158 59.6823 148.675C58.8562 148.19 58.8562 147.404 59.6823 146.922C60.5114 146.439 61.851 146.439 62.677 146.922Z" fill="#16110D"/>
<path fill-rule="evenodd" clip-rule="evenodd" d="M70.5082 142.346C71.3373 142.829 71.3373 143.612 70.5082 144.097C69.6822 144.579 68.3426 144.579 67.5134 144.097C66.6874 143.612 66.6874 142.829 67.5134 142.346C68.3426 141.864 69.6822 141.864 70.5082 142.346Z" fill="#16110D"/>
<path fill-rule="evenodd" clip-rule="evenodd" d="M78.3391 137.768C79.1682 138.251 79.1682 139.037 78.3391 139.522C77.5131 140.004 76.1735 140.004 75.3444 139.522C74.5183 139.037 74.5183 138.251 75.3444 137.768C76.1735 137.286 77.5131 137.286 78.3391 137.768Z" fill="#16110D"/>
<path fill-rule="evenodd" clip-rule="evenodd" d="M86.1703 133.194C86.9994 133.676 86.9994 134.459 86.1703 134.944C85.3443 135.426 84.0047 135.426 83.1756 134.944C82.3495 134.459 82.3495 133.676 83.1756 133.194C84.0047 132.711 85.3443 132.711 86.1703 133.194Z" fill="#16110D"/>
<path fill-rule="evenodd" clip-rule="evenodd" d="M94.0012 128.616C94.8304 129.098 94.8304 129.884 94.0012 130.369C93.1721 130.852 91.8356 130.852 91.0065 130.369C90.1805 129.884 90.1805 129.098 91.0065 128.616C91.8356 128.133 93.1721 128.133 94.0012 128.616Z" fill="#16110D"/>
<path fill-rule="evenodd" clip-rule="evenodd" d="M101.832 124.04C102.662 124.523 102.662 125.306 101.832 125.791C101.003 126.273 99.6637 126.273 98.8377 125.791C98.0116 125.306 98.0116 124.523 98.8377 124.04C99.6637 123.558 101.003 123.558 101.832 124.04Z" fill="#16110D"/>
<path fill-rule="evenodd" clip-rule="evenodd" d="M54.8492 142.346C55.6752 142.829 55.6752 143.612 54.8492 144.097C54.0201 144.579 52.6805 144.579 51.8513 144.097C51.0284 143.612 51.0284 142.829 51.8513 142.346C52.6805 141.864 54.0201 141.864 54.8492 142.346Z" fill="#16110D"/>
<path fill-rule="evenodd" clip-rule="evenodd" d="M62.6801 137.768C63.5061 138.251 63.5061 139.037 62.677 139.522C61.851 140.004 60.5114 140.004 59.6823 139.522C58.8562 139.037 58.8562 138.251 59.6823 137.768C60.5114 137.286 61.851 137.286 62.6801 137.768Z" fill="#16110D"/>
<path fill-rule="evenodd" clip-rule="evenodd" d="M70.5082 133.194C71.3373 133.676 71.3373 134.459 70.5082 134.944C69.6822 135.426 68.3426 135.426 67.5134 134.944C66.6874 134.459 66.6874 133.676 67.5134 133.194C68.3426 132.711 69.6822 132.711 70.5082 133.194Z" fill="#16110D"/>
<path fill-rule="evenodd" clip-rule="evenodd" d="M78.3391 128.616C79.1682 129.098 79.1682 129.884 78.3391 130.369C77.5131 130.852 76.1735 130.852 75.3444 130.369C74.5183 129.884 74.5183 129.098 75.3444 128.616C76.1735 128.133 77.5131 128.133 78.3391 128.616Z" fill="#16110D"/>
<path fill-rule="evenodd" clip-rule="evenodd" d="M86.1703 124.04C86.9994 124.523 86.9994 125.306 86.1703 125.791C85.3443 126.273 84.0047 126.273 83.1756 125.791C82.3495 125.306 82.3495 124.523 83.1756 124.04C84.0047 123.558 85.3443 123.558 86.1703 124.04Z" fill="#16110D"/>
<path fill-rule="evenodd" clip-rule="evenodd" d="M47.018 137.768C47.844 138.251 47.844 139.037 47.018 139.522C46.1889 140.004 44.8493 140.004 44.0202 139.522C43.1972 139.037 43.1972 138.251 44.0202 137.768C44.8493 137.286 46.1889 137.286 47.018 137.768Z" fill="#16110D"/>
<path fill-rule="evenodd" clip-rule="evenodd" d="M54.8492 133.194C55.6752 133.676 55.6752 134.459 54.8492 134.944C54.0201 135.426 52.6805 135.426 51.8513 134.944C51.0284 134.459 51.0284 133.676 51.8513 133.194C52.6805 132.711 54.0201 132.711 54.8492 133.194Z" fill="#16110D"/>
<path fill-rule="evenodd" clip-rule="evenodd" d="M62.6801 128.616C63.5061 129.098 63.5061 129.884 62.6801 130.369C61.851 130.852 60.5114 130.852 59.6823 130.369C58.8562 129.884 58.8562 129.101 59.6823 128.616C60.5114 128.133 61.851 128.133 62.6801 128.616Z" fill="#16110D"/>
<path fill-rule="evenodd" clip-rule="evenodd" d="M70.5082 124.04C71.3373 124.523 71.3373 125.306 70.5082 125.791C69.6822 126.273 68.3426 126.273 67.5134 125.791C66.6874 125.306 66.6874 124.523 67.5134 124.04C68.3426 123.558 69.6822 123.558 70.5082 124.04Z" fill="#16110D"/>
<path fill-rule="evenodd" clip-rule="evenodd" d="M47.018 128.616C47.844 129.101 47.844 129.884 47.018 130.369C46.1889 130.852 44.8493 130.852 44.0202 130.369C43.1972 129.884 43.1972 129.101 44.0202 128.616C44.8493 128.133 46.1889 128.133 47.018 128.616Z" fill="#16110D"/>
<path fill-rule="evenodd" clip-rule="evenodd" d="M54.8492 124.04C55.6752 124.523 55.6752 125.306 54.8492 125.791C54.0201 126.273 52.6805 126.273 51.8513 125.791C51.0284 125.306 51.0284 124.523 51.8513 124.04C52.6805 123.558 54.0201 123.558 54.8492 124.04Z" fill="#16110D"/>
<path fill-rule="evenodd" clip-rule="evenodd" d="M62.6801 119.466C63.5061 119.948 63.5061 120.731 62.6801 121.216C61.851 121.698 60.5114 121.698 59.6823 121.216C58.8593 120.731 58.8593 119.948 59.6823 119.466C60.5114 118.983 61.851 118.983 62.6801 119.466Z" fill="#16110D"/>
<path fill-rule="evenodd" clip-rule="evenodd" d="M164.852 169.121C165.682 169.603 165.682 170.386 164.852 170.871C164.023 171.353 162.687 171.353 161.858 170.871C161.032 170.386 161.032 169.603 161.858 169.121C162.687 168.638 164.023 168.638 164.852 169.121Z" fill="#16110D"/>
<path fill-rule="evenodd" clip-rule="evenodd" d="M172.684 164.542C173.513 165.025 173.513 165.811 172.684 166.296C171.854 166.778 170.518 166.778 169.689 166.296C168.863 165.811 168.863 165.025 169.689 164.542C170.518 164.06 171.854 164.06 172.684 164.542Z" fill="#16110D"/>
<path fill-rule="evenodd" clip-rule="evenodd" d="M180.515 159.968C181.344 160.45 181.344 161.233 180.515 161.718C179.685 162.2 178.346 162.2 177.52 161.718C176.694 161.233 176.694 160.45 177.52 159.968C178.346 159.485 179.685 159.485 180.515 159.968Z" fill="#16110D"/>
<path fill-rule="evenodd" clip-rule="evenodd" d="M188.346 155.39C189.175 155.872 189.175 156.658 188.346 157.143C187.517 157.626 186.177 157.626 185.351 157.143C184.525 156.658 184.525 155.872 185.351 155.39C186.177 154.907 187.517 154.907 188.346 155.39Z" fill="#16110D"/>
<path fill-rule="evenodd" clip-rule="evenodd" d="M196.177 150.814C197.006 151.297 197.006 152.08 196.177 152.565C195.348 153.047 194.008 153.047 193.182 152.565C192.356 152.08 192.356 151.297 193.182 150.814C194.008 150.332 195.348 150.332 196.177 150.814Z" fill="#16110D"/>
<path fill-rule="evenodd" clip-rule="evenodd" d="M204.008 146.236C204.837 146.719 204.837 147.505 204.008 147.99C203.179 148.472 201.839 148.472 201.013 147.99C200.187 147.505 200.187 146.719 201.013 146.236C201.839 145.754 203.179 145.754 204.008 146.236Z" fill="#16110D"/>
<mask id="mask0" mask-type="alpha" maskUnits="userSpaceOnUse" x="208" y="140" width="5" height="5">
<path d="M208.224 140.971H212.46V144.103H208.224V140.971Z" fill="white"/>
</mask>
<g mask="url(#mask0)">
<path fill-rule="evenodd" clip-rule="evenodd" d="M211.839 141.662C212.668 142.144 212.668 142.927 211.839 143.412C211.01 143.894 209.67 143.894 208.841 143.412C208.018 142.927 208.018 142.144 208.841 141.662C209.67 141.179 211.01 141.179 211.839 141.662Z" fill="#16110D"/>
</g>
<path fill-rule="evenodd" clip-rule="evenodd" d="M141.362 173.696C142.188 174.178 142.188 174.961 141.359 175.446C140.533 175.928 139.193 175.928 138.364 175.446C137.538 174.961 137.538 174.178 138.364 173.696C139.193 173.213 140.533 173.213 141.362 173.696Z" fill="#16110D"/>
<path fill-rule="evenodd" clip-rule="evenodd" d="M149.19 169.121C150.019 169.603 150.019 170.386 149.19 170.871C148.364 171.353 147.025 171.353 146.196 170.871C145.37 170.386 145.37 169.603 146.196 169.121C147.025 168.638 148.364 168.638 149.19 169.121Z" fill="#16110D"/>
<path fill-rule="evenodd" clip-rule="evenodd" d="M157.022 164.542C157.851 165.025 157.851 165.811 157.022 166.296C156.196 166.778 154.856 166.778 154.027 166.296C153.201 165.811 153.201 165.025 154.027 164.542C154.856 164.06 156.196 164.06 157.022 164.542Z" fill="#16110D"/>
<path fill-rule="evenodd" clip-rule="evenodd" d="M164.852 159.968C165.682 160.45 165.682 161.233 164.852 161.718C164.023 162.2 162.687 162.2 161.858 161.718C161.032 161.233 161.032 160.45 161.858 159.968C162.687 159.485 164.023 159.485 164.852 159.968Z" fill="#16110D"/>
<path fill-rule="evenodd" clip-rule="evenodd" d="M172.684 155.39C173.513 155.872 173.513 156.658 172.684 157.143C171.854 157.626 170.518 157.626 169.689 157.143C168.863 156.658 168.863 155.872 169.689 155.39C170.518 154.907 171.854 154.907 172.684 155.39Z" fill="#16110D"/>
<path fill-rule="evenodd" clip-rule="evenodd" d="M180.515 150.814C181.344 151.297 181.344 152.08 180.515 152.565C179.685 153.047 178.346 153.047 177.52 152.565C176.694 152.08 176.694 151.297 177.52 150.814C178.346 150.332 179.685 150.332 180.515 150.814Z" fill="#16110D"/>
<path fill-rule="evenodd" clip-rule="evenodd" d="M188.346 146.236C189.175 146.722 189.175 147.505 188.346 147.99C187.517 148.472 186.177 148.472 185.351 147.99C184.525 147.505 184.525 146.722 185.351 146.236C186.177 145.754 187.517 145.754 188.346 146.236Z" fill="#16110D"/>
<path fill-rule="evenodd" clip-rule="evenodd" d="M196.177 141.662C197.006 142.144 197.006 142.927 196.177 143.412C195.348 143.894 194.008 143.894 193.182 143.412C192.356 142.927 192.356 142.144 193.182 141.662C194.008 141.179 195.348 141.179 196.177 141.662Z" fill="#16110D"/>
<path fill-rule="evenodd" clip-rule="evenodd" d="M204.008 137.086C204.837 137.569 204.837 138.352 204.008 138.837C203.179 139.319 201.839 139.319 201.013 138.837C200.187 138.352 200.187 137.569 201.013 137.086C201.839 136.601 203.179 136.601 204.008 137.086Z" fill="#16110D"/>
<mask id="mask1" mask-type="alpha" maskUnits="userSpaceOnUse" x="208" y="131" width="5" height="4">
<path d="M208.224 131.819H212.46V134.951H208.224V131.819Z" fill="white"/>
</mask>
<g mask="url(#mask1)">
<path fill-rule="evenodd" clip-rule="evenodd" d="M211.839 132.508C212.668 132.991 212.668 133.774 211.839 134.259C211.01 134.744 209.67 134.744 208.841 134.259C208.018 133.774 208.018 132.991 208.841 132.508C209.67 132.026 211.01 132.026 211.839 132.508Z" fill="#16110D"/>
</g>
<path fill-rule="evenodd" clip-rule="evenodd" d="M125.7 173.696C126.526 174.178 126.526 174.961 125.7 175.446C124.871 175.928 123.531 175.928 122.702 175.446C121.879 174.961 121.879 174.178 122.702 173.696C123.531 173.213 124.871 173.213 125.7 173.696Z" fill="#16110D"/>
<path fill-rule="evenodd" clip-rule="evenodd" d="M133.531 169.121C134.357 169.603 134.357 170.386 133.531 170.871C132.702 171.353 131.363 171.353 130.533 170.871C129.711 170.386 129.711 169.603 130.533 169.121C131.363 168.638 132.702 168.638 133.531 169.121Z" fill="#16110D"/>
<path fill-rule="evenodd" clip-rule="evenodd" d="M141.362 164.542C142.188 165.025 142.188 165.811 141.362 166.296C140.533 166.778 139.193 166.778 138.364 166.296C137.538 165.811 137.538 165.025 138.364 164.542C139.193 164.06 140.533 164.06 141.362 164.542Z" fill="#16110D"/>
<path fill-rule="evenodd" clip-rule="evenodd" d="M149.19 159.968C150.019 160.45 150.019 161.233 149.19 161.718C148.364 162.2 147.025 162.2 146.196 161.718C145.37 161.233 145.37 160.45 146.196 159.968C147.025 159.485 148.364 159.485 149.19 159.968Z" fill="#16110D"/>
<path fill-rule="evenodd" clip-rule="evenodd" d="M157.022 155.39C157.851 155.872 157.851 156.658 157.022 157.143C156.196 157.626 154.856 157.626 154.027 157.143C153.201 156.658 153.201 155.872 154.027 155.39C154.856 154.907 156.196 154.907 157.022 155.39Z" fill="#16110D"/>
<path fill-rule="evenodd" clip-rule="evenodd" d="M164.852 150.814C165.682 151.297 165.682 152.08 164.852 152.565C164.023 153.047 162.687 153.047 161.858 152.565C161.032 152.08 161.032 151.297 161.858 150.814C162.687 150.332 164.026 150.332 164.852 150.814Z" fill="#16110D"/>
<path fill-rule="evenodd" clip-rule="evenodd" d="M172.684 146.236C173.513 146.722 173.513 147.505 172.684 147.99C171.854 148.472 170.518 148.472 169.689 147.99C168.863 147.505 168.863 146.722 169.689 146.236C170.518 145.754 171.854 145.754 172.684 146.236Z" fill="#16110D"/>
<path fill-rule="evenodd" clip-rule="evenodd" d="M180.515 141.662C181.344 142.144 181.344 142.927 180.515 143.412C179.685 143.894 178.349 143.894 177.52 143.412C176.694 142.927 176.694 142.144 177.52 141.662C178.349 141.179 179.685 141.179 180.515 141.662Z" fill="#16110D"/>
<path fill-rule="evenodd" clip-rule="evenodd" d="M188.346 137.086C189.175 137.569 189.175 138.352 188.346 138.837C187.517 139.319 186.177 139.319 185.351 138.837C184.525 138.352 184.525 137.569 185.351 137.086C186.177 136.601 187.517 136.601 188.346 137.086Z" fill="#16110D"/>
<path fill-rule="evenodd" clip-rule="evenodd" d="M196.177 132.508C197.006 132.991 197.006 133.774 196.177 134.259C195.348 134.744 194.008 134.744 193.182 134.259C192.356 133.774 192.356 132.991 193.182 132.508C194.008 132.026 195.348 132.026 196.177 132.508Z" fill="#16110D"/>
<path fill-rule="evenodd" clip-rule="evenodd" d="M204.008 127.934C204.837 128.416 204.837 129.199 204.008 129.684C203.179 130.166 201.839 130.166 201.013 129.684C200.187 129.199 200.187 128.416 201.013 127.934C201.839 127.451 203.179 127.451 204.008 127.934Z" fill="#16110D"/>
<mask id="mask2" mask-type="alpha" maskUnits="userSpaceOnUse" x="208" y="122" width="5" height="4">
<path d="M208.224 122.667H212.46V125.798H208.224V122.667Z" fill="white"/>
</mask>
<g mask="url(#mask2)">
<path fill-rule="evenodd" clip-rule="evenodd" d="M211.839 123.355C212.668 123.838 212.668 124.621 211.839 125.109C211.01 125.591 209.67 125.591 208.841 125.109C208.018 124.621 208.018 123.838 208.841 123.355C209.67 122.873 211.01 122.873 211.839 123.355Z" fill="#16110D"/>
</g>
<path fill-rule="evenodd" clip-rule="evenodd" d="M110.038 173.696C110.867 174.178 110.867 174.961 110.038 175.446C109.209 175.928 107.869 175.928 107.043 175.446C106.217 174.961 106.217 174.178 107.043 173.696C107.869 173.213 109.209 173.213 110.038 173.696Z" fill="#16110D"/>
<path fill-rule="evenodd" clip-rule="evenodd" d="M117.869 169.121C118.698 169.603 118.698 170.386 117.869 170.871C117.04 171.353 115.7 171.353 114.871 170.871C114.048 170.386 114.048 169.603 114.871 169.121C115.7 168.638 117.04 168.638 117.869 169.121Z" fill="#16110D"/>
<path fill-rule="evenodd" clip-rule="evenodd" d="M125.7 164.542C126.526 165.025 126.526 165.811 125.7 166.296C124.871 166.778 123.531 166.778 122.702 166.296C121.879 165.811 121.879 165.025 122.702 164.542C123.531 164.06 124.871 164.06 125.7 164.542Z" fill="#16110D"/>
<path fill-rule="evenodd" clip-rule="evenodd" d="M133.531 159.968C134.357 160.45 134.357 161.233 133.531 161.718C132.702 162.2 131.363 162.2 130.533 161.718C129.711 161.233 129.711 160.45 130.533 159.968C131.363 159.485 132.702 159.485 133.531 159.968Z" fill="#16110D"/>
<path fill-rule="evenodd" clip-rule="evenodd" d="M141.362 155.39C142.188 155.872 142.188 156.658 141.362 157.143C140.533 157.626 139.194 157.626 138.364 157.143C137.541 156.658 137.541 155.872 138.364 155.39C139.194 154.907 140.533 154.907 141.362 155.39Z" fill="#16110D"/>
<path fill-rule="evenodd" clip-rule="evenodd" d="M149.193 150.814C150.019 151.297 150.019 152.08 149.193 152.565C148.364 153.047 147.025 153.047 146.196 152.565C145.37 152.08 145.37 151.297 146.196 150.814C147.025 150.332 148.364 150.332 149.193 150.814Z" fill="#16110D"/>
<path fill-rule="evenodd" clip-rule="evenodd" d="M157.022 146.236C157.851 146.722 157.851 147.505 157.022 147.99C156.196 148.472 154.856 148.472 154.027 147.99C153.201 147.505 153.201 146.722 154.027 146.236C154.856 145.754 156.196 145.754 157.022 146.236Z" fill="#16110D"/>
<path fill-rule="evenodd" clip-rule="evenodd" d="M164.852 141.662C165.682 142.144 165.682 142.927 164.852 143.412C164.026 143.894 162.687 143.894 161.858 143.412C161.032 142.927 161.032 142.144 161.858 141.662C162.687 141.179 164.026 141.179 164.852 141.662Z" fill="#16110D"/>
<path fill-rule="evenodd" clip-rule="evenodd" d="M172.684 137.086C173.513 137.569 173.513 138.352 172.684 138.837C171.854 139.319 170.518 139.319 169.689 138.837C168.863 138.352 168.863 137.569 169.689 137.086C170.518 136.601 171.854 136.601 172.684 137.086Z" fill="#16110D"/>
<path fill-rule="evenodd" clip-rule="evenodd" d="M180.515 132.508C181.344 132.991 181.344 133.774 180.515 134.259C179.685 134.744 178.349 134.744 177.52 134.259C176.694 133.774 176.694 132.991 177.52 132.508C178.349 132.026 179.685 132.026 180.515 132.508Z" fill="#16110D"/>
<path fill-rule="evenodd" clip-rule="evenodd" d="M188.346 127.934C189.175 128.416 189.175 129.199 188.346 129.684C187.517 130.166 186.177 130.166 185.351 129.684C184.525 129.199 184.525 128.416 185.351 127.934C186.18 127.451 187.517 127.451 188.346 127.934Z" fill="#16110D"/>
<path fill-rule="evenodd" clip-rule="evenodd" d="M196.177 123.355C197.006 123.838 197.006 124.624 196.177 125.109C195.348 125.591 194.008 125.591 193.182 125.109C192.356 124.624 192.356 123.838 193.182 123.355C194.008 122.873 195.348 122.873 196.177 123.355Z" fill="#16110D"/>
<path fill-rule="evenodd" clip-rule="evenodd" d="M204.008 118.78C204.837 119.263 204.837 120.046 204.008 120.531C203.179 121.013 201.839 121.013 201.013 120.531C200.187 120.046 200.187 119.263 201.013 118.78C201.839 118.298 203.179 118.298 204.008 118.78Z" fill="#16110D"/>
<path fill-rule="evenodd" clip-rule="evenodd" d="M102.207 169.121C103.036 169.603 103.036 170.386 102.207 170.871C101.378 171.353 100.038 171.353 99.2124 170.871C98.3864 170.386 98.3864 169.603 99.2124 169.121C100.038 168.638 101.378 168.638 102.207 169.121Z" fill="#16110D"/>
<path fill-rule="evenodd" clip-rule="evenodd" d="M110.038 164.542C110.867 165.025 110.867 165.811 110.038 166.296C109.209 166.778 107.869 166.778 107.043 166.296C106.217 165.811 106.217 165.025 107.043 164.542C107.869 164.06 109.209 164.06 110.038 164.542Z" fill="#16110D"/>
<path fill-rule="evenodd" clip-rule="evenodd" d="M117.869 159.968C118.698 160.45 118.698 161.233 117.869 161.718C117.04 162.2 115.7 162.2 114.871 161.718C114.048 161.233 114.048 160.45 114.871 159.968C115.7 159.485 117.04 159.485 117.869 159.968Z" fill="#16110D"/>
<path fill-rule="evenodd" clip-rule="evenodd" d="M125.7 155.39C126.526 155.872 126.526 156.658 125.7 157.143C124.871 157.626 123.531 157.626 122.702 157.143C121.879 156.658 121.879 155.872 122.702 155.39C123.531 154.907 124.871 154.907 125.7 155.39Z" fill="#16110D"/>
<path fill-rule="evenodd" clip-rule="evenodd" d="M133.531 150.814C134.357 151.297 134.357 152.08 133.531 152.565C132.702 153.047 131.363 153.047 130.533 152.565C129.711 152.08 129.711 151.297 130.533 150.814C131.363 150.332 132.702 150.332 133.531 150.814Z" fill="#16110D"/>
<path fill-rule="evenodd" clip-rule="evenodd" d="M141.362 146.236C142.188 146.722 142.188 147.505 141.362 147.99C140.533 148.472 139.194 148.472 138.364 147.99C137.541 147.505 137.541 146.722 138.364 146.236C139.194 145.754 140.533 145.754 141.362 146.236Z" fill="#16110D"/>
<path fill-rule="evenodd" clip-rule="evenodd" d="M149.193 141.662C150.019 142.144 150.019 142.927 149.193 143.412C148.364 143.894 147.025 143.894 146.196 143.412C145.37 142.927 145.37 142.144 146.196 141.662C147.025 141.179 148.364 141.179 149.193 141.662Z" fill="#16110D"/>
<path fill-rule="evenodd" clip-rule="evenodd" d="M157.022 137.086C157.851 137.569 157.851 138.352 157.022 138.837C156.196 139.319 154.856 139.319 154.027 138.837C153.201 138.352 153.201 137.569 154.027 137.086C154.856 136.604 156.196 136.604 157.022 137.086Z" fill="#16110D"/>
<path fill-rule="evenodd" clip-rule="evenodd" d="M164.852 132.508C165.682 132.991 165.682 133.774 164.852 134.262C164.026 134.744 162.687 134.744 161.858 134.262C161.032 133.774 161.032 132.991 161.858 132.508C162.687 132.026 164.026 132.026 164.852 132.508Z" fill="#16110D"/>
<path fill-rule="evenodd" clip-rule="evenodd" d="M172.684 127.934C173.513 128.416 173.513 129.199 172.684 129.684C171.858 130.166 170.518 130.166 169.689 129.684C168.863 129.199 168.863 128.416 169.689 127.934C170.518 127.451 171.858 127.451 172.684 127.934Z" fill="#16110D"/>
<path fill-rule="evenodd" clip-rule="evenodd" d="M180.515 123.355C181.344 123.838 181.344 124.624 180.515 125.109C179.685 125.591 178.349 125.591 177.52 125.109C176.694 124.624 176.694 123.838 177.52 123.355C178.349 122.873 179.685 122.873 180.515 123.355Z" fill="#16110D"/>
<path fill-rule="evenodd" clip-rule="evenodd" d="M188.346 118.78C189.175 119.263 189.175 120.046 188.346 120.531C187.517 121.013 186.18 121.013 185.351 120.531C184.525 120.046 184.525 119.263 185.351 118.78C186.18 118.298 187.517 118.298 188.346 118.78Z" fill="#16110D"/>
<path fill-rule="evenodd" clip-rule="evenodd" d="M83.4723 169.078C84.2984 168.596 85.638 168.593 86.4671 169.075C87.2962 169.557 87.2962 170.34 86.4733 170.825C85.6472 171.308 84.3076 171.311 83.4785 170.829C82.6494 170.343 82.6463 169.56 83.4723 169.078Z" fill="#16110D"/>
<path fill-rule="evenodd" clip-rule="evenodd" d="M94.3098 164.497C95.1358 164.979 95.1358 165.762 94.3098 166.247C93.4806 166.73 92.141 166.73 91.3119 166.247C90.4859 165.762 90.4859 164.979 91.3119 164.497C92.141 164.011 93.4806 164.011 94.3098 164.497Z" fill="#16110D"/>
<path fill-rule="evenodd" clip-rule="evenodd" d="M102.137 159.918C102.967 160.401 102.967 161.184 102.137 161.669C101.311 162.154 99.9718 162.154 99.1427 161.669C98.3167 161.184 98.3167 160.401 99.1427 159.918C99.9718 159.436 101.311 159.436 102.137 159.918Z" fill="#16110D"/>
<path fill-rule="evenodd" clip-rule="evenodd" d="M109.969 155.344C110.798 155.826 110.798 156.609 109.969 157.094C109.143 157.576 107.803 157.576 106.974 157.094C106.148 156.609 106.148 155.826 106.974 155.344C107.803 154.861 109.143 154.861 109.969 155.344Z" fill="#16110D"/>
<path fill-rule="evenodd" clip-rule="evenodd" d="M117.8 150.766C118.629 151.248 118.629 152.031 117.8 152.519C116.974 153.002 115.634 153.002 114.805 152.519C113.979 152.031 113.979 151.248 114.805 150.766C115.634 150.283 116.974 150.283 117.8 150.766Z" fill="#16110D"/>
<path fill-rule="evenodd" clip-rule="evenodd" d="M125.631 146.191C126.46 146.673 126.46 147.456 125.631 147.941C124.805 148.424 123.465 148.424 122.636 147.941C121.81 147.456 121.81 146.673 122.636 146.191C123.465 145.709 124.805 145.709 125.631 146.191Z" fill="#16110D"/>
<path fill-rule="evenodd" clip-rule="evenodd" d="M133.462 141.612C134.291 142.095 134.291 142.881 133.462 143.366C132.633 143.848 131.296 143.848 130.467 143.366C129.641 142.881 129.641 142.095 130.467 141.612C131.296 141.13 132.633 141.13 133.462 141.612Z" fill="#16110D"/>
<path fill-rule="evenodd" clip-rule="evenodd" d="M141.293 137.038C142.122 137.52 142.122 138.303 141.293 138.788C140.464 139.27 139.127 139.27 138.298 138.788C137.472 138.303 137.472 137.52 138.298 137.038C139.127 136.555 140.464 136.555 141.293 137.038Z" fill="#16110D"/>
<path fill-rule="evenodd" clip-rule="evenodd" d="M149.124 132.46C149.953 132.942 149.953 133.728 149.124 134.213C148.295 134.695 146.955 134.695 146.129 134.213C145.303 133.728 145.303 132.942 146.129 132.46C146.955 131.977 148.295 131.977 149.124 132.46Z" fill="#16110D"/>
<path fill-rule="evenodd" clip-rule="evenodd" d="M156.955 127.885C157.784 128.367 157.784 129.15 156.955 129.635C156.126 130.117 154.786 130.117 153.96 129.635C153.134 129.15 153.134 128.367 153.96 127.885C154.786 127.402 156.126 127.402 156.955 127.885Z" fill="#16110D"/>
<path fill-rule="evenodd" clip-rule="evenodd" d="M164.786 123.309C165.615 123.792 165.615 124.575 164.786 125.06C163.957 125.542 162.617 125.542 161.791 125.06C160.965 124.575 160.965 123.792 161.791 123.309C162.617 122.824 163.957 122.824 164.786 123.309Z" fill="#16110D"/>
<path fill-rule="evenodd" clip-rule="evenodd" d="M172.617 118.732C173.446 119.214 173.446 119.997 172.617 120.482C171.788 120.964 170.448 120.964 169.619 120.482C168.796 119.997 168.796 119.214 169.619 118.732C170.448 118.249 171.788 118.249 172.617 118.732Z" fill="#16110D"/>
<path fill-rule="evenodd" clip-rule="evenodd" d="M75.6414 164.503C76.4674 164.017 77.807 164.017 78.6361 164.497C79.4653 164.979 79.4684 165.762 78.6423 166.25C77.8163 166.732 76.4767 166.736 75.6476 166.253C74.8185 165.768 74.8154 164.985 75.6414 164.503Z" fill="#16110D"/>
<path fill-rule="evenodd" clip-rule="evenodd" d="M86.4784 159.918C87.3045 160.401 87.3045 161.184 86.4784 161.669C85.6493 162.154 84.3097 162.154 83.4806 161.669C82.6577 161.184 82.6577 160.401 83.4806 159.918C84.3097 159.436 85.6493 159.436 86.4784 159.918Z" fill="#16110D"/>
<path fill-rule="evenodd" clip-rule="evenodd" d="M94.3096 155.344C95.1357 155.826 95.1357 156.609 94.3096 157.094C93.4805 157.576 92.1409 157.576 91.3118 157.094C90.4888 156.609 90.4888 155.826 91.3118 155.344C92.1409 154.861 93.4805 154.861 94.3096 155.344Z" fill="#16110D"/>
<path fill-rule="evenodd" clip-rule="evenodd" d="M102.141 150.766C102.967 151.248 102.967 152.034 102.141 152.519C101.311 153.002 99.9718 153.002 99.1427 152.519C98.3167 152.034 98.3167 151.248 99.1427 150.766C99.9718 150.283 101.311 150.283 102.141 150.766Z" fill="#16110D"/>
<path fill-rule="evenodd" clip-rule="evenodd" d="M109.969 146.191C110.798 146.673 110.798 147.456 109.969 147.941C109.143 148.424 107.803 148.424 106.974 147.941C106.148 147.456 106.148 146.673 106.974 146.191C107.803 145.709 109.143 145.709 109.969 146.191Z" fill="#16110D"/>
<path fill-rule="evenodd" clip-rule="evenodd" d="M117.8 141.612C118.629 142.095 118.629 142.881 117.8 143.366C116.974 143.848 115.634 143.848 114.805 143.366C113.979 142.881 113.979 142.095 114.805 141.612C115.634 141.13 116.974 141.13 117.8 141.612Z" fill="#16110D"/>
<path fill-rule="evenodd" clip-rule="evenodd" d="M125.631 137.038C126.46 137.52 126.46 138.303 125.631 138.788C124.805 139.27 123.465 139.27 122.636 138.788C121.81 138.303 121.81 137.52 122.636 137.038C123.465 136.555 124.805 136.555 125.631 137.038Z" fill="#16110D"/>
<path fill-rule="evenodd" clip-rule="evenodd" d="M133.462 132.46C134.291 132.942 134.291 133.728 133.462 134.213C132.633 134.695 131.296 134.695 130.467 134.213C129.641 133.728 129.641 132.942 130.467 132.46C131.296 131.977 132.633 131.977 133.462 132.46Z" fill="#16110D"/>
<path fill-rule="evenodd" clip-rule="evenodd" d="M141.293 127.885C142.122 128.367 142.122 129.15 141.293 129.635C140.464 130.117 139.127 130.117 138.298 129.635C137.472 129.15 137.472 128.367 138.298 127.885C139.127 127.402 140.464 127.402 141.293 127.885Z" fill="#16110D"/>
<path fill-rule="evenodd" clip-rule="evenodd" d="M149.124 123.309C149.953 123.792 149.953 124.575 149.124 125.06C148.295 125.542 146.955 125.542 146.129 125.06C145.303 124.575 145.303 123.792 146.129 123.309C146.955 122.824 148.295 122.824 149.124 123.309Z" fill="#16110D"/>
<path fill-rule="evenodd" clip-rule="evenodd" d="M67.8102 159.925C68.6363 159.443 69.9758 159.439 70.8081 159.922C71.6341 160.404 71.6372 161.187 70.8112 161.672C69.9851 162.158 68.6455 162.158 67.8164 161.675C66.9873 161.193 66.9842 160.407 67.8102 159.925Z" fill="#16110D"/>
<path fill-rule="evenodd" clip-rule="evenodd" d="M78.6475 155.344C79.4766 155.826 79.4766 156.609 78.6475 157.094C77.8184 157.576 76.4788 157.576 75.6527 157.094C74.8267 156.609 74.8267 155.826 75.6527 155.344C76.4788 154.861 77.8184 154.861 78.6475 155.344Z" fill="#16110D"/>
<path fill-rule="evenodd" clip-rule="evenodd" d="M86.4785 150.766C87.3076 151.248 87.3076 152.034 86.4785 152.519C85.6493 153.002 84.3097 153.002 83.4806 152.519C82.6577 152.034 82.6577 151.248 83.4806 150.766C84.3097 150.283 85.6493 150.283 86.4785 150.766Z" fill="#16110D"/>
<path fill-rule="evenodd" clip-rule="evenodd" d="M94.3096 146.191C95.1357 146.673 95.1357 147.456 94.3096 147.941C93.4805 148.424 92.1409 148.424 91.3118 147.941C90.4888 147.456 90.4888 146.673 91.3118 146.191C92.1409 145.709 93.4805 145.709 94.3096 146.191Z" fill="#16110D"/>
<path fill-rule="evenodd" clip-rule="evenodd" d="M102.141 141.612C102.967 142.095 102.967 142.881 102.141 143.366C101.311 143.848 99.9718 143.848 99.1427 143.366C98.3167 142.881 98.3167 142.095 99.1427 141.612C99.9718 141.13 101.311 141.13 102.141 141.612Z" fill="#16110D"/>
<path fill-rule="evenodd" clip-rule="evenodd" d="M109.969 137.038C110.798 137.52 110.798 138.303 109.969 138.788C109.143 139.27 107.803 139.27 106.974 138.788C106.148 138.303 106.148 137.52 106.974 137.038C107.803 136.555 109.143 136.555 109.969 137.038Z" fill="#16110D"/>
<path fill-rule="evenodd" clip-rule="evenodd" d="M117.8 132.46C118.629 132.942 118.629 133.728 117.8 134.213C116.974 134.695 115.634 134.695 114.805 134.213C113.979 133.728 113.979 132.942 114.805 132.46C115.634 131.977 116.974 131.977 117.8 132.46Z" fill="#16110D"/>
<path fill-rule="evenodd" clip-rule="evenodd" d="M125.631 127.885C126.46 128.367 126.46 129.15 125.631 129.635C124.805 130.117 123.465 130.117 122.636 129.635C121.81 129.15 121.81 128.367 122.636 127.885C123.465 127.402 124.805 127.402 125.631 127.885Z" fill="#16110D"/>
<path fill-rule="evenodd" clip-rule="evenodd" d="M133.462 123.309C134.291 123.792 134.291 124.575 133.462 125.06C132.633 125.542 131.296 125.542 130.467 125.06C129.641 124.575 129.641 123.792 130.467 123.309C131.296 122.824 132.633 122.824 133.462 123.309Z" fill="#16110D"/>
<path fill-rule="evenodd" clip-rule="evenodd" d="M59.9793 155.35C60.8084 154.865 62.1449 154.865 62.9771 155.347C63.8032 155.826 63.8063 156.612 62.9833 157.097C62.1542 157.58 60.8146 157.583 59.9855 157.1C59.1564 156.615 59.1533 155.832 59.9793 155.35Z" fill="#16110D"/>
<path fill-rule="evenodd" clip-rule="evenodd" d="M70.8164 150.766C71.6455 151.248 71.6455 152.034 70.8164 152.519C69.9873 153.002 68.6477 153.002 67.8217 152.519C66.9956 152.034 66.9956 151.248 67.8217 150.766C68.6477 150.283 69.9873 150.283 70.8164 150.766Z" fill="#16110D"/>
<path fill-rule="evenodd" clip-rule="evenodd" d="M78.6475 146.191C79.4766 146.673 79.4766 147.456 78.6475 147.941C77.8184 148.424 76.4788 148.424 75.6527 147.941C74.8267 147.456 74.8267 146.673 75.6527 146.191C76.4788 145.709 77.8184 145.709 78.6475 146.191Z" fill="#16110D"/>
<path fill-rule="evenodd" clip-rule="evenodd" d="M86.4785 141.612C87.3076 142.095 87.3076 142.881 86.4785 143.366C85.6493 143.848 84.3097 143.848 83.4806 143.366C82.6577 142.881 82.6577 142.095 83.4806 141.612C84.3097 141.13 85.6493 141.13 86.4785 141.612Z" fill="#16110D"/>
<path fill-rule="evenodd" clip-rule="evenodd" d="M94.3096 137.038C95.1357 137.52 95.1357 138.303 94.3096 138.788C93.4805 139.27 92.1409 139.27 91.3118 138.788C90.4888 138.303 90.4888 137.52 91.3118 137.038C92.1409 136.555 93.4805 136.555 94.3096 137.038Z" fill="#16110D"/>
<path fill-rule="evenodd" clip-rule="evenodd" d="M102.141 132.46C102.967 132.942 102.967 133.728 102.141 134.213C101.312 134.695 99.972 134.695 99.1428 134.213C98.3199 133.728 98.3199 132.942 99.1428 132.46C99.972 131.977 101.312 131.977 102.141 132.46Z" fill="#16110D"/>
<path fill-rule="evenodd" clip-rule="evenodd" d="M109.972 127.885C110.798 128.367 110.798 129.15 109.972 129.635C109.143 130.117 107.803 130.117 106.974 129.635C106.148 129.15 106.148 128.367 106.974 127.885C107.803 127.402 109.143 127.402 109.972 127.885Z" fill="#16110D"/>
<path fill-rule="evenodd" clip-rule="evenodd" d="M117.8 123.309C118.629 123.792 118.629 124.575 117.8 125.06C116.974 125.542 115.634 125.542 114.805 125.06C113.979 124.575 113.979 123.792 114.805 123.309C115.634 122.824 116.974 122.824 117.8 123.309Z" fill="#16110D"/>
<path fill-rule="evenodd" clip-rule="evenodd" d="M201.313 88.9235C202.303 78.8744 197.118 68.8127 185.337 60.7897C159.983 43.5224 113.729 42.2478 82.0302 57.9431C63.9999 66.8712 54.5763 79.3692 54.4557 91.6636C54.3938 92.4528 54.3505 93.267 54.3505 94.1438V100.639V108.868V112.429C54.6815 123.969 58.657 132.749 70.5462 140.848C95.9057 158.115 142.154 159.39 173.853 143.691C190.683 135.358 200.029 123.915 201.294 112.429L201.409 109.297V94.9173V90.8431L201.406 89.6813C201.39 89.4277 201.334 89.1772 201.313 88.9235Z" fill="#0066FF"/>
<path fill-rule="evenodd" clip-rule="evenodd" d="M201.25 91.3304C202.917 115.152 171.423 136.819 130.91 139.722C90.3942 142.628 56.199 125.671 54.5346 101.849C52.8671 78.0276 84.3614 56.3636 124.874 53.4575C165.387 50.5546 199.582 67.5119 201.25 91.3304Z" fill="white"/>
<path fill-rule="evenodd" clip-rule="evenodd" d="M199.841 88.0674C199.823 88.3211 199.776 88.5748 199.755 88.8284C198.598 100.259 188.976 111.241 173.173 119.067C141.957 134.521 96.3153 133.284 71.4106 116.326C61.1703 109.356 55.781 100.465 56.0502 91.2146C56.0594 90.9265 56.0254 90.6416 56.044 90.3503C56.5575 82.7971 60.8052 75.4191 68.0817 68.9807C72.082 65.442 76.9825 62.1852 82.7121 59.348C97.361 52.0954 115.19 48.5192 132.565 48.5192C152.204 48.5192 171.258 53.0881 184.472 62.0881C187.445 64.1143 189.966 66.3126 192.107 68.6174C197.577 74.511 200.306 81.1968 199.841 88.0674ZM199.758 112.252C198.508 123.592 188.818 134.536 173.173 142.284C141.957 157.738 96.3153 156.504 71.4106 139.544C60.7341 132.275 56.2389 124.406 55.8986 112.425V103.929C58.6644 109.446 63.2741 114.563 69.6843 118.926C83.3711 128.245 103.084 132.983 123.373 132.983C141.221 132.983 159.514 129.316 174.531 121.882C186.764 115.822 195.513 107.862 199.86 99.1437L199.863 109.237L199.758 112.252ZM202.951 89.5988C202.938 89.3545 202.88 89.1165 202.864 88.8723C202.88 88.6718 202.917 88.4808 202.929 88.2804C203.656 77.558 197.716 67.3335 186.201 59.489C160.473 41.9742 113.439 40.6433 81.3508 56.5359C64.1774 65.0381 53.8288 77.2887 52.9533 90.1343C52.9347 90.438 52.9719 90.7324 52.9626 91.0299C52.8636 92.0163 52.8048 93.0372 52.8048 94.1426V112.472C53.1761 125.464 58.2251 134.339 69.6843 142.146C83.3711 151.462 103.084 156.2 123.373 156.2C141.221 156.2 159.514 152.533 174.531 145.099C191.148 136.869 201.463 125.023 202.842 112.484L202.957 109.293L202.951 89.5988Z" fill="#16110D"/>
<path fill-rule="evenodd" clip-rule="evenodd" d="M97.9622 152.689L88.2292 149.361V126.131L97.9622 128.226V152.689Z" fill="#16110D"/>
<path fill-rule="evenodd" clip-rule="evenodd" d="M123.513 131.787V154.487C123.513 154.487 190.737 153.028 201.296 112.427L201.41 90.8448C201.41 90.8448 196.151 128.254 123.513 131.787Z" fill="#16110D"/>
<path d="M167.733 67.5319C168.027 67.5628 168.301 67.6445 168.522 67.7673C168.742 67.8901 168.901 68.049 168.979 68.2255C169.143 68.7635 169.041 69.32 168.687 69.8245C168.042 70.8177 167.143 71.7426 166.024 72.5645C164.29 73.8977 162.186 75.0337 159.809 75.9196C163.754 78.763 166.498 82.157 167.804 85.8067C170 85.1419 172.359 84.7041 174.785 84.5111C176.951 84.2908 179.163 84.3262 181.302 84.6154C181.782 84.6647 182.24 84.7749 182.645 84.939C183.051 85.103 183.395 85.3173 183.657 85.5681C183.777 85.8191 183.772 86.0867 183.643 86.3368C183.513 86.5869 183.265 86.8082 182.93 86.9724C181.66 87.6739 180.164 88.204 178.54 88.5279C175.356 89.2421 171.959 89.519 168.589 89.339C168.797 91.5334 168.495 93.7368 167.69 95.883L161.848 95.0733C163.059 91.8856 162.928 88.5667 161.469 85.4282C160.01 82.2896 157.269 79.4342 153.504 77.1298C149.74 74.8254 145.074 73.1475 139.946 72.2535C134.817 71.3595 129.393 71.2787 124.183 72.0188L122.86 68.4451C126.28 67.9666 129.789 67.7793 133.286 67.8884C133.079 66.0931 133.42 64.2879 134.291 62.5649C134.77 61.4869 135.612 60.4808 136.763 59.6115C137.009 59.4064 137.337 59.2435 137.715 59.1387C138.093 59.034 138.509 58.991 138.921 59.0139C139.315 59.1064 139.669 59.2537 139.953 59.4441C140.238 59.6346 140.446 59.8631 140.561 60.1117C141.135 61.1548 141.368 62.2577 141.249 63.3582C141.156 65.0877 140.558 66.795 139.484 68.3994C145.434 69.2077 150.963 70.8917 155.595 73.3059C156.968 71.8603 158.737 70.5692 160.824 69.4895C162.114 68.794 163.571 68.2237 165.142 67.7985C165.95 67.5649 166.847 67.4726 167.733 67.5319V67.5319Z" fill="#16110D"/>
<path d="M104.663 63.7498L109.823 66.8203C107.454 68.3107 105.084 69.8011 102.715 71.2914L108.536 74.7554C110.904 73.2661 113.272 71.7763 115.642 70.2859L120.804 73.3581C114.441 77.3602 108.079 81.3623 101.716 85.3645L96.5537 82.2923C99.0802 80.7031 101.605 79.115 104.128 77.528L98.3071 74.064C95.7806 75.6532 93.2549 77.2419 90.7301 78.83L85.5702 75.7594L104.663 63.7498Z" fill="#16110D"/>
<path d="M125.014 75.86L137.617 83.3596L133.389 86.0186L125.949 81.5911L122.953 83.4757L129.315 87.2614C127.906 88.1477 126.496 89.034 125.087 89.9203L118.726 86.1346L115.321 88.2763L123.061 92.8821C121.652 93.7685 120.243 94.6548 118.834 95.5411L105.931 87.8631L125.014 75.86Z" fill="#16110D"/>
<path d="M141.776 85.8346L146.936 88.9052L132.077 98.251L139.453 102.64C138.044 103.527 136.635 104.413 135.226 105.299L122.69 97.8393L141.776 85.8346Z" fill="#16110D"/>
<path d="M157.699 95.3105L163.221 98.5961C161.798 100.543 160.375 102.491 158.949 104.438C158.091 105.672 156.973 106.824 155.993 108.02C156.217 108.004 156.432 107.956 156.621 107.881C157.945 107.415 159.279 106.956 160.627 106.511C164.129 105.442 167.632 104.375 171.137 103.31L176.661 106.598L157.573 118.604L152.884 115.814C155.735 113.922 158.74 112.119 161.888 110.412C163.25 109.7 164.695 109.046 166.048 108.326C165.733 108.353 165.429 108.421 165.157 108.523C160.477 110.009 155.711 111.392 150.94 112.762C150.043 112.205 149.109 111.672 148.194 111.128C149.478 109.355 150.762 107.582 152.048 105.81C152.897 104.713 153.789 103.608 154.662 102.509C154.88 102.299 155.021 102.064 155.076 101.819C153.026 103.534 150.828 105.181 148.492 106.753C146.734 107.859 144.976 108.965 143.218 110.071L138.601 107.323L157.699 95.3105Z" fill="#16110D"/>
<path d="M94.2649 87.057C96.2351 87.2505 98.2061 87.4456 100.178 87.6423C99.3345 90.7166 99.7181 93.8656 101.296 96.8204C102.874 99.7753 105.6 102.448 109.241 104.611C112.881 106.773 117.328 108.362 122.202 109.24C127.076 110.118 132.233 110.26 137.231 109.653L138.364 113.252C135.767 113.564 133.126 113.711 130.483 113.691C130.738 115.538 130.405 117.4 129.504 119.175C129.026 120.251 128.187 121.255 127.041 122.123C126.787 122.338 126.44 122.506 126.039 122.608C125.638 122.709 125.2 122.74 124.773 122.698C124.341 122.562 123.964 122.369 123.671 122.132C123.378 121.896 123.175 121.621 123.078 121.33C122.537 120.082 122.393 118.78 122.653 117.496C122.872 116.062 123.442 114.655 124.346 113.322C118.314 112.652 112.654 111.081 107.868 108.748C106.873 109.734 105.683 110.641 104.324 111.449C102.768 112.434 100.939 113.244 98.9219 113.838C98.0401 114.115 97.0486 114.231 96.0652 114.174C95.7293 114.138 95.4213 114.038 95.1855 113.887C94.9497 113.737 94.7982 113.545 94.7528 113.338C94.6735 112.661 94.9084 111.983 95.4306 111.382C96.6942 109.845 98.4339 108.471 100.552 107.338C101.385 106.872 102.278 106.446 103.22 106.066C99.1452 103.275 96.2563 99.9115 94.8063 96.2693C92.0218 96.9617 89.0539 97.3309 86.0548 97.358C84.4433 97.403 82.8374 97.231 81.3507 96.8542C80.9536 96.7689 80.6119 96.6084 80.3749 96.3959C80.1379 96.1834 80.0179 95.9299 80.0322 95.672C80.3706 95.0148 81.1184 94.4644 82.1131 94.1403C84.5281 93.2597 87.2108 92.6919 89.9937 92.4725C91.2613 92.3548 92.5423 92.303 93.8229 92.3178C93.653 90.5608 93.8012 88.7964 94.2649 87.057V87.057Z" fill="#16110D"/>
<path d="M167.653 65.1281C167.947 65.159 168.221 65.2406 168.442 65.3635C168.662 65.4863 168.821 65.6452 168.899 65.8217C169.063 66.3596 168.961 66.9162 168.607 67.4207C167.962 68.4139 167.063 69.3388 165.943 70.1607C164.21 71.4939 162.106 72.6299 159.729 73.5158C163.674 76.3592 166.418 79.7532 167.724 83.4029C169.92 82.7381 172.279 82.3003 174.705 82.1073C176.871 81.887 179.083 81.9224 181.222 82.2116C181.702 82.2609 182.16 82.3711 182.565 82.5352C182.971 82.6992 183.315 82.9135 183.577 83.1643C183.697 83.4152 183.692 83.6829 183.562 83.933C183.433 84.1831 183.185 84.4044 182.85 84.5685C181.58 85.2701 180.084 85.8002 178.46 86.1241C175.276 86.8383 171.879 87.1152 168.509 86.9351C168.717 89.1296 168.414 91.333 167.61 93.4792L161.768 92.6695C162.979 89.4818 162.848 86.1629 161.389 83.0244C159.93 79.8858 157.189 77.0304 153.424 74.726C149.66 72.4216 144.994 70.7437 139.865 69.8497C134.737 68.9557 129.313 68.8749 124.103 69.6149L122.78 66.0413C126.2 65.5628 129.708 65.3755 133.206 65.4845C132.999 63.6893 133.34 61.8841 134.211 60.1611C134.69 59.0831 135.532 58.077 136.683 57.2077C136.928 57.0026 137.256 56.8397 137.635 56.7349C138.013 56.6302 138.429 56.5872 138.841 56.6101C139.235 56.7026 139.589 56.8498 139.873 57.0403C140.158 57.2308 140.366 57.4593 140.481 57.7079C141.055 58.751 141.288 59.8539 141.169 60.9544C141.076 62.6839 140.478 64.3912 139.404 65.9956C145.354 66.8039 150.883 68.4879 155.515 70.9021C156.887 69.4565 158.656 68.1654 160.744 67.0856C162.034 66.3902 163.491 65.8199 165.062 65.3947C165.87 65.1611 166.767 65.0688 167.653 65.1281V65.1281Z" fill="#0066FF"/>
<path d="M104.583 61.3462L109.743 64.4168C107.374 65.9071 105.004 67.3975 102.635 68.8878L108.456 72.3518C110.824 70.8625 113.192 69.3727 115.561 67.8824L120.724 70.9545C114.361 74.9566 107.999 78.9588 101.636 82.9609L96.4736 79.8887C99.0001 78.2995 101.525 76.7114 104.048 75.1244L98.227 71.6604C95.7005 73.2497 93.1748 74.8383 90.65 76.4264L85.4902 73.3558L104.583 61.3462Z" fill="#0066FF"/>
<path d="M124.934 73.4562L137.536 80.9558L133.309 83.6148L125.869 79.1873L122.873 81.0719L129.235 84.8576C127.825 85.7439 126.416 86.6302 125.007 87.5165L118.646 83.7308L115.241 85.8725L122.981 90.4783C121.572 91.3646 120.163 92.251 118.754 93.1373L105.851 85.4592L124.934 73.4562Z" fill="#0066FF"/>
<path d="M141.696 83.4309L146.855 86.5015L131.997 95.8473L139.373 100.237C137.964 101.123 136.555 102.009 135.146 102.895L122.61 95.4356L141.696 83.4309Z" fill="#0066FF"/>
<path d="M157.619 92.9069L163.14 96.1924C161.718 98.1396 160.294 100.087 158.869 102.034C158.011 103.268 156.893 104.42 155.913 105.616C156.137 105.6 156.351 105.552 156.541 105.477C157.865 105.011 159.199 104.552 160.547 104.107C164.048 103.038 167.552 101.971 171.057 100.907L176.581 104.194L157.493 116.2L152.804 113.41C155.655 111.518 158.66 109.715 161.808 108.009C163.169 107.296 164.614 106.643 165.968 105.922C165.652 105.95 165.349 106.017 165.077 106.12C160.397 107.605 155.631 108.988 150.859 110.358C149.962 109.802 149.029 109.269 148.113 108.724C149.397 106.951 150.682 105.179 151.968 103.407C152.817 102.309 153.709 101.204 154.582 100.105C154.799 99.8958 154.941 99.6605 154.996 99.4153C152.946 101.13 150.748 102.777 148.412 104.349C146.654 105.455 144.896 106.561 143.137 107.667L138.521 104.92L157.619 92.9069Z" fill="#0066FF"/>
<path d="M94.185 84.6534C96.1551 84.8469 98.1261 85.042 100.098 85.2387C99.2545 88.313 99.6382 91.462 101.216 94.4169C102.794 97.3717 105.52 100.045 109.161 102.207C112.801 104.37 117.248 105.958 122.122 106.836C126.996 107.714 132.153 107.856 137.151 107.25L138.284 110.848C135.687 111.16 133.046 111.307 130.403 111.288C130.658 113.135 130.325 114.997 129.425 116.771C128.946 117.847 128.107 118.851 126.961 119.72C126.707 119.935 126.36 120.103 125.959 120.204C125.558 120.306 125.12 120.337 124.694 120.294C124.261 120.159 123.884 119.966 123.591 119.729C123.298 119.492 123.095 119.218 122.998 118.926C122.457 117.678 122.313 116.377 122.573 115.092C122.792 113.658 123.362 112.251 124.266 110.919C118.234 110.248 112.574 108.678 107.788 106.345C106.793 107.331 105.603 108.238 104.244 109.045C102.688 110.031 100.859 110.84 98.8419 111.434C97.9601 111.711 96.9687 111.828 95.9852 111.77C95.6493 111.734 95.3414 111.634 95.1056 111.484C94.8698 111.334 94.7183 111.142 94.6729 110.935C94.5935 110.258 94.8285 109.58 95.3507 108.978C96.6143 107.441 98.3539 106.068 100.472 104.935C101.305 104.468 102.198 104.043 103.14 103.663C99.0653 100.872 96.1763 97.508 94.7263 93.8658C91.9419 94.5581 88.9739 94.9273 85.9748 94.9544C84.3633 94.9994 82.7575 94.8274 81.2707 94.4506C80.8737 94.3653 80.532 94.2048 80.295 93.9923C80.058 93.7798 79.938 93.5263 79.9523 93.2684C80.2906 92.6113 81.0385 92.0608 82.0332 91.7368C84.4482 90.8561 87.1308 90.2884 89.9138 90.0689C91.1814 89.9512 92.4624 89.8995 93.7429 89.9143C93.573 88.1572 93.7213 86.3929 94.185 84.6534V84.6534Z" fill="#0066FF"/>
</svg>
