
<svg width="121px" height="150px" viewBox="0 0 121 150" version="1.1" xmlns="http://www.w3.org/2000/svg" xmlns:xlink="http://www.w3.org/1999/xlink">
    <defs>
        <polygon id="path-1" points="0.400691489 0.2023175 3.02265957 0.2023175 3.02265957 1.925 0.400691489 1.925"></polygon>
        <polygon id="path-3" points="1.11705319 1.0943625 3.73787234 1.0943625 3.73787234 3.0193625 1.11705319 3.0193625"></polygon>
        <polygon id="path-5" points="0.281010638 0.2023175 2.90297872 0.2023175 2.90297872 1.925 0.281010638 1.925"></polygon>
        <polygon id="path-7" points="1.11705319 1.24278 3.73787234 1.24278 3.73787234 3.16778 1.11705319 3.16778"></polygon>
        <polygon id="path-9" points="1.11705319 1.39139 3.73787234 1.39139 3.73787234 3.31639 1.11705319 3.31639"></polygon>
    </defs>
    <g id="Page-1" stroke="none" stroke-width="1" fill="none" fill-rule="evenodd">
        <g id="Design" transform="translate(-657.000000, -2371.000000)">
            <path d="M705.474657,2507.23954 C734.197395,2514.82039 750.771373,2506.74663 770.116046,2483.51902 C789.460719,2460.29141 770.116046,2424.16814 745.426062,2414.85842 C720.736078,2405.5487 657,2412.71371 657,2440.41862 C657,2468.12353 676.751919,2499.6587 705.474657,2507.23954 Z" id="Oval-Copy-4" fill="#F2F7FF"></path>
            <g id="Group-283" transform="translate(673.000000, 2371.000000)">
                <polygon id="Fill-1" fill="#0066FF" points="30.5814255 19.3799375 30.5852553 10.7212875 35.1561064 13.6973375 35.1503617 22.3579125"></polygon>
                <polygon id="Fill-2" fill="#0066FF" points="30.5852553 10.7205175 35.1561064 13.6965675 52.1335532 3.8867675 47.564617 0.9107175"></polygon>
                <polygon id="Fill-3" fill="#FFFFFF" points="31.3669149 12.969495 48.0801064 3.321395 52.6471277 6.297445 35.5126596 15.65872"></polygon>
                <path d="M47.564234,-0.0001925 L29.799766,10.2639075 L29.7959362,19.8369325 L35.1499787,23.2692075 L52.9163617,13.0051075 L52.9182766,3.4340075 L47.564234,-0.0001925 Z M32.1627447,10.7220575 L47.5623191,1.8247075 L50.5591277,3.8883075 L35.1557234,12.7856575 L32.1627447,10.7220575 Z M31.3680638,18.9264075 L31.3738085,12.0888075 L34.370617,14.1543325 L34.3648723,20.9900075 L31.3680638,18.9264075 Z" id="Fill-4" fill="#16110D"></path>
                <g id="Group-282" transform="translate(0.000000, 9.029405)">
                    <path d="M45.3245745,1.3607825 C45.3111702,1.3530825 45.297766,1.3473075 45.2843617,1.3396075 L45.3245745,1.3607825 L45.2364894,1.3203575 C44.6447872,1.0316075 43.7773404,1.2375825 42.8543617,2.1307825 C42.147766,2.8199325 41.6403191,3.7112075 41.4181915,4.6737075 C41.1232979,5.9538325 41.4220213,6.8220075 42.0271277,7.1454075 L42.2243617,7.2493575 L46.1384043,9.2840825 L48.9743617,5.0490825 L49.4971277,3.6958075 C49.5162766,3.6419075 49.4952128,3.5783825 49.4415957,3.5514325 L45.3245745,1.3607825 Z" id="Fill-5" fill="#0066FF"></path>
                    <polygon id="Fill-7" fill="#FFFFFF" points="41.7249574 3.763375 47.2302766 6.781775 45.1468723 8.7703 41.7249574 7.135975 41.3592128 4.9896"></polygon>
                    <path d="M44.6794468,1.595825 C44.2332766,1.595825 43.6817872,1.88265 43.128383,2.419725 C42.4773191,3.051125 42.0062553,3.882725 41.8032766,4.764375 C41.5734894,5.757675 41.7305106,6.535375 42.2130638,6.793325 L42.4102979,6.8992 L46.0064681,8.7703 L48.6451915,4.825975 L49.0377447,3.786475 L45.0643404,1.680525 C44.9494468,1.6247 44.819234,1.595825 44.6794468,1.595825 Z M46.2707234,9.800175 L41.8415745,7.494025 C41.0162553,7.055125 40.7137021,5.9675 41.0334894,4.583425 C41.2728511,3.542 41.8090213,2.596825 42.5788085,1.846075 C43.5668936,0.88935 44.6009362,0.567875 45.4109362,0.964425 L45.359234,1.19735 L45.4607234,0.9856 L45.5105106,1.0087 L49.6275319,3.19935 C49.8554043,3.320625 49.9588085,3.5959 49.8668936,3.836525 L49.3441277,5.191725 L46.2707234,9.800175 Z" id="Fill-9" fill="#16110D"></path>
                    <path d="M50.1118085,5.0510075 C50.1118085,6.5563575 49.0605319,8.3851075 47.7641489,9.1397075 C46.4696809,9.8923825 45.4184043,9.2821575 45.4184043,7.7768075 C45.4184043,6.2714575 46.4696809,4.4427075 47.7641489,3.6900325 C49.0605319,2.9354325 50.1118085,3.5475825 50.1118085,5.0510075" id="Fill-11" fill="#16110D"></path>
                    <path d="M48.8104468,3.763375 C48.5615106,3.763375 48.2723617,3.855775 47.9640638,4.0348 C46.7959787,4.710475 45.8136383,6.42565 45.8136383,7.777 C45.8136383,8.35835 45.9859787,8.776075 46.3019362,8.95895 C46.6178936,9.14375 47.0659787,9.086 47.5676809,8.795325 C48.7319362,8.11965 49.7181064,6.404475 49.7181064,5.053125 C49.7181064,4.471775 49.5438511,4.0502 49.2278936,3.86925 C49.1072553,3.79995 48.9674681,3.763375 48.8104468,3.763375 M46.7155532,9.861775 C46.4244894,9.861775 46.1506596,9.79055 45.9055532,9.650025 C45.3368298,9.318925 45.0208723,8.652875 45.0208723,7.777 C45.0208723,6.1215 46.1391702,4.1734 47.5676809,3.34565 C48.3221489,2.90675 49.0517234,2.849 49.6242766,3.1801 C50.1949149,3.5112 50.5089574,4.17725 50.5089574,5.053125 C50.5089574,6.708625 49.3906596,8.6548 47.9640638,9.484475 C47.5312979,9.734725 47.1061915,9.861775 46.7155532,9.861775" id="Fill-13" fill="#16110D"></path>
                    <path d="M47.7725745,35.6931575 C47.4719362,35.2773575 47.0621489,35.1175825 46.8419362,35.3274075 C46.6753404,35.4814075 46.4838511,35.6007575 46.2674681,35.6873825 C46.0223617,35.7836325 45.6412979,35.5391575 45.4306596,35.1560825 L45.2659787,34.8500075 C44.9883191,34.3379575 44.9864043,33.7989575 45.260234,33.6045325 L45.6336383,33.3446575 C46.1736383,32.9654325 46.4723617,32.2608825 46.4723617,31.3619075 L46.4723617,29.3098575 L45.1089574,28.5167575 L44.1208723,29.1693325 L44.5134255,31.7738575 L44.2510851,31.9567325 C43.7053404,32.3398075 43.5636383,33.2214575 43.8164043,34.2109075 L43.5636383,34.7691575 L44.9998085,37.1003325 L46.6504468,37.7933325 L47.3991702,37.2774325 C47.5849149,37.1773325 47.763,37.0656825 47.9181064,36.9213075 C48.1574681,36.6960825 48.0942766,36.1416825 47.7725745,35.6931575" id="Fill-15" fill="#0066FF"></path>
                    <path d="M45.1039787,36.9790575 L46.6339787,37.6181575 L47.3099362,37.1523075 C47.5301489,37.0329575 47.6852553,36.9270825 47.8135532,36.8058075 C47.9744043,36.6556575 47.9361064,36.1878825 47.6469574,35.7855575 C47.4841915,35.5584075 47.277383,35.4082575 47.1069574,35.3909325 C47.0380213,35.3832325 46.9863191,35.4005575 46.9461064,35.4390575 C46.7661064,35.6084575 46.557383,35.7393575 46.323766,35.8317575 C46.0078085,35.9568825 45.5444043,35.6854575 45.297383,35.2292325 L45.1327021,34.9231575 C44.8090851,34.3283325 44.8244043,33.7219575 45.1729149,33.4774825 L45.5444043,33.2176075 C46.0441915,32.8672575 46.3180213,32.2089075 46.3180213,31.3619075 L46.3180213,29.3984075 L45.1154681,28.6996325 L44.288234,29.2424825 L44.6788723,31.8450825 L44.3399362,32.0837825 C43.8650426,32.4168075 43.7195106,33.2176075 43.964617,34.1724075 L43.9780213,34.2243825 L43.7367447,34.7576075 L45.1039787,36.9790575 Z M46.6684468,37.9704325 L44.8952553,37.2254575 L43.388234,34.7787825 L43.6544043,34.1974325 C43.3958936,33.1367575 43.5892979,32.2320075 44.163766,31.8296825 L44.3456809,31.7026325 L43.9531277,29.0942575 L45.1039787,28.3377325 L46.6263191,29.2213075 L46.6263191,31.3619075 C46.6263191,32.3128575 46.304617,33.0636075 45.7205745,33.4717075 L45.351,33.7315825 C45.171,33.8567075 45.1403617,34.2917575 45.4007872,34.7749325 L45.567383,35.0810075 C45.747383,35.4140325 46.0614255,35.5988325 46.2107872,35.5430075 C46.4099362,35.4660075 46.5841915,35.3543575 46.7354681,35.2138325 C46.8407872,35.1118075 46.9805745,35.0675325 47.1375957,35.0848575 C47.3961064,35.1079575 47.6795106,35.3023825 47.8958936,35.6026825 C48.2692979,36.1224325 48.3267447,36.7499825 48.0222766,37.0329575 C47.8729149,37.1734825 47.6967447,37.2947575 47.4688723,37.4160325 L46.6684468,37.9704325 Z" id="Fill-17" fill="#16110D"></path>
                    <path d="M45.2778511,36.3380325 C45.0346596,36.4342825 44.6516809,36.1898075 44.4429574,35.8067325 L44.2782766,35.4987325 C43.9987021,34.9886075 43.9967872,34.4496075 44.2744468,34.2551825 L44.6440213,33.9953075 C45.1859362,33.6160825 45.4827447,32.9134575 45.4827447,32.0125575 L45.4827447,29.9605075 L44.1212553,29.1693325 L44.1212553,31.2213825 C44.1212553,31.7257325 43.9489149,32.1261325 43.6348723,32.3475075 L43.263383,32.6073825 C42.5146596,33.1309825 42.5204043,34.5978325 43.2729574,35.9876825 L43.4395532,36.2956825 C43.8167872,36.9906075 44.3491277,37.5411575 44.8814681,37.8510825 C45.3314681,38.1128825 45.7872128,38.2014325 46.1529574,38.0589825 C46.4459362,37.9434825 46.7044468,37.7798575 46.9284894,37.5719575 C47.1678511,37.3467325 47.1065745,36.7923325 46.7829574,36.3457325 C46.4823191,35.9280075 46.0744468,35.7682325 45.8523191,35.9780575 C45.6876383,36.1320575 45.494234,36.2533325 45.2778511,36.3380325" id="Fill-19" fill="#0066FF"></path>
                    <path d="M44.2755957,29.4369075 L44.2755957,31.2213825 C44.2755957,31.7796325 44.0764468,32.2243075 43.7221915,32.4745575 L43.352617,32.7344325 C42.6728298,33.2099075 42.6996383,34.6055325 43.4100638,35.9126075 L43.5766596,36.2186825 C43.9251702,36.8635575 44.4287872,37.4102575 44.9572979,37.7182575 C45.3843191,37.9646575 45.7883617,38.0358825 46.0966596,37.9126825 C46.3704894,37.8068075 46.6175106,37.6547325 46.8243191,37.4583825 C46.9851702,37.3082325 46.9487872,36.8385325 46.6577234,36.4362075 C46.4949574,36.2109825 46.2900638,36.0569825 46.1196383,36.0435075 C46.0507021,36.0358075 45.9970851,36.0531325 45.9568723,36.0897075 C45.7787872,36.2591075 45.5700638,36.3900075 45.3345319,36.4824075 C45.0166596,36.6075325 44.5551702,36.3361075 44.3100638,35.8798825 L44.1434681,35.5738075 C43.8198511,34.9789825 43.8370851,34.3706825 44.1855957,34.1281325 L44.5551702,33.8682575 C45.0549574,33.5179075 45.3307021,32.8595575 45.3307021,32.0125575 L45.3307021,30.0490575 L44.2755957,29.4369075 Z M45.7768723,38.2803575 C45.4743191,38.2803575 45.1411277,38.1802575 44.8041064,37.9839075 C44.2277234,37.6508825 43.6800638,37.0618325 43.3047447,36.3688325 L43.1381489,36.0608325 C42.3415532,34.5939825 42.3568723,33.0539825 43.1745319,32.4803325 L43.5460213,32.2204575 C43.8179362,32.0318075 43.9672979,31.6756825 43.9672979,31.2213825 L43.9672979,28.9017575 L45.6370851,29.8719575 L45.6370851,32.0125575 C45.6370851,32.9635075 45.315383,33.7142575 44.7313404,34.1223575 L44.361766,34.3803075 C44.181766,34.5092825 44.1511277,34.9424075 44.4115532,35.4255825 L44.5781489,35.7316575 C44.7581489,36.0627575 45.0721915,36.2533325 45.2215532,36.1936575 C45.4207021,36.1166575 45.5949574,36.0050075 45.7481489,35.8644825 C45.8534681,35.7643825 45.9913404,35.7181825 46.1483617,35.7335825 C46.4068723,35.7586075 46.6921915,35.9530325 46.9085745,36.2533325 C47.2819787,36.7730825 47.3375106,37.4006325 47.0349574,37.6836075 C46.7955957,37.9049825 46.5198511,38.0801575 46.2096383,38.2033575 C46.0736809,38.2553325 45.9300638,38.2803575 45.7768723,38.2803575 Z" id="Fill-21" fill="#16110D"></path>
                    <path d="M45.0777447,28.7000175 L46.2822128,29.3987925 L45.4837021,29.9589675 L44.2754043,29.3968675 L44.2505106,29.2428675 L45.0777447,28.7000175 Z M47.8600851,35.6030675 C47.6437021,35.3027675 47.358383,35.1083425 47.1017872,35.0833175 C46.9466809,35.0679175 46.8049787,35.1121925 46.6996596,35.2142175 C46.5502979,35.3547425 46.3741277,35.4663925 46.1730638,35.5433925 C46.0237021,35.5992175 45.7115745,35.4124925 45.5315745,35.0794675 L45.3649787,34.7753175 C45.1026383,34.2921425 45.1332766,33.8570925 45.3151915,33.7300425 L45.684766,33.4720925 C46.2688085,33.0639925 46.5905106,32.3132425 46.5905106,31.3622925 L46.5905106,29.2216925 L45.0681702,28.3381175 L43.9173191,29.0946425 L44.3098723,31.7030175 L44.1279574,31.8300675 C43.5534894,32.2323925 43.3600851,33.1371425 43.6166809,34.1958925 L43.3524255,34.7791675 L44.8594468,37.2258425 L46.6326383,37.9688925 L47.4330638,37.4144925 C47.6628511,37.2951425 47.8371064,37.1719425 47.988383,37.0333425 C48.2909362,36.7503675 48.2334894,36.1208925 47.8600851,35.6030675 Z" id="Fill-23" fill="#16110D"></path>
                    <path d="M45.2424255,36.3380325 C44.9973191,36.4342825 44.6162553,36.1898075 44.4075319,35.8067325 L44.2428511,35.4987325 C43.9632766,34.9886075 43.9613617,34.4496075 44.2390213,34.2551825 L44.6085957,33.9953075 C45.1485957,33.6160825 45.4473191,32.9134575 45.4473191,32.0125575 L45.4473191,29.9605075 L44.0858298,29.1693325 L44.0858298,31.2213825 C44.0858298,31.7257325 43.9134894,32.1261325 43.5994468,32.3475075 L43.2260426,32.6073825 C42.479234,33.1309825 42.4849787,34.5978325 43.2375319,35.9876825 L43.4041277,36.2956825 C43.7813617,36.9906075 44.3117872,37.5411575 44.8460426,37.8510825 C45.2960426,38.1128825 45.7517872,38.2014325 46.1175319,38.0589825 C46.4085957,37.9434825 46.6690213,37.7798575 46.8930638,37.5719575 C47.1324255,37.3467325 47.069234,36.7923325 46.7475319,36.3457325 C46.4468936,35.9280075 46.0371064,35.7682325 45.8168936,35.9780575 C45.6522128,36.1320575 45.4588085,36.2533325 45.2424255,36.3380325" id="Fill-25" fill="#0066FF"></path>
                    <path d="M44.2382553,29.4369075 L44.2382553,31.2213825 C44.2382553,31.7796325 44.0410213,32.2243075 43.686766,32.4745575 L43.3152766,32.7344325 C42.6374043,33.2099075 42.6642128,34.6055325 43.3727234,35.9126075 L43.5393191,36.2186825 C43.8878298,36.8635575 44.3933617,37.4102575 44.9218723,37.7182575 C45.3488936,37.9646575 45.7529362,38.0358825 46.061234,37.9126825 C46.3350638,37.8087325 46.5801702,37.6547325 46.7888936,37.4583825 C46.9497447,37.3082325 46.9114468,36.8385325 46.6222979,36.4362075 C46.4595319,36.2109825 46.2527234,36.0569825 46.0842128,36.0435075 C46.0133617,36.0358075 45.9616596,36.0531325 45.9214468,36.0897075 C45.7414468,36.2591075 45.5327234,36.3900075 45.2991064,36.4824075 C44.981234,36.6075325 44.5197447,36.3361075 44.2727234,35.8798825 L44.1061277,35.5738075 C43.7844255,34.9789825 43.8016596,34.3706825 44.1482553,34.1281325 L44.5178298,33.8682575 C45.0195319,33.5179075 45.2933617,32.8595575 45.2933617,32.0125575 L45.2933617,30.0490575 L44.2382553,29.4369075 Z M45.7395319,38.2803575 C45.4388936,38.2822825 45.1057021,38.1802575 44.766766,37.9839075 C44.1922979,37.6508825 43.6446383,37.0618325 43.2693191,36.3688325 L43.1027234,36.0608325 C42.3061277,34.5939825 42.3214468,33.0539825 43.1391064,32.4803325 L43.5105957,32.2204575 C43.7825106,32.0318075 43.9318723,31.6756825 43.9318723,31.2213825 L43.9318723,28.9017575 L45.6016596,29.8719575 L45.6016596,32.0125575 C45.6016596,32.9635075 45.2799574,33.7142575 44.6959149,34.1223575 L44.3263404,34.3803075 C44.1463404,34.5092825 44.1157021,34.9424075 44.3761277,35.4255825 L44.5427234,35.7316575 C44.7227234,36.0627575 45.036766,36.2533325 45.1861277,36.1936575 C45.3852766,36.1166575 45.5595319,36.0050075 45.7108085,35.8644825 C45.8180426,35.7643825 45.9578298,35.7181825 46.1129362,35.7335825 C46.3695319,35.7586075 46.6548511,35.9530325 46.8731489,36.2533325 C47.2465532,36.7730825 47.3020851,37.4006325 46.997617,37.6836075 C46.7601702,37.9069075 46.4825106,38.0801575 46.1742128,38.2033575 C46.0382553,38.2553325 45.8927234,38.2803575 45.7395319,38.2803575 Z" id="Fill-27" fill="#16110D"></path>
                    <path d="M45.287234,24.985345 C45.2776596,24.97957 45.27,24.97572 45.2623404,24.97187 L45.287234,24.985345 L45.233617,24.96032 C44.8678723,24.78322 44.3355319,24.908345 43.7668085,25.458895 C43.3321277,25.882395 43.0180851,26.429095 42.8821277,27.02392 C42.7002128,27.811245 42.8859574,28.34447 43.2574468,28.54467 L43.3780851,28.608195 L45.7889362,29.859445 L47.5334043,27.25492 L47.8531915,26.421395 C47.8665957,26.38867 47.8531915,26.35017 47.8206383,26.332845 L45.287234,24.985345 Z" id="Fill-29" fill="#0066FF"></path>
                    <path d="M45.2181064,26.1301425 C45.2104468,26.1262925 45.2008723,26.1224425 45.1932128,26.1166675 L45.2181064,26.1301425 L45.1664043,26.1051175 C44.7987447,25.9280175 44.2664043,26.0550675 43.6976809,26.6036925 C43.263,27.0271925 42.9508723,27.5758175 42.8149149,28.1687175 C42.633,28.9560425 43.820234,28.6692175 44.1917234,28.8694175 L44.3104468,28.9329425 L45.8978936,29.6432675 L47.4642766,28.3997175 L47.7859787,27.5661925 C47.799383,27.5334675 47.7840638,27.4949675 47.7515106,27.4776425 L45.2181064,26.1301425 Z" id="Fill-31" fill="#FFFFFF"></path>
                    <path d="M44.8889362,25.14897 C44.6189362,25.14897 44.2876596,25.324145 43.9506383,25.64947 C43.5523404,26.036395 43.2631915,26.544595 43.1406383,27.083595 C43.0008511,27.684195 43.0946809,28.15582 43.3819149,28.30982 L43.5025532,28.37527 L45.7008511,29.516795 L47.3151064,27.106695 L47.5487234,26.486845 L45.1168085,25.19902 C45.0478723,25.16437 44.9731915,25.14897 44.8889362,25.14897 Z M45.8751064,30.20402 L43.1329787,28.77567 C42.6159574,28.500395 42.426383,27.82472 42.6255319,26.96232 C42.7748936,26.325145 43.1138298,25.724545 43.5829787,25.26832 C44.1976596,24.673495 44.8410638,24.473295 45.3485106,24.72162 L45.3159574,24.865995 L45.3791489,24.735095 L45.4097872,24.750495 L47.9451064,26.097995 C48.0925532,26.178845 48.1595745,26.355945 48.1021277,26.513795 L47.7785106,27.35117 L45.8751064,30.20402 Z" id="Fill-33" fill="#16110D"></path>
                    <path d="M48.2325319,27.2562675 C48.2325319,28.1802675 47.5852979,29.3063925 46.7887021,29.7722425 C45.9901915,30.2342425 45.3429574,29.8588675 45.3429574,28.9329425 C45.3429574,28.0070175 45.9901915,26.8808925 46.7887021,26.4169675 C47.5852979,25.9530425 48.2325319,26.3303425 48.2325319,27.2562675" id="Fill-35" fill="#16110D"></path>
                    <path d="M47.4340213,26.4854975 C47.2827447,26.4854975 47.1046596,26.5393975 46.9189149,26.6471975 C46.2065745,27.0610725 45.6072128,28.1082725 45.6072128,28.9321725 C45.6072128,29.2748225 45.7144468,29.5346975 45.8982766,29.6444225 C46.0859362,29.7483725 46.359766,29.7137225 46.6565745,29.5404725 C47.3689149,29.1285225 47.9682766,28.0813225 47.9682766,27.2554975 C47.9682766,26.9128475 47.8648723,26.6529725 47.6791277,26.5451725 C47.6101915,26.5047475 47.5259362,26.4854975 47.4340213,26.4854975 M46.143383,30.2353975 C45.9595532,30.2353975 45.7891277,30.1911225 45.6359362,30.1025725 C45.2759362,29.8946725 45.080617,29.4807975 45.080617,28.9321725 C45.080617,27.9061475 45.7718936,26.7010975 46.6565745,26.1890475 C47.1295532,25.9137725 47.5852979,25.8810475 47.943383,26.0870225 C48.2995532,26.2929975 48.4967872,26.7087975 48.4967872,27.2554975 C48.4967872,28.2834475 47.8035957,29.4884975 46.9189149,30.0005475 C46.6508298,30.1564725 46.3865745,30.2353975 46.143383,30.2353975" id="Fill-37" fill="#16110D"></path>
                    <polygon id="Fill-39" fill="#16110D" points="45.7996596 25.9534275 45.0068936 25.9534275 45.0222128 8.7689525 45.8130638 8.7689525"></polygon>
                    <g id="Group-43" transform="translate(28.723404, 138.600000)">
                        <mask id="mask-2" fill="white">
                            <use xlink:href="#path-1"></use>
                        </mask>
                        <g id="Clip-42"></g>
                        <path d="M2.63776596,0.6258175 C3.15095745,0.9222675 3.15095745,1.4054425 2.63776596,1.7038175 C2.12457447,2.0002675 1.29542553,2.0002675 0.784148936,1.7038175 C0.27287234,1.4054425 0.27287234,0.9222675 0.784148936,0.6258175 C1.29542553,0.3293675 2.12457447,0.3293675 2.63776596,0.6258175" id="Fill-41" fill="#16110D" mask="url(#mask-2)"></path>
                    </g>
                    <path d="M36.2083404,136.413585 C36.7215319,136.710035 36.7215319,137.191285 36.2083404,137.48966 C35.6951489,137.78611 34.866,137.78611 34.3547234,137.48966 C33.8434468,137.191285 33.8434468,136.710035 34.3547234,136.413585 C34.866,136.117135 35.6951489,136.117135 36.2083404,136.413585" id="Fill-44" fill="#16110D"></path>
                    <path d="M41.0553191,133.599427 C41.5685106,133.895878 41.5685106,134.379053 41.0553191,134.677428 C40.5421277,134.973878 39.7129787,134.973878 39.1997872,134.677428 C38.6904255,134.379053 38.6904255,133.895878 39.1997872,133.599427 C39.7129787,133.302977 40.5421277,133.302977 41.0553191,133.599427" id="Fill-46" fill="#16110D"></path>
                    <path d="M45.9024894,130.787002 C46.413766,131.083452 46.413766,131.564702 45.9024894,131.863077 C45.3892979,132.159527 44.5601489,132.159527 44.0469574,131.863077 C43.5375957,131.564702 43.5375957,131.083452 44.0469574,130.787002 C44.5601489,130.490553 45.3892979,130.490553 45.9024894,130.787002" id="Fill-48" fill="#16110D"></path>
                    <path d="M50.7494681,127.972845 C51.2607447,128.269295 51.2607447,128.75247 50.7494681,129.050845 C50.2362766,129.347295 49.4071277,129.347295 48.8939362,129.050845 C48.3845745,128.75247 48.3845745,128.269295 48.8939362,127.972845 C49.4071277,127.676395 50.2362766,127.676395 50.7494681,127.972845" id="Fill-50" fill="#16110D"></path>
                    <path d="M55.5966383,125.160613 C56.1079149,125.457063 56.1079149,125.938313 55.5966383,126.236688 C55.0834468,126.533138 54.2542979,126.533138 53.7411064,126.236688 C53.2298298,125.938313 53.2298298,125.457063 53.7411064,125.160613 C54.2542979,124.864163 55.0834468,124.864163 55.5966383,125.160613" id="Fill-52" fill="#16110D"></path>
                    <path d="M60.4418936,122.346263 C60.9550851,122.644638 60.9550851,123.125888 60.4418936,123.424262 C59.930617,123.720713 59.1014681,123.720713 58.5882766,123.424262 C58.077,123.125888 58.077,122.644638 58.5882766,122.346263 C59.1014681,122.049813 59.930617,122.049813 60.4418936,122.346263" id="Fill-54" fill="#16110D"></path>
                    <path d="M65.2888723,119.53403 C65.8020638,119.83048 65.8020638,120.31173 65.2888723,120.610105 C64.7775957,120.906555 63.9484468,120.906555 63.4352553,120.610105 C62.9239787,120.31173 62.9239787,119.83048 63.4352553,119.53403 C63.9484468,119.23758 64.7775957,119.23758 65.2888723,119.53403" id="Fill-56" fill="#16110D"></path>
                    <path d="M70.1360426,116.721798 C70.649234,117.018248 70.649234,117.499498 70.1360426,117.797872 C69.624766,118.094323 68.795617,118.094323 68.2824255,117.797872 C67.7711489,117.499498 67.7711489,117.018248 68.2824255,116.721798 C68.795617,116.425348 69.624766,116.425348 70.1360426,116.721798" id="Fill-58" fill="#16110D"></path>
                    <path d="M74.9830213,113.90764 C75.4962128,114.20409 75.4962128,114.68534 74.9830213,114.98564 C74.4698298,115.28209 73.6425957,115.28209 73.1294043,114.98564 C72.6181277,114.68534 72.6181277,114.20409 73.1294043,113.90764 C73.6425957,113.61119 74.4698298,113.61119 74.9830213,113.90764" id="Fill-60" fill="#16110D"></path>
                    <path d="M79.8301915,111.095215 C80.343383,111.391665 80.343383,111.872915 79.8301915,112.17129 C79.317,112.46774 78.489766,112.46774 77.9765745,112.17129 C77.4652979,111.872915 77.4652979,111.391665 77.9765745,111.095215 C78.489766,110.798765 79.317,110.798765 79.8301915,111.095215" id="Fill-62" fill="#16110D"></path>
                    <path d="M84.6771702,108.281058 C85.1903617,108.577507 85.1903617,109.060682 84.6771702,109.359057 C84.1639787,109.655507 83.3348298,109.655507 82.8235532,109.359057 C82.3122766,109.060682 82.3122766,108.577507 82.8235532,108.281058 C83.3348298,107.984608 84.1639787,107.984608 84.6771702,108.281058" id="Fill-64" fill="#16110D"></path>
                    <g id="Group-68" transform="translate(86.170213, 103.950000)">
                        <mask id="mask-4" fill="white">
                            <use xlink:href="#path-3"></use>
                        </mask>
                        <g id="Clip-67"></g>
                        <path d="M3.35412766,1.518825 C3.86731915,1.815275 3.86731915,2.296525 3.35412766,2.5949 C2.84093617,2.89135 2.01178723,2.89135 1.50051064,2.5949 C0.989234043,2.296525 0.989234043,1.815275 1.50051064,1.518825 C2.01178723,1.222375 2.84093617,1.222375 3.35412766,1.518825" id="Fill-66" fill="#16110D" mask="url(#mask-4)"></path>
                    </g>
                    <g id="Group-71" transform="translate(19.148936, 138.600000)">
                        <mask id="mask-6" fill="white">
                            <use xlink:href="#path-5"></use>
                        </mask>
                        <g id="Clip-70"></g>
                        <path d="M2.51808511,0.6258175 C3.0312766,0.9222675 3.0312766,1.4054425 2.51808511,1.7038175 C2.00489362,2.0002675 1.17574468,2.0002675 0.664468085,1.7038175 C0.153191489,1.4054425 0.153191489,0.9222675 0.664468085,0.6258175 C1.17574468,0.3293675 2.00489362,0.3293675 2.51808511,0.6258175" id="Fill-69" fill="#16110D" mask="url(#mask-6)"></path>
                    </g>
                    <path d="M26.5141915,136.413585 C27.027383,136.710035 27.027383,137.191285 26.5141915,137.48966 C26.001,137.78611 25.1718511,137.78611 24.6605745,137.48966 C24.1492979,137.191285 24.1492979,136.710035 24.6605745,136.413585 C25.1718511,136.117135 26.001,136.117135 26.5141915,136.413585" id="Fill-72" fill="#16110D"></path>
                    <path d="M31.3611702,133.599427 C31.8743617,133.895878 31.8743617,134.379053 31.3611702,134.677428 C30.8479787,134.973878 30.0188298,134.973878 29.5075532,134.677428 C28.9962766,134.379053 28.9962766,133.895878 29.5075532,133.599427 C30.0188298,133.302977 30.8479787,133.302977 31.3611702,133.599427" id="Fill-74" fill="#16110D"></path>
                    <path d="M36.2083404,130.787002 C36.7215319,131.083452 36.7215319,131.564702 36.2083404,131.863077 C35.6951489,132.159527 34.866,132.159527 34.3547234,131.863077 C33.8434468,131.564702 33.8434468,131.083452 34.3547234,130.787002 C34.866,130.490553 35.6951489,130.490553 36.2083404,130.787002" id="Fill-76" fill="#16110D"></path>
                    <path d="M41.0553191,127.972845 C41.5685106,128.269295 41.5685106,128.75247 41.0553191,129.050845 C40.5421277,129.347295 39.7129787,129.347295 39.1997872,129.050845 C38.6904255,128.75247 38.6904255,128.269295 39.1997872,127.972845 C39.7129787,127.676395 40.5421277,127.676395 41.0553191,127.972845" id="Fill-78" fill="#16110D"></path>
                    <path d="M45.9024894,125.160613 C46.413766,125.457063 46.413766,125.938313 45.9024894,126.236688 C45.3892979,126.533138 44.5601489,126.533138 44.0469574,126.236688 C43.5375957,125.938313 43.5375957,125.457063 44.0469574,125.160613 C44.5601489,124.864163 45.3892979,124.864163 45.9024894,125.160613" id="Fill-80" fill="#16110D"></path>
                    <path d="M50.7494681,122.348187 C51.2607447,122.644637 51.2607447,123.125887 50.7494681,123.424262 C50.2362766,123.720712 49.4071277,123.720712 48.8939362,123.424262 C48.3845745,123.125887 48.3845745,122.644637 48.8939362,122.348187 C49.4071277,122.049812 50.2362766,122.049812 50.7494681,122.348187" id="Fill-82" fill="#16110D"></path>
                    <path d="M55.5966383,119.53403 C56.1079149,119.83048 56.1079149,120.31173 55.5966383,120.610105 C55.0834468,120.90848 54.2542979,120.90848 53.7411064,120.610105 C53.2298298,120.31173 53.2298298,119.83048 53.7411064,119.53403 C54.2542979,119.23758 55.0834468,119.23758 55.5966383,119.53403" id="Fill-84" fill="#16110D"></path>
                    <path d="M60.4418936,116.721798 C60.9550851,117.018248 60.9550851,117.499498 60.4418936,117.797872 C59.930617,118.094323 59.1014681,118.094323 58.5882766,117.797872 C58.077,117.499498 58.077,117.018248 58.5882766,116.721798 C59.1014681,116.425348 59.930617,116.425348 60.4418936,116.721798" id="Fill-86" fill="#16110D"></path>
                    <path d="M65.2888723,113.90764 C65.8020638,114.20409 65.8020638,114.68534 65.2888723,114.98564 C64.7775957,115.28209 63.9484468,115.28209 63.4352553,114.98564 C62.9239787,114.68534 62.9239787,114.20409 63.4352553,113.90764 C63.9484468,113.61119 64.7775957,113.61119 65.2888723,113.90764" id="Fill-88" fill="#16110D"></path>
                    <path d="M70.1360426,111.095215 C70.649234,111.391665 70.649234,111.872915 70.1360426,112.17129 C69.624766,112.46774 68.795617,112.46774 68.2824255,112.17129 C67.7711489,111.872915 67.7711489,111.391665 68.2824255,111.095215 C68.795617,110.798765 69.624766,110.798765 70.1360426,111.095215" id="Fill-90" fill="#16110D"></path>
                    <path d="M74.9830213,108.281058 C75.4962128,108.577507 75.4962128,109.060682 74.9830213,109.359057 C74.4698298,109.655507 73.6425957,109.655507 73.1294043,109.359057 C72.6181277,109.060682 72.6181277,108.577507 73.1294043,108.281058 C73.6425957,107.984608 74.4717447,107.984608 74.9830213,108.281058" id="Fill-92" fill="#16110D"></path>
                    <path d="M79.8301915,105.468825 C80.343383,105.765275 80.343383,106.246525 79.8301915,106.5449 C79.317,106.84135 78.489766,106.84135 77.9765745,106.5449 C77.4652979,106.246525 77.4652979,105.765275 77.9765745,105.468825 C78.489766,105.172375 79.317,105.172375 79.8301915,105.468825" id="Fill-94" fill="#16110D"></path>
                    <path d="M84.6771702,102.654668 C85.1903617,102.951118 85.1903617,103.434293 84.6771702,103.732668 C84.1639787,104.029118 83.3367447,104.029118 82.8235532,103.732668 C82.3122766,103.434293 82.3122766,102.951118 82.8235532,102.654668 C83.3367447,102.358218 84.1639787,102.358218 84.6771702,102.654668" id="Fill-96" fill="#16110D"></path>
                    <g id="Group-100" transform="translate(86.170213, 98.175000)">
                        <mask id="mask-8" fill="white">
                            <use xlink:href="#path-7"></use>
                        </mask>
                        <g id="Clip-99"></g>
                        <path d="M3.35412766,1.6672425 C3.86731915,1.9636925 3.86731915,2.4449425 3.35412766,2.7433175 C2.84093617,3.0397675 2.01178723,3.0397675 1.50051064,2.7433175 C0.989234043,2.4449425 0.989234043,1.9636925 1.50051064,1.6672425 C2.01178723,1.3707925 2.84093617,1.3707925 3.35412766,1.6672425" id="Fill-98" fill="#16110D" mask="url(#mask-8)"></path>
                    </g>
                    <path d="M16.8200426,136.413585 C17.333234,136.710035 17.333234,137.191285 16.8200426,137.48966 C16.3068511,137.78611 15.479617,137.78611 14.9664255,137.48966 C14.4551489,137.191285 14.4551489,136.710035 14.9664255,136.413585 C15.479617,136.117135 16.3068511,136.117135 16.8200426,136.413585" id="Fill-101" fill="#16110D"></path>
                    <path d="M21.6670213,133.599427 C22.1802128,133.895878 22.1802128,134.379053 21.6670213,134.677428 C21.1538298,134.973878 20.3265957,134.973878 19.8134043,134.677428 C19.3021277,134.379053 19.3021277,133.895878 19.8134043,133.599427 C20.3265957,133.302977 21.1538298,133.302977 21.6670213,133.599427" id="Fill-103" fill="#16110D"></path>
                    <path d="M26.5141915,130.787002 C27.027383,131.083452 27.027383,131.564702 26.5141915,131.863077 C26.001,132.159527 25.1718511,132.159527 24.6605745,131.863077 C24.1492979,131.564702 24.1492979,131.083452 24.6605745,130.787002 C25.1718511,130.490553 26.001,130.490553 26.5141915,130.787002" id="Fill-105" fill="#16110D"></path>
                    <path d="M31.3611702,127.972845 C31.8743617,128.27122 31.8743617,128.75247 31.3611702,129.050845 C30.8479787,129.347295 30.0188298,129.347295 29.5075532,129.050845 C28.9962766,128.75247 28.9962766,128.27122 29.5075532,127.972845 C30.0188298,127.676395 30.8479787,127.676395 31.3611702,127.972845" id="Fill-107" fill="#16110D"></path>
                    <path d="M36.2083404,125.160613 C36.7215319,125.457063 36.7215319,125.938313 36.2083404,126.236688 C35.6951489,126.533138 34.866,126.533138 34.3547234,126.236688 C33.8434468,125.938313 33.8434468,125.457063 34.3547234,125.160613 C34.866,124.864163 35.6951489,124.864163 36.2083404,125.160613" id="Fill-109" fill="#16110D"></path>
                    <path d="M41.0553191,122.348187 C41.5685106,122.644637 41.5685106,123.125887 41.0553191,123.424262 C40.5421277,123.720712 39.7129787,123.720712 39.1997872,123.424262 C38.6904255,123.125887 38.6904255,122.644637 39.1997872,122.348187 C39.7129787,122.049812 40.5421277,122.049812 41.0553191,122.348187" id="Fill-111" fill="#16110D"></path>
                    <path d="M45.9024894,119.53403 C46.413766,119.83048 46.413766,120.31173 45.9024894,120.610105 C45.3892979,120.90848 44.5601489,120.90848 44.0469574,120.610105 C43.5375957,120.31173 43.5375957,119.83048 44.0469574,119.53403 C44.5601489,119.23758 45.3892979,119.23758 45.9024894,119.53403" id="Fill-113" fill="#16110D"></path>
                    <path d="M50.7494681,116.721798 C51.2607447,117.018248 51.2607447,117.499498 50.7494681,117.797872 C50.2362766,118.094323 49.4071277,118.094323 48.8939362,117.797872 C48.3845745,117.499498 48.3845745,117.018248 48.8939362,116.721798 C49.4071277,116.425348 50.2362766,116.425348 50.7494681,116.721798" id="Fill-115" fill="#16110D"></path>
                    <path d="M55.5966383,113.90764 C56.1079149,114.20409 56.1079149,114.68534 55.5966383,114.98564 C55.0834468,115.28209 54.2542979,115.28209 53.7411064,114.98564 C53.2298298,114.68534 53.2298298,114.20409 53.7411064,113.90764 C54.2542979,113.61119 55.0834468,113.61119 55.5966383,113.90764" id="Fill-117" fill="#16110D"></path>
                    <path d="M60.4418936,111.095215 C60.9550851,111.391665 60.9550851,111.872915 60.4418936,112.17129 C59.930617,112.46774 59.1014681,112.46774 58.5882766,112.17129 C58.077,111.872915 58.077,111.391665 58.5882766,111.095215 C59.1014681,110.798765 59.930617,110.798765 60.4418936,111.095215" id="Fill-119" fill="#16110D"></path>
                    <path d="M65.2888723,108.281058 C65.8020638,108.577507 65.8020638,109.060682 65.2888723,109.359057 C64.7775957,109.655507 63.9484468,109.655507 63.4352553,109.359057 C62.9239787,109.060682 62.9239787,108.577507 63.4352553,108.281058 C63.9484468,107.984608 64.7775957,107.984608 65.2888723,108.281058" id="Fill-121" fill="#16110D"></path>
                    <path d="M70.1360426,105.468825 C70.649234,105.765275 70.649234,106.246525 70.1360426,106.5449 C69.624766,106.84135 68.795617,106.84135 68.2824255,106.5449 C67.7711489,106.246525 67.7711489,105.765275 68.2824255,105.468825 C68.795617,105.172375 69.624766,105.172375 70.1360426,105.468825" id="Fill-123" fill="#16110D"></path>
                    <path d="M74.9830213,102.654668 C75.4962128,102.951118 75.4962128,103.434293 74.9830213,103.732668 C74.4717447,104.029118 73.6425957,104.029118 73.1294043,103.732668 C72.6181277,103.434293 72.6181277,102.951118 73.1294043,102.654668 C73.6425957,102.358218 74.4717447,102.358218 74.9830213,102.654668" id="Fill-125" fill="#16110D"></path>
                    <path d="M79.8301915,99.8422425 C80.343383,100.138693 80.343383,100.619943 79.8301915,100.918318 C79.317,101.214768 78.489766,101.214768 77.9765745,100.918318 C77.4652979,100.619943 77.4652979,100.138693 77.9765745,99.8422425 C78.489766,99.5457925 79.317,99.5457925 79.8301915,99.8422425" id="Fill-127" fill="#16110D"></path>
                    <path d="M84.6771702,97.03001 C85.1903617,97.32646 85.1903617,97.80771 84.6771702,98.106085 C84.1639787,98.402535 83.3367447,98.402535 82.8235532,98.106085 C82.3122766,97.80771 82.3122766,97.32646 82.8235532,97.03001 C83.3367447,96.731635 84.1639787,96.731635 84.6771702,97.03001" id="Fill-129" fill="#16110D"></path>
                    <g id="Group-133" transform="translate(86.170213, 92.400000)">
                        <mask id="mask-10" fill="white">
                            <use xlink:href="#path-9"></use>
                        </mask>
                        <g id="Clip-132"></g>
                        <path d="M3.35412766,1.8158525 C3.86731915,2.1123025 3.86731915,2.5935525 3.35412766,2.8919275 C2.84093617,3.1883775 2.01178723,3.1883775 1.50051064,2.8919275 C0.989234043,2.5935525 0.989234043,2.1123025 1.50051064,1.8158525 C2.01178723,1.5194025 2.84093617,1.5194025 3.35412766,1.8158525" id="Fill-131" fill="#16110D" mask="url(#mask-10)"></path>
                    </g>
                    <path d="M11.9728723,133.599427 C12.4860638,133.895878 12.4860638,134.379053 11.9728723,134.677428 C11.4615957,134.973878 10.6324468,134.973878 10.1192553,134.677428 C9.60797872,134.379053 9.60797872,133.895878 10.1192553,133.599427 C10.6324468,133.302977 11.4615957,133.302977 11.9728723,133.599427" id="Fill-134" fill="#16110D"></path>
                    <path d="M16.8200426,130.787002 C17.333234,131.083452 17.333234,131.564702 16.8200426,131.863077 C16.3068511,132.159527 15.479617,132.159527 14.9664255,131.863077 C14.4551489,131.564702 14.4551489,131.083452 14.9664255,130.787002 C15.479617,130.490553 16.308766,130.490553 16.8200426,130.787002" id="Fill-136" fill="#16110D"></path>
                    <path d="M21.6670213,127.972845 C22.1802128,128.27122 22.1802128,128.75247 21.6670213,129.050845 C21.1538298,129.347295 20.3265957,129.347295 19.8134043,129.050845 C19.3021277,128.75247 19.3021277,128.27122 19.8134043,127.972845 C20.3265957,127.676395 21.1538298,127.676395 21.6670213,127.972845" id="Fill-138" fill="#16110D"></path>
                    <path d="M26.5141915,125.160613 C27.027383,125.457063 27.027383,125.938313 26.5141915,126.236688 C26.001,126.533138 25.173766,126.533138 24.6605745,126.236688 C24.1492979,125.938313 24.1492979,125.457063 24.6605745,125.160613 C25.173766,124.864163 26.001,124.864163 26.5141915,125.160613" id="Fill-140" fill="#16110D"></path>
                    <path d="M31.3611702,122.348187 C31.8743617,122.644637 31.8743617,123.125887 31.3611702,123.424262 C30.8479787,123.720712 30.0188298,123.720712 29.5075532,123.424262 C28.9962766,123.125887 28.9962766,122.644637 29.5075532,122.348187 C30.0188298,122.049812 30.8479787,122.049812 31.3611702,122.348187" id="Fill-142" fill="#16110D"></path>
                    <path d="M36.2083404,119.53403 C36.7215319,119.83048 36.7215319,120.31173 36.2083404,120.610105 C35.6951489,120.90848 34.866,120.90848 34.3547234,120.610105 C33.8434468,120.31173 33.8434468,119.83048 34.3547234,119.53403 C34.866,119.23758 35.6951489,119.23758 36.2083404,119.53403" id="Fill-144" fill="#16110D"></path>
                    <path d="M41.0553191,116.721798 C41.5685106,117.018248 41.5685106,117.499498 41.0553191,117.797872 C40.5421277,118.094323 39.7129787,118.094323 39.1997872,117.797872 C38.6904255,117.499498 38.6904255,117.018248 39.1997872,116.721798 C39.7129787,116.425348 40.5421277,116.425348 41.0553191,116.721798" id="Fill-146" fill="#16110D"></path>
                    <path d="M45.9024894,113.90764 C46.413766,114.20409 46.413766,114.68534 45.9024894,114.98564 C45.3892979,115.28209 44.5601489,115.28209 44.0469574,114.98564 C43.5375957,114.68534 43.5375957,114.20409 44.0469574,113.90764 C44.5601489,113.61119 45.3892979,113.61119 45.9024894,113.90764" id="Fill-148" fill="#16110D"></path>
                    <path d="M50.7494681,111.095215 C51.2607447,111.391665 51.2607447,111.872915 50.7494681,112.17129 C50.2362766,112.46774 49.4071277,112.46774 48.8939362,112.17129 C48.3845745,111.872915 48.3845745,111.391665 48.8939362,111.095215 C49.4071277,110.798765 50.2362766,110.798765 50.7494681,111.095215" id="Fill-150" fill="#16110D"></path>
                    <path d="M55.5966383,108.281058 C56.1079149,108.577507 56.1079149,109.060682 55.5966383,109.359057 C55.0834468,109.655507 54.2542979,109.655507 53.7411064,109.359057 C53.2298298,109.060682 53.2298298,108.577507 53.7411064,108.281058 C54.2542979,107.984608 55.0834468,107.984608 55.5966383,108.281058" id="Fill-152" fill="#16110D"></path>
                    <path d="M60.4418936,105.468825 C60.9550851,105.765275 60.9550851,106.246525 60.4418936,106.5449 C59.930617,106.84135 59.1014681,106.84135 58.5882766,106.5449 C58.077,106.246525 58.077,105.765275 58.5882766,105.468825 C59.1014681,105.172375 59.930617,105.172375 60.4418936,105.468825" id="Fill-154" fill="#16110D"></path>
                    <path d="M65.2888723,102.654668 C65.8020638,102.951118 65.8020638,103.434293 65.2888723,103.732668 C64.7775957,104.029118 63.9484468,104.029118 63.4352553,103.732668 C62.9239787,103.434293 62.9239787,102.951118 63.4352553,102.654668 C63.9484468,102.358218 64.7775957,102.358218 65.2888723,102.654668" id="Fill-156" fill="#16110D"></path>
                    <path d="M70.1360426,99.8422425 C70.649234,100.138693 70.649234,100.619943 70.1360426,100.918318 C69.624766,101.214768 68.795617,101.214768 68.2824255,100.918318 C67.7711489,100.619943 67.7711489,100.138693 68.2824255,99.8422425 C68.795617,99.5457925 69.624766,99.5457925 70.1360426,99.8422425" id="Fill-158" fill="#16110D"></path>
                    <path d="M74.9830213,97.03001 C75.4962128,97.32646 75.4962128,97.80771 74.9830213,98.106085 C74.4717447,98.402535 73.6425957,98.402535 73.1294043,98.106085 C72.6181277,97.80771 72.6181277,97.32646 73.1294043,97.03001 C73.6425957,96.731635 74.4717447,96.731635 74.9830213,97.03001" id="Fill-160" fill="#16110D"></path>
                    <path d="M79.8301915,94.2158525 C80.343383,94.5123025 80.343383,94.9935525 79.8301915,95.2919275 C79.317,95.5883775 78.489766,95.5883775 77.9765745,95.2919275 C77.4652979,94.9935525 77.4652979,94.5123025 77.9765745,94.2158525 C78.489766,93.9194025 79.317,93.9194025 79.8301915,94.2158525" id="Fill-162" fill="#16110D"></path>
                    <path d="M84.6771702,91.4034275 C85.1903617,91.6998775 85.1903617,92.1811275 84.6771702,92.4795025 C84.1639787,92.7759525 83.3367447,92.7759525 82.8235532,92.4795025 C82.3122766,92.1811275 82.3122766,91.6998775 82.8235532,91.4034275 C83.3367447,91.1069775 84.1639787,91.1069775 84.6771702,91.4034275" id="Fill-164" fill="#16110D"></path>
                    <path d="M7.12589362,130.787002 C7.63908511,131.083452 7.63908511,131.564702 7.12589362,131.863077 C6.61461702,132.159527 5.78546809,132.159527 5.2722766,131.863077 C4.761,131.564702 4.761,131.083452 5.2722766,130.787002 C5.78546809,130.490553 6.61461702,130.490553 7.12589362,130.787002" id="Fill-166" fill="#16110D"></path>
                    <path d="M11.9728723,127.972845 C12.4860638,128.27122 12.4860638,128.75247 11.9728723,129.050845 C11.4615957,129.347295 10.6324468,129.347295 10.1192553,129.050845 C9.60797872,128.75247 9.60797872,128.27122 10.1192553,127.972845 C10.6324468,127.676395 11.4615957,127.676395 11.9728723,127.972845" id="Fill-168" fill="#16110D"></path>
                    <path d="M16.8200426,125.160613 C17.333234,125.457063 17.333234,125.938313 16.8200426,126.236688 C16.308766,126.533138 15.479617,126.533138 14.9664255,126.236688 C14.4551489,125.938313 14.4551489,125.457063 14.9664255,125.160613 C15.479617,124.864163 16.308766,124.864163 16.8200426,125.160613" id="Fill-170" fill="#16110D"></path>
                    <path d="M21.6670213,122.348187 C22.1802128,122.644637 22.1802128,123.125887 21.6670213,123.424262 C21.1538298,123.720712 20.3265957,123.720712 19.8134043,123.424262 C19.3021277,123.125887 19.3021277,122.644637 19.8134043,122.348187 C20.3265957,122.049812 21.1538298,122.049812 21.6670213,122.348187" id="Fill-172" fill="#16110D"></path>
                    <path d="M26.5141915,119.53403 C27.027383,119.83048 27.027383,120.31173 26.5141915,120.610105 C26.001,120.90848 25.173766,120.90848 24.6605745,120.610105 C24.1492979,120.31173 24.1492979,119.83048 24.6605745,119.53403 C25.173766,119.23758 26.001,119.23758 26.5141915,119.53403" id="Fill-174" fill="#16110D"></path>
                    <path d="M31.3611702,116.721798 C31.8743617,117.018248 31.8743617,117.499498 31.3611702,117.797872 C30.8479787,118.094323 30.0188298,118.094323 29.5075532,117.797872 C28.9962766,117.499498 28.9962766,117.018248 29.5075532,116.721798 C30.0188298,116.425348 30.8479787,116.425348 31.3611702,116.721798" id="Fill-176" fill="#16110D"></path>
                    <path d="M36.2083404,113.90764 C36.7215319,114.20409 36.7215319,114.687265 36.2083404,114.98564 C35.6951489,115.28209 34.866,115.28209 34.3547234,114.98564 C33.8434468,114.687265 33.8434468,114.20409 34.3547234,113.90764 C34.866,113.61119 35.6951489,113.61119 36.2083404,113.90764" id="Fill-178" fill="#16110D"></path>
                    <path d="M41.0553191,111.095215 C41.5685106,111.391665 41.5685106,111.872915 41.0553191,112.17129 C40.5421277,112.46774 39.7129787,112.46774 39.2017021,112.17129 C38.6904255,111.872915 38.6904255,111.391665 39.2017021,111.095215 C39.7129787,110.798765 40.5421277,110.798765 41.0553191,111.095215" id="Fill-180" fill="#16110D"></path>
                    <path d="M45.9024894,108.281058 C46.4156809,108.577507 46.4156809,109.060682 45.9024894,109.359057 C45.3892979,109.655507 44.5601489,109.655507 44.0469574,109.359057 C43.5375957,109.060682 43.5375957,108.577507 44.0469574,108.281058 C44.5601489,107.984608 45.3892979,107.984608 45.9024894,108.281058" id="Fill-182" fill="#16110D"></path>
                    <path d="M50.7494681,105.468825 C51.2607447,105.765275 51.2607447,106.246525 50.7494681,106.5449 C50.2362766,106.84135 49.4071277,106.84135 48.8939362,106.5449 C48.3845745,106.246525 48.3845745,105.765275 48.8939362,105.468825 C49.4071277,105.172375 50.2362766,105.172375 50.7494681,105.468825" id="Fill-184" fill="#16110D"></path>
                    <path d="M55.5966383,102.654668 C56.1079149,102.951118 56.1079149,103.434293 55.5966383,103.732668 C55.0834468,104.029118 54.2542979,104.029118 53.7411064,103.732668 C53.2298298,103.434293 53.2298298,102.951118 53.7411064,102.654668 C54.2542979,102.358218 55.0834468,102.358218 55.5966383,102.654668" id="Fill-186" fill="#16110D"></path>
                    <path d="M60.4418936,99.8422425 C60.9550851,100.138693 60.9550851,100.619943 60.4418936,100.918318 C59.930617,101.214768 59.1014681,101.214768 58.5882766,100.918318 C58.077,100.619943 58.077,100.138693 58.5882766,99.8422425 C59.1014681,99.5457925 59.930617,99.5457925 60.4418936,99.8422425" id="Fill-188" fill="#16110D"></path>
                    <path d="M65.2888723,97.03001 C65.8020638,97.32646 65.8020638,97.80771 65.2888723,98.106085 C64.7775957,98.402535 63.9484468,98.402535 63.4352553,98.106085 C62.9239787,97.80771 62.9239787,97.32646 63.4352553,97.03001 C63.9484468,96.731635 64.7775957,96.731635 65.2888723,97.03001" id="Fill-190" fill="#16110D"></path>
                    <path d="M70.1360426,94.2158525 C70.649234,94.5123025 70.649234,94.9935525 70.1360426,95.2919275 C69.624766,95.5883775 68.795617,95.5883775 68.2824255,95.2919275 C67.7711489,94.9935525 67.7711489,94.5123025 68.2824255,94.2158525 C68.795617,93.9194025 69.624766,93.9194025 70.1360426,94.2158525" id="Fill-192" fill="#16110D"></path>
                    <path d="M74.9830213,91.4034275 C75.4962128,91.6998775 75.4962128,92.1811275 74.9830213,92.4795025 C74.4717447,92.7759525 73.6425957,92.7759525 73.1294043,92.4795025 C72.6181277,92.1811275 72.6181277,91.6998775 73.1294043,91.4034275 C73.6425957,91.1069775 74.4717447,91.1069775 74.9830213,91.4034275" id="Fill-194" fill="#16110D"></path>
                    <path d="M79.8301915,88.58927 C80.343383,88.88572 80.343383,89.36697 79.8301915,89.66727 C79.317,89.96372 78.489766,89.96372 77.9765745,89.66727 C77.4652979,89.36697 77.4652979,88.88572 77.9765745,88.58927 C78.489766,88.29282 79.317,88.29282 79.8301915,88.58927" id="Fill-196" fill="#16110D"></path>
                    <path d="M2.23774468,127.94474 C2.75093617,128.24119 2.75093617,128.72244 2.23774468,129.020815 C1.72455319,129.317265 0.895404255,129.317265 0.38412766,129.020815 C-0.127148936,128.72244 -0.127148936,128.24119 0.38412766,127.94474 C0.895404255,127.64829 1.72455319,127.64829 2.23774468,127.94474" id="Fill-198" fill="#16110D"></path>
                    <path d="M7.0847234,125.13039 C7.59791489,125.42684 7.59791489,125.910015 7.0847234,126.20839 C6.57153191,126.50484 5.74238298,126.50484 5.23110638,126.20839 C4.71982979,125.910015 4.71982979,125.42684 5.23110638,125.13039 C5.74238298,124.83394 6.57153191,124.83394 7.0847234,125.13039" id="Fill-200" fill="#16110D"></path>
                    <path d="M11.9318936,122.318157 C12.4450851,122.614607 12.4450851,123.095857 11.9318936,123.394233 C11.4187021,123.690683 10.5895532,123.690683 10.0782766,123.394233 C9.567,123.095857 9.567,122.614607 10.0782766,122.318157 C10.5895532,122.021707 11.4187021,122.021707 11.9318936,122.318157" id="Fill-202" fill="#16110D"></path>
                    <path d="M16.7788723,119.504 C17.2920638,119.80045 17.2920638,120.283625 16.7788723,120.582 C16.2656809,120.87845 15.4365319,120.87845 14.9233404,120.582 C14.4139787,120.283625 14.4139787,119.80045 14.9233404,119.504 C15.4365319,119.20755 16.2656809,119.20755 16.7788723,119.504" id="Fill-204" fill="#16110D"></path>
                    <path d="M21.6260426,116.691575 C22.1373191,116.988025 22.1373191,117.469275 21.6260426,117.76765 C21.1128511,118.0641 20.2837021,118.0641 19.7705106,117.76765 C19.2611489,117.469275 19.2611489,116.988025 19.7705106,116.691575 C20.2837021,116.395125 21.1128511,116.395125 21.6260426,116.691575" id="Fill-206" fill="#16110D"></path>
                    <path d="M26.4730213,113.877418 C26.9842979,114.175793 26.9842979,114.657043 26.4730213,114.955418 C25.9598298,115.251868 25.1306809,115.251868 24.6174894,114.955418 C24.1081277,114.657043 24.1081277,114.175793 24.6174894,113.877418 C25.1306809,113.580967 25.9598298,113.580967 26.4730213,113.877418" id="Fill-208" fill="#16110D"></path>
                    <path d="M31.3201915,111.065185 C31.8314681,111.361635 31.8314681,111.842885 31.3201915,112.14126 C30.807,112.43771 29.9778511,112.43771 29.4646596,112.14126 C28.9552979,111.842885 28.9552979,111.361635 29.4646596,111.065185 C29.9778511,110.768735 30.807,110.768735 31.3201915,111.065185" id="Fill-210" fill="#16110D"></path>
                    <path d="M36.1671702,108.252953 C36.6784468,108.549402 36.6784468,109.030653 36.1671702,109.329028 C35.6539787,109.625478 34.8248298,109.625478 34.3116383,109.329028 C33.8003617,109.030653 33.8003617,108.549402 34.3116383,108.252953 C34.8248298,107.956502 35.6539787,107.956502 36.1671702,108.252953" id="Fill-212" fill="#16110D"></path>
                    <path d="M41.0124255,105.438603 C41.525617,105.735052 41.525617,106.216302 41.0124255,106.514678 C40.5011489,106.813052 39.672,106.813052 39.1588085,106.514678 C38.6475319,106.216302 38.6475319,105.735052 39.1588085,105.438603 C39.672,105.142152 40.5011489,105.142152 41.0124255,105.438603" id="Fill-214" fill="#16110D"></path>
                    <path d="M45.8594043,102.62637 C46.3725957,102.92282 46.3725957,103.40407 45.8594043,103.702445 C45.3481277,103.998895 44.5189787,103.998895 44.0057872,103.702445 C43.4945106,103.40407 43.4945106,102.92282 44.0057872,102.62637 C44.5189787,102.32992 45.3481277,102.32992 45.8594043,102.62637" id="Fill-216" fill="#16110D"></path>
                    <path d="M50.7065745,99.8122125 C51.219766,100.108663 51.219766,100.591838 50.7065745,100.890213 C50.193383,101.186663 49.3661489,101.186663 48.8529574,100.890213 C48.3416809,100.591838 48.3416809,100.108663 48.8529574,99.8122125 C49.3661489,99.5157625 50.193383,99.5157625 50.7065745,99.8122125" id="Fill-218" fill="#16110D"></path>
                    <path d="M55.5535532,96.99998 C56.0667447,97.29643 56.0667447,97.77768 55.5535532,98.076055 C55.0403617,98.372505 54.2131277,98.372505 53.6999362,98.076055 C53.1886596,97.77768 53.1886596,97.29643 53.6999362,96.99998 C54.2131277,96.70353 55.0403617,96.70353 55.5535532,96.99998" id="Fill-220" fill="#16110D"></path>
                    <path d="M60.4007234,94.18563 C60.9139149,94.48208 60.9139149,94.965255 60.4007234,95.26363 C59.8875319,95.56008 59.058383,95.56008 58.5471064,95.26363 C58.0358298,94.965255 58.0358298,94.48208 58.5471064,94.18563 C59.058383,93.88918 59.8875319,93.88918 60.4007234,94.18563" id="Fill-222" fill="#16110D"></path>
                    <path d="M65.2477021,91.3733975 C65.7608936,91.6698475 65.7608936,92.1510975 65.2477021,92.4494725 C64.7345106,92.7459225 63.9053617,92.7459225 63.3940851,92.4494725 C62.8828085,92.1510975 62.8828085,91.6698475 63.3940851,91.3733975 C63.9053617,91.0769475 64.7345106,91.0769475 65.2477021,91.3733975" id="Fill-224" fill="#16110D"></path>
                    <path d="M70.0948723,88.561165 C70.6080638,88.857615 70.6080638,89.338865 70.0948723,89.63724 C69.5816809,89.93369 68.7525319,89.93369 68.2412553,89.63724 C67.7299787,89.338865 67.7299787,88.857615 68.2412553,88.561165 C68.7525319,88.26279 69.5816809,88.26279 70.0948723,88.561165" id="Fill-226" fill="#16110D"></path>
                    <path d="M74.9418511,85.7470075 C75.4550426,86.0434575 75.4550426,86.5247075 74.9418511,86.8230825 C74.4286596,87.1195325 73.5995106,87.1195325 73.0863191,86.8230825 C72.5769574,86.5247075 72.5769574,86.0434575 73.0863191,85.7470075 C73.5995106,85.4505575 74.4286596,85.4505575 74.9418511,85.7470075" id="Fill-228" fill="#16110D"></path>
                    <path d="M2.23774468,122.318157 C2.75093617,122.614607 2.75093617,123.095857 2.23774468,123.394233 C1.72455319,123.690683 0.895404255,123.690683 0.38412766,123.394233 C-0.127148936,123.095857 -0.127148936,122.614607 0.38412766,122.318157 C0.895404255,122.021707 1.72455319,122.021707 2.23774468,122.318157" id="Fill-230" fill="#16110D"></path>
                    <path d="M7.0847234,119.504 C7.59791489,119.80045 7.59791489,120.283625 7.0847234,120.582 C6.57153191,120.87845 5.74238298,120.87845 5.23110638,120.582 C4.71982979,120.283625 4.71982979,119.80045 5.23110638,119.504 C5.74238298,119.20755 6.57153191,119.20755 7.0847234,119.504" id="Fill-232" fill="#16110D"></path>
                    <path d="M26.4730213,108.252953 C26.9842979,108.549403 26.9842979,109.030653 26.4730213,109.329028 C25.9598298,109.625478 25.1306809,109.625478 24.6174894,109.329028 C24.1081277,109.030653 25.9598298,107.956503 26.4730213,108.252953" id="Fill-234" fill="#16110D"></path>
                    <path d="M31.3201915,105.438603 C31.8314681,105.735052 31.8314681,106.216302 31.3201915,106.514678 C30.807,106.813052 29.9778511,106.813052 29.4646596,106.514678 C28.9552979,106.216302 28.9552979,105.735052 29.4646596,105.438603 C29.9778511,105.142152 30.807,105.142152 31.3201915,105.438603" id="Fill-236" fill="#16110D"></path>
                    <path d="M36.1671702,102.62637 C36.6784468,102.92282 36.6784468,103.40407 36.1671702,103.702445 C35.6539787,103.998895 34.8248298,103.998895 34.3116383,103.702445 C33.8003617,103.40407 33.8003617,102.92282 34.3116383,102.62637 C34.8248298,102.32992 35.6539787,102.32992 36.1671702,102.62637" id="Fill-238" fill="#16110D"></path>
                    <path d="M41.0124255,99.8122125 C41.525617,100.108663 41.525617,100.591838 41.0124255,100.890213 C40.5011489,101.186663 39.672,101.186663 39.1588085,100.890213 C38.6475319,100.591838 38.6475319,100.108663 39.1588085,99.8122125 C39.672,99.5157625 40.5011489,99.5157625 41.0124255,99.8122125" id="Fill-240" fill="#16110D"></path>
                    <path d="M45.8594043,96.99998 C46.3725957,97.29643 46.3725957,97.77768 45.8594043,98.076055 C45.3481277,98.372505 44.5189787,98.372505 44.0057872,98.076055 C43.4945106,97.77768 43.4945106,97.29643 44.0057872,96.99998 C44.5189787,96.70353 45.3481277,96.70353 45.8594043,96.99998" id="Fill-242" fill="#16110D"></path>
                    <path d="M50.7065745,94.18563 C51.219766,94.48208 51.219766,94.965255 50.7065745,95.26363 C50.193383,95.56008 49.3661489,95.56008 48.8529574,95.26363 C48.3416809,94.965255 48.3416809,94.48208 48.8529574,94.18563 C49.3661489,93.88918 50.1952979,93.88918 50.7065745,94.18563" id="Fill-244" fill="#16110D"></path>
                    <path d="M55.5535532,91.3733975 C56.0667447,91.6698475 56.0667447,92.1510975 55.5535532,92.4494725 C55.0403617,92.7459225 54.2131277,92.7459225 53.6999362,92.4494725 C53.1886596,92.1510975 53.1886596,91.6698475 53.6999362,91.3733975 C54.2131277,91.0769475 55.0403617,91.0769475 55.5535532,91.3733975" id="Fill-246" fill="#16110D"></path>
                    <path d="M60.4007234,88.561165 C60.9139149,88.857615 60.9139149,89.338865 60.4007234,89.63724 C59.8875319,89.93369 59.0602979,89.93369 58.5471064,89.63724 C58.0358298,89.338865 58.0358298,88.857615 58.5471064,88.561165 C59.0602979,88.26279 59.8875319,88.26279 60.4007234,88.561165" id="Fill-248" fill="#16110D"></path>
                    <path d="M65.2477021,85.7470075 C65.7608936,86.0434575 65.7608936,86.5247075 65.2477021,86.8230825 C64.7345106,87.1195325 63.9053617,87.1195325 63.3940851,86.8230825 C62.8828085,86.5247075 62.8828085,86.0434575 63.3940851,85.7470075 C63.9053617,85.4505575 64.7345106,85.4505575 65.2477021,85.7470075" id="Fill-250" fill="#16110D"></path>
                    <path d="M70.0948723,82.9345825 C70.6080638,83.2310325 70.6080638,83.7122825 70.0948723,84.0106575 C69.5816809,84.3071075 68.7525319,84.3071075 68.2412553,84.0106575 C67.7299787,83.7122825 67.7299787,83.2310325 68.2412553,82.9345825 C68.7525319,82.6381325 69.5816809,82.6381325 70.0948723,82.9345825" id="Fill-252" fill="#16110D"></path>
                    <polygon id="Fill-254" fill="#0066FF" points="51.4171915 91.138355 51.4171915 58.382555 70.0031489 69.170255 70.0031489 101.926055"></polygon>
                    <polygon id="Fill-256" fill="#0066FF" points="51.4171915 58.383325 68.3965532 48.573525 86.9825106 59.36315 70.0031489 69.171025"></polygon>
                    <polygon id="Fill-258" fill="#FFFFFF" points="51.6845106 62.9627075 68.3977021 53.3146075 86.9836596 64.1023075 69.8453617 73.4635825"></polygon>
                    <path d="M52.9935319,58.38525 L68.3950213,49.4879 L85.4088511,59.361225 L70.0054468,68.258575 L52.9935319,58.38525 Z M69.2184255,100.556225 L52.2045957,90.6829 L52.2045957,59.752 L69.2184255,69.62725 L69.2184255,100.556225 Z M68.3969362,47.664925 L50.6324681,57.9271 L50.6324681,91.593425 L70.0035319,102.83735 L87.768,92.57325 L87.768,58.906925 L68.3969362,47.664925 Z" id="Fill-260" fill="#16110D"></path>
                    <polygon id="Fill-262" fill="#0066FF" points="27.1219787 86.18302 27.1219787 66.692395 45.7079362 77.480095 45.7079362 96.97072"></polygon>
                    <polygon id="Fill-264" fill="#0066FF" points="27.1219787 66.692395 44.0994255 56.882595 62.685383 67.670295 45.7079362 77.480095"></polygon>
                    <polygon id="Fill-266" fill="#FFFFFF" points="27.3875745 71.2717775 44.100766 61.6217525 62.6867234 72.4113775 45.5484255 81.7707275"></polygon>
                    <path d="M28.6964043,66.69432 L44.0998085,57.795045 L61.1117234,67.670295 L45.7083191,76.567645 L28.6964043,66.69432 Z M44.9212979,95.602045 L27.9074681,85.726795 L27.9074681,68.06107 L44.9212979,77.93632 L44.9212979,95.602045 Z M44.0998085,55.97207 L26.3372553,66.23617 L26.3372553,86.63732 L45.7064043,97.881245 L63.4708723,87.617145 L63.4708723,67.215995 L44.0998085,55.97207 Z" id="Fill-268" fill="#16110D"></path>
                    <polygon id="Fill-270" fill="#0066FF" points="2.61919149 118.648723 2.62493617 109.988147 21.2108936 120.773922 21.2051489 129.436422"></polygon>
                    <polygon id="Fill-272" fill="#0066FF" points="2.62474468 109.987955 19.6041064 100.178155 38.1881489 110.96778 21.2107021 120.775655"></polygon>
                    <polygon id="Fill-274" fill="#FFFFFF" points="2.89225532 114.567337 19.6054468 104.919237 38.1894894 115.706937 21.0531064 125.068213"></polygon>
                    <path d="M4.1993617,109.98988 L19.602766,101.090605 L36.6146809,110.965855 L21.2112766,119.863205 L4.1993617,109.98988 Z M20.4204255,128.067555 L3.40659574,118.19423 L3.41042553,111.35663 L20.4261702,121.23188 L20.4204255,128.067555 Z M19.6046809,99.26763 L1.84021277,109.53173 L1.83446809,119.10283 L21.2055319,130.346755 L38.97,120.082655 L38.9738298,110.511555 L19.6046809,99.26763 Z" id="Fill-276" fill="#16110D"></path>
                    <polyline id="Stroke-278" stroke="#16110D" stroke-width="0.96" points="45.0796596 35.8868125 35.8096596 72.0498625 35.8096596 90.7589375"></polyline>
                    <path d="M45.7678723,35.542815 L53.2895745,62.365765" id="Stroke-280" stroke="#16110D" stroke-width="0.96"></path>
                </g>
            </g>
        </g>
    </g>
</svg>