<?xml version="1.0" encoding="UTF-8"?>
<svg width="24px" height="23px" viewBox="0 0 24 23" version="1.1" xmlns="http://www.w3.org/2000/svg" xmlns:xlink="http://www.w3.org/1999/xlink">
    <!-- Generator: Sketch 52.5 (67469) - http://www.bohemiancoding.com/sketch -->
    <title>Github Copy-black</title>
    <desc>Created with Sketch.</desc>
    <g id="Page-1" stroke="none" stroke-width="1" fill="none" fill-rule="evenodd">
        <g id="Design" transform="translate(-1216.000000, -47.000000)" fill="#0066FF">
            <path d="M1227.99925,47 C1221.373,47 1216,52.2787898 1216,58.7919747 C1216,64.000754 1219.438,68.4202573 1224.20725,69.9796485 C1224.80725,70.0879805 1225.02625,69.723926 1225.02625,69.4114582 C1225.02625,69.1314163 1225.01575,68.3900422 1225.00975,67.4062108 C1221.6715,68.1188438 1220.96725,65.825448 1220.96725,65.825448 C1220.422,64.4635601 1219.63525,64.1009795 1219.63525,64.1009795 C1218.5455,63.3691858 1219.71775,63.3839249 1219.71775,63.3839249 C1220.9215,63.4672005 1221.55525,64.5991593 1221.55525,64.5991593 C1222.62625,66.4010078 1224.364,65.8807195 1225.048,65.578569 C1225.15675,64.8165602 1225.46725,64.2970088 1225.81,64.0022279 C1223.14525,63.7044991 1220.344,62.6934005 1220.344,58.1751456 C1220.344,56.8876898 1220.81125,55.8353218 1221.57925,55.0106721 C1221.4555,54.7122064 1221.04375,53.5139219 1221.69625,51.8904159 C1221.69625,51.8904159 1222.70425,51.5735263 1224.99625,53.0990177 C1225.954,52.8373996 1226.98,52.7069591 1228.00075,52.7018004 C1229.02,52.7069591 1230.04675,52.8373996 1231.00525,53.0990177 C1233.29575,51.5735263 1234.3015,51.8904159 1234.3015,51.8904159 C1234.95625,53.5139219 1234.5445,54.7122064 1234.42075,55.0106721 C1235.19025,55.8353218 1235.6545,56.8876898 1235.6545,58.1751456 C1235.6545,62.7044548 1232.84875,63.7015513 1230.17575,63.9933845 C1230.60625,64.3574389 1230.99025,65.0767044 1230.99025,66.1769743 C1230.99025,67.7533154 1230.97525,69.0245582 1230.97525,69.4114582 C1230.97525,69.7268738 1231.19125,70.0938761 1231.80025,69.9781746 C1236.565,68.4158356 1240,63.9992801 1240,58.7919747 C1240,52.2787898 1234.627,47 1227.99925,47" id="Github-Copy"></path>
        </g>
    </g>
</svg>