<?xml version="1.0" encoding="UTF-8"?>
<svg width="24px" height="24px" viewBox="0 0 24 24" version="1.1" xmlns="http://www.w3.org/2000/svg" xmlns:xlink="http://www.w3.org/1999/xlink">
    <!-- Generator: Sketch 52.5 (67469) - http://www.bohemiancoding.com/sketch -->
    <title>Shape</title>
    <desc>Created with Sketch.</desc>
    <g id="Page-1" stroke="none" stroke-width="1" fill="none" fill-rule="evenodd">
        <g id="Design" transform="translate(-1168.000000, -47.000000)" fill="#0066FF" fill-rule="nonzero">
            <path d="M1173.04235,62.1661238 C1173.04235,63.5537459 1171.90879,64.6872964 1170.52117,64.6872964 C1169.13355,64.6872964 1168,63.5537459 1168,62.1661238 C1168,60.7785016 1169.13355,59.6449511 1170.52117,59.6449511 L1173.04235,59.6449511 L1173.04235,62.1661238 Z M1174.3127,62.1661238 C1174.3127,60.7785016 1175.44625,59.6449511 1176.83388,59.6449511 C1178.2215,59.6449511 1179.35505,60.7785016 1179.35505,62.1661238 L1179.35505,68.4788274 C1179.35505,69.8664495 1178.2215,71 1176.83388,71 C1175.44625,71 1174.3127,69.8664495 1174.3127,68.4788274 L1174.3127,62.1661238 Z M1176.83388,52.0423453 C1175.44625,52.0423453 1174.3127,50.9087948 1174.3127,49.5211726 C1174.3127,48.1335505 1175.44625,47 1176.83388,47 C1178.2215,47 1179.35505,48.1335505 1179.35505,49.5211726 L1179.35505,52.0423453 L1176.83388,52.0423453 Z M1176.83388,53.3127036 C1178.2215,53.3127036 1179.35505,54.4462541 1179.35505,55.8338762 C1179.35505,57.2214984 1178.2215,58.3550489 1176.83388,58.3550489 L1170.52117,58.3550489 C1169.13355,58.3550489 1168,57.2214984 1168,55.8338762 C1168,54.4462541 1169.13355,53.3127036 1170.52117,53.3127036 L1176.83388,53.3127036 Z M1186.95765,55.8338762 C1186.95765,54.4462541 1188.09121,53.3127036 1189.47883,53.3127036 C1190.86645,53.3127036 1192,54.4462541 1192,55.8338762 C1192,57.2214984 1190.86645,58.3550489 1189.47883,58.3550489 L1186.95765,58.3550489 L1186.95765,55.8338762 Z M1185.6873,55.8338762 C1185.6873,57.2214984 1184.55375,58.3550489 1183.16612,58.3550489 C1181.7785,58.3550489 1180.64495,57.2214984 1180.64495,55.8338762 L1180.64495,49.5211726 C1180.64495,48.1335505 1181.7785,47 1183.16612,47 C1184.55375,47 1185.6873,48.1335505 1185.6873,49.5211726 L1185.6873,55.8338762 Z M1183.16612,65.9576547 C1184.55375,65.9576547 1185.6873,67.0912052 1185.6873,68.4788274 C1185.6873,69.8664495 1184.55375,71 1183.16612,71 C1181.7785,71 1180.64495,69.8664495 1180.64495,68.4788274 L1180.64495,65.9576547 L1183.16612,65.9576547 Z M1183.16612,64.6872964 C1181.7785,64.6872964 1180.64495,63.5537459 1180.64495,62.1661238 C1180.64495,60.7785016 1181.7785,59.6449511 1183.16612,59.6449511 L1189.47883,59.6449511 C1190.86645,59.6449511 1192,60.7785016 1192,62.1661238 C1192,63.5537459 1190.86645,64.6872964 1189.47883,64.6872964 L1183.16612,64.6872964 Z" id="Shape"></path>
        </g>
    </g>
</svg>