<?xml version="1.0" encoding="UTF-8" standalone="no"?>
<!DOCTYPE svg PUBLIC "-//W3C//DTD SVG 1.1//EN" "http://www.w3.org/Graphics/SVG/1.1/DTD/svg11.dtd">
<svg version="1.1" xmlns="http://www.w3.org/2000/svg" xmlns:xlink="http://www.w3.org/1999/xlink" preserveAspectRatio="xMidYMid meet" viewBox="0 0 19 24" width="19" height="24"><defs><path d="M19 0C19 0 19 0 19 0C19 14.4 19 22.4 19 24C19 24 19 24 19 24C7.6 24 1.27 24 0 24C0 24 0 24 0 24C0 9.6 0 1.6 0 0C0 0 0 0 0 0C11.4 0 17.74 0 19 0Z" id="b1jHjddDfE"></path><path d="M8.7 16.1C8.92 16.2 9.16 16.24 9.43 16.24C9.85 16.24 13.19 16.24 13.61 16.24C13.93 16.24 14.22 16.3 14.5 16.42C14.77 16.54 15.02 16.71 15.24 16.94C15.47 17.18 15.64 17.43 15.75 17.71C15.86 17.99 15.92 18.29 15.92 18.62C15.92 18.94 15.86 19.24 15.75 19.52C15.64 19.8 15.47 20.06 15.24 20.29C15.02 20.52 14.77 20.69 14.5 20.81C14.22 20.93 13.93 20.99 13.61 20.99C13.19 20.99 9.85 20.99 9.43 20.99C8.53 20.99 7.7 20.82 6.93 20.49C6.17 20.16 5.46 19.67 4.83 19.01C4.19 18.36 3.72 17.64 3.4 16.84C3.08 16.05 2.92 15.19 2.92 14.27C2.92 13.4 2.92 6.43 2.92 5.56C2.92 5.23 2.98 4.92 3.09 4.64C3.2 4.36 3.37 4.1 3.59 3.87C3.82 3.65 4.07 3.47 4.34 3.36C4.62 3.25 4.91 3.19 5.24 3.19C5.55 3.19 5.84 3.25 6.11 3.36C6.39 3.48 6.63 3.66 6.85 3.89C7.08 4.12 7.25 4.38 7.36 4.65C7.47 4.93 7.53 5.24 7.53 5.56C7.53 5.69 7.53 6.36 7.53 7.55C11.17 7.55 13.2 7.55 13.61 7.55C13.92 7.55 14.22 7.61 14.49 7.73C14.77 7.85 15.02 8.02 15.24 8.25C15.47 8.48 15.64 8.74 15.75 9.02C15.86 9.3 15.92 9.6 15.92 9.92C15.92 10.25 15.86 10.55 15.75 10.83C15.64 11.11 15.47 11.36 15.24 11.6C15.02 11.83 14.77 12 14.5 12.12C14.22 12.24 13.93 12.3 13.61 12.3C13.21 12.3 11.18 12.3 7.53 12.3C7.53 13.48 7.53 14.14 7.53 14.27C7.53 14.82 7.71 15.29 8.08 15.67C8.08 15.67 8.08 15.67 8.08 15.67C8.34 15.89 8.55 16.04 8.7 16.1Z" id="firoCKuXK"></path></defs><g><g><g><use xlink:href="#b1jHjddDfE" opacity="1" fill="#000000" fill-opacity="0"></use><g><use xlink:href="#b1jHjddDfE" opacity="1" fill-opacity="0" stroke="#000000" stroke-width="1" stroke-opacity="0"></use></g></g><g><use xlink:href="#firoCKuXK" opacity="1" fill="#0066ff" fill-opacity="1"></use><g><use xlink:href="#firoCKuXK" opacity="1" fill-opacity="0" stroke="#000000" stroke-width="1" stroke-opacity="0"></use></g></g></g></g></svg>