<svg width="34" height="17" viewBox="0 0 34 17" fill="none" xmlns="http://www.w3.org/2000/svg">
    <path d="M31.742 9.79032H4.41564L8.94235 14.2951C9.44745 14.7978 9.44939 15.6148 8.94668 16.1199C8.44397 16.625 7.62693 16.6269 7.12184 16.1243L0.379638 9.41458C0.379186 9.41419 0.378863 9.41374 0.378476 9.41336C-0.12533 8.91065 -0.126943 8.09103 0.378347 7.58664C0.378799 7.58626 0.379121 7.58581 0.379509 7.58542L7.12171 0.875739C7.62674 0.373158 8.44377 0.374899 8.94655 0.880125C9.44926 1.38522 9.44732 2.20219 8.94222 2.7049L4.41564 7.20968H31.742C32.4546 7.20968 33.0323 7.78735 33.0323 8.5C33.0323 9.21265 32.4546 9.79032 31.742 9.79032Z" fill="white"/>
</svg>
