<svg width="603" height="143" viewBox="0 0 603 143" fill="none" xmlns="http://www.w3.org/2000/svg">
<g clip-path="url(#clip0_4796_125)">
<path d="M207.859 3.35632H226.386C240.815 3.35632 251.211 13.6527 251.211 27.7811C251.211 41.9095 240.715 52.3392 226.386 52.3392H207.859V3.35632ZM226.12 42.5093C234.517 42.5093 240.381 36.3448 240.381 27.7811C240.381 19.2174 234.55 13.1862 226.12 13.1862H218.456V42.476H226.12V42.5093Z" fill="black"/>
<path d="M256.542 33.4463C256.542 22.0502 264.939 13.4866 276.135 13.4866C287.331 13.4866 295.695 22.4168 295.695 33.313C295.695 34.3126 295.628 35.3123 295.495 36.3119H266.905C267.805 41.4768 271.17 44.3091 276.135 44.3091C279.667 44.3091 282.6 42.6431 284.166 39.944H294.895C292.13 48.1745 284.899 53.4393 276.135 53.4393C264.972 53.4393 256.542 44.809 256.542 33.4796V33.4463ZM285.499 29.3144C284.066 24.6827 280.734 22.1835 276.168 22.1835C271.603 22.1835 268.405 24.8493 267.205 29.3144H285.499Z" fill="black"/>
<path d="M300.36 33.3463C300.36 22.0169 308.991 13.4866 320.487 13.4866C330.283 13.4866 337.847 19.6844 339.713 28.9812H329.583C327.917 25.2491 324.519 23.0832 320.453 23.0832C314.922 23.0832 310.757 27.515 310.757 33.3796C310.757 39.2442 314.989 43.776 320.453 43.776C324.585 43.776 327.851 41.4768 329.583 37.4449H339.88C338.081 46.9415 330.35 53.3726 320.487 53.3726C309.124 53.3726 300.427 44.609 300.427 33.313L300.36 33.3463Z" fill="black"/>
<path d="M356.841 34.2458V52.3394H346.611V0.924072H356.841V31.3468L368.304 14.5526H379.966L367.171 32.613L381.333 52.3061H369.004L356.841 34.2124V34.2458Z" fill="black"/>
<path d="M404.558 22.6165C399.46 22.6165 396.094 26.3485 396.094 32.4797V52.3394H385.864V0.924072H396.094V18.0514C398.96 15.319 402.992 13.653 407.523 13.653C416.087 13.653 421.385 19.7508 421.385 29.3808V52.3394H411.155V31.0802C411.155 25.4155 409.156 22.6165 404.558 22.6165Z" fill="black"/>
<path d="M428.015 33.4463C428.015 21.9836 436.745 13.4866 448.441 13.4866C460.137 13.4866 468.867 21.9836 468.867 33.4463C468.867 44.9089 460.103 53.406 448.441 53.406C436.778 53.406 428.015 44.8423 428.015 33.4463ZM458.504 33.4463C458.504 27.3151 454.339 23.0832 448.441 23.0832C442.543 23.0832 438.378 27.3151 438.378 33.4463C438.378 39.5775 442.543 43.8093 448.441 43.8093C454.339 43.8093 458.504 39.5775 458.504 33.4463Z" fill="black"/>
<path d="M475.432 36.3786V14.5529H485.661V35.2123C485.661 40.5771 488.494 43.8093 493.225 43.8093C497.957 43.8093 500.723 40.5438 500.723 35.2123V14.5529H510.953V36.3786C510.953 46.575 503.922 53.4059 493.225 53.4059C482.529 53.4059 475.465 46.575 475.465 36.3786H475.432Z" fill="black"/>
<path d="M517.551 39.9107H527.514C527.581 43.2762 530.146 44.9422 533.812 44.9422C536.644 44.9422 539.177 43.6427 539.177 41.1436C539.177 38.6444 535.911 37.7781 531.912 37.1117C525.881 36.112 518.184 34.4792 518.184 25.5823C518.184 18.4182 524.248 13.4866 533.379 13.4866C542.509 13.4866 548.473 18.5515 548.507 26.1155H538.81C538.777 23.1165 536.677 21.6171 533.112 21.6171C529.913 21.6171 528.047 23.0832 528.047 25.2491C528.047 27.7816 531.279 28.348 535.211 29.0478C541.376 30.1474 549.24 31.447 549.24 40.6771C549.24 48.3744 542.942 53.406 533.412 53.406C523.882 53.406 517.584 48.0078 517.551 39.9107Z" fill="black"/>
<path d="M554.139 33.4463C554.139 22.0502 562.536 13.4866 573.732 13.4866C584.928 13.4866 593.292 22.4168 593.292 33.313C593.292 34.3126 593.225 35.3123 593.092 36.3119H564.502C565.401 41.4768 568.767 44.3091 573.732 44.3091C577.264 44.3091 580.196 42.6431 581.762 39.944H592.492C589.726 48.1745 582.495 53.4393 573.732 53.4393C562.569 53.4393 554.139 44.809 554.139 33.4796V33.4463ZM583.095 29.3144C581.662 24.6827 578.33 22.1835 573.765 22.1835C569.2 22.1835 566.001 24.8493 564.802 29.3144H583.095Z" fill="black"/>
<path d="M207.859 78.9299H226.386C240.815 78.9299 251.211 89.2263 251.211 103.355C251.211 117.483 240.715 127.913 226.386 127.913H207.859V78.9299ZM226.12 118.05C234.517 118.05 240.381 111.885 240.381 103.321C240.381 94.7577 234.55 88.7265 226.12 88.7265H218.456V118.016H226.12V118.05Z" fill="black"/>
<path d="M256.542 108.986C256.542 97.5899 264.939 89.0262 276.135 89.0262C287.331 89.0262 295.695 97.9565 295.695 108.853C295.695 109.852 295.628 110.852 295.495 111.852H266.905C267.805 117.016 271.17 119.849 276.135 119.849C279.667 119.849 282.6 118.183 284.166 115.484H294.895C292.13 123.714 284.899 128.979 276.135 128.979C264.972 128.979 256.542 120.349 256.542 109.019V108.986ZM285.499 104.887C284.066 100.256 280.734 97.7565 276.168 97.7565C271.603 97.7565 268.405 100.422 267.205 104.887H285.499Z" fill="black"/>
<path d="M302.894 76.4972H313.123V127.879H302.894V76.4972Z" fill="black"/>
<path d="M322.454 90.1258H332.684V127.913H322.454V90.1258ZM322.487 75.5642H332.651V85.0609H322.487V75.5642Z" fill="black"/>
<path d="M337.481 90.1263H348.378L357.641 115.451L366.738 90.1263H377.334L362.339 127.913H352.909L337.548 90.1263H337.481Z" fill="black"/>
<path d="M378.601 108.986C378.601 97.5899 386.998 89.0262 398.194 89.0262C409.39 89.0262 417.754 97.9565 417.754 108.853C417.754 109.852 417.687 110.852 417.554 111.852H388.964C389.863 117.016 393.229 119.849 398.194 119.849C401.726 119.849 404.658 118.183 406.224 115.484H416.954C414.188 123.714 406.957 128.979 398.194 128.979C387.031 128.979 378.601 120.349 378.601 109.019V108.986ZM407.524 104.887C406.091 100.256 402.759 97.7565 398.194 97.7565C393.629 97.7565 390.43 100.422 389.23 104.887H407.524Z" fill="black"/>
<path d="M424.816 90.1262H431.381L433.18 94.7579C435.879 91.4257 439.278 89.9263 444.143 89.9263H447.508V99.5562H443.077C437.312 99.5562 435.046 102.089 435.046 108.287V127.913H424.816V90.1262Z" fill="black"/>
<path d="M454.207 132.311H457.739C462.671 132.311 463.937 131.012 466.269 125.281L466.403 124.981L450.408 90.0929H461.538L471.601 113.318L480.997 90.0929H491.86L475.399 127.38C470.868 137.61 466.902 141.508 458.405 141.508H454.207V132.311Z" fill="black"/>
<path d="M525.048 103.954V127.879H514.452V78.8965H525.048V101.555L541.11 78.8965H553.439L536.644 102.455L555.238 127.846H542.309L525.015 103.921L525.048 103.954Z" fill="black"/>
<path d="M559.803 90.1258H570.032V127.913H559.803V90.1258ZM559.836 75.5642H569.999V85.0609H559.836V75.5642Z" fill="black"/>
<path d="M581.661 114.384V98.2901H574.83V96.0909L589.758 80.2297H591.691V90.093H602.121V98.2901H591.857V113.018C591.857 116.684 593.957 118.783 597.689 118.783H602.32V127.88H595.056C586.759 127.88 581.628 122.782 581.628 114.384H581.661Z" fill="black"/>
<path d="M130.788 142.075H94.667V123.182H119.858L149.881 71.233L119.858 19.2845H94.667V0.391113H130.788L171.673 71.233L130.788 142.075Z" fill="#0064FF"/>
<path d="M75.7729 33.0465L42.7178 52.1398V90.3265L75.7729 109.42L108.828 90.3265V52.1398L75.7729 33.0465ZM92.8003 71.2332C92.8003 79.4636 86.1359 86.128 77.9055 86.128H63.0107V56.3384H77.9055C86.1359 56.3384 92.8003 63.0027 92.8003 71.2332Z" fill="black"/>
<path d="M56.8794 142.075H0.199219V0.391113H56.8794V19.2845H19.0926V123.182H56.8794V142.075Z" fill="#0064FF"/>
</g>
<defs>
<clipPath id="clip0_4796_125">
<rect width="602.156" height="141.684" fill="white" transform="translate(0.199219 0.391113)"/>
</clipPath>
</defs>
</svg>
