<svg width="608" height="220" viewBox="0 0 608 220" fill="none" xmlns="http://www.w3.org/2000/svg">
<g clip-path="url(#clip0_1473_1397)">
<path d="M225.189 52.5016H240.819C252.992 52.5016 261.762 61.188 261.762 73.1072C261.762 85.0264 252.907 93.8252 240.819 93.8252H225.189V52.5016ZM240.594 85.5324C247.679 85.5324 252.626 80.3318 252.626 73.1072C252.626 65.8826 247.707 60.7944 240.594 60.7944H234.129V85.5043H240.594V85.5324Z" fill="black"/>
<path d="M266.26 77.8864C266.26 68.2723 273.344 61.0477 282.789 61.0477C292.235 61.0477 299.291 68.5816 299.291 77.774C299.291 78.6173 299.234 79.4607 299.122 80.304H275.002C275.761 84.6613 278.601 87.0507 282.789 87.0507C285.769 87.0507 288.243 85.6451 289.564 83.3681H298.616C296.283 90.3116 290.183 94.7532 282.789 94.7532C273.372 94.7532 266.26 87.4724 266.26 77.9145V77.8864ZM290.689 74.4006C289.48 70.4931 286.669 68.3848 282.817 68.3848C278.966 68.3848 276.267 70.6337 275.255 74.4006H290.689Z" fill="black"/>
<path d="M303.227 77.8021C303.227 68.2442 310.507 61.0477 320.206 61.0477C328.471 61.0477 334.852 66.2764 336.426 74.1195H327.88C326.475 70.971 323.607 69.1438 320.178 69.1438C315.511 69.1438 311.997 72.8826 311.997 77.8302C311.997 82.7778 315.567 86.6009 320.178 86.6009C323.664 86.6009 326.418 84.6612 327.88 81.2598H336.567C335.049 89.2715 328.527 94.697 320.206 94.697C310.62 94.697 303.283 87.3037 303.283 77.774L303.227 77.8021Z" fill="black"/>
<path d="M350.876 78.5609V93.8254H342.246V50.4496H350.876V76.1153L360.547 61.9471H370.386L359.591 77.1835L371.538 93.7973H361.137L350.876 78.5328V78.5609Z" fill="black"/>
<path d="M391.131 68.7501C386.83 68.7501 383.991 71.8986 383.991 77.071V93.8254H375.36V50.4496H383.991V64.8988C386.408 62.5937 389.81 61.1881 393.633 61.1881C400.857 61.1881 405.327 66.3325 405.327 74.4567V93.8254H396.697V75.8904C396.697 71.1114 395.01 68.7501 391.131 68.7501Z" fill="black"/>
<path d="M410.92 77.8864C410.92 68.2161 418.285 61.0477 428.152 61.0477C438.019 61.0477 445.384 68.2161 445.384 77.8864C445.384 87.5567 437.991 94.7251 428.152 94.7251C418.313 94.7251 410.92 87.5005 410.92 77.8864ZM436.642 77.8864C436.642 72.7139 433.128 69.1438 428.152 69.1438C423.176 69.1438 419.663 72.7139 419.663 77.8864C419.663 83.0589 423.176 86.629 428.152 86.629C433.128 86.629 436.642 83.0589 436.642 77.8864Z" fill="black"/>
<path d="M450.923 80.3603V61.9473H459.553V79.3764C459.553 83.9023 461.943 86.6291 465.934 86.6291C469.926 86.6291 472.259 83.8742 472.259 79.3764V61.9473H480.89V80.3603C480.89 88.9623 474.958 94.7251 465.934 94.7251C456.911 94.7251 450.951 88.9623 450.951 80.3603H450.923Z" fill="black"/>
<path d="M486.456 83.34H494.861C494.918 86.1793 497.082 87.5848 500.174 87.5848C502.564 87.5848 504.7 86.4885 504.7 84.3801C504.7 82.2718 501.945 81.5409 498.572 80.9787C493.484 80.1353 486.99 78.7579 486.99 71.2521C486.99 65.2082 492.106 61.0477 499.809 61.0477C507.511 61.0477 512.543 65.3207 512.572 71.7019H504.391C504.363 69.1719 502.592 67.9069 499.584 67.9069C496.885 67.9069 495.311 69.1438 495.311 70.971C495.311 73.1075 498.038 73.5854 501.355 74.1757C506.556 75.1034 513.19 76.1997 513.19 83.9866C513.19 90.4803 507.877 94.7251 499.837 94.7251C491.797 94.7251 486.484 90.1711 486.456 83.34Z" fill="black"/>
<path d="M517.322 77.8864C517.322 68.2723 524.406 61.0477 533.852 61.0477C543.297 61.0477 550.353 68.5816 550.353 77.774C550.353 78.6173 550.297 79.4607 550.184 80.304H526.065C526.824 84.6613 529.663 87.0507 533.852 87.0507C536.832 87.0507 539.305 85.6451 540.627 83.3681H549.678C547.345 90.3116 541.245 94.7532 533.852 94.7532C524.434 94.7532 517.322 87.4724 517.322 77.9145V77.8864ZM541.751 74.4006C540.542 70.4931 537.731 68.3848 533.88 68.3848C530.029 68.3848 527.33 70.6337 526.318 74.4006H541.751Z" fill="black"/>
<path d="M225.189 116.258H240.819C252.992 116.258 261.762 124.944 261.762 136.864C261.762 148.783 252.907 157.582 240.819 157.582H225.189V116.258ZM240.594 149.261C247.679 149.261 252.626 144.06 252.626 136.836C252.626 129.611 247.707 124.523 240.594 124.523H234.129V149.233H240.594V149.261Z" fill="black"/>
<path d="M266.26 141.614C266.26 132 273.344 124.776 282.789 124.776C292.235 124.776 299.291 132.31 299.291 141.502C299.291 142.345 299.234 143.189 299.122 144.032H275.002C275.761 148.389 278.601 150.779 282.789 150.779C285.769 150.779 288.243 149.373 289.564 147.096H298.616C296.283 154.04 290.183 158.481 282.789 158.481C273.372 158.481 266.26 151.2 266.26 141.642V141.614ZM290.689 138.157C289.48 134.249 286.669 132.141 282.817 132.141C278.966 132.141 276.267 134.39 275.255 138.157H290.689Z" fill="black"/>
<path d="M305.363 114.206H313.993V157.553H305.363V114.206Z" fill="black"/>
<path d="M321.865 125.703H330.495V157.582H321.865V125.703ZM321.893 113.419H330.467V121.43H321.893V113.419Z" fill="black"/>
<path d="M334.543 125.704H343.735L351.55 147.068L359.225 125.704H368.164L355.514 157.582H347.559L334.599 125.704H334.543Z" fill="black"/>
<path d="M369.232 141.614C369.232 132 376.316 124.776 385.762 124.776C395.207 124.776 402.263 132.31 402.263 141.502C402.263 142.345 402.207 143.189 402.095 144.032H377.975C378.734 148.389 381.573 150.779 385.762 150.779C388.742 150.779 391.215 149.373 392.537 147.096H401.589C399.255 154.04 393.155 158.481 385.762 158.481C376.345 158.481 369.232 151.2 369.232 141.642V141.614ZM393.633 138.157C392.424 134.249 389.613 132.141 385.762 132.141C381.911 132.141 379.212 134.39 378.2 138.157H393.633Z" fill="black"/>
<path d="M408.222 125.704H413.76L415.278 129.611C417.555 126.8 420.422 125.535 424.526 125.535H427.366V133.659H423.627C418.763 133.659 416.852 135.796 416.852 141.024V157.582H408.222V125.704Z" fill="black"/>
<path d="M433.016 161.293H435.996C440.156 161.293 441.225 160.196 443.193 155.361L443.305 155.108L429.812 125.676H439.201L447.69 145.269L455.618 125.676H464.782L450.895 157.132C447.072 165.762 443.727 169.051 436.558 169.051H433.016V161.293Z" fill="black"/>
<path d="M492.781 137.37V157.553H483.842V116.23H492.781V135.346L506.331 116.23H516.732L502.564 136.105L518.25 157.525H507.343L492.753 137.341L492.781 137.37Z" fill="black"/>
<path d="M522.102 125.703H530.732V157.582H522.102V125.703ZM522.13 113.419H530.704V121.43H522.13V113.419Z" fill="black"/>
<path d="M540.542 146.169V132.591H534.779V130.736L547.373 117.355H549.004V125.676H557.802V132.591H549.144V145.016C549.144 148.108 550.915 149.879 554.064 149.879H557.971V157.554H551.843C544.843 157.554 540.514 153.253 540.514 146.169H540.542Z" fill="black"/>
<path d="M160.169 169.529H129.696V153.59H150.948L176.277 109.765L150.948 65.9391H129.696V50H160.169L194.662 109.765L160.169 169.529Z" fill="#004DF2"/>
<path d="M113.757 77.5492L85.8701 93.657V125.873L113.757 141.98L141.643 125.873V93.657L113.757 77.5492ZM128.121 109.765C128.121 116.708 122.499 122.331 115.556 122.331H102.99V97.199H115.556C122.499 97.199 128.121 102.821 128.121 109.765Z" fill="black"/>
<path d="M97.8174 169.529H50V50H97.8174V65.9391H65.9391V153.59H97.8174V169.529Z" fill="#004DF2"/>
</g>
<defs>
<clipPath id="clip0_1473_1397">
<rect width="508" height="119.529" fill="white" transform="translate(50 50)"/>
</clipPath>
</defs>
</svg>
