<svg version="1.1" viewBox="0.0 0.0 860.0 600.0" fill="none" stroke="none" stroke-linecap="square" stroke-miterlimit="10" xmlns:xlink="http://www.w3.org/1999/xlink" xmlns="http://www.w3.org/2000/svg"><clipPath id="g53ce3e8535_0_626.0"><path d="m0 0l860.0 0l0 600.0l-860.0 0l0 -600.0z" clip-rule="nonzero"/></clipPath><g clip-path="url(#g53ce3e8535_0_626.0)"><path fill="#ffffff" d="m0 0l860.0 0l0 600.0l-860.0 0z" fill-rule="evenodd"/><g filter="url(#shadowFilter-g53ce3e8535_0_626.1)"><use xlink:href="#g53ce3e8535_0_626.1" transform="matrix(1.0 0.0 0.0 1.0 2.8284271320333003 2.8284271320333003)"/></g><defs><filter id="shadowFilter-g53ce3e8535_0_626.1" filterUnits="userSpaceOnUse"><feGaussianBlur in="SourceAlpha" stdDeviation="0.0" result="blur"/><feComponentTransfer in="blur" color-interpolation-filters="sRGB"><feFuncR type="linear" slope="0" intercept="0.0"/><feFuncG type="linear" slope="0" intercept="0.0"/><feFuncB type="linear" slope="0" intercept="0.0"/><feFuncA type="linear" slope="1.0" intercept="0"/></feComponentTransfer></filter></defs><g id="g53ce3e8535_0_626.1"><path fill="#ffffff" d="m2.6094372 38.443787l0 0c0 -10.372917 8.40891 -18.781826 18.781824 -18.781826l273.33398 0c4.981262 0 9.758484 1.9787941 13.280762 5.501068c3.5222778 3.522276 5.501068 8.299507 5.501068 13.280758l0 67.916664c0 10.372917 -8.408905 18.781822 -18.78183 18.781822l-273.33398 0c-10.372915 0 -18.781824 -8.408905 -18.781824 -18.781822z" fill-rule="evenodd"/><path stroke="#000000" stroke-width="1.0" stroke-linejoin="round" stroke-linecap="butt" d="m2.6094372 38.443787l0 0c0 -10.372917 8.40891 -18.781826 18.781824 -18.781826l273.33398 0c4.981262 0 9.758484 1.9787941 13.280762 5.501068c3.5222778 3.522276 5.501068 8.299507 5.501068 13.280758l0 67.916664c0 10.372917 -8.408905 18.781822 -18.78183 18.781822l-273.33398 0c-10.372915 0 -18.781824 -8.408905 -18.781824 -18.781822z" fill-rule="evenodd"/><path fill="#0066ff" d="m70.10513 68.122116l3.96875 0l8.875 -16.90625l-4.546875 0l-5.390625 11.765625l-0.4375 1.265625l-0.03125 -1.140625l-1.859375 -11.90625l-4.203125 0.015625l3.625 16.90625zm14.25 -8.5l-0.03125 0.328125q-0.125 1.15625 -0.015625 2.25q0.125 1.09375 0.484375 2.046875q0.296875 0.765625 0.71875 1.390625q0.421875 0.625 1.03125 1.234375q0.6875 0.671875 1.8125 1.109375q1.140625 0.4375 2.515625 0.46875q1.890625 0.046875 3.4375 -0.625q1.5625 -0.6875 2.703125 -1.875q1.140625 -1.1875 1.84375 -2.765625q0.71875 -1.59375 0.9375 -3.375l0.046875 -0.34375q0.125 -1.171875 0 -2.28125q-0.109375 -1.125 -0.46875 -2.109375q-0.296875 -0.78125 -0.765625 -1.453125q-0.46875 -0.6875 -1.09375 -1.25q-0.78125 -0.671875 -1.84375 -1.0625q-1.046875 -0.390625 -2.375 -0.40625q-1.90625 -0.046875 -3.46875 0.640625q-1.546875 0.6875 -2.6875 1.890625q-1.140625 1.203125 -1.859375 2.8125q-0.703125 1.59375 -0.921875 3.375zm4.203125 0.328125l0.03125 -0.328125q0.109375 -0.90625 0.40625 -1.84375q0.3125 -0.9375 0.84375 -1.703125q0.515625 -0.765625 1.28125 -1.234375q0.78125 -0.46875 1.859375 -0.4375q0.875 0.046875 1.421875 0.4375q0.546875 0.390625 0.828125 1.03125q0.375 0.859375 0.390625 1.8125q0.03125 0.953125 -0.046875 1.796875l-0.03125 0.328125q-0.125 0.890625 -0.421875 1.828125q-0.28125 0.921875 -0.796875 1.671875q-0.53125 0.765625 -1.3125 1.25q-0.765625 0.46875 -1.828125 0.4375q-1.015625 -0.03125 -1.59375 -0.53125q-0.5625 -0.515625 -0.8125 -1.265625q-0.265625 -0.734375 -0.28125 -1.59375q-0.015625 -0.875 0.0625 -1.65625zm25.0625 -12.875l-4.234375 0l-0.71875 4.140625l-3.75 0l-0.5625 3.203125l3.75 0l-1.265625 7.6875q-0.140625 1.34375 0.09375 2.5q0.25 1.140625 0.890625 1.984375q0.625 0.84375 1.640625 1.34375q1.03125 0.484375 2.453125 0.5q1.234375 0.03125 2.609375 -0.171875q1.375 -0.203125 2.515625 -0.828125l-0.140625 -3.015625q-0.890625 0.1875 -1.78125 0.328125q-0.890625 0.140625 -1.796875 0.109375q-0.734375 -0.015625 -1.203125 -0.265625q-0.453125 -0.25 -0.6875 -0.671875q-0.25 -0.421875 -0.3125 -0.984375q-0.046875 -0.5625 0.03125 -1.234375l1.1875 -7.28125l6.125 0l0.5625 -3.203125l-6.125 0l0.71875 -4.140625zm11.4375 4.140625l-0.625 3.546875l4.671875 0l-1.703125 9.828125l-4.671875 0l-0.609375 3.53125l13.390625 0l0.625 -3.53125l-4.453125 0l2.328125 -13.375l-8.953125 0zm5.109375 -4.25q0 1.03125 0.703125 1.65625q0.71875 0.625 1.71875 0.59375q1.015625 0 1.734375 -0.65625q0.71875 -0.671875 0.71875 -1.75q0 -1.03125 -0.71875 -1.65625q-0.703125 -0.625 -1.703125 -0.59375q-1.0625 0 -1.765625 0.6875q-0.6875 0.6875 -0.6875 1.71875zm9.609375 21.15625l4.25 0l2.109375 -12.03125q0.328125 -0.375 0.6875 -0.6875q0.359375 -0.3125 0.765625 -0.515625q0.421875 -0.234375 0.90625 -0.34375q0.484375 -0.125 1.015625 -0.109375q0.796875 0.015625 1.296875 0.265625q0.515625 0.25 0.796875 0.6875q0.265625 0.4375 0.328125 1.046875q0.078125 0.59375 0 1.328125l-1.71875 10.359375l4.234375 0l1.734375 -10.40625q0.140625 -1.296875 -0.03125 -2.5q-0.171875 -1.21875 -0.71875 -2.171875q-0.546875 -0.953125 -1.515625 -1.53125q-0.953125 -0.578125 -2.421875 -0.609375q-0.984375 -0.015625 -1.859375 0.25q-0.859375 0.265625 -1.59375 0.765625q-0.5 0.328125 -0.953125 0.75q-0.4375 0.421875 -0.84375 0.90625l0.28125 -2.375l-3.8125 0.015625l-2.9375 16.90625zm19.859375 -8.46875l-0.046875 0.328125q-0.09375 0.9375 -0.046875 1.921875q0.046875 0.984375 0.28125 1.90625q0.21875 0.9375 0.625 1.765625q0.421875 0.828125 1.0625 1.453125q0.625 0.640625 1.484375 1.015625q0.875 0.375 2.0 0.390625q0.703125 0.015625 1.328125 -0.125q0.640625 -0.140625 1.21875 -0.4375q0.453125 -0.21875 0.875 -0.53125q0.421875 -0.3125 0.8125 -0.6875l-0.21875 1.0q-0.1875 0.875 -0.59375 1.5625q-0.40625 0.703125 -1.0 1.1875q-0.59375 0.5 -1.359375 0.75q-0.765625 0.265625 -1.671875 0.234375q-1.171875 -0.03125 -2.109375 -0.546875q-0.9375 -0.5 -1.640625 -1.40625l-2.171875 2.59375q1.0625 1.328125 2.640625 2.015625q1.578125 0.703125 3.265625 0.734375q1.71875 0.046875 3.21875 -0.4375q1.5 -0.46875 2.671875 -1.40625q1.15625 -0.921875 1.921875 -2.28125q0.765625 -1.359375 1.015625 -3.078125l2.78125 -16.359375l-3.890625 -0.015625l-0.5625 1.640625q-0.265625 -0.375 -0.59375 -0.671875q-0.328125 -0.3125 -0.6875 -0.53125q-0.59375 -0.359375 -1.296875 -0.53125q-0.6875 -0.1875 -1.4375 -0.203125q-1.21875 -0.03125 -2.25 0.3125q-1.015625 0.328125 -1.84375 0.9375q-0.84375 0.625 -1.484375 1.46875q-0.640625 0.84375 -1.109375 1.828125q-0.46875 0.984375 -0.765625 2.0625q-0.296875 1.078125 -0.421875 2.140625zm4.21875 0.328125l0.03125 -0.328125q0.109375 -0.890625 0.40625 -1.828125q0.3125 -0.953125 0.84375 -1.71875q0.515625 -0.765625 1.296875 -1.234375q0.78125 -0.484375 1.84375 -0.46875q0.4375 0.015625 0.8125 0.109375q0.375 0.09375 0.703125 0.265625q0.34375 0.203125 0.625 0.53125q0.28125 0.3125 0.484375 0.75l-1.28125 7.203125q-0.296875 0.359375 -0.625 0.65625q-0.3125 0.296875 -0.671875 0.5q-0.421875 0.25 -0.921875 0.375q-0.5 0.125 -1.0625 0.109375q-0.640625 -0.015625 -1.09375 -0.25q-0.4375 -0.25 -0.734375 -0.640625q-0.296875 -0.375 -0.453125 -0.859375q-0.15625 -0.5 -0.21875 -1.046875q-0.0625 -0.53125 -0.046875 -1.078125q0.015625 -0.5625 0.0625 -1.046875zm29.703125 -0.140625l0.625 -3.515625l-12.65625 0l-0.609375 3.515625l12.640625 0zm13.0 8.28125l4.203125 0l0.015625 -0.28125q-0.328125 -0.90625 -0.265625 -1.859375q0.078125 -0.96875 0.21875 -1.890625l1.171875 -7.265625q0.140625 -1.453125 -0.3125 -2.546875q-0.4375 -1.09375 -1.296875 -1.84375q-0.875 -0.734375 -2.0625 -1.125q-1.1875 -0.390625 -2.515625 -0.421875q-1.265625 -0.015625 -2.5625 0.296875q-1.28125 0.296875 -2.34375 0.953125q-1.0625 0.671875 -1.765625 1.703125q-0.703125 1.015625 -0.796875 2.421875l4.234375 -0.03125q0.109375 -0.515625 0.328125 -0.90625q0.234375 -0.40625 0.578125 -0.65625q0.359375 -0.28125 0.828125 -0.40625q0.484375 -0.140625 1.046875 -0.125q0.609375 0.015625 1.09375 0.203125q0.484375 0.171875 0.8125 0.5q0.3125 0.34375 0.4375 0.828125q0.140625 0.484375 0.046875 1.09375l-0.203125 1.046875l-2.4375 -0.03125q-0.953125 0 -1.9375 0.109375q-0.96875 0.109375 -1.890625 0.375q-0.921875 0.265625 -1.734375 0.703125q-0.8125 0.421875 -1.4375 1.0625q-0.625 0.640625 -1.015625 1.5q-0.375 0.859375 -0.421875 1.984375q-0.046875 1.125 0.34375 2.03125q0.390625 0.90625 1.109375 1.53125q0.703125 0.640625 1.65625 1.0q0.96875 0.34375 2.03125 0.359375q0.90625 0.015625 1.71875 -0.203125q0.8125 -0.203125 1.53125 -0.609375q0.375 -0.21875 0.734375 -0.484375q0.359375 -0.28125 0.703125 -0.59375q-0.015625 0.40625 0 0.796875q0.03125 0.375 0.15625 0.78125zm-3.734375 -3.03125q-0.453125 0 -0.84375 -0.125q-0.375 -0.125 -0.640625 -0.359375q-0.265625 -0.234375 -0.390625 -0.59375q-0.125 -0.359375 -0.0625 -0.84375q0.0625 -0.421875 0.203125 -0.765625q0.140625 -0.34375 0.34375 -0.609375q0.25 -0.328125 0.59375 -0.546875q0.34375 -0.234375 0.703125 -0.421875q0.5625 -0.234375 1.203125 -0.34375q0.640625 -0.109375 1.265625 -0.109375l1.921875 0.015625l-0.53125 2.921875q-0.296875 0.359375 -0.65625 0.65625q-0.34375 0.296875 -0.71875 0.515625q-0.53125 0.3125 -1.140625 0.46875q-0.609375 0.15625 -1.25 0.140625zm28.28125 -5.359375l0.03125 -0.34375q0.09375 -0.953125 0.0625 -1.9375q-0.015625 -1.0 -0.203125 -1.9375q-0.203125 -0.921875 -0.59375 -1.75q-0.375 -0.828125 -0.984375 -1.46875q-0.625 -0.625 -1.484375 -0.984375q-0.859375 -0.375 -2.015625 -0.40625q-0.84375 -0.015625 -1.609375 0.1875q-0.75 0.203125 -1.40625 0.625q-0.359375 0.234375 -0.71875 0.53125q-0.34375 0.296875 -0.671875 0.640625l0.265625 -1.6875l-3.875 0.015625l-4.0625 23.40625l4.234375 0l1.515625 -8.0q0.28125 0.34375 0.609375 0.625q0.328125 0.28125 0.6875 0.5q0.578125 0.328125 1.234375 0.5q0.65625 0.1875 1.375 0.203125q1.203125 0.03125 2.1875 -0.328125q1.0 -0.34375 1.8125 -0.96875q0.796875 -0.625 1.40625 -1.46875q0.625 -0.84375 1.078125 -1.828125q0.4375 -0.984375 0.71875 -2.03125q0.28125 -1.0625 0.40625 -2.09375zm-4.21875 -0.34375l-0.03125 0.328125q-0.078125 0.578125 -0.21875 1.203125q-0.125 0.609375 -0.359375 1.1875q-0.234375 0.65625 -0.609375 1.21875q-0.359375 0.5625 -0.859375 0.953125q-0.421875 0.328125 -0.96875 0.515625q-0.53125 0.1875 -1.1875 0.171875q-0.515625 -0.015625 -0.953125 -0.140625q-0.4375 -0.140625 -0.78125 -0.390625q-0.28125 -0.21875 -0.5 -0.515625q-0.21875 -0.296875 -0.375 -0.703125l1.25 -7.09375q0.265625 -0.359375 0.5625 -0.640625q0.3125 -0.296875 0.640625 -0.515625q0.4375 -0.265625 0.9375 -0.40625q0.5 -0.140625 1.078125 -0.125q0.59375 0.015625 1.0 0.21875q0.421875 0.203125 0.703125 0.546875q0.328125 0.375 0.5 0.953125q0.1875 0.5625 0.21875 1.15625q0.046875 0.53125 0.015625 1.078125q-0.015625 0.53125 -0.0625 1.0zm23.0 0.34375l0.03125 -0.34375q0.09375 -0.953125 0.0625 -1.9375q-0.015625 -1.0 -0.203125 -1.9375q-0.203125 -0.921875 -0.59375 -1.75q-0.375 -0.828125 -0.984375 -1.46875q-0.625 -0.625 -1.484375 -0.984375q-0.859375 -0.375 -2.015625 -0.40625q-0.84375 -0.015625 -1.609375 0.1875q-0.75 0.203125 -1.40625 0.625q-0.359375 0.234375 -0.71875 0.53125q-0.34375 0.296875 -0.671875 0.640625l0.265625 -1.6875l-3.875 0.015625l-4.0625 23.40625l4.234375 0l1.515625 -8.0q0.28125 0.34375 0.609375 0.625q0.328125 0.28125 0.6875 0.5q0.578125 0.328125 1.234375 0.5q0.65625 0.1875 1.375 0.203125q1.203125 0.03125 2.1875 -0.328125q1.0 -0.34375 1.8125 -0.96875q0.796875 -0.625 1.40625 -1.46875q0.625 -0.84375 1.078125 -1.828125q0.4375 -0.984375 0.71875 -2.03125q0.28125 -1.0625 0.40625 -2.09375zm-4.21875 -0.34375l-0.03125 0.328125q-0.078125 0.578125 -0.21875 1.203125q-0.125 0.609375 -0.359375 1.1875q-0.234375 0.65625 -0.609375 1.21875q-0.359375 0.5625 -0.859375 0.953125q-0.421875 0.328125 -0.96875 0.515625q-0.53125 0.1875 -1.1875 0.171875q-0.515625 -0.015625 -0.953125 -0.140625q-0.4375 -0.140625 -0.78125 -0.390625q-0.28125 -0.21875 -0.5 -0.515625q-0.21875 -0.296875 -0.375 -0.703125l1.25 -7.09375q0.265625 -0.359375 0.5625 -0.640625q0.3125 -0.296875 0.640625 -0.515625q0.4375 -0.265625 0.9375 -0.40625q0.5 -0.140625 1.078125 -0.125q0.59375 0.015625 1.0 0.21875q0.421875 0.203125 0.703125 0.546875q0.328125 0.375 0.5 0.953125q0.1875 0.5625 0.21875 1.15625q0.046875 0.53125 0.015625 1.078125q-0.015625 0.53125 -0.0625 1.0z" fill-rule="nonzero"/><path fill="#000000" d="m127.89342 94.00962l2.625 0q0.890625 -0.015625 1.6875 -0.28125q0.796875 -0.265625 1.390625 -0.765625q0.609375 -0.5 0.953125 -1.234375q0.359375 -0.734375 0.359375 -1.6875q0 -0.953125 -0.359375 -1.6875q-0.34375 -0.75 -0.953125 -1.25q-0.59375 -0.5 -1.390625 -0.765625q-0.796875 -0.265625 -1.6875 -0.28125l-4.3125 0l0 13.265625l1.6875 0l0 -5.3125zm0 -1.390625l0 -5.171875l2.625 0q0.578125 0 1.0625 0.1875q0.5 0.1875 0.875 0.515625q0.34375 0.34375 0.546875 0.828125q0.21875 0.484375 0.21875 1.078125q0 0.609375 -0.21875 1.078125q-0.203125 0.46875 -0.5625 0.796875q-0.359375 0.328125 -0.859375 0.5q-0.484375 0.171875 -1.0625 0.1875l-2.625 0zm10.148697 10.6875q0.671875 0 1.171875 -0.25q0.515625 -0.25 0.90625 -0.609375q0.375 -0.359375 0.640625 -0.796875q0.265625 -0.421875 0.4375 -0.8125l5.015625 -11.375l-1.890625 0l-2.546875 6.390625l-0.46875 1.15625l-0.4375 -1.1875l-2.703125 -6.359375l-1.875 0l4.234375 9.390625l-0.671875 1.3125q-0.09375 0.1875 -0.25 0.46875q-0.15625 0.28125 -0.375 0.546875q-0.234375 0.265625 -0.515625 0.453125q-0.28125 0.1875 -0.640625 0.1875q-0.125 0 -0.34375 -0.015625q-0.21875 0 -0.453125 -0.03125l-0.265625 1.375q0.15625 0.046875 0.46875 0.09375q0.328125 0.0625 0.5625 0.0625zm14.398697 -16.234375l-1.703125 0l0 2.390625l-2.578125 0l0 1.3125l2.578125 0l0 5.34375q0 0.921875 0.234375 1.5625q0.25 0.640625 0.671875 1.046875q0.421875 0.40625 0.984375 0.59375q0.578125 0.1875 1.234375 0.1875q0.390625 0 0.78125 -0.046875q0.40625 -0.03125 0.75 -0.109375q0.359375 -0.0625 0.65625 -0.15625q0.296875 -0.09375 0.515625 -0.21875l-0.234375 -1.203125q-0.15625 0.046875 -0.40625 0.09375q-0.234375 0.046875 -0.515625 0.09375q-0.28125 0.046875 -0.578125 0.078125q-0.28125 0.03125 -0.546875 0.03125q-0.375 0 -0.71875 -0.09375q-0.328125 -0.09375 -0.578125 -0.3125q-0.265625 -0.21875 -0.40625 -0.59375q-0.140625 -0.375 -0.140625 -0.953125l0 -5.34375l3.75 0l0 -1.3125l-3.75 0l0 -2.390625zm8.883072 3.859375l0 -5.609375l-1.6875 0l0 14.0l1.6875 0l0 -7.15625q0.1875 -0.296875 0.421875 -0.53125q0.234375 -0.25 0.5 -0.421875q0.34375 -0.25 0.75 -0.375q0.421875 -0.125 0.875 -0.125q0.5625 -0.015625 0.984375 0.15625q0.421875 0.15625 0.703125 0.46875q0.265625 0.296875 0.40625 0.734375q0.140625 0.4375 0.140625 1.03125l0 6.21875l1.6875 0l0 -6.203125q0 -1.0 -0.25 -1.71875q-0.234375 -0.71875 -0.6875 -1.203125q-0.4375 -0.46875 -1.078125 -0.6875q-0.625 -0.21875 -1.40625 -0.21875q-0.59375 0 -1.125 0.171875q-0.515625 0.15625 -0.953125 0.484375q-0.265625 0.1875 -0.515625 0.4375q-0.25 0.25 -0.453125 0.546875zm9.039322 3.375l0 0.203125q0 1.0625 0.3125 1.96875q0.3125 0.90625 0.890625 1.59375q0.578125 0.671875 1.40625 1.0625q0.84375 0.375 1.890625 0.375q1.03125 0 1.859375 -0.375q0.828125 -0.390625 1.40625 -1.0625q0.578125 -0.6875 0.890625 -1.59375q0.3125 -0.90625 0.3125 -1.96875l0 -0.203125q0 -1.0625 -0.3125 -1.984375q-0.3125 -0.921875 -0.890625 -1.59375q-0.578125 -0.671875 -1.421875 -1.046875q-0.828125 -0.390625 -1.875 -0.390625q-1.03125 0 -1.859375 0.390625q-0.828125 0.375 -1.40625 1.046875q-0.578125 0.671875 -0.890625 1.59375q-0.3125 0.921875 -0.3125 1.984375zm1.6875 0.203125l0 -0.203125q0 -0.71875 0.171875 -1.375q0.171875 -0.671875 0.53125 -1.171875q0.34375 -0.5 0.859375 -0.796875q0.515625 -0.296875 1.21875 -0.296875q0.703125 0 1.21875 0.296875q0.53125 0.296875 0.890625 0.796875q0.34375 0.5 0.515625 1.171875q0.1875 0.65625 0.1875 1.375l0 0.203125q0 0.71875 -0.171875 1.390625q-0.171875 0.65625 -0.515625 1.15625q-0.359375 0.5 -0.890625 0.796875q-0.515625 0.28125 -1.203125 0.28125q-0.703125 0 -1.234375 -0.28125q-0.53125 -0.296875 -0.875 -0.796875q-0.359375 -0.5 -0.53125 -1.15625q-0.171875 -0.671875 -0.171875 -1.390625zm9.976822 4.8125l1.6875 0l0 -7.0625q0.171875 -0.328125 0.40625 -0.59375q0.234375 -0.265625 0.515625 -0.453125q0.328125 -0.234375 0.71875 -0.359375q0.40625 -0.140625 0.875 -0.140625q0.546875 0 0.953125 0.125q0.421875 0.125 0.703125 0.40625q0.28125 0.296875 0.421875 0.75q0.15625 0.453125 0.15625 1.109375l0 6.21875l1.6875 0l0 -6.265625q0 -0.96875 -0.25 -1.6875q-0.234375 -0.71875 -0.6875 -1.1875q-0.4375 -0.453125 -1.078125 -0.671875q-0.625 -0.21875 -1.40625 -0.21875q-0.5625 0 -1.078125 0.171875q-0.515625 0.15625 -0.953125 0.4375q-0.296875 0.1875 -0.5625 0.453125q-0.25 0.265625 -0.46875 0.5625l-0.125 -1.453125l-1.515625 0l0 9.859375z" fill-rule="nonzero"/></g><g filter="url(#shadowFilter-g53ce3e8535_0_626.2)"><use xlink:href="#g53ce3e8535_0_626.2" transform="matrix(1.0 0.0 0.0 1.0 2.8284271320333003 2.8284271320333003)"/></g><defs><filter id="shadowFilter-g53ce3e8535_0_626.2" filterUnits="userSpaceOnUse"><feGaussianBlur in="SourceAlpha" stdDeviation="0.0" result="blur"/><feComponentTransfer in="blur" color-interpolation-filters="sRGB"><feFuncR type="linear" slope="0" intercept="0.0"/><feFuncG type="linear" slope="0" intercept="0.0"/><feFuncB type="linear" slope="0" intercept="0.0"/><feFuncA type="linear" slope="1.0" intercept="0"/></feComponentTransfer></filter></defs><g id="g53ce3e8535_0_626.2"><path fill="#ffffff" d="m2.6094372 262.18958l0 0c0 -10.372925 8.40891 -18.78183 18.781824 -18.78183l273.33398 0c4.981262 0 9.758484 1.9787903 13.280762 5.501068c3.5222778 3.5222778 5.501068 8.2994995 5.501068 13.280762l0 67.91666c0 10.372925 -8.408905 18.78183 -18.78183 18.78183l-273.33398 0c-10.372915 0 -18.781824 -8.408905 -18.781824 -18.78183z" fill-rule="evenodd"/><path stroke="#000000" stroke-width="1.0" stroke-linejoin="round" stroke-linecap="butt" d="m2.6094372 262.18958l0 0c0 -10.372925 8.40891 -18.78183 18.781824 -18.78183l273.33398 0c4.981262 0 9.758484 1.9787903 13.280762 5.501068c3.5222778 3.5222778 5.501068 8.2994995 5.501068 13.280762l0 67.91666c0 10.372925 -8.408905 18.78183 -18.78183 18.78183l-273.33398 0c-10.372915 0 -18.781824 -8.408905 -18.781824 -18.78183z" fill-rule="evenodd"/><path fill="#0066ff" d="m126.13638 274.6179q-0.921875 0 -1.75 0.234375q-0.8125 0.21875 -1.546875 0.625q-0.734375 0.421875 -1.375 1.0q-0.640625 0.578125 -1.203125 1.265625l0.109375 -0.6875l0.328125 -2.09375l-3.9375 0l-2.9375 16.90625l4.234375 0l1.765625 -10.171875q0.40625 -0.640625 0.875 -1.125q0.484375 -0.5 1.046875 -0.828125q0.671875 -0.40625 1.453125 -0.609375q0.78125 -0.203125 1.6875 -0.1875q0.84375 0.015625 1.65625 0.140625q0.8125 0.109375 1.625 0.3125l1.15625 -4.328125q-0.796875 -0.203125 -1.59375 -0.3125q-0.78125 -0.125 -1.59375 -0.140625zm12.4375 17.5625q2.015625 0.015625 3.921875 -0.734375q1.921875 -0.75 3.046875 -2.3125l-1.921875 -2.359375q-0.90625 0.9375 -2.09375 1.453125q-1.171875 0.5 -2.5 0.453125q-0.84375 -0.015625 -1.5 -0.3125q-0.65625 -0.3125 -1.09375 -0.828125q-0.453125 -0.515625 -0.6875 -1.203125q-0.234375 -0.703125 -0.203125 -1.515625l11.046875 0l0.28125 -1.84375q0.203125 -1.640625 -0.09375 -3.125q-0.28125 -1.484375 -1.0625 -2.640625q-0.796875 -1.140625 -2.078125 -1.828125q-1.28125 -0.6875 -3.046875 -0.734375q-1.265625 -0.03125 -2.40625 0.296875q-1.140625 0.3125 -2.109375 0.890625q-0.765625 0.46875 -1.4375 1.109375q-0.671875 0.625 -1.234375 1.34375q-0.796875 1.09375 -1.3125 2.40625q-0.5 1.3125 -0.65625 2.71875l-0.0625 0.640625q-0.15625 1.71875 0.296875 3.1875q0.453125 1.46875 1.421875 2.546875q0.953125 1.09375 2.34375 1.734375q1.40625 0.640625 3.140625 0.65625zm1.703125 -14.03125q0.703125 0.03125 1.234375 0.296875q0.546875 0.25 0.90625 0.6875q0.34375 0.4375 0.484375 1.03125q0.140625 0.59375 0.03125 1.28125l-0.078125 0.390625l-6.890625 0q0.296875 -0.6875 0.6875 -1.359375q0.390625 -0.671875 0.921875 -1.203125q0.515625 -0.53125 1.1875 -0.84375q0.671875 -0.3125 1.515625 -0.28125zm9.953125 5.234375l-0.046875 0.34375q-0.09375 0.921875 -0.0625 1.90625q0.046875 0.96875 0.25 1.890625q0.203125 0.9375 0.59375 1.765625q0.390625 0.828125 1.0 1.453125q0.609375 0.640625 1.453125 1.03125q0.84375 0.375 1.96875 0.40625q0.796875 0.015625 1.5 -0.171875q0.703125 -0.1875 1.3125 -0.53125q0.453125 -0.265625 0.859375 -0.609375q0.421875 -0.34375 0.796875 -0.765625l-0.21875 1.765625l3.796875 0l4.15625 -24.0l-4.25 0l-1.625 8.640625q-0.28125 -0.34375 -0.59375 -0.625q-0.3125 -0.28125 -0.671875 -0.5q-0.546875 -0.34375 -1.203125 -0.53125q-0.640625 -0.1875 -1.359375 -0.203125q-1.21875 -0.03125 -2.21875 0.3125q-1.0 0.34375 -1.8125 0.953125q-0.8125 0.625 -1.4375 1.484375q-0.609375 0.84375 -1.046875 1.828125q-0.453125 0.984375 -0.734375 2.046875q-0.28125 1.0625 -0.40625 2.109375zm4.203125 0.34375l0.03125 -0.328125q0.109375 -0.890625 0.375 -1.828125q0.265625 -0.9375 0.765625 -1.703125q0.5 -0.765625 1.25 -1.25q0.75 -0.484375 1.8125 -0.46875q0.484375 0.015625 0.875 0.140625q0.40625 0.109375 0.71875 0.34375q0.328125 0.21875 0.5625 0.5625q0.25 0.34375 0.421875 0.78125l-1.21875 6.875q-0.296875 0.390625 -0.640625 0.71875q-0.328125 0.328125 -0.703125 0.5625q-0.40625 0.265625 -0.890625 0.40625q-0.484375 0.125 -1.046875 0.109375q-0.609375 -0.015625 -1.03125 -0.234375q-0.421875 -0.234375 -0.6875 -0.59375q-0.234375 -0.296875 -0.375 -0.671875q-0.125 -0.375 -0.21875 -0.8125q-0.109375 -0.640625 -0.09375 -1.328125q0.03125 -0.703125 0.09375 -1.28125zm17.578125 -8.765625l-0.625 3.546875l4.671875 0l-1.703125 9.828125l-4.671875 0l-0.609375 3.53125l13.390625 0l0.625 -3.53125l-4.453125 0l2.328125 -13.375l-8.953125 0zm5.109375 -4.25q0 1.03125 0.703125 1.65625q0.71875 0.625 1.71875 0.59375q1.015625 0 1.734375 -0.65625q0.71875 -0.671875 0.71875 -1.75q0 -1.03125 -0.71875 -1.65625q-0.703125 -0.625 -1.703125 -0.59375q-1.0625 0 -1.765625 0.6875q-0.6875 0.6875 -0.6875 1.71875zm21.09375 16.421875q-0.109375 0.59375 -0.5 0.96875q-0.375 0.375 -0.890625 0.578125q-0.53125 0.21875 -1.125 0.296875q-0.578125 0.078125 -1.0625 0.078125q-0.640625 0 -1.21875 -0.140625q-0.5625 -0.140625 -1.0 -0.453125q-0.453125 -0.296875 -0.71875 -0.78125q-0.265625 -0.484375 -0.296875 -1.171875l-4.015625 -0.015625q0 1.4375 0.609375 2.5q0.625 1.046875 1.625 1.75q0.984375 0.71875 2.234375 1.078125q1.25 0.359375 2.546875 0.375q1.125 0.015625 2.40625 -0.21875q1.28125 -0.234375 2.390625 -0.734375q1.265625 -0.609375 2.15625 -1.65625q0.890625 -1.0625 0.96875 -2.65625q0.0625 -1.3125 -0.53125 -2.203125q-0.578125 -0.890625 -1.5 -1.46875q-0.375 -0.234375 -0.796875 -0.421875q-0.421875 -0.1875 -0.859375 -0.34375q-0.640625 -0.234375 -1.3125 -0.390625q-0.671875 -0.171875 -1.296875 -0.296875q-0.40625 -0.078125 -0.953125 -0.1875q-0.546875 -0.109375 -1.015625 -0.328125q-0.46875 -0.203125 -0.765625 -0.5625q-0.296875 -0.359375 -0.1875 -0.953125q0.09375 -0.5625 0.4375 -0.9375q0.359375 -0.390625 0.84375 -0.625q0.484375 -0.21875 1.03125 -0.3125q0.546875 -0.09375 1.03125 -0.09375q0.578125 0 1.078125 0.140625q0.515625 0.125 0.890625 0.390625q0.375 0.28125 0.578125 0.71875q0.21875 0.4375 0.203125 1.046875l4.21875 0.015625q0 -1.421875 -0.59375 -2.4375q-0.578125 -1.03125 -1.53125 -1.703125q-0.96875 -0.671875 -2.1875 -0.984375q-1.21875 -0.328125 -2.5 -0.34375q-1.078125 -0.015625 -2.25 0.234375q-1.15625 0.234375 -2.109375 0.6875q-1.34375 0.625 -2.265625 1.734375q-0.90625 1.109375 -0.953125 2.6875q-0.046875 1.203125 0.5 2.0625q0.546875 0.859375 1.421875 1.4375q0.734375 0.5 1.5 0.828125q0.765625 0.3125 1.734375 0.5625q0.5 0.125 1.0625 0.265625q0.578125 0.125 1.234375 0.265625q0.328125 0.078125 0.65625 0.21875q0.328125 0.140625 0.5625 0.3125q0.28125 0.21875 0.4375 0.515625q0.15625 0.28125 0.078125 0.671875z" fill-rule="nonzero"/><path fill="#000000" d="m136.03809 317.66165l2.609375 5.40625l1.78125 0l0 -0.109375l-2.8125 -5.671875q0.546875 -0.234375 1.0 -0.5625q0.46875 -0.34375 0.796875 -0.78125q0.328125 -0.4375 0.5 -0.96875q0.1875 -0.546875 0.1875 -1.1875q0 -1.0 -0.34375 -1.734375q-0.34375 -0.75 -0.953125 -1.25q-0.625 -0.484375 -1.453125 -0.734375q-0.8125 -0.25 -1.75 -0.265625l-3.875 0l0 13.265625l1.671875 0l0 -5.40625l2.640625 0zm-2.640625 -1.390625l0 -5.078125l2.203125 0q0.625 0 1.125 0.171875q0.515625 0.15625 0.890625 0.484375q0.375 0.328125 0.578125 0.8125q0.21875 0.46875 0.21875 1.109375q0 0.59375 -0.21875 1.0625q-0.21875 0.453125 -0.59375 0.78125q-0.375 0.3125 -0.875 0.484375q-0.5 0.15625 -1.078125 0.171875l-2.25 0zm13.804932 6.984375q1.4375 0 2.421875 -0.578125q0.984375 -0.578125 1.46875 -1.328125l-1.03125 -0.796875q-0.46875 0.59375 -1.171875 0.96875q-0.6875 0.359375 -1.59375 0.359375q-0.6875 0 -1.25 -0.25q-0.5625 -0.265625 -0.96875 -0.71875q-0.390625 -0.40625 -0.609375 -0.953125q-0.21875 -0.546875 -0.28125 -1.265625l0 -0.078125l7.03125 0l0 -0.75q0 -1.03125 -0.265625 -1.90625q-0.25 -0.890625 -0.78125 -1.546875q-0.53125 -0.640625 -1.328125 -1.0q-0.796875 -0.375 -1.859375 -0.375q-0.84375 0 -1.65625 0.34375q-0.796875 0.34375 -1.4375 0.984375q-0.625 0.65625 -1.015625 1.609375q-0.375 0.9375 -0.375 2.125l0 0.390625q0 1.03125 0.34375 1.90625q0.34375 0.875 0.96875 1.5q0.609375 0.640625 1.484375 1.0q0.875 0.359375 1.90625 0.359375zm-0.21875 -8.84375q0.65625 0 1.125 0.234375q0.46875 0.234375 0.765625 0.625q0.3125 0.375 0.484375 0.90625q0.171875 0.515625 0.171875 0.984375l0 0.078125l-5.296875 0q0.09375 -0.6875 0.34375 -1.203125q0.265625 -0.53125 0.625 -0.890625q0.359375 -0.359375 0.8125 -0.546875q0.453125 -0.1875 0.96875 -0.1875zm6.742462 3.640625l0 0.203125q0 1.046875 0.28125 1.96875q0.28125 0.90625 0.796875 1.59375q0.5 0.671875 1.21875 1.0625q0.734375 0.375 1.625 0.375q0.921875 0 1.59375 -0.3125q0.6875 -0.3125 1.1875 -0.90625l0.0625 1.03125l1.546875 0l0 -14.0l-1.6875 0l0 5.125q-0.46875 -0.578125 -1.140625 -0.859375q-0.65625 -0.296875 -1.546875 -0.296875q-0.890625 0 -1.625 0.375q-0.734375 0.359375 -1.234375 1.03125q-0.515625 0.65625 -0.796875 1.59375q-0.28125 0.921875 -0.28125 2.015625zm1.6875 0.203125l0 -0.203125q0 -0.71875 0.15625 -1.359375q0.15625 -0.65625 0.484375 -1.15625q0.3125 -0.5 0.8125 -0.78125q0.515625 -0.296875 1.21875 -0.296875q0.828125 0 1.375 0.390625q0.5625 0.390625 0.890625 0.984375l0 4.578125q-0.328125 0.640625 -0.890625 1.03125q-0.546875 0.375 -1.390625 0.375q-0.703125 0 -1.203125 -0.28125q-0.5 -0.296875 -0.8125 -0.78125q-0.328125 -0.5 -0.484375 -1.140625q-0.15625 -0.640625 -0.15625 -1.359375zm10.086182 -5.046875l0 1.46875l3.359375 0l0 6.9375l-3.359375 0l0 1.453125l8.265625 0l0 -1.453125l-3.21875 0l0 -8.40625l-5.046875 0zm3.140625 -2.578125q0 0.40625 0.25 0.6875q0.25 0.265625 0.765625 0.265625q0.5 0 0.75 -0.265625q0.25 -0.28125 0.25 -0.6875q0 -0.234375 -0.078125 -0.421875q-0.0625 -0.1875 -0.203125 -0.328125q-0.125 -0.109375 -0.3125 -0.171875q-0.171875 -0.078125 -0.40625 -0.078125q-0.25 0 -0.4375 0.078125q-0.171875 0.0625 -0.296875 0.171875q-0.140625 0.140625 -0.21875 0.34375q-0.0625 0.1875 -0.0625 0.40625zm14.351837 9.828125q0 0.234375 -0.09375 0.453125q-0.09375 0.203125 -0.265625 0.375q-0.28125 0.28125 -0.78125 0.4375q-0.5 0.15625 -1.171875 0.15625q-0.4375 0 -0.875 -0.078125q-0.4375 -0.09375 -0.796875 -0.3125q-0.359375 -0.21875 -0.609375 -0.578125q-0.234375 -0.359375 -0.265625 -0.875l-1.6875 0q0 0.625 0.28125 1.21875q0.296875 0.578125 0.84375 1.015625q0.53125 0.4375 1.3125 0.71875q0.78125 0.265625 1.796875 0.265625q0.875 0 1.609375 -0.203125q0.734375 -0.21875 1.265625 -0.609375q0.53125 -0.375 0.8125 -0.90625q0.296875 -0.546875 0.296875 -1.203125q0 -0.609375 -0.265625 -1.0625q-0.25 -0.46875 -0.734375 -0.828125q-0.5 -0.34375 -1.21875 -0.59375q-0.71875 -0.25 -1.625 -0.453125q-0.6875 -0.125 -1.140625 -0.265625q-0.453125 -0.15625 -0.71875 -0.34375q-0.28125 -0.171875 -0.390625 -0.40625q-0.109375 -0.234375 -0.109375 -0.515625q0 -0.28125 0.140625 -0.546875q0.140625 -0.265625 0.40625 -0.46875q0.265625 -0.203125 0.671875 -0.3125q0.40625 -0.125 0.953125 -0.125q0.515625 0 0.921875 0.15625q0.421875 0.140625 0.71875 0.375q0.28125 0.234375 0.4375 0.546875q0.171875 0.296875 0.171875 0.625l1.6875 0q0 -0.65625 -0.28125 -1.21875q-0.265625 -0.5625 -0.78125 -0.96875q-0.515625 -0.421875 -1.25 -0.65625q-0.71875 -0.234375 -1.625 -0.234375q-0.859375 0 -1.5625 0.234375q-0.703125 0.21875 -1.21875 0.609375q-0.5 0.390625 -0.78125 0.921875q-0.28125 0.515625 -0.28125 1.109375q0 0.609375 0.265625 1.078125q0.28125 0.453125 0.78125 0.796875q0.484375 0.34375 1.171875 0.59375q0.703125 0.234375 1.5625 0.421875q0.6875 0.125 1.140625 0.296875q0.46875 0.171875 0.75 0.375q0.28125 0.203125 0.40625 0.4375q0.125 0.234375 0.125 0.546875z" fill-rule="nonzero"/></g><g filter="url(#shadowFilter-g53ce3e8535_0_626.3)"><use xlink:href="#g53ce3e8535_0_626.3" transform="matrix(1.0 0.0 0.0 1.0 2.8284271320333003 2.8284271320333003)"/></g><defs><filter id="shadowFilter-g53ce3e8535_0_626.3" filterUnits="userSpaceOnUse"><feGaussianBlur in="SourceAlpha" stdDeviation="0.0" result="blur"/><feComponentTransfer in="blur" color-interpolation-filters="sRGB"><feFuncR type="linear" slope="0" intercept="0.0"/><feFuncG type="linear" slope="0" intercept="0.0"/><feFuncB type="linear" slope="0" intercept="0.0"/><feFuncA type="linear" slope="1.0" intercept="0"/></feComponentTransfer></filter></defs><g id="g53ce3e8535_0_626.3"><path fill="#ffffff" d="m543.77026 38.443787l0 0c0 -10.372917 8.4088745 -18.781826 18.7818 -18.781826l273.33398 0c4.981262 0 9.758484 1.9787941 13.280762 5.501068c3.5222778 3.522276 5.5010986 8.299507 5.5010986 13.280758l0 67.916664c0 10.372917 -8.408936 18.781822 -18.78186 18.781822l-273.33398 0c-10.372925 0 -18.7818 -8.408905 -18.7818 -18.781822z" fill-rule="evenodd"/><path stroke="#000000" stroke-width="1.0" stroke-linejoin="round" stroke-linecap="butt" d="m543.77026 38.443787l0 0c0 -10.372917 8.4088745 -18.781826 18.7818 -18.781826l273.33398 0c4.981262 0 9.758484 1.9787941 13.280762 5.501068c3.5222778 3.522276 5.5010986 8.299507 5.5010986 13.280758l0 67.916664c0 10.372917 -8.408936 18.781822 -18.78186 18.781822l-273.33398 0c-10.372925 0 -18.7818 -8.408905 -18.7818 -18.781822z" fill-rule="evenodd"/><path fill="#0066ff" d="m620.34406 50.872116q-0.921875 0 -1.75 0.234375q-0.8125 0.21875 -1.546875 0.625q-0.734375 0.421875 -1.375 1.0q-0.640625 0.578125 -1.203125 1.265625l0.109375 -0.6875l0.328125 -2.09375l-3.9375 0l-2.9375 16.90625l4.234375 0l1.765625 -10.171875q0.40625 -0.640625 0.875 -1.125q0.484375 -0.5 1.046875 -0.828125q0.671875 -0.40625 1.453125 -0.609375q0.78125 -0.203125 1.6875 -0.1875q0.84375 0.015625 1.65625 0.140625q0.8125 0.109375 1.625 0.3125l1.15625 -4.328125q-0.796875 -0.203125 -1.59375 -0.3125q-0.78125 -0.125 -1.59375 -0.140625zm12.4375 17.5625q2.015625 0.015625 3.921875 -0.734375q1.921875 -0.75 3.046875 -2.3125l-1.921875 -2.359375q-0.90625 0.9375 -2.09375 1.453125q-1.171875 0.5 -2.5 0.453125q-0.84375 -0.015625 -1.5 -0.3125q-0.65625 -0.3125 -1.09375 -0.828125q-0.453125 -0.515625 -0.6875 -1.203125q-0.234375 -0.703125 -0.203125 -1.515625l11.046875 0l0.28125 -1.84375q0.203125 -1.640625 -0.09375 -3.125q-0.28125 -1.484375 -1.0625 -2.640625q-0.796875 -1.140625 -2.078125 -1.828125q-1.28125 -0.6875 -3.046875 -0.734375q-1.265625 -0.03125 -2.40625 0.296875q-1.140625 0.3125 -2.109375 0.890625q-0.765625 0.46875 -1.4375 1.109375q-0.671875 0.625 -1.234375 1.34375q-0.796875 1.09375 -1.3125 2.40625q-0.5 1.3125 -0.65625 2.71875l-0.0625 0.640625q-0.15625 1.71875 0.296875 3.1875q0.453125 1.46875 1.421875 2.546875q0.953125 1.09375 2.34375 1.734375q1.40625 0.640625 3.140625 0.65625zm1.703125 -14.03125q0.703125 0.03125 1.234375 0.296875q0.546875 0.25 0.90625 0.6875q0.34375 0.4375 0.484375 1.03125q0.140625 0.59375 0.03125 1.28125l-0.078125 0.390625l-6.890625 0q0.296875 -0.6875 0.6875 -1.359375q0.390625 -0.671875 0.921875 -1.203125q0.515625 -0.53125 1.1875 -0.84375q0.671875 -0.3125 1.515625 -0.28125zm20.375 8.984375q-0.109375 0.59375 -0.5 0.96875q-0.375 0.375 -0.890625 0.578125q-0.53125 0.21875 -1.125 0.296875q-0.578125 0.078125 -1.0625 0.078125q-0.640625 0 -1.21875 -0.140625q-0.5625 -0.140625 -1.0 -0.453125q-0.453125 -0.296875 -0.71875 -0.78125q-0.265625 -0.484375 -0.296875 -1.171875l-4.015625 -0.015625q0 1.4375 0.609375 2.5q0.625 1.046875 1.625 1.75q0.984375 0.71875 2.234375 1.078125q1.25 0.359375 2.546875 0.375q1.125 0.015625 2.40625 -0.21875q1.28125 -0.234375 2.390625 -0.734375q1.265625 -0.609375 2.15625 -1.65625q0.890625 -1.0625 0.96875 -2.65625q0.0625 -1.3125 -0.53125 -2.203125q-0.578125 -0.890625 -1.5 -1.46875q-0.375 -0.234375 -0.796875 -0.421875q-0.421875 -0.1875 -0.859375 -0.34375q-0.640625 -0.234375 -1.3125 -0.390625q-0.671875 -0.171875 -1.296875 -0.296875q-0.40625 -0.078125 -0.953125 -0.1875q-0.546875 -0.109375 -1.015625 -0.328125q-0.46875 -0.203125 -0.765625 -0.5625q-0.296875 -0.359375 -0.1875 -0.953125q0.09375 -0.5625 0.4375 -0.9375q0.359375 -0.390625 0.84375 -0.625q0.484375 -0.21875 1.03125 -0.3125q0.546875 -0.09375 1.03125 -0.09375q0.578125 0 1.078125 0.140625q0.515625 0.125 0.890625 0.390625q0.375 0.28125 0.578125 0.71875q0.21875 0.4375 0.203125 1.046875l4.21875 0.015625q0 -1.421875 -0.59375 -2.4375q-0.578125 -1.03125 -1.53125 -1.703125q-0.96875 -0.671875 -2.1875 -0.984375q-1.21875 -0.328125 -2.5 -0.34375q-1.078125 -0.015625 -2.25 0.234375q-1.15625 0.234375 -2.109375 0.6875q-1.34375 0.625 -2.265625 1.734375q-0.90625 1.109375 -0.953125 2.6875q-0.046875 1.203125 0.5 2.0625q0.546875 0.859375 1.421875 1.4375q0.734375 0.5 1.5 0.828125q0.765625 0.3125 1.734375 0.5625q0.5 0.125 1.0625 0.265625q0.578125 0.125 1.234375 0.265625q0.328125 0.078125 0.65625 0.21875q0.328125 0.140625 0.5625 0.3125q0.28125 0.21875 0.4375 0.515625q0.15625 0.28125 0.078125 0.671875zm13.4375 5.0625q1.515625 0.03125 2.734375 -0.75q1.234375 -0.78125 2.171875 -1.96875l-0.328125 2.390625l3.828125 0l2.9375 -16.90625l-4.25 0l-2.078125 11.875q-0.296875 0.40625 -0.640625 0.734375q-0.328125 0.3125 -0.703125 0.546875q-0.46875 0.28125 -1.03125 0.421875q-0.546875 0.140625 -1.1875 0.125q-0.8125 -0.015625 -1.25 -0.34375q-0.4375 -0.328125 -0.609375 -0.84375q-0.1875 -0.515625 -0.1875 -1.15625q0.015625 -0.65625 0.09375 -1.3125l1.671875 -10.046875l-4.234375 0l-1.671875 10.0q-0.140625 1.328125 -0.015625 2.609375q0.125 1.265625 0.71875 2.34375q0.546875 0.984375 1.515625 1.625q0.984375 0.640625 2.515625 0.65625zm17.6875 -24.328125l-0.625 3.546875l4.921875 0l-2.9375 16.921875l-4.90625 0l-0.625 3.53125l13.890625 0l0.625 -3.53125l-4.703125 0l3.546875 -20.46875l-9.1875 0zm25.140625 2.953125l-4.234375 0l-0.71875 4.140625l-3.75 0l-0.5625 3.203125l3.75 0l-1.265625 7.6875q-0.140625 1.34375 0.09375 2.5q0.25 1.140625 0.890625 1.984375q0.625 0.84375 1.640625 1.34375q1.03125 0.484375 2.453125 0.5q1.234375 0.03125 2.609375 -0.171875q1.375 -0.203125 2.515625 -0.828125l-0.140625 -3.015625q-0.890625 0.1875 -1.78125 0.328125q-0.890625 0.140625 -1.796875 0.109375q-0.734375 -0.015625 -1.203125 -0.265625q-0.453125 -0.25 -0.6875 -0.671875q-0.25 -0.421875 -0.3125 -0.984375q-0.046875 -0.5625 0.03125 -1.234375l1.1875 -7.28125l6.125 0l0.5625 -3.203125l-6.125 0l0.71875 -4.140625zm23.59375 12.765625l0.625 -3.515625l-12.65625 0l-0.609375 3.515625l12.640625 0zm13.0 8.28125l4.203125 0l0.015625 -0.28125q-0.328125 -0.90625 -0.265625 -1.859375q0.078125 -0.96875 0.21875 -1.890625l1.171875 -7.265625q0.140625 -1.453125 -0.3125 -2.546875q-0.4375 -1.09375 -1.296875 -1.84375q-0.875 -0.734375 -2.0625 -1.125q-1.1875 -0.390625 -2.515625 -0.421875q-1.265625 -0.015625 -2.5625 0.296875q-1.28125 0.296875 -2.34375 0.953125q-1.0625 0.671875 -1.765625 1.703125q-0.703125 1.015625 -0.796875 2.421875l4.234375 -0.03125q0.109375 -0.515625 0.328125 -0.90625q0.234375 -0.40625 0.578125 -0.65625q0.359375 -0.28125 0.828125 -0.40625q0.484375 -0.140625 1.046875 -0.125q0.609375 0.015625 1.09375 0.203125q0.484375 0.171875 0.8125 0.5q0.3125 0.34375 0.4375 0.828125q0.140625 0.484375 0.046875 1.09375l-0.203125 1.046875l-2.4375 -0.03125q-0.953125 0 -1.9375 0.109375q-0.96875 0.109375 -1.890625 0.375q-0.921875 0.265625 -1.734375 0.703125q-0.8125 0.421875 -1.4375 1.0625q-0.625 0.640625 -1.015625 1.5q-0.375 0.859375 -0.421875 1.984375q-0.046875 1.125 0.34375 2.03125q0.390625 0.90625 1.109375 1.53125q0.703125 0.640625 1.65625 1.0q0.96875 0.34375 2.03125 0.359375q0.90625 0.015625 1.71875 -0.203125q0.8125 -0.203125 1.53125 -0.609375q0.375 -0.21875 0.734375 -0.484375q0.359375 -0.28125 0.703125 -0.59375q-0.015625 0.40625 0 0.796875q0.03125 0.375 0.15625 0.78125zm-3.734375 -3.03125q-0.453125 0 -0.84375 -0.125q-0.375 -0.125 -0.640625 -0.359375q-0.265625 -0.234375 -0.390625 -0.59375q-0.125 -0.359375 -0.0625 -0.84375q0.0625 -0.421875 0.203125 -0.765625q0.140625 -0.34375 0.34375 -0.609375q0.25 -0.328125 0.59375 -0.546875q0.34375 -0.234375 0.703125 -0.421875q0.5625 -0.234375 1.203125 -0.34375q0.640625 -0.109375 1.265625 -0.109375l1.921875 0.015625l-0.53125 2.921875q-0.296875 0.359375 -0.65625 0.65625q-0.34375 0.296875 -0.71875 0.515625q-0.53125 0.3125 -1.140625 0.46875q-0.609375 0.15625 -1.25 0.140625zm28.28125 -5.359375l0.03125 -0.34375q0.09375 -0.953125 0.0625 -1.9375q-0.015625 -1.0 -0.203125 -1.9375q-0.203125 -0.921875 -0.59375 -1.75q-0.375 -0.828125 -0.984375 -1.46875q-0.625 -0.625 -1.484375 -0.984375q-0.859375 -0.375 -2.015625 -0.40625q-0.84375 -0.015625 -1.609375 0.1875q-0.75 0.203125 -1.40625 0.625q-0.359375 0.234375 -0.71875 0.53125q-0.34375 0.296875 -0.671875 0.640625l0.265625 -1.6875l-3.875 0.015625l-4.0625 23.40625l4.234375 0l1.515625 -8.0q0.28125 0.34375 0.609375 0.625q0.328125 0.28125 0.6875 0.5q0.578125 0.328125 1.234375 0.5q0.65625 0.1875 1.375 0.203125q1.203125 0.03125 2.1875 -0.328125q1.0 -0.34375 1.8125 -0.96875q0.796875 -0.625 1.40625 -1.46875q0.625 -0.84375 1.078125 -1.828125q0.4375 -0.984375 0.71875 -2.03125q0.28125 -1.0625 0.40625 -2.09375zm-4.21875 -0.34375l-0.03125 0.328125q-0.078125 0.578125 -0.21875 1.203125q-0.125 0.609375 -0.359375 1.1875q-0.234375 0.65625 -0.609375 1.21875q-0.359375 0.5625 -0.859375 0.953125q-0.421875 0.328125 -0.96875 0.515625q-0.53125 0.1875 -1.1875 0.171875q-0.515625 -0.015625 -0.953125 -0.140625q-0.4375 -0.140625 -0.78125 -0.390625q-0.28125 -0.21875 -0.5 -0.515625q-0.21875 -0.296875 -0.375 -0.703125l1.25 -7.09375q0.265625 -0.359375 0.5625 -0.640625q0.3125 -0.296875 0.640625 -0.515625q0.4375 -0.265625 0.9375 -0.40625q0.5 -0.140625 1.078125 -0.125q0.59375 0.015625 1.0 0.21875q0.421875 0.203125 0.703125 0.546875q0.328125 0.375 0.5 0.953125q0.1875 0.5625 0.21875 1.15625q0.046875 0.53125 0.015625 1.078125q-0.015625 0.53125 -0.0625 1.0zm23.0 0.34375l0.03125 -0.34375q0.09375 -0.953125 0.0625 -1.9375q-0.015625 -1.0 -0.203125 -1.9375q-0.203125 -0.921875 -0.59375 -1.75q-0.375 -0.828125 -0.984375 -1.46875q-0.625 -0.625 -1.484375 -0.984375q-0.859375 -0.375 -2.015625 -0.40625q-0.84375 -0.015625 -1.609375 0.1875q-0.75 0.203125 -1.40625 0.625q-0.359375 0.234375 -0.71875 0.53125q-0.34375 0.296875 -0.671875 0.640625l0.265625 -1.6875l-3.875 0.015625l-4.0625 23.40625l4.234375 0l1.515625 -8.0q0.28125 0.34375 0.609375 0.625q0.328125 0.28125 0.6875 0.5q0.578125 0.328125 1.234375 0.5q0.65625 0.1875 1.375 0.203125q1.203125 0.03125 2.1875 -0.328125q1.0 -0.34375 1.8125 -0.96875q0.796875 -0.625 1.40625 -1.46875q0.625 -0.84375 1.078125 -1.828125q0.4375 -0.984375 0.71875 -2.03125q0.28125 -1.0625 0.40625 -2.09375zm-4.21875 -0.34375l-0.03125 0.328125q-0.078125 0.578125 -0.21875 1.203125q-0.125 0.609375 -0.359375 1.1875q-0.234375 0.65625 -0.609375 1.21875q-0.359375 0.5625 -0.859375 0.953125q-0.421875 0.328125 -0.96875 0.515625q-0.53125 0.1875 -1.1875 0.171875q-0.515625 -0.015625 -0.953125 -0.140625q-0.4375 -0.140625 -0.78125 -0.390625q-0.28125 -0.21875 -0.5 -0.515625q-0.21875 -0.296875 -0.375 -0.703125l1.25 -7.09375q0.265625 -0.359375 0.5625 -0.640625q0.3125 -0.296875 0.640625 -0.515625q0.4375 -0.265625 0.9375 -0.40625q0.5 -0.140625 1.078125 -0.125q0.59375 0.015625 1.0 0.21875q0.421875 0.203125 0.703125 0.546875q0.328125 0.375 0.5 0.953125q0.1875 0.5625 0.21875 1.15625q0.046875 0.53125 0.015625 1.078125q-0.015625 0.53125 -0.0625 1.0z" fill-rule="nonzero"/><path fill="#000000" d="m669.9252 99.32212l0 -13.265625l-1.703125 0l-0.03125 9.890625l-5.140625 -9.890625l-1.71875 0l0 13.265625l1.703125 0l0.03125 -9.90625l5.15625 9.90625l1.703125 0zm2.4143677 -5.015625l0 0.203125q0 1.0625 0.3125 1.96875q0.3125 0.90625 0.890625 1.59375q0.578125 0.671875 1.40625 1.0625q0.84375 0.375 1.890625 0.375q1.03125 0 1.859375 -0.375q0.828125 -0.390625 1.40625 -1.0625q0.578125 -0.6875 0.890625 -1.59375q0.3125 -0.90625 0.3125 -1.96875l0 -0.203125q0 -1.0625 -0.3125 -1.984375q-0.3125 -0.921875 -0.890625 -1.59375q-0.578125 -0.671875 -1.421875 -1.046875q-0.828125 -0.390625 -1.875 -0.390625q-1.03125 0 -1.859375 0.390625q-0.828125 0.375 -1.40625 1.046875q-0.578125 0.671875 -0.890625 1.59375q-0.3125 0.921875 -0.3125 1.984375zm1.6875 0.203125l0 -0.203125q0 -0.71875 0.171875 -1.375q0.171875 -0.671875 0.53125 -1.171875q0.34375 -0.5 0.859375 -0.796875q0.515625 -0.296875 1.21875 -0.296875q0.703125 0 1.21875 0.296875q0.53125 0.296875 0.890625 0.796875q0.34375 0.5 0.515625 1.171875q0.1875 0.65625 0.1875 1.375l0 0.203125q0 0.71875 -0.171875 1.390625q-0.171875 0.65625 -0.515625 1.15625q-0.359375 0.5 -0.890625 0.796875q-0.515625 0.28125 -1.203125 0.28125q-0.703125 0 -1.234375 -0.28125q-0.53125 -0.296875 -0.875 -0.796875q-0.359375 -0.5 -0.53125 -1.15625q-0.171875 -0.671875 -0.171875 -1.390625zm9.664307 -0.203125l0 0.203125q0 1.046875 0.28125 1.96875q0.28125 0.90625 0.796875 1.59375q0.5 0.671875 1.21875 1.0625q0.734375 0.375 1.625 0.375q0.921875 0 1.59375 -0.3125q0.6875 -0.3125 1.1875 -0.90625l0.0625 1.03125l1.546875 0l0 -14.0l-1.6875 0l0 5.125q-0.46875 -0.578125 -1.140625 -0.859375q-0.65625 -0.296875 -1.546875 -0.296875q-0.890625 0 -1.625 0.375q-0.734375 0.359375 -1.234375 1.03125q-0.515625 0.65625 -0.796875 1.59375q-0.28125 0.921875 -0.28125 2.015625zm1.6875 0.203125l0 -0.203125q0 -0.71875 0.15625 -1.359375q0.15625 -0.65625 0.484375 -1.15625q0.3125 -0.5 0.8125 -0.78125q0.515625 -0.296875 1.21875 -0.296875q0.828125 0 1.375 0.390625q0.5625 0.390625 0.890625 0.984375l0 4.578125q-0.328125 0.640625 -0.890625 1.03125q-0.546875 0.375 -1.390625 0.375q-0.703125 0 -1.203125 -0.28125q-0.5 -0.296875 -0.8125 -0.78125q-0.328125 -0.5 -0.484375 -1.140625q-0.15625 -0.640625 -0.15625 -1.359375zm14.179932 5.0q1.4375 0 2.421875 -0.578125q0.984375 -0.578125 1.46875 -1.328125l-1.03125 -0.796875q-0.46875 0.59375 -1.171875 0.96875q-0.6875 0.359375 -1.59375 0.359375q-0.6875 0 -1.25 -0.25q-0.5625 -0.265625 -0.96875 -0.71875q-0.390625 -0.40625 -0.609375 -0.953125q-0.21875 -0.546875 -0.28125 -1.265625l0 -0.078125l7.03125 0l0 -0.75q0 -1.03125 -0.265625 -1.90625q-0.25 -0.890625 -0.78125 -1.546875q-0.53125 -0.640625 -1.328125 -1.0q-0.796875 -0.375 -1.859375 -0.375q-0.84375 0 -1.65625 0.34375q-0.796875 0.34375 -1.4375 0.984375q-0.625 0.65625 -1.015625 1.609375q-0.375 0.9375 -0.375 2.125l0 0.390625q0 1.03125 0.34375 1.90625q0.34375 0.875 0.96875 1.5q0.609375 0.640625 1.484375 1.0q0.875 0.359375 1.90625 0.359375zm-0.21875 -8.84375q0.65625 0 1.125 0.234375q0.46875 0.234375 0.765625 0.625q0.3125 0.375 0.484375 0.90625q0.171875 0.515625 0.171875 0.984375l0 0.078125l-5.296875 0q0.09375 -0.6875 0.34375 -1.203125q0.265625 -0.53125 0.625 -0.890625q0.359375 -0.359375 0.8125 -0.546875q0.453125 -0.1875 0.96875 -0.1875zm9.992432 7.5625q0 0.53125 0.328125 0.90625q0.34375 0.359375 1.0 0.359375q0.640625 0 0.984375 -0.359375q0.34375 -0.375 0.34375 -0.90625q0 -0.546875 -0.34375 -0.921875q-0.328125 -0.375 -0.984375 -0.375q-0.671875 0 -1.0 0.390625q-0.328125 0.375 -0.328125 0.90625zm9.398743 -8.765625l0 1.46875l3.296875 0l0 8.453125q0 0.703125 -0.1875 1.171875q-0.171875 0.484375 -0.484375 0.78125q-0.3125 0.296875 -0.734375 0.40625q-0.40625 0.125 -0.890625 0.125q-0.125 0 -0.34375 0q-0.21875 0 -0.453125 -0.03125q-0.25 0 -0.484375 -0.03125q-0.234375 -0.015625 -0.390625 -0.046875l-0.125 1.390625q0.234375 0.03125 0.4375 0.0625q0.203125 0.03125 0.421875 0.046875q0.25 0.03125 0.515625 0.03125q0.265625 0.015625 0.546875 0.015625q0.90625 0 1.625 -0.265625q0.71875 -0.25 1.21875 -0.765625q0.484375 -0.484375 0.75 -1.21875q0.265625 -0.71875 0.265625 -1.671875l0 -9.921875l-4.984375 0zm3.0625 -2.59375q0 0.40625 0.234375 0.6875q0.25 0.28125 0.765625 0.28125q0.5 0 0.75 -0.28125q0.265625 -0.28125 0.265625 -0.6875q0 -0.40625 -0.265625 -0.6875q-0.25 -0.296875 -0.75 -0.296875q-0.515625 0 -0.765625 0.296875q-0.234375 0.28125 -0.234375 0.6875zm13.554932 9.84375q0 0.234375 -0.09375 0.453125q-0.09375 0.203125 -0.265625 0.375q-0.28125 0.28125 -0.78125 0.4375q-0.5 0.15625 -1.171875 0.15625q-0.4375 0 -0.875 -0.078125q-0.4375 -0.09375 -0.796875 -0.3125q-0.359375 -0.21875 -0.609375 -0.578125q-0.234375 -0.359375 -0.265625 -0.875l-1.6875 0q0 0.625 0.28125 1.21875q0.296875 0.578125 0.84375 1.015625q0.53125 0.4375 1.3125 0.71875q0.78125 0.265625 1.796875 0.265625q0.875 0 1.609375 -0.203125q0.734375 -0.21875 1.265625 -0.609375q0.53125 -0.375 0.8125 -0.90625q0.296875 -0.546875 0.296875 -1.203125q0 -0.609375 -0.265625 -1.0625q-0.25 -0.46875 -0.734375 -0.828125q-0.5 -0.34375 -1.21875 -0.59375q-0.71875 -0.25 -1.625 -0.453125q-0.6875 -0.125 -1.140625 -0.265625q-0.453125 -0.15625 -0.71875 -0.34375q-0.28125 -0.171875 -0.390625 -0.40625q-0.109375 -0.234375 -0.109375 -0.515625q0 -0.28125 0.140625 -0.546875q0.140625 -0.265625 0.40625 -0.46875q0.265625 -0.203125 0.671875 -0.3125q0.40625 -0.125 0.953125 -0.125q0.515625 0 0.921875 0.15625q0.421875 0.140625 0.71875 0.375q0.28125 0.234375 0.4375 0.546875q0.171875 0.296875 0.171875 0.625l1.6875 0q0 -0.65625 -0.28125 -1.21875q-0.265625 -0.5625 -0.78125 -0.96875q-0.515625 -0.421875 -1.25 -0.65625q-0.71875 -0.234375 -1.625 -0.234375q-0.859375 0 -1.5625 0.234375q-0.703125 0.21875 -1.21875 0.609375q-0.5 0.390625 -0.78125 0.921875q-0.28125 0.515625 -0.28125 1.109375q0 0.609375 0.265625 1.078125q0.28125 0.453125 0.78125 0.796875q0.484375 0.34375 1.171875 0.59375q0.703125 0.234375 1.5625 0.421875q0.6875 0.125 1.140625 0.296875q0.46875 0.171875 0.75 0.375q0.28125 0.203125 0.40625 0.4375q0.125 0.234375 0.125 0.546875z" fill-rule="nonzero"/></g><g filter="url(#shadowFilter-g53ce3e8535_0_626.4)"><use xlink:href="#g53ce3e8535_0_626.4" transform="matrix(1.0 0.0 0.0 1.0 2.8284271320333003 2.8284271320333003)"/></g><defs><filter id="shadowFilter-g53ce3e8535_0_626.4" filterUnits="userSpaceOnUse"><feGaussianBlur in="SourceAlpha" stdDeviation="0.0" result="blur"/><feComponentTransfer in="blur" color-interpolation-filters="sRGB"><feFuncR type="linear" slope="0" intercept="0.0"/><feFuncG type="linear" slope="0" intercept="0.0"/><feFuncB type="linear" slope="0" intercept="0.0"/><feFuncA type="linear" slope="1.0" intercept="0"/></feComponentTransfer></filter></defs><g id="g53ce3e8535_0_626.4"><path fill="#ffffff" d="m543.77026 262.18958l0 0c0 -10.372925 8.4088745 -18.78183 18.7818 -18.78183l273.33398 0c4.981262 0 9.758484 1.9787903 13.280762 5.501068c3.5222778 3.5222778 5.5010986 8.2994995 5.5010986 13.280762l0 67.91666c0 10.372925 -8.408936 18.78183 -18.78186 18.78183l-273.33398 0c-10.372925 0 -18.7818 -8.408905 -18.7818 -18.78183z" fill-rule="evenodd"/><path stroke="#000000" stroke-width="1.0" stroke-linejoin="round" stroke-linecap="butt" d="m543.77026 262.18958l0 0c0 -10.372925 8.4088745 -18.78183 18.7818 -18.78183l273.33398 0c4.981262 0 9.758484 1.9787903 13.280762 5.501068c3.5222778 3.5222778 5.5010986 8.2994995 5.5010986 13.280762l0 67.91666c0 10.372925 -8.408936 18.78183 -18.78186 18.78183l-273.33398 0c-10.372925 0 -18.7818 -8.408905 -18.7818 -18.78183z" fill-rule="evenodd"/><path fill="#0066ff" d="m682.0003 283.3835l-0.046875 0.34375q-0.09375 0.921875 -0.0625 1.90625q0.046875 0.96875 0.25 1.890625q0.203125 0.9375 0.59375 1.765625q0.390625 0.828125 1.0 1.453125q0.609375 0.640625 1.453125 1.03125q0.84375 0.375 1.96875 0.40625q0.796875 0.015625 1.5 -0.171875q0.703125 -0.1875 1.3125 -0.53125q0.453125 -0.265625 0.859375 -0.609375q0.421875 -0.34375 0.796875 -0.765625l-0.21875 1.765625l3.796875 0l4.15625 -24.0l-4.25 0l-1.625 8.640625q-0.28125 -0.34375 -0.59375 -0.625q-0.3125 -0.28125 -0.671875 -0.5q-0.546875 -0.34375 -1.203125 -0.53125q-0.640625 -0.1875 -1.359375 -0.203125q-1.21875 -0.03125 -2.21875 0.3125q-1.0 0.34375 -1.8125 0.953125q-0.8125 0.625 -1.4375 1.484375q-0.609375 0.84375 -1.046875 1.828125q-0.453125 0.984375 -0.734375 2.046875q-0.28125 1.0625 -0.40625 2.109375zm4.203125 0.34375l0.03125 -0.328125q0.109375 -0.890625 0.375 -1.828125q0.265625 -0.9375 0.765625 -1.703125q0.5 -0.765625 1.25 -1.25q0.75 -0.484375 1.8125 -0.46875q0.484375 0.015625 0.875 0.140625q0.40625 0.109375 0.71875 0.34375q0.328125 0.21875 0.5625 0.5625q0.25 0.34375 0.421875 0.78125l-1.21875 6.875q-0.296875 0.390625 -0.640625 0.71875q-0.328125 0.328125 -0.703125 0.5625q-0.40625 0.265625 -0.890625 0.40625q-0.484375 0.125 -1.046875 0.109375q-0.609375 -0.015625 -1.03125 -0.234375q-0.421875 -0.234375 -0.6875 -0.59375q-0.234375 -0.296875 -0.375 -0.671875q-0.125 -0.375 -0.21875 -0.8125q-0.109375 -0.640625 -0.09375 -1.328125q0.03125 -0.703125 0.09375 -1.28125zm29.75 -0.234375l0.046875 -0.328125q0.09375 -0.953125 0.0625 -1.9375q-0.015625 -1.0 -0.203125 -1.9375q-0.1875 -0.9375 -0.578125 -1.765625q-0.375 -0.84375 -0.984375 -1.46875q-0.625 -0.625 -1.5 -1.0q-0.859375 -0.375 -2.015625 -0.40625q-0.796875 -0.015625 -1.5 0.171875q-0.703125 0.1875 -1.328125 0.546875q-0.359375 0.21875 -0.71875 0.515625q-0.34375 0.28125 -0.671875 0.625l1.65625 -8.640625l-4.25 0l-4.15625 24.0l3.84375 0l0.625 -1.8125q0.234375 0.34375 0.5 0.640625q0.28125 0.28125 0.59375 0.515625q0.625 0.46875 1.375 0.703125q0.765625 0.25 1.609375 0.265625q1.21875 0.03125 2.21875 -0.3125q1.015625 -0.328125 1.8125 -0.9375q0.796875 -0.609375 1.40625 -1.453125q0.609375 -0.84375 1.046875 -1.828125q0.4375 -0.96875 0.703125 -2.03125q0.28125 -1.078125 0.40625 -2.125zm-4.203125 -0.328125l-0.03125 0.328125q-0.0625 0.5625 -0.1875 1.15625q-0.125 0.59375 -0.3125 1.140625q-0.21875 0.671875 -0.59375 1.28125q-0.375 0.59375 -0.921875 0.984375q-0.390625 0.296875 -0.84375 0.46875q-0.4375 0.15625 -1.234375 0.15625q-0.40625 0 -0.90625 -0.125q-0.5 -0.125 -0.859375 -0.390625q-0.3125 -0.234375 -0.546875 -0.5625q-0.234375 -0.34375 -0.375 -0.78125l1.171875 -6.78125q0.28125 -0.421875 0.609375 -0.765625q0.34375 -0.34375 0.734375 -0.578125q0.421875 -0.265625 0.90625 -0.390625q0.5 -0.140625 1.078125 -0.125q0.65625 0.015625 1.09375 0.265625q0.4375 0.234375 0.71875 0.625q0.265625 0.390625 0.390625 0.90625q0.140625 0.5 0.1875 1.046875q0.03125 0.546875 0 1.109375q-0.03125 0.546875 -0.078125 1.03125z" fill-rule="nonzero"/><path fill="#000000" d="m646.6631 317.7554l2.625 0q0.890625 -0.015625 1.6875 -0.28125q0.796875 -0.265625 1.390625 -0.765625q0.609375 -0.5 0.953125 -1.234375q0.359375 -0.734375 0.359375 -1.6875q0 -0.953125 -0.359375 -1.6875q-0.34375 -0.75 -0.953125 -1.25q-0.59375 -0.5 -1.390625 -0.765625q-0.796875 -0.265625 -1.6875 -0.28125l-4.3125 0l0 13.265625l1.6875 0l0 -5.3125zm0 -1.390625l0 -5.171875l2.625 0q0.578125 0 1.0625 0.1875q0.5 0.1875 0.875 0.515625q0.34375 0.34375 0.546875 0.828125q0.21875 0.484375 0.21875 1.078125q0 0.609375 -0.21875 1.078125q-0.203125 0.46875 -0.5625 0.796875q-0.359375 0.328125 -0.859375 0.5q-0.484375 0.171875 -1.0625 0.1875l-2.625 0zm8.883057 1.6875l0 0.203125q0 1.0625 0.3125 1.96875q0.3125 0.90625 0.890625 1.59375q0.578125 0.671875 1.40625 1.0625q0.84375 0.375 1.890625 0.375q1.03125 0 1.859375 -0.375q0.828125 -0.390625 1.40625 -1.0625q0.578125 -0.6875 0.890625 -1.59375q0.3125 -0.90625 0.3125 -1.96875l0 -0.203125q0 -1.0625 -0.3125 -1.984375q-0.3125 -0.921875 -0.890625 -1.59375q-0.578125 -0.671875 -1.421875 -1.046875q-0.828125 -0.390625 -1.875 -0.390625q-1.03125 0 -1.859375 0.390625q-0.828125 0.375 -1.40625 1.046875q-0.578125 0.671875 -0.890625 1.59375q-0.3125 0.921875 -0.3125 1.984375zm1.6875 0.203125l0 -0.203125q0 -0.71875 0.171875 -1.375q0.171875 -0.671875 0.53125 -1.171875q0.34375 -0.5 0.859375 -0.796875q0.515625 -0.296875 1.21875 -0.296875q0.703125 0 1.21875 0.296875q0.53125 0.296875 0.890625 0.796875q0.34375 0.5 0.515625 1.171875q0.1875 0.65625 0.1875 1.375l0 0.203125q0 0.71875 -0.171875 1.390625q-0.171875 0.65625 -0.515625 1.15625q-0.359375 0.5 -0.890625 0.796875q-0.515625 0.28125 -1.203125 0.28125q-0.703125 0 -1.234375 -0.28125q-0.53125 -0.296875 -0.875 -0.796875q-0.359375 -0.5 -0.53125 -1.15625q-0.171875 -0.671875 -0.171875 -1.390625zm16.539307 2.203125q0 0.234375 -0.09375 0.453125q-0.09375 0.203125 -0.265625 0.375q-0.28125 0.28125 -0.78125 0.4375q-0.5 0.15625 -1.171875 0.15625q-0.4375 0 -0.875 -0.078125q-0.4375 -0.09375 -0.796875 -0.3125q-0.359375 -0.21875 -0.609375 -0.578125q-0.234375 -0.359375 -0.265625 -0.875l-1.6875 0q0 0.625 0.28125 1.21875q0.296875 0.578125 0.84375 1.015625q0.53125 0.4375 1.3125 0.71875q0.78125 0.265625 1.796875 0.265625q0.875 0 1.609375 -0.203125q0.734375 -0.21875 1.265625 -0.609375q0.53125 -0.375 0.8125 -0.90625q0.296875 -0.546875 0.296875 -1.203125q0 -0.609375 -0.265625 -1.0625q-0.25 -0.46875 -0.734375 -0.828125q-0.5 -0.34375 -1.21875 -0.59375q-0.71875 -0.25 -1.625 -0.453125q-0.6875 -0.125 -1.140625 -0.265625q-0.453125 -0.15625 -0.71875 -0.34375q-0.28125 -0.171875 -0.390625 -0.40625q-0.109375 -0.234375 -0.109375 -0.515625q0 -0.28125 0.140625 -0.546875q0.140625 -0.265625 0.40625 -0.46875q0.265625 -0.203125 0.671875 -0.3125q0.40625 -0.125 0.953125 -0.125q0.515625 0 0.921875 0.15625q0.421875 0.140625 0.71875 0.375q0.28125 0.234375 0.4375 0.546875q0.171875 0.296875 0.171875 0.625l1.6875 0q0 -0.65625 -0.28125 -1.21875q-0.265625 -0.5625 -0.78125 -0.96875q-0.515625 -0.421875 -1.25 -0.65625q-0.71875 -0.234375 -1.625 -0.234375q-0.859375 0 -1.5625 0.234375q-0.703125 0.21875 -1.21875 0.609375q-0.5 0.390625 -0.78125 0.921875q-0.28125 0.515625 -0.28125 1.109375q0 0.609375 0.265625 1.078125q0.28125 0.453125 0.78125 0.796875q0.484375 0.34375 1.171875 0.59375q0.703125 0.234375 1.5625 0.421875q0.6875 0.125 1.140625 0.296875q0.46875 0.171875 0.75 0.375q0.28125 0.203125 0.40625 0.4375q0.125 0.234375 0.125 0.546875zm8.633118 -9.640625l-1.703125 0l0 2.390625l-2.578125 0l0 1.3125l2.578125 0l0 5.34375q0 0.921875 0.234375 1.5625q0.25 0.640625 0.671875 1.046875q0.421875 0.40625 0.984375 0.59375q0.578125 0.1875 1.234375 0.1875q0.390625 0 0.78125 -0.046875q0.40625 -0.03125 0.75 -0.109375q0.359375 -0.0625 0.65625 -0.15625q0.296875 -0.09375 0.515625 -0.21875l-0.234375 -1.203125q-0.15625 0.046875 -0.40625 0.09375q-0.234375 0.046875 -0.515625 0.09375q-0.28125 0.046875 -0.578125 0.078125q-0.28125 0.03125 -0.546875 0.03125q-0.375 0 -0.71875 -0.09375q-0.328125 -0.09375 -0.578125 -0.3125q-0.265625 -0.21875 -0.40625 -0.59375q-0.140625 -0.375 -0.140625 -0.953125l0 -5.34375l3.75 0l0 -1.3125l-3.75 0l0 -2.390625zm6.8986816 7.234375l0 0.203125q0 1.046875 0.265625 1.96875q0.28125 0.90625 0.78125 1.59375q0.5 0.671875 1.234375 1.0625q0.734375 0.375 1.625 0.375q0.546875 0 1.0 -0.125q0.46875 -0.109375 0.859375 -0.3125q0.234375 -0.140625 0.453125 -0.3125q0.21875 -0.1875 0.40625 -0.40625l0 0.84375q0 0.640625 -0.1875 1.125q-0.171875 0.5 -0.515625 0.828125q-0.34375 0.328125 -0.828125 0.5q-0.484375 0.171875 -1.078125 0.171875q-0.34375 0 -0.6875 -0.0625q-0.328125 -0.0625 -0.671875 -0.21875q-0.328125 -0.15625 -0.65625 -0.421875q-0.328125 -0.25 -0.640625 -0.625l-0.875 1.0q0.34375 0.484375 0.8125 0.8125q0.46875 0.328125 0.96875 0.515625q0.5 0.203125 0.984375 0.28125q0.5 0.09375 0.890625 0.09375q0.921875 0 1.6875 -0.28125q0.765625 -0.265625 1.328125 -0.78125q0.546875 -0.53125 0.84375 -1.296875q0.3125 -0.75 0.3125 -1.71875l0 -9.65625l-1.53125 0l-0.078125 1.078125q-0.171875 -0.21875 -0.375 -0.390625q-0.1875 -0.1875 -0.40625 -0.328125q-0.40625 -0.265625 -0.90625 -0.390625q-0.5 -0.140625 -1.09375 -0.140625q-0.90625 0 -1.640625 0.375q-0.734375 0.359375 -1.234375 1.03125q-0.515625 0.65625 -0.78125 1.59375q-0.265625 0.921875 -0.265625 2.015625zm1.671875 0.203125l0 -0.203125q0 -0.71875 0.15625 -1.359375q0.15625 -0.65625 0.484375 -1.15625q0.3125 -0.5 0.8125 -0.78125q0.515625 -0.296875 1.21875 -0.296875q0.421875 0 0.765625 0.109375q0.34375 0.09375 0.625 0.28125q0.296875 0.1875 0.515625 0.453125q0.21875 0.25 0.375 0.5625l0 4.515625q-0.15625 0.3125 -0.375 0.578125q-0.21875 0.265625 -0.5 0.453125q-0.28125 0.203125 -0.640625 0.3125q-0.34375 0.09375 -0.78125 0.09375q-0.703125 0 -1.203125 -0.28125q-0.5 -0.296875 -0.8125 -0.78125q-0.328125 -0.5 -0.484375 -1.140625q-0.15625 -0.640625 -0.15625 -1.359375zm16.289307 -5.21875q-1.078125 0 -1.921875 0.46875q-0.84375 0.46875 -1.4375 1.265625l-0.015625 -0.234375l-0.078125 -1.328125l-1.59375 0l0 9.859375l1.6875 0l0 -6.328125q0.171875 -0.453125 0.421875 -0.8125q0.25 -0.375 0.578125 -0.625q0.375 -0.296875 0.875 -0.4375q0.5 -0.15625 1.125 -0.15625q0.484375 0 0.921875 0.046875q0.453125 0.046875 0.9375 0.15625l0.234375 -1.640625q-0.265625 -0.109375 -0.765625 -0.171875q-0.5 -0.0625 -0.96875 -0.0625zm9.086182 10.21875q1.4375 0 2.421875 -0.578125q0.984375 -0.578125 1.46875 -1.328125l-1.03125 -0.796875q-0.46875 0.59375 -1.171875 0.96875q-0.6875 0.359375 -1.59375 0.359375q-0.6875 0 -1.25 -0.25q-0.5625 -0.265625 -0.96875 -0.71875q-0.390625 -0.40625 -0.609375 -0.953125q-0.21875 -0.546875 -0.28125 -1.265625l0 -0.078125l7.03125 0l0 -0.75q0 -1.03125 -0.265625 -1.90625q-0.25 -0.890625 -0.78125 -1.546875q-0.53125 -0.640625 -1.328125 -1.0q-0.796875 -0.375 -1.859375 -0.375q-0.84375 0 -1.65625 0.34375q-0.796875 0.34375 -1.4375 0.984375q-0.625 0.65625 -1.015625 1.609375q-0.375 0.9375 -0.375 2.125l0 0.390625q0 1.03125 0.34375 1.90625q0.34375 0.875 0.96875 1.5q0.609375 0.640625 1.484375 1.0q0.875 0.359375 1.90625 0.359375zm-0.21875 -8.84375q0.65625 0 1.125 0.234375q0.46875 0.234375 0.765625 0.625q0.3125 0.375 0.484375 0.90625q0.171875 0.515625 0.171875 0.984375l0 0.078125l-5.296875 0q0.09375 -0.6875 0.34375 -1.203125q0.265625 -0.53125 0.625 -0.890625q0.359375 -0.359375 0.8125 -0.546875q0.453125 -0.1875 0.96875 -0.1875zm14.008118 5.296875q0 0.546875 -0.25 0.953125q-0.234375 0.390625 -0.609375 0.640625q-0.359375 0.265625 -0.84375 0.390625q-0.484375 0.125 -0.96875 0.125q-0.625 0 -1.15625 -0.15625q-0.515625 -0.171875 -0.90625 -0.515625q-0.40625 -0.328125 -0.671875 -0.796875q-0.25 -0.484375 -0.328125 -1.109375l-1.71875 0q0.03125 0.859375 0.375 1.5625q0.34375 0.6875 0.953125 1.203125q0.671875 0.609375 1.578125 0.9375q0.921875 0.3125 1.875 0.3125q0.796875 0 1.578125 -0.21875q0.796875 -0.234375 1.421875 -0.671875q0.625 -0.4375 1.015625 -1.109375q0.40625 -0.671875 0.40625 -1.5625q0 -0.875 -0.375 -1.546875q-0.359375 -0.6875 -0.953125 -1.140625q-0.625 -0.5 -1.359375 -0.828125q-0.734375 -0.328125 -1.46875 -0.546875q-0.453125 -0.140625 -0.953125 -0.3125q-0.5 -0.1875 -0.9375 -0.46875q-0.4375 -0.265625 -0.71875 -0.65625q-0.28125 -0.40625 -0.296875 -0.984375q0 -0.53125 0.21875 -0.921875q0.21875 -0.40625 0.578125 -0.671875q0.359375 -0.28125 0.8125 -0.40625q0.46875 -0.140625 0.953125 -0.140625q0.59375 0 1.0625 0.1875q0.484375 0.171875 0.828125 0.515625q0.359375 0.34375 0.5625 0.8125q0.203125 0.46875 0.28125 1.03125l1.734375 0q-0.015625 -0.90625 -0.390625 -1.640625q-0.375 -0.734375 -1.0 -1.265625q-0.609375 -0.515625 -1.421875 -0.796875q-0.796875 -0.296875 -1.65625 -0.296875q-0.796875 0 -1.578125 0.25q-0.765625 0.234375 -1.375 0.703125q-0.609375 0.46875 -0.984375 1.140625q-0.375 0.671875 -0.375 1.53125q0 0.859375 0.375 1.5q0.375 0.625 0.984375 1.09375q0.59375 0.453125 1.3125 0.78125q0.71875 0.3125 1.421875 0.546875q0.484375 0.15625 1.0 0.34375q0.53125 0.1875 0.96875 0.46875q0.4375 0.296875 0.71875 0.71875q0.28125 0.40625 0.28125 1.015625zm12.992432 -2.6875l0 -1.15625q0 -0.734375 -0.125 -1.484375q-0.125 -0.75 -0.359375 -1.4375q-0.25 -0.703125 -0.625 -1.296875q-0.375 -0.609375 -0.890625 -1.0625q-0.53125 -0.4375 -1.21875 -0.703125q-0.671875 -0.265625 -1.515625 -0.265625q-0.84375 0 -1.53125 0.265625q-0.671875 0.265625 -1.1875 0.703125q-0.53125 0.453125 -0.90625 1.0625q-0.375 0.609375 -0.625 1.296875q-0.234375 0.703125 -0.359375 1.453125q-0.125 0.734375 -0.125 1.46875l0 1.15625q0 0.734375 0.125 1.484375q0.125 0.734375 0.359375 1.421875q0.25 0.703125 0.625 1.3125q0.390625 0.59375 0.921875 1.046875q0.515625 0.4375 1.1875 0.703125q0.671875 0.265625 1.53125 0.265625q0.328125 0 0.625 -0.046875q0.3125 -0.046875 0.59375 -0.125l2.625 2.21875l1.15625 -1.09375l-2.296875 -1.90625q0.53125 -0.453125 0.90625 -1.046875q0.375 -0.609375 0.625 -1.296875q0.234375 -0.703125 0.359375 -1.4375q0.125 -0.75 0.125 -1.5zm-1.671875 -1.171875l0 1.171875q-0.015625 0.515625 -0.0625 1.0625q-0.046875 0.53125 -0.171875 1.0625q-0.140625 0.53125 -0.359375 1.0q-0.21875 0.46875 -0.5625 0.828125q-0.328125 0.359375 -0.796875 0.578125q-0.46875 0.21875 -1.09375 0.21875q-0.625 0 -1.09375 -0.21875q-0.46875 -0.21875 -0.8125 -0.578125q-0.328125 -0.359375 -0.5625 -0.828125q-0.21875 -0.484375 -0.359375 -1.015625q-0.125 -0.53125 -0.1875 -1.0625q-0.0625 -0.546875 -0.0625 -1.046875l0 -1.171875q0 -0.5 0.0625 -1.03125q0.0625 -0.546875 0.1875 -1.078125q0.140625 -0.515625 0.359375 -0.984375q0.234375 -0.484375 0.5625 -0.84375q0.34375 -0.359375 0.796875 -0.5625q0.46875 -0.21875 1.09375 -0.21875q0.625 0 1.09375 0.203125q0.46875 0.203125 0.8125 0.5625q0.328125 0.375 0.546875 0.84375q0.234375 0.46875 0.375 0.984375q0.125 0.53125 0.171875 1.078125q0.046875 0.546875 0.0625 1.046875zm6.0236816 5.78125l0 -11.828125l-1.6875 0l0 13.265625l8.171875 0l0 -1.4375l-6.484375 0z" fill-rule="nonzero"/></g><g filter="url(#shadowFilter-g53ce3e8535_0_626.5)"><use xlink:href="#g53ce3e8535_0_626.5" transform="matrix(1.0 0.0 0.0 1.0 2.8284271320333003 2.8284271320333003)"/></g><defs><filter id="shadowFilter-g53ce3e8535_0_626.5" filterUnits="userSpaceOnUse"><feGaussianBlur in="SourceAlpha" stdDeviation="0.0" result="blur"/><feComponentTransfer in="blur" color-interpolation-filters="sRGB"><feFuncR type="linear" slope="0" intercept="0.0"/><feFuncG type="linear" slope="0" intercept="0.0"/><feFuncB type="linear" slope="0" intercept="0.0"/><feFuncA type="linear" slope="1.0" intercept="0"/></feComponentTransfer></filter></defs><g id="g53ce3e8535_0_626.5"><path fill="#ffffff" d="m273.18985 477.4392l0 0c0 -10.372925 8.408905 -18.78183 18.78183 -18.78183l273.33398 0c4.981262 0 9.758484 1.9787903 13.280762 5.501068c3.5222778 3.5222778 5.5010376 8.29953 5.5010376 13.280762l0 67.91669c0 10.372925 -8.4088745 18.7818 -18.7818 18.7818l-273.33398 0c-10.372925 0 -18.78183 -8.4088745 -18.78183 -18.7818z" fill-rule="evenodd"/><path stroke="#000000" stroke-width="1.0" stroke-linejoin="round" stroke-linecap="butt" d="m273.18985 477.4392l0 0c0 -10.372925 8.408905 -18.78183 18.78183 -18.78183l273.33398 0c4.981262 0 9.758484 1.9787903 13.280762 5.501068c3.5222778 3.5222778 5.5010376 8.29953 5.5010376 13.280762l0 67.91669c0 10.372925 -8.4088745 18.7818 -18.7818 18.7818l-273.33398 0c-10.372925 0 -18.78183 -8.4088745 -18.78183 -18.7818z" fill-rule="evenodd"/><path fill="#0066ff" d="m374.04492 507.11755l3.734375 0l3.234375 -8.828125l0.6875 -1.859375l0.046875 1.875l0.234375 8.8125l3.71875 0l5.875 -16.90625l-3.96875 0l-2.921875 9.859375l-0.5 1.703125l0 -1.921875l-0.046875 -9.640625l-2.84375 0l-3.46875 9.90625l-0.578125 1.625l0.09375 -1.6875l0.515625 -9.84375l-3.8125 0l0 16.90625zm18.453125 -8.5l-0.03125 0.328125q-0.125 1.15625 -0.015625 2.25q0.125 1.09375 0.484375 2.046875q0.296875 0.765625 0.71875 1.390625q0.421875 0.625 1.03125 1.234375q0.6875 0.671875 1.8125 1.109375q1.140625 0.4375 2.515625 0.46875q1.890625 0.046875 3.4375 -0.625q1.5625 -0.6875 2.703125 -1.875q1.140625 -1.1875 1.84375 -2.765625q0.71875 -1.59375 0.9375 -3.375l0.046875 -0.34375q0.125 -1.171875 0 -2.28125q-0.109375 -1.125 -0.46875 -2.109375q-0.296875 -0.78125 -0.765625 -1.453125q-0.46875 -0.6875 -1.09375 -1.25q-0.78125 -0.671875 -1.84375 -1.0625q-1.046875 -0.390625 -2.375 -0.40625q-1.90625 -0.046875 -3.46875 0.640625q-1.546875 0.6875 -2.6875 1.890625q-1.140625 1.203125 -1.859375 2.8125q-0.703125 1.59375 -0.921875 3.375zm4.203125 0.328125l0.03125 -0.328125q0.109375 -0.90625 0.40625 -1.84375q0.3125 -0.9375 0.84375 -1.703125q0.515625 -0.765625 1.28125 -1.234375q0.78125 -0.46875 1.859375 -0.4375q0.875 0.046875 1.421875 0.4375q0.546875 0.390625 0.828125 1.03125q0.375 0.859375 0.390625 1.8125q0.03125 0.953125 -0.046875 1.796875l-0.03125 0.328125q-0.125 0.890625 -0.421875 1.828125q-0.28125 0.921875 -0.796875 1.671875q-0.53125 0.765625 -1.3125 1.25q-0.765625 0.46875 -1.828125 0.4375q-1.015625 -0.03125 -1.59375 -0.53125q-0.5625 -0.515625 -0.8125 -1.265625q-0.265625 -0.734375 -0.28125 -1.59375q-0.015625 -0.875 0.0625 -1.65625zm28.1875 -9.078125q-0.921875 0 -1.75 0.234375q-0.8125 0.21875 -1.546875 0.625q-0.734375 0.421875 -1.375 1.0q-0.640625 0.578125 -1.203125 1.265625l0.109375 -0.6875l0.328125 -2.09375l-3.9375 0l-2.9375 16.90625l4.234375 0l1.765625 -10.171875q0.40625 -0.640625 0.875 -1.125q0.484375 -0.5 1.046875 -0.828125q0.671875 -0.40625 1.453125 -0.609375q0.78125 -0.203125 1.6875 -0.1875q0.84375 0.015625 1.65625 0.140625q0.8125 0.109375 1.625 0.3125l1.15625 -4.328125q-0.796875 -0.203125 -1.59375 -0.3125q-0.78125 -0.125 -1.59375 -0.140625zm11.78125 10.296875l3.421875 6.953125l4.9375 0l-5.25 -9.6875l7.59375 -7.21875l-5.375 0l-5.359375 5.0625l-1.40625 1.359375l2.359375 -13.515625l-4.234375 0l-4.171875 24.0l4.234375 0l0.875 -5.0l2.375 -1.953125zm19.4375 7.265625q2.015625 0.015625 3.921875 -0.734375q1.921875 -0.75 3.046875 -2.3125l-1.921875 -2.359375q-0.90625 0.9375 -2.09375 1.453125q-1.171875 0.5 -2.5 0.453125q-0.84375 -0.015625 -1.5 -0.3125q-0.65625 -0.3125 -1.09375 -0.828125q-0.453125 -0.515625 -0.6875 -1.203125q-0.234375 -0.703125 -0.203125 -1.515625l11.046875 0l0.28125 -1.84375q0.203125 -1.640625 -0.09375 -3.125q-0.28125 -1.484375 -1.0625 -2.640625q-0.796875 -1.140625 -2.078125 -1.828125q-1.28125 -0.6875 -3.046875 -0.734375q-1.265625 -0.03125 -2.40625 0.296875q-1.140625 0.3125 -2.109375 0.890625q-0.765625 0.46875 -1.4375 1.109375q-0.671875 0.625 -1.234375 1.34375q-0.796875 1.09375 -1.3125 2.40625q-0.5 1.3125 -0.65625 2.71875l-0.0625 0.640625q-0.15625 1.71875 0.296875 3.1875q0.453125 1.46875 1.421875 2.546875q0.953125 1.09375 2.34375 1.734375q1.40625 0.640625 3.140625 0.65625zm1.703125 -14.03125q0.703125 0.03125 1.234375 0.296875q0.546875 0.25 0.90625 0.6875q0.34375 0.4375 0.484375 1.03125q0.140625 0.59375 0.03125 1.28125l-0.078125 0.390625l-6.890625 0q0.296875 -0.6875 0.6875 -1.359375q0.390625 -0.671875 0.921875 -1.203125q0.515625 -0.53125 1.1875 -0.84375q0.671875 -0.3125 1.515625 -0.28125zm23.421875 -3.53125q-0.921875 0 -1.75 0.234375q-0.8125 0.21875 -1.546875 0.625q-0.734375 0.421875 -1.375 1.0q-0.640625 0.578125 -1.203125 1.265625l0.109375 -0.6875l0.328125 -2.09375l-3.9375 0l-2.9375 16.90625l4.234375 0l1.765625 -10.171875q0.40625 -0.640625 0.875 -1.125q0.484375 -0.5 1.046875 -0.828125q0.671875 -0.40625 1.453125 -0.609375q0.78125 -0.203125 1.6875 -0.1875q0.84375 0.015625 1.65625 0.140625q0.8125 0.109375 1.625 0.3125l1.15625 -4.328125q-0.796875 -0.203125 -1.59375 -0.3125q-0.78125 -0.125 -1.59375 -0.140625z" fill-rule="nonzero"/><path fill="#000000" d="m410.76315 537.2238q0 0.53125 0.328125 0.90625q0.34375 0.359375 1.0 0.359375q0.640625 0 0.984375 -0.359375q0.34375 -0.375 0.34375 -0.90625q0 -0.546875 -0.34375 -0.921875q-0.328125 -0.375 -0.984375 -0.375q-0.671875 0 -1.0 0.390625q-0.328125 0.375 -0.328125 0.90625zm16.570557 1.09375l0 -13.265625l-1.703125 0l-0.03125 9.890625l-5.140625 -9.890625l-1.71875 0l0 13.265625l1.703125 0l0.03125 -9.90625l5.15625 9.90625l1.703125 0zm10.179962 -6.125l0 -1.4375l-5.53125 0l0 -4.265625l6.375 0l0 -1.4375l-8.0625 0l0 13.265625l8.140625 0l0 -1.4375l-6.453125 0l0 -4.6875l5.53125 0zm12.851807 -5.703125l0 -1.4375l-9.84375 0l0 1.4375l4.109375 0l0 11.828125l1.640625 0l0 -11.828125l4.09375 0z" fill-rule="nonzero"/></g><path fill="#000000" fill-opacity="0.0" d="m158.05826 125.14227l0 118.267715" fill-rule="evenodd"/><path stroke="#000000" stroke-width="3.0" stroke-linejoin="round" stroke-linecap="butt" stroke-dasharray="12.0,9.0" d="m158.05826 125.14227l0 100.267715" fill-rule="evenodd"/><path fill="#000000" stroke="#000000" stroke-width="3.0" stroke-linecap="butt" d="m153.10306 225.40999l4.9552 13.614288l4.9552 -13.614288z" fill-rule="evenodd"/><path fill="#000000" fill-opacity="0.0" d="m158.05826 348.88806l0 162.51968l115.1181 0" fill-rule="evenodd"/><path stroke="#000000" stroke-width="3.0" stroke-linejoin="round" stroke-linecap="butt" stroke-dasharray="12.0,9.0" d="m158.05826 348.88803l0 162.51968l97.1181 0" fill-rule="evenodd"/><path fill="#000000" stroke="#000000" stroke-width="3.0" stroke-linecap="butt" d="m255.17636 516.3629l13.614288 -4.9552l-13.614288 -4.9552z" fill-rule="evenodd"/><path fill="#000000" fill-opacity="0.0" d="m584.08746 511.39755l115.1181 0l0 -162.51968" fill-rule="evenodd"/><path stroke="#000000" stroke-width="3.0" stroke-linejoin="round" stroke-linecap="butt" stroke-dasharray="12.0,9.0" d="m584.08746 511.39755l115.118164 0l0 -144.51968" fill-rule="evenodd"/><path fill="#000000" stroke="#000000" stroke-width="3.0" stroke-linecap="butt" d="m704.1608 366.87787l-4.9552 -13.614288l-4.9552 13.614288z" fill-rule="evenodd"/><path fill="#000000" fill-opacity="0.0" d="m699.21906 243.40775l0 -118.267715" fill-rule="evenodd"/><path stroke="#000000" stroke-width="3.0" stroke-linejoin="round" stroke-linecap="butt" stroke-dasharray="12.0,9.0" d="m699.21906 243.40775l0 -100.267715" fill-rule="evenodd"/><path fill="#000000" stroke="#000000" stroke-width="3.0" stroke-linecap="butt" d="m704.17426 143.14003l-4.9552 -13.614288l-4.9552 13.614288z" fill-rule="evenodd"/></g></svg>