<svg width="424" height="106" viewBox="0 0 424 106" fill="none" xmlns="http://www.w3.org/2000/svg">
<rect x="1" y="1" width="422" height="104" rx="14" fill="#0A0A0B" stroke="#545455" stroke-width="2"/>
<path d="M42 33.8905V40.9106H51.9933V72.9076H60.6519V40.9106H70.4351V33.8905H42Z" fill="#00AFF4"/>
<path d="M264.838 33.8905V40.9106H274.834V72.9076H283.489V40.9106H293.272V33.8905H264.838Z" fill="#00AFF4"/>
<path d="M73.6165 72.9076H82.3834V55.9821H93.2691V72.9076H101.928V33.8192H93.1089V48.9619H82.3288V33.8192H73.6165V72.9076Z" fill="#00AFF4"/>
<path d="M207.797 33.8192H199.085V72.9076L207.824 54.128L207.797 33.8192Z" fill="#00AFF4"/>
<path d="M207.824 54.128L207.852 72.9076L217.279 52.5942V33.8192L207.824 54.128Z" fill="#FF3287"/>
<path d="M199.085 72.9076H207.852L207.824 54.128L199.085 72.9076Z" fill="#C87296"/>
<path d="M225.991 33.8192L217.279 52.5942V72.9076L226.018 54.128L225.991 33.8192Z" fill="#00AFF4"/>
<path d="M217.279 33.8192V52.5942L225.991 33.8192H217.279Z" fill="#C87296"/>
<path d="M235.473 33.8192L226.018 54.128L226.045 72.9076L244.184 33.8192H235.473Z" fill="#FF3287"/>
<path d="M217.279 72.9076H226.045L226.018 54.128L217.279 72.9076Z" fill="#C87296"/>
<path d="M170.176 72.8354H194.744V65.8162H178.834V55.9821H190.966V48.9619H178.728V40.9106H194.744V33.8905H170.176V72.8354Z" fill="#FF3287"/>
<path d="M107.224 72.8354H131.792V65.8162H115.884V55.9821H128.015V48.9619H115.777V40.9106H131.792V33.8905H107.224V72.8354Z" fill="#00AFF4"/>
<path d="M137.144 72.9076H144.757V54.6815C144.757 53.6652 144.562 48.687 144.52 47.5642H144.757C146.94 52.322 147.003 52.4924 147.92 54.041L157.796 72.9085H164.652V33.8192H157.039V48.4214C157.039 49.9172 157.039 50.2366 157.181 52.92L157.369 56.8735H157.139C156.985 56.6069 156.408 55.1647 156.237 54.8435C155.837 54.0419 155.256 52.9719 154.793 52.1702L145.106 33.8201H137.145L137.144 72.9076Z" fill="#FF3287"/>
<path d="M298.611 33.8997L287.545 72.9067H295.939L297.969 64.8896H309.996L311.973 72.9067H320.364L309.033 33.8997H298.611ZM308.286 58.7609H299.469L303.744 40.9023H303.957L308.286 58.7609Z" fill="#00AFF4"/>
<path d="M320.265 58.7451C320.265 66.7631 322.295 68.9079 323.864 70.3963C326.26 72.703 329.342 73.7287 333.788 73.7287C335.463 73.7287 339.47 73.3713 342.251 71.2183C345.512 68.7051 346.047 65.9606 346.368 64.411C346.635 62.7541 346.69 62.432 346.742 59.6004H338.082C338.082 63.8223 337.041 66.7085 333.584 66.7085C328.927 66.7085 328.927 62.5949 328.927 60.4567V45.5342C328.927 44.4559 328.981 42.5296 330.34 41.2513C331.224 40.4478 332.567 40.0201 333.638 40.0201C337.923 40.0201 338.029 44.2957 338.082 46.2276H346.742C346.635 43.0655 346.208 38.2901 342.653 35.5659C339.907 33.4712 336.37 33 334.008 33C324.958 33 320.264 37.9782 320.264 46.9236V58.7451H320.265Z" fill="#00AFF4"/>
<path d="M349.607 72.9076H358.374V33.8192H349.607V72.9076ZM370.559 33.8192L358.698 52.6784L371.685 72.9085H382L368.05 52.0379L380.024 33.8201L370.559 33.8192Z" fill="#00AFF4"/>
<path d="M255.91 33.8905C247.723 33.8905 243.584 38.416 243.584 44.8381C243.584 52.5174 248.109 54.2187 254.023 56.4986C260.516 58.7701 262.29 59.4023 262.29 62.3163C262.29 65.8606 258.576 66.7076 256.508 66.7076C252.785 66.7076 250.033 64.6952 248.768 61.4166L242.781 65.8088C245.988 72.0801 249.569 73.7277 256.919 73.7277C259.1 73.7277 262.655 73.1399 264.857 71.7598C270.2 68.4089 270.2 63.2151 270.2 61.4693C270.2 57.8186 268.553 55.2786 268.088 54.6445C266.601 52.5229 263.937 50.9391 261.586 50.0931L256.088 48.2927C253.434 47.4374 250.601 47.2245 250.601 44.4734C250.601 44.0625 250.709 41.1855 255.037 40.9088H261.87V33.8905C261.869 33.8905 256.428 33.8905 255.91 33.8905Z" fill="#00AFF4"/>
</svg>
