<?xml version="1.0" standalone="no"?>
<!DOCTYPE svg PUBLIC "-//W3C//DTD SVG 20010904//EN"
 "http://www.w3.org/TR/2001/REC-SVG-20010904/DTD/svg10.dtd">
<svg version="1.0" xmlns="http://www.w3.org/2000/svg"
 width="360.000000pt" height="360.000000pt" viewBox="0 0 360.000000 360.000000"
 preserveAspectRatio="xMidYMid meet">
<metadata>
Created by potrace 1.11, written by Peter Selinger 2001-2013
</metadata>
<g transform="translate(0.000000,360.000000) scale(0.100000,-0.100000)"
fill="#000000" stroke="none">
<path d="M2115 3433 c-82 -46 -168 -93 -190 -104 -71 -35 -79 -44 -66 -76 6
-15 20 -39 30 -51 l17 -24 82 45 c45 25 90 48 99 51 16 5 66 -138 380 -1081
l363 -1086 -131 -226 c-73 -124 -144 -246 -159 -271 -15 -25 -62 -106 -105
-180 -43 -74 -83 -140 -89 -147 -8 -9 -27 18 -77 109 l-66 121 55 86 c136 216
234 485 203 558 -6 16 -45 64 -86 108 l-75 80 0 221 0 220 -30 29 -30 29 -438
1 -437 1 -32 -30 -33 -30 0 -230 -1 -231 -50 -50 c-75 -75 -102 -120 -101
-162 4 -102 97 -336 201 -503 l53 -84 -40 -76 c-88 -164 -97 -180 -102 -179
-3 0 -111 183 -241 407 l-237 407 23 60 c50 129 578 1443 598 1487 l22 47 105
-79 c58 -44 108 -79 112 -80 3 0 22 21 41 47 l35 47 -205 154 c-202 150 -207
153 -247 148 -22 -3 -46 -12 -53 -19 -10 -10 -590 -752 -666 -851 -12 -16 -67
-86 -121 -155 -54 -69 -103 -132 -109 -139 -5 -7 -12 -28 -14 -48 -3 -30 14
-64 121 -247 68 -117 134 -230 146 -252 12 -22 26 -45 31 -51 7 -8 -24 -11
-114 -11 -122 0 -124 0 -155 -28 l-32 -28 0 -474 0 -473 31 -30 32 -30 1437 0
1438 0 30 31 31 32 0 469 0 469 -32 32 -32 32 -117 -1 c-65 0 -118 2 -118 5 0
4 67 121 148 261 96 166 149 266 150 288 2 24 -13 62 -56 140 -33 59 -83 152
-112 207 -29 55 -60 114 -70 130 -10 17 -46 84 -80 150 -35 66 -103 193 -152
283 -48 89 -88 164 -88 166 0 2 -29 57 -65 121 -36 65 -65 120 -65 121 0 2
-40 77 -88 166 -49 90 -106 196 -127 236 -38 72 -53 86 -108 96 -14 2 -75 -27
-172 -81z m171 -70 c6 -10 39 -72 74 -138 35 -66 71 -134 81 -152 44 -78 149
-281 149 -287 0 -4 -44 -5 -97 -4 l-96 3 -94 280 c-51 154 -89 281 -84 283 4
1 17 9 27 17 25 19 27 18 40 -2z m-983 -595 c16 -12 7 -38 -103 -313 -67 -165
-127 -313 -135 -330 -7 -16 -17 -42 -20 -58 -17 -66 -22 -23 -21 177 l1 214
124 161 c68 89 127 161 131 161 3 0 14 -6 23 -12z m1332 -391 c0 -153 -2 -280
-6 -282 -3 -2 -6 1 -6 8 0 10 -157 483 -178 539 -5 12 10 14 92 14 l97 -1 1
-278z m315 -253 c102 -191 187 -350 188 -355 2 -6 -78 -8 -189 -7 l-192 3 -1
353 c-1 193 1 352 4 352 3 0 88 -156 190 -346z m-2053 -361 c-2 -2 -96 -2
-209 -1 l-205 3 206 264 206 263 3 -262 c1 -145 1 -265 -1 -267z m899 -46 c13
-12 -5 -35 -33 -41 -15 -4 -73 -37 -128 -74 -101 -67 -113 -76 -170 -124 -18
-16 -35 -28 -39 -28 -9 0 -5 264 4 270 11 7 359 4 366 -3z m-934 -84 c6 -3 -3
-31 -36 -108 -7 -16 -37 -90 -66 -162 -29 -73 -55 -133 -59 -133 -6 1 -224
375 -229 395 -2 9 48 12 190 12 106 0 196 -1 200 -4z m2268 -4 c0 -4 -44 -82
-97 -173 -54 -92 -103 -176 -110 -188 -9 -17 -13 -19 -17 -8 -17 53 -118 357
-122 366 -3 7 52 10 171 11 96 0 175 -3 175 -8z m-1324 -639 c-1 -313 -4 -570
-7 -570 -11 0 -72 389 -84 540 -7 86 -16 191 -20 235 -2 22 -7 96 -10 165 l-5
125 57 37 c32 20 60 37 64 37 3 1 5 -255 5 -569z m-220 372 c3 -66 15 -246 19
-282 2 -19 7 -64 10 -100 11 -119 16 -163 39 -318 9 -57 18 -109 22 -115 3 -7
-1 -4 -10 7 -32 40 -134 352 -160 491 -10 57 -22 141 -31 216 l-6 56 48 39
c26 21 50 42 52 47 6 16 15 -5 17 -41z m-200 -193 c9 -82 51 -276 80 -370 28
-92 28 -92 72 -196 17 -40 27 -73 24 -73 -12 1 -125 189 -184 307 -31 62 -68
149 -83 193 -26 79 -27 82 -9 103 51 58 88 97 90 94 2 -2 6 -28 10 -58z m146
-811 c70 -85 92 -110 111 -127 9 -8 17 -19 17 -23 0 -4 -65 -7 -145 -7 -80 0
-145 2 -145 5 0 3 23 46 50 96 28 50 50 94 50 99 0 21 21 6 62 -43z m628 -19
c17 -34 40 -76 51 -95 10 -19 19 -36 19 -38 0 -2 -64 -4 -141 -4 l-142 -1 20
22 c10 12 50 57 87 100 38 42 70 77 71 77 2 0 17 -27 35 -61z"/>
</g>
</svg>
