
<svg width="128px" height="98px" viewBox="0 0 128 98" version="1.1" xmlns="http://www.w3.org/2000/svg" xmlns:xlink="http://www.w3.org/1999/xlink">
    <defs>
        <polygon id="path-1" points="0.35277 1.58632841 2.61195 1.58632841 2.61195 3.25421655 0.35277 3.25421655"></polygon>
        <polygon id="path-3" points="0.35277 0.0476599036 2.61195 0.0476599036 2.61195 1.71554804 0.35277 1.71554804"></polygon>
        <polygon id="path-5" points="0.35277 0.176629354 2.61195 0.176629354 2.61195 1.84451749 0.35277 1.84451749"></polygon>
    </defs>
    <g id="Page-1" stroke="none" stroke-width="1" fill="none" fill-rule="evenodd">
        <g id="Design" transform="translate(-657.000000, -2757.000000)">
            <path d="M720.220763,2855 C747.90156,2855 785,2832.65295 785,2805.08647 C785,2777.51999 745.301263,2764 717.620466,2764 C689.939669,2764 657,2781.93352 657,2809.5 C657,2837.06648 692.539966,2855 720.220763,2855 Z" id="Oval-Copy-3" fill="#F2F7FF"></path>
            <g id="Group-349" transform="translate(672.000000, 2757.000000)">
                <path d="M14.464065,37.5763522 C14.904615,37.833207 14.904615,38.2501791 14.464065,38.5087017 C14.021865,38.7655565 13.307415,38.7655565 12.865215,38.5087017 C12.426315,38.2501791 12.426315,37.833207 12.865215,37.5763522 C13.307415,37.3194975 14.021865,37.3194975 14.464065,37.5763522" id="Fill-1" fill="#16110D"></path>
                <path d="M10.28742,35.1378998 C10.72962,35.3947546 10.72962,35.8133945 10.28742,36.0719171 C9.84522,36.3287719 9.13077,36.3287719 8.68857,36.0719171 C8.24967,35.8133945 8.24967,35.3947546 8.68857,35.1378998 C9.13077,34.881045 9.84522,34.881045 10.28742,35.1378998" id="Fill-3" fill="#16110D"></path>
                <path d="M6.11094,32.701282 C6.55314,32.9581368 6.55314,33.3751088 6.11094,33.6336315 C5.66874,33.8904862 4.95429,33.8904862 4.51374,33.6336315 C4.07319,33.3751088 4.07319,32.9581368 4.51374,32.701282 C4.95429,32.4444272 5.66874,32.4444272 6.11094,32.701282" id="Fill-5" fill="#16110D"></path>
                <path d="M1.934295,30.2629963 C2.376495,30.5198511 2.376495,30.938491 1.934295,31.1970137 C1.492095,31.4538685 0.779295,31.4538685 0.337095,31.1970137 C-0.103455,30.938491 -0.103455,30.5198511 0.337095,30.2629963 C0.779295,30.0061416 1.492095,30.0061416 1.934295,30.2629963" id="Fill-7" fill="#16110D"></path>
                <path d="M37.95891,33.6541465 C37.51671,33.3972917 37.51671,32.9803197 37.95891,32.721797 C38.40111,32.4632744 39.11391,32.4632744 39.55611,32.721797 C39.99666,32.9803197 38.40111,33.9110013 37.95891,33.6541465" id="Fill-9" fill="#16110D"></path>
                <path d="M42.13539,31.2158608 C41.69319,30.9590061 41.69319,30.542034 42.13539,30.2835114 C42.57594,30.0266566 43.29039,30.0266566 43.73259,30.2835114 C44.17314,30.542034 42.57594,31.4727156 42.13539,31.2158608" id="Fill-11" fill="#16110D"></path>
                <path d="M46.312035,28.7790763 C45.869835,28.5222215 45.869835,28.1052495 46.312035,27.8467268 C46.752585,27.589872 47.467035,27.589872 47.909235,27.8467268 C48.349785,28.1052495 46.752585,29.035931 46.312035,28.7790763" id="Fill-13" fill="#16110D"></path>
                <path d="M27.02601,35.159082 C27.46821,35.4159367 27.46821,35.8329088 27.02601,36.0914314 C26.58546,36.3482862 25.87101,36.3482862 25.42881,36.0914314 C24.98826,35.8329088 24.98826,35.4159367 25.42881,35.159082 C25.87101,34.9022272 26.58546,34.9022272 27.02601,35.159082" id="Fill-15" fill="#16110D"></path>
                <path d="M31.20249,32.7224642 C31.64469,32.979319 31.64469,33.396291 31.20249,33.6548137 C30.76194,33.9116684 30.04749,33.9116684 29.60529,33.6548137 C29.16474,33.396291 29.16474,32.979319 29.60529,32.7224642 C30.04749,32.4656094 30.76194,32.4656094 31.20249,32.7224642" id="Fill-17" fill="#16110D"></path>
                <path d="M35.379135,30.2841785 C35.821335,30.5410333 35.821335,30.9580053 35.379135,31.216528 C34.936935,31.4733828 34.224135,31.4733828 33.781935,31.216528 C33.341385,30.9580053 33.341385,30.5410333 33.781935,30.2841785 C34.224135,30.0273237 34.936935,30.0273237 35.379135,30.2841785" id="Fill-19" fill="#16110D"></path>
                <path d="M39.555615,27.8475607 C39.997815,28.1044155 39.997815,28.5213875 39.555615,28.7799102 C39.113415,29.036765 38.400615,29.036765 37.958415,28.7799102 C37.517865,28.5213875 37.517865,28.1044155 37.958415,27.8475607 C38.400615,27.590706 39.113415,27.590706 39.555615,27.8475607" id="Fill-21" fill="#16110D"></path>
                <path d="M43.73226,25.4091083 C44.17446,25.665963 44.17446,26.084603 43.73226,26.3431256 C43.29006,26.5999804 42.57561,26.5999804 42.13506,26.3431256 C41.69451,26.084603 41.69451,25.665963 42.13506,25.4091083 C42.57561,25.1522535 43.29006,25.1522535 43.73226,25.4091083" id="Fill-23" fill="#16110D"></path>
                <path d="M47.90874,22.9724905 C48.35094,23.2293453 48.35094,23.6463173 47.90874,23.90484 C47.46654,24.1616947 46.75209,24.1616947 46.31154,23.90484 C45.87099,23.6463173 45.87099,23.2293453 46.31154,22.9724905 C46.75209,22.7156357 47.46654,22.7156357 47.90874,22.9724905" id="Fill-25" fill="#16110D"></path>
                <path d="M17.07123,35.1624177 C17.51178,34.905563 18.22623,34.9038951 18.66843,35.1607499 C19.11063,35.4176046 19.11063,35.8345767 18.67173,36.0930993 C18.23118,36.351622 17.51673,36.351622 17.07453,36.0947672 C16.63233,35.8362446 16.63068,35.4192725 17.07123,35.1624177" id="Fill-27" fill="#16110D"></path>
                <path d="M22.851015,32.7224642 C23.291565,32.979319 23.291565,33.396291 22.851015,33.6548137 C22.408815,33.9116684 21.694365,33.9116684 21.252165,33.6548137 C20.811615,33.396291 20.811615,32.979319 21.252165,32.7224642 C21.694365,32.4656094 22.408815,32.4656094 22.851015,32.7224642" id="Fill-29" fill="#16110D"></path>
                <path d="M27.02601,30.2841785 C27.46821,30.5410333 27.46821,30.9580053 27.02601,31.216528 C26.58546,31.4733828 25.87101,31.4733828 25.42881,31.216528 C24.98826,30.9580053 24.98826,30.5410333 25.42881,30.2841785 C25.87101,30.0273237 26.58546,30.0273237 27.02601,30.2841785" id="Fill-31" fill="#16110D"></path>
                <path d="M31.20249,27.8475607 C31.64469,28.1044155 31.64469,28.5213875 31.20249,28.7799102 C30.76194,29.036765 30.04749,29.036765 29.60529,28.7799102 C29.16474,28.5213875 29.16474,28.1044155 29.60529,27.8475607 C30.04749,27.590706 30.76194,27.590706 31.20249,27.8475607" id="Fill-33" fill="#16110D"></path>
                <path d="M35.379135,25.4091083 C35.821335,25.665963 35.821335,26.084603 35.379135,26.3431256 C34.936935,26.5999804 34.224135,26.5999804 33.781935,26.3431256 C33.341385,26.084603 33.341385,25.665963 33.781935,25.4091083 C34.224135,25.1522535 34.938585,25.1522535 35.379135,25.4091083" id="Fill-35" fill="#16110D"></path>
                <path d="M39.555615,22.9724905 C39.997815,23.2293453 39.997815,23.6463173 39.555615,23.90484 C39.113415,24.1616947 38.400615,24.1616947 37.958415,23.90484 C37.517865,23.6463173 37.517865,23.2293453 37.958415,22.9724905 C38.400615,22.7156357 39.113415,22.7156357 39.555615,22.9724905" id="Fill-37" fill="#16110D"></path>
                <path d="M43.73226,20.5342048 C44.17446,20.7910596 44.17446,21.2096995 43.73226,21.4682222 C43.29006,21.725077 42.57726,21.725077 42.13506,21.4682222 C41.69451,21.2096995 41.69451,20.7910596 42.13506,20.5342048 C42.57726,20.27735 43.29006,20.27735 43.73226,20.5342048" id="Fill-39" fill="#16110D"></path>
                <path d="M12.894585,32.7241321 C13.335135,32.4672773 14.049585,32.4672773 14.491785,32.7224642 C14.933985,32.979319 14.933985,33.396291 14.495085,33.6564815 C14.054535,33.9133363 13.340085,33.9150042 12.897885,33.6581494 C12.455685,33.3996268 12.454035,32.9826547 12.894585,32.7241321" id="Fill-41" fill="#16110D"></path>
                <path d="M18.674535,30.2841785 C19.115085,30.5410333 19.115085,30.9580053 18.674535,31.216528 C18.232335,31.4733828 17.517885,31.4733828 17.075685,31.216528 C16.636785,30.9580053 16.636785,30.5410333 17.075685,30.2841785 C17.517885,30.0273237 18.232335,30.0273237 18.674535,30.2841785" id="Fill-43" fill="#16110D"></path>
                <path d="M22.851015,27.8475607 C23.291565,28.1044155 23.291565,28.5213875 22.851015,28.7799102 C22.408815,29.036765 21.694365,29.036765 21.252165,28.7799102 C20.813265,28.5213875 20.813265,28.1044155 21.252165,27.8475607 C21.694365,27.590706 22.408815,27.590706 22.851015,27.8475607" id="Fill-45" fill="#16110D"></path>
                <path d="M27.02766,25.4091083 C27.46821,25.665963 27.46821,26.084603 27.02766,26.3431256 C26.58546,26.5999804 25.87101,26.5999804 25.42881,26.3431256 C24.98826,26.084603 24.98826,25.665963 25.42881,25.4091083 C25.87101,25.1522535 26.58546,25.1522535 27.02766,25.4091083" id="Fill-47" fill="#16110D"></path>
                <path d="M29.605785,22.9724905 C30.047985,22.7156357 30.762435,22.7156357 31.202985,22.9724905 C31.643535,23.2293453 31.643535,23.6463173 31.202985,23.90484 C30.762435,24.1616947 30.047985,24.1616947 29.605785,23.90484 C29.163585,23.6463173 29.163585,23.2293453 29.605785,22.9724905 C30.047985,22.7156357 29.163585,23.2293453 29.605785,22.9724905" id="Fill-49" fill="#16110D"></path>
                <path d="M35.379135,20.5342048 C35.821335,20.7910596 35.821335,21.2096995 35.379135,21.4682222 C34.938585,21.725077 34.224135,21.725077 33.781935,21.4682222 C33.341385,21.2096995 34.938585,20.27735 35.379135,20.5342048" id="Fill-51" fill="#16110D"></path>
                <path d="M39.555615,18.097587 C39.997815,18.3544418 39.997815,18.7714138 39.555615,19.0299365 C39.113415,19.2867913 38.400615,19.2867913 37.958415,19.0299365 C37.517865,18.7714138 39.113415,17.8407323 39.555615,18.097587" id="Fill-53" fill="#16110D"></path>
                <path d="M8.718105,30.2873475 C9.158655,30.0304927 9.873105,30.0288248 10.316955,30.2856796 C10.757505,30.5425344 10.759155,30.9595064 10.318605,31.2180291 C9.878055,31.4765517 9.163605,31.4765517 8.721405,31.219697 C8.279205,30.9628422 8.277555,30.5442023 8.718105,30.2873475" id="Fill-55" fill="#16110D"></path>
                <path d="M14.49789,27.8475607 C14.93844,28.1044155 14.93844,28.5213875 14.49789,28.7799102 C14.05569,29.036765 13.34124,29.036765 12.89904,28.7799102 C12.46014,28.5213875 12.46014,28.1044155 12.89904,27.8475607 C13.34124,27.590706 14.05569,27.590706 14.49789,27.8475607" id="Fill-57" fill="#16110D"></path>
                <path d="M18.674535,25.4091083 C19.115085,25.665963 19.115085,26.084603 18.674535,26.3431256 C18.232335,26.5999804 17.517885,26.5999804 17.075685,26.3431256 C16.636785,26.084603 16.636785,25.665963 17.075685,25.4091083 C17.517885,25.1522535 18.232335,25.1522535 18.674535,25.4091083 C19.115085,25.665963 18.232335,25.1522535 18.674535,25.4091083" id="Fill-59" fill="#16110D"></path>
                <path d="M4.54146,27.8507297 C4.98366,27.5922071 5.69646,27.5922071 6.14031,27.8490618 C6.58086,28.1042487 6.58251,28.5228886 6.14196,28.7814113 C5.70141,29.0382661 4.98696,29.039934 4.54476,28.7830792 C4.10256,28.5245565 4.10091,28.1075845 4.54146,27.8507297" id="Fill-61" fill="#16110D"></path>
                <path d="M10.32141,25.4091083 C10.76361,25.665963 10.76361,26.084603 10.32141,26.3431256 C9.87921,26.5999804 9.16476,26.5999804 8.72256,26.3431256 C8.28366,26.084603 8.28366,25.665963 8.72256,25.4091083 C9.16476,25.1522535 9.87921,25.1522535 10.32141,25.4091083" id="Fill-63" fill="#16110D"></path>
                <path d="M14.49789,23.9041728 C14.05569,24.1610276 13.34124,24.1610276 12.89904,23.9041728 C12.46014,23.647318 12.46014,23.230346 12.89904,22.9718233 C13.34124,22.7149686 14.93844,23.647318 14.49789,23.9041728" id="Fill-65" fill="#16110D"></path>
                <path d="M0.329505,25.386425 C0.770055,25.1295702 1.484505,25.1295702 1.926705,25.3847571 C2.367255,25.6416119 2.368905,26.0585839 1.930005,26.3187745 C1.489455,26.5756292 0.775005,26.5772971 0.332805,26.3204424 C-0.109395,26.0619197 -0.111045,25.6449477 0.329505,25.386425" id="Fill-67" fill="#16110D"></path>
                <path d="M6.10764,22.9464714 C6.54984,23.2033262 6.54984,23.6202982 6.10764,23.8788209 C5.66709,24.1356757 4.95264,24.1356757 4.51044,23.8788209 C4.06989,23.6202982 4.06989,23.2033262 4.51044,22.9464714 C4.95264,22.6896167 5.66709,22.6896167 6.10764,22.9464714" id="Fill-69" fill="#16110D"></path>
                <path d="M10.284285,21.4413692 C9.843735,21.698224 9.129285,21.698224 8.687085,21.4413692 C8.246535,21.1845144 8.246535,20.7675424 8.687085,20.5090197 C9.129285,20.2521649 10.726485,21.1845144 10.284285,21.4413692" id="Fill-71" fill="#16110D"></path>
                <path d="M18.74862,19.6318773 L14.04282,14.8316953 C14.53617,14.3346646 15.16317,13.8726596 15.92217,13.4623591 C19.96137,11.272422 26.24952,11.3758311 29.93562,13.6891919 C31.07907,14.403048 31.83807,15.2486673 32.22417,16.1393196 L18.74862,19.6318773 Z M40.94937,11.4475502 L38.63937,12.301509 C37.96122,11.5993281 37.14777,10.9271691 36.16767,10.3133863 C35.93832,10.16828 35.69082,10.0415205 35.44992,9.9064216 C35.62317,9.33100019 35.75682,8.73389624 35.69907,8.39531495 C35.56872,7.60140019 30.26727,4.16221485 28.63047,3.30158457 C26.99532,2.4392864 19.07532,2.10904455 19.07532,2.10904455 L10.36992,8.39531495 L11.68497,9.18422604 C11.18667,9.40438727 10.70157,9.64122739 10.23462,9.89474638 C9.37167,10.3600872 8.61267,10.8671252 7.93617,11.3975136 L4.26822,11.4241998 L4.26822,18.055723 C4.26822,18.055723 4.27812,18.0673983 4.28142,18.0690662 C4.36887,20.5675626 5.93307,23.0443765 9.05157,24.9991414 C15.87597,29.2789423 27.51012,29.4657458 34.98627,25.4177813 C38.85387,23.3229138 40.84707,20.4975113 40.93782,17.6637693 L40.95267,17.6554299 L40.94937,11.4475502 Z" id="Fill-73" fill="#0066FF"></path>
                <path d="M15.168285,14.8725585 L18.984735,18.7670773 L31.026435,15.6464586 C30.655185,15.1777821 30.150285,14.7374596 29.529885,14.3488417 C26.050035,12.1655761 20.108385,12.077178 16.285335,14.1470272 C15.871185,14.3705242 15.498285,14.6140359 15.168285,14.8725585 Z M18.511185,20.4966773 L12.955635,14.8291934 L13.500135,14.2804582 C14.056185,13.7200478 14.747535,13.2146777 15.556035,12.7760231 C19.811385,10.4693338 26.446035,10.5844181 30.341685,13.0262064 C31.590735,13.8084459 32.461935,14.7524706 32.928885,15.8265905 L33.291885,16.6672062 L18.511185,20.4966773 Z M5.037285,17.9764984 L5.052135,18.041546 C5.134635,20.3715857 6.698835,22.6082237 9.457635,24.3378237 C16.072485,28.4875294 27.360135,28.6643256 34.620135,24.7314453 C38.109885,22.8417281 40.081635,20.323217 40.167435,17.639585 L40.182285,17.2442955 L40.180635,12.5608656 L38.436585,13.2063383 L38.086785,12.8460744 C37.416885,12.1505651 36.636435,11.5217713 35.761935,10.974704 C35.616735,10.8829701 35.464935,10.8012436 35.311485,10.7178492 L34.531035,10.2808625 L34.712535,9.68042276 C34.978185,8.79310627 34.941885,8.53291572 34.940235,8.52290839 C34.559085,7.94748698 30.069435,4.935281 28.275885,3.9929242 C27.226485,3.44085323 22.332585,3.03555641 19.308135,2.89878959 L11.777535,8.33443703 L13.368135,9.29013693 L11.992035,9.8989161 C11.513535,10.10907 11.046585,10.3359028 10.597785,10.5810824 C9.820635,11.0030581 9.083085,11.4850777 8.408235,12.0137983 L8.201985,12.1755834 L5.037285,12.197266 L5.037285,17.9764984 Z M22.291335,29.1029801 C17.270385,29.1029801 12.292335,27.9488015 8.645835,25.660459 C5.552085,23.7207051 3.748635,21.157161 3.530835,18.4101493 L3.512685,18.3901346 L3.497835,18.0548891 L3.497835,10.6528015 L7.673985,10.6211117 C8.357085,10.1040663 9.096285,9.62705034 9.870135,9.20841041 C9.931185,9.17505265 9.992235,9.14169489 10.051635,9.11000501 L8.962635,8.45452498 L18.842835,1.32096741 L19.108485,1.33264262 C19.936785,1.36600039 27.247935,1.69624224 28.987035,2.61024494 C29.059635,2.64860636 36.210735,6.75661485 36.459885,8.2677215 C36.496185,8.47787541 36.515985,8.82312825 36.352635,9.51863761 C36.426885,9.5620027 36.502785,9.60703568 36.575385,9.65206866 C37.403685,10.1724498 38.161035,10.7578785 38.830935,11.4016833 L41.721735,10.332567 L41.682135,18.0999221 C41.408235,21.202194 39.175785,24.0309323 35.347785,26.1041173 C31.646835,28.1105867 26.950935,29.1029801 22.291335,29.1029801 Z" id="Fill-75" fill="#16110D"></path>
                <path d="M15.922335,7.25297836 C11.881485,9.4412476 11.594385,13.10393 15.282135,15.4172908 C18.969885,17.7289838 25.256385,17.8307249 29.297235,15.6407878 C33.338085,13.4541865 33.625185,9.79150411 29.935785,7.47981115 C26.249685,5.1664503 19.961535,5.06470912 15.922335,7.25297836 M34.984785,19.2084005 C27.508635,23.2580329 15.876135,23.0695616 9.051735,18.7897606 C2.227335,14.5116275 2.756985,7.73499803 10.234785,3.68536563 C17.710935,-0.362598881 29.345085,-0.17579541 36.167835,4.10400555 C42.990585,8.38547441 42.460935,15.160436 34.984785,19.2084005" id="Fill-77" fill="#0066FF"></path>
                <path d="M29.40267,17.7196436 C25.36347,19.9079128 19.07532,19.8061716 15.38757,17.4928108 C11.69982,15.1811178 11.98527,11.5184355 16.02777,9.33016625 C20.06697,7.14189701 26.35347,7.24363819 30.04287,9.55533115 C33.73062,11.868692 33.44352,15.5313743 29.40267,17.7196436 M36.27327,6.18119344 C29.44887,1.90139248 17.81637,1.71292112 10.33857,5.76255352 C7.67877,7.20360887 5.91492,8.99492073 5.03052,10.8896417 L5.03052,16.535443 C5.77302,18.1065936 7.13262,19.5976856 9.15552,20.8686164 C15.97992,25.1467495 27.61407,25.3352208 35.09022,21.2872563 C42.56637,17.2376239 43.09767,10.4609944 36.27327,6.18119344" id="Fill-79" fill="#FFFFFF"></path>
                <path d="M22.79145,6.44188436 C20.47155,6.44188436 18.1335,6.93891502 16.2855,7.93964791 C14.5332,8.88867626 13.50525,10.174618 13.46565,11.472235 C13.42605,12.664775 14.2164,13.8322967 15.6882,14.752971 C19.1664,16.9345686 25.10805,17.0279704 28.9344,14.9547854 C30.68505,14.007425 31.713,12.7198153 31.75425,11.4221983 C31.79055,10.2296583 31.00185,9.06213662 29.53005,8.14146237 C27.73155,7.0123021 25.27305,6.44188436 22.79145,6.44188436 M22.44,17.9853382 C19.6581,17.9853382 16.8993,17.3448691 14.87475,16.0756062 C12.91785,14.8480406 11.8701,13.1951634 11.9262,11.4205305 C11.98395,9.52747742 13.27425,7.80288108 15.5562,6.56697597 C19.81155,4.26195456 26.4462,4.37537095 30.34185,6.81882708 C32.30205,8.04472486 33.34815,9.69926989 33.2937,11.4739029 C33.23265,13.3669559 31.944,15.0932201 29.6604,16.3291252 C27.6144,17.436603 25.0173,17.9853382 22.44,17.9853382 M22.9383,1.53495745 C18.5394,1.53495745 14.1009,2.47397848 10.59795,4.37203518 C7.14615,6.24340567 5.11665,8.83030017 5.03415,11.472235 C4.9566,13.9256984 6.52905,16.2907638 9.4578,18.1287765 C16.07265,22.2768143 27.3603,22.4552784 34.6203,18.5223981 C38.0754,16.6526955 40.1016,14.0641332 40.18575,11.4238662 C40.2633,8.96873489 38.69085,6.60366951 35.7621,4.76565678 C32.3367,2.61741686 27.6606,1.53495745 22.9383,1.53495745 M22.29315,22.893933 C17.2722,22.893933 12.2925,21.7414223 8.646,19.4514118 C5.22885,17.3098435 3.399,14.4577548 3.4947,11.4205305 C3.597,8.16147703 5.86245,5.1709536 9.8703,2.99936324 C17.5626,-1.16702133 29.53995,-0.966874754 36.57555,3.44302149 C39.99105,5.58458986 41.81925,8.43667857 41.72685,11.4739029 C41.6229,14.7329563 39.35745,17.7251476 35.34795,19.8950701 C31.647,21.9015395 26.9511,22.893933 22.29315,22.893933" id="Fill-81" fill="#16110D"></path>
                <polygon id="Fill-83" fill="#16110D" points="24.01443 6.06077192 24.01443 11.9300703 16.05648 13.06757 14.38668 14.365187 12.71193 11.8833694 14.70678 7.71198118 21.50973 6.06077192"></polygon>
                <polygon id="Fill-85" fill="#16110D" points="19.136865 21.783453 19.136865 28.3365855 32.224665 27.0806658 40.187565 21.3598095 41.137965 14.1261786 39.667815 15.2119738 34.983465 19.2082338 27.286215 22.127038"></polygon>
                <path d="M14.25303,80.6905935 C14.69358,80.9474483 14.69358,81.3644203 14.25303,81.622943 C13.81083,81.8797977 13.09638,81.8797977 12.65418,81.622943 C12.21363,81.3644203 12.21363,80.9474483 12.65418,80.6905935 C13.09638,80.4337387 13.81083,80.4337387 14.25303,80.6905935" id="Fill-87" fill="#16110D"></path>
                <path d="M18.42786,78.2523078 C18.87006,78.5091626 18.87006,78.9278025 18.42786,79.1863252 C17.98731,79.4431799 17.27286,79.4431799 16.83066,79.1863252 C16.39011,78.9278025 16.39011,78.5091626 16.83066,78.2523078 C17.27286,77.995453 17.98731,77.995453 18.42786,78.2523078" id="Fill-89" fill="#16110D"></path>
                <path d="M22.604505,75.8155232 C23.046705,76.072378 23.046705,76.48935 22.604505,76.7478727 C22.163955,77.0047275 21.449505,77.0047275 21.007305,76.7478727 C20.566755,76.48935 20.566755,76.072378 21.007305,75.8155232 C21.449505,75.5586685 22.163955,75.5586685 22.604505,75.8155232" id="Fill-91" fill="#16110D"></path>
                <path d="M26.780985,73.3772376 C27.223185,73.6340923 27.223185,74.0527323 26.780985,74.3112549 C26.340435,74.5681097 25.625985,74.5681097 25.183785,74.3112549 C24.743235,74.0527323 24.743235,73.6340923 25.183785,73.3772376 C25.625985,73.1203828 26.340435,73.1203828 26.780985,73.3772376" id="Fill-93" fill="#16110D"></path>
                <path d="M30.95763,70.9406198 C31.39983,71.1974746 31.39983,71.6144466 30.95763,71.8729693 C30.51708,72.129824 29.80263,72.129824 29.36043,71.8729693 C28.91988,71.6144466 28.91988,71.1974746 29.36043,70.9406198 C29.80263,70.683765 30.51708,70.683765 30.95763,70.9406198" id="Fill-95" fill="#16110D"></path>
                <path d="M35.13411,68.5023341 C35.57631,68.7591889 35.57631,69.1778288 35.13411,69.4363515 C34.69191,69.6932062 33.97911,69.6932062 33.53691,69.4363515 C33.09636,69.1778288 33.09636,68.7591889 33.53691,68.5023341 C33.97911,68.2454793 34.69191,68.2454793 35.13411,68.5023341" id="Fill-97" fill="#16110D"></path>
                <path d="M39.310755,66.0655495 C39.752955,66.3224043 39.752955,66.7393764 39.310755,66.997899 C38.868555,67.2547538 38.154105,67.2547538 37.713555,66.997899 C37.273005,66.7393764 37.273005,66.3224043 37.713555,66.0655495 C38.154105,65.8086948 38.868555,65.8086948 39.310755,66.0655495" id="Fill-99" fill="#16110D"></path>
                <path d="M14.25303,75.8155232 C14.69358,76.072378 14.69358,76.48935 14.25303,76.7478727 C13.81083,77.0047275 13.09638,77.0047275 12.65418,76.7478727 C12.21528,76.48935 12.21528,76.072378 12.65418,75.8155232 C13.09638,75.5586685 13.81083,75.5586685 14.25303,75.8155232" id="Fill-101" fill="#16110D"></path>
                <path d="M18.42951,73.3772376 C18.87006,73.6340923 18.87006,74.0527323 18.42786,74.3112549 C17.98731,74.5681097 17.27286,74.5681097 16.83066,74.3112549 C16.39011,74.0527323 16.39011,73.6340923 16.83066,73.3772376 C17.27286,73.1203828 17.98731,73.1203828 18.42951,73.3772376" id="Fill-103" fill="#16110D"></path>
                <path d="M22.604505,70.9406198 C23.046705,71.1974746 23.046705,71.6144466 22.604505,71.8729693 C22.163955,72.129824 21.449505,72.129824 21.007305,71.8729693 C20.566755,71.6144466 20.566755,71.1974746 21.007305,70.9406198 C21.449505,70.683765 22.163955,70.683765 22.604505,70.9406198" id="Fill-105" fill="#16110D"></path>
                <path d="M26.780985,68.5023341 C27.223185,68.7591889 27.223185,69.1778288 26.780985,69.4363515 C26.340435,69.6932062 25.625985,69.6932062 25.183785,69.4363515 C24.743235,69.1778288 24.743235,68.7591889 25.183785,68.5023341 C25.625985,68.2454793 26.340435,68.2454793 26.780985,68.5023341" id="Fill-107" fill="#16110D"></path>
                <path d="M30.95763,66.0655495 C31.39983,66.3224043 31.39983,66.7393764 30.95763,66.997899 C30.51708,67.2547538 29.80263,67.2547538 29.36043,66.997899 C28.91988,66.7393764 28.91988,66.3224043 29.36043,66.0655495 C29.80263,65.8086948 30.51708,65.8086948 30.95763,66.0655495" id="Fill-109" fill="#16110D"></path>
                <path d="M10.076385,73.3772376 C10.516935,73.6340923 10.516935,74.0527323 10.076385,74.3112549 C9.634185,74.5681097 8.919735,74.5681097 8.477535,74.3112549 C8.038635,74.0527323 8.038635,73.6340923 8.477535,73.3772376 C8.919735,73.1203828 9.634185,73.1203828 10.076385,73.3772376" id="Fill-111" fill="#16110D"></path>
                <path d="M14.25303,70.9406198 C14.69358,71.1974746 14.69358,71.6144466 14.25303,71.8729693 C13.81083,72.129824 13.09638,72.129824 12.65418,71.8729693 C12.21528,71.6144466 12.21528,71.1974746 12.65418,70.9406198 C13.09638,70.683765 13.81083,70.683765 14.25303,70.9406198" id="Fill-113" fill="#16110D"></path>
                <path d="M18.42951,68.5023341 C18.87006,68.7591889 18.87006,69.1778288 18.42951,69.4363515 C17.98731,69.6932062 17.27286,69.6932062 16.83066,69.4363515 C16.39011,69.1778288 16.39011,68.7608568 16.83066,68.5023341 C17.27286,68.2454793 17.98731,68.2454793 18.42951,68.5023341" id="Fill-115" fill="#16110D"></path>
                <path d="M22.604505,66.0655495 C23.046705,66.3224043 23.046705,66.7393764 22.604505,66.997899 C22.163955,67.2547538 21.449505,67.2547538 21.007305,66.997899 C20.566755,66.7393764 20.566755,66.3224043 21.007305,66.0655495 C21.449505,65.8086948 22.163955,65.8086948 22.604505,66.0655495" id="Fill-117" fill="#16110D"></path>
                <path d="M10.076385,68.5023341 C10.516935,68.7608568 10.516935,69.1778288 10.076385,69.4363515 C9.634185,69.6932062 8.919735,69.6932062 8.477535,69.4363515 C8.038635,69.1778288 8.038635,68.7608568 8.477535,68.5023341 C8.919735,68.2454793 9.634185,68.2454793 10.076385,68.5023341" id="Fill-119" fill="#16110D"></path>
                <path d="M14.25303,66.0655495 C14.69358,66.3224043 14.69358,66.7393764 14.25303,66.997899 C13.81083,67.2547538 13.09638,67.2547538 12.65418,66.997899 C12.21528,66.7393764 12.21528,66.3224043 12.65418,66.0655495 C13.09638,65.8086948 13.81083,65.8086948 14.25303,66.0655495" id="Fill-121" fill="#16110D"></path>
                <path d="M18.42951,63.6289318 C18.87006,63.8857865 18.87006,64.3027586 18.42951,64.5612812 C17.98731,64.818136 17.27286,64.818136 16.83066,64.5612812 C16.39176,64.3027586 16.39176,63.8857865 16.83066,63.6289318 C17.27286,63.372077 17.98731,63.372077 18.42951,63.6289318" id="Fill-123" fill="#16110D"></path>
                <path d="M72.92142,90.0756332 C73.36362,90.332488 73.36362,90.7494601 72.92142,91.0079827 C72.47922,91.2648375 71.76642,91.2648375 71.32422,91.0079827 C70.88367,90.7494601 70.88367,90.332488 71.32422,90.0756332 C71.76642,89.8187785 72.47922,89.8187785 72.92142,90.0756332" id="Fill-132" fill="#16110D"></path>
                <path d="M77.098065,87.6373476 C77.540265,87.8942024 77.540265,88.3128423 77.098065,88.5713649 C76.655865,88.8282197 75.943065,88.8282197 75.500865,88.5713649 C75.060315,88.3128423 75.060315,87.8942024 75.500865,87.6373476 C75.943065,87.3804928 76.655865,87.3804928 77.098065,87.6373476" id="Fill-134" fill="#16110D"></path>
                <path d="M81.274545,85.2007298 C81.716745,85.4575846 81.716745,85.8745566 81.274545,86.1330793 C80.832345,86.389934 80.117895,86.389934 79.677345,86.1330793 C79.236795,85.8745566 79.236795,85.4575846 79.677345,85.2007298 C80.117895,84.943875 80.832345,84.943875 81.274545,85.2007298" id="Fill-136" fill="#16110D"></path>
                <path d="M85.45119,82.7624441 C85.89339,83.0192989 85.89339,83.4379388 85.45119,83.6964615 C85.00899,83.9533163 84.29454,83.9533163 83.85399,83.6964615 C83.41344,83.4379388 83.41344,83.0192989 83.85399,82.7624441 C84.29454,82.5055894 85.00899,82.5055894 85.45119,82.7624441" id="Fill-138" fill="#16110D"></path>
                <path d="M89.62767,80.3256596 C90.06987,80.5825143 90.06987,80.9994864 89.62767,81.258009 C89.18547,81.5148638 88.47102,81.5148638 88.03047,81.258009 C87.58992,80.9994864 87.58992,80.5825143 88.03047,80.3256596 C88.47102,80.0688048 89.18547,80.0688048 89.62767,80.3256596" id="Fill-140" fill="#16110D"></path>
                <path d="M93.804315,77.8873739 C94.246515,78.1442287 94.246515,78.5628686 93.804315,78.8213912 C93.362115,79.078246 92.647665,79.078246 92.207115,78.8213912 C91.766565,78.5628686 91.766565,78.1442287 92.207115,77.8873739 C92.647665,77.6305191 93.362115,77.6305191 93.804315,77.8873739" id="Fill-142" fill="#16110D"></path>
                <g id="Group-146" transform="translate(95.700000, 73.496658)">
                    <mask id="mask-2" fill="white">
                        <use xlink:href="#path-1"></use>
                    </mask>
                    <g id="Clip-145"></g>
                    <path d="M2.280795,1.95409774 C2.722995,2.21095252 2.722995,2.62792455 2.280795,2.88644721 C1.838595,3.14330199 1.124145,3.14330199 0.681945,2.88644721 C0.243045,2.62792455 0.243045,2.21095252 0.681945,1.95409774 C1.124145,1.69724297 1.838595,1.69724297 2.280795,1.95409774" id="Fill-144" fill="#16110D" mask="url(#mask-2)"></path>
                </g>
                <path d="M60.3933,92.5124178 C60.83385,92.7692726 60.83385,93.1862446 60.39165,93.4447673 C59.9511,93.7016221 59.23665,93.7016221 58.79445,93.4447673 C58.3539,93.1862446 58.3539,92.7692726 58.79445,92.5124178 C59.23665,92.255563 59.9511,92.255563 60.3933,92.5124178" id="Fill-152" fill="#16110D"></path>
                <path d="M64.568295,90.0756332 C65.010495,90.332488 65.010495,90.7494601 64.568295,91.0079827 C64.127745,91.2648375 63.413295,91.2648375 62.971095,91.0079827 C62.530545,90.7494601 62.530545,90.332488 62.971095,90.0756332 C63.413295,89.8187785 64.127745,89.8187785 64.568295,90.0756332" id="Fill-154" fill="#16110D"></path>
                <path d="M68.74494,87.6373476 C69.18714,87.8942024 69.18714,88.3128423 68.74494,88.5713649 C68.30439,88.8282197 67.58994,88.8282197 67.14774,88.5713649 C66.70719,88.3128423 66.70719,87.8942024 67.14774,87.6373476 C67.58994,87.3804928 68.30439,87.3804928 68.74494,87.6373476" id="Fill-156" fill="#16110D"></path>
                <path d="M72.92142,85.2007298 C73.36362,85.4575846 73.36362,85.8745566 72.92142,86.1330793 C72.47922,86.389934 71.76642,86.389934 71.32422,86.1330793 C70.88367,85.8745566 70.88367,85.4575846 71.32422,85.2007298 C71.76642,84.943875 72.47922,84.943875 72.92142,85.2007298" id="Fill-158" fill="#16110D"></path>
                <path d="M77.098065,82.7624441 C77.540265,83.0192989 77.540265,83.4379388 77.098065,83.6964615 C76.655865,83.9533163 75.943065,83.9533163 75.500865,83.6964615 C75.060315,83.4379388 75.060315,83.0192989 75.500865,82.7624441 C75.943065,82.5055894 76.655865,82.5055894 77.098065,82.7624441" id="Fill-160" fill="#16110D"></path>
                <path d="M81.274545,80.3256596 C81.716745,80.5825143 81.716745,80.9994864 81.274545,81.258009 C80.832345,81.5148638 80.117895,81.5148638 79.677345,81.258009 C79.236795,80.9994864 79.236795,80.5825143 79.677345,80.3256596 C80.117895,80.0688048 80.832345,80.0688048 81.274545,80.3256596" id="Fill-162" fill="#16110D"></path>
                <path d="M85.45119,77.8873739 C85.89339,78.1458965 85.89339,78.5628686 85.45119,78.8213912 C85.00899,79.078246 84.29454,79.078246 83.85399,78.8213912 C83.41344,78.5628686 83.41344,78.1458965 83.85399,77.8873739 C84.29454,77.6305191 85.00899,77.6305191 85.45119,77.8873739" id="Fill-164" fill="#16110D"></path>
                <path d="M89.62767,75.4507561 C90.06987,75.7076109 90.06987,76.1245829 89.62767,76.3831056 C89.18547,76.6399603 88.47102,76.6399603 88.03047,76.3831056 C87.58992,76.1245829 87.58992,75.7076109 88.03047,75.4507561 C88.47102,75.1939013 89.18547,75.1939013 89.62767,75.4507561" id="Fill-166" fill="#16110D"></path>
                <path d="M93.804315,73.0139715 C94.246515,73.2708263 94.246515,73.6877983 93.804315,73.946321 C93.362115,74.2031758 92.647665,74.2031758 92.207115,73.946321 C91.766565,73.6877983 91.766565,73.2708263 92.207115,73.0139715 C92.647665,72.7554489 93.362115,72.7554489 93.804315,73.0139715" id="Fill-168" fill="#16110D"></path>
                <g id="Group-172" transform="translate(95.700000, 70.160882)">
                    <mask id="mask-4" fill="white">
                        <use xlink:href="#path-3"></use>
                    </mask>
                    <g id="Clip-171"></g>
                    <path d="M2.280795,0.41480378 C2.722995,0.671658554 2.722995,1.08863059 2.280795,1.34715325 C1.838595,1.60567591 1.124145,1.60567591 0.681945,1.34715325 C0.243045,1.08863059 0.243045,0.671658554 0.681945,0.41480378 C1.124145,0.157949007 1.838595,0.157949007 2.280795,0.41480378" id="Fill-170" fill="#16110D" mask="url(#mask-4)"></path>
                </g>
                <path d="M52.040175,92.5124178 C52.480725,92.7692726 52.480725,93.1862446 52.040175,93.4447673 C51.597975,93.7016221 50.883525,93.7016221 50.441325,93.4447673 C50.002425,93.1862446 50.002425,92.7692726 50.441325,92.5124178 C50.883525,92.255563 51.597975,92.255563 52.040175,92.5124178" id="Fill-178" fill="#16110D"></path>
                <path d="M56.21682,90.0756332 C56.65737,90.332488 56.65737,90.7494601 56.21682,91.0079827 C55.77462,91.2648375 55.06017,91.2648375 54.61797,91.0079827 C54.17907,90.7494601 54.17907,90.332488 54.61797,90.0756332 C55.06017,89.8187785 55.77462,89.8187785 56.21682,90.0756332" id="Fill-180" fill="#16110D"></path>
                <path d="M60.3933,87.6373476 C60.83385,87.8942024 60.83385,88.3128423 60.3933,88.5713649 C59.9511,88.8282197 59.23665,88.8282197 58.79445,88.5713649 C58.3539,88.3128423 58.3539,87.8942024 58.79445,87.6373476 C59.23665,87.3804928 59.9511,87.3804928 60.3933,87.6373476" id="Fill-182" fill="#16110D"></path>
                <path d="M64.568295,85.2007298 C65.010495,85.4575846 65.010495,85.8745566 64.568295,86.1330793 C64.127745,86.389934 63.413295,86.389934 62.971095,86.1330793 C62.530545,85.8745566 62.530545,85.4575846 62.971095,85.2007298 C63.413295,84.943875 64.127745,84.943875 64.568295,85.2007298" id="Fill-184" fill="#16110D"></path>
                <path d="M68.74494,82.7624441 C69.18714,83.0192989 69.18714,83.4379388 68.74494,83.6964615 C68.30439,83.9533163 67.58994,83.9533163 67.14774,83.6964615 C66.70719,83.4379388 66.70719,83.0192989 67.14774,82.7624441 C67.58994,82.5055894 68.30439,82.5055894 68.74494,82.7624441" id="Fill-186" fill="#16110D"></path>
                <path d="M72.92142,80.3256596 C73.36362,80.5825143 73.36362,80.9994864 72.92142,81.258009 C72.47922,81.5148638 71.76642,81.5148638 71.32422,81.258009 C70.88367,80.9994864 70.88367,80.5825143 71.32422,80.3256596 C71.76642,80.0688048 72.48087,80.0688048 72.92142,80.3256596" id="Fill-188" fill="#16110D"></path>
                <path d="M77.098065,77.8873739 C77.540265,78.1458965 77.540265,78.5628686 77.098065,78.8213912 C76.655865,79.078246 75.943065,79.078246 75.500865,78.8213912 C75.060315,78.5628686 75.060315,78.1458965 75.500865,77.8873739 C75.943065,77.6305191 76.655865,77.6305191 77.098065,77.8873739" id="Fill-190" fill="#16110D"></path>
                <path d="M81.274545,75.4507561 C81.716745,75.7076109 81.716745,76.1245829 81.274545,76.3831056 C80.832345,76.6399603 80.119545,76.6399603 79.677345,76.3831056 C79.236795,76.1245829 79.236795,75.7076109 79.677345,75.4507561 C80.119545,75.1939013 80.832345,75.1939013 81.274545,75.4507561" id="Fill-192" fill="#16110D"></path>
                <path d="M85.45119,73.0139715 C85.89339,73.2708263 85.89339,73.6877983 85.45119,73.946321 C85.00899,74.2031758 84.29454,74.2031758 83.85399,73.946321 C83.41344,73.6877983 83.41344,73.2708263 83.85399,73.0139715 C84.29454,72.7554489 85.00899,72.7554489 85.45119,73.0139715" id="Fill-194" fill="#16110D"></path>
                <path d="M89.62767,70.5756859 C90.06987,70.8325406 90.06987,71.2495127 89.62767,71.5080353 C89.18547,71.766558 88.47102,71.766558 88.03047,71.5080353 C87.58992,71.2495127 87.58992,70.8325406 88.03047,70.5756859 C88.47102,70.3188311 89.18547,70.3188311 89.62767,70.5756859" id="Fill-196" fill="#16110D"></path>
                <path d="M93.804315,68.1390681 C94.246515,68.3959229 94.246515,68.8128949 93.804315,69.0714176 C93.362115,69.3282723 92.647665,69.3282723 92.207115,69.0714176 C91.766565,68.8128949 91.766565,68.3959229 92.207115,68.1390681 C92.647665,67.8822133 93.362115,67.8822133 93.804315,68.1390681" id="Fill-198" fill="#16110D"></path>
                <g id="Group-202" transform="translate(95.700000, 65.157218)">
                    <mask id="mask-6" fill="white">
                        <use xlink:href="#path-5"></use>
                    </mask>
                    <g id="Clip-201"></g>
                    <path d="M2.280795,0.543564744 C2.722995,0.800419518 2.722995,1.21739155 2.280795,1.4775821 C1.838595,1.73443688 1.124145,1.73443688 0.681945,1.4775821 C0.243045,1.21739155 0.243045,0.800419518 0.681945,0.543564744 C1.124145,0.286709971 1.838595,0.286709971 2.280795,0.543564744" id="Fill-200" fill="#16110D" mask="url(#mask-6)"></path>
                </g>
                <path d="M43.68705,92.5124178 C44.12925,92.7692726 44.12925,93.1862446 43.68705,93.4447673 C43.24485,93.7016221 42.5304,93.7016221 42.08985,93.4447673 C41.6493,93.1862446 41.6493,92.7692726 42.08985,92.5124178 C42.5304,92.255563 43.24485,92.255563 43.68705,92.5124178" id="Fill-205" fill="#16110D"></path>
                <path d="M47.863695,90.0756332 C48.305895,90.332488 48.305895,90.7494601 47.863695,91.0079827 C47.421495,91.2648375 46.707045,91.2648375 46.264845,91.0079827 C45.825945,90.7494601 45.825945,90.332488 46.264845,90.0756332 C46.707045,89.8187785 47.421495,89.8187785 47.863695,90.0756332" id="Fill-207" fill="#16110D"></path>
                <path d="M52.040175,87.6373476 C52.480725,87.8942024 52.480725,88.3128423 52.040175,88.5713649 C51.597975,88.8282197 50.883525,88.8282197 50.441325,88.5713649 C50.002425,88.3128423 50.002425,87.8942024 50.441325,87.6373476 C50.883525,87.3804928 51.597975,87.3804928 52.040175,87.6373476" id="Fill-209" fill="#16110D"></path>
                <path d="M56.21682,85.2007298 C56.65737,85.4575846 56.65737,85.8745566 56.21682,86.1330793 C55.77462,86.389934 55.06017,86.389934 54.61797,86.1330793 C54.17907,85.8745566 54.17907,85.4575846 54.61797,85.2007298 C55.06017,84.943875 55.77462,84.943875 56.21682,85.2007298" id="Fill-211" fill="#16110D"></path>
                <path d="M60.3933,82.7624441 C60.83385,83.0192989 60.83385,83.4379388 60.3933,83.6964615 C59.9511,83.9533163 59.23665,83.9533163 58.79445,83.6964615 C58.35555,83.4379388 58.35555,83.0192989 58.79445,82.7624441 C59.23665,82.5055894 59.9511,82.5055894 60.3933,82.7624441" id="Fill-213" fill="#16110D"></path>
                <path d="M64.569945,80.3256596 C65.010495,80.5825143 65.010495,80.9994864 64.569945,81.258009 C64.127745,81.5148638 63.413295,81.5148638 62.971095,81.258009 C62.530545,80.9994864 62.530545,80.5825143 62.971095,80.3256596 C63.413295,80.0688048 64.127745,80.0688048 64.569945,80.3256596" id="Fill-215" fill="#16110D"></path>
                <path d="M68.74494,77.8873739 C69.18714,78.1458965 69.18714,78.5628686 68.74494,78.8213912 C68.30439,79.078246 67.58994,79.078246 67.14774,78.8213912 C66.70719,78.5628686 66.70719,78.1458965 67.14774,77.8873739 C67.58994,77.6305191 68.30439,77.6305191 68.74494,77.8873739" id="Fill-217" fill="#16110D"></path>
                <path d="M72.92142,75.4507561 C73.36362,75.7076109 73.36362,76.1245829 72.92142,76.3831056 C72.48087,76.6399603 71.76642,76.6399603 71.32422,76.3831056 C70.88367,76.1245829 70.88367,75.7076109 71.32422,75.4507561 C71.76642,75.1939013 72.48087,75.1939013 72.92142,75.4507561" id="Fill-219" fill="#16110D"></path>
                <path d="M77.098065,73.0139715 C77.540265,73.2708263 77.540265,73.6877983 77.098065,73.946321 C76.655865,74.2031758 75.943065,74.2031758 75.500865,73.946321 C75.060315,73.6877983 75.060315,73.2708263 75.500865,73.0139715 C75.943065,72.7554489 76.655865,72.7554489 77.098065,73.0139715" id="Fill-221" fill="#16110D"></path>
                <path d="M81.274545,70.5756859 C81.716745,70.8325406 81.716745,71.2495127 81.274545,71.5080353 C80.832345,71.766558 80.119545,71.766558 79.677345,71.5080353 C79.236795,71.2495127 79.236795,70.8325406 79.677345,70.5756859 C80.119545,70.3188311 80.832345,70.3188311 81.274545,70.5756859" id="Fill-223" fill="#16110D"></path>
                <path d="M85.45119,68.1390681 C85.89339,68.3959229 85.89339,68.8128949 85.45119,69.0714176 C85.00899,69.3282723 84.29454,69.3282723 83.85399,69.0714176 C83.41344,68.8128949 83.41344,68.3959229 83.85399,68.1390681 C84.29619,67.8822133 85.00899,67.8822133 85.45119,68.1390681" id="Fill-225" fill="#16110D"></path>
                <path d="M89.62767,65.7007824 C90.06987,65.9576372 90.06987,66.3762771 89.62767,66.6347998 C89.18547,66.8916545 88.47102,66.8916545 88.03047,66.6347998 C87.58992,66.3762771 87.58992,65.9576372 88.03047,65.7007824 C88.47102,65.4439276 89.18547,65.4439276 89.62767,65.7007824" id="Fill-227" fill="#16110D"></path>
                <path d="M93.804315,63.2639978 C94.246515,63.5208526 94.246515,63.9378246 93.804315,64.1963473 C93.362115,64.4532021 92.647665,64.4532021 92.207115,64.1963473 C91.766565,63.9378246 91.766565,63.5208526 92.207115,63.2639978 C92.647665,63.0071431 93.362115,63.0071431 93.804315,63.2639978" id="Fill-229" fill="#16110D"></path>
                <path d="M39.51057,90.0756332 C39.95277,90.332488 39.95277,90.7494601 39.51057,91.0079827 C39.06837,91.2648375 38.35392,91.2648375 37.91337,91.0079827 C37.47282,90.7494601 37.47282,90.332488 37.91337,90.0756332 C38.35392,89.8187785 39.06837,89.8187785 39.51057,90.0756332" id="Fill-233" fill="#16110D"></path>
                <path d="M43.68705,87.6373476 C44.12925,87.8942024 44.12925,88.3128423 43.68705,88.5713649 C43.24485,88.8282197 42.5304,88.8282197 42.08985,88.5713649 C41.6493,88.3128423 41.6493,87.8942024 42.08985,87.6373476 C42.5304,87.3804928 43.24485,87.3804928 43.68705,87.6373476" id="Fill-235" fill="#16110D"></path>
                <path d="M47.863695,85.2007298 C48.305895,85.4575846 48.305895,85.8745566 47.863695,86.1330793 C47.421495,86.389934 46.707045,86.389934 46.264845,86.1330793 C45.825945,85.8745566 45.825945,85.4575846 46.264845,85.2007298 C46.707045,84.943875 47.421495,84.943875 47.863695,85.2007298" id="Fill-237" fill="#16110D"></path>
                <path d="M52.040175,82.7624441 C52.480725,83.0192989 52.480725,83.4379388 52.040175,83.6964615 C51.597975,83.9533163 50.883525,83.9533163 50.441325,83.6964615 C50.002425,83.4379388 50.002425,83.0192989 50.441325,82.7624441 C50.883525,82.5055894 51.597975,82.5055894 52.040175,82.7624441" id="Fill-239" fill="#16110D"></path>
                <path d="M56.21682,80.3256596 C56.65737,80.5825143 56.65737,80.9994864 56.21682,81.258009 C55.77462,81.5148638 55.06017,81.5148638 54.61797,81.258009 C54.17907,80.9994864 54.17907,80.5825143 54.61797,80.3256596 C55.06017,80.0688048 55.77462,80.0688048 56.21682,80.3256596" id="Fill-241" fill="#16110D"></path>
                <path d="M60.3933,77.8873739 C60.83385,78.1458965 60.83385,78.5628686 60.3933,78.8213912 C59.9511,79.078246 59.23665,79.078246 58.79445,78.8213912 C58.35555,78.5628686 58.35555,78.1458965 58.79445,77.8873739 C59.23665,77.6305191 59.9511,77.6305191 60.3933,77.8873739" id="Fill-243" fill="#16110D"></path>
                <path d="M64.569945,75.4507561 C65.010495,75.7076109 65.010495,76.1245829 64.569945,76.3831056 C64.127745,76.6399603 63.413295,76.6399603 62.971095,76.3831056 C62.530545,76.1245829 62.530545,75.7076109 62.971095,75.4507561 C63.413295,75.1939013 64.127745,75.1939013 64.569945,75.4507561" id="Fill-245" fill="#16110D"></path>
                <path d="M68.74494,73.0139715 C69.18714,73.2708263 69.18714,73.6877983 68.74494,73.946321 C68.30439,74.2031758 67.58994,74.2031758 67.14774,73.946321 C66.70719,73.6877983 66.70719,73.2708263 67.14774,73.0139715 C67.58994,72.7571168 68.30439,72.7571168 68.74494,73.0139715" id="Fill-247" fill="#16110D"></path>
                <path d="M72.92142,70.5756859 C73.36362,70.8325406 73.36362,71.2495127 72.92142,71.5097032 C72.48087,71.766558 71.76642,71.766558 71.32422,71.5097032 C70.88367,71.2495127 70.88367,70.8325406 71.32422,70.5756859 C71.76642,70.3188311 72.48087,70.3188311 72.92142,70.5756859" id="Fill-249" fill="#16110D"></path>
                <path d="M77.098065,68.1390681 C77.540265,68.3959229 77.540265,68.8128949 77.098065,69.0714176 C76.657515,69.3282723 75.943065,69.3282723 75.500865,69.0714176 C75.060315,68.8128949 75.060315,68.3959229 75.500865,68.1390681 C75.943065,67.8822133 76.657515,67.8822133 77.098065,68.1390681" id="Fill-251" fill="#16110D"></path>
                <path d="M81.274545,65.7007824 C81.716745,65.9576372 81.716745,66.3762771 81.274545,66.6347998 C80.832345,66.8916545 80.119545,66.8916545 79.677345,66.6347998 C79.236795,66.3762771 79.236795,65.9576372 79.677345,65.7007824 C80.119545,65.4439276 80.832345,65.4439276 81.274545,65.7007824" id="Fill-253" fill="#16110D"></path>
                <path d="M85.45119,63.2639978 C85.89339,63.5208526 85.89339,63.9378246 85.45119,64.1963473 C85.00899,64.4532021 84.29619,64.4532021 83.85399,64.1963473 C83.41344,63.9378246 83.41344,63.5208526 83.85399,63.2639978 C84.29619,63.0071431 85.00899,63.0071431 85.45119,63.2639978" id="Fill-255" fill="#16110D"></path>
                <path d="M29.518665,90.05295 C29.959215,89.7960952 30.673665,89.7944273 31.115865,90.0512821 C31.558065,90.3081369 31.558065,90.7251089 31.119165,90.9836316 C30.678615,91.2404863 29.964165,91.2421542 29.521965,90.9852994 C29.079765,90.7267768 29.078115,90.3098047 29.518665,90.05295" id="Fill-257" fill="#16110D"></path>
                <path d="M35.298615,87.6129964 C35.739165,87.8698512 35.739165,88.2868232 35.298615,88.5453459 C34.856415,88.8022007 34.141965,88.8022007 33.699765,88.5453459 C33.259215,88.2868232 33.259215,87.8698512 33.699765,87.6129964 C34.141965,87.3544738 34.856415,87.3544738 35.298615,87.6129964" id="Fill-259" fill="#16110D"></path>
                <path d="M39.473445,85.174544 C39.915645,85.4313987 39.915645,85.8483708 39.473445,86.1068934 C39.032895,86.3654161 38.318445,86.3654161 37.876245,86.1068934 C37.435695,85.8483708 37.435695,85.4313987 37.876245,85.174544 C38.318445,84.9176892 39.032895,84.9176892 39.473445,85.174544" id="Fill-261" fill="#16110D"></path>
                <path d="M43.65009,82.7379262 C44.09229,82.9947809 44.09229,83.411753 43.65009,83.6702756 C43.20954,83.9271304 42.49509,83.9271304 42.05289,83.6702756 C41.61234,83.411753 41.61234,82.9947809 42.05289,82.7379262 C42.49509,82.4810714 43.20954,82.4810714 43.65009,82.7379262" id="Fill-263" fill="#16110D"></path>
                <path d="M47.82657,80.2996405 C48.26877,80.5564953 48.26877,80.9734673 47.82657,81.2336579 C47.38602,81.4905126 46.67157,81.4905126 46.22937,81.2336579 C45.78882,80.9734673 45.78882,80.5564953 46.22937,80.2996405 C46.67157,80.0427857 47.38602,80.0427857 47.82657,80.2996405" id="Fill-265" fill="#16110D"></path>
                <path d="M52.003215,77.8630227 C52.445415,78.1198775 52.445415,78.5368495 52.003215,78.7953722 C51.562665,79.052227 50.848215,79.052227 50.406015,78.7953722 C49.965465,78.5368495 49.965465,78.1198775 50.406015,77.8630227 C50.848215,77.6061679 51.562665,77.6061679 52.003215,77.8630227" id="Fill-267" fill="#16110D"></path>
                <path d="M56.179695,75.4245703 C56.621895,75.681425 56.621895,76.100065 56.179695,76.3585876 C55.737495,76.6154424 55.024695,76.6154424 54.582495,76.3585876 C54.141945,76.100065 54.141945,75.681425 54.582495,75.4245703 C55.024695,75.1677155 55.737495,75.1677155 56.179695,75.4245703" id="Fill-269" fill="#16110D"></path>
                <path d="M60.35634,72.9879525 C60.79854,73.2448073 60.79854,73.6617793 60.35634,73.9203019 C59.91414,74.1771567 59.20134,74.1771567 58.75914,73.9203019 C58.31859,73.6617793 58.31859,73.2448073 58.75914,72.9879525 C59.20134,72.7310977 59.91414,72.7310977 60.35634,72.9879525" id="Fill-271" fill="#16110D"></path>
                <path d="M64.53282,70.5496668 C64.97502,70.8065216 64.97502,71.2251615 64.53282,71.4836842 C64.09062,71.7405389 63.37617,71.7405389 62.93562,71.4836842 C62.49507,71.2251615 62.49507,70.8065216 62.93562,70.5496668 C63.37617,70.292812 64.09062,70.292812 64.53282,70.5496668" id="Fill-273" fill="#16110D"></path>
                <path d="M68.709465,68.113049 C69.151665,68.3699038 69.151665,68.7868758 68.709465,69.0453985 C68.267265,69.3022533 67.552815,69.3022533 67.112265,69.0453985 C66.671715,68.7868758 66.671715,68.3699038 67.112265,68.113049 C67.552815,67.8561943 68.267265,67.8561943 68.709465,68.113049" id="Fill-275" fill="#16110D"></path>
                <path d="M72.885945,65.6762645 C73.328145,65.9331192 73.328145,66.3500913 72.885945,66.6086139 C72.443745,66.8654687 71.729295,66.8654687 71.288745,66.6086139 C70.848195,66.3500913 70.848195,65.9331192 71.288745,65.6762645 C71.729295,65.4177418 72.443745,65.4177418 72.885945,65.6762645" id="Fill-277" fill="#16110D"></path>
                <path d="M77.06259,63.2379788 C77.50479,63.4948336 77.50479,63.9118056 77.06259,64.1703283 C76.62039,64.427183 75.90594,64.427183 75.46374,64.1703283 C75.02484,63.9118056 75.02484,63.4948336 75.46374,63.2379788 C75.90594,62.981124 76.62039,62.981124 77.06259,63.2379788" id="Fill-279" fill="#16110D"></path>
                <path d="M25.342185,87.6161654 C25.782735,87.3576427 26.497185,87.3576427 26.939385,87.6128296 C27.381585,87.8696844 27.383235,88.2866564 26.942685,88.546847 C26.502135,88.8037018 25.787685,88.8053696 25.345485,88.5485149 C24.903285,88.2899922 24.901635,87.8730202 25.342185,87.6161654" id="Fill-281" fill="#16110D"></path>
                <path d="M31.12197,85.174544 C31.56252,85.4313987 31.56252,85.8483708 31.12197,86.1068934 C30.67977,86.3654161 29.96532,86.3654161 29.52312,86.1068934 C29.08422,85.8483708 29.08422,85.4313987 29.52312,85.174544 C29.96532,84.9176892 30.67977,84.9176892 31.12197,85.174544" id="Fill-283" fill="#16110D"></path>
                <path d="M35.298615,82.7379262 C35.739165,82.9947809 35.739165,83.411753 35.298615,83.6702756 C34.856415,83.9271304 34.141965,83.9271304 33.699765,83.6702756 C33.260865,83.411753 33.260865,82.9947809 33.699765,82.7379262 C34.141965,82.4810714 34.856415,82.4810714 35.298615,82.7379262" id="Fill-285" fill="#16110D"></path>
                <path d="M39.475095,80.2996405 C39.915645,80.5564953 39.915645,80.9751352 39.475095,81.2336579 C39.032895,81.4905126 38.318445,81.4905126 37.876245,81.2336579 C37.435695,80.9751352 37.435695,80.5564953 37.876245,80.2996405 C38.318445,80.0427857 39.032895,80.0427857 39.475095,80.2996405" id="Fill-287" fill="#16110D"></path>
                <path d="M43.65009,77.8630227 C44.09229,78.1198775 44.09229,78.5368495 43.65009,78.7953722 C43.20954,79.052227 42.49509,79.052227 42.05289,78.7953722 C41.61234,78.5368495 41.61234,78.1198775 42.05289,77.8630227 C42.49509,77.6061679 43.20954,77.6061679 43.65009,77.8630227" id="Fill-289" fill="#16110D"></path>
                <path d="M47.82657,75.4245703 C48.26877,75.681425 48.26877,76.100065 47.82657,76.3585876 C47.38602,76.6154424 46.67157,76.6154424 46.22937,76.3585876 C45.78882,76.100065 45.78882,75.681425 46.22937,75.4245703 C46.67157,75.1677155 47.38602,75.1677155 47.82657,75.4245703" id="Fill-291" fill="#16110D"></path>
                <path d="M52.003215,72.9879525 C52.445415,73.2448073 52.445415,73.6617793 52.003215,73.9203019 C51.562665,74.1771567 50.848215,74.1771567 50.406015,73.9203019 C49.965465,73.6617793 49.965465,73.2448073 50.406015,72.9879525 C50.848215,72.7310977 51.562665,72.7310977 52.003215,72.9879525" id="Fill-293" fill="#16110D"></path>
                <path d="M56.179695,70.5496668 C56.621895,70.8065216 56.621895,71.2251615 56.179695,71.4836842 C55.737495,71.7405389 55.024695,71.7405389 54.582495,71.4836842 C54.141945,71.2251615 54.141945,70.8065216 54.582495,70.5496668 C55.024695,70.292812 55.737495,70.292812 56.179695,70.5496668" id="Fill-295" fill="#16110D"></path>
                <path d="M60.35634,68.113049 C60.79854,68.3699038 60.79854,68.7868758 60.35634,69.0453985 C59.91414,69.3022533 59.20134,69.3022533 58.75914,69.0453985 C58.31859,68.7868758 58.31859,68.3699038 58.75914,68.113049 C59.20134,67.8561943 59.91414,67.8561943 60.35634,68.113049" id="Fill-297" fill="#16110D"></path>
                <path d="M64.53282,65.6762645 C64.97502,65.9331192 64.97502,66.3500913 64.53282,66.6086139 C64.09062,66.8654687 63.37617,66.8654687 62.93562,66.6086139 C62.49507,66.3500913 62.49507,65.9331192 62.93562,65.6762645 C63.37617,65.4177418 64.09062,65.4177418 64.53282,65.6762645" id="Fill-299" fill="#16110D"></path>
                <path d="M21.16554,85.1778797 C21.60609,84.921025 22.32054,84.9193571 22.76439,85.1762118 C23.20494,85.4330666 23.20659,85.8500386 22.76604,86.1085613 C22.32549,86.367084 21.61104,86.367084 21.16884,86.1102292 C20.72664,85.8533744 20.72499,85.4347345 21.16554,85.1778797" id="Fill-301" fill="#16110D"></path>
                <path d="M26.94549,82.7379262 C27.38769,82.9947809 27.38769,83.411753 26.94549,83.6702756 C26.50329,83.9271304 25.78884,83.9271304 25.34829,83.6702756 C24.90774,83.411753 24.90774,82.9947809 25.34829,82.7379262 C25.78884,82.4810714 26.50329,82.4810714 26.94549,82.7379262" id="Fill-303" fill="#16110D"></path>
                <path d="M31.12197,80.2996405 C31.56417,80.5564953 31.56417,80.9751352 31.12197,81.2336579 C30.67977,81.4905126 29.96532,81.4905126 29.52312,81.2336579 C29.08422,80.9751352 29.08422,80.5564953 29.52312,80.2996405 C29.96532,80.0427857 30.67977,80.0427857 31.12197,80.2996405" id="Fill-305" fill="#16110D"></path>
                <path d="M35.298615,77.8630227 C35.739165,78.1198775 35.739165,78.5368495 35.298615,78.7953722 C34.856415,79.052227 34.141965,79.052227 33.699765,78.7953722 C33.260865,78.5368495 33.260865,78.1198775 33.699765,77.8630227 C34.141965,77.6061679 34.856415,77.6061679 35.298615,77.8630227" id="Fill-307" fill="#16110D"></path>
                <path d="M39.475095,75.4245703 C39.915645,75.681425 39.915645,76.100065 39.475095,76.3585876 C39.032895,76.6154424 38.318445,76.6154424 37.876245,76.3585876 C37.435695,76.100065 37.435695,75.681425 37.876245,75.4245703 C38.318445,75.1677155 39.032895,75.1677155 39.475095,75.4245703" id="Fill-309" fill="#16110D"></path>
                <path d="M43.65009,72.9879525 C44.09229,73.2448073 44.09229,73.6617793 43.65009,73.9203019 C43.20954,74.1771567 42.49509,74.1771567 42.05289,73.9203019 C41.61234,73.6617793 41.61234,73.2448073 42.05289,72.9879525 C42.49509,72.7310977 43.20954,72.7310977 43.65009,72.9879525" id="Fill-311" fill="#16110D"></path>
                <path d="M47.82657,70.5496668 C48.26877,70.8065216 48.26877,71.2251615 47.82657,71.4836842 C47.38602,71.7405389 46.67157,71.7405389 46.22937,71.4836842 C45.78882,71.2251615 45.78882,70.8065216 46.22937,70.5496668 C46.67157,70.292812 47.38602,70.292812 47.82657,70.5496668" id="Fill-313" fill="#16110D"></path>
                <path d="M52.003215,68.113049 C52.445415,68.3699038 52.445415,68.7868758 52.003215,69.0453985 C51.562665,69.3022533 50.848215,69.3022533 50.406015,69.0453985 C49.965465,68.7868758 49.965465,68.3699038 50.406015,68.113049 C50.848215,67.8561943 51.562665,67.8561943 52.003215,68.113049" id="Fill-315" fill="#16110D"></path>
                <path d="M56.179695,65.6762645 C56.621895,65.9331192 56.621895,66.3500913 56.179695,66.6086139 C55.737495,66.8654687 55.024695,66.8654687 54.582495,66.6086139 C54.141945,66.3500913 54.141945,65.9331192 54.582495,65.6762645 C55.024695,65.4177418 55.737495,65.4177418 56.179695,65.6762645" id="Fill-317" fill="#16110D"></path>
                <path d="M16.98906,82.7412619 C17.43126,82.4827393 18.14406,82.4827393 18.58791,82.7395941 C19.02846,82.9947809 19.03011,83.4134209 18.59121,83.6719435 C18.14901,83.9287983 17.43456,83.9304662 16.99236,83.6736114 C16.55016,83.4150888 16.54851,82.9981167 16.98906,82.7412619" id="Fill-319" fill="#16110D"></path>
                <path d="M22.768845,80.2996405 C23.211045,80.5564953 23.211045,80.9751352 22.768845,81.2336579 C22.326645,81.4905126 21.612195,81.4905126 21.171645,81.2336579 C20.731095,80.9751352 20.731095,80.5564953 21.171645,80.2996405 C21.612195,80.0427857 22.326645,80.0427857 22.768845,80.2996405" id="Fill-321" fill="#16110D"></path>
                <path d="M26.94549,77.8630227 C27.38769,78.1198775 27.38769,78.5368495 26.94549,78.7953722 C26.50329,79.052227 25.78884,79.052227 25.34829,78.7953722 C24.90774,78.5368495 24.90774,78.1198775 25.34829,77.8630227 C25.78884,77.6061679 26.50329,77.6061679 26.94549,77.8630227" id="Fill-323" fill="#16110D"></path>
                <path d="M31.12197,75.4245703 C31.56417,75.681425 31.56417,76.100065 31.12197,76.3585876 C30.67977,76.6154424 29.96532,76.6154424 29.52312,76.3585876 C29.08422,76.100065 29.08422,75.681425 29.52312,75.4245703 C29.96532,75.1677155 30.67977,75.1677155 31.12197,75.4245703" id="Fill-325" fill="#16110D"></path>
                <path d="M35.298615,72.9879525 C35.739165,73.2448073 35.739165,73.6617793 35.298615,73.9203019 C34.856415,74.1771567 34.141965,74.1771567 33.699765,73.9203019 C33.260865,73.6617793 33.260865,73.2448073 33.699765,72.9879525 C34.141965,72.7310977 34.856415,72.7310977 35.298615,72.9879525" id="Fill-327" fill="#16110D"></path>
                <path d="M39.475095,70.5496668 C39.915645,70.8065216 39.915645,71.2251615 39.475095,71.4836842 C39.032895,71.7405389 38.318445,71.7405389 37.876245,71.4836842 C37.437345,71.2251615 37.437345,70.8065216 37.876245,70.5496668 C38.318445,70.292812 39.032895,70.292812 39.475095,70.5496668" id="Fill-329" fill="#16110D"></path>
                <path d="M43.65174,68.113049 C44.09229,68.3699038 44.09229,68.7868758 43.65174,69.0453985 C43.20954,69.3022533 42.49509,69.3022533 42.05289,69.0453985 C41.61234,68.7868758 41.61234,68.3699038 42.05289,68.113049 C42.49509,67.8561943 43.20954,67.8561943 43.65174,68.113049" id="Fill-331" fill="#16110D"></path>
                <path d="M47.82657,65.6762645 C48.26877,65.9331192 48.26877,66.3500913 47.82657,66.6086139 C47.38602,66.8654687 46.67157,66.8654687 46.22937,66.6086139 C45.78882,66.3500913 45.78882,65.9331192 46.22937,65.6762645 C46.67157,65.4177418 47.38602,65.4177418 47.82657,65.6762645" id="Fill-333" fill="#16110D"></path>
                <path d="M92.367,47.3620187 C92.895,42.0097657 90.1296,36.6508411 83.8464,32.3777117 C70.32465,23.1809765 45.6555,22.502146 28.7496,30.8616014 C19.1334,35.6167505 14.1075,42.273292 14.04315,48.8214209 C14.01015,49.2417287 13.98705,49.6753796 13.98705,50.1423883 L13.98705,53.6015883 L13.98705,57.9847983 L13.98705,59.8811871 C14.1636,66.0273549 16.28385,70.7041132 22.6248,75.017272 C36.14985,84.2140072 60.8157,84.8928376 77.7216,76.5317144 C86.6976,72.0934641 91.68225,65.9990008 92.3571,59.8811871 L92.41815,58.213299 L92.41815,50.5543566 L92.41815,48.3844342 L92.4165,47.7656477 C92.40825,47.6305487 92.37855,47.4971177 92.367,47.3620187" id="Fill-335" fill="#0066FF"></path>
                <path d="M92.333175,48.6439576 C93.222525,61.3315826 76.425525,72.8717007 54.818775,74.417833 C33.210375,75.9656332 14.972925,66.9340189 14.085225,54.2463938 C13.195875,41.5587688 29.992875,30.0203186 51.599625,28.4725184 C73.206375,26.9263861 91.443825,35.9580004 92.333175,48.6439576" id="Fill-337" fill="#FFFFFF"></path>
                <path d="M91.58226,46.9060181 C91.57236,47.0411171 91.54761,47.176216 91.53606,47.3113149 C90.91896,53.3991067 85.78746,59.2483904 77.35926,63.4164428 C60.71076,71.6474708 36.36831,70.988655 23.08581,61.9570407 C17.62431,58.2443217 14.75001,53.5091873 14.89356,48.5822457 C14.89851,48.4288 14.88036,48.2770222 14.89026,48.1219086 C15.16416,44.0989624 17.42961,40.1694179 21.31041,36.7402399 C23.44386,34.8555263 26.05746,33.1209227 29.11326,31.609816 C36.92601,27.7469871 46.43496,25.8422588 55.70136,25.8422588 C66.17556,25.8422588 76.33791,28.2757076 83.38506,33.0692181 C84.97071,34.1483418 86.31546,35.3191992 87.45726,36.5467649 C90.37446,39.6857304 91.82976,43.2466716 91.58226,46.9060181 Z M91.53771,59.7871182 C90.87111,65.8265412 85.70331,71.6558102 77.35926,75.7821655 C60.71076,84.0131934 36.36831,83.3560455 23.08581,74.3227634 C17.39166,70.451595 14.99421,66.2601921 14.81271,59.8788521 L14.81271,55.3538716 C16.28781,58.2926905 18.74631,61.0180197 22.16511,63.3413878 C29.46471,68.305023 39.97851,70.8285377 50.79921,70.8285377 C60.31806,70.8285377 70.07451,68.8754407 78.08361,64.9158743 C84.60771,61.6885107 89.27391,57.4487391 91.59216,52.8053385 L91.59381,58.1809419 L91.53771,59.7871182 Z M93.24051,47.7216154 C93.23391,47.5915202 93.20256,47.4647607 93.19431,47.3346654 C93.20256,47.2279205 93.22236,47.1261794 93.22896,47.0194345 C93.61671,41.3085855 90.44871,35.8629308 84.30741,31.684871 C70.58601,22.3563726 45.50106,21.6475202 28.38726,30.1120525 C19.22811,34.6403688 13.70886,41.1651472 13.24191,48.0068243 C13.23201,48.1686095 13.25181,48.3253909 13.24686,48.4838403 C13.19406,49.0092251 13.16271,49.5529566 13.16271,50.1417211 L13.16271,59.9038704 C13.36071,66.8239383 16.05351,71.5507333 22.16511,75.7087784 C29.46471,80.6707456 39.97851,83.1942604 50.79921,83.1942604 C60.31806,83.1942604 70.07451,81.2411634 78.08361,77.2815969 C86.94576,72.8983869 92.44686,66.5887661 93.18276,59.9105419 L93.24381,58.2109639 L93.24051,47.7216154 Z" id="Fill-339" fill="#16110D"></path>
                <path d="M64.56516,42.599531 C64.34406,42.6395603 64.22031,42.6612428 64.09986,42.6862611 C60.67116,43.4051209 57.24411,44.1289844 53.81211,44.8411726 C53.48211,44.909556 53.40291,44.9979541 53.40456,45.1864255 C53.45241,47.9868096 53.48376,50.7888617 53.52171,53.5909138 C53.52336,53.7860567 53.53161,53.9811996 53.53491,54.1746746 C53.56296,54.1763425 53.58936,54.1780104 53.61411,54.1780104 C57.24741,50.3385319 60.88071,46.4957176 64.56516,42.599531 M49.51386,45.7535074 C47.91006,46.0887529 46.34751,46.415659 44.78661,46.744233 C41.61036,47.4130561 38.43411,48.0768756 35.26116,48.7507024 C34.96086,48.8174179 34.79586,48.7940675 34.60281,48.6589686 C33.77781,48.0785435 32.92806,47.5114615 32.08656,46.9410438 C32.00736,46.8843356 31.92651,46.8292953 31.81431,46.7542403 C31.96281,46.7175468 32.06841,46.6858569 32.17566,46.6658422 C43.98141,44.2874338 55.78881,41.9090253 67.59621,39.5322847 C68.75286,39.2987803 69.71151,39.4789122 70.30056,40.0393227 C70.73451,40.4529589 70.62561,40.8782704 70.22466,41.3119213 C68.84526,42.7946739 67.47246,44.2807622 66.09636,45.7651826 C62.06211,50.1183707 58.02621,54.4698908 53.99526,58.8230789 C53.71146,59.1283024 53.38146,59.4085076 52.84356,59.5903074 C51.53181,60.0272941 49.81746,59.6370083 49.51551,58.8147394 C49.41981,58.552881 49.41816,58.2760116 49.41981,58.0058137 C49.44951,54.0162253 49.48581,50.0249689 49.52211,46.0353805 C49.52211,45.9519861 49.51716,45.8685917 49.51386,45.7535074" id="Fill-341" fill="#0066FF"></path>
                <path d="M55.07271,42.8176907 C56.62536,42.4941204 58.17306,42.1688822 59.71911,41.8453119 L58.11366,43.54489 L55.12716,46.7022022 C55.11066,45.407921 55.09416,44.1119719 55.07271,42.8176907 M68.53506,34.3014539 C68.13081,34.3014539 67.70676,34.344819 67.27446,34.433217 L31.85391,41.5651067 C31.75161,41.5867893 31.65591,41.6101397 31.54041,41.6401617 L31.41831,41.6718516 L27.80976,42.5741791 L30.89361,44.6740502 L31.16751,44.8608537 L31.84236,45.317855 C32.45286,45.7314913 33.06336,46.1451276 33.66066,46.5637675 C34.06491,46.8473085 34.51041,46.9907468 34.98726,46.9907468 C35.18031,46.9907468 35.37501,46.9673964 35.60106,46.9190277 C38.13051,46.3819677 40.66656,45.8482435 43.19931,45.317855 L45.12321,44.9142261 L47.85561,44.3388047 L47.84736,45.2761578 C47.81931,48.360083 47.79291,51.4456761 47.76981,54.5296012 C47.76651,54.8465 47.76321,55.3752205 47.96781,55.9306273 C48.42651,57.1732039 49.88016,57.9754581 51.67041,57.9754581 C52.25451,57.9754581 52.83861,57.8820564 53.36166,57.708596 C54.29226,57.3967009 54.85656,56.8696483 55.19976,56.4977092 L63.71046,47.3126493 L67.29921,43.4431488 L68.82051,41.800279 L71.42586,38.9882196 C72.66501,37.6555769 72.32016,36.2061821 71.43081,35.358895 C70.70316,34.6667214 69.69996,34.3014539 68.53506,34.3014539 M64.56516,39.1349937 C64.34406,39.175023 64.22031,39.1967056 64.09986,39.2233918 C60.67116,39.9405837 57.24411,40.6644471 53.81211,41.3766354 C53.48211,41.4450188 53.40291,41.5350847 53.40621,41.7218882 C53.45241,44.5222724 53.48376,47.3243245 53.52171,50.1263765 C53.52336,50.3215195 53.52996,50.5166624 53.53491,50.7118053 C53.56296,50.7118053 53.58936,50.7134732 53.61411,50.7134732 C57.24741,46.8739947 60.88071,43.0311804 64.56516,39.1349937 M68.53506,35.969342 C69.26931,35.969342 69.87981,36.1744923 70.30056,36.5747854 C70.73451,36.9884217 70.62561,37.415401 70.22466,37.8473841 C68.84526,39.3318045 67.47246,40.8178928 66.09636,42.3006454 C62.06211,46.6538334 58.02621,51.0053536 53.99526,55.3585416 C53.71146,55.6654331 53.38146,55.9456383 52.84191,56.1257702 C52.47066,56.2508618 52.06641,56.30757 51.67041,56.30757 C50.67216,56.30757 49.73331,55.9389667 49.51551,55.3502022 C49.41981,55.0900116 49.41816,54.8114743 49.41981,54.5412765 C49.44951,50.551688 49.48581,46.5604317 49.52211,42.5708433 C49.52211,42.4874489 49.51716,42.4040545 49.51386,42.2889702 C47.91006,42.6258836 46.34751,42.9527897 44.78661,43.2796957 C41.61036,43.9485189 38.43411,44.6123384 35.26116,45.2861652 C35.15556,45.3095156 35.06646,45.3228587 34.98726,45.3228587 C34.84041,45.3228587 34.72821,45.2828294 34.60281,45.1944313 C33.77781,44.6140062 32.92806,44.0469243 32.08656,43.4765065 C32.00736,43.4197983 31.92651,43.3664259 31.81431,43.2897031 C31.96281,43.2546774 32.06841,43.2229875 32.17566,43.1996371 C43.98141,40.8228965 55.78881,38.444488 67.59621,36.0677474 C67.92621,36.0010319 68.23971,35.969342 68.53506,35.969342" id="Fill-343" fill="#16110D"></path>
                <polygon id="Fill-345" fill="#16110D" points="37.246605 81.3242242 32.055705 79.5512591 32.055705 67.1788649 37.246605 68.294682"></polygon>
                <path d="M50.873625,70.1912376 L50.873625,82.2817588 C50.873625,82.2817588 86.726475,81.5045229 92.357925,59.8803532 L92.418975,48.3852681 C92.418975,48.3852681 89.613975,68.3098598 50.873625,70.1912376" id="Fill-347" fill="#16110D"></path>
            </g>
        </g>
    </g>
</svg>