<svg width="125" height="97" viewBox="0 0 125 97" fill="none" xmlns="http://www.w3.org/2000/svg">
<path fill-rule="evenodd" clip-rule="evenodd" d="M89.2857 97C116.667 97 125 66.3872 125 41.9148C125 17.4423 102.381 0 75.0992 0C47.8175 0 0 28.21 0 52.6825C0 77.155 62.004 97 89.2857 97Z" fill="#F2F7FF"/>
<path d="M20.1883 67.0589C20.6793 67.3862 20.6793 67.7136 20.1883 68.0409C19.6973 68.3682 19.0426 68.3682 18.5516 68.0409C18.2243 67.7136 18.2243 67.2226 18.7153 67.0589C19.0426 66.7316 19.8609 66.7316 20.1883 67.0589Z" fill="#16110D"/>
<path d="M24.4436 64.6039C24.7709 64.9312 24.7709 65.2586 24.4436 65.5859C23.9526 65.9132 23.2979 65.9132 22.8069 65.5859C22.3159 65.2586 22.3159 64.9312 22.8069 64.6039C23.2979 64.4402 23.9526 64.4402 24.4436 64.6039Z" fill="#16110D"/>
<path d="M28.5352 62.3126C29.0262 62.6399 29.0262 62.9672 28.5352 63.2946C28.0443 63.6219 27.3896 63.6219 26.8986 63.2946C26.4076 62.9672 26.4076 62.6399 26.8986 62.3126C27.3896 61.9852 28.0443 61.9852 28.5352 62.3126Z" fill="#16110D"/>
<path d="M32.6269 59.8576C33.1179 60.1849 33.1179 60.5122 32.6269 60.8395C32.1359 61.1669 31.4812 61.1669 30.9902 60.8395C30.4992 60.5122 30.4992 60.1849 30.9902 59.8576C31.4812 59.6939 32.2996 59.6939 32.6269 59.8576C33.1179 60.1849 32.2996 59.6939 32.6269 59.8576Z" fill="#16110D"/>
<path d="M15.2783 65.7496C15.911 65.7496 16.4239 65.4565 16.4239 65.0949C16.4239 64.7334 15.911 64.4402 15.2783 64.4402C14.6455 64.4402 14.1326 64.7334 14.1326 65.0949C14.1326 65.4565 14.6455 65.7496 15.2783 65.7496Z" fill="#16110D"/>
<path d="M20.1883 62.3126C20.6793 62.6399 20.6793 62.9672 20.1883 63.2946C19.6973 63.6219 19.0426 63.6219 18.5516 63.2946C18.2243 62.9672 18.2243 62.4762 18.7153 62.3126C19.0426 61.9852 19.8609 61.9852 20.1883 62.3126Z" fill="#16110D"/>
<path d="M23.6252 61.0032C24.258 61.0032 24.7709 60.7101 24.7709 60.3486C24.7709 59.987 24.258 59.6939 23.6252 59.6939C22.9925 59.6939 22.4796 59.987 22.4796 60.3486C22.4796 60.7101 22.9925 61.0032 23.6252 61.0032Z" fill="#16110D"/>
<path d="M27.717 58.5482C28.3497 58.5482 28.8626 58.2551 28.8626 57.8936C28.8626 57.532 28.3497 57.2389 27.717 57.2389C27.0842 57.2389 26.5713 57.532 26.5713 57.8936C26.5713 58.2551 27.0842 58.5482 27.717 58.5482Z" fill="#16110D"/>
<path d="M12.0049 62.3126C12.4959 62.6399 12.4959 62.9672 12.0049 63.2946C11.5139 63.6219 10.8592 63.6219 10.3682 63.2946C9.87725 62.9672 9.87725 62.6399 10.3682 62.3126C10.8592 61.9852 11.5139 61.9852 12.0049 62.3126Z" fill="#16110D"/>
<path d="M16.0965 59.8576C16.5875 60.1849 16.5875 60.5122 16.0965 60.8395C15.6055 61.1669 14.9509 61.1669 14.4599 60.8395C13.9689 60.5122 13.9689 60.1849 14.4599 59.8576C14.9509 59.6939 15.6055 59.6939 16.0965 59.8576Z" fill="#16110D"/>
<path d="M20.1883 57.4025C20.6793 57.7299 20.6793 58.0572 20.1883 58.3845C19.6973 58.7119 19.0426 58.7119 18.5516 58.3845C18.2243 58.2209 18.2243 57.7299 18.7153 57.4025C19.0426 57.2389 19.8609 57.2389 20.1883 57.4025Z" fill="#16110D"/>
<path d="M24.4436 55.9296C23.9526 56.2569 23.2979 56.2569 22.8069 55.9296C22.3159 55.6022 22.3159 55.2749 22.8069 54.9476C23.2979 54.7839 24.7709 55.7659 24.4436 55.9296Z" fill="#16110D"/>
<path d="M12.0049 57.4025C12.4959 57.7299 12.4959 58.0572 12.0049 58.3845C11.5139 58.7119 10.8592 58.7119 10.3682 58.3845C9.87725 58.0572 9.87725 57.7299 10.3682 57.4025C10.8592 57.2389 11.5139 57.2389 12.0049 57.4025Z" fill="#16110D"/>
<path d="M15.2783 56.2569C15.911 56.2569 16.4239 55.9638 16.4239 55.6023C16.4239 55.2407 15.911 54.9476 15.2783 54.9476C14.6455 54.9476 14.1326 55.2407 14.1326 55.6023C14.1326 55.9638 14.6455 56.2569 15.2783 56.2569Z" fill="#16110D"/>
<path d="M20.1883 53.6382C19.6973 53.9656 19.0426 53.9656 18.5516 53.6382C18.0606 53.3109 18.0606 52.9836 18.5516 52.6562C19.0426 52.4926 20.6793 53.3109 20.1883 53.6382Z" fill="#16110D"/>
<path d="M74.3618 88.1719C74.8528 88.4992 74.8528 88.8266 74.3618 89.1539C73.8708 89.4812 73.2162 89.4812 72.7252 89.1539C72.2342 88.8266 72.2342 88.4992 72.7252 88.1719C73.2162 88.0082 73.8708 88.0082 74.3618 88.1719Z" fill="#16110D"/>
<path d="M78.4535 85.8806C78.9445 86.2079 78.9445 86.5352 78.4535 86.8626C77.9625 87.1899 77.3079 87.1899 76.8169 86.8626C76.3259 86.5352 76.3259 86.2079 76.8169 85.8806C77.3079 85.5532 77.9625 85.5532 78.4535 85.8806Z" fill="#16110D"/>
<path d="M82.5452 83.4255C83.0362 83.7529 83.0362 84.0802 82.5452 84.4075C82.0542 84.7349 81.3995 84.7349 80.9085 84.4075C80.4175 84.0802 80.4175 83.7529 80.9085 83.4255C81.3995 83.2619 82.2179 83.2619 82.5452 83.4255Z" fill="#16110D"/>
<path d="M86.8006 80.9705C87.2916 81.2979 87.2916 81.6252 86.8006 81.9525C86.3096 82.2799 85.6549 82.2799 85.1639 81.9525C84.6729 81.6252 84.6729 81.2979 85.1639 80.9705C85.4912 80.8069 86.3096 80.8069 86.8006 80.9705Z" fill="#16110D"/>
<path d="M90.8922 78.6792C91.3832 79.0065 91.3832 79.3339 90.8922 79.6612C90.4012 79.9885 89.7465 79.9885 89.2555 79.6612C88.7645 79.3339 88.7645 79.0065 89.2555 78.6792C89.7465 78.3519 90.4012 78.3519 90.8922 78.6792Z" fill="#16110D"/>
<path d="M94.9839 76.2243C95.4749 76.5516 95.4749 76.8789 94.9839 77.2062C94.4929 77.5336 93.8383 77.5336 93.3473 77.2062C92.8563 76.8789 92.8563 76.5516 93.3473 76.2243C93.8383 76.0606 94.4929 76.0606 94.9839 76.2243Z" fill="#16110D"/>
<path d="M99.0755 73.9329C99.5665 74.2602 99.5665 74.5875 99.0755 74.9149C98.5845 75.2422 97.9299 75.2422 97.4389 74.9149C96.9479 74.5875 96.9479 74.2602 97.4389 73.9329C97.9299 73.6055 98.7482 73.6055 99.0755 73.9329Z" fill="#16110D"/>
<path d="M102.513 72.6235C103.145 72.6235 103.658 72.3304 103.658 71.9689C103.658 71.6073 103.145 71.3142 102.513 71.3142C101.88 71.3142 101.367 71.6073 101.367 71.9689C101.367 72.3304 101.88 72.6235 102.513 72.6235Z" fill="#16110D"/>
<path d="M106.604 70.1686C107.237 70.1686 107.75 69.8755 107.75 69.5139C107.75 69.1524 107.237 68.8593 106.604 68.8593C105.971 68.8593 105.458 69.1524 105.458 69.5139C105.458 69.8755 105.971 70.1686 106.604 70.1686Z" fill="#16110D"/>
<path d="M111.514 66.7315C112.005 67.0589 112.005 67.3862 111.514 67.7135C111.023 68.0409 110.369 68.0409 109.878 67.7135C109.387 67.3862 109.387 67.0589 109.878 66.7315C110.369 66.4042 111.187 66.4042 111.514 66.7315Z" fill="#16110D"/>
<path d="M66.0149 88.1719C66.5059 88.4992 66.5059 88.8266 66.0149 89.1539C65.5239 89.4812 64.8692 89.4812 64.3782 89.1539C63.8872 88.8266 63.8872 88.4992 64.3782 88.1719C64.8692 88.0082 65.5239 88.0082 66.0149 88.1719Z" fill="#16110D"/>
<path d="M70.1066 85.8806C70.5976 86.2079 70.5976 86.5352 70.1066 86.8626C69.6156 87.1899 68.9609 87.1899 68.4699 86.8626C67.9789 86.5352 67.9789 86.2079 68.4699 85.8806C68.9609 85.5532 69.7793 85.5532 70.1066 85.8806Z" fill="#16110D"/>
<path d="M74.3618 83.4255C74.8528 83.7529 74.8528 84.0802 74.3618 84.4075C73.8708 84.7349 73.2162 84.7349 72.7252 84.4075C72.2342 84.0802 72.2342 83.7529 72.7252 83.4255C73.2162 83.2619 73.8708 83.2619 74.3618 83.4255Z" fill="#16110D"/>
<path d="M77.6352 82.1162C78.2679 82.1162 78.7808 81.8231 78.7808 81.4616C78.7808 81.1 78.2679 80.8069 77.6352 80.8069C77.0024 80.8069 76.4895 81.1 76.4895 81.4616C76.4895 81.8231 77.0024 82.1162 77.6352 82.1162Z" fill="#16110D"/>
<path d="M81.7268 79.8249C82.3596 79.8249 82.8725 79.5318 82.8725 79.1702C82.8725 78.8087 82.3596 78.5156 81.7268 78.5156C81.0941 78.5156 80.5812 78.8087 80.5812 79.1702C80.5812 79.5318 81.0941 79.8249 81.7268 79.8249Z" fill="#16110D"/>
<path d="M86.8006 76.2243C87.2916 76.5516 87.2916 76.8789 86.8006 77.2062C86.3096 77.5336 85.6549 77.5336 85.1639 77.2062C84.6729 76.8789 84.6729 76.5516 85.1639 76.2243C85.4912 76.0606 86.3096 76.0606 86.8006 76.2243Z" fill="#16110D"/>
<path d="M90.8922 73.9329C91.3832 74.2602 91.3832 74.5875 90.8922 74.9149C90.4012 75.2422 89.7465 75.2422 89.2555 74.9149C88.7645 74.5875 88.7645 74.2602 89.2555 73.9329C89.7465 73.6055 90.4012 73.6055 90.8922 73.9329Z" fill="#16110D"/>
<path d="M94.9839 71.4779C95.4749 71.8052 95.4749 72.1326 94.9839 72.4599C94.4929 72.7872 93.8383 72.7872 93.3473 72.4599C92.8563 72.1326 92.8563 71.8052 93.3473 71.4779C93.8383 71.1506 94.4929 71.1506 94.9839 71.4779Z" fill="#16110D"/>
<path d="M99.0755 69.0229C99.5665 69.3502 99.5665 69.6776 99.0755 70.0049C98.5845 70.3322 97.9299 70.3322 97.4389 70.0049C96.9479 69.6776 96.9479 69.3502 97.4389 69.0229C97.9299 68.8592 98.7482 68.8592 99.0755 69.0229Z" fill="#16110D"/>
<path d="M103.331 66.7315C103.822 67.0589 103.822 67.3862 103.331 67.7135C102.84 68.0409 102.185 68.0409 101.694 67.7135C101.203 67.3862 101.203 67.0589 101.694 66.7315C102.185 66.4042 102.84 66.4042 103.331 66.7315Z" fill="#16110D"/>
<path d="M106.604 65.4222C107.237 65.4222 107.75 65.1291 107.75 64.7676C107.75 64.406 107.237 64.1129 106.604 64.1129C105.971 64.1129 105.458 64.406 105.458 64.7676C105.458 65.1291 105.971 65.4222 106.604 65.4222Z" fill="#16110D"/>
<path d="M56.8496 89.3175C57.4823 89.3175 57.9952 89.0244 57.9952 88.6629C57.9952 88.3013 57.4823 88.0082 56.8496 88.0082C56.2169 88.0082 55.7039 88.3013 55.7039 88.6629C55.7039 89.0244 56.2169 89.3175 56.8496 89.3175Z" fill="#16110D"/>
<path d="M61.9232 85.8806C62.4142 86.2079 62.4142 86.5352 61.9232 86.8626C61.4322 87.1899 60.7775 87.1899 60.2865 86.8626C59.7955 86.5352 59.7955 86.2079 60.2865 85.8806C60.7775 85.5532 61.4322 85.5532 61.9232 85.8806Z" fill="#16110D"/>
<path d="M66.0149 83.4255C66.5059 83.7529 66.5059 84.0802 66.0149 84.4075C65.5239 84.7349 64.8692 84.7349 64.3782 84.4075C63.8872 84.0802 63.8872 83.7529 64.3782 83.4255C64.8692 83.2619 65.5239 83.2619 66.0149 83.4255Z" fill="#16110D"/>
<path d="M70.1066 80.9705C70.5976 81.2979 70.5976 81.6252 70.1066 81.9525C69.6156 82.2799 68.9609 82.2799 68.4699 81.9525C67.9789 81.6252 67.9789 81.2979 68.4699 80.9705C68.9609 80.8069 69.7793 80.8069 70.1066 80.9705Z" fill="#16110D"/>
<path d="M74.3618 78.6792C74.8528 79.0065 74.8528 79.3339 74.3618 79.6612C73.8708 79.9885 73.2162 79.9885 72.7252 79.6612C72.2342 79.3339 72.2342 79.0065 72.7252 78.6792C73.2162 78.3519 73.8708 78.3519 74.3618 78.6792Z" fill="#16110D"/>
<path d="M78.4535 76.2242C78.9445 76.5515 78.9445 76.8789 78.4535 77.2062C77.9625 77.5335 77.3079 77.5335 76.8169 77.2062C76.3259 76.8789 76.3259 76.5515 76.8169 76.2242C77.3079 75.8969 77.9625 76.0605 78.4535 76.2242Z" fill="#16110D"/>
<path d="M81.7268 74.9149C82.3596 74.9149 82.8725 74.6218 82.8725 74.2603C82.8725 73.8987 82.3596 73.6056 81.7268 73.6056C81.0941 73.6056 80.5812 73.8987 80.5812 74.2603C80.5812 74.6218 81.0941 74.9149 81.7268 74.9149Z" fill="#16110D"/>
<path d="M86.8006 71.4779C87.2916 71.8052 87.2916 72.1326 86.8006 72.4599C86.3096 72.7872 85.6549 72.7872 85.1639 72.4599C84.6729 72.1326 84.6729 71.8052 85.1639 71.4779C85.4912 71.1506 86.3096 71.1506 86.8006 71.4779Z" fill="#16110D"/>
<path d="M90.0739 70.1686C90.7066 70.1686 91.2196 69.8755 91.2196 69.5139C91.2196 69.1524 90.7066 68.8593 90.0739 68.8593C89.4412 68.8593 88.9282 69.1524 88.9282 69.5139C88.9282 69.8755 89.4412 70.1686 90.0739 70.1686Z" fill="#16110D"/>
<path d="M94.9839 66.7315C95.4749 67.0589 95.4749 67.3862 94.9839 67.7135C94.4929 68.0409 93.8383 68.0409 93.3473 67.7135C92.8563 67.3862 92.8563 67.0589 93.3473 66.7315C93.8383 66.4042 94.4929 66.4042 94.9839 66.7315Z" fill="#16110D"/>
<path d="M98.4209 65.4222C99.0536 65.4222 99.5665 65.1291 99.5665 64.7676C99.5665 64.406 99.0536 64.1129 98.4209 64.1129C97.7881 64.1129 97.2752 64.406 97.2752 64.7676C97.2752 65.1291 97.7881 65.4222 98.4209 65.4222Z" fill="#16110D"/>
<path d="M103.331 61.9852C103.822 62.3125 103.822 62.6399 103.331 62.9672C102.84 63.2946 102.185 63.2946 101.694 62.9672C101.203 62.6399 101.203 62.3125 101.694 61.9852C102.185 61.6579 102.84 61.6579 103.331 61.9852Z" fill="#16110D"/>
<path d="M53.5762 85.8806C54.0672 86.2079 54.0672 86.5352 53.5762 86.8626C53.0852 87.1899 52.4305 87.1899 51.9395 86.8626C51.4485 86.5352 51.4485 86.2079 51.9395 85.8806C52.4305 85.5532 53.0852 85.5532 53.5762 85.8806Z" fill="#16110D"/>
<path d="M56.8496 84.5712C57.4823 84.5712 57.9952 84.2781 57.9952 83.9165C57.9952 83.5549 57.4823 83.2618 56.8496 83.2618C56.2169 83.2618 55.7039 83.5549 55.7039 83.9165C55.7039 84.2781 56.2169 84.5712 56.8496 84.5712Z" fill="#16110D"/>
<path d="M61.9232 80.9705C62.4142 81.2979 62.4142 81.6252 61.9232 81.9525C61.4322 82.2799 60.7775 82.2799 60.2865 81.9525C59.7955 81.6252 59.7955 81.2979 60.2865 80.9705C60.7775 80.8069 61.4322 80.8069 61.9232 80.9705Z" fill="#16110D"/>
<path d="M65.1966 79.8249C65.8293 79.8249 66.3422 79.5318 66.3422 79.1702C66.3422 78.8087 65.8293 78.5156 65.1966 78.5156C64.5638 78.5156 64.0509 78.8087 64.0509 79.1702C64.0509 79.5318 64.5638 79.8249 65.1966 79.8249Z" fill="#16110D"/>
<path d="M70.1066 76.2243C70.5976 76.5516 70.5976 76.8789 70.1066 77.2062C69.6156 77.5336 68.9609 77.5336 68.4699 77.2062C67.9789 76.8789 67.9789 76.5516 68.4699 76.2243C68.9609 76.0606 69.7793 76.0606 70.1066 76.2243Z" fill="#16110D"/>
<path d="M73.5436 74.9149C74.1763 74.9149 74.6892 74.6218 74.6892 74.2603C74.6892 73.8987 74.1763 73.6056 73.5436 73.6056C72.9108 73.6056 72.3979 73.8987 72.3979 74.2603C72.3979 74.6218 72.9108 74.9149 73.5436 74.9149Z" fill="#16110D"/>
<path d="M78.4535 71.4779C78.9445 71.8052 78.9445 72.1326 78.4535 72.4599C77.9625 72.7872 77.3079 72.7872 76.8169 72.4599C76.3259 72.1326 76.3259 71.8052 76.8169 71.4779C77.3079 71.1506 77.9625 71.1506 78.4535 71.4779Z" fill="#16110D"/>
<path d="M82.5452 69.0229C83.0362 69.3502 83.0362 69.6776 82.5452 70.0049C82.0542 70.3322 81.3995 70.3322 80.9085 70.0049C80.4175 69.6776 80.4175 69.3502 80.9085 69.0229C81.3995 68.8592 82.2179 68.8592 82.5452 69.0229Z" fill="#16110D"/>
<path d="M86.8006 66.7315C87.2916 67.0589 87.2916 67.3862 86.8006 67.7135C86.3096 68.0409 85.6549 68.0409 85.1639 67.7135C84.6729 67.3862 84.6729 67.0589 85.1639 66.7315C85.4912 66.4042 86.3096 66.4042 86.8006 66.7315Z" fill="#16110D"/>
<path d="M90.0739 65.4222C90.7066 65.4222 91.2196 65.1291 91.2196 64.7676C91.2196 64.406 90.7066 64.1129 90.0739 64.1129C89.4412 64.1129 88.9282 64.406 88.9282 64.7676C88.9282 65.1291 89.4412 65.4222 90.0739 65.4222Z" fill="#16110D"/>
<path d="M94.9839 61.9852C95.4749 62.3125 95.4749 62.6399 94.9839 62.9672C94.4929 63.2946 93.8383 63.2946 93.3473 62.9672C92.8563 62.6399 92.8563 62.3125 93.3473 61.9852C93.8383 61.6579 94.4929 61.6579 94.9839 61.9852Z" fill="#16110D"/>
<path d="M98.4209 60.6759C99.0536 60.6759 99.5665 60.3828 99.5665 60.0212C99.5665 59.6597 99.0536 59.3666 98.4209 59.3666C97.7881 59.3666 97.2752 59.6597 97.2752 60.0212C97.2752 60.3828 97.7881 60.6759 98.4209 60.6759Z" fill="#16110D"/>
<path d="M48.6662 84.5712C49.299 84.5712 49.8119 84.2781 49.8119 83.9165C49.8119 83.5549 49.299 83.2618 48.6662 83.2618C48.0335 83.2618 47.5206 83.5549 47.5206 83.9165C47.5206 84.2781 48.0335 84.5712 48.6662 84.5712Z" fill="#16110D"/>
<path d="M53.5762 80.9705C54.0672 81.2979 54.0672 81.6252 53.5762 81.9525C53.0852 82.2799 52.4305 82.2799 51.9395 81.9525C51.4485 81.6252 51.4485 81.2979 51.9395 80.9705C52.4305 80.8069 53.0852 80.8069 53.5762 80.9705Z" fill="#16110D"/>
<path d="M57.6679 78.6792C58.1589 79.0065 58.1589 79.3339 57.6679 79.6612C57.1769 79.9885 56.5222 79.9885 56.0312 79.6612C55.5402 79.3339 55.5402 79.0065 56.0312 78.6792C56.5222 78.3519 57.3405 78.3519 57.6679 78.6792Z" fill="#16110D"/>
<path d="M61.9232 76.2243C62.4142 76.5516 62.4142 76.8789 61.9232 77.2062C61.4322 77.5336 60.7775 77.5336 60.2865 77.2062C59.7955 76.8789 59.7955 76.5516 60.2865 76.2243C60.7775 76.0606 61.4322 76.0606 61.9232 76.2243Z" fill="#16110D"/>
<path d="M66.0149 73.9329C66.5059 74.2602 66.5059 74.5875 66.0149 74.9149C65.5239 75.2422 64.8692 75.2422 64.3782 74.9149C63.8872 74.5875 63.8872 74.2602 64.3782 73.9329C64.8692 73.6055 65.5239 73.6055 66.0149 73.9329Z" fill="#16110D"/>
<path d="M45.2292 80.9705C45.7202 81.2979 45.7202 81.6252 45.2292 81.9525C44.7382 82.2799 44.0836 82.2799 43.5926 81.9525C43.1016 81.6252 43.1016 81.2979 43.5926 80.9705C44.0836 80.8069 44.9019 80.8069 45.2292 80.9705Z" fill="#16110D"/>
<path d="M49.4845 78.6792C49.9755 79.0065 49.9755 79.3339 49.4845 79.6612C48.9935 79.9885 48.3389 79.9885 47.8479 79.6612C47.3569 79.3339 47.3569 79.0065 47.8479 78.6792C48.3389 78.3519 48.9935 78.3519 49.4845 78.6792Z" fill="#16110D"/>
<path d="M52.7578 77.3699C53.3906 77.3699 53.9035 77.0768 53.9035 76.7152C53.9035 76.3536 53.3906 76.0605 52.7578 76.0605C52.1251 76.0605 51.6122 76.3536 51.6122 76.7152C51.6122 77.0768 52.1251 77.3699 52.7578 77.3699Z" fill="#16110D"/>
<path d="M56.8496 74.9149C57.4823 74.9149 57.9952 74.6218 57.9952 74.2603C57.9952 73.8987 57.4823 73.6056 56.8496 73.6056C56.2169 73.6056 55.7039 73.8987 55.7039 74.2603C55.7039 74.6218 56.2169 74.9149 56.8496 74.9149Z" fill="#16110D"/>
<path d="M40.3193 79.8249C40.952 79.8249 41.4649 79.5318 41.4649 79.1702C41.4649 78.8087 40.952 78.5156 40.3193 78.5156C39.6865 78.5156 39.1736 78.8087 39.1736 79.1702C39.1736 79.5318 39.6865 79.8249 40.3193 79.8249Z" fill="#16110D"/>
<path d="M45.2292 76.2243C45.7202 76.5516 45.7202 76.8789 45.2292 77.2062C44.7382 77.5336 44.0836 77.5336 43.5926 77.2062C43.1016 76.8789 43.1016 76.5516 43.5926 76.2243C44.0836 76.0606 44.9019 76.0606 45.2292 76.2243Z" fill="#16110D"/>
<path d="M49.4845 73.9329C49.9755 74.2602 49.9755 74.5875 49.4845 74.9149C48.9935 75.2422 48.3389 75.2422 47.8479 74.9149C47.3569 74.5875 47.3569 74.2602 47.8479 73.9329C48.3389 73.6055 48.9935 73.6055 49.4845 73.9329Z" fill="#16110D"/>
<path d="M53.5762 71.4779C54.0672 71.8052 54.0672 72.1326 53.5762 72.4599C53.0852 72.7872 52.4305 72.7872 51.9395 72.4599C51.4485 72.1326 51.4485 71.8052 51.9395 71.4779C52.4305 71.1506 53.0852 71.1506 53.5762 71.4779Z" fill="#16110D"/>
<path d="M37.0459 76.2243C37.5369 76.5516 37.5369 76.8789 37.0459 77.2062C36.5549 77.5336 35.9003 77.5336 35.4093 77.2062C34.9183 76.8789 34.9183 76.5516 35.4093 76.2243C35.9003 76.0606 36.5549 76.0606 37.0459 76.2243Z" fill="#16110D"/>
<path d="M41.1375 73.7692C41.6285 74.0965 41.6285 74.4239 41.1375 74.7512C40.6465 75.0785 39.9919 75.0785 39.5009 74.7512C39.0099 74.4239 39.0099 74.0965 39.5009 73.7692C39.9919 73.6055 40.6465 73.6055 41.1375 73.7692Z" fill="#16110D"/>
<path d="M45.2292 71.4779C45.7202 71.8052 45.7202 72.1326 45.2292 72.4599C44.7382 72.7872 44.0836 72.7872 43.5926 72.4599C43.1016 72.1326 43.1016 71.8052 43.5926 71.4779C44.0836 71.1506 44.7382 71.1506 45.2292 71.4779Z" fill="#16110D"/>
<path d="M49.3209 69.0229C49.8119 69.3502 49.8119 69.6776 49.3209 70.0049C48.8299 70.3322 48.1752 70.3322 47.6842 70.0049C47.1932 69.6776 47.1932 69.3502 47.6842 69.0229C48.1752 68.8592 48.9936 68.8592 49.3209 69.0229Z" fill="#16110D"/>
<path d="M32.7906 73.7692C33.2816 74.0965 33.2816 74.4239 32.7906 74.7512C32.2996 75.0785 31.6449 75.0785 31.1539 74.7512C30.6629 74.4239 30.6629 74.0965 31.1539 73.7692C31.6449 73.6055 32.4633 73.6055 32.7906 73.7692Z" fill="#16110D"/>
<path d="M37.0459 71.4779C37.5369 71.8052 37.5369 72.1326 37.0459 72.4599C36.5549 72.7872 35.9003 72.7872 35.4093 72.4599C34.9183 72.1326 34.9183 71.8052 35.4093 71.4779C35.9003 71.1506 36.5549 71.1506 37.0459 71.4779Z" fill="#16110D"/>
<path d="M41.1375 69.0229C41.6285 69.3502 41.6285 69.6776 41.1375 70.0049C40.6465 70.3322 39.9919 70.3322 39.5009 70.0049C39.0099 69.6776 39.0099 69.3502 39.5009 69.0229C39.9919 68.8592 40.6465 68.8592 41.1375 69.0229Z" fill="#16110D"/>
<path d="M45.2292 66.7315C45.7202 67.0589 45.7202 67.3862 45.2292 67.7135C44.7382 68.0409 44.0836 68.0409 43.5926 67.7135C43.1016 67.3862 43.1016 67.0589 43.5926 66.7315C44.0836 66.4042 44.7382 66.4042 45.2292 66.7315Z" fill="#16110D"/>
<path d="M28.6989 71.4779C29.1899 71.8052 29.1899 72.1326 28.6989 72.4599C28.2079 72.7872 27.5532 72.7872 27.0623 72.4599C26.5713 72.1326 26.5713 71.8052 27.0623 71.4779C27.5532 71.1506 28.2079 71.1506 28.6989 71.4779Z" fill="#16110D"/>
<path d="M32.7906 69.0229C33.2816 69.3502 33.2816 69.6776 32.7906 70.0049C32.2996 70.3322 31.6449 70.3322 31.1539 70.0049C30.6629 69.6776 30.6629 69.3502 31.1539 69.0229C31.6449 68.8592 32.4633 68.8592 32.7906 69.0229Z" fill="#16110D"/>
<path d="M37.0459 66.7315C37.5369 67.0589 37.5369 67.3862 37.0459 67.7135C36.5549 68.0409 35.9003 68.0409 35.4093 67.7135C34.9183 67.3862 34.9183 67.0589 35.4093 66.7315C35.9003 66.4042 36.5549 66.4042 37.0459 66.7315Z" fill="#16110D"/>
<path d="M41.1375 64.2765C41.6285 64.6039 41.6285 64.9312 41.1375 65.2585C40.6465 65.5859 39.9919 65.5859 39.5009 65.2585C39.0099 64.9312 39.0099 64.6039 39.5009 64.2765C39.9919 63.9492 40.6465 63.9492 41.1375 64.2765Z" fill="#16110D"/>
<path d="M24.6072 69.0229C25.0982 69.3502 25.0982 69.6776 24.6072 70.0049C24.1162 70.3322 23.4615 70.3322 22.9705 70.0049C22.4795 69.6776 22.4795 69.3502 22.9705 69.0229C23.4615 68.8592 24.1162 68.8592 24.6072 69.0229Z" fill="#16110D"/>
<path d="M27.8806 67.7136C28.5133 67.7136 29.0262 67.4205 29.0262 67.0589C29.0262 66.6974 28.5133 66.4043 27.8806 66.4043C27.2478 66.4043 26.7349 66.6974 26.7349 67.0589C26.7349 67.4205 27.2478 67.7136 27.8806 67.7136Z" fill="#16110D"/>
<path d="M32.7906 64.2765C33.2816 64.6039 33.2816 64.9312 32.7906 65.2585C32.2996 65.5859 31.6449 65.5859 31.1539 65.2585C30.6629 64.9312 30.6629 64.6039 31.1539 64.2765C31.6449 63.9492 32.4633 63.9492 32.7906 64.2765Z" fill="#16110D"/>
<path d="M37.0459 61.8215C37.5369 62.1489 37.5369 62.4762 37.0459 62.8035C36.5549 63.1309 35.9003 63.1309 35.4093 62.8035C34.9183 62.4762 34.9183 62.1489 35.4093 61.8215C35.9003 61.6579 36.5549 61.6579 37.0459 61.8215C37.3733 62.1489 36.5549 61.6579 37.0459 61.8215Z" fill="#16110D"/>
<path d="M114.133 64.2765C114.624 63.9492 115.278 63.9492 115.769 64.2765C116.26 64.6039 116.26 64.9312 115.769 65.2585C115.278 65.5859 114.624 65.5859 114.133 65.2585C113.805 64.9312 113.805 64.6039 114.133 64.2765Z" fill="#16110D"/>
<path d="M119.043 62.9672C119.676 62.9672 120.188 62.6741 120.188 62.3126C120.188 61.951 119.676 61.6579 119.043 61.6579C118.41 61.6579 117.897 61.951 117.897 62.3126C117.897 62.6741 118.41 62.9672 119.043 62.9672Z" fill="#16110D"/>
<path d="M110.86 62.9672C111.492 62.9672 112.005 62.6741 112.005 62.3126C112.005 61.951 111.492 61.6579 110.86 61.6579C110.227 61.6579 109.714 61.951 109.714 62.3126C109.714 62.6741 110.227 62.9672 110.86 62.9672Z" fill="#16110D"/>
<path d="M115.77 59.5303C116.261 59.8576 116.261 60.1849 115.77 60.5123C115.279 60.8396 114.624 60.8396 114.133 60.5123C113.642 60.1849 113.642 59.8576 114.133 59.5303C114.624 59.3666 115.279 59.3666 115.77 59.5303Z" fill="#16110D"/>
<path d="M119.861 57.0753C120.352 57.4026 120.352 57.7299 119.861 58.0573C119.37 58.3846 118.716 58.3846 118.225 58.0573C117.734 57.7299 117.734 57.4026 118.225 57.0753C118.716 56.9116 119.534 56.9116 119.861 57.0753Z" fill="#16110D"/>
<path d="M105.95 59.5302C106.441 59.2029 107.095 59.2029 107.586 59.5302C108.077 59.8576 108.077 60.1849 107.586 60.5122C107.095 60.8396 106.441 60.8396 105.95 60.5122C105.459 60.1849 105.459 59.8576 105.95 59.5302Z" fill="#16110D"/>
<path d="M111.678 57.0753C112.169 57.4026 112.169 57.7299 111.678 58.0573C111.187 58.3846 110.532 58.3846 110.041 58.0573C109.55 57.7299 109.55 57.4026 110.041 57.0753C110.532 56.9116 111.187 56.9116 111.678 57.0753Z" fill="#16110D"/>
<path d="M114.951 55.9295C115.584 55.9295 116.097 55.6364 116.097 55.2748C116.097 54.9133 115.584 54.6202 114.951 54.6202C114.318 54.6202 113.806 54.9133 113.806 55.2748C113.806 55.6364 114.318 55.9295 114.951 55.9295Z" fill="#16110D"/>
<path d="M101.694 57.0753C102.185 56.7479 102.84 56.7479 103.331 57.0753C103.822 57.4026 103.822 57.7299 103.331 58.0573C102.84 58.3846 102.185 58.3846 101.694 58.0573C101.367 57.8936 101.367 57.4026 101.694 57.0753Z" fill="#16110D"/>
<path d="M107.423 54.7839C107.914 55.1112 107.914 55.4386 107.423 55.7659C106.932 56.0932 106.277 56.0932 105.786 55.7659C105.295 55.4386 105.295 55.1112 105.786 54.7839C106.277 54.4566 107.095 54.4566 107.423 54.7839Z" fill="#16110D"/>
<path d="M111.678 52.3289C112.169 52.6563 112.169 52.9836 111.678 53.3109C111.187 53.6383 110.532 53.6383 110.041 53.3109C109.55 52.9836 109.55 52.6563 110.041 52.3289C110.532 52.1653 111.187 52.1653 111.678 52.3289Z" fill="#16110D"/>
<path d="M16.0966 49.0556L16.2602 37.108H115.279L115.115 48.7283C115.115 49.0556 115.115 48.7283 115.115 49.0556C114.951 50.856 113.478 52.4926 111.023 53.9656L74.0345 75.2423C69.1245 78.0246 61.5959 78.352 57.3405 75.897L19.0426 53.6383C16.9149 52.4926 15.9329 50.6923 16.0966 49.0556Z" fill="#0066FF"/>
<path d="M16.0966 49.0556L16.2602 37.108H115.279L115.115 48.7283C115.115 49.0556 115.115 48.7283 115.115 49.0556C114.951 50.856 113.478 52.4926 111.023 53.9656L74.0345 75.2423C69.1245 78.0246 61.5959 78.352 57.3405 75.897L19.0426 53.6383C16.9149 52.4926 15.9329 50.856 16.0966 49.0556Z" fill="#0066FF"/>
<path d="M64.7056 78.3519C61.9232 78.3519 59.1409 77.8609 57.1769 76.5516L18.7152 54.293C16.4239 52.9836 15.2782 51.0196 15.6056 49.0556L15.7692 37.4353L116.097 36.4533L115.933 48.7283C115.933 48.892 115.933 49.0556 115.933 49.2193C115.606 51.1833 114.133 53.1473 111.514 54.6203L74.5256 75.8969C71.7432 77.5336 68.1426 78.3519 64.7056 78.3519ZM16.9149 37.599L16.7512 49.0556C16.5876 50.5286 17.4059 52.0016 19.2062 53.1473L57.8316 75.4059C61.9232 77.6973 69.1245 77.5336 73.8709 74.7513L110.86 53.4746C112.987 52.1653 114.297 50.6923 114.624 49.0556V48.892L114.788 37.9263H16.9149V37.599Z" fill="#16110D"/>
<path d="M19.2062 42.018L57.6679 64.2766C61.9232 66.7316 69.4519 66.4043 74.3619 63.622L111.351 42.3453C116.261 39.563 116.751 35.144 112.496 32.689L73.8709 10.4303C69.6155 7.97532 62.0869 8.30266 57.1769 11.085L20.1882 32.3616C15.4419 35.3076 14.7872 39.563 19.2062 42.018Z" fill="#0066FF"/>
<path d="M18.7153 46.4369L57.1769 68.6956C61.4322 71.1506 68.9609 70.8232 73.8709 68.0409L110.86 46.7642C115.77 43.9819 116.261 39.5629 112.005 37.1079L73.5436 14.8493C69.2882 12.3943 61.7596 12.7216 56.8496 15.5039L19.8609 36.7806C14.9509 39.7266 14.4599 43.9819 18.7153 46.4369Z" fill="white"/>
<path d="M64.8696 66.5679C62.0873 66.5679 59.305 66.0769 57.341 64.7676L18.8793 42.5089C16.7517 41.3633 15.606 39.5629 15.606 37.7626C15.606 35.635 17.2427 33.3436 20.025 31.707L57.0136 10.4303C62.0873 7.4843 69.9433 7.15697 74.3623 9.77563L112.824 32.0343C114.952 33.18 116.097 34.9803 116.097 36.7806C116.097 38.9083 114.461 41.1996 111.678 42.8363L74.6896 64.1129C71.9073 65.7496 68.3066 66.5679 64.8696 66.5679ZM66.67 9.28464C63.5603 9.28464 60.1233 10.103 57.5046 11.576L20.516 32.8526C18.2247 34.3256 16.9153 36.1259 16.9153 37.7626C16.9153 39.0719 17.8973 40.3813 19.534 41.3633L57.9956 63.6219C62.0873 65.9133 69.2886 65.7496 74.0349 62.9673L111.024 41.6906C113.479 40.3813 114.788 38.581 114.788 36.7806C114.788 35.4713 113.806 34.162 112.169 33.18L73.5439 10.9213C71.7436 9.77564 69.2886 9.28464 66.67 9.28464Z" fill="#16110D"/>
<path d="M65.0329 65.9133V77.6973L70.7612 76.7153L78.1262 73.2783L113.151 52.6563L115.279 49.8739V36.9443L113.969 40.7086L106.277 45.1276L70.9249 65.0949L65.0329 65.9133Z" fill="#16110D"/>
<path d="M59.1409 65.0949V76.7152L54.8856 74.7512V63.1309L59.1409 65.0949Z" fill="#16110D"/>
<path d="M18.3879 41.8543V52.9836L16.7513 51.6743L15.6056 44.1456L16.0966 37.5989L18.3879 41.8543Z" fill="#16110D"/>
<path d="M74.3612 39.7971L62.0773 32.7049L94.4477 27.9872L47.0001 32.3651L59.6295 39.6567L36.3431 46.0908L74.3612 39.7971Z" fill="#16110D"/>
<path d="M75.0071 40.1073L63.7015 33.4373L86.6374 29.2614L49.858 32.9717L62.2173 40.1073L41.5322 45.4347L75.0071 40.1073Z" fill="#0066FF"/>
<path d="M75.0071 40.1073L63.7015 33.4373L86.6374 29.2614L49.858 32.9717L62.2173 40.1073L41.5322 45.4347L75.0071 40.1073Z" fill="#0066FF"/>
<path d="M87.9949 29.1197L69.8733 33.9397L68.6759 34.2582L69.6081 34.7964L81.4043 41.6069L42.8263 44.9865L60.4586 40.4011L61.6715 40.0856L60.7309 39.5425L48.9222 32.7248L87.9949 29.1197Z" stroke="black" stroke-width="1.5" stroke-linecap="round"/>
</svg>
