<svg width="126" height="154" viewBox="0 0 126 154" fill="none" xmlns="http://www.w3.org/2000/svg">
<path fill-rule="evenodd" clip-rule="evenodd" d="M99.7422 151.961C126.799 146.514 128.245 111.133 122.817 84.1736C117.39 57.2146 91.1702 42.4998 64.2111 47.9272C37.252 53.3547 -3.74364 93.9439 1.68379 120.903C7.11122 147.862 72.7831 157.388 99.7422 151.961Z" fill="#F2F7FF"/>
<path d="M65.3618 113.726C65.8528 114.053 65.8528 114.38 65.3618 114.708C64.8708 115.035 64.2162 115.035 63.7252 114.708C63.2342 114.38 63.2342 114.053 63.7252 113.726C64.2162 113.562 64.8708 113.562 65.3618 113.726Z" fill="#16110D"/>
<path d="M69.4535 111.434C69.9445 111.762 69.9445 112.089 69.4535 112.416C68.9625 112.744 68.3079 112.744 67.8169 112.416C67.3259 112.089 67.3259 111.762 67.8169 111.434C68.3079 111.107 68.9625 111.107 69.4535 111.434Z" fill="#16110D"/>
<path d="M73.5452 108.979C74.0362 109.307 74.0362 109.634 73.5452 109.961C73.0542 110.289 72.3995 110.289 71.9085 109.961C71.4175 109.634 71.4175 109.307 71.9085 108.979C72.3995 108.816 73.2179 108.816 73.5452 108.979Z" fill="#16110D"/>
<path d="M77.8006 106.524C78.2916 106.852 78.2916 107.179 77.8006 107.506C77.3096 107.834 76.6549 107.834 76.1639 107.506C75.6729 107.179 75.6729 106.852 76.1639 106.524C76.4912 106.361 77.3096 106.361 77.8006 106.524Z" fill="#16110D"/>
<path d="M81.8922 104.233C82.3832 104.56 82.3832 104.888 81.8922 105.215C81.4012 105.542 80.7465 105.542 80.2555 105.215C79.7645 104.888 79.7645 104.56 80.2555 104.233C80.7465 103.906 81.4012 103.906 81.8922 104.233Z" fill="#16110D"/>
<path d="M85.9839 101.778C86.4749 102.105 86.4749 102.433 85.9839 102.76C85.4929 103.087 84.8382 103.087 84.3472 102.76C83.8562 102.433 83.8562 102.105 84.3472 101.778C84.8382 101.614 85.4929 101.614 85.9839 101.778Z" fill="#16110D"/>
<path d="M90.0755 99.4866C90.5665 99.8139 90.5665 100.141 90.0755 100.469C89.5845 100.796 88.9299 100.796 88.4389 100.469C87.9479 100.141 87.9479 99.8139 88.4389 99.4866C88.9299 99.1593 89.7482 99.1593 90.0755 99.4866Z" fill="#16110D"/>
<path d="M93.5125 98.1773C94.1452 98.1773 94.6582 97.8842 94.6582 97.5226C94.6582 97.161 94.1452 96.8679 93.5125 96.8679C92.8798 96.8679 92.3668 97.161 92.3668 97.5226C92.3668 97.8842 92.8798 98.1773 93.5125 98.1773Z" fill="#16110D"/>
<path d="M97.6042 95.7223C98.2369 95.7223 98.7498 95.4292 98.7498 95.0676C98.7498 94.706 98.2369 94.4129 97.6042 94.4129C96.9714 94.4129 96.4585 94.706 96.4585 95.0676C96.4585 95.4292 96.9714 95.7223 97.6042 95.7223Z" fill="#16110D"/>
<path d="M102.514 92.2852C103.005 92.6126 103.005 92.9399 102.514 93.2672C102.023 93.5946 101.369 93.5946 100.878 93.2672C100.387 92.9399 100.387 92.6126 100.878 92.2852C101.369 91.9579 102.187 91.9579 102.514 92.2852Z" fill="#16110D"/>
<path d="M61.1066 111.434C61.5976 111.762 61.5976 112.089 61.1066 112.416C60.6156 112.744 59.9609 112.744 59.4699 112.416C58.9789 112.089 58.9789 111.762 59.4699 111.434C59.9609 111.107 60.7793 111.107 61.1066 111.434Z" fill="#16110D"/>
<path d="M65.3618 108.979C65.8528 109.307 65.8528 109.634 65.3618 109.961C64.8708 110.289 64.2162 110.289 63.7252 109.961C63.2342 109.634 63.2342 109.307 63.7252 108.979C64.2162 108.816 64.8708 108.816 65.3618 108.979Z" fill="#16110D"/>
<path d="M68.6352 107.67C69.2679 107.67 69.7808 107.377 69.7808 107.015C69.7808 106.654 69.2679 106.361 68.6352 106.361C68.0024 106.361 67.4895 106.654 67.4895 107.015C67.4895 107.377 68.0024 107.67 68.6352 107.67Z" fill="#16110D"/>
<path d="M72.7268 105.379C73.3596 105.379 73.8725 105.085 73.8725 104.724C73.8725 104.362 73.3596 104.069 72.7268 104.069C72.0941 104.069 71.5812 104.362 71.5812 104.724C71.5812 105.085 72.0941 105.379 72.7268 105.379Z" fill="#16110D"/>
<path d="M77.8006 101.778C78.2916 102.105 78.2916 102.433 77.8006 102.76C77.3096 103.087 76.6549 103.087 76.1639 102.76C75.6729 102.433 75.6729 102.105 76.1639 101.778C76.4912 101.614 77.3096 101.614 77.8006 101.778Z" fill="#16110D"/>
<path d="M81.8922 99.4866C82.3832 99.8139 82.3832 100.141 81.8922 100.469C81.4012 100.796 80.7465 100.796 80.2555 100.469C79.7645 100.141 79.7645 99.8139 80.2555 99.4866C80.7465 99.1593 81.4012 99.1593 81.8922 99.4866Z" fill="#16110D"/>
<path d="M85.9839 97.0316C86.4749 97.3589 86.4749 97.6863 85.9839 98.0136C85.4929 98.3409 84.8382 98.3409 84.3472 98.0136C83.8562 97.6863 83.8562 97.3589 84.3472 97.0316C84.8382 96.7043 85.4929 96.7043 85.9839 97.0316Z" fill="#16110D"/>
<path d="M90.0755 94.5766C90.5665 94.9039 90.5665 95.2313 90.0755 95.5586C89.5845 95.8859 88.9299 95.8859 88.4389 95.5586C87.9479 95.2313 87.9479 94.9039 88.4389 94.5766C88.9299 94.4129 89.7482 94.4129 90.0755 94.5766Z" fill="#16110D"/>
<path d="M94.3308 92.2852C94.8218 92.6126 94.8218 92.9399 94.3308 93.2672C93.8398 93.5946 93.1852 93.5946 92.6942 93.2672C92.2032 92.9399 92.2032 92.6126 92.6942 92.2852C93.1852 91.9579 93.8398 91.9579 94.3308 92.2852Z" fill="#16110D"/>
<path d="M97.6042 90.9759C98.2369 90.9759 98.7498 90.6828 98.7498 90.3212C98.7498 89.9597 98.2369 89.6666 97.6042 89.6666C96.9714 89.6666 96.4585 89.9597 96.4585 90.3212C96.4585 90.6828 96.9714 90.9759 97.6042 90.9759Z" fill="#16110D"/>
<path d="M57.0149 108.979C57.5059 109.307 57.5059 109.634 57.0149 109.961C56.5239 110.289 55.8692 110.289 55.3782 109.961C54.8872 109.634 54.8872 109.307 55.3782 108.979C55.8692 108.816 56.5239 108.816 57.0149 108.979Z" fill="#16110D"/>
<path d="M61.1066 106.524C61.5976 106.852 61.5976 107.179 61.1066 107.506C60.6156 107.834 59.9609 107.834 59.4699 107.506C58.9789 107.179 58.9789 106.852 59.4699 106.524C59.9609 106.361 60.7793 106.361 61.1066 106.524Z" fill="#16110D"/>
<path d="M65.3618 104.233C65.8528 104.56 65.8528 104.888 65.3618 105.215C64.8708 105.542 64.2162 105.542 63.7252 105.215C63.2342 104.888 63.2342 104.56 63.7252 104.233C64.2162 103.906 64.8708 103.906 65.3618 104.233Z" fill="#16110D"/>
<path d="M69.4535 101.778C69.9445 102.105 69.9445 102.433 69.4535 102.76C68.9625 103.087 68.3079 103.087 67.8169 102.76C67.3259 102.433 67.3259 102.105 67.8169 101.778C68.3079 101.451 68.9625 101.614 69.4535 101.778Z" fill="#16110D"/>
<path d="M72.7268 100.469C73.3596 100.469 73.8725 100.176 73.8725 99.814C73.8725 99.4524 73.3596 99.1593 72.7268 99.1593C72.0941 99.1593 71.5812 99.4524 71.5812 99.814C71.5812 100.176 72.0941 100.469 72.7268 100.469Z" fill="#16110D"/>
<path d="M77.8006 97.0316C78.2916 97.3589 78.2916 97.6863 77.8006 98.0136C77.3096 98.3409 76.6549 98.3409 76.1639 98.0136C75.6729 97.6863 75.6729 97.3589 76.1639 97.0316C76.4912 96.7043 77.3096 96.7043 77.8006 97.0316Z" fill="#16110D"/>
<path d="M81.0739 95.7223C81.7066 95.7223 82.2196 95.4292 82.2196 95.0676C82.2196 94.706 81.7066 94.4129 81.0739 94.4129C80.4412 94.4129 79.9282 94.706 79.9282 95.0676C79.9282 95.4292 80.4412 95.7223 81.0739 95.7223Z" fill="#16110D"/>
<path d="M85.9839 92.2852C86.4749 92.6126 86.4749 92.9399 85.9839 93.2672C85.4929 93.5946 84.8382 93.5946 84.3472 93.2672C83.8562 92.9399 83.8562 92.6126 84.3472 92.2852C84.8382 91.9579 85.4929 91.9579 85.9839 92.2852Z" fill="#16110D"/>
<path d="M89.4208 90.9759C90.0535 90.9759 90.5665 90.6828 90.5665 90.3212C90.5665 89.9597 90.0535 89.6666 89.4208 89.6666C88.7881 89.6666 88.2751 89.9597 88.2751 90.3212C88.2751 90.6828 88.7881 90.9759 89.4208 90.9759Z" fill="#16110D"/>
<path d="M94.3308 87.5389C94.8218 87.8663 94.8218 88.1936 94.3308 88.5209C93.8398 88.8483 93.1852 88.8483 92.6942 88.5209C92.2032 88.1936 92.2032 87.8663 92.6942 87.5389C93.1852 87.2116 93.8398 87.2116 94.3308 87.5389Z" fill="#16110D"/>
<path d="M52.9232 106.524C53.4142 106.852 53.4142 107.179 52.9232 107.506C52.4322 107.834 51.7775 107.834 51.2865 107.506C50.7955 107.179 50.7955 106.852 51.2865 106.524C51.7775 106.361 52.4322 106.361 52.9232 106.524Z" fill="#16110D"/>
<path d="M56.1966 105.379C56.8293 105.379 57.3422 105.085 57.3422 104.724C57.3422 104.362 56.8293 104.069 56.1966 104.069C55.5638 104.069 55.0509 104.362 55.0509 104.724C55.0509 105.085 55.5638 105.379 56.1966 105.379Z" fill="#16110D"/>
<path d="M61.1066 101.778C61.5976 102.105 61.5976 102.433 61.1066 102.76C60.6156 103.087 59.9609 103.087 59.4699 102.76C58.9789 102.433 58.9789 102.105 59.4699 101.778C59.9609 101.614 60.7793 101.614 61.1066 101.778Z" fill="#16110D"/>
<path d="M64.5436 100.469C65.1763 100.469 65.6892 100.176 65.6892 99.814C65.6892 99.4524 65.1763 99.1593 64.5436 99.1593C63.9108 99.1593 63.3979 99.4524 63.3979 99.814C63.3979 100.176 63.9108 100.469 64.5436 100.469Z" fill="#16110D"/>
<path d="M69.4535 97.0316C69.9445 97.3589 69.9445 97.6863 69.4535 98.0136C68.9625 98.3409 68.3079 98.3409 67.8169 98.0136C67.3259 97.6863 67.3259 97.3589 67.8169 97.0316C68.3079 96.7043 68.9625 96.7043 69.4535 97.0316Z" fill="#16110D"/>
<path d="M73.5452 94.5766C74.0362 94.9039 74.0362 95.2313 73.5452 95.5586C73.0542 95.8859 72.3995 95.8859 71.9085 95.5586C71.4175 95.2313 71.4175 94.9039 71.9085 94.5766C72.3995 94.4129 73.2179 94.4129 73.5452 94.5766Z" fill="#16110D"/>
<path d="M77.8006 92.2852C78.2916 92.6126 78.2916 92.9399 77.8006 93.2672C77.3096 93.5946 76.6549 93.5946 76.1639 93.2672C75.6729 92.9399 75.6729 92.6126 76.1639 92.2852C76.4912 91.9579 77.3096 91.9579 77.8006 92.2852Z" fill="#16110D"/>
<path d="M81.0739 90.9759C81.7066 90.9759 82.2196 90.6828 82.2196 90.3212C82.2196 89.9597 81.7066 89.6666 81.0739 89.6666C80.4412 89.6666 79.9282 89.9597 79.9282 90.3212C79.9282 90.6828 80.4412 90.9759 81.0739 90.9759Z" fill="#16110D"/>
<path d="M85.9839 87.5389C86.4749 87.8663 86.4749 88.1936 85.9839 88.5209C85.4929 88.8483 84.8382 88.8483 84.3472 88.5209C83.8562 88.1936 83.8562 87.8663 84.3472 87.5389C84.8382 87.2116 85.4929 87.2116 85.9839 87.5389Z" fill="#16110D"/>
<path d="M90.4208 86.2296C91.0535 86.2296 91.5665 85.9365 91.5665 85.575C91.5665 85.2134 91.0535 84.9203 90.4208 84.9203C89.7881 84.9203 89.2751 85.2134 89.2751 85.575C89.2751 85.9365 89.7881 86.2296 90.4208 86.2296Z" fill="#16110D"/>
<path d="M48.6679 104.233C49.1589 104.56 49.1589 104.888 48.6679 105.215C48.1769 105.542 47.5222 105.542 47.0312 105.215C46.5402 104.888 46.5402 104.56 47.0312 104.233C47.5222 103.906 48.3405 103.906 48.6679 104.233Z" fill="#16110D"/>
<path d="M52.9232 101.778C53.4142 102.105 53.4142 102.433 52.9232 102.76C52.4322 103.087 51.7775 103.087 51.2865 102.76C50.7955 102.433 50.7955 102.105 51.2865 101.778C51.7775 101.614 52.4322 101.614 52.9232 101.778Z" fill="#16110D"/>
<path d="M57.0149 99.4866C57.5059 99.8139 57.5059 100.141 57.0149 100.469C56.5239 100.796 55.8692 100.796 55.3782 100.469C54.8872 100.141 54.8872 99.8139 55.3782 99.4866C55.8692 99.1593 56.5239 99.1593 57.0149 99.4866Z" fill="#16110D"/>
<path d="M43.7578 102.924C44.3906 102.924 44.9035 102.63 44.9035 102.269C44.9035 101.907 44.3906 101.614 43.7578 101.614C43.1251 101.614 42.6122 101.907 42.6122 102.269C42.6122 102.63 43.1251 102.924 43.7578 102.924Z" fill="#16110D"/>
<path d="M47.8495 100.469C48.4823 100.469 48.9952 100.176 48.9952 99.814C48.9952 99.4524 48.4823 99.1593 47.8495 99.1593C47.2168 99.1593 46.7039 99.4524 46.7039 99.814C46.7039 100.176 47.2168 100.469 47.8495 100.469Z" fill="#16110D"/>
<path d="M40.4845 99.4866C40.9755 99.8139 40.9755 100.141 40.4845 100.469C39.9935 100.796 39.3389 100.796 38.8479 100.469C38.3569 100.141 38.3569 99.8139 38.8479 99.4866C39.3389 99.1593 39.9935 99.1593 40.4845 99.4866Z" fill="#16110D"/>
<path d="M44.5762 97.0316C45.0672 97.3589 45.0672 97.6863 44.5762 98.0136C44.0852 98.3409 43.4305 98.3409 42.9395 98.0136C42.4485 97.6863 42.4485 97.3589 42.9395 97.0316C43.4305 96.7043 44.0852 96.7043 44.5762 97.0316Z" fill="#16110D"/>
<path d="M36.2292 97.0316C36.7202 97.3589 36.7202 97.6863 36.2292 98.0136C35.7382 98.3409 35.0836 98.3409 34.5926 98.0136C34.1016 97.6863 34.1016 97.3589 34.5926 97.0316C35.0836 96.7043 35.7382 96.7043 36.2292 97.0316Z" fill="#16110D"/>
<path d="M40.3208 94.5766C40.8118 94.9039 40.8118 95.2313 40.3208 95.5586C39.8298 95.8859 39.1752 95.8859 38.6842 95.5586C38.1932 95.2313 38.1932 94.9039 38.6842 94.5766C39.1752 94.4129 39.9935 94.4129 40.3208 94.5766Z" fill="#16110D"/>
<path d="M32.1375 94.5766C32.6285 94.9039 32.6285 95.2313 32.1375 95.5586C31.6465 95.8859 30.9919 95.8859 30.5009 95.5586C30.0099 95.2313 30.0099 94.9039 30.5009 94.5766C30.9919 94.4129 31.6465 94.4129 32.1375 94.5766Z" fill="#16110D"/>
<path d="M36.2292 92.2852C36.7202 92.6126 36.7202 92.9399 36.2292 93.2672C35.7382 93.5946 35.0836 93.5946 34.5926 93.2672C34.1016 92.9399 34.1016 92.6126 34.5926 92.2852C35.0836 91.9579 35.7382 91.9579 36.2292 92.2852Z" fill="#16110D"/>
<path d="M28.0459 92.2852C28.5369 92.6126 28.5369 92.9399 28.0459 93.2672C27.5549 93.5946 26.9003 93.5946 26.4093 93.2672C25.9183 92.9399 25.9183 92.6126 26.4093 92.2852C26.9003 91.9579 27.5549 91.9579 28.0459 92.2852Z" fill="#16110D"/>
<path d="M32.1375 89.8302C32.6285 90.1576 32.6285 90.4849 32.1375 90.8122C31.6465 91.1396 30.9919 91.1396 30.5009 90.8122C30.0099 90.4849 30.0099 90.1576 30.5009 89.8302C30.9919 89.5029 31.6465 89.5029 32.1375 89.8302Z" fill="#16110D"/>
<path d="M28.0459 87.3753C28.5369 87.7026 28.5369 88.0299 28.0459 88.3572C27.5549 88.6846 26.9003 88.6846 26.4093 88.3572C25.9183 88.0299 25.9183 87.7026 26.4093 87.3753C26.9003 87.2116 27.5549 87.2116 28.0459 87.3753C27.5549 87.2116 28.3733 87.7026 28.0459 87.3753Z" fill="#16110D"/>
<path d="M105.133 89.8302C105.624 89.5029 106.278 89.5029 106.769 89.8302C107.26 90.1576 107.26 90.4849 106.769 90.8122C106.278 91.1396 105.624 91.1396 105.133 90.8122C104.805 90.4849 104.805 90.1576 105.133 89.8302Z" fill="#16110D"/>
<path d="M110.043 88.5209C110.676 88.5209 111.188 88.2278 111.188 87.8663C111.188 87.5047 110.676 87.2116 110.043 87.2116C109.41 87.2116 108.897 87.5047 108.897 87.8663C108.897 88.2278 109.41 88.5209 110.043 88.5209Z" fill="#16110D"/>
<path d="M101.86 88.5209C102.492 88.5209 103.005 88.2278 103.005 87.8663C103.005 87.5047 102.492 87.2116 101.86 87.2116C101.227 87.2116 100.714 87.5047 100.714 87.8663C100.714 88.2278 101.227 88.5209 101.86 88.5209Z" fill="#16110D"/>
<path d="M106.77 85.084C107.261 85.4113 107.261 85.7386 106.77 86.066C106.279 86.3933 105.624 86.3933 105.133 86.066C104.642 85.7386 104.642 85.4113 105.133 85.084C105.624 84.9203 106.279 84.9203 106.77 85.084Z" fill="#16110D"/>
<path d="M110.861 82.629C111.352 82.9563 111.352 83.2836 110.861 83.611C110.37 83.9383 109.716 83.9383 109.225 83.611C108.734 83.2836 108.734 82.9563 109.225 82.629C109.716 82.4653 110.534 82.4653 110.861 82.629Z" fill="#16110D"/>
<path d="M96.9495 85.0839C97.4405 84.7566 98.0952 84.7566 98.5862 85.0839C99.0772 85.4113 99.0772 85.7386 98.5862 86.0659C98.0952 86.3933 97.4405 86.3933 96.9495 86.0659C96.4585 85.7386 96.4585 85.4113 96.9495 85.0839Z" fill="#16110D"/>
<path d="M102.678 82.629C103.169 82.9563 103.169 83.2836 102.678 83.611C102.187 83.9383 101.532 83.9383 101.041 83.611C100.55 83.2836 100.55 82.9563 101.041 82.629C101.532 82.4653 102.187 82.4653 102.678 82.629Z" fill="#16110D"/>
<path d="M105.951 81.4832C106.584 81.4832 107.097 81.1901 107.097 80.8286C107.097 80.467 106.584 80.1739 105.951 80.1739C105.318 80.1739 104.805 80.467 104.805 80.8286C104.805 81.1901 105.318 81.4832 105.951 81.4832Z" fill="#16110D"/>
<path d="M98.4225 80.3376C98.9135 80.6649 98.9135 80.9923 98.4225 81.3196C97.9315 81.6469 97.2769 81.6469 96.7859 81.3196C96.2949 80.9923 96.2949 80.6649 96.7859 80.3376C97.2769 80.0103 98.0952 80.0103 98.4225 80.3376Z" fill="#16110D"/>
<path d="M102.678 77.8826C103.169 78.21 103.169 78.5373 102.678 78.8646C102.187 79.192 101.532 79.192 101.041 78.8646C100.55 78.5373 100.55 78.21 101.041 77.8826C101.532 77.719 102.187 77.719 102.678 77.8826Z" fill="#16110D"/>
<path d="M3.36974 60.018C2.85123 59.7587 2.33271 59.8884 1.68456 60.5365C1.29567 60.9254 0.90678 61.5735 0.77715 62.2217C0.517891 63.1291 0.77715 63.6476 1.16604 63.9069L1.29567 64.0365L3.88826 65.4624L5.83271 62.6106L6.2216 61.7032V61.5735L3.36974 60.018Z" fill="#0066FF"/>
<path d="M0.907453 61.5741L4.66671 63.6482L3.24079 64.9445L0.907453 63.9075L0.648193 62.4815L0.907453 61.5741Z" fill="white"/>
<path d="M4.01846 65.7222L1.03698 64.1667C0.518457 63.9074 0.259197 63.1296 0.518457 62.2222C0.648086 61.5741 1.03698 60.9259 1.55549 60.4074C2.20364 59.7593 2.98142 59.5 3.49994 59.7593V59.8889L3.62957 59.7593L6.48142 61.1852C6.48142 61.3148 6.48142 61.5741 6.48142 61.7037L6.09253 62.6111L4.01846 65.7222ZM2.98142 60.1482C2.72216 60.1482 2.33327 60.2778 1.94438 60.6667C1.55549 61.0556 1.16661 61.7037 1.03698 62.2222C0.907346 62.8704 1.03698 63.3889 1.29623 63.6482L1.42586 63.7778L3.88883 65.0741L5.70364 62.4815L5.9629 61.8333L3.24068 60.4074C3.11105 60.1482 3.11105 60.1482 2.98142 60.1482Z" fill="#16110D"/>
<path d="M6.61111 62.4815C6.61111 63.5185 5.96296 64.6852 5.05556 65.2037C4.14815 65.7222 3.5 65.3333 3.5 64.2963C3.5 63.2593 4.14815 62.0926 5.05556 61.5741C5.96296 61.0556 6.61111 61.4444 6.61111 62.4815Z" fill="#16110D"/>
<path d="M4.27775 65.7223C4.01849 65.7223 3.88886 65.7223 3.75923 65.5926C3.37034 65.3334 3.11108 64.9445 3.11108 64.2963C3.11108 63.1297 3.88886 61.8334 4.79627 61.3149C5.31479 61.0556 5.83331 60.926 6.2222 61.1852C6.61109 61.4445 6.87035 61.8334 6.87035 62.4815C6.87035 63.6482 6.09257 64.9445 5.18516 65.463C4.9259 65.5926 4.53701 65.7223 4.27775 65.7223ZM5.70368 61.5741C5.57405 61.5741 5.31479 61.5741 5.18516 61.7037C4.40738 62.2223 3.75923 63.2593 3.75923 64.1667C3.75923 64.5556 3.88886 64.8149 4.14812 64.9445C4.40738 65.0741 4.66664 65.0741 5.05553 64.8149C5.83331 64.2963 6.48146 63.2593 6.48146 62.3519C6.48146 61.963 6.35183 61.7038 6.09257 61.5741C5.96294 61.7038 5.83331 61.5741 5.70368 61.5741Z" fill="#16110D"/>
<path d="M5.05481 98.9068C4.79555 98.6475 4.53629 98.5179 4.40666 98.6475C4.27703 98.7771 4.1474 98.7771 4.01777 98.9068C3.88814 98.9068 3.62888 98.7771 3.49925 98.5179L3.36962 98.2586C3.23999 97.8697 3.23999 97.6105 3.36962 97.4808L3.62888 97.3512C4.01777 97.092 4.1474 96.5734 4.1474 96.0549V94.629L3.23999 94.1105L2.59184 94.4994L2.8511 96.3142L2.72147 96.4438C2.33258 96.7031 2.20295 97.3512 2.46221 97.9994L2.33258 98.3883L3.36962 99.9438L4.53629 100.462L5.05481 100.073C4.92518 99.9438 5.05481 99.8142 5.18444 99.8142C5.31407 99.6846 5.31407 99.2957 5.05481 98.9068Z" fill="white"/>
<path d="M4.27768 100.463L3.11101 99.9445L2.07397 98.2593L2.2036 97.8704C2.07397 97.0926 2.2036 96.5741 2.59249 96.3148L2.72212 96.1852L2.46286 94.3704L3.24064 93.8519L4.27768 94.6296V96.0556C4.27768 96.7037 4.01842 97.2222 3.62953 97.4815L3.37027 97.6111C3.24064 97.7408 3.24064 98 3.37027 98.2593L3.4999 98.5185C3.62953 98.7778 3.88879 98.9074 3.88879 98.7778C4.01842 98.7778 4.14805 98.6482 4.27768 98.5185C4.40731 98.5185 4.53694 98.5185 4.66657 98.5185C4.7962 98.5185 5.05546 98.6482 5.18509 98.9074C5.44435 99.2963 5.44435 99.6852 5.18509 99.8148C5.05546 99.9445 4.92583 99.9445 4.7962 100.074L4.27768 100.463ZM3.24064 99.8148L4.27768 100.204L4.7962 99.9445C4.92583 99.8148 4.92583 99.8148 5.05546 99.6852C5.18509 99.5556 5.18509 99.2963 4.92583 99.0371C4.7962 98.9074 4.66657 98.7778 4.53694 98.7778H4.40731C4.27768 98.9074 4.14805 99.0371 4.01842 99.0371C3.75916 99.1667 3.4999 98.9074 3.37027 98.6482L3.24064 98.3889C2.98138 98 2.98138 97.6111 3.24064 97.3519L3.4999 97.2222C3.88879 96.963 4.01842 96.5741 4.01842 95.9259V94.6296L3.24064 94.1111L2.72212 94.6296L2.98138 96.4445L2.72212 96.5741C2.46286 96.8333 2.33323 97.3519 2.46286 98L2.33323 98.3889L3.24064 99.8148Z" fill="#16110D"/>
<path d="M3.3703 99.4256C3.24067 99.4256 2.98141 99.296 2.85178 99.0367L2.72215 98.7775C2.59252 98.3886 2.59252 98.1293 2.72215 97.9997L2.98141 97.8701C3.3703 97.6108 3.49993 97.0923 3.49993 96.5738V95.1478L2.59252 94.4997V95.9256C2.59252 96.3145 2.46289 96.5738 2.20363 96.7034L1.94437 96.833C1.42585 97.2219 1.42585 98.1293 1.94437 99.1664L2.074 99.4256C2.33326 99.9441 2.72215 100.203 3.11104 100.463C3.3703 100.592 3.75919 100.722 4.01844 100.592C4.2777 100.463 4.40733 100.463 4.53696 100.203C4.66659 100.074 4.66659 99.6849 4.40733 99.4256C4.14807 99.1664 3.88882 99.0367 3.75919 99.1664C3.62956 99.296 3.49993 99.296 3.3703 99.4256Z" fill="white"/>
<path d="M3.75925 100.722C3.49999 100.722 3.37036 100.593 3.1111 100.463C2.59258 100.333 2.33332 99.8148 2.07406 99.4259L1.94443 99.1667C1.42591 98.1296 1.42591 97.0926 1.94443 96.7037L2.20369 96.5741C2.33332 96.4444 2.46295 96.1852 2.46295 95.9259V94.3704L3.62962 95.0185V96.4444C3.62962 97.0926 3.37036 97.6111 2.98147 97.8704L2.72221 98C2.59258 98.1296 2.59258 98.3889 2.72221 98.6481L2.85184 98.9074C2.98147 99.1667 3.24073 99.2963 3.24073 99.1667C3.37036 99.1667 3.49999 99.037 3.62962 98.9074C3.75925 99.037 3.88888 98.9074 3.88888 99.037C4.01851 99.037 4.27777 99.1667 4.4074 99.4259C4.66665 99.8148 4.66665 100.204 4.53702 100.333C4.4074 100.463 4.14814 100.593 4.01851 100.722C3.88888 100.722 3.75925 100.722 3.75925 100.722ZM2.72221 94.7592V95.9259C2.72221 96.3148 2.59258 96.5741 2.33332 96.8333L2.07406 96.963C1.55554 97.2222 1.68517 98.2592 2.07406 99.1667L2.20369 99.4259C2.46295 99.8148 2.72221 100.204 3.1111 100.463C3.37036 100.593 3.62962 100.722 3.88888 100.593C4.01851 100.463 4.27777 100.463 4.4074 100.333C4.53703 100.204 4.53702 99.9444 4.27777 99.6852C4.14814 99.5555 4.01851 99.4259 3.88888 99.4259H3.75925C3.62962 99.5555 3.49999 99.6852 3.37036 99.6852C3.1111 99.8148 2.85184 99.5555 2.72221 99.2963L2.59258 98.9074C2.33332 98.5185 2.33332 98.1296 2.59258 97.8704L2.85184 97.7407C3.24073 97.4815 3.37036 97.0926 3.37036 96.4444V95.1481L2.72221 94.7592Z" fill="#16110D"/>
<path d="M5.05558 98.9075C4.92595 98.6482 4.79632 98.5186 4.53706 98.5186C4.40743 98.5186 4.2778 98.5186 4.2778 98.6482C4.14817 98.7778 4.01854 98.7778 3.88891 98.9075C3.75928 98.9075 3.62965 98.7778 3.50002 98.6482L3.37039 98.3889C3.24076 98.0001 3.24076 97.7408 3.37039 97.7408L3.62965 97.6112C4.01854 97.3519 4.2778 96.8334 4.2778 96.1852V94.6297L3.24076 93.9815L2.46299 94.5001L2.72225 96.3149H2.59262C2.20373 96.5741 2.0741 97.2223 2.20373 97.8704L2.0741 98.2593L3.11113 99.9445L4.2778 100.463L4.79632 100.074C4.92595 100.074 5.05558 99.9445 5.18521 99.8149C5.44447 99.6852 5.31484 99.2964 5.05558 98.9075ZM3.24076 94.2408L4.01854 94.7593L3.50002 95.1482L2.72225 94.7593V94.6297L3.24076 94.2408Z" fill="#16110D"/>
<path d="M3.36999 99.426C3.24036 99.426 2.9811 99.2963 2.85147 99.0371L2.59221 98.7778C2.46258 98.3889 2.46258 98.1297 2.59221 98L2.85147 97.8704C3.24036 97.6111 3.36999 97.0926 3.36999 96.5741V95.1482L2.59221 94.5V95.926C2.59221 96.3148 2.46258 96.5741 2.20332 96.7037L1.94406 96.8334C1.42555 97.2222 1.42555 98.1297 1.94406 99.1667L2.07369 99.426C2.33295 99.9445 2.72184 100.204 3.11073 100.463C3.36999 100.593 3.75888 100.722 4.01814 100.593C4.2774 100.463 4.40703 100.463 4.53666 100.204C4.66629 100.074 4.66629 99.6852 4.40703 99.426C4.14777 99.1667 3.88851 99.0371 3.75888 99.1667C3.62925 99.2963 3.49962 99.2963 3.36999 99.426Z" fill="white"/>
<path d="M3.62959 100.722C3.37033 100.722 3.2407 100.593 2.98144 100.463C2.59255 100.333 2.20366 99.8148 1.9444 99.426L1.81477 99.1667C1.29625 98.2593 1.29625 97.2222 1.9444 96.8334L2.20366 96.7037C2.33329 96.5741 2.46292 96.3148 2.46292 96.0556V94.5L3.62959 95.1482V96.5741C3.62959 97.2223 3.37033 97.7408 2.98144 98L2.72218 98.1297C2.59255 98.2593 2.59255 98.5185 2.72218 98.7778L2.85181 99.0371C2.98144 99.2963 3.2407 99.426 3.2407 99.2963C3.37033 99.2963 3.49996 99.1667 3.62959 99.0371C3.75922 98.9074 3.75922 98.9074 3.88885 98.9074C4.01848 98.9074 4.27774 99.0371 4.40737 99.2963C4.66663 99.6852 4.66663 100.074 4.537 100.204C4.40737 100.333 4.14811 100.463 4.01848 100.593C3.88885 100.722 3.75922 100.722 3.62959 100.722ZM2.59255 94.7593V95.926C2.59255 96.3148 2.46292 96.5741 2.20366 96.8334L1.9444 96.963C1.42588 97.2223 1.55551 98.2593 1.9444 99.1667L2.07403 99.426C2.33329 99.8148 2.59255 100.204 2.98144 100.463C3.2407 100.593 3.49996 100.722 3.75922 100.593C3.88885 100.463 4.14811 100.463 4.27774 100.333C4.40737 100.204 4.40737 99.9445 4.14811 99.6852C4.01848 99.5556 3.88885 99.426 3.75922 99.426H3.62959C3.49996 99.5556 3.37033 99.6852 3.2407 99.6852C2.98144 99.8148 2.72218 99.5556 2.59255 99.2963V98.9074C2.33329 98.5186 2.33329 98.1297 2.59255 97.8704L2.85181 97.7408C3.2407 97.4815 3.37033 97.0926 3.37033 96.4445V95.1482L2.59255 94.7593Z" fill="#16110D"/>
<path d="M3.37007 91.7775C3.11081 91.6479 2.72193 91.7775 2.33304 92.0368C2.07378 92.296 1.81452 92.6849 1.68489 93.0738C1.55526 93.5923 1.68489 93.9812 1.94415 94.1108H2.07378L3.75896 95.0183L4.92563 93.3331L5.18489 92.8145L3.37007 91.7775Z" fill="#0066FF"/>
<path d="M3.37042 92.5556C3.11116 92.426 2.72227 92.5556 2.33338 92.8149C2.07412 93.0741 1.81486 93.463 1.68523 93.8519C1.5556 94.3704 2.33338 94.2408 2.59264 94.3704H2.72227L3.75931 94.8889L4.79635 94.1112L5.05561 93.5926L3.37042 92.5556Z" fill="white"/>
<path d="M3.75927 95.2779L1.94446 94.3705C1.55557 94.2408 1.42594 93.7223 1.55557 93.2038C1.6852 92.8149 1.94446 92.426 2.20372 92.0371C2.59261 91.6482 3.11113 91.5186 3.37038 91.6482V91.7779V91.6482L5.1852 92.5556C5.31483 92.5556 5.31483 92.6853 5.31483 92.8149L5.05557 93.3334L3.75927 95.2779ZM3.11113 91.9075C2.9815 91.9075 2.72224 92.0371 2.46298 92.2964C2.20372 92.5556 1.94446 92.9445 1.94446 93.2038C1.81483 93.5927 1.94446 93.9816 2.07409 93.9816H2.20372L3.62964 94.7593L4.66668 93.0742L4.79631 92.6853L3.11113 91.7779C3.24076 91.9075 3.11113 91.9075 3.11113 91.9075Z" fill="#16110D"/>
<path d="M5.31449 93.3328C5.31449 93.9809 4.9256 94.7587 4.27745 95.018C3.75894 95.2772 3.24042 95.018 3.24042 94.4994C3.24042 93.8513 3.62931 93.0735 4.27745 92.8142C4.9256 92.4254 5.31449 92.6846 5.31449 93.3328Z" fill="#16110D"/>
<path d="M3.88886 95.2779C3.75923 95.2779 3.6296 95.2779 3.49997 95.1482C3.24071 95.0186 3.11108 94.7593 3.11108 94.3705C3.11108 93.7223 3.6296 92.8149 4.14812 92.5556C4.40738 92.426 4.79627 92.2964 5.05553 92.426C5.31479 92.5556 5.44442 92.8149 5.44442 93.2038C5.44442 93.8519 4.9259 94.7593 4.40738 95.0186C4.27775 95.2779 4.14812 95.2779 3.88886 95.2779ZM4.79627 92.8149C4.66664 92.8149 4.53701 92.8149 4.40738 92.9445C3.88886 93.2038 3.49997 93.9816 3.49997 94.5001C3.49997 94.7593 3.6296 94.889 3.75923 95.0186C3.88886 95.1482 4.01849 95.0186 4.27775 94.889C4.79627 94.5001 5.18516 93.8519 5.18516 93.3334C5.18516 93.0742 5.05553 92.9445 4.9259 92.8149C4.9259 92.8149 4.9259 92.8149 4.79627 92.8149Z" fill="#16110D"/>
<path d="M66.3698 53.9253V73.7587L71.4253 76.9994L88.6661 66.8883V53.4068L75.8327 48.3512L66.3698 53.9253Z" fill="#0066FF"/>
<path d="M71.426 77.2593L66.1111 73.8889V53.7963L75.963 48.0926H76.0926L89.0556 53.1482V67.0185L71.426 77.2593ZM66.6297 73.6296L71.426 76.6111L88.4074 66.7593V53.537L75.963 48.6111L66.6297 53.9259V73.6296Z" fill="#16110D"/>
<path d="M66.3704 73.7593L80.7593 82.0556V62.2223L66.3704 53.926V73.7593Z" fill="#0066FF"/>
<path d="M81.0186 82.5741L66.1111 74.0185V53.4074L81.1482 61.963V82.5741H81.0186ZM66.6297 73.6296L80.5 81.5371V62.3519L66.6297 54.4444V73.6296V73.6296Z" fill="#16110D"/>
<path d="M75.8333 48.3519L90.3519 56.6482L80.7593 62.2222L66.3704 53.9259L75.8333 48.3519Z" fill="#0066FF"/>
<path d="M75.8333 50.426L90.3519 58.7223L80.7593 64.2963L66.3704 56L75.8333 50.426Z" fill="white"/>
<path d="M85.8148 85.5556L80.5 82.1853V61.963L90.3519 56.2593H90.4815L103.444 61.3149V75.1853L85.8148 85.5556ZM81.0185 81.926L85.8148 84.9075L102.796 75.0556V61.8334L90.3519 56.9075L81.0185 62.2223V81.926Z" fill="#16110D"/>
<path d="M80.7593 62.2223V82.0556L85.8148 85.2964L103.056 75.1852V61.7037L90.3519 56.6482L80.7593 62.2223Z" fill="#16110D"/>
<path d="M80.7593 62.4815L65.7222 53.9259L75.8333 48.0926L90.8704 56.6482L80.7593 62.4815ZM66.8889 53.9259L80.7593 61.8333L89.8334 56.6482L75.963 48.7407L66.8889 53.9259Z" fill="#16110D"/>
<path d="M88.6667 53.4074L103.056 61.7037L90.3519 56.6482L75.8334 48.3519L88.6667 53.4074Z" fill="#0066FF"/>
<path d="M103.056 61.963L90.3519 56.9074L75.8334 48.6111L76.0926 48.0926L88.926 53.1482L103.445 61.4445L103.056 61.963ZM79.2037 50.037L90.4815 56.3889L99.6852 60.0185L88.5371 53.6667L79.2037 50.037Z" fill="#16110D"/>
<path d="M87.2408 79.463L92.2964 82.3149V71.2963L87.2408 68.3148V79.463Z" fill="#0066FF"/>
<path d="M92.5551 65.2031L97.6106 68.1846L92.2958 71.2957L87.2402 68.3142L92.5551 65.2031Z" fill="#0066FF"/>
<path d="M92.5557 67.0186L97.6112 70L92.2964 72.9815L87.2408 70.1297L92.5557 67.0186Z" fill="white"/>
<path d="M99.8149 67.7963L92.5556 64.9445L86.9816 68.1852V79.5926L92.1668 82.5741L95.1482 84.3889L105 78.5556V70.6482L99.8149 67.7963ZM99.5557 68.3149L101.63 69.4815L97.7408 67.926L95.6668 66.7593L99.5557 68.3149ZM87.7593 68.3149L92.5556 65.5926H92.6853L97.0927 68.1852L92.2964 70.9075L89.5742 69.3519L87.7593 68.3149ZM87.5001 68.7038L89.1853 69.7408L92.0371 71.426V81.926L87.5001 79.3334V68.7038ZM95.1482 83.8704L92.5556 82.3149V71.5556L97.6112 68.5741L104.482 71.2963V78.5556L95.1482 83.8704Z" fill="#16110D"/>
<path d="M98.6482 67.6667L103.315 70.3889L98.7779 68.5741L94.1112 65.8519L98.6482 67.6667Z" fill="#0066FF"/>
<path d="M92.2964 71.2963V82.3148L95.0186 84.1296L104.741 78.5556V70.9074L97.6112 68.1852L92.2964 71.2963Z" fill="#16110D"/>
<path d="M88.5371 82.7038L59.2408 99.5556L29.9445 82.7038L59.2408 65.7223L88.5371 82.7038Z" fill="#0066FF"/>
<path d="M29.9445 82.7037V87.2407L59.2408 104.093V99.5556L29.9445 82.7037Z" fill="#0066FF"/>
<path d="M88.4074 84.5186L59.1111 101.37L29.8148 84.5186L59.1111 67.6667L88.4074 84.5186Z" fill="white"/>
<path d="M88.537 82.7037V87.2408L59.2407 104.093V99.5556L88.537 82.7037Z" fill="#16110D"/>
<path d="M88.7963 82.4445L59.2408 65.463L29.6852 82.4445V87.2408L59.2408 104.352L88.7963 87.2408V82.4445ZM30.463 82.7037L59.2408 66.1111L88.0185 82.7037L84.5185 84.7778L59.2408 99.2963L33.963 84.6482L30.463 82.7037ZM30.2037 86.9815V83.0926L58.9815 99.6852V103.574L30.2037 86.9815ZM59.5 103.574V99.6852L84.7778 85.1667L88.2778 83.0926V86.9815L59.5 103.574Z" fill="#16110D"/>
<path d="M73.7594 82.8334V79.8519H72.8519C72.2038 78.8149 71.0371 77.7778 69.6112 76.8704C63.9075 73.6297 54.8334 73.6297 49.1297 76.8704C47.5742 77.7778 46.5371 78.8149 45.889 79.8519H44.9816V82.7038C44.9816 82.8334 44.9816 82.8334 44.9816 82.963V83.0927C45.1112 85.1667 46.5371 87.1112 49.2593 88.6667C54.9631 91.9075 64.0371 91.9075 69.7408 88.6667C72.3334 87.1112 73.7594 84.9075 73.7594 82.8334Z" fill="#0066FF"/>
<path d="M59.2408 91.3889C55.4815 91.3889 51.7223 90.6112 48.8704 88.926C46.2778 87.3704 44.7223 85.426 44.5927 83.2223V82.963C44.5927 82.8334 44.5927 82.8334 44.5927 82.7038V79.5926H45.6297C46.4075 78.426 47.4445 77.5186 49.0001 76.6112C54.7038 73.3704 64.0371 73.3704 69.7408 76.6112C71.1667 77.3889 72.3334 78.426 73.1112 79.5926H74.1482V82.8334C74.1482 85.1667 72.5927 87.3704 69.7408 88.926C66.7593 90.6112 63.0001 91.3889 59.2408 91.3889ZM44.9815 82.963C45.1112 85.0371 46.5371 86.9815 49.1297 88.4075C54.7038 91.6482 63.7778 91.6482 69.3519 88.4075C71.9445 86.8519 73.5001 84.9075 73.5001 82.7038V79.9815H72.5927C71.9445 78.9445 70.7778 77.9075 69.3519 77.1297C63.7778 73.8889 54.7038 73.8889 49.1297 77.1297C47.7038 77.9075 46.6667 78.9445 45.8889 79.9815L45.7593 80.1112H44.9815V82.7038C44.9815 82.7038 44.9815 82.8334 44.9815 82.963Z" fill="#16110D"/>
<path d="M69.4808 74.2777C75.1845 77.5185 75.1845 82.8333 69.4808 86.074C63.7771 89.3148 54.703 89.3148 48.9993 86.074C43.2956 82.8333 43.2956 77.5185 48.9993 74.2777C54.703 70.9073 63.7771 70.9073 69.4808 74.2777Z" fill="#0066FF"/>
<path d="M69.3519 75.5741C75.0556 78.8148 75.0556 84.1297 69.3519 87.3704C63.6482 90.6112 54.5741 90.6112 48.8704 87.3704C43.1667 84.1297 43.1667 78.8148 48.8704 75.5741C54.5741 72.2037 63.6482 72.2037 69.3519 75.5741Z" fill="white"/>
<path d="M59.2408 88.7964C55.4815 88.7964 51.7223 88.0186 48.8704 86.3334C46.0186 84.6482 44.463 82.5741 44.463 80.2408C44.463 77.9075 46.0186 75.7038 48.8704 74.1482C54.5741 70.9075 63.9075 70.9075 69.6112 74.1482C72.463 75.8334 74.0186 77.9075 74.0186 80.2408C74.0186 82.5741 72.463 84.7778 69.6112 86.3334C66.7593 87.889 63.0001 88.7964 59.2408 88.7964ZM59.2408 72.0741C55.6112 72.0741 51.9815 72.8519 49.1297 74.5371C46.5371 76.0927 44.9815 78.0371 44.9815 80.2408C44.9815 82.3149 46.4075 84.389 49.1297 85.9445C54.7038 89.1853 63.7778 89.1853 69.3519 85.9445C71.9445 84.389 73.5001 82.4445 73.5001 80.2408C73.5001 78.1667 72.0741 76.0927 69.3519 74.5371C66.5001 72.8519 62.8704 72.0741 59.2408 72.0741Z" fill="#16110D"/>
<path d="M68.8334 78.1661V61.3142L68.1852 60.7957C67.6667 60.0179 67.0186 59.8883 65.9815 59.3698C62.2223 57.1661 56.1297 57.1661 52.3704 59.3698C51.3334 59.8883 50.6852 60.6661 50.1667 61.3142H49.5186V78.0365V78.1661V78.2957C49.6482 79.592 50.5556 81.0179 52.3704 82.055C56.1297 84.2587 62.2223 84.2587 65.9815 82.055C67.926 81.0179 68.8334 79.592 68.8334 78.1661Z" fill="#0066FF"/>
<path d="M59.2408 84.0001C56.7778 84.0001 54.1852 83.4815 52.3704 82.3149C50.6852 81.2778 49.6482 79.9815 49.5186 78.5556V78.1667V61.0556H50.2963C50.8148 60.2778 51.5926 59.6297 52.5 59.1112C56.2593 56.9074 62.4815 56.9074 66.3704 59.1112C66.6297 59.2408 66.8889 59.3704 67.1482 59.5C67.6667 59.7593 68.1852 60.0186 68.5741 60.5371L69.2223 61.1852V78.1667C69.2223 79.7223 68.1852 81.2778 66.2408 82.3149C64.2963 83.4815 61.7037 84.0001 59.2408 84.0001ZM49.9074 78.2964C50.0371 79.7223 50.9445 80.8889 52.6297 81.926C56.2593 84.0001 62.2223 84.0001 65.8519 81.926C67.5371 80.8889 68.5741 79.5926 68.5741 78.2964V61.5741L67.926 60.926C67.6667 60.5371 67.2778 60.2778 66.6297 60.0186C66.3704 59.8889 66.1112 59.7593 65.7223 59.6297C62.0926 57.5556 56.1297 57.5556 52.5 59.6297C51.5926 60.1482 50.8149 60.7963 50.426 61.5741L50.2963 61.7037H49.7778V78.2964H49.9074Z" fill="#16110D"/>
<path d="M80.2401 57.5549L59.1105 69.7401L37.9808 57.5549L59.1105 45.3697L80.2401 57.5549Z" fill="#0066FF"/>
<path d="M37.9815 57.5556V60.7963L59.1111 73.1111V69.7408L37.9815 57.5556Z" fill="#0066FF"/>
<path d="M80.1112 59.2407L58.9816 71.4259L37.8519 59.2407L58.9816 47.0555L80.1112 59.2407Z" fill="white"/>
<path d="M80.2408 57.5556V60.7963L59.1111 73.1111V69.7408L80.2408 57.5556Z" fill="#16110D"/>
<path d="M80.5001 57.4259L59.1112 45.1111L37.7223 57.4259V61.0556L59.1112 73.3704L80.5001 61.0556V57.4259ZM59.1112 45.7593L79.7223 57.6852L59.1112 69.6111L38.5001 57.6852L59.1112 45.7593ZM38.2408 60.6667V58.0741L58.8519 70V72.5926L38.2408 60.6667ZM59.3704 72.5926V70L79.9816 58.0741V60.6667L59.3704 72.5926Z" fill="#16110D"/>
<path d="M65.6019 12.0717L64.8907 12.3865L82.6751 52.5693L83.3863 52.2545L65.6019 12.0717Z" fill="#16110D"/>
<path d="M79.7223 53.5371L65.463 38.2408L65.9815 37.7223L80.5001 53.2778L79.7223 53.5371Z" fill="#16110D"/>
<path d="M57.9445 2.72224L62.7408 5.44447L66.8889 3.11113L62.0926 0.259277L57.9445 2.72224Z" fill="#0066FF"/>
<path d="M57.9445 4.14811L62.7408 6.87034L66.7593 4.537L62.0926 1.68515L57.9445 4.14811Z" fill="white"/>
<path d="M57.4253 46.0179L52.629 43.2957L57.9438 2.72156L62.7401 5.44378L57.4253 46.0179Z" fill="#0066FF"/>
<path d="M57.5555 46.537L52.3704 43.4259L57.6852 2.46295L63 5.3148L57.5555 46.537ZM53.0185 43.1667L57.2963 45.6296L62.6111 5.57406L58.3333 3.1111L53.0185 43.1667Z" fill="#16110D"/>
<path d="M52.6296 58.4629L57.4259 61.1852V46.0185L52.6296 43.2963V58.4629Z" fill="#0066FF"/>
<path d="M67.1481 2.98148L62.0926 0L57.4259 2.72222L62.3518 5.70371L57.037 45.7593L52.3704 42.7778V58.463L57.2963 61.4445L65.9815 56.5185L65.8518 41.2222L67.1481 2.98148ZM57.1667 60.6667L53.0185 58.2037V43.8148L57.1667 46.2778V60.6667ZM62.0926 0.648148L66.2407 3.11111L62.7407 5.18519L58.5926 2.72222L62.0926 0.648148ZM57.6852 60.7963V46.1482L63 5.70371L66.6296 3.62963L65.463 41.3519L65.5926 56.3889L57.6852 60.7963Z" fill="#16110D"/>
<path d="M62.7407 5.44442L57.4259 46.0185V61.1852L65.8518 56.5185L65.5926 41.3518L66.8889 3.11108L62.7407 5.44442Z" fill="#16110D"/>
<path d="M22.8148 20.6111L16.7222 36.4259L57.426 45.7593L62.7408 5.31482L22.8148 20.6111ZM55.0926 40.7037L22.4259 33.963L26.7037 22.8148L59.1111 10.2407L55.0926 40.7037Z" fill="#16110D"/>
<path d="M57.5556 46.1482L16.3334 36.6852L22.5556 20.3518H22.6852L63.0001 5.05554V5.44443L57.5556 46.1482ZM17.1112 36.2963L57.1667 45.5L62.4815 5.83332L23.0741 20.8704L17.1112 36.2963ZM55.2223 41.0926L21.9074 34.2222L26.3149 22.6852L59.2408 9.98147L55.2223 41.0926ZM22.6852 33.7037L54.8334 40.3148L58.7223 10.5L26.8334 22.8148L22.6852 33.7037Z" fill="#16110D"/>
<path d="M12.0555 33.963L16.7222 36.4259L22.8148 20.6111L18.1481 18.0185L12.0555 33.963Z" fill="#0066FF"/>
<path d="M16.8518 36.8148L11.6666 33.963L17.7592 18.0185L23.074 20.4815L16.8518 36.8148ZM12.3148 33.8333L16.5926 36.1667L22.5555 20.7407L18.2777 18.4074L12.3148 33.8333Z" fill="#16110D"/>
<path d="M57.9445 2.7222L62.7408 5.44442L22.8149 20.6111L18.1482 18.0185L57.9445 2.7222Z" fill="#0066FF"/>
<path d="M57.9445 4.66663L60.926 6.22218L21 21.3889L18.1482 19.9629L57.9445 4.66663Z" fill="white"/>
<path d="M22.8148 20.8704L18.1481 17.7592L58.0741 2.33331L63 5.57406L22.8148 20.8704ZM18.7963 18.1481L22.9444 20.3518L62.0926 5.44443L57.9444 2.98146L18.7963 18.1481Z" fill="#16110D"/>
<path d="M50.2963 38.1111L55.0926 40.7037L58.9815 10.2407L53.6667 12.3148L50.2963 38.1111Z" fill="#0066FF"/>
<path d="M55.2222 41.0926L50.037 38.2408L53.4074 12.0556L59.2408 9.72223L55.2222 41.0926ZM50.5556 37.9815L54.8333 40.3148L58.7222 10.6296L53.9259 12.4445L50.5556 37.9815Z" fill="#16110D"/>
<path d="M22.2963 33.963L22.9444 32.4075L50.2963 38.1112L55.0926 40.7038L22.2963 33.963Z" fill="#0066FF"/>
<path d="M22.2963 34.2222L22.6852 33.0556L50.1666 38.7593L53.0185 40.3148L22.2963 34.2222Z" fill="white"/>
<path d="M56.7778 41.3519L22.037 34.0926L22.8148 32.0186L50.5556 37.8519L56.7778 41.3519ZM22.6852 33.7037L53.2778 40.0556L50.1667 38.3704L23.0741 32.6667L22.6852 33.7037Z" fill="#16110D"/>
<path d="M2.33331 26.963L6.99998 29.4259L22.8148 20.6111L18.1481 18.0185L2.33331 26.963Z" fill="#0066FF"/>
<path d="M0.259277 59.8889L5.05558 62.4815L7.00002 29.4259L2.33335 26.963L0.259277 59.8889Z" fill="#0066FF"/>
<path d="M2.33331 28.7778L6.99998 31.3704L22.8148 22.426L18.1481 19.963L2.33331 28.7778Z" fill="white"/>
<path d="M23.0741 20.7408L23.2037 20.4815L22.8148 20.3519L18.1482 17.7593L2.07408 26.8334L0 60.0186L5.05556 62.7408L7.38889 61.3149L23.0741 20.7408ZM18.1482 18.4074L22.2963 20.6111L15.8148 24.2408L7 29.1667L4.01852 27.6111L2.85185 26.963L18.1482 18.4074ZM0.518519 59.7593L2.46296 27.3519L4.66667 28.5185L6.61111 29.5556L6.22223 35.1297L4.7963 61.963L0.518519 59.7593ZM5.31482 61.963L7 35.1297L7.38889 29.6852L15.9445 24.8889L22.4259 21.2593L6.87037 60.926L5.31482 61.963Z" fill="#16110D"/>
<path d="M9.07406 31.2408L7.64813 52.7593L9.59258 48.3519L18.1481 26.3148L9.07406 31.2408ZM9.07406 48.0926L8.29628 49.7778L9.46295 31.6297L16.9815 27.3519L9.07406 48.0926Z" fill="#16110D"/>
<path d="M10.3703 30.8519L17.6296 26.7037L9.20365 48.4815L8.03699 51.2037L9.20365 33.8333L10.3703 30.8519Z" fill="#0066FF"/>
<path d="M8.29627 38.5L15.6852 34.4814L8.68516 52.5L7.51849 55.2222L8.29627 38.5Z" fill="white"/>
<path d="M7.64783 52.7593L8.94412 33.8333L10.1108 30.7222L18.1478 26.1852L9.46264 48.6111L7.64783 52.7593ZM9.46264 33.963L8.42561 49.6482L8.94412 48.3519L17.1108 27.2222L10.4997 30.8518L9.46264 33.963Z" fill="#16110D"/>
<path d="M59.6296 88.5371V91.1297H63.2593L68.5741 89.3149L71.5556 87.1111L73.3704 84.7778L73.7593 82.3149L73.5 81.926L72.0741 84L69.0926 86.0741L65.2037 87.7593L59.6296 88.5371Z" fill="#16110D"/>
<path d="M60.6667 72.2038V83.7408L63.389 83.2223L65.8519 82.0556L67.6668 80.8889L68.7038 78.9445L68.8334 67.6667L60.6667 72.2038Z" fill="#16110D"/>
<path d="M61.1852 72.7222V72.0741L68.7037 67.7963V68.4444L61.1852 72.7222Z" fill="#0066FF"/>
<path d="M61.1852 103.185V102.537L68.7037 98.2593V98.9074L61.1852 103.185Z" fill="#0066FF"/>
<path d="M6.99999 29.426L5.05554 62.4815L7.12962 61.1852L22.8148 20.7408L6.99999 29.426ZM8.03702 51.2038L9.33332 31.5L17.6296 26.8334L9.33332 48.0926L8.03702 51.2038Z" fill="#16110D"/>
<path d="M23.7216 20.3513C23.592 20.3513 23.592 20.3513 23.7216 20.3513C23.2031 20.092 22.4253 20.2216 21.6475 20.9994C20.9994 21.5179 20.6105 22.2957 20.4809 23.0735C20.2216 24.1105 20.4809 24.8883 20.9994 25.1476L21.2586 25.2772L22.166 25.7957L24.4994 22.2957L24.8883 21.129V20.9994L23.7216 20.3513Z" fill="#0066FF"/>
<path d="M22.8148 21.5185C22.2963 21.2593 21.5185 21.3889 20.7408 22.1667C20.0926 22.6852 20.3519 23.2037 20.2222 23.9815C20.0926 24.3704 20.3519 24.8889 20.8704 25.1482L21.3889 25.4074L21.9074 25.6667L23.463 23.463L23.8519 22.2963V22.1667L22.8148 21.5185Z" fill="white"/>
<path d="M22.1667 26.1852L20.8704 25.4074C20.2223 25.0185 19.963 24.2408 20.2223 23.0741C20.4815 22.2963 20.8704 21.3889 21.5186 20.8704C22.2963 20.0926 23.2038 19.8334 23.8519 20.0926L25.0186 20.7408C25.1482 20.8704 25.2778 21 25.1482 21.1297L24.6297 22.4259L22.1667 26.1852ZM23.0741 20.4815C22.6852 20.4815 22.1667 20.7408 21.7778 21.1297C21.2593 21.6482 20.8704 22.4259 20.6112 23.0741C20.3519 23.9815 20.6112 24.6297 21.0001 24.8889L21.9075 25.4074L24.1112 22.1667L24.5001 21.2593L23.463 20.6111C23.3334 20.4815 23.2038 20.4815 23.0741 20.4815Z" fill="#16110D"/>
<path d="M25.2776 22.2956C25.2776 23.5919 24.3702 25.0178 23.3331 25.666C22.2961 26.3141 21.3887 25.7956 21.3887 24.4993C21.3887 23.203 22.2961 21.7771 23.3331 21.1289C24.4998 20.4808 25.2776 20.9993 25.2776 22.2956Z" fill="#16110D"/>
<path d="M22.5556 26.1852C22.2963 26.1852 22.1667 26.1852 21.9074 26.0556C21.3889 25.7963 21.2593 25.2778 21.2593 24.5C21.2593 23.2037 22.1667 21.5185 23.3334 20.8704C23.9815 20.4815 24.5 20.4815 25.0185 20.7407C25.5371 21 25.6667 21.5185 25.6667 22.2963C25.6667 23.5926 24.7593 25.2778 23.5926 25.9259C23.2037 26.0556 22.8148 26.1852 22.5556 26.1852ZM24.2408 21.1296C23.9815 21.1296 23.7222 21.2593 23.463 21.3889C22.4259 21.9074 21.6482 23.3333 21.6482 24.5C21.6482 25.0185 21.7778 25.4074 22.0371 25.537C22.2963 25.6667 22.6852 25.6667 23.2037 25.4074C24.2408 24.8889 25.0185 23.463 25.0185 22.2963C25.0185 21.7778 24.8889 21.3889 24.6296 21.2593C24.5 21.2593 24.3704 21.1296 24.2408 21.1296Z" fill="#16110D"/>
<path d="M23.463 25.9259C24.6297 25.2778 25.5371 23.7222 25.5371 22.2963C25.5371 21.6482 25.2778 21 24.8889 20.7407C24.7593 20.7407 24.6297 20.7407 24.5 20.6111L24.2408 21.1296C24.2408 21.1296 24.2408 21.1296 24.3704 21.1296C24.5 21.1296 24.6297 21.1296 24.7593 21.2593C25.0186 21.3889 25.1482 21.7778 25.1482 22.2963C25.1482 23.463 24.3704 24.8889 23.3334 25.4074C22.9445 25.6667 22.5556 25.6667 22.1667 25.537C22.0371 25.4074 21.9074 25.2778 21.7778 25.1482L21.5186 25.6667C21.6482 25.7963 21.7778 25.9259 21.9074 26.0556C22.0371 26.1852 22.2963 26.1852 22.5556 26.1852C22.8149 26.1852 23.2037 26.0556 23.463 25.9259Z" fill="#0066FF"/>
<path d="M58.203 39.6661C57.6845 39.4069 56.9067 39.5365 56.129 40.3143C55.4808 40.8328 55.0919 41.6106 54.9623 42.3883C54.703 43.4254 54.9623 44.2032 55.4808 44.4624L55.7401 44.592L56.6475 45.1106L58.9808 41.6106L59.3697 40.4439V40.3143L58.203 39.6661Z" fill="#0066FF"/>
<path d="M57.2963 40.8334C56.7778 40.5741 56 40.7038 55.2222 41.4815C54.5741 42 54.8333 42.5186 54.7037 43.2963C54.5741 43.6852 54.8333 44.2038 55.3518 44.463L55.8704 44.7223L56.3889 44.9815L57.9444 42.7778L58.3333 41.6112V41.4815L57.2963 40.8334Z" fill="white"/>
<path d="M56.6482 45.5L55.3519 44.7223C54.7037 44.3334 54.4445 43.5556 54.7037 42.3889C54.963 41.6111 55.3519 40.7037 56 40.1852C56.7778 39.4074 57.6852 39.1482 58.3333 39.4074L59.5 40.0556C59.6296 40.1852 59.7593 40.3148 59.6296 40.4445L59.2408 41.6111L56.6482 45.5ZM57.6852 39.7963C57.2963 39.7963 56.7778 40.0556 56.3889 40.4445C55.8704 40.963 55.4815 41.7408 55.2222 42.3889C54.963 43.2963 55.2222 43.9445 55.6111 44.2037L56.5185 44.7223L58.7222 41.4815L59.1111 40.5741L58.0741 39.926C57.9445 39.7963 57.8148 39.7963 57.6852 39.7963Z" fill="#16110D"/>
<path d="M59.8882 41.6104C59.8882 42.9067 58.9808 44.3326 57.9437 44.9807C56.9067 45.6289 55.9993 45.1104 55.9993 43.8141C55.9993 42.5178 56.9067 41.0919 57.9437 40.4437C58.9808 39.7956 59.8882 40.3141 59.8882 41.6104Z" fill="#16110D"/>
<path d="M57.037 45.5C56.7778 45.5 56.6481 45.5 56.3889 45.3704C55.8704 45.1112 55.7407 44.5926 55.7407 43.8149C55.7407 42.5186 56.6481 40.8334 57.8148 40.1852C58.4629 39.7963 58.9815 39.7963 59.5 40.0556C60.0185 40.3149 60.1481 40.8334 60.1481 41.6112C60.1481 42.9074 59.2407 44.5926 58.0741 45.2408C57.6852 45.5 57.4259 45.5 57.037 45.5ZM58.8518 40.4445C58.5926 40.4445 58.3333 40.5741 58.0741 40.7037C57.037 41.2223 56.2592 42.6482 56.2592 43.8149C56.2592 44.3334 56.3889 44.7223 56.6481 44.8519C56.9074 44.9815 57.2963 44.9815 57.8148 44.7223C58.8518 44.2037 59.6296 42.7778 59.6296 41.6112C59.6296 41.0926 59.5 40.7037 59.2407 40.5741C59.1111 40.5741 58.9815 40.4445 58.8518 40.4445Z" fill="#16110D"/>
<path d="M58.0741 45.2408C59.2408 44.5926 60.1482 43.0371 60.1482 41.6111C60.1482 40.963 59.8889 40.3149 59.5 40.0556C59.3704 39.926 59.2408 39.926 59.1111 39.926L58.8519 40.4445C58.8519 40.4445 58.8519 40.4445 58.9815 40.4445C59.1111 40.4445 59.2408 40.4445 59.3704 40.5741C59.6296 40.7037 59.7593 41.0926 59.7593 41.6111C59.7593 42.7778 58.9815 44.2037 57.9445 44.7223C57.5556 44.9815 57.1667 44.9815 56.7778 44.8519C56.6482 44.7223 56.5185 44.5926 56.3889 44.463L56.1296 44.9815C56.2593 45.1112 56.3889 45.2408 56.5185 45.3704C56.6482 45.5 56.9074 45.5 57.1667 45.5C57.4259 45.5 57.6852 45.5 58.0741 45.2408Z" fill="#0066FF"/>
<path d="M3.75924 64.2963H3.24072V92.426H3.75924V64.2963Z" fill="#16110D"/>
<path d="M20.3954 26.1581L16.5358 36.0628L17.0189 36.251L20.8786 26.3464L20.3954 26.1581Z" fill="#0066FF"/>
<path d="M62.1107 6.22172L57.827 38.8678L58.3411 38.9353L62.6248 6.28918L62.1107 6.22172Z" fill="#0066FF"/>
<path d="M60.4075 49.2593L63.9075 46.9259V45.5H63.389V46.6667L60.7964 48.3519V47.5741H60.4075V49.2593Z" fill="#0066FF"/>
<path d="M60.4075 52.7593L63.9075 50.426V49.0001H63.389V50.1667L60.7964 51.8519V51.0741H60.4075V52.7593Z" fill="#0066FF"/>
<path d="M60.4075 56.2593L63.9075 53.926V52.5H63.389V53.6667L60.7964 55.3519V54.5741H60.4075V56.2593Z" fill="#0066FF"/>
<path d="M65.7223 80.5001C66.8889 79.8519 67.6667 79.0741 68.1852 78.2964L67.7963 77.7778C67.4074 78.6852 66.6297 79.463 65.463 80.1112C64.426 80.7593 63.1297 81.1482 61.7037 81.4075L61.8334 81.926C63.2593 81.5371 64.5556 81.1482 65.7223 80.5001Z" fill="#0066FF"/>
<path d="M100.333 78.0371L96.3149 80.3704C95.6667 80.7593 95.2778 80.3704 95.2778 79.7223V77.6482C95.2778 77.0001 95.7964 76.0927 96.3149 75.8334L100.333 73.5001C100.982 73.1112 101.37 73.5001 101.37 74.1482V76.2223C101.37 76.7408 100.852 77.6482 100.333 78.0371ZM96.3149 76.2223C95.926 76.4815 95.6667 76.8704 95.6667 77.2593V79.3334C95.6667 79.7223 95.926 79.8519 96.3149 79.7223L100.333 77.389C100.722 77.1297 100.982 76.7408 100.982 76.3519V74.2778C100.982 73.889 100.722 73.7593 100.333 73.889L96.3149 76.2223Z" fill="#0066FF"/>
<path d="M5.18518 62.7408V61.963L6.22222 61.1852V61.963L5.18518 62.7408Z" fill="#0066FF"/>
<path d="M55.2292 143.674C55.7202 144.002 55.7202 144.329 55.2292 144.656C54.7382 144.984 54.0836 144.984 53.5926 144.656C53.1016 144.329 53.1016 144.002 53.5926 143.674C54.0836 143.347 54.7382 143.347 55.2292 143.674Z" fill="#16110D"/>
<path d="M59.3209 141.219C59.8119 141.547 59.8119 141.874 59.3209 142.201C58.8299 142.529 58.1752 142.529 57.6842 142.201C57.1932 141.874 57.1932 141.547 57.6842 141.219C58.1752 141.056 58.9936 141.056 59.3209 141.219Z" fill="#16110D"/>
<path d="M63.5762 138.764C64.0672 139.092 64.0672 139.419 63.5762 139.746C63.0852 140.074 62.4305 140.074 61.9395 139.746C61.4485 139.419 61.4485 139.092 61.9395 138.764C62.2669 138.601 63.0852 138.601 63.5762 138.764Z" fill="#16110D"/>
<path d="M67.6679 136.473C68.1589 136.8 68.1589 137.128 67.6679 137.455C67.1769 137.782 66.5222 137.782 66.0312 137.455C65.5402 137.128 65.5402 136.8 66.0312 136.473C66.5222 136.146 67.1769 136.146 67.6679 136.473Z" fill="#16110D"/>
<path d="M46.8822 143.674C47.3732 144.002 47.3732 144.329 46.8822 144.656C46.3912 144.984 45.7366 144.984 45.2456 144.656C44.7546 144.329 44.7546 144.002 45.2456 143.674C45.7366 143.347 46.5549 143.347 46.8822 143.674Z" fill="#16110D"/>
<path d="M51.1375 141.219C51.6285 141.547 51.6285 141.874 51.1375 142.201C50.6465 142.529 49.9919 142.529 49.5009 142.201C49.0099 141.874 49.0099 141.547 49.5009 141.219C49.9919 141.056 50.6465 141.056 51.1375 141.219Z" fill="#16110D"/>
<path d="M54.4109 139.91C55.0436 139.91 55.5565 139.617 55.5565 139.255C55.5565 138.894 55.0436 138.601 54.4109 138.601C53.7781 138.601 53.2652 138.894 53.2652 139.255C53.2652 139.617 53.7781 139.91 54.4109 139.91Z" fill="#16110D"/>
<path d="M58.5026 137.619C59.1353 137.619 59.6483 137.326 59.6483 136.964C59.6483 136.602 59.1353 136.309 58.5026 136.309C57.8699 136.309 57.3569 136.602 57.3569 136.964C57.3569 137.326 57.8699 137.619 58.5026 137.619Z" fill="#16110D"/>
<path d="M63.5762 134.018C64.0672 134.345 64.0672 134.673 63.5762 135C63.0852 135.327 62.4305 135.327 61.9395 135C61.4485 134.673 61.4485 134.345 61.9395 134.018C62.2669 133.854 63.0852 133.854 63.5762 134.018Z" fill="#16110D"/>
<path d="M67.6679 131.727C68.1589 132.054 68.1589 132.381 67.6679 132.709C67.1769 133.036 66.5222 133.036 66.0312 132.709C65.5402 132.381 65.5402 132.054 66.0312 131.727C66.5222 131.399 67.1769 131.399 67.6679 131.727Z" fill="#16110D"/>
<path d="M42.7906 141.219C43.2816 141.547 43.2816 141.874 42.7906 142.201C42.2996 142.529 41.6449 142.529 41.1539 142.201C40.6629 141.874 40.6629 141.547 41.1539 141.219C41.6449 141.056 42.2996 141.056 42.7906 141.219Z" fill="#16110D"/>
<path d="M46.8822 138.764C47.3732 139.092 47.3732 139.419 46.8822 139.746C46.3912 140.074 45.7366 140.074 45.2456 139.746C44.7546 139.419 44.7546 139.092 45.2456 138.764C45.7366 138.601 46.5549 138.601 46.8822 138.764Z" fill="#16110D"/>
<path d="M51.1375 136.473C51.6285 136.8 51.6285 137.128 51.1375 137.455C50.6465 137.782 49.9919 137.782 49.5009 137.455C49.0099 137.128 49.0099 136.8 49.5009 136.473C49.9919 136.146 50.6465 136.146 51.1375 136.473Z" fill="#16110D"/>
<path d="M38.6989 138.764C39.1899 139.092 39.1899 139.419 38.6989 139.746C38.2079 140.074 37.5532 140.074 37.0622 139.746C36.5712 139.419 36.5712 139.092 37.0622 138.764C37.5532 138.601 38.2079 138.601 38.6989 138.764Z" fill="#16110D"/>
<path d="M41.9722 137.619C42.6049 137.619 43.1179 137.326 43.1179 136.964C43.1179 136.602 42.6049 136.309 41.9722 136.309C41.3395 136.309 40.8265 136.602 40.8265 136.964C40.8265 137.326 41.3395 137.619 41.9722 137.619Z" fill="#16110D"/>
<path d="M46.8822 134.018C47.3732 134.345 47.3732 134.673 46.8822 135C46.3912 135.327 45.7366 135.327 45.2456 135C44.7546 134.673 44.7546 134.345 45.2456 134.018C45.7366 133.854 46.5549 133.854 46.8822 134.018Z" fill="#16110D"/>
<path d="M55.2292 129.272C55.7202 129.599 55.7202 129.926 55.2292 130.254C54.7382 130.581 54.0836 130.581 53.5926 130.254C53.1016 129.926 53.1016 129.599 53.5926 129.272C54.0836 128.944 54.7382 128.944 55.2292 129.272Z" fill="#16110D"/>
<path d="M59.3209 126.817C59.8119 127.144 59.8119 127.471 59.3209 127.799C58.8299 128.126 58.1752 128.126 57.6842 127.799C57.1932 127.471 57.1932 127.144 57.6842 126.817C58.1752 126.653 58.9936 126.653 59.3209 126.817Z" fill="#16110D"/>
<path d="M63.5762 124.525C64.0672 124.853 64.0672 125.18 63.5762 125.507C63.0852 125.835 62.4305 125.835 61.9395 125.507C61.4485 125.18 61.4485 124.853 61.9395 124.525C62.2669 124.198 63.0852 124.198 63.5762 124.525Z" fill="#16110D"/>
<path d="M34.4436 136.473C34.9346 136.8 34.9346 137.128 34.4436 137.455C33.9526 137.782 33.2979 137.782 32.8069 137.455C32.3159 137.128 32.3159 136.8 32.8069 136.473C33.2979 136.146 34.1162 136.146 34.4436 136.473Z" fill="#16110D"/>
<path d="M38.6989 134.018C39.1899 134.345 39.1899 134.673 38.6989 135C38.2079 135.327 37.5532 135.327 37.0622 135C36.5712 134.673 36.5712 134.345 37.0622 134.018C37.5532 133.854 38.2079 133.854 38.6989 134.018Z" fill="#16110D"/>
<path d="M42.7906 131.727C43.2816 132.054 43.2816 132.381 42.7906 132.709C42.2996 133.036 41.6449 133.036 41.1539 132.709C40.6629 132.381 40.6629 132.054 41.1539 131.727C41.6449 131.399 42.2996 131.399 42.7906 131.727Z" fill="#16110D"/>
<path d="M29.5336 135.164C30.1663 135.164 30.6793 134.871 30.6793 134.509C30.6793 134.147 30.1663 133.854 29.5336 133.854C28.9009 133.854 28.3879 134.147 28.3879 134.509C28.3879 134.871 28.9009 135.164 29.5336 135.164Z" fill="#16110D"/>
<path d="M33.6253 132.709C34.258 132.709 34.7709 132.416 34.7709 132.054C34.7709 131.693 34.258 131.399 33.6253 131.399C32.9925 131.399 32.4796 131.693 32.4796 132.054C32.4796 132.416 32.9925 132.709 33.6253 132.709Z" fill="#16110D"/>
<path d="M26.2603 131.727C26.7513 132.054 26.7513 132.381 26.2603 132.709C25.7693 133.036 25.1146 133.036 24.6236 132.709C24.1326 132.381 24.1326 132.054 24.6236 131.727C25.1146 131.399 25.7693 131.399 26.2603 131.727Z" fill="#16110D"/>
<path d="M30.352 129.272C30.843 129.599 30.843 129.926 30.352 130.254C29.861 130.581 29.2063 130.581 28.7153 130.254C28.2243 129.926 28.2243 129.599 28.7153 129.272C29.2063 128.944 29.861 128.944 30.352 129.272Z" fill="#16110D"/>
<path d="M22.0049 129.272C22.4959 129.599 22.4959 129.926 22.0049 130.254C21.5139 130.581 20.8592 130.581 20.3682 130.254C19.8773 129.926 19.8773 129.599 20.3682 129.272C20.8592 128.944 21.5139 128.944 22.0049 129.272Z" fill="#16110D"/>
<path d="M26.0966 126.817C26.5876 127.144 26.5876 127.471 26.0966 127.799C25.6056 128.126 24.9509 128.126 24.4599 127.799C23.9689 127.471 23.9689 127.144 24.4599 126.817C24.9509 126.653 25.7693 126.653 26.0966 126.817Z" fill="#16110D"/>
<path d="M22.0049 124.525C22.4959 124.853 22.4959 125.18 22.0049 125.507C21.5139 125.835 20.8592 125.835 20.3682 125.507C19.8773 125.18 19.8773 124.853 20.3682 124.525C20.8592 124.198 21.5139 124.198 22.0049 124.525Z" fill="#16110D"/>
<path d="M53.2639 106.793L38.7448 98.409L24.0212 106.793V123.766L38.7448 132.151V115.382L53.2639 106.793Z" fill="white"/>
<path d="M24.0212 123.766L38.7448 132.151V115.178L24.0212 106.793V123.766Z" fill="#0066FF"/>
<path d="M53.673 106.589L38.7448 98L23.8167 106.589V106.998V123.971L38.5403 132.355L38.7448 132.56L38.9493 132.355L53.4685 123.971H53.673V106.998V106.589ZM38.7448 98.818L45.6977 102.703L31.5875 110.883L24.6347 106.998L38.7448 98.818ZM38.3358 131.742L24.2257 123.562V107.407L38.3358 115.587V131.742ZM44.6752 111.497L38.7448 114.973L31.792 111.088L45.9022 102.908L52.855 106.793L44.6752 111.497Z" fill="#16110D"/>
<path d="M32.8145 115.382L30.156 113.746C29.9516 113.542 29.5426 113.542 29.3381 113.746C29.1336 113.951 28.9291 114.155 28.9291 114.769C28.9291 115.587 29.3381 116.405 29.9516 116.609L32.61 118.245C32.8145 118.245 33.019 118.449 33.019 118.449C33.2235 118.449 33.2235 118.449 33.428 118.449C33.6325 118.245 33.837 118.04 33.837 117.427C33.837 116.405 33.428 115.587 32.8145 115.382ZM33.2235 117.631H33.019L30.3605 115.996C29.9516 115.791 29.7471 115.178 29.7471 114.564C29.7471 114.36 29.7471 114.155 29.9516 114.155H30.156L30.3605 114.36C30.3605 114.973 30.7695 115.587 31.1785 115.996L33.2235 117.222C33.2235 117.427 33.2235 117.631 33.2235 117.631Z" fill="#16110D"/>
<path d="M54.6954 135.014L45.6976 129.901V119.472L54.6954 124.584V135.014Z" fill="#0066FF"/>
<path d="M63.6932 119.472L54.6954 124.584L45.6976 119.472L54.6954 114.36L63.6932 119.472Z" fill="#0066FF"/>
<path d="M63.6932 120.494L55.5134 125.198L46.5156 119.881L54.6954 115.382L63.6932 120.494Z" fill="white"/>
<path d="M54.6954 113.951L45.6977 119.063L45.4932 119.267V129.901L54.4909 135.013L54.6954 135.218L54.8999 135.013L63.8977 129.901V119.676V119.472L54.6954 113.951ZM54.6954 114.564L63.0797 119.472L58.7853 121.926L54.4909 124.38L53.0595 123.562L45.9022 119.472L54.6954 114.564ZM45.9022 129.697V119.881L54.2864 124.789V134.605L45.9022 129.697Z" fill="#16110D"/>
<path d="M52.4459 131.946L51.0145 131.128C50.81 130.924 50.6055 130.719 50.6055 130.31V128.879C50.6055 128.674 50.81 128.47 51.0145 128.674L52.4459 129.492C52.6504 129.697 52.8549 129.901 52.8549 130.31V131.742C52.8549 131.946 52.6504 132.151 52.4459 131.946Z" fill="#16110D"/>
</svg>
