<?xml version="1.0" encoding="utf-8"?>
<!-- Generator: Adobe Illustrator 23.0.4, SVG Export Plug-In . SVG Version: 6.00 Build 0)  -->
<svg version="1.1" id="Слой_1" xmlns="http://www.w3.org/2000/svg" xmlns:xlink="http://www.w3.org/1999/xlink" x="0px" y="0px"
	 viewBox="0 0 121 99" style="enable-background:new 0 0 121 99;" xml:space="preserve">
<style type="text/css">
	.st0{fill-rule:evenodd;clip-rule:evenodd;fill:#F2F7FF;}
	.st1{fill:#0066FF;}
	.st2{fill:#16110D;}
	.st3{fill:#FFFFFF;}
</style>
<g id="Design" transform="translate(-657.000000, -2371.000000)">
	<path id="Oval-Copy-4" class="st0" d="M705.5,2467.2c28.7,7.6,45.3-0.5,64.6-23.7s0-59.4-24.7-68.7s-88.4-2.1-88.4,25.6
		C657,2428.1,676.8,2459.7,705.5,2467.2z"/>
</g>
<g id="XMLID_691_">
	<path class="st1" d="M111.7,38.9L111.7,38.9v-1.6h-1c-0.1,0-0.1-0.1-0.2-0.1L69.6,13.6c-1.8-1-4.9-0.9-7,0.3L10.5,44.2
		c-0.4,0.2-0.7,0.4-0.9,0.7H8.8v3.5c0,0.6,0.4,1.3,1.2,1.7l40.8,23.6c1.8,1,4.9,0.9,7-0.3L110,43.1c1.1-0.6,1.7-1.4,1.7-2.2v-1V38.9
		z"/>
</g>
<g id="XMLID_690_">
	<path class="st2" d="M111.7,40.9v-1v-1.1v-0.1v-1.5h-1c-0.1,0-0.1-0.1-0.2-0.1l-15.1-8.7c-1.2,0-2,0.1-2.3,0.2
		c-2.2,0.7-36.9,20.9-37.6,24c-0.7,3.1-2,18.4-2,18.4v3.4c1.5,0.1,3.1-0.2,4.4-1L110,43.1C111.1,42.5,111.6,41.7,111.7,40.9z"/>
</g>
<g id="XMLID_687_">
	<path class="st2" d="M53.9,74.8c-1.2,0-2.4-0.2-3.2-0.7L9.8,50.5c-0.9-0.5-1.4-1.2-1.4-2v-3.9h1c0.3-0.2,0.6-0.4,0.9-0.6l52.2-30.3
		c2.2-1.2,5.5-1.4,7.3-0.3L110.6,37l0.1,0.1h1.2v4c0,0.9-0.7,1.8-1.9,2.5L58,73.8C56.8,74.4,55.3,74.8,53.9,74.8z M9.1,45.3v3.2
		c0,0.5,0.4,1,1,1.4L51,73.4c1.7,1,4.7,0.8,6.6-0.3l52.2-30.3c0.9-0.5,1.5-1.2,1.5-1.9v-2v-1.2h-0.7l-0.1-0.1
		c-0.1-0.1-0.1-0.1-0.2-0.1L69.4,13.9c-1.7-1-4.7-0.8-6.6,0.3L10.7,44.5c-0.3,0.2-0.6,0.4-0.9,0.6l-0.1,0.1H9.1V45.3z"/>
</g>
<g id="XMLID_685_">
	<path class="st1" d="M50.8,70.3L10,46.7c-1.8-1-1.6-2.8,0.5-4l52.2-30.3c2.1-1.2,5.2-1.3,7-0.3l40.8,23.6c1.8,1,1.6,2.8-0.5,4
		L57.8,70C55.7,71.2,52.6,71.3,50.8,70.3z"/>
</g>
<g id="XMLID_682_">
	<path class="st2" d="M53.9,71.4c-1.2,0-2.4-0.2-3.2-0.7L9.8,47c-0.9-0.5-1.4-1.2-1.4-2.1c0-1,0.7-1.9,1.9-2.6L62.5,12
		c2.2-1.2,5.5-1.4,7.3-0.3l40.8,23.6c0.9,0.5,1.4,1.2,1.4,2.1c0,1-0.7,1.9-1.9,2.6L58,70.3C56.8,71,55.3,71.4,53.9,71.4z M66.6,11.7
		c-1.3,0-2.7,0.3-3.8,0.9L10.7,43c-1,0.6-1.5,1.3-1.5,2c0,0.5,0.4,1.1,1,1.4L51,70c1.7,1,4.7,0.8,6.6-0.3l52.2-30.3
		c1-0.6,1.5-1.3,1.5-2c0-0.5-0.4-1.1-1-1.4L69.4,12.4C68.7,12,67.7,11.7,66.6,11.7z"/>
</g>
<g id="XMLID_678_">
	<g id="XMLID_679_">
		<path class="st2" d="M54.7,68l-0.2-0.1L15.2,45.2l49.6-28.9l0.2,0.1l39.4,22.7L54.7,68z"/>
	</g>
</g>
<g id="XMLID_673_">
	<g id="XMLID_677_">
		<polygon class="st3" points="54.9,65.7 14.8,42.6 65.5,13.2 105.5,36.3 		"/>
	</g>
	<g id="XMLID_674_">
		<path class="st2" d="M54.9,66.1L54.7,66L14.1,42.6l51.3-29.8l0.2,0.1l40.6,23.5L54.9,66.1z M15.6,42.6L55,65.3l49.9-29L65.5,13.6
			L15.6,42.6z"/>
	</g>
</g>
<g id="XMLID_661_">
	<g id="XMLID_668_">
		<g id="XMLID_672_">
			<path class="st2" d="M99.1,22.8V23L95,20.6c-0.1,0.1-0.1,0.1-0.2,0.2c-1.2,0.7-1.8,1.7-3,1.1c-1.2-0.7-2.3-0.9-1.2-1.6
				c0.1,0,0.2-0.1,0.3-0.1l0.4-3.1l-1.6-0.6l-0.2,2.8L85,14.8c-0.8-0.5-2.1-0.2-2.4,0.4L82,16.6l-0.5-0.1v3.4l0,0l0,0l0,0
				c0,0.2,0.2,0.4,0.4,0.5l12.4,7.2c0.3,0.2,0.8,0.3,1.3,0.2l4.5-0.6c0.7-0.1,1.1-0.5,1.1-0.9V23L99.1,22.8z"/>
		</g>
		<g id="XMLID_669_">
			<path class="st2" d="M95.3,28.2c-0.4,0-0.9-0.1-1.2-0.3l-12.4-7.2c-0.2-0.1-0.3-0.2-0.4-0.4l-0.2,0.1V16l0.7,0.1l0.5-1.2
				c0.1-0.3,0.4-0.6,0.9-0.7c0.7-0.2,1.5-0.2,2,0.2l0.1,0.1l4,4l0.2-2.4l2.3,0.8v3.8l-0.6-0.2c-0.1,0.1-0.2,0.1-0.2,0.1
				c-0.1,0.1-0.2,0.1-0.2,0.2c0.1,0.1,0.4,0.2,0.7,0.4c0.2,0.1,0.5,0.3,0.8,0.4c0.6,0.4,1,0.1,1.7-0.5c0.3-0.2,0.5-0.4,0.9-0.6
				l0.1-0.1l0.2-0.1l0.3,0.1l3.6,2.1l2.5,0.4c0.1,0,0.2,0.1,0.2,0.3v3.4c0.1,0.6-0.5,1.1-1.4,1.2l-4.5,0.6
				C95.5,28.2,95.4,28.2,95.3,28.2z M81.8,19.9L81.8,19.9c0,0.1,0.1,0.2,0.2,0.3l12.4,7.2c0.3,0.2,0.7,0.2,1.1,0.2L100,27
				c0.5-0.1,0.8-0.3,0.8-0.5v-3l-1.4-0.2v0.3L95,21.1c0,0,0,0-0.1,0c-0.3,0.2-0.6,0.4-0.8,0.6c-0.7,0.5-1.5,1.1-2.5,0.5
				c-0.3-0.1-0.5-0.3-0.7-0.4c-0.6-0.3-1.1-0.5-1.1-1c0-0.4,0.3-0.6,0.6-0.8l0.5,0.3v-2.8L90,17l-0.3,3.1l-5-5
				c-0.4-0.2-1-0.2-1.4-0.1c-0.2,0.1-0.4,0.2-0.4,0.3L82.2,17h-0.4L81.8,19.9z"/>
		</g>
	</g>
	<g id="XMLID_663_">
		<g id="XMLID_667_">
			<path class="st3" d="M100.8,22.6L95,19.3c-0.1,0.1-0.1,0.1-0.2,0.2c-1.2,0.7-3,0.7-4.2,0s-1.2-1.7,0-2.4c0.1,0,0.2-0.1,0.3-0.1
				l-6-3.4c-0.8-0.5-2.1-0.2-2.4,0.4l-1.1,2.6c-0.1,0.3,0,0.6,0.4,0.8l12.4,7.2c0.3,0.2,0.8,0.3,1.3,0.2l4.5-0.6
				C101.2,23.8,101.6,23.1,100.8,22.6z"/>
		</g>
		<g id="XMLID_664_">
			<path class="st2" d="M95.3,25c-0.4,0-0.9-0.1-1.2-0.3l-12.4-7.2c-0.5-0.3-0.7-0.8-0.5-1.2l1.1-2.6c0.1-0.3,0.4-0.6,0.9-0.7
				c0.7-0.2,1.5-0.2,2,0.2l6.6,3.8l-0.6,0.3c-0.1,0.1-0.2,0.1-0.2,0.1c-0.4,0.3-0.7,0.6-0.7,0.9s0.2,0.6,0.7,0.9
				c1,0.6,2.8,0.6,3.8,0l0.1-0.1l0.2-0.1l0.3,0.1l5.8,3.3c0.4,0.3,0.7,0.7,0.6,1.1c-0.1,0.5-0.6,0.9-1.4,1l-4.5,0.6
				C95.5,24.9,95.4,25,95.3,25z M83.9,13.5c-0.2,0-0.4,0-0.6,0.1s-0.4,0.2-0.4,0.3l-1.1,2.6c-0.1,0.1,0.2,0.3,0.2,0.3L94.5,24
				c0.3,0.2,0.7,0.2,1.1,0.2l4.5-0.6c0.5-0.1,0.8-0.3,0.8-0.4s-0.2-0.3-0.2-0.3l-5.6-3.2c0,0,0,0-0.1,0c-1.3,0.7-3.3,0.7-4.5,0
				c-0.7-0.4-1-0.9-1-1.5c0-0.5,0.3-1,0.8-1.3l-5.4-3.1C84.6,13.6,84.3,13.5,83.9,13.5z"/>
		</g>
	</g>
</g>
<g id="XMLID_656_">
	<g id="XMLID_660_">
		<path class="st3" d="M101.5,34.1L69.4,15.6c-0.8-0.4-0.7-1.2,0.2-1.7l2-1.1c0.9-0.5,2.2-0.6,3-0.1l32.1,18.5
			c0.8,0.4,0.7,1.2-0.2,1.7l-2,1.1C103.7,34.5,102.3,34.6,101.5,34.1z"/>
	</g>
	<g id="XMLID_657_">
		<path class="st2" d="M102.8,34.8c-0.6,0-1.1-0.1-1.5-0.3L69.2,15.9c-0.5-0.3-0.7-0.6-0.7-1.1s0.3-1,0.9-1.3l2-1.1
			c1-0.6,2.5-0.6,3.4-0.1l32.1,18.5c0.5,0.3,0.7,0.6,0.7,1.1c0,0.5-0.3,1-0.9,1.3l-2,1.1C104.2,34.6,103.5,34.8,102.8,34.8z
			 M101.7,33.8c0.7,0.4,1.9,0.3,2.7-0.1l2-1.1c0.3-0.2,0.6-0.5,0.6-0.7s-0.2-0.4-0.3-0.4L74.5,12.9c-0.7-0.4-1.9-0.3-2.7,0.1l-2,1.1
			c-0.3,0.2-0.6,0.5-0.6,0.7s0.2,0.4,0.3,0.4L101.7,33.8z"/>
	</g>
</g>
<g id="XMLID_646_">
	<g id="XMLID_651_">
		<path class="st1" d="M91.5,29.8l-16.1-9.3c-0.4-0.2-0.3-0.6,0.1-0.9l1-0.6c0.4-0.3,1.1-0.3,1.5-0.1l16.1,9.3
			c0.4,0.2,0.3,0.6-0.1,0.9l-1,0.6C92.5,30,91.9,30.1,91.5,29.8z"/>
	</g>
	<g id="XMLID_647_">
		<path class="st2" d="M92.1,30.4c-0.3,0-0.6-0.1-0.8-0.2l-16.1-9.3c-0.3-0.2-0.4-0.4-0.4-0.7c0-0.3,0.2-0.6,0.5-0.8l1-0.6
			c0.6-0.3,1.4-0.4,1.9-0.1L94.3,28c0.3,0.2,0.4,0.4,0.4,0.7c0,0.3-0.2,0.6-0.5,0.8l-1,0.6C92.9,30.3,92.5,30.4,92.1,30.4z
			 M77.4,19.3c-0.2,0-0.5,0.1-0.7,0.2l-1,0.6c-0.2,0.1-0.2,0.2-0.2,0.2s0,0,0.1,0.1l16.1,9.3c0.3,0.2,0.8,0.1,1.1-0.1l1-0.6
			c0.1-0.1,0.2-0.2,0.2-0.2s0,0-0.1-0.1l-16.1-9.3C77.7,19.3,77.6,19.3,77.4,19.3z"/>
	</g>
</g>
<g id="XMLID_558_">
	<g id="XMLID_605_">
		<ellipse class="st2" cx="58.6" cy="82.5" rx="1.3" ry="0.7"/>
	</g>
	<g id="XMLID_604_">
		<path class="st2" d="M64.2,79.3c0.5,0.3,0.5,0.7,0,1s-1.3,0.3-1.8,0s-0.5-0.7,0-1C62.9,79,63.7,79,64.2,79.3z"/>
	</g>
	<g id="XMLID_603_">
		<path class="st2" d="M68.8,76.6c0.5,0.3,0.5,0.7,0,1s-1.3,0.3-1.8,0s-0.5-0.7,0-1C67.5,76.4,68.3,76.4,68.8,76.6z"/>
	</g>
	<g id="XMLID_602_">
		<path class="st2" d="M73.5,74c0.5,0.3,0.5,0.7,0,1s-1.3,0.3-1.8,0s-0.5-0.7,0-1S73,73.7,73.5,74z"/>
	</g>
	<g id="XMLID_601_">
		<path class="st2" d="M78.1,71.3c0.5,0.3,0.5,0.7,0,1s-1.3,0.3-1.8,0s-0.5-0.7,0-1C76.9,71,77.7,71,78.1,71.3z"/>
	</g>
	<g id="XMLID_600_">
		<ellipse class="st2" cx="81.9" cy="69.1" rx="1.3" ry="0.7"/>
	</g>
	<g id="XMLID_599_">
		<ellipse class="st2" cx="86.6" cy="66.4" rx="1.3" ry="0.7"/>
	</g>
	<g id="XMLID_598_">
		<path class="st2" d="M92.1,63.2c0.5,0.3,0.5,0.7,0,1c-0.5,0.3-1.3,0.3-1.8,0c-0.5-0.3-0.5-0.7,0-1C90.8,62.9,91.6,62.9,92.1,63.2z
			"/>
	</g>
	<g id="XMLID_597_">
		<ellipse class="st2" cx="95.9" cy="61" rx="1.3" ry="0.7"/>
	</g>
	<g id="XMLID_596_">
		<path class="st2" d="M101.4,57.8c0.5,0.3,0.5,0.7,0,1s-1.3,0.3-1.8,0s-0.5-0.7,0-1S100.9,57.5,101.4,57.8z"/>
	</g>
	<g id="XMLID_595_">
		<path class="st2" d="M106.1,55.1c0.5,0.3,0.5,0.7,0,1s-1.3,0.3-1.8,0s-0.5-0.7,0-1C104.8,54.9,105.6,54.9,106.1,55.1z"/>
	</g>
	<g id="XMLID_594_">
		<path class="st2" d="M110.7,52.5c0.5,0.3,0.5,0.7,0,1s-1.3,0.3-1.8,0s-0.5-0.7,0-1C109.4,52.2,110.2,52.2,110.7,52.5z"/>
	</g>
	<g id="XMLID_593_">
		<path class="st2" d="M50.2,82c0.5,0.3,0.5,0.7,0,1s-1.3,0.3-1.8,0s-0.5-0.7,0-1S49.7,81.7,50.2,82z"/>
	</g>
	<g id="XMLID_592_">
		<ellipse class="st2" cx="54" cy="79.8" rx="1.3" ry="0.7"/>
	</g>
	<g id="XMLID_591_">
		<ellipse class="st2" cx="58.6" cy="77.2" rx="1.3" ry="0.7"/>
	</g>
	<g id="XMLID_590_">
		<path class="st2" d="M64.2,74c0.5,0.3,0.5,0.7,0,1s-1.3,0.3-1.8,0s-0.5-0.7,0-1C62.9,73.7,63.7,73.7,64.2,74z"/>
	</g>
	<g id="XMLID_589_">
		<ellipse class="st2" cx="67.9" cy="71.8" rx="1.3" ry="0.7"/>
	</g>
	<g id="XMLID_588_">
		<path class="st2" d="M73.5,68.6c0.5,0.3,0.5,0.7,0,1s-1.3,0.3-1.8,0s-0.5-0.7,0-1C72.2,68.3,73,68.3,73.5,68.6z"/>
	</g>
	<g id="XMLID_587_">
		<path class="st2" d="M78.1,65.9c0.5,0.3,0.5,0.7,0,1s-1.3,0.3-1.8,0s-0.5-0.7,0-1C76.9,65.6,77.7,65.6,78.1,65.9z"/>
	</g>
	<g id="XMLID_586_">
		<path class="st2" d="M82.8,63.2c0.5,0.3,0.5,0.7,0,1c-0.5,0.3-1.3,0.3-1.8,0c-0.5-0.3-0.5-0.7,0-1C81.5,62.9,82.3,62.9,82.8,63.2z
			"/>
	</g>
	<g id="XMLID_585_">
		<path class="st2" d="M87.5,60.5c0.5,0.3,0.5,0.7,0,1s-1.3,0.3-1.8,0s-0.5-0.7,0-1S87,60.2,87.5,60.5z"/>
	</g>
	<g id="XMLID_584_">
		<path class="st2" d="M92.1,57.8c0.5,0.3,0.5,0.7,0,1s-1.3,0.3-1.8,0s-0.5-0.7,0-1C90.8,57.5,91.6,57.5,92.1,57.8z"/>
	</g>
	<g id="XMLID_583_">
		<ellipse class="st2" cx="95.9" cy="55.7" rx="1.3" ry="0.7"/>
	</g>
	<g id="XMLID_582_">
		<path class="st2" d="M101.4,52.5c0.5,0.3,0.5,0.7,0,1s-1.3,0.3-1.8,0s-0.5-0.7,0-1S100.9,52.2,101.4,52.5z"/>
	</g>
	<g id="XMLID_581_">
		<ellipse class="st2" cx="105.2" cy="50.3" rx="1.3" ry="0.7"/>
	</g>
	<g id="XMLID_580_">
		<path class="st2" d="M45.6,79.3c0.5,0.3,0.5,0.7,0,1s-1.3,0.3-1.8,0s-0.5-0.7,0-1S45.1,79,45.6,79.3z"/>
	</g>
	<g id="XMLID_579_">
		<path class="st2" d="M50.2,76.6c0.5,0.3,0.5,0.7,0,1s-1.3,0.3-1.8,0s-0.5-0.7,0-1C48.9,76.4,49.7,76.4,50.2,76.6z"/>
	</g>
	<g id="XMLID_578_">
		<path class="st2" d="M40.9,76.6c0.5,0.3,0.5,0.7,0,1s-1.3,0.3-1.8,0s-0.5-0.7,0-1C39.6,76.4,40.4,76.4,40.9,76.6z"/>
	</g>
	<g id="XMLID_577_">
		<path class="st2" d="M45.6,74c0.5,0.3,0.5,0.7,0,1s-1.3,0.3-1.8,0s-0.5-0.7,0-1S45.1,73.7,45.6,74z"/>
	</g>
	<g id="XMLID_576_">
		<path class="st2" d="M36.2,74c0.5,0.3,0.5,0.7,0,1s-1.3,0.3-1.8,0s-0.5-0.7,0-1C35,73.7,35.8,73.7,36.2,74z"/>
	</g>
	<g id="XMLID_575_">
		<path class="st2" d="M40.9,71.3c0.5,0.3,0.5,0.7,0,1s-1.3,0.3-1.8,0s-0.5-0.7,0-1C39.6,71,40.4,71,40.9,71.3z"/>
	</g>
	<g id="XMLID_574_">
		<path class="st2" d="M31.6,71.2c0.5,0.3,0.5,0.7,0,1c-0.5,0.3-1.3,0.3-1.8,0s-0.5-0.7,0-1C30.3,71,31.1,71,31.6,71.2z"/>
	</g>
	<g id="XMLID_573_">
		<path class="st2" d="M36.2,68.6c0.5,0.3,0.5,0.7,0,1s-1.3,0.3-1.8,0s-0.5-0.7,0-1C34.9,68.3,35.7,68.3,36.2,68.6z"/>
	</g>
	<g id="XMLID_572_">
		<ellipse class="st2" cx="26" cy="69.1" rx="1.3" ry="0.7"/>
	</g>
	<g id="XMLID_571_">
		<path class="st2" d="M31.6,65.9c0.5,0.3,0.5,0.7,0,1c-0.5,0.3-1.3,0.3-1.8,0s-0.5-0.7,0-1C30.3,65.6,31.1,65.6,31.6,65.9z"/>
	</g>
	<g id="XMLID_570_">
		<path class="st2" d="M22.2,65.9c0.5,0.3,0.5,0.7,0,1s-1.3,0.3-1.8,0s-0.5-0.7,0-1C21,65.6,21.7,65.6,22.2,65.9z"/>
	</g>
	<g id="XMLID_569_">
		<path class="st2" d="M26.9,63.2c0.5,0.3,0.5,0.7,0,1c-0.5,0.3-1.3,0.3-1.8,0c-0.5-0.3-0.5-0.7,0-1C25.6,62.9,26.4,62.9,26.9,63.2z
			"/>
	</g>
	<g id="XMLID_568_">
		<path class="st2" d="M17.6,63.2c0.5,0.3,0.5,0.7,0,1c-0.5,0.3-1.3,0.3-1.8,0c-0.5-0.3-0.5-0.7,0-1C16.3,62.9,17.1,62.9,17.6,63.2z
			"/>
	</g>
	<g id="XMLID_567_">
		<ellipse class="st2" cx="21.4" cy="61" rx="1.3" ry="0.7"/>
	</g>
	<g id="XMLID_566_">
		<path class="st2" d="M12.9,60.5c0.5,0.3,0.5,0.7,0,1s-1.3,0.3-1.8,0s-0.5-0.7,0-1C11.6,60.2,12.4,60.2,12.9,60.5z"/>
	</g>
	<g id="XMLID_565_">
		<path class="st2" d="M17.6,57.8c0.5,0.3,0.5,0.7,0,1s-1.3,0.3-1.8,0c-0.5-0.3-0.5-0.7,0-1C16.3,57.5,17.1,57.5,17.6,57.8z"/>
	</g>
	<g id="XMLID_564_">
		<ellipse class="st2" cx="7.4" cy="58.3" rx="1.3" ry="0.7"/>
	</g>
	<g id="XMLID_563_">
		<path class="st2" d="M12.9,55.1c0.5,0.3,0.5,0.7,0,1s-1.3,0.3-1.8,0s-0.5-0.7,0-1C11.6,54.8,12.4,54.8,12.9,55.1z"/>
	</g>
	<g id="XMLID_562_">
		<path class="st2" d="M8.3,52.4c0.5,0.3,0.5,0.7,0,1s-1.3,0.3-1.8,0s-0.5-0.7,0-1C7,52.1,7.8,52.1,8.3,52.4z"/>
	</g>
	<g id="XMLID_561_">
		<path class="st2" d="M109,47.1c0.5-0.3,1.3-0.3,1.8,0s0.5,0.7,0,1s-1.3,0.3-1.8,0S108.5,47.4,109,47.1z"/>
	</g>
	<g id="XMLID_560_">
		<path class="st2" d="M115.4,49.8c0.5,0.3,0.5,0.7,0,1s-1.3,0.3-1.8,0s-0.5-0.7,0-1S114.9,49.5,115.4,49.8z"/>
	</g>
	<g id="XMLID_559_">
		<path class="st2" d="M113.7,44.4c0.5-0.3,1.3-0.3,1.8,0s0.5,0.7,0,1s-1.3,0.3-1.8,0C113.2,45.1,113.2,44.7,113.7,44.4z"/>
	</g>
</g>
<g>
	<g>
		<path d="M80.3,48.1c0-0.1,0-1.1-1.8-2.1c-0.5-0.2-1-0.5-1.6-0.7c2.6-2,2.1-3.9,2.1-4.1c0-0.2-0.1-0.2-0.1-0.5
			c-0.4,0.1-0.5,0.1-0.9,0.1c-1.1,0.2-2.3,0.6-3.3,1c-2,0.9-3.3,1.8-4.1,3.1c-1.4-0.1-2.8-0.9-3.2-1c-8.8-5.2-13.3-7.7-22-12.8
			c-0.6-0.4-1.6-0.2-2.3,0.1c-2.3,1.5-4.4,3.1-5.9,4.8c-1.6,2-2.3,3.7-2,5.2c0.4,1.7,2.3,3.7,5.4,5.4c1.4,0.7,2.8,1.5,4.5,2.1
			c2.3,0.9,4.9,1.4,7.6,1.7c2.3,0.2,4.8,0.2,7.3-0.1c4.2-0.5,8-1.5,11.2-2.5c0.1,0.1,0.2,0.1,0.4,0.1c2,1.1,4.1,1.2,5.5,1.1
			c1,0,1.8-0.2,2.8-0.5c0.2-0.1,0.4-0.1,0.6-0.2C80.3,48.4,80.3,48.3,80.3,48.1z"/>
		<path d="M48.1,31.8c1.2,0.7,1.7,1,2.9,1.7c0.1,0.1,0.4,0.1,0.6,0l0,0c1.2-0.7,2-1.2,3.2-2c0.1-0.1,0.2-0.2,0-0.4l0,0
			c-1.2-0.7-1.7-1-2.9-1.7c-0.1-0.1-0.4-0.1-0.6,0l0,0c-1.2,0.7-2,1.2-3.2,2C48,31.5,48,31.8,48.1,31.8L48.1,31.8"/>
		<path d="M52.2,34.1c1.2,0.7,1.7,1,2.9,1.7c0.1,0.1,0.4,0.1,0.6,0l0,0c1.4-0.7,2-1.2,3.2-2c0.1-0.1,0.2-0.2,0-0.4l0,0
			c-1.2-0.7-1.7-1-2.9-1.7c-0.1-0.1-0.4-0.1-0.6,0c-1.4,0.7-2,1.2-3.2,2C52.1,33.9,52.1,34.1,52.2,34.1"/>
		<path d="M56.2,36.6c1.2,0.7,1.7,1,2.9,1.7c0.1,0.1,0.4,0.1,0.6,0l0,0c1.4-0.7,2-1.2,3.2-2c0.1-0.1,0.2-0.2,0-0.4l0,0
			c-1.2-0.7-1.7-1-2.9-1.7c-0.1-0.1-0.4-0.1-0.6,0l0,0c-1.4,0.7-2,1.2-3.2,2C56.1,36.3,56.1,36.5,56.2,36.6L56.2,36.6"/>
		<path d="M60.4,38.9c1.2,0.7,1.7,1,2.9,1.7c0.1,0.1,0.4,0.1,0.6,0c1.4-0.7,2-1.2,3.2-2c0.1-0.1,0.2-0.2,0-0.4l0,0
			c-1.2-0.7-1.8-1-2.9-1.7c-0.1-0.1-0.4-0.1-0.6,0l0,0c-1.4,0.7-2,1.2-3.2,2C60.3,38.7,60.3,38.8,60.4,38.9L60.4,38.9"/>
		<path d="M56.7,31.3c1.2,0.7,1.7,1,2.9,1.7c0.1,0.1,0.4,0,0.6,0c1.4-0.7,2-1.2,3.2-2c0.1-0.1,0.2-0.2,0-0.4l0,0
			c-1.2-0.7-1.7-1-2.9-1.7c-0.1-0.1-0.4-0.1-0.6,0c-1.4,0.7-2,1.2-3.2,2C56.6,31.1,56.6,31.3,56.7,31.3"/>
		<path d="M60.9,33.8c1.2,0.7,1.7,1,2.9,1.7c0.1,0.1,0.4,0,0.6,0c1.4-0.7,2-1.2,3.2-2c0.1-0.1,0.2-0.2,0-0.4l0,0
			c-1.2-0.7-1.8-1-2.9-1.7c-0.1-0.1-0.4-0.1-0.6,0l0,0c-1.4,0.7-2,1.2-3.2,2C60.8,33.5,60.8,33.6,60.9,33.8"/>
		<path d="M65,36.1c1.2,0.7,1.8,1,2.9,1.7c0.1,0.1,0.4,0,0.6,0c1.4-0.7,2-1.2,3.3-2c0.1-0.1,0.2-0.2,0-0.4c-1.2-0.7-1.8-1-2.9-1.7
			c-0.1-0.1-0.4-0.1-0.6,0l0,0c-1.4,0.7-2,1.2-3.3,2C65,35.8,64.8,36.1,65,36.1"/>
		<path d="M69.8,33.3c1.2,0.7,1.8,1,2.9,1.7c0.1,0.1,0.4,0.1,0.6,0c1.4-0.7,2-1.2,3.3-2c0.1-0.1,0.2-0.2,0-0.4
			c-1.2-0.7-1.8-1-2.9-1.7c-0.1-0.1-0.4-0.1-0.6,0l0,0c-1.4,0.7-2,1.2-3.3,2C69.6,33,69.5,33.1,69.8,33.3"/>
		<path d="M64.5,41.4c1.2,0.7,1.7,1,2.9,1.7c0.1,0.1,0.4,0.1,0.6,0c1.4-0.7,2-1.2,3.3-2c0.1-0.1,0.2-0.2,0-0.4l0,0
			c-1.2-0.7-1.8-1-2.9-1.7c-0.1-0.1-0.4-0.1-0.6,0l0,0c-1.4,0.7-2,1.2-3.2,2C64.3,41.1,64.3,41.3,64.5,41.4"/>
	</g>
</g>
<g>
	<g>
		<path class="st1" d="M80.3,46.1c0-0.1,0-1.1-1.8-2.1c-0.5-0.2-1-0.5-1.6-0.7c2.6-2,2.1-3.9,2.1-4.1c0-0.2-0.1-0.2-0.1-0.5
			c-0.4,0.1-0.5,0.1-0.9,0.1c-1.1,0.2-2.3,0.6-3.3,1c-2,0.9-3.3,1.8-4.1,3.1c-1.4-0.1-2.8-0.9-3.2-1c-8.8-5.2-13.3-7.7-22-12.8
			c-0.6-0.4-1.6-0.2-2.3,0.1c-2.3,1.5-4.4,3.1-5.9,4.8c-1.6,2-2.3,3.7-2,5.2c0.4,1.7,2.3,3.7,5.4,5.4c1.4,0.7,2.8,1.5,4.5,2.1
			c2.3,0.9,4.9,1.4,7.6,1.7c2.3,0.2,4.8,0.2,7.3-0.1c4.2-0.5,8-1.5,11.2-2.5c0.1,0.1,0.2,0.1,0.4,0.1c2,1.1,4.1,1.2,5.5,1.1
			c1,0,1.8-0.2,2.8-0.5c0.2-0.1,0.4-0.1,0.6-0.2C80.3,46.3,80.3,46.2,80.3,46.1z"/>
		<path class="st1" d="M48,29.7c1.2,0.7,1.7,1,2.9,1.7c0.1,0.1,0.4,0.1,0.6,0l0,0c1.2-0.7,2-1.2,3.2-2c0.1-0.1,0.2-0.2,0-0.4l0,0
			c-1.2-0.7-1.7-1-2.9-1.7c-0.1-0.1-0.4-0.1-0.6,0l0,0c-1.2,0.7-2,1.2-3.2,2C47.9,29.5,47.9,29.7,48,29.7L48,29.7"/>
		<path class="st1" d="M52,32.1c1.2,0.7,1.7,1,2.9,1.7c0.1,0.1,0.4,0.1,0.6,0l0,0c1.4-0.7,2-1.2,3.2-2c0.1-0.1,0.2-0.2,0-0.4l0,0
			c-1.2-0.7-1.7-1-2.9-1.7c-0.1-0.1-0.4-0.1-0.6,0c-1.4,0.7-2,1.2-3.2,2C51.9,31.9,51.9,32.1,52,32.1"/>
		<path class="st1" d="M56.2,34.5c1.2,0.7,1.7,1,2.9,1.7c0.1,0.1,0.4,0.1,0.6,0l0,0c1.4-0.7,2-1.2,3.2-2c0.1-0.1,0.2-0.2,0-0.4l0,0
			c-1.2-0.7-1.7-1-2.9-1.7c-0.1-0.1-0.4-0.1-0.6,0l0,0c-1.4,0.7-2,1.2-3.2,2C56.1,34.3,56.1,34.4,56.2,34.5L56.2,34.5"/>
		<path class="st1" d="M60.3,36.8c1.2,0.7,1.7,1,2.9,1.7c0.1,0.1,0.4,0.1,0.6,0c1.4-0.7,2-1.2,3.2-2c0.1-0.1,0.2-0.2,0-0.4l0,0
			c-1.2-0.7-1.8-1-2.9-1.7c-0.1-0.1-0.4-0.1-0.6,0l0,0c-1.4,0.7-2,1.2-3.2,2C60.1,36.6,60.1,36.8,60.3,36.8L60.3,36.8"/>
		<path class="st1" d="M56.7,29.2c1.2,0.7,1.7,1,2.9,1.7c0.1,0.1,0.4,0,0.6,0c1.4-0.7,2-1.2,3.2-2c0.1-0.1,0.2-0.2,0-0.4l0,0
			c-1.2-0.7-1.7-1-2.9-1.7c-0.1-0.1-0.4-0.1-0.6,0c-1.4,0.7-2,1.2-3.2,2C56.6,29.1,56.6,29.2,56.7,29.2"/>
		<path class="st1" d="M60.9,31.7c1.2,0.7,1.7,1,2.9,1.7c0.1,0.1,0.4,0,0.6,0c1.4-0.7,2-1.2,3.2-2c0.1-0.1,0.2-0.2,0-0.4l0,0
			c-1.2-0.7-1.8-1-2.9-1.7c-0.1-0.1-0.4-0.1-0.6,0l0,0c-1.4,0.7-2,1.2-3.2,2C60.8,31.4,60.6,31.6,60.9,31.7"/>
		<path class="st1" d="M64.9,34c1.2,0.7,1.8,1,2.9,1.7c0.1,0.1,0.4,0,0.6,0c1.4-0.7,2-1.2,3.3-2c0.1-0.1,0.2-0.2,0-0.4
			c-1.2-0.7-1.8-1-2.9-1.7c-0.1-0.1-0.4-0.1-0.6,0l0,0c-1.4,0.7-2,1.2-3.3,2C64.8,33.8,64.8,34,64.9,34"/>
		<path class="st1" d="M69.6,31.2c1.2,0.7,1.8,1,2.9,1.7c0.1,0.1,0.4,0.1,0.6,0c1.4-0.7,2-1.2,3.3-2c0.1-0.1,0.2-0.2,0-0.4
			c-1.2-0.7-1.8-1-2.9-1.7c-0.1-0.1-0.4-0.1-0.6,0l0,0c-1.4,0.7-2,1.2-3.3,2C69.5,30.9,69.5,31.2,69.6,31.2"/>
		<path class="st1" d="M64.4,39.3c1.2,0.7,1.7,1,2.9,1.7c0.1,0.1,0.4,0.1,0.6,0c1.4-0.7,2-1.2,3.3-2c0.1-0.1,0.2-0.2,0-0.4l0,0
			c-1.2-0.7-1.8-1-2.9-1.7c-0.1-0.1-0.4-0.1-0.6,0l0,0c-1.4,0.7-2,1.2-3.2,2C64.3,39.1,64.3,39.2,64.4,39.3"/>
	</g>
</g>
</svg>
