<svg width="134" height="102" viewBox="0 0 134 102" fill="none" xmlns="http://www.w3.org/2000/svg">
<path fill-rule="evenodd" clip-rule="evenodd" d="M97.6694 92.1277C124.88 89.3804 130.34 60.6001 128.084 38.2609C125.829 15.9218 101.743 2.26954 74.6313 5.00692C47.5196 7.7443 2.59998 38.2931 4.85548 60.6322C7.11098 82.9714 70.5577 94.8651 97.6694 92.1277Z" fill="#F2F7FF"/>
<path d="M31.4436 73.3977C31.7709 73.725 31.7709 74.0523 31.4436 74.3797C30.9526 74.707 30.2979 74.707 29.8069 74.3797C29.3159 74.0523 29.3159 73.725 29.8069 73.3977C30.2979 73.234 30.9526 73.234 31.4436 73.3977Z" fill="#16110D"/>
<path d="M35.5352 71.1064C36.0262 71.4337 36.0262 71.761 35.5352 72.0884C35.0443 72.4157 34.3896 72.4157 33.8986 72.0884C33.4076 71.761 33.4076 71.4337 33.8986 71.1064C34.3896 70.779 35.0443 70.779 35.5352 71.1064Z" fill="#16110D"/>
<path d="M39.6269 68.6513C40.1179 68.9786 40.1179 69.306 39.6269 69.6333C39.1359 69.9606 38.4812 69.9606 37.9902 69.6333C37.4992 69.306 37.4992 68.9786 37.9902 68.6513C38.4812 68.4876 39.2996 68.4876 39.6269 68.6513C40.1179 68.9786 39.2996 68.4876 39.6269 68.6513Z" fill="#16110D"/>
<path d="M22.2783 74.5433C22.911 74.5433 23.4239 74.2502 23.4239 73.8887C23.4239 73.5271 22.911 73.234 22.2783 73.234C21.6455 73.234 21.1326 73.5271 21.1326 73.8887C21.1326 74.2502 21.6455 74.5433 22.2783 74.5433Z" fill="#16110D"/>
<path d="M27.1883 71.1064C27.6793 71.4337 27.6793 71.761 27.1883 72.0884C26.6973 72.4157 26.0426 72.4157 25.5516 72.0884C25.2243 71.761 25.2243 71.27 25.7153 71.1064C26.0426 70.779 26.8609 70.779 27.1883 71.1064Z" fill="#16110D"/>
<path d="M30.6252 69.797C31.258 69.797 31.7709 69.5039 31.7709 69.1423C31.7709 68.7808 31.258 68.4877 30.6252 68.4877C29.9925 68.4877 29.4796 68.7808 29.4796 69.1423C29.4796 69.5039 29.9925 69.797 30.6252 69.797Z" fill="#16110D"/>
<path d="M34.717 67.342C35.3497 67.342 35.8626 67.0489 35.8626 66.6873C35.8626 66.3258 35.3497 66.0327 34.717 66.0327C34.0842 66.0327 33.5713 66.3258 33.5713 66.6873C33.5713 67.0489 34.0842 67.342 34.717 67.342Z" fill="#16110D"/>
<path d="M19.0049 71.1064C19.4959 71.4337 19.4959 71.761 19.0049 72.0884C18.5139 72.4157 17.8592 72.4157 17.3682 72.0884C16.8773 71.761 16.8773 71.4337 17.3682 71.1064C17.8592 70.779 18.5139 70.779 19.0049 71.1064Z" fill="#16110D"/>
<path d="M23.0965 68.6513C23.5875 68.9786 23.5875 69.306 23.0965 69.6333C22.6055 69.9606 21.9509 69.9606 21.4599 69.6333C20.9689 69.306 20.9689 68.9786 21.4599 68.6513C21.9509 68.4876 22.6055 68.4876 23.0965 68.6513Z" fill="#16110D"/>
<path d="M27.1883 66.1963C27.6793 66.5237 27.6793 66.851 27.1883 67.1783C26.6973 67.5057 26.0426 67.5057 25.5516 67.1783C25.2243 67.0147 25.2243 66.5237 25.7153 66.1963C26.0426 66.0327 26.8609 66.0327 27.1883 66.1963Z" fill="#16110D"/>
<path d="M31.4436 64.7233C30.9526 65.0507 30.2979 65.0507 29.8069 64.7233C29.3159 64.396 29.3159 64.0687 29.8069 63.7413C30.2979 63.5777 31.7709 64.5597 31.4436 64.7233Z" fill="#16110D"/>
<path d="M19.0049 66.1963C19.4959 66.5237 19.4959 66.851 19.0049 67.1783C18.5139 67.5057 17.8592 67.5057 17.3682 67.1783C16.8773 66.851 16.8773 66.5237 17.3682 66.1963C17.8592 66.0327 18.5139 66.0327 19.0049 66.1963Z" fill="#16110D"/>
<path d="M22.2783 65.0507C22.911 65.0507 23.4239 64.7576 23.4239 64.3961C23.4239 64.0345 22.911 63.7414 22.2783 63.7414C21.6455 63.7414 21.1326 64.0345 21.1326 64.3961C21.1326 64.7576 21.6455 65.0507 22.2783 65.0507Z" fill="#16110D"/>
<path d="M27.1883 62.432C26.6973 62.7594 26.0426 62.7594 25.5516 62.432C25.0606 62.1047 25.0606 61.7774 25.5516 61.45C26.0426 61.2864 27.6793 62.1047 27.1883 62.432Z" fill="#16110D"/>
<path d="M64.2782 59.9247C64.911 59.9247 65.4239 59.6316 65.4239 59.27C65.4239 58.9085 64.911 58.6154 64.2782 58.6154C63.6455 58.6154 63.1326 58.9085 63.1326 59.27C63.1326 59.6316 63.6455 59.9247 64.2782 59.9247Z" fill="#16110D"/>
<path d="M70.0049 56.1228C70.4959 56.4501 70.4959 56.7774 70.0049 57.1048C69.5139 57.4321 68.8592 57.4321 68.3682 57.1048C67.8773 56.7774 67.8773 56.4501 68.3682 56.1228C68.8592 55.9591 69.6776 55.9591 70.0049 56.1228Z" fill="#16110D"/>
<path d="M61.0049 56.3241C61.4959 56.6514 61.4959 56.9787 61.0049 57.3061C60.5139 57.6334 59.8592 57.6334 59.3682 57.3061C58.8773 56.9787 58.8773 56.6514 59.3682 56.3241C59.8592 56.1604 60.5139 56.1604 61.0049 56.3241Z" fill="#16110D"/>
<path d="M66.0049 54.1228C66.4959 54.4501 66.4959 54.7774 66.0049 55.1048C65.5139 55.4321 64.8592 55.4321 64.3682 55.1048C63.8773 54.7774 63.8773 54.4501 64.3682 54.1228C64.8592 53.9591 65.5139 53.9591 66.0049 54.1228Z" fill="#16110D"/>
<path d="M80.0049 45.2455C80.4959 45.5729 80.4959 45.9002 80.0049 46.2275C79.5139 46.5549 78.8592 46.5549 78.3682 46.2275C77.8773 45.9002 77.8773 45.5729 78.3682 45.2455C78.8592 44.9182 79.5139 44.9182 80.0049 45.2455Z" fill="#16110D"/>
<path d="M75.0049 48.2455C75.4959 48.5729 75.4959 48.9002 75.0049 49.2275C74.5139 49.5549 73.8592 49.5549 73.3682 49.2275C72.8773 48.9002 72.8773 48.5729 73.3682 48.2455C73.8592 47.9182 74.5139 47.9182 75.0049 48.2455Z" fill="#16110D"/>
<path d="M48.0966 68.7381C48.5876 69.0655 48.5876 69.3928 48.0966 69.7201C47.6056 70.0475 46.9509 70.0475 46.4599 69.7201C45.9689 69.3928 45.9689 69.0655 46.4599 68.7381C46.9509 68.5745 47.7693 68.5745 48.0966 68.7381Z" fill="#16110D"/>
<path d="M52.3519 66.4468C52.8429 66.7742 52.8429 67.1015 52.3519 67.4288C51.8609 67.7562 51.2063 67.7562 50.7153 67.4288C50.2243 67.1015 50.2243 66.7742 50.7153 66.4468C51.2063 66.1195 51.8609 66.1195 52.3519 66.4468Z" fill="#16110D"/>
<path d="M56.4435 63.9918C56.9345 64.3192 56.9345 64.6465 56.4435 64.9738C55.9525 65.3012 55.2979 65.3012 54.8069 64.9738C54.3159 64.6465 54.3159 64.3192 54.8069 63.9918C55.2979 63.8282 55.9525 63.8282 56.4435 63.9918Z" fill="#16110D"/>
<path d="M60.5352 61.7005C61.0262 62.0278 61.0262 62.3551 60.5352 62.6825C60.0442 63.0098 59.3895 63.0098 58.8985 62.6825C58.4075 62.3551 58.4075 62.0278 58.8985 61.7005C59.3895 61.3731 60.0442 61.3731 60.5352 61.7005Z" fill="#16110D"/>
<path d="M44.0049 66.4468C44.4959 66.7742 44.4959 67.1015 44.0049 67.4288C43.5139 67.7562 42.8592 67.7562 42.3682 67.4288C41.8773 67.1015 41.8773 66.7742 42.3682 66.4468C42.8592 66.1195 43.5139 66.1195 44.0049 66.4468Z" fill="#16110D"/>
<path d="M48.0966 63.9918C48.5876 64.3192 48.5876 64.6465 48.0966 64.9738C47.6056 65.3012 46.9509 65.3012 46.4599 64.9738C45.9689 64.6465 45.9689 64.3192 46.4599 63.9918C46.9509 63.8282 47.7693 63.8282 48.0966 63.9918Z" fill="#16110D"/>
<path d="M52.3519 61.7005C52.8429 62.0278 52.8429 62.3551 52.3519 62.6825C51.8609 63.0098 51.2063 63.0098 50.7153 62.6825C50.2243 62.3551 50.2243 62.0278 50.7153 61.7005C51.2063 61.3731 51.8609 61.3731 52.3519 61.7005Z" fill="#16110D"/>
<path d="M56.4435 59.2455C56.9345 59.5728 56.9345 59.9001 56.4435 60.2275C55.9525 60.5548 55.2979 60.5548 54.8069 60.2275C54.3159 59.9001 54.3159 59.5728 54.8069 59.2455C55.2979 58.9181 55.9525 58.9181 56.4435 59.2455Z" fill="#16110D"/>
<path d="M95.9312 41.7234C96.5639 41.7234 97.0769 41.4303 97.0769 41.0688C97.0769 40.7072 96.5639 40.4141 95.9312 40.4141C95.2985 40.4141 94.7855 40.7072 94.7855 41.0688C94.7855 41.4303 95.2985 41.7234 95.9312 41.7234Z" fill="#16110D"/>
<path d="M92.6579 38.1228C93.1489 38.4501 93.1489 38.7774 92.6579 39.1048C92.1669 39.4321 91.5122 39.4321 91.0212 39.1048C90.5302 38.7774 90.5302 38.4501 91.0212 38.1228C91.5122 37.9591 92.1669 37.9591 92.6579 38.1228Z" fill="#16110D"/>
<path d="M89.0965 45.5369C89.5875 45.8642 89.5875 46.1916 89.0965 46.5189C88.6055 46.8462 87.9509 46.8462 87.4599 46.5189C86.9689 46.1916 86.9689 45.8642 87.4599 45.5369C87.9509 45.3732 88.6055 45.3732 89.0965 45.5369Z" fill="#16110D"/>
<path d="M92.1882 43.4992C92.6792 43.8265 92.6792 44.1538 92.1882 44.4812C91.6972 44.8085 91.0425 44.8085 90.5515 44.4812C90.0605 44.1538 90.0605 43.8265 90.5515 43.4992C91.0425 43.1718 91.6972 43.1718 92.1882 43.4992Z" fill="#16110D"/>
<path d="M84.0049 42.2455C84.4959 42.5729 84.4959 42.9002 84.0049 43.2275C83.5139 43.5549 82.8592 43.5549 82.3682 43.2275C81.8773 42.9002 81.8773 42.5729 82.3682 42.2455C82.8592 41.9182 83.5139 41.9182 84.0049 42.2455Z" fill="#16110D"/>
<path d="M88.0049 40.2455C88.4959 40.5729 88.4959 40.9002 88.0049 41.2275C87.5139 41.5549 86.8592 41.5549 86.3682 41.2275C85.8773 40.9002 85.8773 40.5729 86.3682 40.2455C86.8592 39.9182 87.5139 39.9182 88.0049 40.2455Z" fill="#16110D"/>
<path d="M84.6579 48.1228C85.1489 48.4502 85.1489 48.7775 84.6579 49.1048C84.1669 49.4322 83.5122 49.4322 83.0212 49.1048C82.5302 48.7775 82.5302 48.4502 83.0212 48.1228C83.5122 47.9592 84.1669 47.9592 84.6579 48.1228Z" fill="#16110D"/>
<path d="M71.0049 51.1228C71.4959 51.4501 71.4959 51.7775 71.0049 52.1048C70.5139 52.4321 69.8592 52.4321 69.3682 52.1048C68.8773 51.7775 68.8773 51.4501 69.3682 51.1228C69.8592 50.9591 70.5139 50.9591 71.0049 51.1228Z" fill="#16110D"/>
<path d="M84.1882 52.4992C84.6792 52.8265 84.6792 53.1538 84.1882 53.4812C83.6972 53.8085 83.0425 53.8085 82.5515 53.4812C82.0605 53.1538 82.0605 52.8265 82.5515 52.4992C83.0425 52.1718 83.6972 52.1718 84.1882 52.4992Z" fill="#16110D"/>
<path d="M75.0049 53.2455C75.4959 53.5729 75.4959 53.9002 75.0049 54.2275C74.5139 54.5549 73.8592 54.5549 73.3682 54.2275C72.8773 53.9002 72.8773 53.5729 73.3682 53.2455C73.8592 52.9182 74.5139 52.9182 75.0049 53.2455Z" fill="#16110D"/>
<path d="M80.0049 50.2455C80.4959 50.5729 80.4959 50.9002 80.0049 51.2275C79.5139 51.5549 78.8592 51.5549 78.3682 51.2275C77.8773 50.9002 77.8773 50.5729 78.3682 50.2455C78.8592 49.9182 79.5139 49.9182 80.0049 50.2455Z" fill="#16110D"/>
<path d="M39.7906 73.0703C40.2816 73.3977 40.2816 73.725 39.7906 74.0523C39.2996 74.3797 38.6449 74.3797 38.1539 74.0523C37.6629 73.725 37.6629 73.3977 38.1539 73.0703C38.6449 72.743 39.4633 72.743 39.7906 73.0703Z" fill="#16110D"/>
<path d="M44.0459 70.6153C44.5369 70.9426 44.5369 71.27 44.0459 71.5973C43.5549 71.9246 42.9003 71.9246 42.4093 71.5973C41.9183 71.27 41.9183 70.9426 42.4093 70.6153C42.9003 70.4516 43.5549 70.4516 44.0459 70.6153C44.3733 70.9426 43.5549 70.4516 44.0459 70.6153Z" fill="#16110D"/>
<path d="M104.625 61.216C105.258 61.216 105.771 60.9229 105.771 60.5613C105.771 60.1998 105.258 59.9067 104.625 59.9067C103.992 59.9067 103.479 60.1998 103.479 60.5613C103.479 60.9229 103.992 61.216 104.625 61.216Z" fill="#16110D"/>
<path d="M101.352 57.779C101.843 58.1063 101.843 58.4337 101.352 58.761C100.861 59.0883 100.206 59.0883 99.7152 58.761C99.2242 58.4337 99.2242 58.1063 99.7152 57.779C100.206 57.4517 100.861 57.4517 101.352 57.779Z" fill="#16110D"/>
<path d="M96.4419 56.4697C97.0746 56.4697 97.5875 56.1766 97.5875 55.815C97.5875 55.4535 97.0746 55.1604 96.4419 55.1604C95.8091 55.1604 95.2962 55.4535 95.2962 55.815C95.2962 56.1766 95.8091 56.4697 96.4419 56.4697Z" fill="#16110D"/>
<path d="M89.0049 50.2455C89.4959 50.5728 89.4959 50.9001 89.0049 51.2275C88.5139 51.5548 87.8592 51.5548 87.3682 51.2275C86.8773 50.9001 86.8773 50.5728 87.3682 50.2455C87.8592 49.9181 88.5139 49.9181 89.0049 50.2455Z" fill="#16110D"/>
<path d="M92.4419 54.3093C93.0746 54.3093 93.5875 54.0162 93.5875 53.6546C93.5875 53.2931 93.0746 53 92.4419 53C91.8091 53 91.2962 53.2931 91.2962 53.6546C91.2962 54.0162 91.8091 54.3093 92.4419 54.3093Z" fill="#16110D"/>
<path d="M117.064 58.761C117.697 58.761 118.209 58.4679 118.209 58.1064C118.209 57.7448 117.697 57.4517 117.064 57.4517C116.431 57.4517 115.918 57.7448 115.918 58.1064C115.918 58.4679 116.431 58.761 117.064 58.761Z" fill="#16110D"/>
<path d="M121.146 56.3093C121.778 56.3093 122.291 56.0162 122.291 55.6546C122.291 55.2931 121.778 55 121.146 55C120.513 55 120 55.2931 120 55.6546C120 56.0162 120.513 56.3093 121.146 56.3093Z" fill="#16110D"/>
<path d="M120.146 51.3093C120.778 51.3093 121.291 51.0162 121.291 50.6546C121.291 50.2931 120.778 50 120.146 50C119.513 50 119 50.2931 119 50.6546C119 51.0162 119.513 51.3093 120.146 51.3093Z" fill="#16110D"/>
<path d="M108.881 58.761C109.513 58.761 110.026 58.4679 110.026 58.1064C110.026 57.7448 109.513 57.4517 108.881 57.4517C108.248 57.4517 107.735 57.7448 107.735 58.1064C107.735 58.4679 108.248 58.761 108.881 58.761Z" fill="#16110D"/>
<path d="M104.881 56.761C105.513 56.761 106.026 56.4679 106.026 56.1064C106.026 55.7448 105.513 55.4517 104.881 55.4517C104.248 55.4517 103.735 55.7448 103.735 56.1064C103.735 56.4679 104.248 56.761 104.881 56.761Z" fill="#16110D"/>
<path d="M113.79 55.324C114.281 55.6514 114.281 55.9787 113.79 56.306C113.299 56.6334 112.645 56.6334 112.154 56.306C111.663 55.9787 111.663 55.6514 112.154 55.324C112.645 55.1604 113.299 55.1604 113.79 55.324Z" fill="#16110D"/>
<path d="M117.882 52.8691C118.373 53.1964 118.373 53.5237 117.882 53.8511C117.391 54.1784 116.737 54.1784 116.246 53.8511C115.755 53.5237 115.755 53.1964 116.246 52.8691C116.737 52.7054 117.555 52.7054 117.882 52.8691Z" fill="#16110D"/>
<path d="M83.6252 38.216C84.2579 38.216 84.7708 37.9229 84.7708 37.5613C84.7708 37.1998 84.2579 36.9067 83.6252 36.9067C82.9924 36.9067 82.4795 37.1998 82.4795 37.5613C82.4795 37.9229 82.9924 38.216 83.6252 38.216Z" fill="#16110D"/>
<path d="M83.6252 33.216C84.2579 33.216 84.7708 32.9229 84.7708 32.5613C84.7708 32.1998 84.2579 31.9067 83.6252 31.9067C82.9924 31.9067 82.4795 32.1998 82.4795 32.5613C82.4795 32.9229 82.9924 33.216 83.6252 33.216Z" fill="#16110D"/>
<path d="M75.4419 38.216C76.0746 38.216 76.5875 37.9229 76.5875 37.5613C76.5875 37.1998 76.0746 36.9067 75.4419 36.9067C74.8091 36.9067 74.2962 37.1998 74.2962 37.5613C74.2962 37.9229 74.8091 38.216 75.4419 38.216Z" fill="#16110D"/>
<path d="M80.3518 34.779C80.8428 35.1063 80.8428 35.4337 80.3518 35.761C79.8608 36.0883 79.2062 36.0883 78.7152 35.761C78.2242 35.4337 78.2242 35.1063 78.7152 34.779C79.2062 34.4517 79.8608 34.4517 80.3518 34.779Z" fill="#16110D"/>
<path d="M79.2782 40.6825C79.911 40.6825 80.4239 40.3894 80.4239 40.0279C80.4239 39.6663 79.911 39.3732 79.2782 39.3732C78.6455 39.3732 78.1326 39.6663 78.1326 40.0279C78.1326 40.3894 78.6455 40.6825 79.2782 40.6825Z" fill="#16110D"/>
<path d="M76.0049 37.2455C76.4959 37.5729 76.4959 37.9002 76.0049 38.2275C75.5139 38.5549 74.8592 38.5549 74.3682 38.2275C73.8773 37.9002 73.8773 37.5729 74.3682 37.2455C74.8592 36.9182 75.5139 36.9182 76.0049 37.2455Z" fill="#16110D"/>
<path d="M72.0049 34.779C72.4959 35.1063 72.4959 35.4337 72.0049 35.761C71.5139 36.0883 70.8592 36.0883 70.3682 35.761C69.8773 35.4337 69.8773 35.1063 70.3682 34.779C70.8592 34.4517 71.5139 34.4517 72.0049 34.779Z" fill="#16110D"/>
<path d="M75.4419 33.4697C76.0746 33.4697 76.5875 33.1766 76.5875 32.815C76.5875 32.4535 76.0746 32.1604 75.4419 32.1604C74.8091 32.1604 74.2962 32.4535 74.2962 32.815C74.2962 33.1766 74.8091 33.4697 75.4419 33.4697Z" fill="#16110D"/>
<path d="M71.4419 31.3093C72.0746 31.3093 72.5875 31.0162 72.5875 30.6546C72.5875 30.2931 72.0746 30 71.4419 30C70.8091 30 70.2962 30.2931 70.2962 30.6546C70.2962 31.0162 70.8091 31.3093 71.4419 31.3093Z" fill="#16110D"/>
<path d="M91.1538 37.0703C91.6448 36.743 92.2995 36.743 92.7905 37.0703C93.2815 37.3977 93.2815 37.725 92.7905 38.0523C92.2995 38.3797 91.6448 38.3797 91.1538 38.0523C90.8265 37.725 90.8265 37.3977 91.1538 37.0703Z" fill="#16110D"/>
<path d="M96.0638 35.761C96.6965 35.761 97.2095 35.4679 97.2095 35.1064C97.2095 34.7448 96.6965 34.4517 96.0638 34.4517C95.4311 34.4517 94.9182 34.7448 94.9182 35.1064C94.9182 35.4679 95.4311 35.761 96.0638 35.761Z" fill="#16110D"/>
<path d="M87.8805 35.761C88.5133 35.761 89.0262 35.4679 89.0262 35.1064C89.0262 34.7448 88.5133 34.4517 87.8805 34.4517C87.2478 34.4517 86.7349 34.7448 86.7349 35.1064C86.7349 35.4679 87.2478 35.761 87.8805 35.761Z" fill="#16110D"/>
<path d="M92.7905 32.324C93.2815 32.6514 93.2815 32.9787 92.7905 33.306C92.2995 33.6334 91.6448 33.6334 91.1538 33.306C90.6628 32.9787 90.6628 32.6514 91.1538 32.324C91.6448 32.1604 92.2995 32.1604 92.7905 32.324Z" fill="#16110D"/>
<path d="M96.8822 29.8691C97.3732 30.1964 97.3732 30.5237 96.8822 30.8511C96.3912 31.1784 95.7365 31.1784 95.2455 30.8511C94.7545 30.5237 94.7545 30.1964 95.2455 29.8691C95.7365 29.7054 96.5548 29.7054 96.8822 29.8691Z" fill="#16110D"/>
<path d="M109.699 50.8691C110.19 51.1964 110.19 51.5237 109.699 51.8511C109.208 52.1784 108.553 52.1784 108.062 51.8511C107.571 51.5237 107.571 51.1964 108.062 50.8691C108.553 50.7054 109.208 50.7054 109.699 50.8691Z" fill="#16110D"/>
<path d="M112.972 49.7233C113.605 49.7233 114.118 49.4302 114.118 49.0686C114.118 48.7071 113.605 48.414 112.972 48.414C112.339 48.414 111.827 48.7071 111.827 49.0686C111.827 49.4302 112.339 49.7233 112.972 49.7233Z" fill="#16110D"/>
<path d="M99.7152 50.8691C100.206 50.5417 100.861 50.5417 101.352 50.8691C101.843 51.1964 101.843 51.5237 101.352 51.8511C100.861 52.1784 100.206 52.1784 99.7152 51.8511C99.3879 51.6874 99.3879 51.1964 99.7152 50.8691Z" fill="#16110D"/>
<path d="M105.444 48.5777C105.935 48.905 105.935 49.2323 105.444 49.5597C104.953 49.887 104.298 49.887 103.807 49.5597C103.316 49.2323 103.316 48.905 103.807 48.5777C104.298 48.2504 105.116 48.2504 105.444 48.5777Z" fill="#16110D"/>
<path d="M109.699 46.1227C110.19 46.4501 110.19 46.7774 109.699 47.1047C109.208 47.432 108.553 47.432 108.062 47.1047C107.571 46.7774 107.571 46.4501 108.062 46.1227C108.553 45.9591 109.208 45.9591 109.699 46.1227Z" fill="#16110D"/>
<path fill-rule="evenodd" clip-rule="evenodd" d="M46.8035 43.8868C46.8035 46.219 48.2864 48.5513 51.2522 50.3308C57.1838 53.8898 66.8008 53.8898 72.7324 50.3308C75.6982 48.5513 77.1811 46.219 77.1811 43.8868V40.849C77.1811 38.5167 75.6982 36.1844 72.7324 34.405C66.8008 30.846 57.1838 30.846 51.2522 34.405C48.2864 36.1844 46.8035 38.5167 46.8035 40.849V43.8868Z" fill="black"/>
<circle r="10.7582" transform="matrix(0.866041 -0.499972 0.866041 0.499972 61.7851 40.2749)" fill="#0066FF"/>
<circle r="11.0424" transform="matrix(0.866041 -0.499972 0.866041 0.499972 61.9923 40.5417)" stroke="white"/>
<path d="M69.5949 37.8077L65.1886 46.9466L53.7658 40.3517L69.5949 37.8077Z" fill="white"/>
<path d="M53.8513 38.4897L67.6852 36.3496L63.9784 44.3366L53.8513 38.4897Z" stroke="black"/>
<path fill-rule="evenodd" clip-rule="evenodd" d="M62.2984 18.9828L65 20L62.7682 21.831L62.5807 20.694C60.9191 21.262 59.2237 22.3245 57.8464 23.5866C56.5107 24.8105 55.4994 26.1986 55.0939 27.4748L56.1627 27.3578L55 30L53.2931 27.672L54.5553 27.5338C54.952 26.0772 56.0727 24.5337 57.5086 23.2179C58.949 21.8981 60.7345 20.7815 62.4982 20.1941L62.2984 18.9828Z" fill="black"/>
<path d="M65 20L65.1586 20.1933L65.4933 19.9187L65.0881 19.7661L65 20ZM62.2984 18.9828L62.3865 18.7488L61.9813 18.5962L62.0518 19.0234L62.2984 18.9828ZM62.7682 21.831L62.5216 21.8717L62.592 22.2989L62.9268 22.0243L62.7682 21.831ZM62.5807 20.694L62.8274 20.6533L62.7793 20.3619L62.4998 20.4575L62.5807 20.694ZM57.8464 23.5866L57.6775 23.4023H57.6775L57.8464 23.5866ZM55.0939 27.4748L54.8556 27.3991L54.7393 27.7651L55.1211 27.7233L55.0939 27.4748ZM56.1627 27.3578L56.3915 27.4585L56.5659 27.0621L56.1355 27.1093L56.1627 27.3578ZM55 30L54.7984 30.1478L55.0544 30.4971L55.2288 30.1007L55 30ZM53.2931 27.672L53.2659 27.4235L52.8354 27.4706L53.0915 27.8198L53.2931 27.672ZM54.5553 27.5338L54.5825 27.7823L54.7517 27.7638L54.7965 27.5995L54.5553 27.5338ZM57.5086 23.2179L57.6775 23.4023L57.5086 23.2179ZM62.4982 20.1941L62.5772 20.4313L62.7796 20.3639L62.7449 20.1535L62.4982 20.1941ZM65.0881 19.7661L62.3865 18.7488L62.2103 19.2167L64.9119 20.234L65.0881 19.7661ZM62.9268 22.0243L65.1586 20.1933L64.8414 19.8068L62.6097 21.6377L62.9268 22.0243ZM62.334 20.7347L62.5216 21.8717L63.0149 21.7903L62.8274 20.6533L62.334 20.7347ZM58.0153 23.7709C59.3713 22.5284 61.0375 21.4857 62.6616 20.9306L62.4998 20.4575C60.8006 21.0383 59.0761 22.1207 57.6775 23.4023L58.0153 23.7709ZM55.3321 27.5505C55.7196 26.3312 56.6976 24.9784 58.0153 23.7709L57.6775 23.4023C56.3239 24.6426 55.2793 26.0661 54.8556 27.3991L55.3321 27.5505ZM56.1355 27.1093L55.0667 27.2263L55.1211 27.7233L56.1899 27.6063L56.1355 27.1093ZM55.2288 30.1007L56.3915 27.4585L55.9339 27.2571L54.7712 29.8993L55.2288 30.1007ZM53.0915 27.8198L54.7984 30.1478L55.2016 29.8522L53.4947 27.5242L53.0915 27.8198ZM54.528 27.2853L53.2659 27.4235L53.3203 27.9205L54.5825 27.7823L54.528 27.2853ZM57.3397 23.0336C55.886 24.3658 54.7281 25.9479 54.314 27.4681L54.7965 27.5995C55.1759 26.2065 56.2595 24.7017 57.6775 23.4023L57.3397 23.0336ZM62.4193 19.9569C60.6169 20.5571 58.8016 21.6941 57.3397 23.0336L57.6775 23.4023C59.0964 22.1021 60.8521 21.0058 62.5772 20.4313L62.4193 19.9569ZM62.0518 19.0234L62.2516 20.2348L62.7449 20.1535L62.5451 18.9421L62.0518 19.0234Z" fill="black"/>
<path fill-rule="evenodd" clip-rule="evenodd" d="M113.543 27.0627L112.476 29.7449L110.687 27.4796L111.82 27.3141C111.215 25.5981 109.991 24.2727 108.562 23.2731C107.148 22.2839 105.546 21.6225 104.181 21.2246L103.969 22.3742L101.772 20.5026L104.491 19.5351L104.272 20.7304C105.685 21.1378 107.362 21.8236 108.849 22.8634C110.36 23.9204 111.686 25.3525 112.324 27.2406L113.543 27.0627Z" fill="black"/>
<path d="M112.476 29.7449L112.28 29.8999L112.548 30.2397L112.708 29.8374L112.476 29.7449ZM113.543 27.0627L113.775 27.1551L113.935 26.7528L113.507 26.8153L113.543 27.0627ZM110.687 27.4796L110.65 27.2322L110.222 27.2947L110.49 27.6345L110.687 27.4796ZM111.82 27.3141L111.857 27.5615L112.157 27.5176L112.056 27.231L111.82 27.3141ZM108.562 23.2731L108.705 23.0682L108.562 23.2731ZM104.181 21.2246L104.251 20.9846L103.985 20.9071L103.935 21.1794L104.181 21.2246ZM103.969 22.3742L103.807 22.5646L104.137 22.8453L104.215 22.4194L103.969 22.3742ZM101.772 20.5026L101.688 20.267L101.28 20.4121L101.61 20.6929L101.772 20.5026ZM104.491 19.5351L104.737 19.5803L104.816 19.1544L104.408 19.2995L104.491 19.5351ZM104.272 20.7304L104.026 20.6852L103.985 20.9079L104.202 20.9706L104.272 20.7304ZM108.849 22.8634L108.705 23.0682L108.849 22.8634ZM112.324 27.2406L112.087 27.3206L112.154 27.5181L112.36 27.488L112.324 27.2406ZM112.708 29.8374L113.775 27.1551L113.311 26.9703L112.243 29.6525L112.708 29.8374ZM110.49 27.6345L112.28 29.8999L112.672 29.59L110.883 27.3246L110.49 27.6345ZM111.784 27.0667L110.65 27.2322L110.723 27.727L111.857 27.5615L111.784 27.0667ZM108.419 23.4779C109.819 24.4575 111.002 25.7446 111.585 27.3972L112.056 27.231C111.429 25.4515 110.163 24.0878 108.705 23.0682L108.419 23.4779ZM104.111 21.4646C105.457 21.8571 107.033 22.5084 108.419 23.4779L108.705 23.0682C107.264 22.0595 105.634 21.3879 104.251 20.9846L104.111 21.4646ZM104.215 22.4194L104.427 21.2698L103.935 21.1794L103.724 22.329L104.215 22.4194ZM101.61 20.6929L103.807 22.5646L104.132 22.1839L101.934 20.3122L101.61 20.6929ZM104.408 19.2995L101.688 20.267L101.855 20.7381L104.575 19.7706L104.408 19.2995ZM104.518 20.7756L104.737 19.5803L104.246 19.4899L104.026 20.6852L104.518 20.7756ZM108.992 22.6585C107.477 21.5989 105.773 20.903 104.341 20.4902L104.202 20.9706C105.597 21.3726 107.247 22.0482 108.705 23.0682L108.992 22.6585ZM112.561 27.1606C111.901 25.2073 110.532 23.7359 108.992 22.6585L108.705 23.0682C110.187 24.105 111.471 25.4977 112.087 27.3206L112.561 27.1606ZM113.507 26.8153L112.288 26.9932L112.36 27.488L113.579 27.3101L113.507 26.8153Z" fill="black"/>
<path fill-rule="evenodd" clip-rule="evenodd" d="M76.432 60.4321L74.4629 57.5372L77.9465 57.291L77.3384 58.5522C81.1011 59.7626 85.6556 59.3959 88.6875 58.5248L88.0974 57.2542L91.5774 57.5774L89.5717 60.4283L88.9457 59.0807C85.8104 59.9998 81.0338 60.4024 77.0736 59.1015L76.432 60.4321Z" fill="black"/>
<path d="M74.4629 57.5372L74.4452 57.2878L74.0117 57.3184L74.2561 57.6778L74.4629 57.5372ZM76.432 60.4321L76.2253 60.5727L76.469 60.9309L76.6572 60.5406L76.432 60.4321ZM77.9465 57.291L78.1717 57.3996L78.3589 57.0113L77.9289 57.0417L77.9465 57.291ZM77.3384 58.5522L77.1132 58.4436L76.9885 58.7023L77.2619 58.7902L77.3384 58.5522ZM88.6875 58.5248L88.7566 58.7651L89.0373 58.6844L88.9143 58.4195L88.6875 58.5248ZM88.0974 57.2542L88.1205 57.0053L87.6875 56.9651L87.8707 57.3596L88.0974 57.2542ZM91.5774 57.5774L91.7819 57.7213L92.0302 57.3684L91.6005 57.3285L91.5774 57.5774ZM89.5717 60.4283L89.345 60.5336L89.5272 60.926L89.7762 60.5722L89.5717 60.4283ZM88.9457 59.0807L89.1725 58.9754L89.0819 58.7803L88.8754 58.8408L88.9457 59.0807ZM77.0736 59.1015L77.1516 58.864L76.9435 58.7956L76.8484 58.9929L77.0736 59.1015ZM74.2561 57.6778L76.2253 60.5727L76.6387 60.2915L74.6696 57.3966L74.2561 57.6778ZM77.9289 57.0417L74.4452 57.2878L74.4805 57.7866L77.9641 57.5404L77.9289 57.0417ZM77.5636 58.6608L78.1717 57.3996L77.7213 57.1825L77.1132 58.4436L77.5636 58.6608ZM88.6185 58.2845C85.6197 59.146 81.1179 59.5054 77.415 58.3142L77.2619 58.7902C81.0843 60.0198 85.6914 59.6457 88.7566 58.7651L88.6185 58.2845ZM87.8707 57.3596L88.4608 58.6301L88.9143 58.4195L88.3241 57.1489L87.8707 57.3596ZM91.6005 57.3285L88.1205 57.0053L88.0743 57.5032L91.5543 57.8264L91.6005 57.3285ZM89.7762 60.5722L91.7819 57.7213L91.373 57.4336L89.3672 60.2845L89.7762 60.5722ZM88.719 59.186L89.345 60.5336L89.7984 60.323L89.1725 58.9754L88.719 59.186ZM76.9956 59.339C81.0167 60.6599 85.847 60.2496 89.0161 59.3206L88.8754 58.8408C85.7738 59.75 81.0509 60.1449 77.1516 58.864L76.9956 59.339ZM76.6572 60.5406L77.2988 59.2101L76.8484 58.9929L76.2068 60.3235L76.6572 60.5406Z" fill="black"/>
<path fill-rule="evenodd" clip-rule="evenodd" d="M88.8035 44.8868C88.8035 47.219 90.2864 49.5513 93.2522 51.3308C99.1838 54.8898 108.801 54.8898 114.732 51.3308C117.698 49.5513 119.181 47.219 119.181 44.8868V41.849C119.181 39.5167 117.698 37.1844 114.732 35.405C108.801 31.846 99.1838 31.846 93.2522 35.405C90.2864 37.1844 88.8035 39.5167 88.8035 41.849V44.8868Z" fill="black"/>
<circle r="10.7582" transform="matrix(0.866041 -0.499972 0.866041 0.499972 103.785 41.2749)" fill="#0066FF"/>
<circle r="11.0424" transform="matrix(0.866041 -0.499972 0.866041 0.499972 103.992 41.5417)" stroke="white"/>
<rect width="9.58627" height="9.42398" transform="matrix(0.866025 0.5 -0.866025 0.5 103.875 37.5039)" fill="white"/>
<rect x="-2.98023e-08" y="0.5" width="9.41025" height="9.41025" transform="matrix(0.866025 0.5 -0.866025 0.5 104.449 35.25)" stroke="black"/>
<path fill-rule="evenodd" clip-rule="evenodd" d="M67.8036 22.8867C67.8036 25.219 69.2864 27.5513 72.2522 29.3308C78.1838 32.8897 87.8008 32.8897 93.7324 29.3308C96.6982 27.5513 98.1811 25.219 98.1811 22.8867V19.849C98.1811 17.5167 96.6982 15.1844 93.7324 13.4049C87.8008 9.84598 78.1838 9.84598 72.2522 13.4049C69.2864 15.1844 67.8036 17.5167 67.8036 19.849V22.8867Z" fill="black"/>
<circle r="10.7582" transform="matrix(0.866041 -0.499972 0.866041 0.499972 82.7851 19.2749)" fill="#0066FF"/>
<circle r="11.0424" transform="matrix(0.866041 -0.499972 0.866041 0.499972 82.9923 19.5417)" stroke="white"/>
<circle r="5.63916" transform="matrix(0.866025 0.5 -0.866025 0.5 83.4821 19.6391)" fill="white"/>
<circle r="5.55181" transform="matrix(0.866025 0.5 -0.866025 0.5 82.4821 18.0518)" stroke="black"/>
<path d="M53.3794 54.111C53.9857 53.7609 54.6786 53.5609 55.4004 53.5442C56.1222 53.5276 56.8729 53.6609 57.5658 54.061C58.9227 54.8444 58.8072 55.8779 57.6235 56.5613L45.815 63.379C44.7468 63.9957 43.5919 64.4625 42.4948 64.8292C39.4633 65.8126 37.5 66.5461 35.248 67.7463C34.4107 68.1963 33.6312 68.6797 32.9383 69.1798L32.9094 69.1965C32.3031 69.6465 31.2348 69.8299 30.2243 69.6465C28.5209 69.3632 25.7204 68.613 22.3424 66.6628C18.7623 64.5958 17.7229 62.9622 17.4631 62.0121C17.3187 61.5287 17.5786 61.0453 18.1271 60.7286C19.0799 60.0785 19.4841 59.7451 19.8305 59.3784C21.1298 57.9949 21.3319 58.0782 21.9093 55.8779C22.3424 54.1943 25.5471 51.7773 26.1823 50.3438L27.0196 44.2596C27.1639 43.3428 28.1456 42.5427 30.5708 42.676C32.8228 42.8094 33.2559 43.9262 33.3425 44.5096L33.6023 50.6605L50.8387 40.7091C51.445 40.359 52.1956 40.1923 53.0041 40.1923C53.7836 40.209 54.5631 40.359 55.1694 40.7091C56.3243 41.3758 56.3532 42.4593 55.2272 43.1427L42.2927 50.6105L47.6339 47.5267C48.8177 46.8433 50.7232 46.8433 51.9069 47.5267C53.0907 48.2101 53.0907 49.3103 51.9069 49.9937L46.5657 53.0775L50.55 50.7772C51.7337 50.0937 53.6392 50.0937 54.823 50.7772C55.4293 51.1272 55.718 51.5606 55.718 52.0273C55.6891 52.4774 55.4293 52.9275 54.823 53.2775L53.3794 54.111Z" fill="#16110D"/>
<path d="M50.6714 53.1515L53.2121 51.6847C53.8184 51.3346 54.5113 51.1346 55.2331 51.1179C55.9549 51.1013 56.7056 51.2346 57.3985 51.6347C58.7554 52.4181 58.64 53.4516 57.4562 54.135L45.6477 60.9527C44.5795 61.5694 43.4246 62.0362 42.3275 62.4029C39.296 63.3863 37.3327 64.1198 35.0807 65.32C34.2434 65.77 33.4639 66.2534 32.771 66.7535L32.7421 66.7702C32.1358 67.2202 31.0675 67.4036 30.057 67.2202C28.3536 66.9368 25.5531 66.1867 22.1751 64.2365C18.595 62.1695 17.5556 60.5359 17.2958 59.5858C17.1514 59.1024 17.4113 58.619 17.9598 58.3023C18.9126 57.6522 19.3168 57.3188 19.6632 56.9521C20.9625 55.5686 21.1646 55.6519 21.742 53.4516C22.1751 51.768 25.3798 49.351 26.015 47.9175L26.8523 41.8333C26.9966 40.9165 27.9783 40.1164 30.4035 40.2497C32.6555 40.3831 33.0886 41.4999 33.1752 42.0833L33.435 48.2342L50.6714 38.2828C51.2777 37.9327 52.0283 37.766 52.8368 37.766C53.6163 37.7827 54.3958 37.9327 55.0021 38.2828C56.157 38.9495 56.1859 40.033 55.0599 40.7164L42.1254 48.1842L47.4666 45.1004C48.6504 44.417 50.5559 44.417 51.7396 45.1004C52.9234 45.7838 52.9234 46.884 51.7396 47.5674L46.3984 50.6512L50.3827 48.3509C51.5664 47.6674 53.4719 47.6674 54.6557 48.3509C55.262 48.7009 55.5507 49.1343 55.5507 49.601C55.5218 50.0511 55.262 50.5012 54.6557 50.8512L53.2121 51.6847L50.6714 53.1515Z" fill="white"/>
<path d="M21.6265 64.4865C17.9598 62.3695 16.8338 60.6526 16.5162 59.6024C16.343 58.969 16.6317 58.3689 17.3824 57.9355C18.2196 57.3521 18.6527 57.0354 18.9992 56.6687C19.2013 56.452 19.4034 56.2686 19.5189 56.1019C20.2984 55.2851 20.5294 55.0851 20.9913 53.3182C21.28 52.3181 22.3772 51.1512 23.4454 50.0011C24.2249 49.1509 25.0045 48.3675 25.2354 47.7674L26.1016 41.7999C26.2748 40.7331 27.5163 39.6496 30.4901 39.7996C32.4822 39.9163 33.7526 40.7164 33.9547 42.0333L34.1568 47.184L50.1228 37.966C50.8446 37.5493 51.7974 37.3326 52.8079 37.3159C53.8472 37.3159 54.7711 37.5493 55.4929 37.966C56.9365 38.7995 56.9942 40.133 55.5795 41.0164L50.0939 44.1836C50.9023 44.2502 51.653 44.4503 52.2593 44.8003C53.5008 45.5171 53.7029 46.6006 52.8945 47.434C53.7317 47.484 54.5979 47.6841 55.2331 48.0508C55.9549 48.4675 56.3302 49.0176 56.3591 49.601C56.3591 50.0011 56.1858 50.3678 55.8683 50.6845C56.6189 50.7512 57.3407 50.9679 57.9759 51.3346C59.5349 52.2347 59.5638 53.5516 58.0336 54.435L46.2251 61.2527C45.2435 61.8194 44.0598 62.3361 42.7605 62.7529C39.7867 63.7364 37.8523 64.4531 35.6292 65.6033C34.8497 66.02 34.099 66.4867 33.4061 66.9868C32.5977 67.5869 31.2119 67.8203 29.8838 67.5869C28.0071 67.3035 25.12 66.5034 21.6265 64.4865ZM31.6738 41.0164C31.183 40.7331 30.6056 40.6997 30.3457 40.6831C28.2958 40.5664 27.7184 41.2665 27.6318 41.8832L26.7945 47.9008C26.7945 47.9341 26.7656 47.9508 26.7945 47.9674C26.5058 48.6675 25.6974 49.5343 24.8312 50.4345C23.8496 51.5013 22.7814 52.6181 22.5504 53.4516C22.0307 55.3185 21.7997 55.6185 20.9047 56.5353C20.7603 56.6853 20.5582 56.8687 20.3561 57.0854C19.9519 57.5188 19.5189 57.8688 18.5661 58.5189L18.5372 58.5356C18.133 58.769 17.9887 59.0857 18.0753 59.4357C18.3062 60.2025 19.2013 61.7861 22.7525 63.8364C26.015 65.72 28.6423 66.4367 30.288 66.7201C31.0386 66.8535 31.7604 66.7368 32.1935 66.4201C32.9442 65.8533 33.7526 65.3532 34.6187 64.9199C36.8996 63.703 38.9206 62.9696 42.0099 61.9528C43.2225 61.5527 44.2907 61.1026 45.1857 60.5859L56.9942 53.7683C57.9759 53.2015 57.947 52.4847 56.9365 51.9013C56.4457 51.618 55.926 51.4846 55.3774 51.5013C54.8577 51.5346 54.3092 51.6846 53.8472 51.9513L51.3065 53.4182C51.0178 53.5849 50.5559 53.5849 50.2672 53.4182C49.9784 53.2515 49.9784 52.9848 50.2672 52.8181L54.2514 50.5178C54.6845 50.2678 54.9155 49.9344 54.9444 49.5843C54.9155 49.2343 54.6845 48.9009 54.2514 48.6509C53.3564 48.1341 51.9128 48.1341 51.0178 48.6509L47.0335 50.9512C46.7448 51.1179 46.2829 51.1179 45.9942 50.9512C45.7054 50.7845 45.7054 50.5178 45.9941 50.3511L51.3354 47.2673C52.2304 46.7506 52.2304 45.9171 51.3354 45.4004C50.4404 44.8837 48.9968 44.8837 48.1018 45.4004L42.7605 48.4842C42.6162 48.5675 42.4141 48.6175 42.2408 48.6175C42.0676 48.6175 41.8655 48.5675 41.7211 48.4842C41.4324 48.3175 41.4036 48.0341 41.6923 47.8674L54.5402 40.4497C55.3774 39.933 55.3197 39.1328 54.4535 38.6328C54.0205 38.3827 53.443 38.2494 52.8367 38.2327C52.2304 38.2494 51.653 38.3827 51.2199 38.6328L33.9836 48.5842C33.7814 48.7009 33.4639 48.7509 33.1751 48.6842C32.8864 48.6175 32.7132 48.4508 32.7132 48.2841L32.4534 42.1333C32.3379 41.5332 32.0203 41.2165 31.6738 41.0164Z" fill="#16110D"/>
</svg>
