
<svg width="160px" height="147px" viewBox="0 0 160 147" version="1.1" xmlns="http://www.w3.org/2000/svg" xmlns:xlink="http://www.w3.org/1999/xlink">
    <defs>
        <polygon id="path-1" points="0.128423832 0.155923232 2.1886972 0.155923232 2.1886972 1.50505051 0.128423832 1.50505051"></polygon>
        <polygon id="path-3" points="0.0343817757 0.155923232 2.09465514 0.155923232 2.09465514 1.50505051 0.0343817757 1.50505051"></polygon>
        <polygon id="path-5" points="1.44057278 0.157748794 3.50103766 0.157748794 3.50103766 1.50505051 1.44057278 1.50505051"></polygon>
        <polygon id="path-7" points="0 0.0602332637 16.4048467 0.0602332637 16.4048467 8.44273131 0 8.44273131"></polygon>
        <polygon id="path-9" points="0.951705607 0.481023771 18.6248411 0.481023771 18.6248411 5.68916907 0.951705607 5.68916907"></polygon>
    </defs>
    <g id="Page-1" stroke="none" stroke-width="1" fill="none" fill-rule="evenodd">
        <g id="Design" transform="translate(-639.000000, -3023.000000)">
            <path d="M720.220763,3166 C747.90156,3166 785,3154.60715 785,3126.86845 C785,3099.12975 765.121697,3063 737.4409,3063 C709.760104,3063 657,3086.7613 657,3114.5 C657,3142.2387 692.539966,3166 720.220763,3166 Z" id="Oval-Copy-9" fill="#F2F7FF"></path>
            <g id="Group-384" transform="translate(639.000000, 3023.000000)">
                <path d="M42.5667449,130.003403 C42.9699972,130.236686 42.9699972,130.612948 42.5667449,130.846231 C42.1634925,131.078009 41.5119692,131.078009 41.1102215,130.846231 C40.7084738,130.612948 40.7084738,130.236686 41.1102215,130.003403 C41.5119692,129.771625 42.1634925,129.771625 42.5667449,130.003403" id="Fill-1" fill="#16110D"></path>
                <path d="M46.3753729,127.804524 C46.7786252,128.036302 46.7786252,128.412565 46.3753729,128.645847 C45.9721206,128.877625 45.3205972,128.877625 44.9188495,128.645847 C44.5171019,128.412565 44.5171019,128.036302 44.9188495,127.804524 C45.3205972,127.572746 45.9721206,127.572746 46.3753729,127.804524" id="Fill-3" fill="#16110D"></path>
                <path d="M50.1841514,125.605796 C50.5874037,125.837574 50.5874037,126.213836 50.1841514,126.447119 C49.7808991,126.678897 49.1293757,126.678897 48.7261234,126.447119 C48.3258804,126.213836 48.3258804,125.837574 48.7261234,125.605796 C49.1293757,125.374018 49.7808991,125.374018 50.1841514,125.605796" id="Fill-5" fill="#16110D"></path>
                <path d="M53.9927794,123.405563 C54.3945271,123.63734 54.3945271,124.013603 53.9927794,124.248391 C53.5895271,124.480169 52.9380037,124.480169 52.5347514,124.248391 C52.1345084,124.013603 52.1345084,123.63734 52.5347514,123.405563 C52.9380037,123.173785 53.5895271,123.173785 53.9927794,123.405563" id="Fill-7" fill="#16110D"></path>
                <path d="M57.8015579,121.206834 C58.2033056,121.438612 58.2033056,121.814875 57.8015579,122.048158 C57.3983056,122.279935 56.7467822,122.279935 56.3435299,122.048158 C55.9432869,121.814875 55.9432869,121.438612 56.3435299,121.206834 C56.7467822,120.975057 57.3983056,120.975057 57.8015579,121.206834" id="Fill-9" fill="#16110D"></path>
                <path d="M61.610186,119.006451 C62.0119336,119.238228 62.0119336,119.615996 61.610186,119.849279 C61.2069336,120.081057 60.5554103,120.081057 60.1521579,119.849279 C59.7504103,119.615996 59.7504103,119.238228 60.1521579,119.006451 C60.5554103,118.774673 61.2069336,118.774673 61.610186,119.006451" id="Fill-11" fill="#16110D"></path>
                <path d="M65.4189645,116.807722 C65.8207121,117.0395 65.8207121,117.415763 65.4189645,117.649045 C65.0157121,117.880823 64.3641888,117.880823 63.9609364,117.649045 C63.5591888,117.415763 63.5591888,117.0395 63.9609364,116.807722 C64.3641888,116.575944 65.0157121,116.575944 65.4189645,116.807722" id="Fill-13" fill="#16110D"></path>
                <path d="M42.5667449,125.605796 C42.9699972,125.837574 42.9699972,126.213836 42.5667449,126.447119 C42.1634925,126.678897 41.5119692,126.678897 41.1102215,126.447119 C40.7084738,126.213836 40.7084738,125.837574 41.1102215,125.605796 C41.5119692,125.374018 42.1634925,125.374018 42.5667449,125.605796" id="Fill-15" fill="#16110D"></path>
                <path d="M46.3753729,123.405563 C46.7786252,123.63734 46.7786252,124.013603 46.3753729,124.248391 C45.9721206,124.480169 45.3205972,124.480169 44.9188495,124.248391 C44.5171019,124.013603 44.5171019,123.63734 44.9188495,123.405563 C45.3205972,123.173785 45.9721206,123.173785 46.3753729,123.405563" id="Fill-17" fill="#16110D"></path>
                <path d="M50.1841514,121.206834 C50.5874037,121.438612 50.5874037,121.814875 50.1841514,122.048158 C49.7808991,122.279935 49.1293757,122.279935 48.7261234,122.048158 C48.3258804,121.814875 48.3258804,121.438612 48.7261234,121.206834 C49.1293757,120.975057 49.7808991,120.975057 50.1841514,121.206834" id="Fill-19" fill="#16110D"></path>
                <path d="M53.9927794,119.006451 C54.3945271,119.238228 54.3945271,119.615996 53.9927794,119.849279 C53.5895271,120.081057 52.9380037,120.081057 52.5347514,119.849279 C52.1345084,119.615996 52.1345084,119.238228 52.5347514,119.006451 C52.9380037,118.774673 53.5895271,118.774673 53.9927794,119.006451" id="Fill-21" fill="#16110D"></path>
                <path d="M57.8015579,116.807722 C58.2033056,117.0395 58.2033056,117.415763 57.8015579,117.649045 C57.3983056,117.880823 56.7467822,117.880823 56.3435299,117.649045 C55.9432869,117.415763 55.9432869,117.0395 56.3435299,116.807722 C56.7467822,116.575944 57.3983056,116.575944 57.8015579,116.807722" id="Fill-23" fill="#16110D"></path>
                <path d="M38.7579664,123.405563 C39.1612187,123.63734 39.1612187,124.013603 38.7579664,124.248391 C38.354714,124.480169 37.7046953,124.480169 37.301443,124.248391 C36.8996953,124.013603 36.8996953,123.63734 37.301443,123.405563 C37.7046953,123.173785 38.354714,123.173785 38.7579664,123.405563" id="Fill-25" fill="#16110D"></path>
                <path d="M42.5667449,121.206834 C42.9699972,121.438612 42.9699972,121.814875 42.5667449,122.048158 C42.1634925,122.279935 41.5119692,122.279935 41.1102215,122.048158 C40.7084738,121.814875 40.7084738,121.438612 41.1102215,121.206834 C41.5119692,120.975057 42.1634925,120.975057 42.5667449,121.206834" id="Fill-27" fill="#16110D"></path>
                <path d="M46.3753729,119.006451 C46.7786252,119.238228 46.7786252,119.615996 46.3753729,119.849279 C45.9721206,120.081057 45.3205972,120.081057 44.9188495,119.849279 C44.5171019,119.615996 44.5171019,119.238228 44.9188495,119.006451 C45.3205972,118.774673 45.9721206,118.774673 46.3753729,119.006451" id="Fill-29" fill="#16110D"></path>
                <path d="M50.1841514,116.807722 C50.5874037,117.0395 50.5874037,117.415763 50.1841514,117.649045 C49.7808991,117.880823 49.1293757,117.880823 48.7261234,117.649045 C48.3258804,117.415763 48.3258804,117.0395 48.7261234,116.807722 C49.1293757,116.575944 49.7808991,116.575944 50.1841514,116.807722" id="Fill-31" fill="#16110D"></path>
                <path d="M38.7579664,119.006451 C39.1612187,119.238228 39.1612187,119.615996 38.7579664,119.849279 C38.354714,120.081057 37.7046953,120.081057 37.301443,119.849279 C36.8996953,119.615996 36.8996953,119.238228 37.301443,119.006451 C37.7046953,118.774673 38.354714,118.774673 38.7579664,119.006451" id="Fill-33" fill="#16110D"></path>
                <path d="M42.5667449,116.807722 C42.9699972,117.0395 42.9699972,117.415763 42.5667449,117.649045 C42.1634925,117.880823 41.5119692,117.880823 41.1102215,117.649045 C40.7084738,117.415763 40.7084738,117.0395 41.1102215,116.807722 C41.5119692,116.575944 42.1634925,116.575944 42.5667449,116.807722" id="Fill-35" fill="#16110D"></path>
                <path d="M46.3753729,114.607489 C46.7786252,114.839267 46.7786252,115.217034 46.3753729,115.450317 C45.9721206,115.682095 45.3205972,115.682095 44.9188495,115.450317 C44.5171019,115.217034 44.5171019,114.839267 44.9188495,114.607489 C45.3205972,114.375711 45.9721206,114.375711 46.3753729,114.607489" id="Fill-37" fill="#16110D"></path>
                <g id="Group-41" transform="translate(82.757009, 144.583730)">
                    <mask id="mask-2" fill="white">
                        <use xlink:href="#path-1"></use>
                    </mask>
                    <g id="Clip-40"></g>
                    <path d="M1.88625794,0.487786869 C2.28951028,0.719564646 2.28951028,1.09582727 1.88625794,1.3291101 C1.48300561,1.56088788 0.831482243,1.56088788 0.429734579,1.3291101 C0.0279869159,1.09582727 0.0279869159,0.719564646 0.429734579,0.487786869 C0.831482243,0.256009091 1.48300561,0.256009091 1.88625794,0.487786869" id="Fill-39" fill="#16110D" mask="url(#mask-2)"></path>
                </g>
                <path d="M88.4518953,142.871284 C88.8551477,143.103062 88.8551477,143.480829 88.4518953,143.714112 C88.048643,143.94589 87.3971196,143.94589 86.9938673,143.714112 C86.5936243,143.480829 86.5936243,143.103062 86.9938673,142.871284 C87.3971196,142.639506 88.048643,142.639506 88.4518953,142.871284" id="Fill-42" fill="#16110D"></path>
                <path d="M92.2606738,140.672405 C92.6624215,140.904183 92.6624215,141.280445 92.2606738,141.513728 C91.8574215,141.745506 91.2058981,141.745506 90.8026458,141.513728 C90.4024028,141.280445 90.4024028,140.904183 90.8026458,140.672405 C91.2058981,140.440627 91.8574215,140.440627 92.2606738,140.672405" id="Fill-44" fill="#16110D"></path>
                <path d="M96.0693019,138.473677 C96.4710495,138.705455 96.4710495,139.081717 96.0693019,139.315 C95.6660495,139.546778 95.0145262,139.546778 94.6112738,139.315 C94.2110308,139.081717 94.2110308,138.705455 94.6112738,138.473677 C95.0145262,138.240394 95.6660495,138.240394 96.0693019,138.473677" id="Fill-46" fill="#16110D"></path>
                <path d="M99.8780804,136.273443 C100.279828,136.505221 100.279828,136.881484 99.8780804,137.114767 C99.474828,137.346544 98.8233047,137.346544 98.4200523,137.114767 C98.0183047,136.881484 98.0183047,136.505221 98.4200523,136.273443 C98.8233047,136.041666 99.474828,136.041666 99.8780804,136.273443" id="Fill-48" fill="#16110D"></path>
                <path d="M103.685204,134.074715 C104.088456,134.306493 104.088456,134.682756 103.685204,134.916038 C103.283456,135.147816 102.631933,135.147816 102.22868,134.916038 C101.826933,134.682756 101.826933,134.306493 102.22868,134.074715 C102.631933,133.842937 103.283456,133.842937 103.685204,134.074715" id="Fill-50" fill="#16110D"></path>
                <path d="M107.493982,131.874331 C107.897235,132.106109 107.897235,132.482372 107.493982,132.71716 C107.092235,132.948937 106.440711,132.948937 106.037459,132.71716 C105.635711,132.482372 105.635711,132.106109 106.037459,131.874331 C106.440711,131.642554 107.092235,131.642554 107.493982,131.874331" id="Fill-52" fill="#16110D"></path>
                <path d="M111.30261,129.675603 C111.705863,129.907381 111.705863,130.283643 111.30261,130.516926 C110.900863,130.748704 110.249339,130.748704 109.846087,130.516926 C109.444339,130.283643 109.444339,129.907381 109.846087,129.675603 C110.249339,129.443825 110.900863,129.443825 111.30261,129.675603" id="Fill-54" fill="#16110D"></path>
                <path d="M115.111389,127.47537 C115.514641,127.707147 115.514641,128.084915 115.111389,128.318198 C114.709641,128.549976 114.058118,128.549976 113.654865,128.318198 C113.253118,128.084915 113.253118,127.707147 113.654865,127.47537 C114.058118,127.243592 114.709641,127.243592 115.111389,127.47537" id="Fill-56" fill="#16110D"></path>
                <path d="M118.920017,125.276641 C119.323269,125.508419 119.323269,125.884682 118.920017,126.117965 C118.516764,126.349742 117.866746,126.349742 117.463493,126.117965 C117.061746,125.884682 117.061746,125.508419 117.463493,125.276641 C117.866746,125.044864 118.516764,125.044864 118.920017,125.276641" id="Fill-58" fill="#16110D"></path>
                <g id="Group-62" transform="translate(75.233645, 144.583730)">
                    <mask id="mask-4" fill="white">
                        <use xlink:href="#path-3"></use>
                    </mask>
                    <g id="Clip-61"></g>
                    <path d="M1.79221589,0.487786869 C2.19546822,0.719564646 2.19546822,1.09582727 1.79221589,1.3291101 C1.38896355,1.56088788 0.737440187,1.56088788 0.335692523,1.3291101 C-0.0660551402,1.09582727 -0.0660551402,0.719564646 0.335692523,0.487786869 C0.737440187,0.256009091 1.38896355,0.256009091 1.79221589,0.487786869" id="Fill-60" fill="#16110D" mask="url(#mask-4)"></path>
                </g>
                <path d="M80.8344888,142.871284 C81.2377411,143.103062 81.2377411,143.480829 80.8344888,143.714112 C80.4312364,143.94589 79.7797131,143.94589 79.3779654,143.714112 C78.9762178,143.480829 78.9762178,143.103062 79.3779654,142.871284 C79.7797131,142.639506 80.4312364,142.639506 80.8344888,142.871284" id="Fill-63" fill="#16110D"></path>
                <path d="M84.6432673,140.672405 C85.0465196,140.904183 85.0465196,141.280445 84.6432673,141.513728 C84.240015,141.745506 83.5884916,141.745506 83.1867439,141.513728 C82.7849963,141.280445 82.7849963,140.904183 83.1867439,140.672405 C83.5884916,140.440627 84.240015,140.440627 84.6432673,140.672405" id="Fill-65" fill="#16110D"></path>
                <path d="M88.4518953,138.473677 C88.8551477,138.705455 88.8551477,139.081717 88.4518953,139.315 C88.048643,139.546778 87.3971196,139.546778 86.9938673,139.315 C86.5936243,139.081717 86.5936243,138.705455 86.9938673,138.473677 C87.3971196,138.240394 88.048643,138.240394 88.4518953,138.473677" id="Fill-67" fill="#16110D"></path>
                <path d="M92.2606738,136.273443 C92.6624215,136.505221 92.6624215,136.881484 92.2606738,137.114767 C91.8574215,137.346544 91.2058981,137.346544 90.8026458,137.114767 C90.4024028,136.881484 90.4024028,136.505221 90.8026458,136.273443 C91.2058981,136.041666 91.8574215,136.041666 92.2606738,136.273443" id="Fill-69" fill="#16110D"></path>
                <path d="M96.0693019,134.074715 C96.4710495,134.306493 96.4710495,134.682756 96.0693019,134.916038 C95.6660495,135.147816 95.0145262,135.147816 94.6112738,134.916038 C94.2110308,134.682756 94.2110308,134.306493 94.6112738,134.074715 C95.0145262,133.842937 95.6660495,133.842937 96.0693019,134.074715" id="Fill-71" fill="#16110D"></path>
                <path d="M99.8780804,131.874331 C100.279828,132.106109 100.279828,132.482372 99.8780804,132.71716 C99.474828,132.948937 98.8233047,132.948937 98.4200523,132.71716 C98.0183047,132.482372 98.0183047,132.106109 98.4200523,131.874331 C98.8233047,131.642554 99.474828,131.642554 99.8780804,131.874331" id="Fill-73" fill="#16110D"></path>
                <path d="M103.685204,129.675603 C104.088456,129.907381 104.088456,130.283643 103.685204,130.516926 C103.283456,130.748704 102.631933,130.748704 102.22868,130.516926 C101.826933,130.283643 101.826933,129.907381 102.22868,129.675603 C102.631933,129.443825 103.283456,129.443825 103.685204,129.675603" id="Fill-75" fill="#16110D"></path>
                <path d="M107.493982,127.47537 C107.897235,127.707147 107.897235,128.084915 107.493982,128.318198 C107.092235,128.549976 106.440711,128.549976 106.037459,128.318198 C105.635711,128.084915 105.635711,127.707147 106.037459,127.47537 C106.440711,127.243592 107.092235,127.243592 107.493982,127.47537" id="Fill-77" fill="#16110D"></path>
                <path d="M111.30261,125.276641 C111.705863,125.508419 111.705863,125.884682 111.30261,126.117965 C110.900863,126.349742 110.249339,126.349742 109.846087,126.117965 C109.444339,125.884682 109.444339,125.508419 109.846087,125.276641 C110.249339,125.044864 110.900863,125.044864 111.30261,125.276641" id="Fill-79" fill="#16110D"></path>
                <path d="M115.111389,123.076258 C115.514641,123.308035 115.514641,123.685803 115.111389,123.919086 C114.709641,124.150864 114.058118,124.150864 113.654865,123.919086 C113.253118,123.685803 113.253118,123.308035 113.654865,123.076258 C114.058118,122.84448 114.709641,122.84448 115.111389,123.076258" id="Fill-81" fill="#16110D"></path>
                <path d="M118.920017,120.877529 C119.323269,121.109307 119.323269,121.48557 118.920017,121.718853 C118.516764,121.95063 117.866746,121.95063 117.463493,121.718853 C117.061746,121.48557 117.061746,121.109307 117.463493,120.877529 C117.866746,120.645752 118.516764,120.645752 118.920017,120.877529" id="Fill-83" fill="#16110D"></path>
                <g id="Group-87" transform="translate(66.205607, 144.583730)">
                    <mask id="mask-6" fill="white">
                        <use xlink:href="#path-5"></use>
                    </mask>
                    <g id="Clip-86"></g>
                    <path d="M1.74226075,0.490646465 C2.14400841,0.257363636 2.79553178,0.257363636 3.19878411,0.489141414 C3.60053178,0.719414141 3.60203645,1.09718182 3.20179346,1.33046465 C2.80004579,1.56224242 2.14852243,1.56374747 1.74376542,1.3319697 C1.34051308,1.09868687 1.33900841,0.722424242 1.74226075,0.490646465" id="Fill-85" fill="#16110D" mask="url(#mask-6)"></path>
                </g>
                <path d="M73.2170822,142.871284 C73.6203346,143.103062 73.6203346,143.480829 73.2170822,143.714112 C72.8138299,143.94589 72.1638112,143.94589 71.7605589,143.714112 C71.3588112,143.480829 71.3588112,143.103062 71.7605589,142.871284 C72.1638112,142.639506 72.8138299,142.639506 73.2170822,142.871284" id="Fill-88" fill="#16110D"></path>
                <path d="M77.0258607,140.672405 C77.4291131,140.904183 77.4291131,141.280445 77.0258607,141.513728 C76.6226084,141.745506 75.9725897,141.745506 75.5693374,141.513728 C75.1675897,141.280445 75.1675897,140.904183 75.5693374,140.672405 C75.9725897,140.440627 76.6226084,140.440627 77.0258607,140.672405" id="Fill-90" fill="#16110D"></path>
                <path d="M80.8344888,138.473677 C81.2377411,138.705455 81.2377411,139.081717 80.8344888,139.315 C80.4312364,139.546778 79.7797131,139.546778 79.3779654,139.315 C78.9762178,139.081717 78.9762178,138.705455 79.3779654,138.473677 C79.7797131,138.240394 80.4312364,138.240394 80.8344888,138.473677" id="Fill-92" fill="#16110D"></path>
                <path d="M84.6432673,136.273443 C85.0465196,136.505221 85.0465196,136.881484 84.6432673,137.114767 C84.240015,137.346544 83.5884916,137.346544 83.1867439,137.114767 C82.7849963,136.881484 82.7849963,136.505221 83.1867439,136.273443 C83.5884916,136.041666 84.240015,136.041666 84.6432673,136.273443" id="Fill-94" fill="#16110D"></path>
                <path d="M88.4518953,134.074715 C88.8551477,134.306493 88.8551477,134.682756 88.4518953,134.916038 C88.048643,135.147816 87.3971196,135.147816 86.9938673,134.916038 C86.5936243,134.682756 86.5936243,134.306493 86.9938673,134.074715 C87.3971196,133.842937 88.048643,133.842937 88.4518953,134.074715" id="Fill-96" fill="#16110D"></path>
                <path d="M92.2606738,131.874331 C92.6624215,132.106109 92.6624215,132.482372 92.2606738,132.71716 C91.8574215,132.948937 91.2058981,132.948937 90.8026458,132.71716 C90.4024028,132.483877 90.4024028,132.106109 90.8026458,131.874331 C91.2058981,131.642554 91.8574215,131.642554 92.2606738,131.874331" id="Fill-98" fill="#16110D"></path>
                <path d="M96.0693019,129.675603 C96.4710495,129.907381 96.4710495,130.283643 96.0693019,130.516926 C95.6660495,130.748704 95.0145262,130.748704 94.6112738,130.516926 C94.2110308,130.283643 94.2110308,129.907381 94.6112738,129.675603 C95.0145262,129.443825 95.6660495,129.443825 96.0693019,129.675603" id="Fill-100" fill="#16110D"></path>
                <path d="M99.8780804,127.47537 C100.279828,127.707147 100.279828,128.084915 99.8780804,128.318198 C99.474828,128.549976 98.8233047,128.549976 98.4200523,128.318198 C98.0183047,128.084915 98.0183047,127.707147 98.4200523,127.47537 C98.8233047,127.243592 99.474828,127.243592 99.8780804,127.47537" id="Fill-102" fill="#16110D"></path>
                <path d="M103.685204,125.276641 C104.088456,125.508419 104.088456,125.884682 103.685204,126.117965 C103.283456,126.349742 102.631933,126.349742 102.22868,126.117965 C101.826933,125.884682 101.826933,125.508419 102.22868,125.276641 C102.631933,125.044864 103.283456,125.044864 103.685204,125.276641" id="Fill-104" fill="#16110D"></path>
                <path d="M107.493982,123.076258 C107.897235,123.308035 107.897235,123.685803 107.493982,123.919086 C107.092235,124.150864 106.440711,124.150864 106.037459,123.919086 C105.635711,123.685803 105.635711,123.308035 106.037459,123.076258 C106.440711,122.84448 107.092235,122.84448 107.493982,123.076258" id="Fill-106" fill="#16110D"></path>
                <path d="M111.30261,120.877529 C111.705863,121.109307 111.705863,121.48557 111.30261,121.718853 C110.900863,121.95063 110.249339,121.95063 109.846087,121.718853 C109.444339,121.48557 109.444339,121.109307 109.846087,120.877529 C110.249339,120.645752 110.900863,120.645752 111.30261,120.877529" id="Fill-108" fill="#16110D"></path>
                <path d="M115.111389,118.677296 C115.514641,118.910579 115.514641,119.286841 115.111389,119.520124 C114.709641,119.751902 114.058118,119.751902 113.654865,119.520124 C113.253118,119.286841 113.253118,118.910579 113.654865,118.677296 C114.058118,118.445518 114.709641,118.445518 115.111389,118.677296" id="Fill-110" fill="#16110D"></path>
                <path d="M118.920017,116.478417 C119.323269,116.710195 119.323269,117.086458 118.920017,117.31974 C118.516764,117.551518 117.866746,117.551518 117.463493,117.31974 C117.061746,117.086458 117.061746,116.710195 117.463493,116.478417 C117.866746,116.246639 118.516764,116.246639 118.920017,116.478417" id="Fill-112" fill="#16110D"></path>
                <path d="M64.1390897,142.874143 C64.5408374,142.642366 65.1923607,142.640861 65.5956131,142.872638 C65.9973607,143.104416 65.9988654,143.480679 65.5986224,143.715467 C65.1968748,143.947244 64.5453514,143.947244 64.1420991,143.716972 C63.7373421,143.483689 63.7358374,143.107426 64.1390897,142.874143" id="Fill-114" fill="#16110D"></path>
                <path d="M69.4084542,140.672405 C69.8117065,140.904183 69.8117065,141.280445 69.4084542,141.513728 C69.0067065,141.745506 68.3551832,141.745506 67.9519308,141.513728 C67.5501832,141.280445 67.5501832,140.904183 67.9519308,140.672405 C68.3551832,140.440627 69.0067065,140.440627 69.4084542,140.672405" id="Fill-116" fill="#16110D"></path>
                <path d="M73.2170822,138.473677 C73.6203346,138.705455 73.6203346,139.081717 73.2170822,139.315 C72.8138299,139.546778 72.1638112,139.546778 71.7605589,139.315 C71.3588112,139.081717 71.3588112,138.705455 71.7605589,138.473677 C72.1638112,138.240394 72.8138299,138.240394 73.2170822,138.473677" id="Fill-118" fill="#16110D"></path>
                <path d="M77.0258607,136.273443 C77.4291131,136.505221 77.4291131,136.881484 77.0258607,137.114767 C76.6226084,137.346544 75.9725897,137.346544 75.5693374,137.114767 C75.1675897,136.881484 75.1675897,136.505221 75.5693374,136.273443 C75.9725897,136.041666 76.6226084,136.041666 77.0258607,136.273443" id="Fill-120" fill="#16110D"></path>
                <path d="M80.8344888,134.074715 C81.2377411,134.306493 81.2377411,134.682756 80.8344888,134.916038 C80.4312364,135.147816 79.7797131,135.147816 79.3779654,134.916038 C78.9762178,134.682756 78.9762178,134.306493 79.3779654,134.074715 C79.7797131,133.842937 80.4312364,133.842937 80.8344888,134.074715" id="Fill-122" fill="#16110D"></path>
                <path d="M84.6432673,131.874331 C85.0465196,132.106109 85.0465196,132.483877 84.6432673,132.71716 C84.240015,132.948937 83.5884916,132.948937 83.1867439,132.71716 C82.7849963,132.483877 82.7849963,132.106109 83.1867439,131.874331 C83.5884916,131.642554 84.240015,131.642554 84.6432673,131.874331" id="Fill-124" fill="#16110D"></path>
                <path d="M88.4518953,129.675603 C88.8551477,129.907381 88.8551477,130.283643 88.4518953,130.516926 C88.048643,130.748704 87.3971196,130.748704 86.995372,130.516926 C86.5936243,130.283643 86.5936243,129.907381 86.995372,129.675603 C87.3971196,129.443825 88.048643,129.443825 88.4518953,129.675603" id="Fill-126" fill="#16110D"></path>
                <path d="M92.2606738,127.47537 C92.6639262,127.707147 92.6639262,128.084915 92.2606738,128.318198 C91.8574215,128.549976 91.2058981,128.549976 90.8026458,128.318198 C90.4024028,128.084915 90.4024028,127.707147 90.8026458,127.47537 C91.2058981,127.243592 91.8574215,127.243592 92.2606738,127.47537" id="Fill-128" fill="#16110D"></path>
                <path d="M96.0693019,125.276641 C96.4710495,125.508419 96.4710495,125.884682 96.0693019,126.117965 C95.6660495,126.349742 95.0145262,126.349742 94.6112738,126.117965 C94.2110308,125.884682 94.2110308,125.508419 94.6112738,125.276641 C95.0145262,125.044864 95.6660495,125.044864 96.0693019,125.276641" id="Fill-130" fill="#16110D"></path>
                <path d="M99.8780804,123.076258 C100.279828,123.308035 100.279828,123.685803 99.8780804,123.919086 C99.474828,124.150864 98.8233047,124.150864 98.4200523,123.919086 C98.0183047,123.685803 98.0183047,123.308035 98.4200523,123.076258 C98.8233047,122.84448 99.474828,122.84448 99.8780804,123.076258" id="Fill-132" fill="#16110D"></path>
                <path d="M103.685204,120.877529 C104.088456,121.109307 104.088456,121.48557 103.685204,121.718853 C103.283456,121.95063 102.631933,121.95063 102.22868,121.718853 C101.826933,121.48557 101.826933,121.109307 102.22868,120.877529 C102.631933,120.645752 103.283456,120.645752 103.685204,120.877529" id="Fill-134" fill="#16110D"></path>
                <path d="M107.493982,118.677296 C107.897235,118.910579 107.897235,119.286841 107.493982,119.520124 C107.092235,119.751902 106.440711,119.751902 106.037459,119.520124 C105.635711,119.286841 105.635711,118.910579 106.037459,118.677296 C106.440711,118.445518 107.092235,118.445518 107.493982,118.677296" id="Fill-136" fill="#16110D"></path>
                <path d="M111.30261,116.478417 C111.705863,116.710195 111.705863,117.086458 111.30261,117.31974 C110.900863,117.551518 110.249339,117.551518 109.846087,117.31974 C109.444339,117.086458 109.444339,116.710195 109.846087,116.478417 C110.249339,116.246639 110.900863,116.246639 111.30261,116.478417" id="Fill-138" fill="#16110D"></path>
                <path d="M115.111389,114.279689 C115.514641,114.511467 115.514641,114.887729 115.111389,115.121012 C114.709641,115.35279 114.058118,115.35279 113.654865,115.121012 C113.253118,114.887729 113.253118,114.511467 113.654865,114.279689 C114.058118,114.047911 114.709641,114.047911 115.111389,114.279689" id="Fill-140" fill="#16110D"></path>
                <path d="M60.3304617,140.675415 C60.7322093,140.443637 61.3837327,140.442132 61.786985,140.67391 C62.1887327,140.905688 62.1902374,141.281951 61.7899944,141.515233 C61.3882467,141.748516 60.7367234,141.748516 60.333471,141.516738 C59.928714,141.283456 59.928714,140.907193 60.3304617,140.675415" id="Fill-142" fill="#16110D"></path>
                <path d="M65.5996757,138.473677 C66.002928,138.705455 66.002928,139.081717 65.5996757,139.315 C65.197928,139.546778 64.5464047,139.546778 64.1431523,139.315 C63.7414047,139.081717 63.7414047,138.705455 64.1431523,138.473677 C64.5464047,138.241899 65.197928,138.241899 65.5996757,138.473677" id="Fill-144" fill="#16110D"></path>
                <path d="M69.4084542,136.273443 C69.8117065,136.505221 69.8117065,136.881484 69.4084542,137.114767 C69.0067065,137.346544 68.3551832,137.346544 67.9519308,137.114767 C67.5501832,136.881484 67.5501832,136.505221 67.9519308,136.273443 C68.3551832,136.041666 69.0067065,136.041666 69.4084542,136.273443" id="Fill-146" fill="#16110D"></path>
                <path d="M73.2170822,134.074715 C73.6203346,134.306493 73.6203346,134.682756 73.2170822,134.916038 C72.8138299,135.147816 72.1638112,135.147816 71.7605589,134.916038 C71.3588112,134.682756 71.3588112,134.306493 71.7605589,134.074715 C72.1638112,133.842937 72.8138299,133.842937 73.2170822,134.074715" id="Fill-148" fill="#16110D"></path>
                <path d="M77.0258607,131.874331 C77.4291131,132.106109 77.4291131,132.483877 77.0258607,132.71716 C76.6226084,132.948937 75.9725897,132.948937 75.5693374,132.71716 C75.1675897,132.483877 75.1675897,132.106109 75.5693374,131.874331 C75.9725897,131.642554 76.6226084,131.642554 77.0258607,131.874331" id="Fill-150" fill="#16110D"></path>
                <path d="M80.8344888,129.675603 C81.2377411,129.907381 81.2377411,130.283643 80.8344888,130.516926 C80.4312364,130.748704 79.7797131,130.748704 79.3779654,130.516926 C78.9762178,130.283643 78.9762178,129.907381 79.3779654,129.675603 C79.7797131,129.443825 80.4312364,129.443825 80.8344888,129.675603" id="Fill-152" fill="#16110D"></path>
                <path d="M84.6432673,127.47537 C85.0465196,127.707147 85.0465196,128.084915 84.6432673,128.318198 C84.240015,128.549976 83.5884916,128.549976 83.1867439,128.318198 C82.7849963,128.084915 82.7849963,127.707147 83.1867439,127.47537 C83.5884916,127.243592 84.240015,127.243592 84.6432673,127.47537" id="Fill-154" fill="#16110D"></path>
                <path d="M88.4518953,125.276641 C88.8551477,125.508419 88.8551477,125.884682 88.4518953,126.117965 C88.048643,126.349742 87.3971196,126.349742 86.995372,126.117965 C86.5936243,125.884682 86.5936243,125.508419 86.995372,125.276641 C87.3971196,125.044864 88.048643,125.044864 88.4518953,125.276641" id="Fill-156" fill="#16110D"></path>
                <path d="M92.2606738,123.076258 C92.6639262,123.308035 92.6639262,123.685803 92.2606738,123.919086 C91.8574215,124.150864 91.2058981,124.150864 90.8041505,123.919086 C90.4024028,123.685803 90.4024028,123.308035 90.8041505,123.076258 C91.2058981,122.84448 91.8574215,122.84448 92.2606738,123.076258" id="Fill-158" fill="#16110D"></path>
                <path d="M96.0693019,120.877529 C96.4725542,121.109307 96.4725542,121.48557 96.0693019,121.718853 C95.6660495,121.95063 95.0145262,121.95063 94.6112738,121.718853 C94.2110308,121.48557 94.2110308,121.109307 94.6112738,120.877529 C95.0145262,120.645752 95.6660495,120.645752 96.0693019,120.877529" id="Fill-160" fill="#16110D"></path>
                <path d="M99.8780804,118.678801 C100.279828,118.910579 100.279828,119.286841 99.8780804,119.520124 C99.474828,119.751902 98.8233047,119.751902 98.4200523,119.520124 C98.0198093,119.286841 98.0198093,118.910579 98.4200523,118.678801 C98.8233047,118.445518 99.474828,118.445518 99.8780804,118.678801" id="Fill-162" fill="#16110D"></path>
                <path d="M103.686708,116.478417 C104.088456,116.710195 104.088456,117.086458 103.686708,117.31974 C103.283456,117.553023 102.631933,117.553023 102.22868,117.31974 C101.826933,117.086458 101.826933,116.710195 102.22868,116.478417 C102.631933,116.246639 103.283456,116.246639 103.686708,116.478417" id="Fill-164" fill="#16110D"></path>
                <path d="M107.493982,114.279689 C107.897235,114.511467 107.897235,114.887729 107.493982,115.121012 C107.092235,115.35279 106.440711,115.35279 106.037459,115.121012 C105.635711,114.887729 105.635711,114.511467 106.037459,114.279689 C106.440711,114.047911 107.092235,114.047911 107.493982,114.279689" id="Fill-166" fill="#16110D"></path>
                <path d="M56.487828,138.453058 C56.8910804,138.219775 57.5410991,138.219775 57.9458561,138.451553 C58.3476037,138.681825 58.3491084,139.059593 57.9488654,139.292876 C57.5456131,139.524654 56.8955944,139.526159 56.4908374,139.294381 C56.087585,139.061098 56.0860804,138.684835 56.487828,138.453058" id="Fill-168" fill="#16110D"></path>
                <path d="M61.7586972,136.249965 C62.1619495,136.481742 62.1619495,136.85951 61.7586972,137.092793 C61.3554449,137.324571 60.7039215,137.324571 60.3021738,137.092793 C59.9004262,136.85951 59.9004262,136.481742 60.3021738,136.249965 C60.7039215,136.018187 61.3554449,136.018187 61.7586972,136.249965" id="Fill-170" fill="#16110D"></path>
                <path d="M65.5673252,134.051086 C65.9705776,134.282864 65.9705776,134.659126 65.5673252,134.892409 C65.1640729,135.124187 64.5125495,135.124187 64.1108019,134.892409 C63.7090542,134.659126 63.7090542,134.282864 64.1108019,134.051086 C64.5125495,133.819308 65.1640729,133.819308 65.5673252,134.051086" id="Fill-172" fill="#16110D"></path>
                <path d="M69.3761037,131.850853 C69.7793561,132.084135 69.7793561,132.460398 69.3761037,132.693681 C68.9728514,132.925459 68.321328,132.925459 67.9180757,132.693681 C67.5178327,132.460398 67.5178327,132.084135 67.9180757,131.850853 C68.321328,131.619075 68.9728514,131.619075 69.3761037,131.850853" id="Fill-174" fill="#16110D"></path>
                <path d="M73.1847318,129.652124 C73.5864794,129.883902 73.5864794,130.260165 73.1847318,130.493447 C72.7814794,130.725225 72.1299561,130.725225 71.7267037,130.493447 C71.3264607,130.260165 71.3264607,129.883902 71.7267037,129.652124 C72.1299561,129.420346 72.7814794,129.420346 73.1847318,129.652124" id="Fill-176" fill="#16110D"></path>
                <path d="M76.9935103,127.453245 C77.3952579,127.685023 77.3952579,128.061286 76.9935103,128.294569 C76.5902579,128.526346 75.9387346,128.526346 75.5354822,128.294569 C75.1352393,128.061286 75.1352393,127.685023 75.5354822,127.453245 C75.9387346,127.219963 76.5902579,127.219963 76.9935103,127.453245" id="Fill-178" fill="#16110D"></path>
                <path d="M80.8021383,125.253012 C81.203886,125.48479 81.203886,125.861053 80.8021383,126.094335 C80.398886,126.327618 79.7473626,126.327618 79.3441103,126.094335 C78.9438673,125.861053 78.9438673,125.48479 79.3441103,125.253012 C79.7473626,125.021234 80.398886,125.021234 80.8021383,125.253012" id="Fill-180" fill="#16110D"></path>
                <path d="M84.6109168,123.054284 C85.0126645,123.286062 85.0126645,123.662324 84.6109168,123.895607 C84.2076645,124.127385 83.5561411,124.127385 83.1528888,123.895607 C82.7511411,123.662324 82.7511411,123.286062 83.1528888,123.054284 C83.5561411,122.822506 84.2076645,122.822506 84.6109168,123.054284" id="Fill-182" fill="#16110D"></path>
                <path d="M88.4180402,120.854051 C88.8212925,121.085828 88.8212925,121.463596 88.4180402,121.696879 C88.0162925,121.928657 87.3647692,121.928657 86.9615168,121.696879 C86.5597692,121.463596 86.5597692,121.085828 86.9615168,120.854051 C87.3647692,120.622273 88.0162925,120.622273 88.4180402,120.854051" id="Fill-184" fill="#16110D"></path>
                <path d="M92.2268187,118.655172 C92.630071,118.886949 92.630071,119.263212 92.2268187,119.496495 C91.825071,119.728273 91.1735477,119.728273 90.7702953,119.496495 C90.3685477,119.263212 90.3685477,118.886949 90.7702953,118.655172 C91.1735477,118.423394 91.825071,118.423394 92.2268187,118.655172" id="Fill-186" fill="#16110D"></path>
                <path d="M96.0354467,116.454938 C96.4386991,116.686716 96.4386991,117.064484 96.0354467,117.297767 C95.6336991,117.529544 94.9821757,117.529544 94.5789234,117.297767 C94.1771757,117.064484 94.1771757,116.686716 94.5789234,116.454938 C94.9821757,116.223161 95.6336991,116.223161 96.0354467,116.454938" id="Fill-188" fill="#16110D"></path>
                <path d="M99.8442252,114.25621 C100.247478,114.487988 100.247478,114.864251 99.8442252,115.097533 C99.4409729,115.329311 98.7909542,115.329311 98.3877019,115.097533 C97.9859542,114.864251 97.9859542,114.487988 98.3877019,114.25621 C98.7909542,114.024432 99.4409729,114.024432 99.8442252,114.25621" id="Fill-190" fill="#16110D"></path>
                <path d="M52.6807047,136.252824 C53.0824523,136.021046 53.7339757,136.021046 54.137228,136.251319 C54.5389757,136.483097 54.5404804,136.85936 54.1402374,137.094147 C53.736985,137.325925 53.0869664,137.325925 52.6822093,137.095653 C52.278957,136.86237 52.2774523,136.486107 52.6807047,136.252824" id="Fill-192" fill="#16110D"></path>
                <path d="M57.9499187,134.051086 C58.353171,134.282864 58.353171,134.659126 57.9499187,134.892409 C57.5466664,135.124187 56.895143,135.124187 56.4933953,134.892409 C56.0916477,134.659126 56.0916477,134.282864 56.4933953,134.051086 C56.8966477,133.819308 57.5466664,133.819308 57.9499187,134.051086" id="Fill-194" fill="#16110D"></path>
                <path d="M61.7586972,131.850853 C62.1619495,132.084135 62.1619495,132.460398 61.7586972,132.693681 C61.3554449,132.925459 60.7039215,132.925459 60.3021738,132.693681 C59.9004262,132.460398 59.9004262,132.084135 60.3021738,131.850853 C60.7039215,131.619075 61.3554449,131.619075 61.7586972,131.850853" id="Fill-196" fill="#16110D"></path>
                <path d="M65.5673252,129.652124 C65.9705776,129.883902 65.9705776,130.260165 65.5673252,130.493447 C65.1640729,130.725225 64.5125495,130.725225 64.1108019,130.493447 C63.7090542,130.260165 63.7090542,129.883902 64.1108019,129.652124 C64.5125495,129.420346 65.1640729,129.420346 65.5673252,129.652124" id="Fill-198" fill="#16110D"></path>
                <path d="M69.3761037,127.453245 C69.7793561,127.685023 69.7793561,128.061286 69.3761037,128.294569 C68.9728514,128.526346 68.321328,128.526346 67.9180757,128.294569 C67.5178327,128.061286 67.5178327,127.685023 67.9180757,127.453245 C68.321328,127.221468 68.9728514,127.221468 69.3761037,127.453245" id="Fill-200" fill="#16110D"></path>
                <path d="M73.1847318,125.253012 C73.5864794,125.48479 73.5864794,125.861053 73.1847318,126.09584 C72.7814794,126.327618 72.1299561,126.327618 71.7267037,126.09584 C71.3264607,125.861053 71.3264607,125.48479 71.7267037,125.253012 C72.1299561,125.021234 72.7814794,125.021234 73.1847318,125.253012" id="Fill-202" fill="#16110D"></path>
                <path d="M76.9935103,123.054284 C77.3952579,123.286062 77.3952579,123.662324 76.9935103,123.895607 C76.5902579,124.127385 75.9387346,124.127385 75.5354822,123.895607 C75.1352393,123.662324 75.1352393,123.286062 75.5354822,123.054284 C75.9387346,122.822506 76.5902579,122.822506 76.9935103,123.054284" id="Fill-204" fill="#16110D"></path>
                <path d="M80.8021383,120.854051 C81.203886,121.085828 81.203886,121.463596 80.8021383,121.696879 C80.398886,121.928657 79.7473626,121.928657 79.3441103,121.696879 C78.9438673,121.463596 78.9438673,121.085828 79.3441103,120.854051 C79.7473626,120.622273 80.398886,120.622273 80.8021383,120.854051" id="Fill-206" fill="#16110D"></path>
                <path d="M84.6109168,118.655172 C85.0126645,118.886949 85.0126645,119.263212 84.6109168,119.496495 C84.2076645,119.728273 83.5561411,119.728273 83.1528888,119.496495 C82.7511411,119.263212 82.7511411,118.886949 83.1528888,118.655172 C83.5561411,118.423394 84.2076645,118.423394 84.6109168,118.655172" id="Fill-208" fill="#16110D"></path>
                <path d="M88.4180402,116.454938 C88.8212925,116.686716 88.8212925,117.064484 88.4180402,117.297767 C88.0162925,117.529544 87.3647692,117.529544 86.9615168,117.297767 C86.5597692,117.064484 86.5597692,116.686716 86.9615168,116.454938 C87.3647692,116.223161 88.0162925,116.223161 88.4180402,116.454938" id="Fill-210" fill="#16110D"></path>
                <path d="M48.8719262,134.054096 C49.2736738,133.822318 49.9251972,133.820813 50.3284495,134.052591 C50.7301972,134.284369 50.7317019,134.660631 50.3314589,134.893914 C49.9297112,135.125692 49.2781879,135.127197 48.8749355,134.895419 C48.4701785,134.662136 48.4686738,134.285874 48.8719262,134.054096" id="Fill-212" fill="#16110D"></path>
                <path d="M54.1412907,131.850853 C54.544543,132.084135 54.544543,132.460398 54.1412907,132.693681 C53.7380383,132.925459 53.0880196,132.925459 52.6847673,132.693681 C52.2830196,132.460398 52.2830196,132.084135 52.6847673,131.852358 C53.0880196,131.619075 53.7380383,131.619075 54.1412907,131.850853" id="Fill-214" fill="#16110D"></path>
                <path d="M57.9499187,129.652124 C58.353171,129.883902 58.353171,130.260165 57.9499187,130.493447 C57.5466664,130.725225 56.8966477,130.725225 56.4933953,130.493447 C56.0916477,130.260165 56.0916477,129.883902 56.4933953,129.652124 C56.8966477,129.420346 57.5466664,129.420346 57.9499187,129.652124" id="Fill-216" fill="#16110D"></path>
                <path d="M61.7586972,127.453245 C62.1619495,127.685023 62.1619495,128.061286 61.7586972,128.294569 C61.3554449,128.526346 60.7039215,128.526346 60.3021738,128.294569 C59.9004262,128.061286 59.9004262,127.685023 60.3021738,127.453245 C60.7039215,127.221468 61.3554449,127.221468 61.7586972,127.453245" id="Fill-218" fill="#16110D"></path>
                <path d="M65.5673252,125.253012 C65.9705776,125.48479 65.9705776,125.861053 65.5673252,126.09584 C65.1640729,126.327618 64.5125495,126.327618 64.1108019,126.09584 C63.7090542,125.861053 63.7090542,125.48479 64.1108019,125.253012 C64.5125495,125.021234 65.1640729,125.021234 65.5673252,125.253012" id="Fill-220" fill="#16110D"></path>
                <path d="M69.3761037,123.054284 C69.7793561,123.286062 69.7793561,123.662324 69.3761037,123.895607 C68.9728514,124.127385 68.321328,124.127385 67.9180757,123.895607 C67.5178327,123.662324 67.5178327,123.286062 67.9195804,123.054284 C68.321328,122.822506 68.9728514,122.822506 69.3761037,123.054284" id="Fill-222" fill="#16110D"></path>
                <path d="M73.1847318,120.854051 C73.5864794,121.085828 73.5864794,121.463596 73.1847318,121.696879 C72.7814794,121.928657 72.1299561,121.928657 71.7267037,121.696879 C71.3264607,121.463596 71.3264607,121.085828 71.7267037,120.854051 C72.1299561,120.622273 72.7814794,120.622273 73.1847318,120.854051" id="Fill-224" fill="#16110D"></path>
                <path d="M76.9935103,118.655172 C77.3952579,118.886949 77.3952579,119.263212 76.9935103,119.496495 C76.5902579,119.728273 75.9387346,119.728273 75.5354822,119.496495 C75.1352393,119.263212 75.1352393,118.886949 75.5354822,118.655172 C75.9387346,118.423394 76.5902579,118.423394 76.9935103,118.655172" id="Fill-226" fill="#16110D"></path>
                <path d="M80.8021383,116.454938 C81.203886,116.686716 81.203886,117.064484 80.8021383,117.297767 C80.398886,117.529544 79.7473626,117.529544 79.3441103,117.297767 C78.9438673,117.064484 78.9438673,116.686716 79.3441103,116.454938 C79.7473626,116.223161 80.398886,116.223161 80.8021383,116.454938" id="Fill-228" fill="#16110D"></path>
                <path d="M45.0632981,131.853863 C45.4650458,131.622085 46.1165692,131.622085 46.5198215,131.852358 C46.9215692,132.084135 46.9230738,132.460398 46.5228308,132.695186 C46.1210832,132.926964 45.4695598,132.926964 45.0663075,132.696691 C44.6615505,132.463408 44.6615505,132.087145 45.0632981,131.853863" id="Fill-230" fill="#16110D"></path>
                <path d="M50.3325121,129.652124 C50.7357645,129.883902 50.7357645,130.260165 50.3325121,130.493447 C49.9307645,130.725225 49.2792411,130.725225 48.8759888,130.493447 C48.4742411,130.260165 48.4742411,129.883902 48.8759888,129.652124 C49.2792411,129.420346 49.9307645,129.420346 50.3325121,129.652124" id="Fill-232" fill="#16110D"></path>
                <path d="M54.1412907,127.453245 C54.544543,127.685023 54.544543,128.061286 54.1412907,128.294569 C53.7380383,128.526346 53.0880196,128.526346 52.6847673,128.294569 C52.2830196,128.061286 52.2830196,127.685023 52.6847673,127.453245 C53.0880196,127.221468 53.739543,127.221468 54.1412907,127.453245" id="Fill-234" fill="#16110D"></path>
                <path d="M57.9499187,125.253012 C58.353171,125.48479 58.353171,125.861053 57.9499187,126.09584 C57.5466664,126.327618 56.8966477,126.327618 56.4933953,126.09584 C56.0916477,125.861053 56.0916477,125.48479 56.4933953,125.253012 C56.8966477,125.021234 57.5466664,125.021234 57.9499187,125.253012" id="Fill-236" fill="#16110D"></path>
                <path d="M61.7586972,123.054284 C62.1619495,123.286062 62.1619495,123.662324 61.7586972,123.895607 C61.3554449,124.127385 60.7054262,124.127385 60.3021738,123.895607 C59.9004262,123.662324 59.9004262,123.286062 60.3021738,123.054284 C60.7054262,122.822506 61.3554449,122.822506 61.7586972,123.054284" id="Fill-238" fill="#16110D"></path>
                <path d="M65.5673252,120.854051 C65.9705776,121.085828 65.9705776,121.463596 65.5673252,121.696879 C65.1640729,121.928657 64.5125495,121.928657 64.1108019,121.696879 C63.7090542,121.463596 63.7090542,121.085828 64.1108019,120.854051 C64.5125495,120.622273 65.1640729,120.622273 65.5673252,120.854051" id="Fill-240" fill="#16110D"></path>
                <path d="M69.3761037,118.655172 C69.7793561,118.886949 69.7793561,119.263212 69.3761037,119.496495 C68.9728514,119.728273 68.321328,119.728273 67.9195804,119.496495 C67.5178327,119.263212 67.5178327,118.886949 67.9195804,118.655172 C68.321328,118.423394 68.9728514,118.423394 69.3761037,118.655172" id="Fill-242" fill="#16110D"></path>
                <path d="M73.1847318,116.454938 C73.5879841,116.686716 73.5879841,117.064484 73.1847318,117.297767 C72.7814794,117.529544 72.1299561,117.529544 71.7267037,117.297767 C71.3264607,117.064484 71.3264607,116.686716 71.7267037,116.454938 C72.1299561,116.223161 72.7814794,116.223161 73.1847318,116.454938" id="Fill-244" fill="#16110D"></path>
                <polygon id="Fill-246" fill="#0066FF" points="36.9329486 72.2249657 21.415257 48.5821273 60.4434626 26.0349657 75.9762009 49.677804"></polygon>
                <polygon id="Fill-248" fill="#FFFFFF" points="36.1189206 76.7298828 20.601229 53.0855394 59.6294346 30.5383778 75.1621729 54.1827212"></polygon>
                <path d="M21.787814,48.6703232 L37.0166084,71.8736869 L75.6054495,49.588404 L60.3616084,26.3850404 L21.787814,48.6703232 Z M36.8495897,72.5780505 L21.0430009,48.4927273 L60.5271224,25.6821818 L76.3502626,49.7675051 L36.8495897,72.5780505 Z" id="Fill-250" fill="#16110D"></path>
                <path d="M44.2579972,67.452601 L40.3232776,65.1799747 C39.8462963,64.9060556 39.9064832,64.4244394 40.4571935,64.1068737 L44.1240813,61.9892677 C44.6732869,61.671702 45.505371,61.6370859 45.9823523,61.9110051 L49.917072,64.1851364 C50.3925486,64.4605606 50.3323617,64.9391667 49.7846607,65.2567323 L46.1147636,67.3758434 C45.5655579,67.6934091 44.7334738,67.7280253 44.2579972,67.452601" id="Fill-252" fill="#0066FF"></path>
                <path d="M45.1778037,61.938096 C44.8482804,61.938096 44.4976916,62.0178636 44.2298598,62.1713788 L40.5614673,64.2889848 C40.3432897,64.4154091 40.2108785,64.5749444 40.2108785,64.7149141 C40.2108785,64.8458535 40.328243,64.9406717 40.4275514,64.9978636 L44.3637757,67.2704899 C44.7715421,67.5067828 45.5268879,67.4736717 46.0098879,67.1937323 L49.6782804,65.0746212 C49.8979626,64.948197 50.0288692,64.7901667 50.0288692,64.650197 C50.0288692,64.5192576 49.9115047,64.4244394 49.8121963,64.3672475 L45.875972,62.0946212 C45.6939065,61.9892677 45.4426262,61.938096 45.1778037,61.938096 M45.0679626,67.8499343 C44.7279065,67.8499343 44.4013925,67.779197 44.1531215,67.6347121 L40.2168972,65.3620859 C39.9430467,65.2040556 39.7910748,64.9737828 39.7910748,64.7149141 C39.7910748,64.4184192 39.9957103,64.1309545 40.3508131,63.9247626 L44.0192056,61.8071566 C44.6376262,61.4519646 45.5449439,61.4173485 46.0866262,61.7288939 L50.0228505,64.0030253 C50.2967009,64.1625606 50.4486729,64.3913283 50.4486729,64.650197 C50.4486729,64.9466919 50.2440374,65.2326515 49.8889346,65.4388434 L46.2190374,67.5579545 C45.8865047,67.750601 45.4667009,67.8499343 45.0679626,67.8499343" id="Fill-254" fill="#020202"></path>
                <path d="M44.2579972,64.8908545 L40.3232776,62.6182283 C39.8462963,62.3443091 39.9064832,61.8626929 40.4571935,61.5451273 L44.1240813,59.4275212 C44.6732869,59.1099556 45.505371,59.0753394 45.9823523,59.3492586 L49.917072,61.6233899 C50.3925486,61.8988141 50.3323617,62.3774202 49.7846607,62.6949859 L46.1147636,64.814097 C45.5655579,65.1316626 44.7334738,65.1662788 44.2579972,64.8908545" id="Fill-256" fill="#0066FF"></path>
                <path d="M44.2579972,66.112203 L40.3232776,63.8395768 C39.8462963,63.5656576 39.9064832,63.0840414 40.4571935,62.7664758 L44.125586,60.6488697 C44.6732869,60.331304 45.505371,60.2966879 45.9823523,60.5706071 L49.917072,62.8447384 C50.3925486,63.1201626 50.3323617,63.5987687 49.7846607,63.9163343 L46.1147636,66.0354455 C45.5655579,66.3530111 44.7334738,66.3876273 44.2579972,66.112203" id="Fill-258" fill="#FFFFFF"></path>
                <path d="M45.1778037,59.376199 C44.8482804,59.376199 44.4976916,59.4559667 44.2298598,59.6094818 L40.5614673,61.7270879 C40.3432897,61.8535121 40.2108785,62.0130475 40.2108785,62.1530172 C40.2108785,62.2839566 40.328243,62.3787747 40.4275514,62.4359667 L44.3637757,64.7085929 C44.7715421,64.9448859 45.5268879,64.9117747 46.0098879,64.6318354 L49.6782804,62.5127242 C49.8979626,62.3863 50.0288692,62.2282697 50.0288692,62.0883 C50.0288692,61.9573606 49.9115047,61.8625424 49.8121963,61.8053505 L45.875972,59.5327242 C45.6939065,59.4273707 45.4426262,59.376199 45.1778037,59.376199 M45.0679626,65.2880374 C44.7279065,65.2880374 44.4013925,65.2173 44.1531215,65.0728152 L40.2168972,62.8001889 C39.9430467,62.6421586 39.7910748,62.4118859 39.7910748,62.1530172 C39.7910748,61.8565222 39.9957103,61.5690576 40.3508131,61.3628657 L44.0192056,59.2452596 C44.6376262,58.8885626 45.5449439,58.8554515 46.0866262,59.166997 L50.0228505,61.4411283 C50.2967009,61.6006636 50.4486729,61.8294313 50.4486729,62.0883 C50.4486729,62.3847949 50.2440374,62.6707545 49.8889346,62.8769465 L46.2190374,64.9960576 C45.8865047,65.188704 45.4667009,65.2880374 45.0679626,65.2880374" id="Fill-260" fill="#020202"></path>
                <polygon id="Fill-262" fill="#0066FF" points="115.209794 72.3572596 130.727486 48.7129162 91.6992804 26.1657545 76.1665421 49.810098"></polygon>
                <polygon id="Fill-264" fill="#FFFFFF" points="115.978381 76.7298828 131.496073 53.0855394 92.4678673 30.5383778 76.9336243 54.1827212"></polygon>
                <path d="M76.5394,49.7213 L115.126736,72.0065828 L130.355531,48.8017141 L91.7832411,26.5164313 L76.5394,49.7213 Z M115.293755,72.7079364 L75.7945869,49.8973909 L91.6177271,25.8135727 L131.101849,48.6241182 L130.948372,48.857401 L115.293755,72.7079364 Z" id="Fill-266" fill="#16110D"></path>
                <polygon id="Fill-268" fill="#0066FF" points="37.1299103 72.3572596 37.1299103 114.09231 76.1731626 136.640977 76.1731626 94.9044212"></polygon>
                <path d="M37.3929271,113.941655 L37.3929271,72.8131394 L75.9125533,95.0562808 L75.9125533,136.184796 L37.3929271,113.941655 Z M76.1743664,94.6002505 L36.8662916,71.9010788 L36.8662916,114.245675 L76.1728617,136.944846 L115.35003,114.320927 L115.479432,114.245675 L115.479432,71.9010788 L76.1743664,94.6002505 Z" id="Fill-270" fill="#16110D"></path>
                <polygon id="Fill-272" fill="#0066FF" points="115.218672 72.3572596 76.173915 94.9044212 37.1306626 72.3572596 76.1754196 49.810098"></polygon>
                <path d="M37.6676804,72.3572596 L76.1737645,94.5943808 L114.681353,72.3572596 L76.1752692,50.1201384 L37.6676804,72.3572596 Z M76.1737645,95.2159667 L36.5933439,72.3572596 L76.1752692,49.4985525 L76.309185,49.5768152 L115.754185,72.3572596 L76.1737645,95.2159667 Z" id="Fill-274" fill="#16110D"></path>
                <path d="M85.1986421,117.607205 L85.1986421,125.004528 L89.7231935,122.391761 L89.7231935,114.995942 L92.7882121,113.224498 L87.5624832,107.809326 L82.3382589,119.259751 L85.1986421,117.607205 Z M84.5140159,126.189003 L84.5140159,118.79168 L80.829072,120.919821 L87.3578477,106.612811 L93.8866234,113.379518 L90.406315,115.388761 L90.406315,122.786084 L84.5140159,126.189003 Z" id="Fill-276" fill="#0066FF"></path>
                <polygon id="Fill-278" fill="#16110D" points="81.6969673 46.3481808 36.5959019 72.3569586 76.0424065 95.1328879 76.4561916 94.9146556 81.6969673 91.7149182"></polygon>
                <path d="M20.9752907,92.9591434 C19.8678514,93.3986182 19.3231598,94.6583455 19.7625243,95.7660626 C20.2018888,96.8737798 21.4613,97.417103 22.5702439,96.9776283 C23.6776832,96.5381535 24.2208701,95.2784263 23.7815056,94.1722141 C23.3421411,93.0629919 22.0827299,92.5196687 20.9752907,92.9591434 M23.0562533,98.2042444 C21.2717112,98.9116182 19.2464215,98.0371838 18.5377206,96.2521939 C17.8290196,94.4687091 18.7047393,92.439901 20.4892813,91.7340323 C22.2723187,91.0251535 24.3006178,91.9010929 25.007814,93.6845778 C25.7150103,95.4695677 24.837786,97.4968707 23.0562533,98.2042444" id="Fill-280" fill="#FFFFFF"></path>
                <g id="Group-284" transform="translate(0.000000, 88.896862)">
                    <mask id="mask-8" fill="white">
                        <use xlink:href="#path-7"></use>
                    </mask>
                    <g id="Clip-283"></g>
                    <path d="M-0.000601869159,8.29674141 C0.104725234,7.27180202 0.623837383,6.48014545 1.42582804,6.12344848 C2.25339813,5.75471111 3.23143551,5.90822626 4.10865981,6.54787273 C4.56006168,6.87747879 5.01597757,6.97681212 5.36205234,6.82480202 C5.68254766,6.68633737 5.89019252,6.33566061 5.94887477,5.84200404 L6.04517383,5.02325657 C6.15952897,4.04497374 6.66359439,3.27739798 7.42796822,2.91919596 C8.20287477,2.55497374 9.13577196,2.66183232 9.98591215,3.21418586 L10.5336131,3.56937778 C10.9624449,3.84931717 11.3927813,3.92005455 11.711772,3.76352929 C12.0262486,3.61151919 12.2323888,3.23676162 12.277529,2.73708485 L12.3000991,2.47671111 C12.3933888,1.43672121 12.9094916,0.631519192 13.7144916,0.264286869 C14.5420617,-0.113480808 15.5216037,0.0385292929 16.4048467,0.676670707 L15.5652393,1.8355596 C15.1123327,1.50745859 14.6534075,1.41113535 14.3103421,1.56766061 C13.9853327,1.71515556 13.7716692,2.09292323 13.726529,2.6046404 L13.7024542,2.86501414 C13.6121738,3.87640808 13.1156318,4.6755899 12.3377159,5.05335758 C11.5567907,5.43413535 10.6148654,5.33028687 9.75268785,4.77191313 L9.20498692,4.41521616 C8.78066916,4.13828687 8.35484673,4.06604444 8.03736075,4.21504444 C7.72589346,4.36103434 7.52426729,4.70719596 7.46708972,5.19182222 L7.37079065,6.00906465 C7.2519215,7.01443838 6.73130467,7.79104444 5.93533271,8.13871111 C5.11077196,8.49841818 4.13875327,8.34038788 3.26754766,7.70525657 C2.81464112,7.37715556 2.35571589,7.27631717 2.00964112,7.43133737 C1.68463178,7.57582222 1.47548224,7.93703434 1.42432336,8.44273131 L-0.000601869159,8.29674141 Z" id="Fill-282" fill="#FFFFFF" mask="url(#mask-8)"></path>
                </g>
                <path d="M137.650636,86.7816636 C136.789964,87.0254818 136.287403,87.925502 136.53116,88.7863909 C136.774917,89.6472798 137.674711,90.1499667 138.535384,89.9061485 C139.397562,89.6623303 139.900122,88.7623101 139.656365,87.9014212 C139.412608,87.0405323 138.512814,86.5378455 137.650636,86.7816636 M138.806225,90.8603505 C137.418917,91.2546737 135.969917,90.4449566 135.577197,89.0573 C135.184478,87.6696434 135.992487,86.2202798 137.379795,85.8274616 C138.767104,85.4346434 140.216104,86.2443606 140.610328,87.6305121 C141.003048,89.0181687 140.192029,90.4675323 138.806225,90.8603505" id="Fill-285" fill="#FFFFFF"></path>
                <g id="Group-289" transform="translate(141.439252, 81.371609)">
                    <mask id="mask-10" fill="white">
                        <use xlink:href="#path-9"></use>
                    </mask>
                    <g id="Clip-288"></g>
                    <path d="M0.951705607,1.50926465 C1.60473364,0.726638384 2.46841589,0.363921212 3.32307009,0.514426263 C4.20480841,0.667941414 4.92404206,1.33618384 5.29118224,2.34607273 C5.47926636,2.8638101 5.79825701,3.19943636 6.1653972,3.26716364 C6.50545327,3.32887071 6.86958411,3.15729495 7.19007944,2.78404242 L7.7197243,2.16546667 C8.35620093,1.42498182 9.19430374,1.07430505 10.0173598,1.20072929 C10.8569673,1.33166869 11.5626589,1.93519394 11.9538738,2.8577899 L12.2066589,3.45228485 C12.4052757,3.91885051 12.7197523,4.21534545 13.0673318,4.26350707 C13.4088925,4.31166869 13.7850607,4.11751717 14.0995374,3.73372929 L14.2620421,3.53205253 C14.9135654,2.73136566 15.780257,2.35510303 16.6454439,2.49808283 C17.5332009,2.64708283 18.2539393,3.3108101 18.6255935,4.32220404 L17.2954626,4.8098404 C17.1043692,4.29210303 16.7823692,3.95798182 16.4122196,3.89627475 C16.0646402,3.83908283 15.6824533,4.03172929 15.3619579,4.42454747 L15.1994533,4.62622424 C14.5644813,5.40734545 13.7158458,5.78661818 12.8702196,5.66771919 C12.0170701,5.5488202 11.3023505,4.94228485 10.9036121,4.00764848 L10.6508271,3.41315354 C10.453715,2.95110303 10.145257,2.65611313 9.80219159,2.60343636 C9.46664953,2.54925455 9.11004206,2.7238404 8.79556542,3.08956768 L8.26441589,3.70663838 C7.61289252,4.46668889 6.7537243,4.81435556 5.91110748,4.6608404 C5.03538785,4.50130505 4.32367757,3.83456768 3.95954673,2.83069899 C3.76995794,2.30995152 3.44946262,1.9758303 3.07931308,1.91111313 C2.73323832,1.85091111 2.36158411,2.03001212 2.04108879,2.4168101 L0.951705607,1.50926465 Z" id="Fill-287" fill="#FFFFFF" mask="url(#mask-10)"></path>
                </g>
                <path d="M44.5401234,21.8087838 C43.1287402,21.7606222 41.9957215,21.1209758 41.4314692,20.0554 C40.8491607,18.9552081 40.9695346,17.5991576 41.7640019,16.3364202 C42.1732729,15.6892485 42.2680673,15.0541172 42.0288243,14.5935717 C41.8076374,14.1661374 41.3095907,13.9147939 40.6264692,13.8801778 L39.4964598,13.8244909 C38.1437589,13.7567636 37.0468523,13.1366828 36.4841047,12.1237838 C35.912329,11.0943293 35.9740206,9.80450101 36.6511234,8.5884202 L37.0889832,7.80428889 C37.4290393,7.19022828 37.4877215,6.59422828 37.2454692,6.17130909 C37.0062262,5.7544101 36.4750766,5.50607677 35.7844318,5.49102626 L35.424815,5.48350101 C33.9923664,5.4503899 32.8412916,4.81826869 32.2634972,3.74817778 C31.6691514,2.64949091 31.7850112,1.2904303 32.5779738,0.0216727273 L34.2451514,1.06617778 C33.8388897,1.7163596 33.7471047,2.35450101 33.993871,2.81354141 C34.2270953,3.24398586 34.7642636,3.49984444 35.4684505,3.5164 L35.8280673,3.52392525 C37.2244037,3.55553131 38.3634411,4.16206667 38.9532729,5.19302626 C39.5476187,6.22850101 39.4934505,7.5303697 38.805815,8.76300606 L38.3679551,9.54864242 C38.0294037,10.1566828 37.9707215,10.7466626 38.2039458,11.1695818 C38.4311514,11.5804606 38.9261888,11.8257838 39.5942636,11.8588949 L40.7242729,11.9145818 C42.113086,11.9838141 43.2235346,12.6279758 43.7742449,13.6860263 C44.3445159,14.781703 44.2181234,16.1302283 43.4296748,17.3854404 C43.0188991,18.0356222 42.9256093,18.6722586 43.1693664,19.1343091 C43.3980766,19.5662586 43.9096654,19.8191071 44.6093383,19.8431879 L44.5401234,21.8087838 Z" id="Fill-290" fill="#FFFFFF"></path>
                <path d="M33.9059981,18.8382657 C32.6480916,18.8382657 31.624914,19.8632051 31.624914,21.1199222 C31.624914,22.3766394 32.6480916,23.3985687 33.9059981,23.3985687 C35.1624,23.3985687 36.1855776,22.3766394 36.1855776,21.1199222 C36.1855776,19.8632051 35.1624,18.8382657 33.9059981,18.8382657 M33.9059981,24.3843768 C32.1064093,24.3843768 30.6423626,22.9184576 30.6423626,21.1199222 C30.6423626,19.3183768 32.1064093,17.8554677 33.9059981,17.8554677 C35.7040822,17.8554677 37.1696336,19.3183768 37.1696336,21.1199222 C37.1696336,22.9184576 35.7040822,24.3843768 33.9059981,24.3843768" id="Fill-292" fill="#0066FF"></path>
                <path d="M13.4562897,24.9892566 C14.0927664,24.465499 14.8345701,24.3089737 15.4921121,24.5573071 C16.169215,24.8146707 16.6386729,25.4543172 16.7771028,26.3106909 C16.8493271,26.7516707 17.0524579,27.0662263 17.3338318,27.1745899 C17.5941402,27.2769333 17.9101215,27.1956606 18.2200841,26.9473273 L18.7361869,26.5349434 C19.3531028,26.0427919 20.0708318,25.8922869 20.7088131,26.1180444 C21.3543178,26.3468121 21.8252804,26.9337818 21.9968131,27.7269434 L22.1081589,28.2371556 C22.1954299,28.639004 22.3985607,28.9204485 22.6678972,29.0137616 C22.9327196,29.1025596 23.262243,29.0062364 23.5691963,28.7473677 L23.7286916,28.6119131 C24.3666729,28.0746101 25.1144953,27.9060444 25.7780561,28.1528727 C26.4626822,28.4042162 26.9351495,29.0408525 27.0765888,29.9017414 L25.9465794,30.0883677 C25.8728505,29.6473879 25.6667103,29.3328323 25.3823271,29.2274788 C25.1144953,29.1296505 24.7804579,29.2229636 24.467486,29.4893576 L24.3079907,29.6233071 C23.6850561,30.1485697 22.953785,30.3216505 22.2992523,30.098903 C21.6387009,29.8746505 21.1617196,29.2846707 20.9871776,28.4809737 L20.8773364,27.9692566 C20.7900654,27.5734283 20.5884393,27.2919838 20.3236168,27.1986707 C20.0663178,27.1053576 19.7563551,27.1896404 19.4509065,27.4319535 L18.9363084,27.8428323 C18.3028411,28.3470242 17.5670561,28.4945192 16.9200467,28.2446808 C16.2474579,27.9843071 15.7840187,27.3461657 15.6455888,26.4943071 C15.5748692,26.0518222 15.3702336,25.7372667 15.0858505,25.6304081 C14.8195234,25.5280646 14.4975234,25.6168626 14.1830467,25.8757313 L13.4562897,24.9892566 Z" id="Fill-294" fill="#FFFFFF"></path>
                <path d="M43.1001514,21.7866596 C41.6887682,21.738498 40.5542449,21.0988515 39.9899925,20.0332758 C39.4076841,18.9330838 39.5295626,17.5770333 40.3225252,16.314296 C40.7317963,15.6671242 40.8280953,15.0319929 40.5888523,14.5714475 C40.3676654,14.1440131 39.8696187,13.8911646 39.1864972,13.8565485 L38.0549832,13.8023667 C36.7037869,13.7346394 35.6053757,13.1145586 35.042628,12.1001545 C34.472357,11.0707 34.5325439,9.78237677 35.2111514,8.56629596 L35.6475065,7.78216465 C35.9890673,7.16810404 36.0477495,6.57210404 35.8039925,6.14918485 C35.5662542,5.73228586 35.0336,5.48395253 34.3444598,5.46890202 L33.984843,5.45987172 C32.5523944,5.42826566 31.4013196,4.79614444 30.8235252,3.72605354 C30.2291794,2.62736667 30.3435346,1.26830606 31.1380019,-0.000451515152 L32.8051794,1.04405354 C32.3974131,1.69423535 32.305628,2.33237677 32.5538991,2.79141717 C32.7871234,3.22035657 33.3242916,3.4777202 34.0284785,3.49277071 L34.3865907,3.50180101 C35.7844318,3.53190202 36.9234692,4.13994242 37.5117963,5.17090202 C38.1061421,6.20637677 38.0534785,7.50824545 37.365843,8.74088182 L36.9279832,9.52501313 C36.5894318,10.1330535 36.5292449,10.7230333 36.7624692,11.1459525 C36.9911794,11.5583364 37.4862168,11.8036596 38.1527869,11.8367707 L39.2827963,11.8924576 C40.673114,11.9616899 41.7835626,12.6058515 42.3342729,13.663902 C42.9030393,14.7595788 42.7781514,16.108104 41.9881981,17.3633162 C41.5789271,18.013498 41.4856374,18.6501343 41.7293944,19.1121848 C41.9566,19.5441343 42.4696935,19.7954778 43.1693664,19.8195586 L43.1001514,21.7866596 Z" id="Fill-296" fill="#16110D"></path>
                <path d="M32.4645215,18.8162919 C31.2081196,18.8162919 30.1849421,19.8397263 30.1849421,21.0979485 C30.1849421,22.3546657 31.2081196,23.3765949 32.4645215,23.3765949 C33.7209234,23.3765949 34.7456056,22.3546657 34.7456056,21.0979485 C34.7456056,19.8397263 33.7209234,18.8162919 32.4645215,18.8162919 M32.4645215,24.362403 C30.6664374,24.362403 29.200886,22.8964838 29.200886,21.0979485 C29.200886,19.296403 30.6664374,17.8334939 32.4645215,17.8334939 C34.2641103,17.8334939 35.728157,19.296403 35.728157,21.0979485 C35.728157,22.8964838 34.2641103,24.362403 32.4645215,24.362403" id="Fill-298" fill="#16110D"></path>
                <polygon id="Fill-300" fill="#0066FF" points="59.7970551 74.7618788 50.0121673 69.1119192 40.2272794 74.7618788 40.2272794 86.0648081 50.0121673 91.7147677 50.0121673 80.4419394"></polygon>
                <polygon id="Fill-302" fill="#FFFFFF" points="59.7970551 76.6269374 50.0121673 70.9754727 40.2272794 76.6269374 50.0121673 82.3054929"></polygon>
                <path d="M53.9942841,77.8865141 L50.0129196,80.1862313 L45.4131346,77.5313222 L54.8068075,72.1071202 L59.4050879,74.7620293 L53.9942841,77.8865141 Z M49.8173121,91.3762818 L40.4221346,85.9505747 L40.4221346,75.1021707 L49.8173121,80.5263727 L49.8173121,91.3762818 Z M50.0129196,69.3378273 L54.6112,71.9942414 L45.2175271,77.4169384 L40.6192467,74.7620293 L50.0129196,69.3378273 Z M59.993415,74.6506556 L50.0129196,68.8863121 L40.0610131,74.6325949 L40.0309196,74.6506556 L40.029415,74.8749081 L40.0309196,74.8749081 L40.0309196,86.1763323 L49.8173121,91.827797 L50.0129196,91.9406758 L50.2085271,91.827797 L59.8956112,86.2335242 L59.993415,86.1763323 L59.993415,74.8749081 L59.993415,74.6506556 Z" id="Fill-304" fill="#16110D"></path>
                <path d="M46.3063084,81.9916899 C46.2506355,82.023296 46.1693832,81.9856697 46.1257477,81.9600838 L44.3111121,80.9125687 C44.0523084,80.7635687 43.8326262,80.3376394 43.8326262,79.9824475 C43.8326262,79.8078616 43.8882991,79.7145485 43.9334393,79.6874576 C43.9906168,79.6543465 44.0718692,79.6934778 44.114,79.7175586 L44.2403925,79.789801 C44.284028,80.2157303 44.5368131,80.6597202 44.8542991,80.8433364 L46.4026075,81.7373364 C46.3950841,81.8833263 46.3499439,81.964599 46.3063084,81.9916899 M46.1257477,80.4264374 L44.3111121,79.3789222 C44.109486,79.2630333 43.9063551,79.2509929 43.7378318,79.3473162 C43.5497477,79.4556798 43.4414112,79.6889626 43.4414112,79.9824475 C43.4414112,80.476104 43.7363271,81.0344778 44.114,81.2527101 L45.9286355,82.3002253 C46.0399813,82.3634374 46.1498224,82.3965485 46.2566542,82.3965485 C46.3424206,82.3965485 46.4251776,82.3739727 46.5019159,82.3318313 C46.6915047,82.2204576 46.7983364,81.9901848 46.7983364,81.6967 C46.7983364,81.2030434 46.5034206,80.6431646 46.1257477,80.4264374" id="Fill-306" fill="#16110D"></path>
                <path d="M58.383415,82.7618242 C58.2916299,82.7091475 58.1787794,82.7151677 58.0674336,82.7798848 L56.621443,83.6136828 C56.4092841,83.737097 56.2392561,84.0546626 56.2392561,84.3361071 L56.2392561,85.884804 C56.2392561,86.0503596 56.299443,86.1797939 56.4047701,86.239996 C56.4453963,86.2640768 56.4905364,86.2761172 56.538686,86.2761172 C56.5973682,86.2761172 56.6590598,86.2580566 56.7207514,86.2219354 L58.1652374,85.3881374 C58.3789009,85.2632182 58.5474243,84.9471576 58.5474243,84.6672182 L58.5474243,83.1155111 C58.5474243,82.9514606 58.4872374,82.8220263 58.383415,82.7618242" id="Fill-308" fill="#0066FF"></path>
                <polygon id="Fill-310" fill="#0066FF" points="52.8275607 90.5223162 52.6319533 90.1791646 59.7957009 86.0628515 59.7957009 74.0465283 65.9287477 70.5442758 66.1243551 70.8859222 60.1914299 74.275296 60.1914299 86.2901141"></polygon>
                <polygon id="Fill-312" fill="#0066FF" points="76.1662411 94.9051737 50.2933907 95.7660626 10.4872692 73.1842848 37.1229888 72.3580121"></polygon>
                <polygon id="Fill-314" fill="#FFFFFF" points="75.9119514 98.4501697 50.0375963 99.3110586 10.2314748 76.7307859 36.8671944 75.9045131"></polygon>
                <path d="M11.4299467,73.4184707 L50.3573393,95.5005717 L75.2386103,94.6727939 L37.0560308,72.622299 L11.4299467,73.4184707 Z M50.2279374,96.0303495 L50.1632364,95.9942283 L9.54007757,72.9504 L37.1884421,72.0925212 L37.253143,72.1301475 L77.093872,95.1378545 L50.2279374,96.0303495 Z" id="Fill-316" fill="#16110D"></path>
                <path d="M113.724231,25.4376111 C113.504549,24.7934495 113.596334,24.1748737 113.978521,23.7399141 C114.37124,23.289904 115.001698,23.1138131 115.705885,23.2552879 C116.091081,23.3335505 116.417595,23.259803 116.598156,23.0566212 C116.766679,22.8669848 116.799782,22.5765101 116.691446,22.2408838 L116.515399,21.709601 C116.315278,21.0880152 116.404053,20.4905101 116.762165,20.0660859 C117.126296,19.6326313 117.714623,19.4399848 118.379689,19.5363081 L118.817549,19.5995202 C119.177165,19.652197 119.476595,19.5679141 119.640605,19.3692475 C119.8001,19.1735909 119.824175,18.8680657 119.703801,18.5324394 L119.645119,18.3653788 C119.411894,17.715197 119.499165,17.089096 119.879848,16.6466111 C120.271063,16.1920859 120.901521,16.0114798 121.607212,16.1514495 L121.437184,17.0138434 C121.048979,16.9385909 120.723969,17.0123384 120.544913,17.2215404 C120.377894,17.417197 120.349306,17.7257323 120.472689,18.0688838 L120.531371,18.2359444 C120.758577,18.8710758 120.680334,19.4866414 120.320717,19.9276212 C119.958091,20.3701061 119.363745,20.5687727 118.691156,20.4709444 L118.253296,20.4062273 C117.896689,20.3550556 117.598764,20.4378333 117.434754,20.6319848 C117.273754,20.8216212 117.24667,21.1075808 117.353502,21.4371869 L117.526539,21.9669646 C117.734184,22.603601 117.63638,23.2131465 117.255698,23.6420859 C116.861474,24.0845707 116.234025,24.2576515 115.534352,24.1176818 C115.144642,24.0394192 114.821137,24.1131667 114.639072,24.3193586 C114.469044,24.5150152 114.440455,24.8100051 114.55782,25.1546616 L113.724231,25.4376111 Z" id="Fill-318" fill="#0066FF"></path>
                <path d="M118.197172,28.8769525 C117.032555,28.8769525 116.084611,29.8266394 116.084611,30.9900434 C116.084611,32.1564576 117.032555,33.1046394 118.197172,33.1046394 C119.361789,33.1046394 120.309733,32.1564576 120.309733,30.9900434 C120.309733,29.8266394 119.361789,28.8769525 118.197172,28.8769525 M118.197172,33.8707101 C116.609742,33.8707101 115.318733,32.5793768 115.318733,30.9900434 C115.318733,29.4037202 116.609742,28.1108818 118.197172,28.1108818 C119.784602,28.1108818 121.077116,29.4037202 121.077116,30.9900434 C121.077116,32.5793768 119.784602,33.8707101 118.197172,33.8707101" id="Fill-320" fill="#FFFFFF"></path>
                <path d="M113.168856,24.7159394 C112.949174,24.0717778 113.040959,23.453202 113.421641,23.0197475 C113.815865,22.5697374 114.446323,22.3936465 115.149006,22.5336162 C115.535707,22.6118788 115.862221,22.5396364 116.042781,22.3349495 C116.2098,22.1453131 116.244407,21.8563434 116.134566,21.5192121 L115.960024,20.9879293 C115.759903,20.3678485 115.848679,19.7688384 116.206791,19.3444141 C116.570921,18.9124646 117.159249,18.7198182 117.824314,18.8146364 L118.262174,18.8778485 C118.620286,18.9305253 118.921221,18.8477475 119.083725,18.6475758 C119.244725,18.4519192 119.267295,18.1463939 119.148426,17.8107677 L119.089744,17.6437071 C118.85652,16.9935253 118.942286,16.3674242 119.324473,15.9249394 C119.715688,15.4719192 120.346146,15.2913131 121.051837,15.4297778 L120.881809,16.2936768 C120.493604,16.2184242 120.168594,16.2921717 119.989538,16.4998687 C119.821015,16.6955253 119.793931,17.0055657 119.915809,17.3472121 L119.975996,17.5157778 C120.203202,18.149404 120.124959,18.7649697 119.765342,19.2059495 C119.402716,19.6484343 118.80837,19.847101 118.134277,19.7492727 L117.696417,19.6860606 C117.341314,19.6348889 117.041884,19.7161616 116.879379,19.9118182 C116.718379,20.1014545 116.689791,20.3874141 116.796622,20.7155152 L116.971164,21.2452929 C117.178809,21.8834343 117.079501,22.4929798 116.700323,22.9204141 C116.306099,23.362899 115.67865,23.5374848 114.977473,23.3975152 C114.589267,23.3192525 114.264258,23.393 114.082193,23.5991919 C113.912164,23.7933434 113.88508,24.0898384 114.00094,24.4329899 L113.168856,24.7159394 Z" id="Fill-322" fill="#16110D"></path>
                <path d="M117.593196,28.3653859 C116.428579,28.3653859 115.480636,29.3135677 115.480636,30.4769717 C115.480636,31.6433859 116.428579,32.5915677 117.593196,32.5915677 C118.757813,32.5915677 119.705757,31.6433859 119.705757,30.4769717 C119.705757,29.3135677 118.757813,28.3653859 117.593196,28.3653859 M117.593196,33.3576384 C116.004262,33.3576384 114.713252,32.0663051 114.713252,30.4769717 C114.713252,28.8906485 116.004262,27.5978101 117.593196,27.5978101 C119.180626,27.5978101 120.471636,28.8906485 120.471636,30.4769717 C120.471636,32.0663051 119.180626,33.3576384 117.593196,33.3576384" id="Fill-324" fill="#16110D"></path>
                <polygon id="Fill-326" fill="#0066FF" points="109.008887 117.982113 108.324261 118.377941 108.324261 95.6020121 109.005878 95.2152141"></polygon>
                <polygon id="Fill-328" fill="#0066FF" points="103.244485 68.1419141 114.859055 75.3360556 98.3091579 84.8825909 86.7412327 77.3121869"></polygon>
                <polygon id="Fill-330" fill="#FFFFFF" points="103.24298 69.8218515 114.856046 77.0159929 98.3076533 86.5625283 86.739728 78.9921242"></polygon>
                <path d="M87.130943,77.3266354 L98.3166813,84.645696 L114.466336,75.3309384 L103.238466,68.3761 L87.130943,77.3266354 Z M98.3016346,85.1197869 L98.1978121,85.0520596 L86.3515224,77.2965343 L103.250504,67.9080293 L103.349812,67.9712414 L115.25027,75.3429788 L98.3016346,85.1197869 Z" id="Fill-332" fill="#16110D"></path>
                <path d="M80.3790243,46.7184232 L76.4443047,44.4442919 C75.9673234,44.1703727 76.0260056,43.6902616 76.5767159,43.372696 L80.2451084,41.2535848 C80.794314,40.9360192 81.6263981,40.9029081 82.1033794,41.1768273 L86.0380991,43.4494535 C86.5135757,43.7248778 86.4533888,44.2049889 85.9041832,44.5225545 L82.234286,46.6401606 C81.6850804,46.9577263 80.8545009,46.9938475 80.3790243,46.7184232" id="Fill-334" fill="#0066FF"></path>
                <path d="M81.2973262,41.2024131 C80.9678028,41.2024131 80.6187187,41.2821808 80.3508869,41.435696 L76.6824944,43.5548071 C76.4628121,43.6812313 76.3319056,43.8407667 76.3319056,43.9807364 C76.3319056,44.1116758 76.4492701,44.2049889 76.5485785,44.2621808 L80.4848028,46.5363121 C80.8925692,46.7711 81.647915,46.7379889 82.130915,46.4580495 L85.7978028,44.3404434 C86.017485,44.2140192 86.1483916,44.0559889 86.1483916,43.9160192 C86.1483916,43.7850798 86.0310271,43.6887566 85.9317187,43.6315646 L81.9969991,41.3589384 C81.8149336,41.2535848 81.5636533,41.2024131 81.2973262,41.2024131 M81.187485,47.1157566 C80.847429,47.1157566 80.5224196,47.0435141 80.2726439,46.9005343 L76.3379243,44.626403 C76.0625692,44.4683727 75.9121019,44.2396051 75.9121019,43.9807364 C75.9121019,43.6827364 76.1167374,43.3967768 76.4718402,43.1905848 L80.1402327,41.0714737 C80.7571486,40.7162818 81.6644664,40.6816657 82.2061486,40.9947162 L86.1438776,43.2673424 C86.417728,43.4268778 86.5697,43.6571505 86.5697,43.9160192 C86.5697,44.2110091 86.3650645,44.4984737 86.0099617,44.7046657 L82.3400645,46.8222717 C82.0075318,47.0164232 81.5862234,47.1157566 81.187485,47.1157566" id="Fill-336" fill="#020202"></path>
                <path d="M80.3790243,44.1566768 L76.4443047,41.8825455 C75.9673234,41.6086263 76.0260056,41.1285152 76.5767159,40.8109495 L80.2451084,38.6918384 C80.794314,38.3757778 81.6263981,38.3411616 82.1033794,38.6150808 L86.0380991,40.8877071 C86.5135757,41.1631313 86.4533888,41.6432424 85.9041832,41.9608081 L82.234286,44.0784141 C81.6850804,44.3959798 80.8545009,44.432101 80.3790243,44.1566768" id="Fill-338" fill="#0066FF"></path>
                <path d="M80.3790243,45.3780253 L76.4443047,43.1038939 C75.9673234,42.8299747 76.0260056,42.3498636 76.5767159,42.032298 L80.2451084,39.9131869 C80.794314,39.5971263 81.6263981,39.5625101 82.1033794,39.8364293 L86.0380991,42.1090556 C86.5135757,42.3844798 86.4533888,42.8645909 85.9041832,43.1821566 L82.234286,45.2997626 C81.6850804,45.6173283 80.8545009,45.6534495 80.3790243,45.3780253" id="Fill-340" fill="#FFFFFF"></path>
                <path d="M81.2973262,38.6406667 C80.9678028,38.6406667 80.6187187,38.7204343 80.3508869,38.8739495 L76.6824944,40.9930606 C76.4628121,41.1194848 76.3319056,41.2790202 76.3319056,41.4189899 C76.3319056,41.5499293 76.4492701,41.6447475 76.5485785,41.7004343 L80.4848028,43.9745657 C80.8925692,44.2093535 81.647915,44.1762424 82.130915,43.896303 L85.7978028,41.778697 C86.017485,41.6522727 86.1483916,41.4942424 86.1483916,41.3542727 C86.1483916,41.2233333 86.0310271,41.1270101 85.9317187,41.0713232 L81.9969991,38.7971919 C81.8149336,38.6918384 81.5636533,38.6406667 81.2973262,38.6406667 M81.187485,44.5540101 C80.847429,44.5540101 80.5224196,44.4817677 80.2726439,44.3387879 L76.3379243,42.0646566 C76.0625692,41.9066263 75.9121019,41.6778586 75.9121019,41.4189899 C75.9121019,41.1209899 76.1167374,40.8350303 76.4718402,40.6288384 L80.1402327,38.5097273 C80.7571486,38.1545354 81.6644664,38.1199192 82.2061486,38.4329697 L86.1438776,40.705596 C86.417728,40.8651313 86.5697,41.095404 86.5697,41.3542727 C86.5697,41.6492626 86.3650645,41.9367273 86.0099617,42.1429192 L82.3400645,44.2620303 C82.0075318,44.4546768 81.5862234,44.5540101 81.187485,44.5540101" id="Fill-342" fill="#020202"></path>
                <polygon id="Fill-344" fill="#0066FF" points="79.766171 84.5916646 71.7628159 89.2136747 64.1025262 84.7918364 72.107386 80.1698263"></polygon>
                <polygon id="Fill-346" fill="#FFFFFF" points="79.766171 86.2819869 71.7628159 90.903997 64.1025262 86.4821586 72.107386 81.8601485"></polygon>
                <path d="M64.5050262,84.7915354 L71.7620636,88.981596 L79.363671,84.5913636 L72.1081383,80.401303 L64.5050262,84.7915354 Z M71.7620636,89.4466566 L63.7000262,84.7915354 L72.1081383,79.9347374 L80.1701757,84.5913636 L71.7620636,89.4466566 Z" id="Fill-348" fill="#16110D"></path>
                <polygon id="Fill-350" fill="#0066FF" points="90.1593981 62.9213455 80.3745103 57.2698808 70.5896224 62.9213455 70.5896224 74.2227697 80.3745103 79.8742343 80.3745103 68.599901"></polygon>
                <polygon id="Fill-352" fill="#FFFFFF" points="90.1593981 64.786404 80.3745103 59.1349394 70.5896224 64.786404 80.3745103 70.4649596"></polygon>
                <path d="M84.3566271,66.0461313 L80.3752626,68.3443434 L75.7754776,65.6909394 L85.1691505,60.2652323 L89.7674308,62.9216465 L84.3566271,66.0461313 Z M80.1796551,79.5343939 L70.7844776,74.1086869 L70.7844776,63.2602828 L80.1796551,68.6859899 L80.1796551,79.5343939 Z M80.3752626,57.4959394 L84.973543,60.1523535 L75.5798701,65.5765556 L70.980085,62.9216465 L80.3752626,57.4959394 Z M90.3557579,62.8087677 L80.3752626,57.0444242 L70.4233561,62.7907071 L70.3932626,62.8087677 L70.3917579,63.0330202 L70.3932626,63.0345253 L70.3932626,74.3359495 L80.1796551,79.9874141 L80.3752626,80.1002929 L80.5708701,79.9874141 L90.2579542,74.3931414 L90.3557579,74.3359495 L90.3557579,63.0345253 L90.3557579,62.8087677 Z" id="Fill-354" fill="#16110D"></path>
                <path d="M76.6688019,70.1496515 C76.613129,70.1812576 76.5318766,70.1436313 76.4882411,70.1195505 L74.6736056,69.0705303 C74.4148019,68.9230354 74.1951196,68.495601 74.1951196,68.1419141 C74.1951196,67.9673283 74.2507925,67.8725101 74.2959327,67.8469242 C74.3531103,67.8123081 74.4343626,67.8514394 74.4764935,67.8770253 L74.602886,67.9492677 C74.6465215,68.3736919 74.8993065,68.8191869 75.2167925,69.001298 L76.7651009,69.896803 C76.7575776,70.0427929 76.7124374,70.1240657 76.6688019,70.1496515 M76.4882411,68.585904 L74.6736056,67.5368838 C74.4719794,67.4225 74.2688486,67.4104596 74.1003252,67.5067828 C73.9122411,67.6151465 73.8039047,67.8469242 73.8039047,68.1419141 C73.8039047,68.6355707 74.0988206,69.1924394 74.4764935,69.4121768 L76.291129,70.4596919 C76.4024748,70.522904 76.5123159,70.5560152 76.6191477,70.5560152 C76.704914,70.5560152 76.7891757,70.5334394 76.8644093,70.4897929 C77.0539981,70.3799242 77.1608299,70.1496515 77.1608299,69.8546616 C77.1608299,69.3610051 76.865914,68.8026313 76.4882411,68.585904" id="Fill-356" fill="#16110D"></path>
                <path d="M88.7457579,70.9212909 C88.6539729,70.8686141 88.5411224,70.8731293 88.4297766,70.9393515 L86.983786,71.7716444 C86.7716271,71.8950586 86.6015991,72.2126242 86.6015991,72.4940687 L86.6015991,74.0442707 C86.6015991,74.2098263 86.661786,74.3392606 86.7671131,74.3994626 C86.8077393,74.4220384 86.8528794,74.4340788 86.901029,74.4340788 C86.9597112,74.4340788 87.0214028,74.4160182 87.0830944,74.381402 L88.5275804,73.546099 C88.7412439,73.4226848 88.9097673,73.1051192 88.9097673,72.8251798 L88.9097673,71.2749778 C88.9097673,71.1094222 88.8495804,70.9814929 88.7457579,70.9212909" id="Fill-358" fill="#0066FF"></path>
                <path d="M67.0029336,73.8049677 L67.0029336,66.2571394 C67.0029336,66.1081394 66.8795505,65.9862303 66.7290832,65.9862303 L59.9655785,65.9862303 C59.8572421,65.9862303 59.769971,66.0720182 59.769971,66.1818869 L59.7669617,73.8064727 L59.7669617,73.8365737 C59.8151112,74.0006242 59.8331673,74.0638364 59.995672,74.1571495 L62.7763075,75.7645434 C63.1133542,75.9586949 63.7016813,75.9346141 64.0898869,75.7103616 L66.683943,74.2128364 C66.8855692,74.0954424 67.0029336,73.9795535 67.0029336,73.8049677" id="Fill-360" fill="#0066FF"></path>
                <path d="M62.778414,70.3994899 L60.437143,69.0494596 L60.437143,74.5489141 L63.3847972,75.9967727 L63.3847972,70.5274192 C63.1590963,70.5319343 62.9379093,70.492803 62.778414,70.3994899" id="Fill-362" fill="#FFFFFF"></path>
                <path d="M59.9660299,66.1739101 L59.9570019,73.8060212 C59.993114,73.9354556 59.9946187,73.9384657 60.0894131,73.9941525 L62.8730579,75.6015465 C63.1514224,75.7610818 63.6645159,75.737001 63.9955439,75.5473646 L66.5896,74.0483343 C66.7957402,73.9279303 66.8137963,73.860203 66.8137963,73.8045162 L66.8137963,66.2581929 C66.8137963,66.2115364 66.7746748,66.1739101 66.7295346,66.1739101 L59.9660299,66.1739101 Z M63.3485346,76.0846677 C63.1017682,76.0846677 62.8655346,76.033496 62.6834692,75.9266374 L59.901329,74.3207485 C59.6831514,74.1943242 59.6410206,74.0799404 59.5868523,73.888799 L59.579329,73.8376273 L59.5808336,66.1814354 C59.5808336,65.9692232 59.753871,65.7961424 59.9660299,65.7961424 L66.7295346,65.7961424 C66.9838243,65.7961424 67.1914692,66.0038394 67.1914692,66.2581929 L67.1914692,73.8045162 C67.1914692,74.1010111 66.9702822,74.2650616 66.7776841,74.3749303 L64.1851327,75.8724556 C63.9428804,76.0124253 63.6389364,76.0846677 63.3485346,76.0846677 Z" id="Fill-364" fill="#020202"></path>
                <path d="M62.778414,67.9435485 L59.9947692,66.3376596 C59.6592271,66.1435081 59.7013579,65.8033667 60.0895636,65.5791141 L62.6836196,64.0815889 C63.0718252,63.8573364 63.6601523,63.8332556 63.9971991,64.025902 L66.7778346,65.633296 C67.1148813,65.8289525 67.0727505,66.1660838 66.6845449,66.3918414 L64.0904888,67.8893667 C63.7007785,68.1136192 63.1139561,68.1377 62.778414,67.9435485" id="Fill-366" fill="#0066FF"></path>
                <path d="M66.8163542,67.0880778 C66.8028121,67.0790475 66.7922794,67.0685121 66.7787374,67.0594818 L63.9965972,65.4535929 C63.6595505,65.2594414 63.072728,65.2850273 62.6830178,65.5077747 L60.0889617,67.0053 C60.0393075,67.035401 59.995672,67.065502 59.9565505,67.0986131 L59.9565505,67.7367545 C59.9700925,67.7457848 59.9806252,67.7548152 59.995672,67.7638455 L62.7778121,69.3712394 C63.1133542,69.5653909 63.7016813,69.5413101 64.0898869,69.3155525 L66.683943,67.8180273 C66.7335972,67.7894313 66.7787374,67.7578253 66.8163542,67.7262192 L66.8163542,67.0880778 Z" id="Fill-368" fill="#FFFFFF"></path>
                <path d="M63.4278308,64.0838465 C63.2021299,64.0838465 62.9613822,64.1380283 62.7778121,64.2448869 L60.1837561,65.7439172 C60.0167374,65.8387354 59.9565505,65.9425838 59.9565505,66.007301 C59.9565505,66.0855636 60.0393075,66.1442606 60.0889617,66.1743616 L62.8726065,67.7802505 C63.150971,67.9412909 63.6640645,67.9157051 63.9950925,67.7260687 L66.5906533,66.2285434 C66.757672,66.1307152 66.8163542,66.0283717 66.8163542,65.9621495 C66.8163542,65.8853919 66.7335972,65.8251899 66.683943,65.798099 L63.9002981,64.1892 C63.776915,64.1184626 63.6068869,64.0838465 63.4278308,64.0838465 M63.3480832,68.2633717 C63.1013168,68.2633717 62.8650832,68.2122 62.6830178,68.1068465 L59.9008776,66.4994525 C59.6947374,66.3805535 59.5788776,66.2059677 59.5788776,66.007301 C59.5788776,65.7845535 59.7308495,65.5678263 59.995672,65.4158162 L62.5882234,63.9182909 C63.0366159,63.6594222 63.6956626,63.6353414 64.0898869,63.8641091 L66.8720271,65.469998 C67.079672,65.590402 67.1940271,65.7649879 67.1940271,65.9621495 C67.1940271,66.186402 67.0420551,66.4031293 66.7787374,66.5551394 L64.1846813,68.0526646 C63.942429,68.1911293 63.6399897,68.2633717 63.3480832,68.2633717" id="Fill-370" fill="#020202"></path>
                <polygon id="Fill-372" fill="#0066FF" points="92.2576645 87.9178263 84.2528047 92.5398364 76.5940196 88.117998 84.5988794 83.4944828"></polygon>
                <polygon id="Fill-374" fill="#FFFFFF" points="92.2576645 89.607998 84.2528047 94.2300081 76.5940196 89.8081697 84.5988794 85.1861596"></polygon>
                <path d="M76.9963692,88.117697 L84.2519019,92.3077576 L91.855014,87.9175253 L84.5994813,83.7274646 L76.9963692,88.117697 Z M84.2519019,92.7728182 L76.1913692,88.117697 L84.5994813,83.260899 L92.660014,87.9175253 L84.2519019,92.7728182 Z" id="Fill-376" fill="#16110D"></path>
                <polygon id="Fill-378" fill="#0066FF" points="76.1734636 94.9051737 102.047819 95.7660626 141.85394 73.1842848 115.218221 72.3580121"></polygon>
                <polygon id="Fill-380" fill="#FFFFFF" points="75.9119514 98.4501697 101.784802 99.3110586 141.590923 76.7307859 114.955204 75.9045131"></polygon>
                <path d="M77.1021477,94.6729444 L101.981914,95.5007222 L140.909307,73.4186212 L115.284727,72.6224495 L77.1021477,94.6729444 Z M102.112821,96.0305 L102.039092,96.0274899 L75.246886,95.1380051 L115.150811,72.0926717 L115.226045,72.0941768 L142.799176,72.9505505 L102.112821,96.0305 Z" id="Fill-382" fill="#16110D"></path>
            </g>
        </g>
    </g>
</svg>