
<svg width="126px" height="117px" viewBox="0 0 126 117" version="1.1" xmlns="http://www.w3.org/2000/svg" xmlns:xlink="http://www.w3.org/1999/xlink">
    <defs>
        <polygon id="path-1" points="0 1.02356528 2.282 1.02356528 2.282 2.67634306 0 2.67634306"></polygon>
        <polygon id="path-3" points="1.43558333 0.173706944 3.71766667 0.173706944 3.71766667 1.65277778 1.43558333 1.65277778"></polygon>
        <polygon id="path-5" points="1.33141667 0.173706944 3.6135 0.173706944 3.6135 1.65277778 1.33141667 1.65277778"></polygon>
    </defs>
    <g id="Page-1" stroke="none" stroke-width="1" fill="none" fill-rule="evenodd">
        <g id="Design" transform="translate(-251.000000, -2399.000000)">
            <path d="M341.03307,2515 C368.586359,2515 377,2480.58762 377,2453.08225 C377,2425.57687 354.212448,2406 326.659159,2406 C299.10587,2406 251,2437.69174 251,2465.19711 C251,2492.70249 313.479782,2515 341.03307,2515 Z" id="Oval-Copy-8" fill="#F2F7FF"></path>
            <g id="Group-584" transform="translate(267.000000, 2399.000000)">
                <path d="M18.8578333,79.2014417 C19.3045,79.4559694 19.3045,79.8708167 18.8578333,80.1269972 C18.4128333,80.381525 17.6911667,80.381525 17.2445,80.1269972 C16.7995,79.8708167 16.7995,79.4559694 17.2445,79.2014417 C17.6911667,78.9469139 18.4128333,78.9469139 18.8578333,79.2014417" id="Fill-1" fill="#16110D"></path>
                <path d="M23.0766667,76.7867333 C23.5233333,77.0412611 23.5233333,77.4544556 23.0766667,77.7106361 C22.6316667,77.9651639 21.91,77.9651639 21.4633333,77.7106361 C21.0183333,77.4544556 21.0183333,77.0412611 21.4633333,76.7867333 C21.91,76.5322056 22.6316667,76.5322056 23.0766667,76.7867333" id="Fill-3" fill="#16110D"></path>
                <path d="M27.2953333,74.3705375 C27.742,74.6267181 27.742,75.0399125 27.2953333,75.2960931 C26.8486667,75.5506208 26.1286667,75.5506208 25.682,75.2960931 C25.237,75.0399125 25.237,74.6267181 25.682,74.3705375 C26.1286667,74.1160097 26.8486667,74.1160097 27.2953333,74.3705375" id="Fill-5" fill="#16110D"></path>
                <path d="M31.5141667,71.9559944 C31.9608333,72.2105222 31.9608333,72.6237167 31.5141667,72.8798972 C31.0675,73.134425 30.3475,73.134425 29.9008333,72.8798972 C29.4558333,72.6237167 29.4558333,72.2105222 29.9008333,71.9559944 C30.3475,71.7014667 31.0675,71.7014667 31.5141667,71.9559944" id="Fill-7" fill="#16110D"></path>
                <path d="M35.7328333,69.5412861 C36.1795,69.7958139 36.1795,70.2090083 35.7328333,70.4651889 C35.2861667,70.7197167 34.5645,70.7197167 34.1195,70.4651889 C33.6745,70.2090083 33.6745,69.7958139 34.1195,69.5412861 C34.5645,69.2851056 35.2861667,69.2851056 35.7328333,69.5412861" id="Fill-9" fill="#16110D"></path>
                <path d="M39.9516667,67.1250903 C40.3983333,67.3796181 40.3983333,67.7928125 39.9516667,68.0489931 C39.505,68.3051736 38.7833333,68.3051736 38.3383333,68.0489931 C37.8933333,67.7928125 37.8933333,67.3796181 38.3383333,67.1250903 C38.7833333,66.8705625 39.505,66.8705625 39.9516667,67.1250903" id="Fill-11" fill="#16110D"></path>
                <path d="M44.1703333,64.7105472 C44.617,64.965075 44.617,65.3782694 44.1703333,65.63445 C43.7236667,65.8889778 43.002,65.8889778 42.557,65.63445 C42.112,65.3782694 42.112,64.965075 42.557,64.7105472 C43.002,64.4560194 43.7236667,64.4560194 44.1703333,64.7105472" id="Fill-13" fill="#16110D"></path>
                <path d="M48.3891667,62.2943514 C48.8358333,62.5488792 48.8358333,62.9637264 48.3891667,63.2199069 C47.9425,63.4744347 47.2208333,63.4744347 46.7741667,63.2199069 C46.3308333,62.9637264 46.3308333,62.5488792 46.7741667,62.2943514 C47.2208333,62.0398236 47.9425,62.0398236 48.3891667,62.2943514" id="Fill-15" fill="#16110D"></path>
                <path d="M52.6078333,59.8796431 C53.0528333,60.1341708 53.0528333,60.5473653 52.6078333,60.8035458 C52.1611667,61.0580736 51.4395,61.0580736 50.9928333,60.8035458 C50.5495,60.5473653 50.5495,60.1341708 50.9928333,59.8796431 C51.4395,59.6251153 52.1611667,59.6251153 52.6078333,59.8796431" id="Fill-17" fill="#16110D"></path>
                <path d="M14.6408333,76.7867333 C15.0858333,77.0412611 15.0858333,77.4544556 14.6408333,77.7106361 C14.1941667,77.9651639 13.4725,77.9651639 13.0258333,77.7106361 C12.5808333,77.4544556 12.5808333,77.0412611 13.0258333,76.7867333 C13.4725,76.5322056 14.1941667,76.5322056 14.6408333,76.7867333" id="Fill-19" fill="#16110D"></path>
                <path d="M18.8578333,74.3705375 C19.3045,74.6267181 19.3045,75.0399125 18.8578333,75.2960931 C18.4128333,75.5506208 17.6911667,75.5506208 17.2445,75.2960931 C16.7995,75.0399125 16.7995,74.6267181 17.2445,74.3705375 C17.6911667,74.1160097 18.4128333,74.1160097 18.8578333,74.3705375" id="Fill-21" fill="#16110D"></path>
                <path d="M23.0766667,71.9559944 C23.5233333,72.2105222 23.5233333,72.6237167 23.0766667,72.8798972 C22.6316667,73.134425 21.91,73.134425 21.4633333,72.8798972 C21.0183333,72.6237167 21.0183333,72.2105222 21.4633333,71.9559944 C21.91,71.7014667 22.6316667,71.7014667 23.0766667,71.9559944" id="Fill-23" fill="#16110D"></path>
                <path d="M27.2953333,69.5412861 C27.742,69.7958139 27.742,70.2090083 27.2953333,70.4651889 C26.8486667,70.7197167 26.1286667,70.7197167 25.682,70.4651889 C25.237,70.2090083 25.237,69.7958139 25.682,69.5412861 C26.1286667,69.2851056 26.8503333,69.2851056 27.2953333,69.5412861" id="Fill-25" fill="#16110D"></path>
                <path d="M31.5141667,67.1250903 C31.9608333,67.3796181 31.9608333,67.7928125 31.5141667,68.0489931 C31.0675,68.3051736 30.3475,68.3051736 29.9008333,68.0489931 C29.4558333,67.7928125 29.4558333,67.3796181 29.9008333,67.1250903 C30.3475,66.8705625 31.0675,66.8705625 31.5141667,67.1250903" id="Fill-27" fill="#16110D"></path>
                <path d="M35.7328333,64.7105472 C36.1795,64.965075 36.1795,65.3782694 35.7328333,65.63445 C35.2861667,65.8889778 34.5661667,65.8889778 34.1195,65.63445 C33.6745,65.3782694 33.6745,64.965075 34.1195,64.7105472 C34.5661667,64.4560194 35.2861667,64.4560194 35.7328333,64.7105472" id="Fill-29" fill="#16110D"></path>
                <path d="M39.9516667,62.2943514 C40.3983333,62.5488792 40.3983333,62.9637264 39.9516667,63.2199069 C39.505,63.4744347 38.7833333,63.4744347 38.3383333,63.2199069 C37.8933333,62.9637264 37.8933333,62.5488792 38.3383333,62.2943514 C38.7833333,62.0398236 39.505,62.0398236 39.9516667,62.2943514" id="Fill-31" fill="#16110D"></path>
                <path d="M44.1703333,59.8796431 C44.617,60.1341708 44.617,60.5473653 44.1703333,60.8035458 C43.7236667,61.0580736 43.002,61.0580736 42.557,60.8035458 C42.112,60.5473653 42.112,60.1341708 42.557,59.8796431 C43.002,59.6251153 43.7236667,59.6251153 44.1703333,59.8796431" id="Fill-33" fill="#16110D"></path>
                <path d="M48.3891667,57.4634472 C48.8358333,57.717975 48.8358333,58.1328222 48.3891667,58.3890028 C47.9425,58.6435306 47.2208333,58.6435306 46.7741667,58.3890028 C46.3308333,58.1328222 46.3308333,57.717975 46.7741667,57.4634472 C47.2208333,57.2089194 47.9425,57.2089194 48.3891667,57.4634472" id="Fill-35" fill="#16110D"></path>
                <path d="M10.422,74.3705375 C10.867,74.6267181 10.867,75.0399125 10.422,75.2960931 C9.97533333,75.5506208 9.25366667,75.5506208 8.807,75.2960931 C8.36366667,75.0399125 8.36366667,74.6267181 8.807,74.3705375 C9.25366667,74.1160097 9.97533333,74.1160097 10.422,74.3705375" id="Fill-37" fill="#16110D"></path>
                <path d="M14.6408333,71.9559944 C15.0858333,72.2105222 15.0858333,72.6237167 14.6408333,72.8798972 C14.1941667,73.134425 13.4725,73.134425 13.0258333,72.8798972 C12.5808333,72.6237167 12.5808333,72.2105222 13.0258333,71.9559944 C13.4725,71.7014667 14.1941667,71.7014667 14.6408333,71.9559944" id="Fill-39" fill="#16110D"></path>
                <path d="M18.8578333,69.5412861 C19.3045,69.7958139 19.3045,70.2090083 18.8578333,70.4651889 C18.4128333,70.7197167 17.6911667,70.7197167 17.2445,70.4651889 C16.7995,70.2090083 16.7995,69.7958139 17.2445,69.5412861 C17.6911667,69.2867583 18.4128333,69.2867583 18.8578333,69.5412861" id="Fill-41" fill="#16110D"></path>
                <path d="M23.0766667,67.1250903 C23.5233333,67.3796181 23.5233333,67.7928125 23.0766667,68.0489931 C22.6316667,68.3051736 21.91,68.3051736 21.4633333,68.0489931 C21.0183333,67.7928125 21.0183333,67.3796181 21.4633333,67.1250903 C21.91,66.8705625 22.6316667,66.8705625 23.0766667,67.1250903" id="Fill-43" fill="#16110D"></path>
                <path d="M27.2953333,64.7105472 C27.742,64.965075 27.742,65.3782694 27.2953333,65.63445 C26.8503333,65.8889778 26.1286667,65.8889778 25.682,65.63445 C25.237,65.3782694 25.237,64.965075 25.682,64.7105472 C26.1286667,64.4560194 26.8503333,64.4560194 27.2953333,64.7105472" id="Fill-45" fill="#16110D"></path>
                <path d="M31.5141667,62.2943514 C31.9608333,62.5488792 31.9608333,62.9637264 31.5141667,63.2199069 C31.0675,63.4744347 30.3475,63.4744347 29.9008333,63.2199069 C29.4558333,62.9637264 29.4558333,62.5488792 29.9008333,62.2943514 C30.3475,62.0398236 31.0675,62.0398236 31.5141667,62.2943514" id="Fill-47" fill="#16110D"></path>
                <path d="M35.7328333,59.8796431 C36.1795,60.1341708 36.1795,60.5473653 35.7328333,60.8035458 C35.2861667,61.0580736 34.5661667,61.0580736 34.1195,60.8035458 C33.6745,60.5473653 33.6745,60.1341708 34.1195,59.8796431 C34.5661667,59.6251153 35.2861667,59.6251153 35.7328333,59.8796431" id="Fill-49" fill="#16110D"></path>
                <path d="M39.9516667,57.4634472 C40.3983333,57.717975 40.3983333,58.1328222 39.9516667,58.3890028 C39.505,58.6435306 38.7833333,58.6435306 38.3383333,58.3890028 C37.8933333,58.1328222 37.8933333,57.717975 38.3383333,57.4634472 C38.7833333,57.2089194 39.505,57.2089194 39.9516667,57.4634472" id="Fill-51" fill="#16110D"></path>
                <path d="M44.1703333,55.0489042 C44.617,55.3034319 44.617,55.7166264 44.1703333,55.9728069 C43.7236667,56.2273347 43.002,56.2273347 42.557,55.9728069 C42.112,55.7166264 42.112,55.3034319 42.557,55.0489042 C43.002,54.7943764 43.7236667,54.7943764 44.1703333,55.0489042" id="Fill-53" fill="#16110D"></path>
                <path d="M6.20333333,71.9559944 C6.64833333,72.2105222 6.64833333,72.6237167 6.20333333,72.8798972 C5.75666667,73.134425 5.035,73.134425 4.58833333,72.8798972 C4.145,72.6237167 4.145,72.2105222 4.58833333,71.9559944 C5.035,71.7014667 5.75666667,71.7014667 6.20333333,71.9559944" id="Fill-55" fill="#16110D"></path>
                <path d="M10.422,69.5412861 C10.867,69.7958139 10.867,70.2090083 10.422,70.4651889 C9.97533333,70.7197167 9.25366667,70.7197167 8.807,70.4651889 C8.36366667,70.2090083 8.36366667,69.7958139 8.807,69.5412861 C9.25366667,69.2867583 9.97533333,69.2867583 10.422,69.5412861" id="Fill-57" fill="#16110D"></path>
                <path d="M14.6408333,67.1250903 C15.0858333,67.3796181 15.0858333,67.7928125 14.6408333,68.0489931 C14.1941667,68.3051736 13.4725,68.3051736 13.0258333,68.0489931 C12.5808333,67.7928125 12.5808333,67.3796181 13.0258333,67.1250903 C13.4725,66.8705625 14.1941667,66.8705625 14.6408333,67.1250903" id="Fill-59" fill="#16110D"></path>
                <path d="M18.8578333,64.7105472 C19.3045,64.965075 19.3045,65.3782694 18.8578333,65.63445 C18.4128333,65.8889778 17.6911667,65.8889778 17.2445,65.63445 C16.7995,65.3782694 16.7995,64.965075 17.2445,64.7105472 C17.6911667,64.4560194 18.4128333,64.4560194 18.8578333,64.7105472" id="Fill-61" fill="#16110D"></path>
                <path d="M23.0766667,62.2943514 C23.5233333,62.5488792 23.5233333,62.9637264 23.0766667,63.2199069 C22.6316667,63.4744347 21.91,63.4744347 21.4633333,63.2199069 C21.0183333,62.9637264 21.0183333,62.5488792 21.4633333,62.2943514 C21.91,62.0398236 22.6316667,62.0398236 23.0766667,62.2943514" id="Fill-63" fill="#16110D"></path>
                <path d="M27.2953333,59.8796431 C27.742,60.1341708 27.742,60.5473653 27.2953333,60.8035458 C26.8503333,61.0580736 26.1286667,61.0580736 25.682,60.8035458 C25.237,60.5473653 25.237,60.1341708 25.682,59.8796431 C26.1286667,59.6251153 26.8503333,59.6251153 27.2953333,59.8796431" id="Fill-65" fill="#16110D"></path>
                <path d="M31.5141667,57.4634472 C31.9608333,57.717975 31.9608333,58.1328222 31.5141667,58.3890028 C31.0675,58.6435306 30.3475,58.6435306 29.9008333,58.3890028 C29.4558333,58.1328222 29.4558333,57.717975 29.9008333,57.4634472 C30.3475,57.2089194 31.0675,57.2089194 31.5141667,57.4634472" id="Fill-67" fill="#16110D"></path>
                <path d="M35.7328333,55.0489042 C36.1795,55.3034319 36.1795,55.7166264 35.7328333,55.9728069 C35.2861667,56.2273347 34.5661667,56.2273347 34.1195,55.9728069 C33.6745,55.7166264 33.6745,55.3034319 34.1195,55.0489042 C34.5661667,54.7943764 35.2861667,54.7943764 35.7328333,55.0489042" id="Fill-69" fill="#16110D"></path>
                <path d="M39.9516667,52.6327083 C40.3983333,52.8888889 40.3983333,53.3020833 39.9516667,53.5582639 C39.505,53.8127917 38.7833333,53.8127917 38.3383333,53.5582639 C37.8933333,53.3020833 37.8933333,52.8888889 38.3383333,52.6327083 C38.7833333,52.3781806 39.505,52.3781806 39.9516667,52.6327083" id="Fill-71" fill="#16110D"></path>
                <path d="M1.9845,69.5412861 C2.43116667,69.7958139 2.43116667,70.2090083 1.9845,70.4651889 C1.53783333,70.7197167 0.816166667,70.7197167 0.3695,70.4651889 C-0.0738333333,70.2090083 -0.0738333333,69.7958139 0.3695,69.5412861 C0.816166667,69.2867583 1.53783333,69.2867583 1.9845,69.5412861" id="Fill-73" fill="#16110D"></path>
                <path d="M6.20333333,67.1250903 C6.64833333,67.3796181 6.64833333,67.7928125 6.20333333,68.0489931 C5.75666667,68.3051736 5.035,68.3051736 4.58833333,68.0489931 C4.145,67.7928125 4.145,67.3796181 4.58833333,67.1250903 C5.035,66.8705625 5.75666667,66.8705625 6.20333333,67.1250903" id="Fill-75" fill="#16110D"></path>
                <path d="M10.422,64.7105472 C10.867,64.965075 10.867,65.3782694 10.422,65.63445 C9.97533333,65.8889778 9.25366667,65.8889778 8.807,65.63445 C8.36366667,65.3782694 8.36366667,64.965075 8.807,64.7105472 C9.25366667,64.4560194 9.97533333,64.4560194 10.422,64.7105472" id="Fill-77" fill="#16110D"></path>
                <path d="M14.6408333,62.2943514 C15.0858333,62.5488792 15.0858333,62.9637264 14.6408333,63.2199069 C14.1941667,63.4744347 13.4725,63.4744347 13.0258333,63.2199069 C12.5808333,62.9637264 12.5808333,62.5488792 13.0258333,62.2943514 C13.4725,62.0398236 14.1941667,62.0398236 14.6408333,62.2943514" id="Fill-79" fill="#16110D"></path>
                <path d="M18.8578333,59.8796431 C19.3045,60.1341708 19.3045,60.5473653 18.8578333,60.8035458 C18.4128333,61.0580736 17.6911667,61.0580736 17.2445,60.8035458 C16.7995,60.5473653 16.7995,60.1341708 17.2445,59.8796431 C17.6911667,59.6251153 18.4128333,59.6251153 18.8578333,59.8796431" id="Fill-81" fill="#16110D"></path>
                <path d="M23.0766667,57.4634472 C23.5233333,57.717975 23.5233333,58.1328222 23.0766667,58.3890028 C22.6316667,58.6435306 21.91,58.6435306 21.4633333,58.3890028 C21.0183333,58.1328222 21.0183333,57.717975 21.4633333,57.4634472 C21.91,57.2089194 22.6316667,57.2089194 23.0766667,57.4634472" id="Fill-83" fill="#16110D"></path>
                <path d="M27.2953333,55.0489042 C27.742,55.3034319 27.742,55.7166264 27.2953333,55.9728069 C26.8503333,56.2273347 26.1286667,56.2273347 25.682,55.9728069 C25.237,55.7166264 25.237,55.3034319 25.682,55.0489042 C26.1286667,54.7943764 26.8503333,54.7943764 27.2953333,55.0489042" id="Fill-85" fill="#16110D"></path>
                <path d="M31.5141667,52.6327083 C31.9608333,52.8888889 31.9608333,53.3020833 31.5141667,53.5582639 C31.0675,53.8127917 30.3475,53.8127917 29.9008333,53.5582639 C29.4558333,53.3020833 29.4558333,52.8888889 29.9008333,52.6327083 C30.3475,52.3781806 31.0675,52.3781806 31.5141667,52.6327083" id="Fill-87" fill="#16110D"></path>
                <path d="M35.7328333,50.218 C36.1795,50.4725278 36.1795,50.8857222 35.7328333,51.1419028 C35.2861667,51.3964306 34.5661667,51.3964306 34.1195,51.1419028 C33.6745,50.8857222 33.6745,50.4725278 34.1195,50.218 C34.5661667,49.9634722 35.2861667,49.9634722 35.7328333,50.218" id="Fill-89" fill="#16110D"></path>
                <g id="Group-93" transform="translate(0.000000, 63.296761)">
                    <mask id="mask-2" fill="white">
                        <use xlink:href="#path-1"></use>
                    </mask>
                    <g id="Clip-92"></g>
                    <path d="M1.947,1.38800278 C2.39366667,1.64253056 2.39366667,2.055725 1.947,2.31190556 C1.502,2.56643333 0.780333333,2.56643333 0.333666667,2.31190556 C-0.111333333,2.055725 -0.111333333,1.64253056 0.333666667,1.38800278 C0.780333333,1.133475 1.502,1.133475 1.947,1.38800278" id="Fill-91" fill="#16110D" mask="url(#mask-2)"></path>
                </g>
                <path d="M4.55283333,62.2700556 C4.9995,62.013875 5.7195,62.013875 6.16616667,62.2700556 C6.61116667,62.5245833 6.61116667,62.9377778 6.16616667,63.1939583 C5.7195,63.4484861 4.9995,63.4484861 4.55283333,63.1939583 C4.10616667,62.9377778 4.10616667,62.5245833 4.55283333,62.2700556 C4.9995,62.013875 4.10616667,62.5245833 4.55283333,62.2700556" id="Fill-94" fill="#16110D"></path>
                <path d="M10.3845,59.8538597 C10.8311667,60.1083875 10.8311667,60.5215819 10.3845,60.7777625 C9.93783333,61.0339431 9.21783333,61.0339431 8.77116667,60.7777625 C8.32616667,60.5215819 9.93783333,59.5993319 10.3845,59.8538597" id="Fill-96" fill="#16110D"></path>
                <path d="M14.6033333,57.4393167 C15.05,57.6938444 15.05,58.1070389 14.6033333,58.3632194 C14.1566667,58.6177472 13.435,58.6177472 12.99,58.3632194 C12.545,58.1070389 14.1566667,57.1847889 14.6033333,57.4393167" id="Fill-98" fill="#16110D"></path>
                <path d="M18.822,55.0229556 C19.2686667,55.2774833 19.2686667,55.6906778 18.822,55.9485111 C18.3753333,56.2030389 17.6536667,56.2030389 17.2086667,55.9485111 C16.7636667,55.6906778 18.3753333,54.7684278 18.822,55.0229556" id="Fill-100" fill="#16110D"></path>
                <path d="M23.0408333,52.6084125 C23.4875,52.8629403 23.4875,53.2761347 23.0408333,53.5323153 C22.5941667,53.7868431 21.8725,53.7868431 21.4275,53.5323153 C20.9825,53.2761347 22.5941667,52.3538847 23.0408333,52.6084125" id="Fill-102" fill="#16110D"></path>
                <path d="M27.2595,50.1922167 C27.7061667,50.4467444 27.7061667,50.8615917 27.2595,51.1177722 C26.8128333,51.3723 26.0911667,51.3723 25.6445,51.1177722 C25.2011667,50.8615917 26.8128333,49.9376889 27.2595,50.1922167" id="Fill-104" fill="#16110D"></path>
                <path d="M31.4783333,47.7776736 C31.9233333,48.0322014 31.9233333,48.4453958 31.4783333,48.7015764 C31.0316667,48.9561042 30.31,48.9561042 29.8633333,48.7015764 C29.42,48.4453958 31.0316667,47.5231458 31.4783333,47.7776736" id="Fill-106" fill="#16110D"></path>
                <g id="Group-110" transform="translate(28.333333, 114.532872)">
                    <mask id="mask-4" fill="white">
                        <use xlink:href="#path-3"></use>
                    </mask>
                    <g id="Clip-109"></g>
                    <path d="M3.38266667,0.537318056 C3.82933333,0.791845833 3.82933333,1.20669306 3.38266667,1.46287361 C2.936,1.71740139 2.21433333,1.71740139 1.76933333,1.46287361 C1.32433333,1.20669306 1.32433333,0.791845833 1.76933333,0.537318056 C2.21433333,0.282790278 2.936,0.282790278 3.38266667,0.537318056" id="Fill-108" fill="#16110D" mask="url(#mask-4)"></path>
                </g>
                <path d="M35.9346667,112.655647 C36.3813333,112.910175 36.3813333,113.323369 35.9346667,113.57955 C35.488,113.834078 34.7663333,113.834078 34.3213333,113.57955 C33.8763333,113.323369 33.8763333,112.910175 34.3213333,112.655647 C34.7663333,112.401119 35.488,112.401119 35.9346667,112.655647" id="Fill-111" fill="#16110D"></path>
                <path d="M40.1535,110.239451 C40.6001667,110.493979 40.6001667,110.908826 40.1535,111.165007 C39.7068333,111.419535 38.9851667,111.419535 38.5385,111.165007 C38.0951667,110.908826 38.0951667,110.493979 38.5385,110.239451 C38.9851667,109.984924 39.7068333,109.984924 40.1535,110.239451" id="Fill-113" fill="#16110D"></path>
                <path d="M44.3721667,107.824743 C44.8171667,108.079271 44.8171667,108.492465 44.3721667,108.748646 C43.9255,109.003174 43.2038333,109.003174 42.7571667,108.748646 C42.3138333,108.492465 42.3138333,108.079271 42.7571667,107.824743 C43.2038333,107.570215 43.9255,107.570215 44.3721667,107.824743" id="Fill-115" fill="#16110D"></path>
                <path d="M48.591,105.408547 C49.036,105.663075 49.036,106.077922 48.591,106.334103 C48.1443333,106.588631 47.4226667,106.588631 46.976,106.334103 C46.5326667,106.077922 46.5326667,105.663075 46.976,105.408547 C47.4226667,105.154019 48.1443333,105.154019 48.591,105.408547" id="Fill-117" fill="#16110D"></path>
                <path d="M52.8096667,102.994004 C53.2546667,103.248532 53.2546667,103.661726 52.8096667,103.917907 C52.363,104.172435 51.6413333,104.172435 51.1946667,103.917907 C50.7496667,103.661726 50.7496667,103.248532 51.1946667,102.994004 C51.6413333,102.739476 52.363,102.739476 52.8096667,102.994004" id="Fill-119" fill="#16110D"></path>
                <path d="M57.0268333,100.577643 C57.4735,100.833824 57.4735,101.247018 57.0268333,101.503199 C56.5818333,101.757726 55.8601667,101.757726 55.4135,101.503199 C54.9685,101.247018 54.9685,100.833824 55.4135,100.577643 C55.8601667,100.323115 56.5818333,100.323115 57.0268333,100.577643" id="Fill-121" fill="#16110D"></path>
                <path d="M61.2455,98.1631 C61.6921667,98.4176278 61.6921667,98.8308222 61.2455,99.0870028 C60.8005,99.3415306 60.0788333,99.3415306 59.6321667,99.0870028 C59.1871667,98.8308222 59.1871667,98.4176278 59.6321667,98.1631 C60.0788333,97.9085722 60.8005,97.9085722 61.2455,98.1631" id="Fill-123" fill="#16110D"></path>
                <path d="M65.4643333,95.7485569 C65.911,96.0030847 65.911,96.4162792 65.4643333,96.6724597 C65.0193333,96.9269875 64.2976667,96.9269875 63.851,96.6724597 C63.406,96.4162792 63.406,96.0030847 63.851,95.7485569 C64.2976667,95.4940292 65.0193333,95.4940292 65.4643333,95.7485569" id="Fill-125" fill="#16110D"></path>
                <path d="M69.683,93.3323611 C70.1296667,93.5868889 70.1296667,94.0000833 69.683,94.2579167 C69.2363333,94.5124444 68.5163333,94.5124444 68.0696667,94.2579167 C67.6246667,94.0000833 67.6246667,93.5868889 68.0696667,93.3323611 C68.5163333,93.0778333 69.2363333,93.0778333 69.683,93.3323611" id="Fill-127" fill="#16110D"></path>
                <path d="M73.9018333,90.9176528 C74.3485,91.1721806 74.3485,91.585375 73.9018333,91.8415556 C73.4551667,92.0960833 72.7351667,92.0960833 72.2885,91.8415556 C71.8435,91.585375 71.8435,91.1721806 72.2885,90.9176528 C72.7351667,90.663125 73.4551667,90.663125 73.9018333,90.9176528" id="Fill-129" fill="#16110D"></path>
                <path d="M78.1205,88.5014569 C78.5671667,88.7559847 78.5671667,89.1708319 78.1205,89.4270125 C77.6738333,89.6815403 76.9521667,89.6815403 76.5071667,89.4270125 C76.0621667,89.1708319 76.0621667,88.7559847 76.5071667,88.5014569 C76.9521667,88.2469292 77.6738333,88.2469292 78.1205,88.5014569" id="Fill-131" fill="#16110D"></path>
                <path d="M82.3393333,86.0869139 C82.786,86.3414417 82.786,86.7546361 82.3393333,87.0108167 C81.8926667,87.2653444 81.171,87.2653444 80.726,87.0108167 C80.281,86.7546361 80.281,86.3414417 80.726,86.0869139 C81.171,85.8323861 81.8926667,85.8323861 82.3393333,86.0869139" id="Fill-133" fill="#16110D"></path>
                <path d="M86.558,83.6707181 C87.0046667,83.9252458 87.0046667,84.3400931 86.558,84.5962736 C86.1113333,84.8508014 85.3896667,84.8508014 84.943,84.5962736 C84.4996667,84.3400931 84.4996667,83.9252458 84.943,83.6707181 C85.3896667,83.4161903 86.1113333,83.4161903 86.558,83.6707181" id="Fill-135" fill="#16110D"></path>
                <g id="Group-139" transform="translate(20.000000, 114.532872)">
                    <mask id="mask-6" fill="white">
                        <use xlink:href="#path-5"></use>
                    </mask>
                    <g id="Clip-138"></g>
                    <path d="M3.2785,0.537318056 C3.72516667,0.791845833 3.72516667,1.20669306 3.2785,1.46287361 C2.83183333,1.71740139 2.11016667,1.71740139 1.66516667,1.46287361 C1.22016667,1.20669306 1.22016667,0.791845833 1.66516667,0.537318056 C2.11016667,0.282790278 2.83183333,0.282790278 3.2785,0.537318056" id="Fill-137" fill="#16110D" mask="url(#mask-6)"></path>
                </g>
                <path d="M27.4971667,112.655647 C27.9438333,112.910175 27.9438333,113.323369 27.4971667,113.57955 C27.0505,113.834078 26.3288333,113.834078 25.8838333,113.57955 C25.4388333,113.323369 25.4388333,112.910175 25.8838333,112.655647 C26.3288333,112.401119 27.0505,112.401119 27.4971667,112.655647" id="Fill-140" fill="#16110D"></path>
                <path d="M31.716,110.239451 C32.1626667,110.493979 32.1626667,110.908826 31.716,111.165007 C31.2693333,111.419535 30.5476667,111.419535 30.1026667,111.165007 C29.6576667,110.908826 29.6576667,110.493979 30.1026667,110.239451 C30.5476667,109.984924 31.2693333,109.984924 31.716,110.239451" id="Fill-142" fill="#16110D"></path>
                <path d="M35.9346667,107.824743 C36.3813333,108.079271 36.3813333,108.492465 35.9346667,108.748646 C35.488,109.003174 34.7663333,109.003174 34.3213333,108.748646 C33.8763333,108.492465 33.8763333,108.079271 34.3213333,107.824743 C34.7663333,107.570215 35.488,107.570215 35.9346667,107.824743" id="Fill-144" fill="#16110D"></path>
                <path d="M40.1535,105.408547 C40.6001667,105.663075 40.6001667,106.077922 40.1535,106.334103 C39.7068333,106.588631 38.9851667,106.588631 38.5385,106.334103 C38.0951667,106.077922 38.0951667,105.663075 38.5385,105.408547 C38.9851667,105.154019 39.7068333,105.154019 40.1535,105.408547" id="Fill-146" fill="#16110D"></path>
                <path d="M44.3721667,102.994004 C44.8171667,103.248532 44.8171667,103.661726 44.3721667,103.917907 C43.9255,104.172435 43.2038333,104.172435 42.7571667,103.917907 C42.3138333,103.661726 42.3138333,103.248532 42.7571667,102.994004 C43.2038333,102.739476 43.9255,102.739476 44.3721667,102.994004" id="Fill-148" fill="#16110D"></path>
                <path d="M48.591,100.579296 C49.036,100.833824 49.036,101.247018 48.591,101.503199 C48.1443333,101.757726 47.4226667,101.757726 46.976,101.503199 C46.5326667,101.247018 46.5326667,100.833824 46.976,100.579296 C47.4226667,100.323115 48.1443333,100.323115 48.591,100.579296" id="Fill-150" fill="#16110D"></path>
                <path d="M52.8096667,98.1631 C53.2546667,98.4176278 53.2546667,98.8308222 52.8096667,99.0870028 C52.363,99.3431833 51.6413333,99.3431833 51.1946667,99.0870028 C50.7496667,98.8308222 50.7496667,98.4176278 51.1946667,98.1631 C51.6413333,97.9085722 52.363,97.9085722 52.8096667,98.1631" id="Fill-152" fill="#16110D"></path>
                <path d="M57.0268333,95.7485569 C57.4735,96.0030847 57.4735,96.4162792 57.0268333,96.6724597 C56.5818333,96.9269875 55.8601667,96.9269875 55.4135,96.6724597 C54.9685,96.4162792 54.9685,96.0030847 55.4135,95.7485569 C55.8601667,95.4940292 56.5818333,95.4940292 57.0268333,95.7485569" id="Fill-154" fill="#16110D"></path>
                <path d="M61.2455,93.3323611 C61.6921667,93.5868889 61.6921667,94.0000833 61.2455,94.2579167 C60.8005,94.5124444 60.0788333,94.5124444 59.6321667,94.2579167 C59.1871667,94.0000833 59.1871667,93.5868889 59.6321667,93.3323611 C60.0788333,93.0778333 60.8005,93.0778333 61.2455,93.3323611" id="Fill-156" fill="#16110D"></path>
                <path d="M65.4643333,90.9176528 C65.911,91.1721806 65.911,91.585375 65.4643333,91.8415556 C65.0193333,92.0960833 64.2976667,92.0960833 63.851,91.8415556 C63.406,91.585375 63.406,91.1721806 63.851,90.9176528 C64.2976667,90.663125 65.0193333,90.663125 65.4643333,90.9176528" id="Fill-158" fill="#16110D"></path>
                <path d="M69.683,88.5014569 C70.1296667,88.7559847 70.1296667,89.1708319 69.683,89.4270125 C69.2363333,89.6815403 68.5163333,89.6815403 68.0696667,89.4270125 C67.6246667,89.1708319 67.6246667,88.7559847 68.0696667,88.5014569 C68.5163333,88.2469292 69.238,88.2469292 69.683,88.5014569" id="Fill-160" fill="#16110D"></path>
                <path d="M73.9018333,86.0869139 C74.3485,86.3414417 74.3485,86.7546361 73.9018333,87.0108167 C73.4551667,87.2653444 72.7351667,87.2653444 72.2885,87.0108167 C71.8435,86.7546361 71.8435,86.3414417 72.2885,86.0869139 C72.7351667,85.8323861 73.4551667,85.8323861 73.9018333,86.0869139" id="Fill-162" fill="#16110D"></path>
                <path d="M78.1205,83.6707181 C78.5671667,83.9252458 78.5671667,84.3400931 78.1205,84.5962736 C77.6738333,84.8508014 76.9538333,84.8508014 76.5071667,84.5962736 C76.0621667,84.3400931 76.0621667,83.9252458 76.5071667,83.6707181 C76.9538333,83.4161903 77.6738333,83.4161903 78.1205,83.6707181" id="Fill-164" fill="#16110D"></path>
                <path d="M82.3393333,81.2560097 C82.786,81.5105375 82.786,81.9237319 82.3393333,82.1799125 C81.8926667,82.4344403 81.171,82.4344403 80.726,82.1799125 C80.281,81.9237319 80.281,81.5105375 80.726,81.2560097 C81.171,81.0014819 81.8926667,81.0014819 82.3393333,81.2560097" id="Fill-166" fill="#16110D"></path>
                <path d="M86.558,78.8414667 C87.0046667,79.0959944 87.0046667,79.5091889 86.558,79.7653694 C86.1113333,80.0198972 85.3896667,80.0198972 84.9446667,79.7653694 C84.4996667,79.5091889 84.4996667,79.0959944 84.9446667,78.8414667 C85.3896667,78.5852861 86.1113333,78.5852861 86.558,78.8414667" id="Fill-168" fill="#16110D"></path>
                <path d="M19.0596667,112.655647 C19.5063333,112.910175 19.5063333,113.323369 19.0596667,113.57955 C18.613,113.834078 17.893,113.834078 17.4463333,113.57955 C17.0013333,113.323369 17.0013333,112.910175 17.4463333,112.655647 C17.893,112.401119 18.613,112.401119 19.0596667,112.655647" id="Fill-170" fill="#16110D"></path>
                <path d="M23.2785,110.239451 C23.7251667,110.493979 23.7251667,110.908826 23.2785,111.165007 C22.8318333,111.419535 22.1118333,111.419535 21.6651667,111.165007 C21.2201667,110.908826 21.2201667,110.493979 21.6651667,110.239451 C22.1118333,109.984924 22.8318333,109.984924 23.2785,110.239451" id="Fill-172" fill="#16110D"></path>
                <path d="M27.4971667,107.824743 C27.9438333,108.079271 27.9438333,108.492465 27.4971667,108.748646 C27.0505,109.003174 26.3288333,109.003174 25.8838333,108.748646 C25.4388333,108.492465 25.4388333,108.079271 25.8838333,107.824743 C26.3288333,107.570215 27.0505,107.570215 27.4971667,107.824743" id="Fill-174" fill="#16110D"></path>
                <path d="M31.716,105.408547 C32.1626667,105.664728 32.1626667,106.077922 31.716,106.334103 C31.2693333,106.588631 30.5476667,106.588631 30.1026667,106.334103 C29.6576667,106.077922 29.6576667,105.664728 30.1026667,105.408547 C30.5476667,105.154019 31.2693333,105.154019 31.716,105.408547" id="Fill-176" fill="#16110D"></path>
                <path d="M35.9346667,102.994004 C36.3813333,103.248532 36.3813333,103.661726 35.9346667,103.917907 C35.488,104.172435 34.7663333,104.172435 34.3213333,103.917907 C33.8763333,103.661726 33.8763333,103.248532 34.3213333,102.994004 C34.7663333,102.739476 35.488,102.739476 35.9346667,102.994004" id="Fill-178" fill="#16110D"></path>
                <path d="M40.1535,100.579296 C40.6001667,100.833824 40.6001667,101.247018 40.1535,101.503199 C39.7068333,101.757726 38.9851667,101.757726 38.5385,101.503199 C38.0951667,101.247018 38.0951667,100.833824 38.5385,100.579296 C38.9851667,100.323115 39.7068333,100.323115 40.1535,100.579296" id="Fill-180" fill="#16110D"></path>
                <path d="M44.3721667,98.1631 C44.8171667,98.4176278 44.8171667,98.8308222 44.3721667,99.0870028 C43.9255,99.3431833 43.2038333,99.3431833 42.7571667,99.0870028 C42.3138333,98.8308222 42.3138333,98.4176278 42.7571667,98.1631 C43.2038333,97.9085722 43.9255,97.9085722 44.3721667,98.1631" id="Fill-182" fill="#16110D"></path>
                <path d="M48.591,95.7485569 C49.036,96.0030847 49.036,96.4162792 48.591,96.6724597 C48.1443333,96.9269875 47.4226667,96.9269875 46.976,96.6724597 C46.5326667,96.4162792 46.5326667,96.0030847 46.976,95.7485569 C47.4226667,95.4940292 48.1443333,95.4940292 48.591,95.7485569" id="Fill-184" fill="#16110D"></path>
                <path d="M52.8096667,93.3323611 C53.2546667,93.5868889 53.2546667,94.0000833 52.8096667,94.2579167 C52.363,94.5124444 51.6413333,94.5124444 51.1946667,94.2579167 C50.7496667,94.0000833 50.7496667,93.5868889 51.1946667,93.3323611 C51.6413333,93.0778333 52.363,93.0778333 52.8096667,93.3323611" id="Fill-186" fill="#16110D"></path>
                <path d="M57.0268333,90.9176528 C57.4735,91.1721806 57.4735,91.585375 57.0268333,91.8415556 C56.5818333,92.0960833 55.8601667,92.0960833 55.4135,91.8415556 C54.9685,91.585375 54.9685,91.1721806 55.4135,90.9176528 C55.8601667,90.663125 56.5818333,90.663125 57.0268333,90.9176528" id="Fill-188" fill="#16110D"></path>
                <path d="M61.2455,88.5014569 C61.6921667,88.7559847 61.6921667,89.1708319 61.2455,89.4270125 C60.8005,89.6815403 60.0788333,89.6815403 59.6321667,89.4270125 C59.1871667,89.1708319 59.1871667,88.7559847 59.6321667,88.5014569 C60.0788333,88.2469292 60.8005,88.2469292 61.2455,88.5014569" id="Fill-190" fill="#16110D"></path>
                <path d="M65.4643333,86.0869139 C65.911,86.3414417 65.911,86.7546361 65.4643333,87.0108167 C65.0193333,87.2653444 64.2976667,87.2653444 63.851,87.0108167 C63.406,86.7546361 63.406,86.3414417 63.851,86.0869139 C64.2976667,85.8323861 65.0193333,85.8323861 65.4643333,86.0869139" id="Fill-192" fill="#16110D"></path>
                <path d="M69.683,83.6707181 C70.1296667,83.9252458 70.1296667,84.3400931 69.683,84.5962736 C69.238,84.8508014 68.5163333,84.8508014 68.0696667,84.5962736 C67.6246667,84.3400931 67.6246667,83.9252458 68.0696667,83.6707181 C68.5163333,83.4161903 69.238,83.4161903 69.683,83.6707181" id="Fill-194" fill="#16110D"></path>
                <path d="M73.9018333,81.2560097 C74.3485,81.5105375 74.3485,81.9237319 73.9018333,82.1799125 C73.4551667,82.4344403 72.7351667,82.4344403 72.2885,82.1799125 C71.8435,81.9237319 71.8435,81.5105375 72.2885,81.2560097 C72.7351667,81.0014819 73.4551667,81.0014819 73.9018333,81.2560097" id="Fill-196" fill="#16110D"></path>
                <path d="M78.1205,78.8414667 C78.5671667,79.0959944 78.5671667,79.5091889 78.1205,79.7653694 C77.6738333,80.0198972 76.9538333,80.0198972 76.5071667,79.7653694 C76.0621667,79.5091889 76.0621667,79.0959944 76.5071667,78.8414667 C76.9538333,78.5852861 77.6738333,78.5852861 78.1205,78.8414667" id="Fill-198" fill="#16110D"></path>
                <path d="M82.3393333,76.4252708 C82.786,76.6797986 82.786,77.0929931 82.3393333,77.3491736 C81.8926667,77.6037014 81.171,77.6037014 80.726,77.3491736 C80.281,77.0929931 80.281,76.6797986 80.726,76.4252708 C81.171,76.1707431 81.8926667,76.1707431 82.3393333,76.4252708" id="Fill-200" fill="#16110D"></path>
                <path d="M14.841,110.239451 C15.2876667,110.493979 15.2876667,110.908826 14.841,111.165007 C14.396,111.419535 13.6743333,111.419535 13.2276667,111.165007 C12.7826667,110.908826 12.7826667,110.493979 13.2276667,110.239451 C13.6743333,109.984924 14.396,109.984924 14.841,110.239451" id="Fill-202" fill="#16110D"></path>
                <path d="M19.0596667,107.824743 C19.5063333,108.079271 19.5063333,108.492465 19.0596667,108.748646 C18.613,109.003174 17.893,109.003174 17.4463333,108.748646 C17.0013333,108.492465 17.0013333,108.079271 17.4463333,107.824743 C17.893,107.570215 18.6146667,107.570215 19.0596667,107.824743" id="Fill-204" fill="#16110D"></path>
                <path d="M23.2785,105.408547 C23.7251667,105.664728 23.7251667,106.077922 23.2785,106.334103 C22.8318333,106.588631 22.1118333,106.588631 21.6651667,106.334103 C21.2201667,106.077922 21.2201667,105.664728 21.6651667,105.408547 C22.1118333,105.154019 22.8318333,105.154019 23.2785,105.408547" id="Fill-206" fill="#16110D"></path>
                <path d="M27.4971667,102.994004 C27.9438333,103.248532 27.9438333,103.661726 27.4971667,103.917907 C27.0505,104.172435 26.3305,104.172435 25.8838333,103.917907 C25.4388333,103.661726 25.4388333,103.248532 25.8838333,102.994004 C26.3305,102.739476 27.0505,102.739476 27.4971667,102.994004" id="Fill-208" fill="#16110D"></path>
                <path d="M31.716,100.579296 C32.1626667,100.833824 32.1626667,101.247018 31.716,101.503199 C31.2693333,101.757726 30.5476667,101.757726 30.1026667,101.503199 C29.6576667,101.247018 29.6576667,100.833824 30.1026667,100.579296 C30.5476667,100.323115 31.2693333,100.323115 31.716,100.579296" id="Fill-210" fill="#16110D"></path>
                <path d="M35.9346667,98.1631 C36.3813333,98.4176278 36.3813333,98.8308222 35.9346667,99.0870028 C35.488,99.3431833 34.7663333,99.3431833 34.3213333,99.0870028 C33.8763333,98.8308222 33.8763333,98.4176278 34.3213333,98.1631 C34.7663333,97.9085722 35.488,97.9085722 35.9346667,98.1631" id="Fill-212" fill="#16110D"></path>
                <path d="M40.1535,95.7485569 C40.6001667,96.0030847 40.6001667,96.4162792 40.1535,96.6724597 C39.7068333,96.9269875 38.9851667,96.9269875 38.5385,96.6724597 C38.0951667,96.4162792 38.0951667,96.0030847 38.5385,95.7485569 C38.9851667,95.4940292 39.7068333,95.4940292 40.1535,95.7485569" id="Fill-214" fill="#16110D"></path>
                <path d="M44.3721667,93.3323611 C44.8171667,93.5868889 44.8171667,94.0000833 44.3721667,94.2579167 C43.9255,94.5124444 43.2038333,94.5124444 42.7571667,94.2579167 C42.3138333,94.0000833 42.3138333,93.5868889 42.7571667,93.3323611 C43.2038333,93.0778333 43.9255,93.0778333 44.3721667,93.3323611" id="Fill-216" fill="#16110D"></path>
                <path d="M48.591,90.9176528 C49.036,91.1721806 49.036,91.585375 48.591,91.8415556 C48.1443333,92.0960833 47.4226667,92.0960833 46.976,91.8415556 C46.5326667,91.585375 46.5326667,91.1721806 46.976,90.9176528 C47.4226667,90.663125 48.1443333,90.663125 48.591,90.9176528" id="Fill-218" fill="#16110D"></path>
                <path d="M52.8096667,88.5014569 C53.2546667,88.7559847 53.2546667,89.1708319 52.8096667,89.4270125 C52.363,89.6815403 51.6413333,89.6815403 51.1946667,89.4270125 C50.7496667,89.1708319 50.7496667,88.7559847 51.1946667,88.5014569 C51.6413333,88.2469292 52.363,88.2469292 52.8096667,88.5014569" id="Fill-220" fill="#16110D"></path>
                <path d="M57.0268333,86.0869139 C57.4735,86.3414417 57.4735,86.7546361 57.0268333,87.0108167 C56.5818333,87.2653444 55.8601667,87.2653444 55.4135,87.0108167 C54.9685,86.7546361 54.9685,86.3414417 55.4135,86.0869139 C55.8601667,85.8323861 56.5818333,85.8323861 57.0268333,86.0869139" id="Fill-222" fill="#16110D"></path>
                <path d="M61.2455,83.6707181 C61.6921667,83.9252458 61.6921667,84.3400931 61.2455,84.5962736 C60.8005,84.8508014 60.0788333,84.8508014 59.6321667,84.5962736 C59.1871667,84.3400931 59.1871667,83.9252458 59.6321667,83.6707181 C60.0788333,83.4161903 60.8005,83.4161903 61.2455,83.6707181" id="Fill-224" fill="#16110D"></path>
                <path d="M65.4643333,81.2560097 C65.911,81.5105375 65.911,81.9237319 65.4643333,82.1799125 C65.0193333,82.4344403 64.2976667,82.4344403 63.851,82.1799125 C63.406,81.9237319 63.406,81.5105375 63.851,81.2560097 C64.2976667,81.0014819 65.0193333,81.0014819 65.4643333,81.2560097" id="Fill-226" fill="#16110D"></path>
                <path d="M69.683,78.8414667 C70.1296667,79.0959944 70.1296667,79.5091889 69.683,79.7653694 C69.238,80.0198972 68.5163333,80.0198972 68.0696667,79.7653694 C67.6246667,79.5091889 67.6246667,79.0959944 68.0696667,78.8414667 C68.5163333,78.5852861 69.238,78.5852861 69.683,78.8414667" id="Fill-228" fill="#16110D"></path>
                <path d="M73.9018333,76.4252708 C74.3485,76.6797986 74.3485,77.0929931 73.9018333,77.3491736 C73.4551667,77.6037014 72.7351667,77.6037014 72.2885,77.3491736 C71.8435,77.0929931 71.8435,76.6797986 72.2885,76.4252708 C72.7351667,76.1707431 73.4551667,76.1707431 73.9018333,76.4252708" id="Fill-230" fill="#16110D"></path>
                <path d="M78.1205,74.0105625 C78.5671667,74.2650903 78.5671667,74.6782847 78.1205,74.9344653 C77.6738333,75.1889931 76.9538333,75.1889931 76.5071667,74.9344653 C76.0621667,74.6782847 76.0621667,74.2650903 76.5071667,74.0105625 C76.9538333,73.7560347 77.6738333,73.7560347 78.1205,74.0105625" id="Fill-232" fill="#16110D"></path>
                <path d="M10.6221667,107.824743 C11.0688333,108.079271 11.0688333,108.492465 10.6221667,108.748646 C10.1771667,109.003174 9.4555,109.003174 9.00883333,108.748646 C8.56383333,108.492465 8.56383333,108.079271 9.00883333,107.824743 C9.4555,107.570215 10.1771667,107.570215 10.6221667,107.824743" id="Fill-234" fill="#16110D"></path>
                <path d="M14.841,105.408547 C15.2876667,105.664728 15.2876667,106.077922 14.841,106.334103 C14.396,106.588631 13.6743333,106.588631 13.2276667,106.334103 C12.7826667,106.077922 12.7826667,105.664728 13.2276667,105.408547 C13.6743333,105.154019 14.396,105.154019 14.841,105.408547" id="Fill-236" fill="#16110D"></path>
                <path d="M19.0596667,102.994004 C19.5063333,103.248532 19.5063333,103.661726 19.0596667,103.917907 C18.6146667,104.172435 17.893,104.172435 17.4463333,103.917907 C17.0013333,103.661726 17.0013333,103.248532 17.4463333,102.994004 C17.893,102.739476 18.6146667,102.739476 19.0596667,102.994004" id="Fill-238" fill="#16110D"></path>
                <path d="M23.2785,100.579296 C23.7251667,100.833824 23.7251667,101.247018 23.2785,101.503199 C22.8318333,101.757726 22.1118333,101.757726 21.6651667,101.503199 C21.2201667,101.247018 21.2201667,100.833824 21.6651667,100.579296 C22.1118333,100.323115 22.8318333,100.323115 23.2785,100.579296" id="Fill-240" fill="#16110D"></path>
                <path d="M27.4971667,98.1631 C27.9438333,98.4176278 27.9438333,98.8308222 27.4971667,99.0870028 C27.0505,99.3431833 26.3305,99.3431833 25.8838333,99.0870028 C25.4388333,98.8308222 25.4388333,98.4176278 25.8838333,98.1631 C26.3305,97.9085722 27.0505,97.9085722 27.4971667,98.1631" id="Fill-242" fill="#16110D"></path>
                <path d="M31.716,95.7485569 C32.1626667,96.0030847 32.1626667,96.4162792 31.716,96.6724597 C31.2693333,96.9269875 30.5476667,96.9269875 30.1026667,96.6724597 C29.6576667,96.4162792 29.6576667,96.0030847 30.1026667,95.7485569 C30.5476667,95.4940292 31.2693333,95.4940292 31.716,95.7485569" id="Fill-244" fill="#16110D"></path>
                <path d="M35.9346667,93.3323611 C36.3813333,93.5868889 36.3813333,94.0017361 35.9346667,94.2579167 C35.488,94.5124444 34.7663333,94.5124444 34.3213333,94.2579167 C33.8763333,94.0017361 33.8763333,93.5868889 34.3213333,93.3323611 C34.7663333,93.0778333 35.488,93.0778333 35.9346667,93.3323611" id="Fill-246" fill="#16110D"></path>
                <path d="M40.1535,90.9176528 C40.6001667,91.1721806 40.6001667,91.585375 40.1535,91.8415556 C39.7068333,92.0960833 38.9851667,92.0960833 38.5401667,91.8415556 C38.0951667,91.585375 38.0951667,91.1721806 38.5401667,90.9176528 C38.9851667,90.663125 39.7068333,90.663125 40.1535,90.9176528" id="Fill-248" fill="#16110D"></path>
                <path d="M44.3721667,88.5014569 C44.8188333,88.7559847 44.8188333,89.1708319 44.3721667,89.4270125 C43.9255,89.6815403 43.2038333,89.6815403 42.7571667,89.4270125 C42.3138333,89.1708319 42.3138333,88.7559847 42.7571667,88.5014569 C43.2038333,88.2469292 43.9255,88.2469292 44.3721667,88.5014569" id="Fill-250" fill="#16110D"></path>
                <path d="M48.591,86.0869139 C49.036,86.3414417 49.036,86.7546361 48.591,87.0108167 C48.1443333,87.2653444 47.4226667,87.2653444 46.976,87.0108167 C46.5326667,86.7546361 46.5326667,86.3414417 46.976,86.0869139 C47.4226667,85.8323861 48.1443333,85.8323861 48.591,86.0869139" id="Fill-252" fill="#16110D"></path>
                <path d="M52.8096667,83.6707181 C53.2546667,83.9252458 53.2546667,84.3400931 52.8096667,84.5962736 C52.363,84.8508014 51.6413333,84.8508014 51.1946667,84.5962736 C50.7496667,84.3400931 50.7496667,83.9252458 51.1946667,83.6707181 C51.6413333,83.4161903 52.363,83.4161903 52.8096667,83.6707181" id="Fill-254" fill="#16110D"></path>
                <path d="M57.0268333,81.2560097 C57.4735,81.5105375 57.4735,81.9237319 57.0268333,82.1799125 C56.5818333,82.4344403 55.8601667,82.4344403 55.4135,82.1799125 C54.9685,81.9237319 54.9685,81.5105375 55.4135,81.2560097 C55.8601667,81.0014819 56.5818333,81.0014819 57.0268333,81.2560097" id="Fill-256" fill="#16110D"></path>
                <path d="M61.2455,78.8414667 C61.6921667,79.0959944 61.6921667,79.5091889 61.2455,79.7653694 C60.8005,80.0198972 60.0788333,80.0198972 59.6321667,79.7653694 C59.1871667,79.5091889 59.1871667,79.0959944 59.6321667,78.8414667 C60.0788333,78.5852861 60.8005,78.5852861 61.2455,78.8414667" id="Fill-258" fill="#16110D"></path>
                <path d="M65.4643333,76.4252708 C65.911,76.6797986 65.911,77.0929931 65.4643333,77.3491736 C65.0193333,77.6037014 64.2976667,77.6037014 63.851,77.3491736 C63.406,77.0929931 63.406,76.6797986 63.851,76.4252708 C64.2976667,76.1707431 65.0193333,76.1707431 65.4643333,76.4252708" id="Fill-260" fill="#16110D"></path>
                <path d="M69.683,74.0105625 C70.1296667,74.2650903 70.1296667,74.6782847 69.683,74.9344653 C69.238,75.1889931 68.5163333,75.1889931 68.0696667,74.9344653 C67.6246667,74.6782847 67.6246667,74.2650903 68.0696667,74.0105625 C68.5163333,73.7560347 69.238,73.7560347 69.683,74.0105625" id="Fill-262" fill="#16110D"></path>
                <path d="M73.9018333,71.5943667 C74.3485,71.8488944 74.3485,72.2620889 73.9018333,72.5199222 C73.4551667,72.77445 72.7351667,72.77445 72.2885,72.5199222 C71.8435,72.2620889 71.8435,71.8488944 72.2885,71.5943667 C72.7351667,71.3398389 73.4551667,71.3398389 73.9018333,71.5943667" id="Fill-264" fill="#16110D"></path>
                <path d="M6.36766667,105.384417 C6.81433333,105.638944 6.81433333,106.052139 6.36766667,106.308319 C5.921,106.562847 5.19933333,106.562847 4.75433333,106.308319 C4.30933333,106.052139 4.30933333,105.638944 4.75433333,105.384417 C5.19933333,105.129889 5.921,105.129889 6.36766667,105.384417" id="Fill-266" fill="#16110D"></path>
                <path d="M10.5863333,102.968056 C11.033,103.222583 11.033,103.637431 10.5863333,103.893611 C10.1396667,104.148139 9.418,104.148139 8.973,103.893611 C8.528,103.637431 8.528,103.222583 8.973,102.968056 C9.418,102.713528 10.1396667,102.713528 10.5863333,102.968056" id="Fill-268" fill="#16110D"></path>
                <path d="M14.8051667,100.553512 C15.2518333,100.80804 15.2518333,101.221235 14.8051667,101.477415 C14.3585,101.731943 13.6368333,101.731943 13.1918333,101.477415 C12.7468333,101.221235 12.7468333,100.80804 13.1918333,100.553512 C13.6368333,100.298985 14.3585,100.298985 14.8051667,100.553512" id="Fill-270" fill="#16110D"></path>
                <path d="M19.0238333,98.1373167 C19.4705,98.3918444 19.4705,98.8066917 19.0238333,99.0628722 C18.5771667,99.3174 17.8555,99.3174 17.4088333,99.0628722 C16.9655,98.8066917 16.9655,98.3918444 17.4088333,98.1373167 C17.8555,97.8827889 18.5771667,97.8827889 19.0238333,98.1373167" id="Fill-272" fill="#16110D"></path>
                <path d="M23.2426667,95.7226083 C23.6876667,95.9771361 23.6876667,96.3903306 23.2426667,96.6465111 C22.796,96.9010389 22.0743333,96.9010389 21.6276667,96.6465111 C21.1843333,96.3903306 21.1843333,95.9771361 21.6276667,95.7226083 C22.0743333,95.4680806 22.796,95.4680806 23.2426667,95.7226083" id="Fill-274" fill="#16110D"></path>
                <path d="M27.4613333,93.3064125 C27.9063333,93.5625931 27.9063333,93.9757875 27.4613333,94.2319681 C27.0146667,94.4864958 26.293,94.4864958 25.8463333,94.2319681 C25.403,93.9757875 25.403,93.5625931 25.8463333,93.3064125 C26.293,93.0518847 27.0146667,93.0518847 27.4613333,93.3064125" id="Fill-276" fill="#16110D"></path>
                <path d="M31.6801667,90.8918694 C32.1251667,91.1463972 32.1251667,91.5595917 31.6801667,91.8157722 C31.2335,92.0703 30.5118333,92.0703 30.0651667,91.8157722 C29.6218333,91.5595917 29.6218333,91.1463972 30.0651667,90.8918694 C30.5118333,90.6373417 31.2335,90.6373417 31.6801667,90.8918694" id="Fill-278" fill="#16110D"></path>
                <path d="M35.8988333,88.4773264 C36.3438333,88.7318542 36.3438333,89.1450486 35.8988333,89.4012292 C35.4521667,89.6557569 34.7305,89.6557569 34.2838333,89.4012292 C33.8388333,89.1450486 33.8388333,88.7318542 34.2838333,88.4773264 C34.7305,88.2227986 35.4521667,88.2227986 35.8988333,88.4773264" id="Fill-280" fill="#16110D"></path>
                <path d="M40.116,86.0609653 C40.5626667,86.3154931 40.5626667,86.7286875 40.116,86.9848681 C39.671,87.2410486 38.9493333,87.2410486 38.5026667,86.9848681 C38.0576667,86.7286875 38.0576667,86.3154931 38.5026667,86.0609653 C38.9493333,85.8064375 39.671,85.8064375 40.116,86.0609653" id="Fill-282" fill="#16110D"></path>
                <path d="M44.3348333,83.6464222 C44.7815,83.90095 44.7815,84.3141444 44.3348333,84.570325 C43.8898333,84.8248528 43.1681667,84.8248528 42.7215,84.570325 C42.2765,84.3141444 42.2765,83.90095 42.7215,83.6464222 C43.1681667,83.3918944 43.8898333,83.3918944 44.3348333,83.6464222" id="Fill-284" fill="#16110D"></path>
                <path d="M48.5535,81.2302264 C49.0001667,81.4847542 49.0001667,81.8996014 48.5535,82.1557819 C48.1068333,82.4103097 47.3868333,82.4103097 46.9401667,82.1557819 C46.4951667,81.8996014 46.4951667,81.4847542 46.9401667,81.2302264 C47.3868333,80.9756986 48.1068333,80.9756986 48.5535,81.2302264" id="Fill-286" fill="#16110D"></path>
                <path d="M52.7723333,78.8156833 C53.219,79.0702111 53.219,79.4834056 52.7723333,79.7395861 C52.3256667,79.9941139 51.6056667,79.9941139 51.159,79.7395861 C50.714,79.4834056 50.714,79.0702111 51.159,78.8156833 C51.6056667,78.5611556 52.3256667,78.5611556 52.7723333,78.8156833" id="Fill-288" fill="#16110D"></path>
                <path d="M56.991,76.3993222 C57.4376667,76.65385 57.4376667,77.0686972 56.991,77.3248778 C56.5443333,77.5794056 55.8226667,77.5794056 55.3776667,77.3248778 C54.9326667,77.0686972 54.9326667,76.65385 55.3776667,76.3993222 C55.8226667,76.1447944 56.5443333,76.1447944 56.991,76.3993222" id="Fill-290" fill="#16110D"></path>
                <path d="M61.2098333,73.9847792 C61.6565,74.2393069 61.6565,74.6525014 61.2098333,74.9086819 C60.7631667,75.1632097 60.0415,75.1632097 59.5965,74.9086819 C59.1515,74.6525014 59.1515,74.2393069 59.5965,73.9847792 C60.0415,73.7302514 60.7631667,73.7302514 61.2098333,73.9847792" id="Fill-292" fill="#16110D"></path>
                <path d="M65.4285,71.5702361 C65.8751667,71.8247639 65.8751667,72.2379583 65.4285,72.4941389 C64.9818333,72.7486667 64.2601667,72.7486667 63.8151667,72.4941389 C63.3701667,72.2379583 63.3701667,71.8247639 63.8151667,71.5702361 C64.2601667,71.3140556 64.9818333,71.3140556 65.4285,71.5702361" id="Fill-294" fill="#16110D"></path>
                <path d="M69.6473333,69.1540403 C70.094,69.4085681 70.094,69.8217625 69.6473333,70.0779431 C69.2006667,70.3324708 68.479,70.3324708 68.0323333,70.0779431 C67.589,69.8217625 67.589,69.4085681 68.0323333,69.1540403 C68.479,68.8995125 69.2006667,68.8995125 69.6473333,69.1540403" id="Fill-296" fill="#16110D"></path>
                <path d="M6.36766667,100.553512 C6.81433333,100.80804 6.81433333,101.221235 6.36766667,101.477415 C5.921,101.731943 5.19933333,101.731943 4.75433333,101.477415 C4.30933333,101.221235 4.30933333,100.80804 4.75433333,100.553512 C5.19933333,100.298985 5.921,100.298985 6.36766667,100.553512" id="Fill-298" fill="#16110D"></path>
                <path d="M10.5863333,98.1373167 C11.033,98.3918444 11.033,98.8066917 10.5863333,99.0628722 C10.1396667,99.3174 9.418,99.3174 8.973,99.0628722 C8.528,98.8066917 8.528,98.3918444 8.973,98.1373167 C9.418,97.8827889 10.1396667,97.8827889 10.5863333,98.1373167" id="Fill-300" fill="#16110D"></path>
                <path d="M27.4613333,88.4773264 C27.9063333,88.7318542 27.9063333,89.1450486 27.4613333,89.4012292 C27.0146667,89.6557569 26.293,89.6557569 25.8463333,89.4012292 C25.403,89.1450486 27.0146667,88.2227986 27.4613333,88.4773264" id="Fill-302" fill="#16110D"></path>
                <path d="M31.6801667,86.0609653 C32.1251667,86.3154931 32.1251667,86.7286875 31.6801667,86.9848681 C31.2335,87.2410486 30.5118333,87.2410486 30.0651667,86.9848681 C29.6218333,86.7286875 29.6218333,86.3154931 30.0651667,86.0609653 C30.5118333,85.8064375 31.2335,85.8064375 31.6801667,86.0609653" id="Fill-304" fill="#16110D"></path>
                <path d="M35.8988333,83.6464222 C36.3438333,83.90095 36.3438333,84.3141444 35.8988333,84.570325 C35.4521667,84.8248528 34.7305,84.8248528 34.2838333,84.570325 C33.8388333,84.3141444 33.8388333,83.90095 34.2838333,83.6464222 C34.7305,83.3918944 35.4521667,83.3918944 35.8988333,83.6464222" id="Fill-306" fill="#16110D"></path>
                <path d="M40.116,81.2302264 C40.5626667,81.4847542 40.5626667,81.8996014 40.116,82.1557819 C39.671,82.4103097 38.9493333,82.4103097 38.5026667,82.1557819 C38.0576667,81.8996014 38.0576667,81.4847542 38.5026667,81.2302264 C38.9493333,80.9756986 39.671,80.9756986 40.116,81.2302264" id="Fill-308" fill="#16110D"></path>
                <path d="M44.3348333,78.8156833 C44.7815,79.0702111 44.7815,79.4834056 44.3348333,79.7395861 C43.8898333,79.9941139 43.1681667,79.9941139 42.7215,79.7395861 C42.2765,79.4834056 42.2765,79.0702111 42.7215,78.8156833 C43.1681667,78.5611556 43.8898333,78.5611556 44.3348333,78.8156833" id="Fill-310" fill="#16110D"></path>
                <path d="M48.5535,76.3993222 C49.0001667,76.65385 49.0001667,77.0686972 48.5535,77.3248778 C48.1068333,77.5794056 47.3868333,77.5794056 46.9401667,77.3248778 C46.4951667,77.0686972 46.4951667,76.65385 46.9401667,76.3993222 C47.3868333,76.1447944 48.1085,76.1447944 48.5535,76.3993222" id="Fill-312" fill="#16110D"></path>
                <path d="M52.7723333,73.9847792 C53.219,74.2393069 53.219,74.6525014 52.7723333,74.9086819 C52.3256667,75.1632097 51.6056667,75.1632097 51.159,74.9086819 C50.714,74.6525014 50.714,74.2393069 51.159,73.9847792 C51.6056667,73.7302514 52.3256667,73.7302514 52.7723333,73.9847792" id="Fill-314" fill="#16110D"></path>
                <path d="M56.991,71.5702361 C57.4376667,71.8247639 57.4376667,72.2379583 56.991,72.4941389 C56.5443333,72.7486667 55.8243333,72.7486667 55.3776667,72.4941389 C54.9326667,72.2379583 54.9326667,71.8247639 55.3776667,71.5702361 C55.8243333,71.3140556 56.5443333,71.3140556 56.991,71.5702361" id="Fill-316" fill="#16110D"></path>
                <path d="M61.2098333,69.1540403 C61.6565,69.4085681 61.6565,69.8217625 61.2098333,70.0779431 C60.7631667,70.3324708 60.0415,70.3324708 59.5965,70.0779431 C59.1515,69.8217625 59.1515,69.4085681 59.5965,69.1540403 C60.0415,68.8995125 60.7631667,68.8995125 61.2098333,69.1540403" id="Fill-318" fill="#16110D"></path>
                <path d="M65.4285,66.7393319 C65.8751667,66.9938597 65.8751667,67.4070542 65.4285,67.6632347 C64.9818333,67.9177625 64.2601667,67.9177625 63.8151667,67.6632347 C63.3701667,67.4070542 63.3701667,66.9938597 63.8151667,66.7393319 C64.2601667,66.4848042 64.9818333,66.4848042 65.4285,66.7393319" id="Fill-320" fill="#16110D"></path>
                <path d="M35.8988333,78.8156833 C36.3438333,79.0702111 36.3438333,79.4834056 35.8988333,79.7395861 C35.4521667,79.9941139 34.7305,79.9941139 34.2838333,79.7395861 C33.8388333,79.4834056 33.8388333,79.0702111 34.2838333,78.8156833 C34.7305,78.5611556 35.4521667,78.5611556 35.8988333,78.8156833" id="Fill-322" fill="#16110D"></path>
                <path d="M40.116,76.3993222 C40.5626667,76.65385 40.5626667,77.0686972 40.116,77.3248778 C39.671,77.5794056 38.9493333,77.5794056 38.5026667,77.3248778 C38.0576667,77.0686972 38.0576667,76.65385 38.5026667,76.3993222 C38.9493333,76.1447944 39.671,76.1447944 40.116,76.3993222" id="Fill-324" fill="#16110D"></path>
                <path d="M44.3348333,73.9847792 C44.7815,74.2393069 44.7815,74.6525014 44.3348333,74.9086819 C43.8898333,75.1632097 43.1681667,75.1632097 42.7215,74.9086819 C42.2765,74.6525014 42.2765,74.2393069 42.7215,73.9847792 C43.1681667,73.7302514 43.8898333,73.7302514 44.3348333,73.9847792" id="Fill-326" fill="#16110D"></path>
                <path d="M48.5535,71.5702361 C49.0001667,71.8247639 49.0001667,72.2379583 48.5535,72.4941389 C48.1085,72.7486667 47.3868333,72.7486667 46.9401667,72.4941389 C46.4951667,72.2379583 46.4951667,71.8247639 46.9401667,71.5702361 C47.3868333,71.3140556 48.1085,71.3140556 48.5535,71.5702361" id="Fill-328" fill="#16110D"></path>
                <path d="M52.7723333,69.1540403 C53.219,69.4085681 53.219,69.8217625 52.7723333,70.0779431 C52.3256667,70.3324708 51.6056667,70.3324708 51.159,70.0779431 C50.714,69.8217625 50.714,69.4085681 51.159,69.1540403 C51.6056667,68.8995125 52.3256667,68.8995125 52.7723333,69.1540403" id="Fill-330" fill="#16110D"></path>
                <path d="M56.991,66.7393319 C57.4376667,66.9938597 57.4376667,67.4070542 56.991,67.6632347 C56.5443333,67.9177625 55.8243333,67.9177625 55.3776667,67.6632347 C54.9326667,67.4070542 54.9326667,66.9938597 55.3776667,66.7393319 C55.8243333,66.4848042 56.5443333,66.4848042 56.991,66.7393319" id="Fill-332" fill="#16110D"></path>
                <path d="M61.2098333,64.3231361 C61.6565,64.5776639 61.6565,64.9925111 61.2098333,65.2486917 C60.7631667,65.5032194 60.0415,65.5032194 59.5965,65.2486917 C59.1515,64.9925111 59.1515,64.5776639 59.5965,64.3231361 C60.0415,64.0686083 60.7631667,64.0686083 61.2098333,64.3231361" id="Fill-334" fill="#16110D"></path>
                <path d="M27.4613333,78.8156833 C27.9063333,79.0702111 27.9063333,79.4834056 27.4613333,79.7395861 C27.0146667,79.9941139 26.293,79.9941139 25.8463333,79.7395861 C25.403,79.4834056 25.403,79.0702111 25.8463333,78.8156833 C26.293,78.5611556 27.0146667,78.5611556 27.4613333,78.8156833" id="Fill-336" fill="#16110D"></path>
                <path d="M31.6801667,76.3993222 C32.1251667,76.65385 32.1251667,77.0686972 31.6801667,77.3248778 C31.2335,77.5794056 30.5118333,77.5794056 30.0651667,77.3248778 C29.6218333,77.0686972 29.6218333,76.65385 30.0651667,76.3993222 C30.5118333,76.1447944 31.2335,76.1447944 31.6801667,76.3993222" id="Fill-338" fill="#16110D"></path>
                <path d="M35.8988333,73.9847792 C36.3438333,74.2393069 36.3438333,74.6525014 35.8988333,74.9086819 C35.4521667,75.1632097 34.7305,75.1632097 34.2838333,74.9086819 C33.8388333,74.6525014 33.8388333,74.2393069 34.2838333,73.9847792 C34.7305,73.7302514 35.4521667,73.7302514 35.8988333,73.9847792" id="Fill-340" fill="#16110D"></path>
                <path d="M40.116,71.5702361 C40.5626667,71.8247639 40.5626667,72.2379583 40.116,72.4941389 C39.671,72.7486667 38.9493333,72.7486667 38.5026667,72.4941389 C38.0576667,72.2379583 38.0576667,71.8247639 38.5026667,71.5702361 C38.9493333,71.3157083 39.671,71.3157083 40.116,71.5702361" id="Fill-342" fill="#16110D"></path>
                <path d="M44.3348333,69.1540403 C44.7815,69.4085681 44.7815,69.8217625 44.3348333,70.0779431 C43.8898333,70.3324708 43.1681667,70.3324708 42.7215,70.0779431 C42.2765,69.8217625 42.2765,69.4085681 42.7215,69.1540403 C43.1681667,68.8995125 43.8898333,68.8995125 44.3348333,69.1540403" id="Fill-344" fill="#16110D"></path>
                <path d="M48.5535,66.7393319 C49.0001667,66.9938597 49.0001667,67.4070542 48.5535,67.6632347 C48.1085,67.9177625 47.3868333,67.9177625 46.9401667,67.6632347 C46.4951667,67.4070542 46.4951667,66.9938597 46.9401667,66.7393319 C47.3868333,66.4848042 48.1085,66.4848042 48.5535,66.7393319" id="Fill-346" fill="#16110D"></path>
                <path d="M52.7723333,64.3231361 C53.219,64.5776639 53.219,64.9925111 52.7723333,65.2486917 C52.3273333,65.5032194 51.6056667,65.5032194 51.159,65.2486917 C50.714,64.9925111 50.714,64.5776639 51.159,64.3231361 C51.6056667,64.0686083 52.3273333,64.0686083 52.7723333,64.3231361" id="Fill-348" fill="#16110D"></path>
                <path d="M56.991,61.9085931 C57.4376667,62.1631208 57.4376667,62.5763153 56.991,62.8324958 C56.5443333,63.0870236 55.8243333,63.0870236 55.3776667,62.8324958 C54.9326667,62.5763153 54.9326667,62.1631208 55.3776667,61.9085931 C55.8243333,61.6540653 56.5443333,61.6540653 56.991,61.9085931" id="Fill-350" fill="#16110D"></path>
                <path d="M56.8608333,57.4844375 C57.3058333,57.7389653 57.3058333,58.1521597 56.8608333,58.4083403 C56.4141667,58.6628681 55.6925,58.6628681 55.2458333,58.4083403 C54.8025,58.1521597 54.8025,57.7389653 55.2458333,57.4844375 C55.6925,57.2299097 56.4141667,57.2299097 56.8608333,57.4844375" id="Fill-352" fill="#16110D"></path>
                <path d="M61.0795,55.0698944 C61.5245,55.3244222 61.5245,55.7376167 61.0795,55.9937972 C60.6328333,56.248325 59.9111667,56.248325 59.4645,55.9937972 C59.0195,55.7376167 59.0195,55.3244222 59.4645,55.0698944 C59.9111667,54.8153667 60.6328333,54.8153667 61.0795,55.0698944" id="Fill-354" fill="#16110D"></path>
                <path d="M65.2966667,52.6536986 C65.7433333,52.9082264 65.7433333,53.3214208 65.2966667,53.5776014 C64.8516667,53.8321292 64.13,53.8321292 63.6833333,53.5776014 C63.2383333,53.3214208 63.2383333,52.9082264 63.6833333,52.6536986 C64.13,52.3991708 64.8516667,52.3991708 65.2966667,52.6536986" id="Fill-356" fill="#16110D"></path>
                <path d="M69.5155,50.2389903 C69.9621667,50.4935181 69.9621667,50.9067125 69.5155,51.1628931 C69.0705,51.4174208 68.3488333,51.4174208 67.9021667,51.1628931 C67.4571667,50.9067125 67.4571667,50.4935181 67.9021667,50.2389903 C68.3488333,49.9844625 69.0705,49.9844625 69.5155,50.2389903" id="Fill-358" fill="#16110D"></path>
                <path d="M73.7341667,47.8227944 C74.1808333,48.0773222 74.1808333,48.4921694 73.7341667,48.74835 C73.2875,49.0028778 72.5675,49.0028778 72.1208333,48.74835 C71.6758333,48.4921694 71.6758333,48.0773222 72.1208333,47.8227944 C72.5675,47.5682667 73.2875,47.5682667 73.7341667,47.8227944" id="Fill-360" fill="#16110D"></path>
                <path d="M77.953,45.4082514 C78.3996667,45.6627792 78.3996667,46.0759736 77.953,46.3321542 C77.5063333,46.5866819 76.7863333,46.5866819 76.3396667,46.3321542 C75.8946667,46.0759736 75.8946667,45.6627792 76.3396667,45.4082514 C76.7863333,45.1537236 77.5063333,45.1537236 77.953,45.4082514" id="Fill-362" fill="#16110D"></path>
                <path d="M82.1716667,42.9920556 C82.6183333,43.2465833 82.6183333,43.6614306 82.1716667,43.9176111 C81.725,44.1721389 81.0033333,44.1721389 80.5583333,43.9176111 C80.1133333,43.6614306 80.1133333,43.2465833 80.5583333,42.9920556 C81.005,42.7375278 81.725,42.7375278 82.1716667,42.9920556" id="Fill-364" fill="#16110D"></path>
                <path d="M86.3905,40.5773472 C86.8371667,40.831875 86.8371667,41.2450694 86.3905,41.50125 C85.9438333,41.7557778 85.2221667,41.7557778 84.7771667,41.50125 C84.3321667,41.2450694 84.3321667,40.831875 84.7771667,40.5773472 C85.2221667,40.3228194 85.9438333,40.3228194 86.3905,40.5773472" id="Fill-366" fill="#16110D"></path>
                <path d="M90.6091667,38.1611514 C91.0558333,38.4173319 91.0558333,38.8305264 90.6091667,39.0867069 C90.1625,39.3412347 89.4408333,39.3412347 88.9958333,39.0867069 C88.5508333,38.8305264 88.5508333,38.4173319 88.9958333,38.1611514 C89.4408333,37.9066236 90.1625,37.9066236 90.6091667,38.1611514" id="Fill-368" fill="#16110D"></path>
                <path d="M94.828,35.7466083 C95.2746667,36.0011361 95.2746667,36.4143306 94.828,36.6705111 C94.3813333,36.9250389 93.6596667,36.9250389 93.213,36.6705111 C92.7696667,36.4143306 92.7696667,36.0011361 93.213,35.7466083 C93.6596667,35.4920806 94.3813333,35.4920806 94.828,35.7466083" id="Fill-370" fill="#16110D"></path>
                <path d="M99.0466667,33.3319 C99.4916667,33.5864278 99.4916667,33.9996222 99.0466667,34.2558028 C98.6,34.5103306 97.8783333,34.5103306 97.4316667,34.2558028 C96.9883333,33.9996222 96.9883333,33.5864278 97.4316667,33.3319 C97.8783333,33.0757194 98.6,33.0757194 99.0466667,33.3319" id="Fill-372" fill="#16110D"></path>
                <path d="M103.2655,30.9157042 C103.7105,31.1702319 103.7105,31.5834264 103.2655,31.8396069 C102.818833,32.0957875 102.097167,32.0957875 101.6505,31.8396069 C101.207167,31.5834264 101.207167,31.1702319 101.6505,30.9157042 C102.097167,30.6611764 102.818833,30.6611764 103.2655,30.9157042" id="Fill-374" fill="#16110D"></path>
                <path d="M51.0226667,55.0713819 C51.4676667,54.8168542 52.1893333,54.8168542 52.636,55.0697292 C53.0826667,55.3242569 53.0826667,55.7374514 52.6393333,55.9952847 C52.1943333,56.2498125 51.4726667,56.2514653 51.026,55.9969375 C50.5793333,55.7407569 50.5776667,55.3275625 51.0226667,55.0713819" id="Fill-376" fill="#16110D"></path>
                <path d="M56.8608333,52.6536986 C57.3058333,52.9082264 57.3058333,53.3214208 56.8608333,53.5776014 C56.4141667,53.8321292 55.6925,53.8321292 55.2458333,53.5776014 C54.8025,53.3214208 54.8025,52.9082264 55.2458333,52.6536986 C55.6925,52.3991708 56.4141667,52.3991708 56.8608333,52.6536986" id="Fill-378" fill="#16110D"></path>
                <path d="M61.0795,50.2389903 C61.5245,50.4935181 61.5245,50.9067125 61.0795,51.1628931 C60.6328333,51.4174208 59.9111667,51.4174208 59.4645,51.1628931 C59.0195,50.9067125 59.0195,50.4935181 59.4645,50.2389903 C59.9111667,49.9844625 60.6328333,49.9844625 61.0795,50.2389903" id="Fill-380" fill="#16110D"></path>
                <path d="M65.2966667,47.8227944 C65.7433333,48.0773222 65.7433333,48.4921694 65.2966667,48.74835 C64.8516667,49.0028778 64.13,49.0028778 63.6833333,48.74835 C63.2383333,48.4921694 63.2383333,48.0773222 63.6833333,47.8227944 C64.13,47.5682667 64.8516667,47.5682667 65.2966667,47.8227944" id="Fill-382" fill="#16110D"></path>
                <path d="M69.5155,45.4082514 C69.9621667,45.6627792 69.9621667,46.0759736 69.5155,46.3321542 C69.0705,46.5866819 68.3488333,46.5866819 67.9021667,46.3321542 C67.4571667,46.0759736 67.4571667,45.6627792 67.9021667,45.4082514 C68.3488333,45.1537236 69.0705,45.1537236 69.5155,45.4082514" id="Fill-384" fill="#16110D"></path>
                <path d="M73.7341667,42.9920556 C74.1808333,43.2465833 74.1808333,43.6614306 73.7341667,43.9176111 C73.2891667,44.1721389 72.5675,44.1721389 72.1208333,43.9176111 C71.6758333,43.6614306 71.6758333,43.2465833 72.1208333,42.9920556 C72.5675,42.7375278 73.2891667,42.7375278 73.7341667,42.9920556" id="Fill-386" fill="#16110D"></path>
                <path d="M77.953,40.5773472 C78.3996667,40.831875 78.3996667,41.2450694 77.953,41.50125 C77.5063333,41.7557778 76.7863333,41.7557778 76.3396667,41.50125 C75.8946667,41.2450694 75.8946667,40.831875 76.3396667,40.5773472 C76.7863333,40.3228194 77.5063333,40.3228194 77.953,40.5773472" id="Fill-388" fill="#16110D"></path>
                <path d="M82.1716667,38.1611514 C82.6183333,38.4173319 82.6183333,38.8305264 82.1716667,39.0867069 C81.725,39.3412347 81.005,39.3412347 80.5583333,39.0867069 C80.1133333,38.8305264 80.1133333,38.4173319 80.5583333,38.1611514 C81.005,37.9066236 81.725,37.9066236 82.1716667,38.1611514" id="Fill-390" fill="#16110D"></path>
                <path d="M86.3905,35.7466083 C86.8371667,36.0011361 86.8371667,36.4143306 86.3905,36.6705111 C85.9438333,36.9250389 85.2221667,36.9250389 84.7771667,36.6705111 C84.3321667,36.4143306 84.3321667,36.0011361 84.7771667,35.7466083 C85.2221667,35.4920806 85.9438333,35.4920806 86.3905,35.7466083" id="Fill-392" fill="#16110D"></path>
                <path d="M90.6091667,33.3319 C91.0558333,33.5864278 91.0558333,33.9996222 90.6091667,34.2558028 C90.1625,34.5103306 89.4408333,34.5103306 88.9958333,34.2558028 C88.5508333,33.9996222 88.5508333,33.5864278 88.9958333,33.3319 C89.4408333,33.0773722 90.1625,33.0757194 90.6091667,33.3319" id="Fill-394" fill="#16110D"></path>
                <path d="M94.828,30.9157042 C95.2746667,31.1702319 95.2746667,31.5834264 94.828,31.8412597 C94.3813333,32.0957875 93.6596667,32.0957875 93.2146667,31.8412597 C92.7696667,31.5834264 92.7696667,31.1702319 93.2146667,30.9157042 C93.6596667,30.6611764 94.3813333,30.6611764 94.828,30.9157042" id="Fill-396" fill="#16110D"></path>
                <path d="M99.0466667,28.5011611 C99.4916667,28.7556889 99.4916667,29.1688833 99.0466667,29.4250639 C98.6,29.6795917 97.8783333,29.6795917 97.4316667,29.4250639 C96.9883333,29.1688833 96.9883333,28.7556889 97.4316667,28.5011611 C97.8783333,28.2466333 98.6,28.2466333 99.0466667,28.5011611" id="Fill-398" fill="#16110D"></path>
                <path d="M46.8038333,52.6568389 C47.2488333,52.4023111 47.9705,52.4006583 48.4188333,52.6551861 C48.8638333,52.9097139 48.8655,53.3229083 48.4205,53.5790889 C47.9755,53.8352694 47.2538333,53.8352694 46.8071667,53.5807417 C46.3605,53.3262139 46.3588333,52.9113667 46.8038333,52.6568389" id="Fill-400" fill="#16110D"></path>
                <path d="M52.642,50.2389903 C53.087,50.4935181 53.087,50.9067125 52.642,51.1628931 C52.1953333,51.4174208 51.4736667,51.4174208 51.027,51.1628931 C50.5836667,50.9067125 50.5836667,50.4935181 51.027,50.2389903 C51.4736667,49.9844625 52.1953333,49.9844625 52.642,50.2389903" id="Fill-402" fill="#16110D"></path>
                <path d="M56.8608333,47.8227944 C57.3058333,48.0773222 57.3058333,48.4921694 56.8608333,48.74835 C56.4141667,49.0028778 55.6925,49.0028778 55.2458333,48.74835 C54.8025,48.4921694 54.8025,48.0773222 55.2458333,47.8227944 C55.6925,47.5682667 56.4141667,47.5682667 56.8608333,47.8227944" id="Fill-404" fill="#16110D"></path>
                <path d="M61.0795,45.4082514 C61.5245,45.6627792 61.5245,46.0759736 61.0795,46.3321542 C60.6328333,46.5866819 59.9111667,46.5866819 59.4645,46.3321542 C59.0195,46.0759736 59.0195,45.6627792 59.4645,45.4082514 C59.9111667,45.1537236 60.6328333,45.1537236 61.0795,45.4082514" id="Fill-406" fill="#16110D"></path>
                <path d="M65.2966667,42.9920556 C65.7433333,43.2465833 65.7433333,43.6614306 65.2966667,43.9176111 C64.8516667,44.1721389 64.13,44.1721389 63.6833333,43.9176111 C63.2383333,43.6614306 63.2383333,43.2465833 63.6833333,42.9920556 C64.13,42.7375278 64.8516667,42.7375278 65.2966667,42.9920556" id="Fill-408" fill="#16110D"></path>
                <path d="M69.5155,40.5773472 C69.9621667,40.831875 69.9621667,41.2450694 69.5155,41.50125 C69.0705,41.7557778 68.3488333,41.7557778 67.9021667,41.50125 C67.4571667,41.2450694 67.4571667,40.831875 67.9021667,40.5773472 C68.3488333,40.3228194 69.0705,40.3228194 69.5155,40.5773472" id="Fill-410" fill="#16110D"></path>
                <path d="M73.7341667,38.1611514 C74.1808333,38.4173319 74.1808333,38.8305264 73.7341667,39.0867069 C73.2891667,39.3412347 72.5675,39.3412347 72.1208333,39.0867069 C71.6758333,38.8305264 71.6758333,38.4173319 72.1208333,38.1611514 C72.5675,37.9066236 73.2891667,37.9066236 73.7341667,38.1611514" id="Fill-412" fill="#16110D"></path>
                <path d="M77.953,35.7466083 C78.3996667,36.0011361 78.3996667,36.4143306 77.953,36.6705111 C77.508,36.9250389 76.7863333,36.9250389 76.3396667,36.6705111 C75.8946667,36.4143306 75.8946667,36.0011361 76.3396667,35.7466083 C76.7863333,35.4920806 77.508,35.4920806 77.953,35.7466083" id="Fill-414" fill="#16110D"></path>
                <path d="M82.1716667,33.3319 C82.6183333,33.5864278 82.6183333,33.9996222 82.1716667,34.2558028 C81.725,34.5103306 81.005,34.5103306 80.5583333,34.2558028 C80.1133333,33.9996222 80.1133333,33.5864278 80.5583333,33.3319 C81.005,33.0773722 81.725,33.0773722 82.1716667,33.3319" id="Fill-416" fill="#16110D"></path>
                <path d="M86.3905,30.9157042 C86.8371667,31.1702319 86.8371667,31.5834264 86.3905,31.8412597 C85.9438333,32.0957875 85.2221667,32.0957875 84.7771667,31.8412597 C84.3321667,31.5834264 84.3321667,31.1702319 84.7771667,30.9157042 C85.2221667,30.6611764 85.9438333,30.6611764 86.3905,30.9157042" id="Fill-418" fill="#16110D"></path>
                <path d="M90.6091667,28.5011611 C91.0558333,28.7556889 91.0558333,29.1688833 90.6091667,29.4250639 C90.1625,29.6795917 89.4408333,29.6795917 88.9958333,29.4250639 C88.5508333,29.1688833 88.5508333,28.7556889 88.9958333,28.5011611 C89.4408333,28.2466333 90.1625,28.2466333 90.6091667,28.5011611" id="Fill-420" fill="#16110D"></path>
                <path d="M94.828,26.0849653 C95.2746667,26.3394931 95.2746667,26.7543403 94.828,27.0105208 C94.3813333,27.2650486 93.6596667,27.2650486 93.2146667,27.0105208 C92.7696667,26.7543403 92.7696667,26.3394931 93.2146667,26.0849653 C93.6596667,25.8304375 94.3813333,25.8304375 94.828,26.0849653" id="Fill-422" fill="#16110D"></path>
                <path d="M42.5851667,50.2422958 C43.0318333,49.9861153 43.7518333,49.9861153 44.2001667,50.2406431 C44.6451667,50.4935181 44.6468333,50.9083653 44.2018333,51.1645458 C43.7568333,51.4190736 43.0351667,51.4207264 42.5885,51.1661986 C42.1418333,50.9100181 42.1401667,50.4968236 42.5851667,50.2422958" id="Fill-424" fill="#16110D"></path>
                <path d="M48.4233333,47.8227944 C48.8683333,48.0773222 48.8683333,48.4921694 48.4233333,48.74835 C47.9766667,49.0028778 47.255,49.0028778 46.8083333,48.74835 C46.365,48.4921694 46.365,48.0773222 46.8083333,47.8227944 C47.255,47.5682667 47.9766667,47.5682667 48.4233333,47.8227944" id="Fill-426" fill="#16110D"></path>
                <path d="M52.642,45.4082514 C53.087,45.6627792 53.087,46.0759736 52.642,46.3321542 C52.1953333,46.5866819 51.4736667,46.5866819 51.027,46.3321542 C50.5836667,46.0759736 50.5836667,45.6627792 51.027,45.4082514 C51.4736667,45.1537236 52.1953333,45.1537236 52.642,45.4082514" id="Fill-428" fill="#16110D"></path>
                <path d="M56.8608333,42.9920556 C57.3058333,43.2465833 57.3058333,43.6614306 56.8608333,43.9176111 C56.4141667,44.1721389 55.6925,44.1721389 55.2458333,43.9176111 C54.8025,43.6614306 54.8025,43.2465833 55.2458333,42.9920556 C55.6925,42.7375278 56.4141667,42.7375278 56.8608333,42.9920556" id="Fill-430" fill="#16110D"></path>
                <path d="M61.0795,40.5773472 C61.5245,40.831875 61.5245,41.2450694 61.0795,41.50125 C60.6328333,41.7557778 59.9111667,41.7557778 59.4645,41.50125 C59.0195,41.2450694 59.0195,40.831875 59.4645,40.5773472 C59.9111667,40.3228194 60.6328333,40.3228194 61.0795,40.5773472" id="Fill-432" fill="#16110D"></path>
                <path d="M65.2966667,38.1628042 C65.7433333,38.4173319 65.7433333,38.8305264 65.2966667,39.0867069 C64.8516667,39.3412347 64.13,39.3412347 63.6833333,39.0867069 C63.2383333,38.8305264 63.2383333,38.4173319 63.6833333,38.1628042 C64.13,37.9066236 64.8516667,37.9066236 65.2966667,38.1628042" id="Fill-434" fill="#16110D"></path>
                <path d="M69.5155,35.7466083 C69.9621667,36.0011361 69.9621667,36.4143306 69.5155,36.6705111 C69.0705,36.9250389 68.3488333,36.9250389 67.9021667,36.6705111 C67.4571667,36.4143306 67.4571667,36.0011361 67.9021667,35.7466083 C68.3488333,35.4920806 69.0705,35.4920806 69.5155,35.7466083" id="Fill-436" fill="#16110D"></path>
                <path d="M73.7341667,33.3319 C74.1808333,33.5864278 74.1808333,33.9996222 73.7341667,34.2558028 C73.2891667,34.5103306 72.5675,34.5103306 72.1208333,34.2558028 C71.6758333,33.9996222 71.6758333,33.5864278 72.1208333,33.3319 C72.5675,33.0773722 73.2891667,33.0773722 73.7341667,33.3319" id="Fill-438" fill="#16110D"></path>
                <path d="M77.953,30.9157042 C78.3996667,31.1702319 78.3996667,31.5834264 77.953,31.8412597 C77.508,32.0957875 76.7863333,32.0957875 76.3396667,31.8412597 C75.8946667,31.5834264 75.8946667,31.1702319 76.3396667,30.9157042 C76.7863333,30.6611764 77.508,30.6611764 77.953,30.9157042" id="Fill-440" fill="#16110D"></path>
                <path d="M82.1716667,28.5011611 C82.6183333,28.7556889 82.6183333,29.1688833 82.1716667,29.4250639 C81.725,29.6795917 81.005,29.6795917 80.5583333,29.4250639 C80.1133333,29.1688833 80.1133333,28.7556889 80.5583333,28.5011611 C81.005,28.2466333 81.725,28.2466333 82.1716667,28.5011611" id="Fill-442" fill="#16110D"></path>
                <path d="M86.3905,26.0849653 C86.8371667,26.3394931 86.8371667,26.7543403 86.3905,27.0105208 C85.9438333,27.2650486 85.2221667,27.2650486 84.7771667,27.0105208 C84.3321667,26.7543403 84.3321667,26.3394931 84.7771667,26.0849653 C85.2221667,25.8304375 85.9438333,25.8304375 86.3905,26.0849653" id="Fill-444" fill="#16110D"></path>
                <path d="M90.6091667,23.6702569 C91.0558333,23.9247847 91.0558333,24.3379792 90.6091667,24.5941597 C90.1625,24.8486875 89.4408333,24.8486875 88.9958333,24.5941597 C88.5508333,24.3379792 88.5508333,23.9247847 88.9958333,23.6702569 C89.4408333,23.4157292 90.1625,23.4157292 90.6091667,23.6702569" id="Fill-446" fill="#16110D"></path>
                <path d="M38.3663333,47.8261 C38.813,47.5715722 39.533,47.5699194 39.9813333,47.8244472 C40.4263333,48.078975 40.428,48.4921694 39.983,48.74835 C39.538,49.0045306 38.8163333,49.0045306 38.3696667,48.7516556 C37.923,48.495475 37.9213333,48.0822806 38.3663333,47.8261" id="Fill-448" fill="#16110D"></path>
                <path d="M44.2045,45.4082514 C44.6511667,45.6627792 44.6511667,46.0759736 44.2045,46.3321542 C43.7578333,46.5866819 43.0361667,46.5866819 42.5911667,46.3321542 C42.1461667,46.0759736 42.1461667,45.6627792 42.5911667,45.4082514 C43.0361667,45.1537236 43.7578333,45.1537236 44.2045,45.4082514" id="Fill-450" fill="#16110D"></path>
                <path d="M48.4233333,42.9920556 C48.87,43.2465833 48.87,43.6614306 48.4233333,43.9176111 C47.9766667,44.1721389 47.255,44.1721389 46.8083333,43.9176111 C46.365,43.6614306 46.365,43.2465833 46.8083333,42.9920556 C47.255,42.7375278 47.9766667,42.7375278 48.4233333,42.9920556" id="Fill-452" fill="#16110D"></path>
                <path d="M52.642,40.5773472 C53.087,40.831875 53.087,41.2450694 52.642,41.50125 C52.1953333,41.7557778 51.4736667,41.7557778 51.027,41.50125 C50.5836667,41.2450694 50.5836667,40.831875 51.027,40.5773472 C51.4736667,40.3228194 52.1953333,40.3228194 52.642,40.5773472" id="Fill-454" fill="#16110D"></path>
                <path d="M56.8608333,38.1628042 C57.3058333,38.4173319 57.3058333,38.8305264 56.8608333,39.0867069 C56.4141667,39.3412347 55.6925,39.3412347 55.2458333,39.0867069 C54.8025,38.8305264 54.8025,38.4173319 55.2458333,38.1628042 C55.6925,37.9066236 56.4141667,37.9066236 56.8608333,38.1628042" id="Fill-456" fill="#16110D"></path>
                <path d="M61.0795,35.7466083 C61.5245,36.0011361 61.5245,36.4143306 61.0795,36.6705111 C60.6328333,36.9250389 59.9111667,36.9250389 59.4645,36.6705111 C59.0195,36.4143306 59.0195,36.0011361 59.4645,35.7466083 C59.9111667,35.4920806 60.6328333,35.4920806 61.0795,35.7466083" id="Fill-458" fill="#16110D"></path>
                <path d="M65.2966667,33.3319 C65.7433333,33.5864278 65.7433333,33.9996222 65.2966667,34.2558028 C64.8516667,34.5103306 64.13,34.5103306 63.6833333,34.2558028 C63.2383333,33.9996222 63.2383333,33.5864278 63.6833333,33.3319 C64.13,33.0773722 64.8516667,33.0773722 65.2966667,33.3319" id="Fill-460" fill="#16110D"></path>
                <path d="M69.5155,30.9157042 C69.9621667,31.1702319 69.9621667,31.5834264 69.5155,31.8412597 C69.0705,32.0957875 68.3488333,32.0957875 67.9021667,31.8412597 C67.4571667,31.5834264 67.4571667,31.1702319 67.9021667,30.9157042 C68.3488333,30.6611764 69.0705,30.6611764 69.5155,30.9157042" id="Fill-462" fill="#16110D"></path>
                <path d="M73.7341667,28.5011611 C74.1808333,28.7556889 74.1808333,29.1688833 73.7341667,29.4250639 C73.2891667,29.6795917 72.5675,29.6795917 72.1208333,29.4250639 C71.6758333,29.1688833 71.6758333,28.7556889 72.1208333,28.5011611 C72.5675,28.2466333 73.2891667,28.2466333 73.7341667,28.5011611" id="Fill-464" fill="#16110D"></path>
                <path d="M77.953,26.0849653 C78.3996667,26.3394931 78.3996667,26.7543403 77.953,27.0105208 C77.508,27.2650486 76.7863333,27.2650486 76.3396667,27.0105208 C75.8946667,26.7543403 75.8946667,26.3394931 76.3396667,26.0849653 C76.7863333,25.8304375 77.508,25.8304375 77.953,26.0849653" id="Fill-466" fill="#16110D"></path>
                <path d="M82.1716667,23.6702569 C82.6183333,23.9247847 82.6183333,24.3379792 82.1716667,24.5941597 C81.725,24.8486875 81.005,24.8486875 80.5583333,24.5941597 C80.1133333,24.3379792 80.1133333,23.9247847 80.5583333,23.6702569 C81.005,23.4157292 81.725,23.4157292 82.1716667,23.6702569" id="Fill-468" fill="#16110D"></path>
                <path d="M86.3905,21.2540611 C86.8371667,21.5085889 86.8371667,21.9234361 86.3905,22.1796167 C85.9438333,22.4341444 85.2221667,22.4341444 84.7771667,22.1796167 C84.3321667,21.9234361 84.3321667,21.5085889 84.7771667,21.2540611 C85.2221667,20.9995333 85.9438333,20.9995333 86.3905,21.2540611 C86.8371667,21.5085889 85.9438333,20.9995333 86.3905,21.2540611" id="Fill-470" fill="#16110D"></path>
                <path d="M35.7246667,45.3839556 C36.173,45.6384833 36.173,46.0516778 35.728,46.3078583 C35.283,46.5640389 34.5613333,46.5640389 34.1146667,46.3095111 C33.6696667,46.0549833 35.278,45.1294278 35.7246667,45.3839556" id="Fill-472" fill="#16110D"></path>
                <path d="M38.3355,42.9677597 C38.7821667,42.7132319 39.5038333,42.7132319 39.9505,42.9677597 C40.3938333,43.2222875 40.3938333,43.6354819 39.9505,43.8916625 C39.5038333,44.1461903 38.7821667,44.1461903 38.3355,43.8916625 C37.8888333,43.6354819 37.8888333,43.2222875 38.3355,42.9677597 C38.7821667,42.7132319 37.8888333,43.2222875 38.3355,42.9677597" id="Fill-474" fill="#16110D"></path>
                <path d="M42.5541667,40.5515639 C43.0008333,40.2970361 43.7225,40.2970361 44.1675,40.5515639 C44.6125,40.8060917 44.6125,41.2209389 44.1675,41.4771194 C43.7225,41.7316472 43.0008333,41.7316472 42.5541667,41.4771194 C42.1075,41.2209389 42.1075,40.8060917 42.5541667,40.5515639 C43.0008333,40.2970361 42.1075,40.8060917 42.5541667,40.5515639" id="Fill-476" fill="#16110D"></path>
                <path d="M48.3858333,38.1370208 C48.8325,38.3915486 48.8325,38.8047431 48.3858333,39.0609236 C47.9408333,39.3154514 47.2191667,39.3154514 46.7725,39.0609236 C46.3275,38.8047431 46.3275,38.3915486 46.7725,38.1370208 C47.2191667,37.8824931 47.9408333,37.8824931 48.3858333,38.1370208" id="Fill-478" fill="#16110D"></path>
                <path d="M52.6046667,35.7206597 C53.0513333,35.9751875 53.0513333,36.3900347 52.6046667,36.6462153 C52.158,36.9007431 51.438,36.9007431 50.9913333,36.6462153 C50.5463333,36.3900347 50.5463333,35.9751875 50.9913333,35.7206597 C51.438,35.4661319 52.158,35.4661319 52.6046667,35.7206597" id="Fill-480" fill="#16110D"></path>
                <path d="M56.8233333,33.3061167 C57.27,33.5606444 57.27,33.9738389 56.8233333,34.2300194 C56.3766667,34.4845472 55.6566667,34.4845472 55.21,34.2300194 C54.765,33.9738389 54.765,33.5606444 55.21,33.3061167 C55.6566667,33.0515889 56.3766667,33.0515889 56.8233333,33.3061167" id="Fill-482" fill="#16110D"></path>
                <path d="M61.0421667,30.8899208 C61.4888333,31.1444486 61.4888333,31.5592958 61.0421667,31.8154764 C60.5955,32.0700042 59.8755,32.0700042 59.4288333,31.8154764 C58.9838333,31.5592958 58.9838333,31.1444486 59.4288333,30.8899208 C59.8755,30.6353931 60.5955,30.6353931 61.0421667,30.8899208" id="Fill-484" fill="#16110D"></path>
                <path d="M65.2608333,28.4752125 C65.7075,28.7297403 65.7075,29.1429347 65.2608333,29.3991153 C64.8141667,29.6536431 64.0925,29.6536431 63.6475,29.3991153 C63.2025,29.1429347 63.2025,28.7297403 63.6475,28.4752125 C64.0925,28.2206847 64.8141667,28.2206847 65.2608333,28.4752125" id="Fill-486" fill="#16110D"></path>
                <path d="M69.4796667,26.0606694 C69.9263333,26.3151972 69.9263333,26.7283917 69.4796667,26.9845722 C69.033,27.2391 68.3113333,27.2391 67.8663333,26.9845722 C67.4213333,26.7283917 67.4213333,26.3151972 67.8663333,26.0606694 C68.3113333,25.8044889 69.033,25.8044889 69.4796667,26.0606694" id="Fill-488" fill="#16110D"></path>
                <path d="M72.0855,23.6444736 C72.5305,23.3899458 73.2521667,23.3899458 73.6988333,23.6444736 C74.1438333,23.8990014 74.1438333,24.3121958 73.6988333,24.5683764 C73.2521667,24.8245569 72.5305,24.8245569 72.0855,24.5683764 C71.6388333,24.3121958 71.6388333,23.8990014 72.0855,23.6444736 C72.5305,23.3899458 71.6388333,23.8990014 72.0855,23.6444736" id="Fill-490" fill="#16110D"></path>
                <path d="M77.9171667,21.2299306 C78.3638333,21.4844583 78.3638333,21.8976528 77.9171667,22.1538333 C77.4705,22.4083611 76.7488333,22.4083611 76.3021667,22.1538333 C75.8588333,21.8976528 77.4705,20.9754028 77.9171667,21.2299306" id="Fill-492" fill="#16110D"></path>
                <path d="M72.2806667,66.761975 C72.7256667,66.5074472 73.4473333,66.5057944 73.894,66.7603222 C74.3406667,67.01485 74.3406667,67.4280444 73.8973333,67.6858778 C73.4523333,67.9404056 72.7306667,67.9404056 72.284,67.6875306 C71.8373333,67.43135 71.8356667,67.0181556 72.2806667,66.761975" id="Fill-494" fill="#16110D"></path>
                <path d="M68.062,64.3474319 C68.507,64.0912514 69.2286667,64.0912514 69.6753333,64.3457792 C70.122,64.5986542 70.1236667,65.0135014 69.6786667,65.2696819 C69.2336667,65.5242097 68.512,65.5258625 68.0653333,65.2713347 C67.6186667,65.0151542 67.617,64.6019597 68.062,64.3474319" id="Fill-496" fill="#16110D"></path>
                <path d="M73.9001667,61.9279306 C74.3451667,62.1824583 74.3451667,62.5973056 73.9001667,62.8534861 C73.4535,63.1080139 72.7318333,63.1080139 72.2851667,62.8534861 C71.8418333,62.5973056 71.8418333,62.1824583 72.2851667,61.9279306 C72.7318333,61.6734028 73.4535,61.6734028 73.9001667,61.9279306" id="Fill-498" fill="#16110D"></path>
                <path d="M63.8431667,61.9310708 C64.2881667,61.6765431 65.0098333,61.6765431 65.4581667,61.9294181 C65.9031667,62.1839458 65.9048333,62.5971403 65.4598333,62.8549736 C65.0148333,63.1095014 64.2931667,63.1095014 63.8465,62.8566264 C63.3998333,62.6004458 63.3981667,62.1872514 63.8431667,61.9310708" id="Fill-500" fill="#16110D"></path>
                <path d="M69.6815,59.5132222 C70.1281667,59.76775 70.1281667,60.1809444 69.6815,60.437125 C69.2348333,60.6916528 68.5131667,60.6916528 68.0665,60.437125 C67.6231667,60.1809444 67.6231667,59.76775 68.0665,59.5132222 C68.5131667,59.2586944 69.2348333,59.2586944 69.6815,59.5132222" id="Fill-502" fill="#16110D"></path>
                <path d="M73.9001667,57.0970264 C74.3451667,57.3532069 74.3451667,57.7664014 73.9001667,58.0225819 C73.4535,58.2771097 72.7318333,58.2771097 72.2851667,58.0225819 C71.8418333,57.7664014 71.8418333,57.3532069 72.2851667,57.0970264 C72.7318333,56.8424986 73.4535,56.8424986 73.9001667,57.0970264" id="Fill-504" fill="#16110D"></path>
                <path d="M59.6245,59.5165278 C60.0711667,59.262 60.7911667,59.2603472 61.2395,59.514875 C61.6845,59.7694028 61.6861667,60.1825972 61.2411667,60.4387778 C60.7961667,60.6933056 60.0745,60.6949583 59.6278333,60.4404306 C59.1811667,60.1859028 59.1795,59.7710556 59.6245,59.5165278" id="Fill-506" fill="#16110D"></path>
                <path d="M65.4626667,57.0970264 C65.9093333,57.3532069 65.9093333,57.7664014 65.4626667,58.0225819 C65.016,58.2771097 64.2943333,58.2771097 63.8493333,58.0225819 C63.4043333,57.7664014 63.4043333,57.3532069 63.8493333,57.0970264 C64.2943333,56.8424986 65.016,56.8424986 65.4626667,57.0970264" id="Fill-508" fill="#16110D"></path>
                <path d="M69.6815,54.6824833 C70.1281667,54.9370111 70.1281667,55.3502056 69.6815,55.6063861 C69.2348333,55.8609139 68.5131667,55.8609139 68.0665,55.6063861 C67.6231667,55.3502056 67.6231667,54.9370111 68.0665,54.6824833 C68.5131667,54.4279556 69.2348333,54.4279556 69.6815,54.6824833" id="Fill-510" fill="#16110D"></path>
                <path d="M73.9001667,52.2679403 C74.3451667,52.5224681 74.3451667,52.9356625 73.9001667,53.1918431 C73.4535,53.4463708 72.7318333,53.4463708 72.2851667,53.1918431 C71.8418333,52.9356625 71.8418333,52.5224681 72.2851667,52.2679403 C72.7318333,52.0134125 73.4535,52.0134125 73.9001667,52.2679403" id="Fill-512" fill="#16110D"></path>
                <path d="M78.119,50.7764736 C77.6723333,51.0310014 76.9506667,51.0310014 76.504,50.7764736 C76.0606667,50.5202931 76.0606667,50.1070986 76.504,49.8509181 C76.9506667,49.5963903 77.6723333,49.5963903 78.119,49.8509181 C78.564,50.1070986 78.564,50.5202931 78.119,50.7764736 C77.6723333,51.0310014 78.564,50.5202931 78.119,50.7764736" id="Fill-514" fill="#16110D"></path>
                <path d="M82.3376667,47.4370361 C82.7826667,47.6915639 82.7826667,48.1047583 82.3376667,48.3609389 C81.891,48.6154667 81.1693333,48.6154667 80.7226667,48.3609389 C80.2776667,48.1047583 80.2776667,47.6915639 80.7226667,47.4370361 C81.1693333,47.1825083 81.891,47.1825083 82.3376667,47.4370361" id="Fill-516" fill="#16110D"></path>
                <path d="M86.5548333,45.0208403 C87.0015,45.2753681 87.0015,45.6902153 86.5548333,45.9463958 C86.1098333,46.2009236 85.3881667,46.2009236 84.9415,45.9463958 C84.4965,45.6902153 84.4965,45.2753681 84.9415,45.0208403 C85.3881667,44.7663125 86.1098333,44.7663125 86.5548333,45.0208403" id="Fill-518" fill="#16110D"></path>
                <path d="M90.7735,42.6062972 C91.2201667,42.860825 91.2201667,43.2740194 90.7735,43.5302 C90.3285,43.7847278 89.6068333,43.7847278 89.1601667,43.5302 C88.7151667,43.2740194 88.7151667,42.860825 89.1601667,42.6062972 C89.6068333,42.3517694 90.3285,42.3517694 90.7735,42.6062972" id="Fill-520" fill="#16110D"></path>
                <path d="M94.9923333,40.1899361 C95.439,40.4444639 95.439,40.8593111 94.9923333,41.1154917 C94.5473333,41.3700194 93.8256667,41.3700194 93.379,41.1154917 C92.934,40.8593111 92.934,40.4444639 93.379,40.1899361 C93.8256667,39.9354083 94.5473333,39.9354083 94.9923333,40.1899361" id="Fill-522" fill="#16110D"></path>
                <path d="M99.211,37.7753931 C99.6576667,38.0299208 99.6576667,38.4431153 99.211,38.6992958 C98.766,38.9538236 98.0443333,38.9538236 97.5976667,38.6992958 C97.1526667,38.4431153 97.1526667,38.0299208 97.5976667,37.7753931 C98.0443333,37.5208653 98.766,37.5208653 99.211,37.7753931" id="Fill-524" fill="#16110D"></path>
                <path d="M103.429833,35.36085 C103.8765,35.6153778 103.8765,36.0285722 103.429833,36.2847528 C102.983167,36.5392806 102.263167,36.5392806 101.8165,36.2847528 C101.3715,36.0285722 101.3715,35.6153778 101.8165,35.36085 C102.263167,35.1063222 102.983167,35.1063222 103.429833,35.36085" id="Fill-526" fill="#16110D"></path>
                <polygon id="Fill-528" fill="#0066FF" points="65.5391667 24.9728111 65.5475 13.0033944 81.7241667 22.2655611 81.7158333 34.2349778"></polygon>
                <polygon id="Fill-530" fill="#0066FF" points="65.5473333 13.0030639 80.324 4.58216111 96.5006667 13.8443278 81.724 22.2652306"></polygon>
                <polygon id="Fill-532" fill="#FFFFFF" points="65.7785 16.9348569 80.3251667 8.65113472 96.5018333 17.9133014 81.5868333 25.9507597"></polygon>
                <path d="M66.9178333,13.0047167 L80.3245,5.36557778 L95.1311667,13.842675 L81.7245,21.4834667 L66.9178333,13.0047167 Z M81.0328333,33.0595222 L66.2228333,24.5807722 L66.2311667,14.1781889 L81.0411667,22.6569389 L81.0328333,33.0595222 Z M80.3261667,3.80039722 L64.8645,12.6113556 L64.8561667,25.3641889 L81.7145,35.0164111 L97.1761667,26.2038 L97.1845,13.4526194 L80.3261667,3.80039722 Z" id="Fill-534" fill="#16110D"></path>
                <polygon id="Fill-536" fill="#0066FF" points="44.3168333 37.3266639 44.3168333 9.20299722 60.4918333 18.4668167 60.4918333 46.5888306"></polygon>
                <polygon id="Fill-538" fill="#0066FF" points="44.3168333 9.20365833 59.0935 0.782755556 75.2701667 10.0449222 60.4918333 18.465825"></polygon>
                <polygon id="Fill-540" fill="#FFFFFF" points="44.548 13.1354514 59.0946667 4.85172917 75.2713333 14.1138958 60.3546667 22.1513542"></polygon>
                <path d="M45.6873333,9.20531111 L59.0923333,1.56617222 L73.9006667,10.0432694 L60.494,17.6840611 L45.6873333,9.20531111 Z M59.809,45.4143667 L45.0006667,36.9356167 L45.0006667,10.3787833 L59.809,18.8575333 L59.809,45.4143667 Z M59.0956667,0.000991666667 L43.634,8.81195 L43.634,37.7190333 L60.4923333,47.3712556 L75.954,38.5602972 L75.954,9.65321389 L59.0956667,0.000991666667 Z" id="Fill-542" fill="#16110D"></path>
                <polygon id="Fill-544" fill="#0066FF" points="23.1693333 49.0316361 23.1693333 32.2972611 39.346 41.5594278 39.346 58.2938028"></polygon>
                <polygon id="Fill-546" fill="#0066FF" points="23.1693333 32.2972611 37.946 23.8763583 54.1226667 33.138525 39.346 41.5594278"></polygon>
                <polygon id="Fill-548" fill="#FFFFFF" points="23.4021667 36.2292194 37.9471667 27.9454972 54.1238333 37.2076639 39.2088333 45.2451222"></polygon>
                <path d="M24.5398333,32.2989139 L37.9465,24.659775 L52.7531667,33.1368722 L39.3465,40.7776639 L24.5398333,32.2989139 Z M38.6631667,57.1203306 L23.8531667,48.6415806 L23.8531667,33.4723861 L38.6631667,41.9511361 L38.6631667,57.1203306 Z M37.9481667,23.0945944 L22.4865,31.9055528 L22.4865,49.4233444 L39.3448333,59.0755667 L54.8065,50.2646083 L54.8065,32.7468167 L37.9481667,23.0945944 Z" id="Fill-550" fill="#16110D"></path>
                <polygon id="Fill-552" fill="#0066FF" points="1.8445 60.9465111 1.84783333 53.5106639 18.0245 62.7711778 18.0211667 70.2086778"></polygon>
                <polygon id="Fill-554" fill="#0066FF" points="1.84783333 53.5106639 16.6261667 45.0897611 32.8028333 54.3519278 18.0245 62.7728306"></polygon>
                <polygon id="Fill-556" fill="#FFFFFF" points="2.0805 57.4424569 16.6271667 49.1587347 32.8038333 58.4209014 17.8871667 66.4583597"></polygon>
                <path d="M3.21816667,53.5123167 L16.6248333,45.8731778 L31.4315,54.350275 L18.0265,61.9894139 L3.21816667,53.5123167 Z M17.3365,69.0352056 L2.52816667,60.5564556 L2.5315,54.6857889 L17.3415,63.1645389 L17.3365,69.0352056 Z M16.6265,44.3079972 L1.16483333,53.1189556 L1.1615,61.3382194 L18.0198333,70.9904417 L33.4815,62.1778306 L33.4865,53.9602194 L16.6265,44.3079972 Z" id="Fill-558" fill="#16110D"></path>
                <polygon id="Fill-560" fill="#0066FF" points="49.172 73.782975 49.172 45.6593083 65.3486667 54.921475 65.3486667 83.0451417"></polygon>
                <polygon id="Fill-562" fill="#0066FF" points="49.172 45.6599694 63.9503333 37.2374139 80.127 46.5012333 65.3486667 54.9221361"></polygon>
                <polygon id="Fill-564" fill="#FFFFFF" points="49.4048333 49.5917625 63.9515 41.3080403 80.1281667 50.5702069 65.2115 58.6076653"></polygon>
                <path d="M50.544,45.6616222 L63.949,38.0224833 L78.7573333,46.4995806 L65.3506667,54.1387194 L50.544,45.6616222 Z M64.6656667,81.869025 L49.8573333,73.3919278 L49.8573333,46.8350944 L64.6656667,55.3138444 L64.6656667,81.869025 Z M63.9506667,36.4573028 L48.489,45.2682611 L48.489,74.1736917 L65.349,83.8275667 L80.8106667,75.0149556 L80.8106667,46.109525 L63.9506667,36.4573028 Z" id="Fill-566" fill="#16110D"></path>
                <polygon id="Fill-568" fill="#0066FF" points="28.0261667 85.4881125 28.0261667 68.7537375 44.2028333 78.0159042 44.2028333 94.7502792"></polygon>
                <polygon id="Fill-570" fill="#0066FF" points="28.0261667 68.7537375 42.8028333 60.3328347 58.9795 69.5950014 44.2028333 78.0159042"></polygon>
                <polygon id="Fill-572" fill="#FFFFFF" points="28.2573333 72.6855306 42.804 64.4018083 58.9806667 73.663975 44.064 81.7014333"></polygon>
                <path d="M29.3966667,68.755225 L42.8033333,61.1160861 L57.61,69.5931833 L44.2033333,77.2323222 L29.3966667,68.755225 Z M43.5183333,93.5749889 L28.71,85.0978917 L28.71,69.9286972 L43.5183333,78.4074472 L43.5183333,93.5749889 Z M42.8033333,59.5492528 L27.3433333,68.3618639 L27.3433333,85.8780028 L44.2016667,95.5318778 L59.6633333,86.7192667 L59.6633333,69.2031278 L42.8033333,59.5492528 Z" id="Fill-574" fill="#16110D"></path>
                <polygon id="Fill-576" fill="#0066FF" points="6.69966667 97.4029875 6.70466667 89.9671403 22.8813333 99.2276542 22.8763333 106.665154"></polygon>
                <polygon id="Fill-578" fill="#0066FF" points="6.7045 89.966975 21.4828333 81.5444194 37.6578333 90.8082389 22.8811667 99.2291417"></polygon>
                <polygon id="Fill-580" fill="#FFFFFF" points="6.93733333 93.8987681 21.484 85.6150458 37.659 94.8772125 22.744 102.914671"></polygon>
                <path d="M8.075,89.9686278 L21.4816667,82.3278361 L36.2883333,90.8065861 L22.8816667,98.445725 L8.075,89.9686278 Z M22.1933333,105.489864 L7.385,97.0127667 L7.38833333,91.1421 L22.1983333,99.62085 L22.1933333,105.489864 Z M21.4833333,80.7626556 L6.02166667,89.5752667 L6.01666667,97.7928778 L22.8766667,107.446753 L38.3383333,98.6341417 L38.3416667,90.4165306 L21.4833333,80.7626556 Z" id="Fill-582" fill="#16110D"></path>
            </g>
        </g>
    </g>
</svg>