<?xml version="1.0" encoding="UTF-8" standalone="no"?>
<!-- Generator: Adobe Illustrator 18.1.1, SVG Export Plug-In . SVG Version: 6.00 Build 0)  -->

<svg
   xmlns:dc="http://purl.org/dc/elements/1.1/"
   xmlns:cc="http://creativecommons.org/ns#"
   xmlns:rdf="http://www.w3.org/1999/02/22-rdf-syntax-ns#"
   xmlns:svg="http://www.w3.org/2000/svg"
   xmlns="http://www.w3.org/2000/svg"
   xmlns:sodipodi="http://sodipodi.sourceforge.net/DTD/sodipodi-0.dtd"
   xmlns:inkscape="http://www.inkscape.org/namespaces/inkscape"
   version="1.1"
   id="Capa_1"
   x="0px"
   y="0px"
   viewBox="0 0 11.723868 11.349217"
   xml:space="preserve"
   sodipodi:docname="maintanance-mini.svg"
   width="11.723867"
   height="11.349216"
   inkscape:version="0.92.5 (2060ec1f9f, 2020-04-08)"><metadata
   id="metadata219"><rdf:RDF><cc:Work
       rdf:about=""><dc:format>image/svg+xml</dc:format><dc:type
         rdf:resource="http://purl.org/dc/dcmitype/StillImage" /></cc:Work></rdf:RDF></metadata><defs
   id="defs217" /><sodipodi:namedview
   pagecolor="#ffffff"
   bordercolor="#666666"
   borderopacity="1"
   objecttolerance="10"
   gridtolerance="10"
   guidetolerance="10"
   inkscape:pageopacity="0"
   inkscape:pageshadow="2"
   inkscape:window-width="1868"
   inkscape:window-height="1016"
   id="namedview215"
   showgrid="false"
   inkscape:zoom="31.304869"
   inkscape:cx="7.651468"
   inkscape:cy="3.0462165"
   inkscape:window-x="1972"
   inkscape:window-y="27"
   inkscape:window-maximized="1"
   inkscape:current-layer="g182" />
<g
   id="g182"
   transform="matrix(0.43795697,0,0,0.43795697,1.9726408e-4,-0.18744558)">
	<path
   d="m 17.601,12.297 c 0.556,-0.371 1.212,-0.529 1.854,-0.457 L 26.769,4.524 22.673,0.428 15.358,7.744 c 0.074,0.65 -0.09,1.314 -0.476,1.877 z"
   id="path146"
   inkscape:connector-curvature="0"
   style="fill:#0066ff;fill-opacity:1" />
	<polygon
   points="5.99,22.354 10.642,17.701 9.486,16.561 4.842,21.207 4.577,20.942 3.19,22.063 0.854,25.744 1.452,26.342 5.136,24.006 6.256,22.623 "
   id="polygon148"
   style="fill:#0066ff;fill-opacity:1" />
	<path
   d="M 11.204,8.307 C 11.741,6.387 11.254,4.241 9.747,2.731 8.245,1.235 6.124,0.744 4.215,1.262 L 7.448,4.494 6.6,7.66 3.43,8.508 0.198,5.278 c -0.516,1.908 -0.026,4.029 1.473,5.529 1.571,1.572 3.835,2.033 5.815,1.389 l 0.018,0.018 13.299,13.299 c 0.526,0.525 1.216,0.791 1.905,0.791 0.69,0 1.378,-0.266 1.906,-0.791 1.051,-1.049 1.051,-2.754 0,-3.811 z M 22.94,25.061 c -0.566,0 -1.025,-0.461 -1.025,-1.029 0,-0.57 0.459,-1.029 1.025,-1.029 0.57,0 1.031,0.459 1.031,1.029 0.001,0.568 -0.46,1.029 -1.031,1.029 z"
   id="path150"
   inkscape:connector-curvature="0"
   style="fill:#0066ff;fill-opacity:1" />
	<g
   id="g152">
	</g>
	<g
   id="g154">
	</g>
	<g
   id="g156">
	</g>
	<g
   id="g158">
	</g>
	<g
   id="g160">
	</g>
	<g
   id="g162">
	</g>
	<g
   id="g164">
	</g>
	<g
   id="g166">
	</g>
	<g
   id="g168">
	</g>
	<g
   id="g170">
	</g>
	<g
   id="g172">
	</g>
	<g
   id="g174">
	</g>
	<g
   id="g176">
	</g>
	<g
   id="g178">
	</g>
	<g
   id="g180">
	</g>
</g>
<g
   id="g184"
   transform="matrix(0.43795697,0,0,0.43795697,1.9726408e-4,-0.18744558)">
</g>
<g
   id="g186"
   transform="matrix(0.43795697,0,0,0.43795697,1.9726408e-4,-0.18744558)">
</g>
<g
   id="g188"
   transform="matrix(0.43795697,0,0,0.43795697,1.9726408e-4,-0.18744558)">
</g>
<g
   id="g190"
   transform="matrix(0.43795697,0,0,0.43795697,1.9726408e-4,-0.18744558)">
</g>
<g
   id="g192"
   transform="matrix(0.43795697,0,0,0.43795697,1.9726408e-4,-0.18744558)">
</g>
<g
   id="g194"
   transform="matrix(0.43795697,0,0,0.43795697,1.9726408e-4,-0.18744558)">
</g>
<g
   id="g196"
   transform="matrix(0.43795697,0,0,0.43795697,1.9726408e-4,-0.18744558)">
</g>
<g
   id="g198"
   transform="matrix(0.43795697,0,0,0.43795697,1.9726408e-4,-0.18744558)">
</g>
<g
   id="g200"
   transform="matrix(0.43795697,0,0,0.43795697,1.9726408e-4,-0.18744558)">
</g>
<g
   id="g202"
   transform="matrix(0.43795697,0,0,0.43795697,1.9726408e-4,-0.18744558)">
</g>
<g
   id="g204"
   transform="matrix(0.43795697,0,0,0.43795697,1.9726408e-4,-0.18744558)">
</g>
<g
   id="g206"
   transform="matrix(0.43795697,0,0,0.43795697,1.9726408e-4,-0.18744558)">
</g>
<g
   id="g208"
   transform="matrix(0.43795697,0,0,0.43795697,1.9726408e-4,-0.18744558)">
</g>
<g
   id="g210"
   transform="matrix(0.43795697,0,0,0.43795697,1.9726408e-4,-0.18744558)">
</g>
<g
   id="g212"
   transform="matrix(0.43795697,0,0,0.43795697,1.9726408e-4,-0.18744558)">
</g>
</svg>