<?xml version="1.0" encoding="iso-8859-1"?>
<!-- Generator: Adobe Illustrator 19.0.0, SVG Export Plug-In . SVG Version: 6.00 Build 0)  -->
<svg version="1.1" id="Layer_1" xmlns="http://www.w3.org/2000/svg" xmlns:xlink="http://www.w3.org/1999/xlink" x="0px" y="0px"
	 viewBox="0 0 512 512" style="enable-background:new 0 0 512 512;" xml:space="preserve">
<g fill="#0066ff">
	<g>
		<path d="M428.522,0H83.478C37.446,0,0,37.446,0,83.478v345.043C0,474.554,37.446,512,83.478,512h345.043
			C474.554,512,512,474.554,512,428.522V83.478C512,37.446,474.554,0,428.522,0z M122.435,439.652
			c-27.619,0-50.087-22.468-50.087-50.087c0-27.619,22.468-50.087,50.087-50.087c27.619,0,50.087,22.468,50.087,50.087
			C172.522,417.184,150.054,439.652,122.435,439.652z M256,422.957c-18.413,0-33.391-14.978-33.391-33.391
			c0-55.234-44.935-100.174-100.174-100.174c-18.413,0-33.391-14.978-33.391-33.391s14.978-33.391,33.391-33.391
			c92.065,0,166.956,74.897,166.956,166.956C289.391,407.978,274.413,422.957,256,422.957z M389.565,422.957
			c-18.413,0-33.391-14.978-33.391-33.391c0-128.886-104.859-233.739-233.739-233.739c-18.413,0-33.391-14.978-33.391-33.391
			c0-18.413,14.978-33.391,33.391-33.391c165.707,0,300.522,134.815,300.522,300.522
			C422.957,407.978,407.978,422.957,389.565,422.957z"/>
	</g>
</g>
</svg>
