<?xml version="1.0" encoding="UTF-8"?>
<svg width="24px" height="20px" viewBox="0 0 24 20" version="1.1" xmlns="http://www.w3.org/2000/svg" xmlns:xlink="http://www.w3.org/1999/xlink">
    <!-- Generator: Sketch 52.5 (67469) - http://www.bohemiancoding.com/sketch -->
    <title>Combined Shape</title>
    <desc>Created with Sketch.</desc>
    <g id="Page-1" stroke="none" stroke-width="1" fill="none" fill-rule="evenodd">
        <g id="Design" transform="translate(-1120.000000, -49.000000)" fill="#0066FF">
            <path d="M1129.46655,62.3176714 L1129.48059,62.202201 C1129.48059,62.202201 1139.1956,53.7794052 1139.59376,53.4209574 C1139.99191,53.0625095 1139.85917,52.9857047 1139.85917,52.9857047 C1139.88568,52.5505288 1139.14249,52.9857047 1139.14249,52.9857047 L1126.26876,60.8710098 L1120.90694,59.1300714 C1120.90694,59.1300714 1120.08411,58.8485051 1120.00448,58.2340669 C1119.92485,57.6196287 1120.93346,57.2867568 1120.93346,57.2867568 L1142.24811,49.2222553 C1142.24811,49.2222553 1144,48.4798603 1144,49.7087368 L1140.20422,68.167459 C1140.20422,68.167459 1139.67332,69.4475642 1138.21344,68.8331259 L1132.81257,64.8394019 L1129.34784,67.8862306 C1129.34784,67.8862306 1129.07701,68.0843869 1128.7807,67.9601936 L1129.44411,62.3007569 L1129.46655,62.3176714 Z" id="Combined-Shape"></path>
        </g>
    </g>
</svg>